%FSTAX26Y26*%
%MOIN*%
%SFA1B1*%

%IPPOS*%
%AMD33*
4,1,8,-0.033600,0.009300,0.008100,-0.033900,0.014300,-0.034000,0.033500,-0.015500,0.033600,-0.009300,-0.008100,0.033900,-0.014300,0.034000,-0.033500,0.015500,-0.033600,0.009300,0.0*
1,1,0.008858,-0.030400,0.012300*
1,1,0.008858,0.011300,-0.030800*
1,1,0.008858,0.030400,-0.012300*
1,1,0.008858,-0.011300,0.030800*
%
%AMD63*
4,1,8,-0.011000,-0.006100,0.003500,-0.012000,0.006600,-0.010700,0.012300,0.002900,0.011000,0.006100,-0.003500,0.012000,-0.006600,0.010700,-0.012300,-0.002900,-0.011000,-0.006100,0.0*
1,1,0.004922,-0.010000,-0.003900*
1,1,0.004922,0.004400,-0.009800*
1,1,0.004922,0.010000,0.003900*
1,1,0.004922,-0.004400,0.009800*
%
%AMD98*
4,1,4,0.017500,0.028400,-0.028400,0.017500,-0.017500,-0.028400,0.028400,-0.017500,0.017500,0.028400,0.0*
%
%AMD99*
4,1,4,0.039800,-0.001100,-0.015300,0.036700,-0.039800,0.001100,0.015300,-0.036700,0.039800,-0.001100,0.0*
1,1,0.043307,-0.027500,0.018900*
1,1,0.043307,0.027500,-0.018900*
%
%AMD100*
4,1,4,0.009800,-0.022100,0.024200,-0.001200,-0.009800,0.022100,-0.024200,0.001200,0.009800,-0.022100,0.0*
1,1,0.041339,0.007200,0.010500*
1,1,0.041339,-0.007200,-0.010500*
%
%AMD106*
4,1,8,0.031800,-0.014100,-0.003000,0.034700,-0.009100,0.035700,-0.030800,0.020300,-0.031800,0.014100,0.003000,-0.034700,0.009100,-0.035700,0.030800,-0.020300,0.031800,-0.014100,0.0*
1,1,0.008858,0.028200,-0.016700*
1,1,0.008858,-0.006600,0.032100*
1,1,0.008858,-0.028200,0.016700*
1,1,0.008858,0.006600,-0.032100*
%
%AMD107*
4,1,8,-0.009400,-0.008300,0.006000,-0.011000,0.008800,-0.009100,0.011300,0.005500,0.009400,0.008300,-0.006000,0.011000,-0.008800,0.009100,-0.011300,-0.005500,-0.009400,-0.008300,0.0*
1,1,0.004922,-0.009000,-0.005900*
1,1,0.004922,0.006400,-0.008600*
1,1,0.004922,0.009000,0.005900*
1,1,0.004922,-0.006400,0.008600*
%
%AMD108*
4,1,8,0.011800,-0.005200,0.006900,0.010900,0.004000,0.012500,-0.010200,0.008200,-0.011800,0.005200,-0.006900,-0.010900,-0.004000,-0.012500,0.010200,-0.008200,0.011800,-0.005200,0.0*
1,1,0.004922,0.009500,-0.005900*
1,1,0.004922,0.004700,0.010200*
1,1,0.004922,-0.009500,0.005900*
1,1,0.004922,-0.004700,-0.010200*
%
%AMD109*
4,1,8,0.011700,-0.005300,0.007100,0.010800,0.004100,0.012400,-0.010100,0.008300,-0.011700,0.005300,-0.007100,-0.010800,-0.004100,-0.012400,0.010100,-0.008300,0.011700,-0.005300,0.0*
1,1,0.004922,0.009400,-0.006000*
1,1,0.004922,0.004800,0.010100*
1,1,0.004922,-0.009400,0.006000*
1,1,0.004922,-0.004800,-0.010100*
%
%AMD110*
4,1,8,-0.003100,-0.012500,0.011900,-0.005000,0.013000,-0.001800,0.006400,0.011400,0.003100,0.012500,-0.011900,0.005000,-0.013000,0.001800,-0.006400,-0.011400,-0.003100,-0.012500,0.0*
1,1,0.004922,-0.004200,-0.010400*
1,1,0.004922,0.010800,-0.002900*
1,1,0.004922,0.004200,0.010400*
1,1,0.004922,-0.010800,0.002900*
%
%AMD111*
4,1,8,-0.003800,-0.012300,0.011600,-0.005600,0.012900,-0.002500,0.007000,0.011100,0.003800,0.012300,-0.011600,0.005600,-0.012900,0.002500,-0.007000,-0.011100,-0.003800,-0.012300,0.0*
1,1,0.004922,-0.004800,-0.010100*
1,1,0.004922,0.010700,-0.003400*
1,1,0.004922,0.004800,0.010100*
1,1,0.004922,-0.010700,0.003400*
%
%AMD112*
4,1,8,-0.004400,-0.012100,0.011300,-0.006200,0.012700,-0.003100,0.007500,0.010700,0.004400,0.012100,-0.011300,0.006200,-0.012700,0.003100,-0.007500,-0.010700,-0.004400,-0.012100,0.0*
1,1,0.004922,-0.005300,-0.009900*
1,1,0.004922,0.010500,-0.004000*
1,1,0.004922,0.005300,0.009900*
1,1,0.004922,-0.010500,0.004000*
%
%AMD113*
4,1,8,-0.010300,-0.007800,0.006200,-0.011300,0.009000,-0.009500,0.012100,0.005000,0.010300,0.007800,-0.006200,0.011300,-0.009000,0.009500,-0.012100,-0.005000,-0.010300,-0.007800,0.0*
1,1,0.004922,-0.009800,-0.005500*
1,1,0.004922,0.006700,-0.009000*
1,1,0.004922,0.009800,0.005500*
1,1,0.004922,-0.006700,0.009000*
%
%AMD114*
4,1,8,-0.009500,-0.008700,0.007100,-0.010800,0.009800,-0.008700,0.011600,0.006000,0.009500,0.008700,-0.007100,0.010800,-0.009800,0.008700,-0.011600,-0.006000,-0.009500,-0.008700,0.0*
1,1,0.004922,-0.009200,-0.006300*
1,1,0.004922,0.007400,-0.008400*
1,1,0.004922,0.009200,0.006300*
1,1,0.004922,-0.007400,0.008400*
%
%AMD115*
4,1,8,-0.007300,-0.010600,0.009400,-0.008900,0.011500,-0.006200,0.010000,0.008500,0.007300,0.010600,-0.009400,0.008900,-0.011500,0.006200,-0.010000,-0.008500,-0.007300,-0.010600,0.0*
1,1,0.004922,-0.007600,-0.008200*
1,1,0.004922,0.009100,-0.006500*
1,1,0.004922,0.007600,0.008200*
1,1,0.004922,-0.009100,0.006500*
%
%AMD116*
4,1,8,-0.008300,-0.009400,0.007300,-0.010200,0.009800,-0.007900,0.010600,0.006900,0.008300,0.009400,-0.007300,0.010200,-0.009800,0.007900,-0.010600,-0.006900,-0.008300,-0.009400,0.0*
1,1,0.004922,-0.008200,-0.007000*
1,1,0.004922,0.007400,-0.007800*
1,1,0.004922,0.008200,0.007000*
1,1,0.004922,-0.007400,0.007800*
%
%AMD117*
4,1,8,-0.009500,-0.008800,0.007200,-0.010700,0.009900,-0.008600,0.011600,0.006100,0.009500,0.008800,-0.007200,0.010700,-0.009900,0.008600,-0.011600,-0.006100,-0.009500,-0.008800,0.0*
1,1,0.004922,-0.009200,-0.006400*
1,1,0.004922,0.007500,-0.008300*
1,1,0.004922,0.009200,0.006400*
1,1,0.004922,-0.007500,0.008300*
%
%AMD118*
4,1,8,0.011000,0.006000,-0.003400,0.012100,-0.006500,0.010800,-0.012300,-0.002800,-0.011000,-0.006000,0.003400,-0.012100,0.006500,-0.010800,0.012300,0.002800,0.011000,0.006000,0.0*
1,1,0.004922,0.010100,0.003800*
1,1,0.004922,-0.004300,0.009900*
1,1,0.004922,-0.010100,-0.003800*
1,1,0.004922,0.004300,-0.009900*
%
%AMD119*
4,1,8,0.012200,0.002800,0.000000,0.012500,-0.003400,0.012100,-0.012600,0.000600,-0.012200,-0.002800,0.000000,-0.012500,0.003400,-0.012100,0.012600,-0.000600,0.012200,0.002800,0.0*
1,1,0.004922,0.010700,0.000900*
1,1,0.004922,-0.001500,0.010600*
1,1,0.004922,-0.010700,-0.000900*
1,1,0.004922,0.001500,-0.010600*
%
%AMD120*
4,1,8,0.012500,-0.000700,0.003400,0.012000,0.000100,0.012600,-0.011900,0.004000,-0.012500,0.000700,-0.003400,-0.012000,-0.000100,-0.012600,0.011900,-0.004000,0.012500,-0.000700,0.0*
1,1,0.004922,0.010600,-0.002100*
1,1,0.004922,0.001500,0.010600*
1,1,0.004922,-0.010600,0.002100*
1,1,0.004922,-0.001500,-0.010600*
%
%AMD121*
4,1,8,0.011900,-0.003900,0.006400,0.010700,0.003400,0.012100,-0.010500,0.007000,-0.011900,0.003900,-0.006400,-0.010700,-0.003400,-0.012100,0.010500,-0.007000,0.011900,-0.003900,0.0*
1,1,0.004922,0.009700,-0.004700*
1,1,0.004922,0.004200,0.009900*
1,1,0.004922,-0.009700,0.004700*
1,1,0.004922,-0.004200,-0.009900*
%
%AMD122*
4,1,4,-0.036600,0.016200,-0.024700,-0.031500,0.036600,-0.016200,0.024700,0.031500,-0.036600,0.016200,0.0*
%
%AMD123*
4,1,4,0.038600,0.042900,0.023800,0.052500,-0.038600,-0.042900,-0.023800,-0.052500,0.038600,0.042900,0.0*
%
%AMD124*
4,1,4,0.011400,0.006600,0.001500,0.013100,-0.011400,-0.006600,-0.001500,-0.013100,0.011400,0.006600,0.0*
%
%AMD125*
4,1,4,0.022300,0.001800,-0.007300,0.021200,-0.022300,-0.001800,0.007300,-0.021200,0.022300,0.001800,0.0*
%
%AMD126*
4,1,4,0.027800,0.026500,0.013100,0.036100,-0.027800,-0.026500,-0.013100,-0.036100,0.027800,0.026500,0.0*
%
%AMD127*
4,1,4,-0.004000,0.019000,-0.019000,-0.004000,0.004000,-0.019000,0.019000,0.004000,-0.004000,0.019000,0.0*
%
%AMD128*
4,1,4,0.019800,0.003400,-0.004800,0.019500,-0.019800,-0.003400,0.004800,-0.019500,0.019800,0.003400,0.0*
%
%AMD129*
4,1,4,0.028400,-0.006900,-0.017600,0.023300,-0.028400,0.006900,0.017600,-0.023300,0.028400,-0.006900,0.0*
%
%AMD130*
4,1,4,0.033200,0.034700,0.018500,0.044300,-0.033200,-0.034700,-0.018500,-0.044300,0.033200,0.034700,0.0*
%
%AMD131*
4,1,8,-0.018700,-0.007400,0.010800,-0.017000,0.014800,-0.014900,0.020800,0.003400,0.018700,0.007400,-0.010800,0.017000,-0.014800,0.014900,-0.020800,-0.003400,-0.018700,-0.007400,0.0*
1,1,0.006398,-0.017700,-0.004300*
1,1,0.006398,0.011800,-0.013900*
1,1,0.006398,0.017700,0.004300*
1,1,0.006398,-0.011800,0.013900*
%
%AMD132*
4,1,4,-0.009300,0.021400,-0.023400,0.000200,0.009300,-0.021400,0.023400,-0.000200,-0.009300,0.021400,0.0*
1,1,0.025591,-0.016300,0.010800*
1,1,0.025591,0.016300,-0.010800*
%
%AMD133*
4,1,8,-0.003500,0.012400,-0.012800,-0.001600,-0.012100,-0.004900,0.000200,-0.013100,0.003500,-0.012400,0.012800,0.001600,0.012100,0.004900,-0.000200,0.013100,-0.003500,0.012400,0.0*
1,1,0.004922,-0.001500,0.011100*
1,1,0.004922,-0.010800,-0.002900*
1,1,0.004922,0.001500,-0.011100*
1,1,0.004922,0.010800,0.002900*
%
%AMD134*
4,1,8,0.009300,-0.008900,0.010200,0.007900,0.008000,0.010400,-0.006800,0.011200,-0.009300,0.008900,-0.010200,-0.007900,-0.008000,-0.010400,0.006800,-0.011200,0.009300,-0.008900,0.0*
1,1,0.004922,0.007000,-0.008800*
1,1,0.004922,0.007800,0.008000*
1,1,0.004922,-0.007000,0.008800*
1,1,0.004922,-0.007800,-0.008000*
%
%AMD135*
4,1,8,0.008500,-0.009800,0.010900,0.006900,0.008900,0.009600,-0.005700,0.011800,-0.008500,0.009800,-0.010900,-0.006900,-0.008900,-0.009600,0.005700,-0.011800,0.008500,-0.009800,0.0*
1,1,0.004922,0.006100,-0.009400*
1,1,0.004922,0.008600,0.007200*
1,1,0.004922,-0.006100,0.009400*
1,1,0.004922,-0.008600,-0.007200*
%
%AMD136*
4,1,8,-0.011700,-0.004500,0.001700,-0.012400,0.005000,-0.011600,0.012500,0.001200,0.011700,0.004500,-0.001700,0.012400,-0.005000,0.011600,-0.012500,-0.001200,-0.011700,-0.004500,0.0*
1,1,0.004922,-0.010500,-0.002400*
1,1,0.004922,0.003000,-0.010300*
1,1,0.004922,0.010500,0.002400*
1,1,0.004922,-0.003000,0.010300*
%
%AMD137*
4,1,8,-0.012500,-0.001100,-0.001700,-0.012400,0.001700,-0.012500,0.012400,-0.002300,0.012500,0.001100,0.001700,0.012400,-0.001700,0.012500,-0.012400,0.002300,-0.012500,-0.001100,0.0*
1,1,0.004922,-0.010700,0.000600*
1,1,0.004922,0.000000,-0.010800*
1,1,0.004922,0.010700,-0.000600*
1,1,0.004922,0.000000,0.010800*
%
%AMD138*
4,1,8,-0.012300,0.002300,-0.005000,-0.011500,-0.001700,-0.012500,0.011300,-0.005500,0.012300,-0.002300,0.005000,0.011500,0.001700,0.012500,-0.011300,0.005500,-0.012300,0.002300,0.0*
1,1,0.004922,-0.010200,0.003400*
1,1,0.004922,-0.002900,-0.010400*
1,1,0.004922,0.010200,-0.003400*
1,1,0.004922,0.002900,0.010400*
%
%AMD139*
4,1,8,-0.011300,0.005400,-0.007800,-0.009800,-0.004900,-0.011600,0.009500,-0.008300,0.011300,-0.005400,0.007800,0.009800,0.004900,0.011600,-0.009500,0.008300,-0.011300,0.005400,0.0*
1,1,0.004922,-0.009000,0.005900*
1,1,0.004922,-0.005500,-0.009300*
1,1,0.004922,0.009000,-0.005900*
1,1,0.004922,0.005500,0.009300*
%
%AMD140*
4,1,8,-0.004500,-0.011700,0.010400,-0.007000,0.012000,-0.004000,0.007500,0.010100,0.004500,0.011700,-0.010400,0.007000,-0.012000,0.004000,-0.007500,-0.010100,-0.004500,-0.011700,0.0*
1,1,0.004922,-0.005200,-0.009400*
1,1,0.004922,0.009700,-0.004700*
1,1,0.004922,0.005200,0.009400*
1,1,0.004922,-0.009700,0.004700*
%
%AMD141*
4,1,4,0.026700,-0.002300,-0.012800,0.023500,-0.026700,0.002300,0.012800,-0.023500,0.026700,-0.002300,0.0*
%
%AMD142*
4,1,8,0.011900,0.003900,-0.001100,0.012500,-0.004400,0.011800,-0.012600,-0.000500,-0.011900,-0.003900,0.001100,-0.012500,0.004400,-0.011800,0.012600,0.000500,0.011900,0.003900,0.0*
1,1,0.004922,0.010600,0.001900*
1,1,0.004922,-0.002400,0.010500*
1,1,0.004922,-0.010600,-0.001900*
1,1,0.004922,0.002400,-0.010500*
%
%AMD143*
4,1,8,0.009700,-0.007900,0.009900,0.007700,0.007500,0.010100,-0.007300,0.010300,-0.009700,0.007900,-0.009900,-0.007700,-0.007500,-0.010100,0.007300,-0.010300,0.009700,-0.007900,0.0*
1,1,0.004922,0.007300,-0.007900*
1,1,0.004922,0.007500,0.007700*
1,1,0.004922,-0.007300,0.007900*
1,1,0.004922,-0.007500,-0.007700*
%
%AMD144*
4,1,8,0.009700,-0.007900,0.009900,0.007700,0.007500,0.010100,-0.007300,0.010300,-0.009700,0.007900,-0.009900,-0.007700,-0.007500,-0.010100,0.007300,-0.010300,0.009700,-0.007900,0.0*
1,1,0.004922,0.007300,-0.007900*
1,1,0.004922,0.007500,0.007700*
1,1,0.004922,-0.007300,0.007900*
1,1,0.004922,-0.007500,-0.007700*
%
%AMD145*
4,1,8,0.011600,-0.004700,0.007200,0.010200,0.004200,0.011900,-0.010000,0.007700,-0.011600,0.004700,-0.007200,-0.010200,-0.004200,-0.011900,0.010000,-0.007700,0.011600,-0.004700,0.0*
1,1,0.004922,0.009300,-0.005400*
1,1,0.004922,0.004900,0.009600*
1,1,0.004922,-0.009300,0.005400*
1,1,0.004922,-0.004900,-0.009600*
%
%ADD11C,0.008000*%
%ADD12C,0.015000*%
%ADD16C,0.010000*%
%ADD17C,0.009999*%
G04~CAMADD=33~8~0.0~0.0~689.0~354.3~44.3~0.0~15~0.0~0.0~0.0~0.0~0~0.0~0.0~0.0~0.0~0~0.0~0.0~0.0~134.0~698.0~705.0*
%ADD33D33*%
G04~CAMADD=63~8~0.0~0.0~204.7~196.8~24.6~0.0~15~0.0~0.0~0.0~0.0~0~0.0~0.0~0.0~0.0~0~0.0~0.0~0.0~157.5~250.0~246.0*
%ADD63D63*%
%ADD97C,0.047244*%
G04~CAMADD=98~10~0.0~472.4~0.0~0.0~0.0~0.0~0~0.0~0.0~0.0~0.0~0~0.0~0.0~0.0~0.0~0~0.0~0.0~0.0~373.3~472.4~0.0*
%ADD98D98*%
G04~CAMADD=99~3~0.0~0.0~1102.4~433.1~0.0~0.0~0~0.0~0.0~0.0~0.0~0~0.0~0.0~0.0~0.0~0~0.0~0.0~0.0~325.5~982.0~808.0*
%ADD99D99*%
G04~CAMADD=100~3~0.0~0.0~669.3~413.4~0.0~0.0~0~0.0~0.0~0.0~0.0~0~0.0~0.0~0.0~0.0~0~0.0~0.0~0.0~235.5~556.0~622.0*
%ADD100D100*%
%ADD101C,0.033465*%
%ADD102C,0.016000*%
%ADD103C,0.024000*%
G04~CAMADD=106~8~0.0~0.0~689.0~354.3~44.3~0.0~15~0.0~0.0~0.0~0.0~0~0.0~0.0~0.0~0.0~0~0.0~0.0~0.0~305.5~654.0~731.0*
%ADD106D106*%
G04~CAMADD=107~8~0.0~0.0~204.7~196.8~24.6~0.0~15~0.0~0.0~0.0~0.0~0~0.0~0.0~0.0~0.0~0~0.0~0.0~0.0~170.0~228.0~222.0*
%ADD107D107*%
G04~CAMADD=108~8~0.0~0.0~216.5~196.8~24.6~0.0~15~0.0~0.0~0.0~0.0~0~0.0~0.0~0.0~0.0~0~0.0~0.0~0.0~286.8~238.0~251.0*
%ADD108D108*%
G04~CAMADD=109~8~0.0~0.0~216.5~196.8~24.6~0.0~15~0.0~0.0~0.0~0.0~0~0.0~0.0~0.0~0.0~0~0.0~0.0~0.0~286.1~238.0~249.0*
%ADD109D109*%
G04~CAMADD=110~8~0.0~0.0~216.5~196.8~24.6~0.0~15~0.0~0.0~0.0~0.0~0~0.0~0.0~0.0~0.0~0~0.0~0.0~0.0~206.5~265.0~256.0*
%ADD110D110*%
G04~CAMADD=111~8~0.0~0.0~216.5~196.8~24.6~0.0~15~0.0~0.0~0.0~0.0~0~0.0~0.0~0.0~0.0~0~0.0~0.0~0.0~203.5~261.0~251.0*
%ADD111D111*%
G04~CAMADD=112~8~0.0~0.0~216.5~196.8~24.6~0.0~15~0.0~0.0~0.0~0.0~0~0.0~0.0~0.0~0.0~0~0.0~0.0~0.0~200.5~257.0~246.0*
%ADD112D112*%
G04~CAMADD=113~8~0.0~0.0~216.5~196.8~24.6~0.0~15~0.0~0.0~0.0~0.0~0~0.0~0.0~0.0~0.0~0~0.0~0.0~0.0~168.0~244.0~228.0*
%ADD113D113*%
G04~CAMADD=114~8~0.0~0.0~216.5~196.8~24.6~0.0~15~0.0~0.0~0.0~0.0~0~0.0~0.0~0.0~0.0~0~0.0~0.0~0.0~173.0~234.0~216.0*
%ADD114D114*%
G04~CAMADD=115~8~0.0~0.0~216.5~196.8~24.6~0.0~15~0.0~0.0~0.0~0.0~0~0.0~0.0~0.0~0.0~0~0.0~0.0~0.0~186.0~231.0~213.0*
%ADD115D115*%
G04~CAMADD=116~8~0.0~0.0~204.7~196.8~24.6~0.0~15~0.0~0.0~0.0~0.0~0~0.0~0.0~0.0~0.0~0~0.0~0.0~0.0~177.0~212.0~205.0*
%ADD116D116*%
G04~CAMADD=117~8~0.0~0.0~216.5~196.8~24.6~0.0~15~0.0~0.0~0.0~0.0~0~0.0~0.0~0.0~0.0~0~0.0~0.0~0.0~173.5~232.0~214.0*
%ADD117D117*%
G04~CAMADD=118~8~0.0~0.0~204.7~196.8~24.6~0.0~15~0.0~0.0~0.0~0.0~0~0.0~0.0~0.0~0.0~0~0.0~0.0~0.0~337.0~250.0~247.0*
%ADD118D118*%
G04~CAMADD=119~8~0.0~0.0~204.7~196.8~24.6~0.0~15~0.0~0.0~0.0~0.0~0~0.0~0.0~0.0~0.0~0~0.0~0.0~0.0~321.5~262.0~263.0*
%ADD119D119*%
G04~CAMADD=120~8~0.0~0.0~204.7~196.8~24.6~0.0~15~0.0~0.0~0.0~0.0~0~0.0~0.0~0.0~0.0~0~0.0~0.0~0.0~305.5~260.0~262.0*
%ADD120D120*%
G04~CAMADD=121~8~0.0~0.0~204.7~196.8~24.6~0.0~15~0.0~0.0~0.0~0.0~0~0.0~0.0~0.0~0.0~0~0.0~0.0~0.0~290.5~242.0~247.0*
%ADD121D121*%
G04~CAMADD=122~9~0.0~0.0~493.9~632.4~0.0~0.0~0~0.0~0.0~0.0~0.0~0~0.0~0.0~0.0~0.0~0~0.0~0.0~0.0~104.0~732.0~629.0*
%ADD122D122*%
G04~CAMADD=123~9~0.0~0.0~177.2~1141.7~0.0~0.0~0~0.0~0.0~0.0~0.0~0~0.0~0.0~0.0~0.0~0~0.0~0.0~0.0~326.8~772.0~1049.0*
%ADD123D123*%
G04~CAMADD=124~9~0.0~0.0~118.1~236.2~0.0~0.0~0~0.0~0.0~0.0~0.0~0~0.0~0.0~0.0~0.0~0~0.0~0.0~0.0~326.8~228.0~261.0*
%ADD124D124*%
G04~CAMADD=125~9~0.0~0.0~354.3~275.6~0.0~0.0~0~0.0~0.0~0.0~0.0~0~0.0~0.0~0.0~0.0~0~0.0~0.0~0.0~326.8~446.0~423.0*
%ADD125D125*%
G04~CAMADD=126~9~0.0~0.0~177.2~748.0~0.0~0.0~0~0.0~0.0~0.0~0.0~0~0.0~0.0~0.0~0.0~0~0.0~0.0~0.0~326.8~556.0~721.0*
%ADD126D126*%
G04~CAMADD=127~10~0.0~275.6~0.0~0.0~0.0~0.0~0~0.0~0.0~0.0~0.0~0~0.0~0.0~0.0~0.0~0~0.0~0.0~0.0~416.8~275.6~0.0*
%ADD127D127*%
G04~CAMADD=128~9~0.0~0.0~295.3~275.6~0.0~0.0~0~0.0~0.0~0.0~0.0~0~0.0~0.0~0.0~0.0~0~0.0~0.0~0.0~326.8~396.0~389.0*
%ADD128D128*%
G04~CAMADD=129~9~0.0~0.0~551.2~196.8~0.0~0.0~0~0.0~0.0~0.0~0.0~0~0.0~0.0~0.0~0.0~0~0.0~0.0~0.0~326.8~568.0~465.0*
%ADD129D129*%
G04~CAMADD=130~9~0.0~0.0~177.2~944.9~0.0~0.0~0~0.0~0.0~0.0~0.0~0~0.0~0.0~0.0~0.0~0~0.0~0.0~0.0~326.8~664.0~885.0*
%ADD130D130*%
G04~CAMADD=131~8~0.0~0.0~374.0~255.9~32.0~0.0~15~0.0~0.0~0.0~0.0~0~0.0~0.0~0.0~0.0~0~0.0~0.0~0.0~162.0~418.0~342.0*
%ADD131D131*%
G04~CAMADD=132~3~0.0~0.0~255.9~649.6~0.0~0.0~0~0.0~0.0~0.0~0.0~0~0.0~0.0~0.0~0.0~0~0.0~0.0~0.0~56.5~582.0~470.0*
%ADD132D132*%
G04~CAMADD=133~8~0.0~0.0~216.5~196.8~24.6~0.0~15~0.0~0.0~0.0~0.0~0~0.0~0.0~0.0~0.0~0~0.0~0.0~0.0~56.5~264.0~270.0*
%ADD133D133*%
G04~CAMADD=134~8~0.0~0.0~216.5~196.8~24.6~0.0~15~0.0~0.0~0.0~0.0~0~0.0~0.0~0.0~0.0~0~0.0~0.0~0.0~267.0~204.0~224.0*
%ADD134D134*%
G04~CAMADD=135~8~0.0~0.0~216.5~196.8~24.6~0.0~15~0.0~0.0~0.0~0.0~0~0.0~0.0~0.0~0.0~0~0.0~0.0~0.0~261.5~220.0~236.0*
%ADD135D135*%
G04~CAMADD=136~8~0.0~0.0~204.7~196.8~24.6~0.0~15~0.0~0.0~0.0~0.0~0~0.0~0.0~0.0~0.0~0~0.0~0.0~0.0~149.5~258.0~257.0*
%ADD136D136*%
G04~CAMADD=137~8~0.0~0.0~204.7~196.8~24.6~0.0~15~0.0~0.0~0.0~0.0~0~0.0~0.0~0.0~0.0~0~0.0~0.0~0.0~133.5~264.0~264.0*
%ADD137D137*%
G04~CAMADD=138~8~0.0~0.0~204.7~196.8~24.6~0.0~15~0.0~0.0~0.0~0.0~0~0.0~0.0~0.0~0.0~0~0.0~0.0~0.0~118.0~254.0~256.0*
%ADD138D138*%
G04~CAMADD=139~8~0.0~0.0~204.7~196.8~24.6~0.0~15~0.0~0.0~0.0~0.0~0~0.0~0.0~0.0~0.0~0~0.0~0.0~0.0~103.0~228.0~234.0*
%ADD139D139*%
G04~CAMADD=140~8~0.0~0.0~204.7~196.8~24.6~0.0~15~0.0~0.0~0.0~0.0~0~0.0~0.0~0.0~0.0~0~0.0~0.0~0.0~197.5~242.0~236.0*
%ADD140D140*%
G04~CAMADD=141~9~0.0~0.0~472.4~255.9~0.0~0.0~0~0.0~0.0~0.0~0.0~0~0.0~0.0~0.0~0.0~0~0.0~0.0~0.0~326.8~534.0~469.0*
%ADD141D141*%
G04~CAMADD=142~8~0.0~0.0~204.7~196.8~24.6~0.0~15~0.0~0.0~0.0~0.0~0~0.0~0.0~0.0~0.0~0~0.0~0.0~0.0~326.5~260.0~259.0*
%ADD142D142*%
G04~CAMADD=143~8~0.0~0.0~204.7~196.8~24.6~0.0~15~0.0~0.0~0.0~0.0~0~0.0~0.0~0.0~0.0~0~0.0~0.0~0.0~269.5~199.0~206.0*
%ADD143D143*%
G04~CAMADD=144~8~0.0~0.0~204.7~196.8~24.6~0.0~15~0.0~0.0~0.0~0.0~0~0.0~0.0~0.0~0.0~0~0.0~0.0~0.0~269.5~199.0~206.0*
%ADD144D144*%
G04~CAMADD=145~8~0.0~0.0~204.7~196.8~24.6~0.0~15~0.0~0.0~0.0~0.0~0~0.0~0.0~0.0~0.0~0~0.0~0.0~0.0~286.3~234.0~240.0*
%ADD145D145*%
%LNflagmate_copper_signal_bot-1*%
%LPD*%
%SRX1Y1I0J0*%
G36*
X0007622Y00773878D02*
X00126672Y00767236D01*
X00176579Y00757309*
X00225732Y00744138*
X00273918Y00727782*
X00320931Y00708308*
X00366569Y00685802*
X00410637Y00660359*
X00452947Y00632088*
X00493319Y0060111*
X00531577Y00567559*
X00567559Y00531577*
X0060111Y00493319*
X00632088Y00452947*
X00660359Y00410636*
X00685802Y00366568*
X00708308Y00320931*
X00727782Y00273918*
X00744138Y00225732*
X00757309Y00176579*
X00767236Y00126671*
X00773878Y0007622*
X00777206Y00025442*
Y0*
Y-00025443*
X00773878Y-0007622*
X00767236Y-00126672*
X00757309Y-00176579*
X00744138Y-00225732*
X00727782Y-00273918*
X00708308Y-00320931*
X00699894Y-00337993*
X00697979Y-00337354*
X00701145Y-00320481*
X00703466Y-0031893*
X00705336Y-00316131*
X00710986Y-00302491*
X00711643Y-0029919*
X00710986Y-00295889*
X00710703Y-00295465*
X00711468Y-00293617*
X00711968Y-00293518*
X00714766Y-00291648*
X00716636Y-00288849*
X00722286Y-00275209*
X00722943Y-00271908*
X00722286Y-00268607*
X00720752Y-0026631*
X00720768Y-0026492*
X0072117Y-00263906*
X00724714Y-00260362*
X00726845Y-00255217*
Y-00249647*
X00724714Y-00244501*
X00720776Y-00240563*
X0071563Y-00238432*
X00710061*
X00704915Y-00240563*
X00700977Y-00244501*
X00698845Y-00249647*
Y-00255217*
X00699013Y-00255621*
X00697963Y-00257726*
X00696648Y-00257987*
X00693849Y-00259857*
X00691979Y-00262656*
X00686329Y-00276296*
X00685673Y-00279597*
X00686329Y-00282898*
X00686612Y-00283322*
X00685847Y-0028517*
X00685348Y-00285269*
X00682549Y-00287139*
X00680679Y-00289938*
X00676318Y-00300465*
X00674093Y-0030061*
X00670642Y-00297159*
X00665496Y-00295027*
X00659927*
X00658447Y-0029564*
X00655853Y-0029316*
X00655889Y-00292946*
X00655672Y-00292423*
X00655636Y-00292408*
X00655307Y-00292352*
X00648232Y-00276726*
X00647423Y-0027494*
X00646882Y-00273062*
X00646881Y-00273059*
X00646698Y-00272587*
X00646161Y-00271176*
X00634827Y-00220508*
X00634439Y-00219631*
X00633905Y-00216946*
X00631768Y-00213747*
X0063123Y-00212591*
X00631209Y-00212564*
X00631185Y-00212541*
X00631171Y-00212512*
X0057507Y-00136772*
X00574488Y-00136244*
X00573162Y-00134259*
X00566216Y-00129618*
X00564055Y-00129188*
X00563441Y-00128888*
X00563406Y-00128878*
X00563383Y-00128877*
X00563363Y-00128867*
X00484578Y-00108374*
X00473972Y-00101434*
X00474817Y-00099622*
X00560764Y-00125535*
X00562519Y-0012636*
X00562605Y-00126395*
X00564502Y-00126794*
X00661447Y-00162963*
X00661636Y-00163421*
X00664693Y-00166477*
X00664704Y-00166548*
X00664107Y-0016872*
X00659856Y-00170481*
X00655918Y-00174419*
X00653786Y-00179565*
Y-00185134*
X00655918Y-0019028*
X00659856Y-00194218*
X00665002Y-00196349*
X00670571*
X00675717Y-00194218*
X00679655Y-0019028*
X00681786Y-00185134*
Y-00179565*
X00679655Y-00174419*
X00676599Y-00171363*
X00676587Y-00171293*
X00677185Y-0016912*
X00681436Y-00167359*
X00685374Y-00163421*
X00687505Y-00158276*
Y-00152706*
X00685374Y-0014756*
X00681436Y-00143622*
X0067629Y-00141491*
X0067072*
X00669462Y-00142012*
X00570457Y-00105075*
X00570419Y-00105008*
X00570385Y-00104998*
X00568549Y-00104454*
X00478422Y-0007728*
X00478574Y-00075286*
X00482281Y-00074761*
X00483522Y-00074327*
X00486006Y-00073833*
X00487488Y-00073538*
X00487883Y-00073274*
X0048967Y-0007237*
X00515382Y-00061054*
X00517266Y-0006053*
X00517544Y-00060414*
X0051938Y-00059757*
X00542707Y-00054724*
X0054331Y-00054974*
X00543621Y-00054846*
X00590589Y-00077258*
X00592179Y-00078338*
X00592227Y-00078358*
X00594073Y-00079003*
X0067855Y-00123314*
X00678559Y-00123475*
X00678676Y-00123758*
X00679119Y-00123942*
X00679139Y-0012394*
X00679913Y-00124892*
X00720834Y-00184697*
X0072158Y-00185426*
X0072216Y-00186294*
X00722162Y-00186296*
X00723258Y-00187157*
X00723184Y-00187335*
X00723291Y-00187593*
X00722833Y-0018908*
X00715154Y-00209322*
X00711309Y-00213167*
X00709178Y-00218313*
Y-00223882*
X00711309Y-00229028*
X00715247Y-00232966*
X00720393Y-00235098*
X00725962*
X00731108Y-00232966*
X00735046Y-00229028*
X00737178Y-00223882*
Y-00218313*
X00736424Y-00216494*
X00744497Y-00195215*
X00744583Y-00195247*
X00746157Y-00187335*
X00744449Y-00178751*
X00739587Y-00171474*
X00738443Y-0017071*
X00697333Y-0011063*
X0069659Y-00109903*
X00694965Y-0010747*
X00690644Y-00104583*
X00689781Y-00103876*
X00689746Y-00103857*
X00689709Y-00103846*
X00689679Y-00103822*
X00602733Y-00058216*
X00602423Y-00058124*
X00602245Y-00058006*
X00602105Y-00057899*
X00602073Y-00057884*
X00602042Y-00057876*
X00602015Y-00057856*
X00552447Y-00034204*
X00552449Y-000342*
X00551504Y-00033569*
X00550639Y-00033397*
X0054331Y-00031939*
X00540023Y-00032593*
X00538836Y-00032612*
X0051247Y-00038301*
X00511544Y-00038702*
X0050875Y-00039257*
X00508408Y-00039486*
X00506649Y-00040391*
X0048092Y-00051714*
X00479074Y-00052224*
X0047869Y-00052383*
X00476852Y-00052875*
X00462465Y-00054913*
X00460465Y-00054801*
X00458866Y-00054592*
X00458445Y-00054503*
X00456654Y-00053761*
X00446734Y-00052455*
X00436814Y-00053761*
X0042892Y-00057031*
X0042757Y-0005759*
X00427161Y-00057904*
X00425352Y-00058308*
X00400469Y-00053338*
X00364617Y-00029879*
X00342957Y-00062981*
X00382648Y-00088953*
X00392081Y-00074537*
X00422379Y-00080588*
X00423488Y-00080589*
X00424175Y-00080725*
X00424864Y-00082603*
X00401255Y-00112353*
X00400677Y-00113479*
X00398092Y-00117347*
X00397606Y-00119789*
X00397252Y-00120556*
X00381044Y-00187816*
X00379184Y-00188553*
X00376666Y-00186905*
X00355006Y-00220007*
X00394697Y-00245979*
X00412329Y-00219033*
X00522675Y-00180578*
X00539122Y-0019134*
X00550197Y-002075*
X00549256Y-00209666*
X00544876Y-0021148*
X00540938Y-00215418*
X00538807Y-00220564*
Y-00221607*
X00529295Y-00231308*
X00528621Y-00231587*
X00463673Y-00227807*
X00463151Y-0022775*
X00462079Y-00227536*
X00461767Y-00227598*
X00459817Y-00227785*
X00442597Y-00228062*
X00442595Y-00227932*
X00434744Y-00229494*
X00433004Y-00230656*
X00432416Y-00230853*
X00387724Y-00256382*
X00387595Y-00256328*
X00343886Y-00214826*
X00343921Y-00214552*
X00343747Y-00214132*
X00343713Y-00214118*
X00343322Y-00214066*
X00321851Y-00174672*
X00325168Y-00169603*
X00327168Y-00170199*
Y-00172885*
X00329299Y-0017803*
X00333237Y-00181969*
X00338383Y-001841*
X00343953*
X00349098Y-00181969*
X00353036Y-0017803*
X00355168Y-00172885*
Y-00167315*
X00353036Y-0016217*
X00349098Y-00158231*
X00343953Y-001561*
X00338383*
X00334601Y-00157667*
X00332677Y-00158126*
X00296757Y-00134622*
X00297353Y-00132622*
X00300129*
X00305275Y-0013049*
X00309213Y-00126552*
X00311344Y-00121406*
Y-00115837*
X00312032Y-00114808*
X00313039*
X00318185Y-00112676*
X00322123Y-00108738*
X00324255Y-00103593*
Y-00098023*
X00322123Y-00092877*
X00318185Y-00088939*
X00313039Y-00086808*
X0030747*
X00302324Y-00088939*
X00298386Y-00092877*
X00296255Y-00098023*
Y-00103593*
X00295567Y-00104622*
X0029456*
X00289414Y-00106753*
X00285476Y-00110691*
X00283344Y-00115837*
Y-00121406*
X00285476Y-00126552*
X00289414Y-0013049*
X00291201Y-0013123*
X00291967Y-00133713*
X00278847Y-00153763*
X00276399Y-00153852*
X0027329Y-00150744*
X00268144Y-00148613*
X00262575*
X00257429Y-00150744*
X00253491Y-00154682*
X00251359Y-00159828*
Y-00165397*
X00253491Y-00170543*
X00257429Y-00174481*
X00262575Y-00176613*
X00268144*
X0027329Y-00174481*
X00277228Y-00170543*
X00278707Y-00170086*
X00302174Y-00185441*
X00323961Y-00225416*
X00323982Y-00225454*
X0032479Y-00226425*
X00326613Y-00229155*
X00327459Y-00230421*
X00327848Y-00230681*
X00327896Y-00230631*
X00327959Y-00230635*
X00372911Y-00273318*
X00372919Y-00273385*
X00372895Y-00273411*
X00379303Y-00277692*
X00387496Y-00279322*
X0039569Y-00277692*
X0039743Y-0027653*
X00398019Y-00276333*
X00441271Y-00251627*
X00442964Y-00250888*
X00443688Y-00250588*
X00443751Y-00250478*
X00460063Y-00250215*
X0046205Y-00250496*
X00462079Y-00250508*
X00462087Y-00250505*
X00464084Y-002503*
X00528248Y-00254034*
X00528288Y-00254029*
X00529481Y-00254266*
X00537674Y-00252636*
X00543159Y-00248972*
X00544621Y-00247995*
X0054474Y-00247816*
X0054603Y-0024628*
X00554787Y-00237348*
X00555591*
X00560737Y-00235217*
X00564315Y-00231639*
X00566606Y-00231445*
X00649297Y-003521*
X0064924Y-00352236*
X00649266Y-003523*
X00648688Y-00353437*
X00648159Y-0035416*
X00648081Y-00354348*
X00648071Y-00354349*
X00646186Y-00354524*
X00645911Y-00354439*
X00643939Y-00349678*
X00640001Y-0034574*
X00634855Y-00343608*
X00629286*
X0062414Y-0034574*
X00620202Y-00349678*
X00618071Y-00354824*
Y-00360393*
X00620202Y-00365539*
X0062414Y-00369477*
X00629286Y-00371608*
X00633871*
X00634934Y-00373576*
X00629906Y-00380745*
X0062965Y-0038064*
X00626284Y-00380655*
X0062318Y-00381957*
X0062081Y-00384347*
X00613811Y-00394922*
X00611556Y-00394705*
X00611513Y-003946*
X00607575Y-00390662*
X00602429Y-00388531*
X0059686*
X00591714Y-00390662*
X00587776Y-003946*
X00585644Y-00399746*
Y-00405315*
X00587776Y-00410461*
X005911Y-00413785*
X00590874Y-00416051*
X0056919Y-00425206*
X00567703Y-00425813*
X00567463Y-00425646*
X0056744Y-00425637*
X00567248Y-00425717*
X00567245*
X00567099Y-00425929*
X00565461Y-00425878*
X00554785Y-00425421*
X00552807Y-00425334*
X00550815Y-00425342*
X00253919Y-00423099*
X00253719Y-00423138*
X00253519Y-00423104*
X00233032Y-0042368*
X00202065Y-00403416*
X00181482Y-00434872*
X00231057Y-0046731*
X00245145Y-00445779*
X0025395Y-00445531*
X00538972Y-00447685*
X00540077Y-00449352*
X00538654Y-00452788*
Y-00458357*
X00540785Y-00463503*
X00544723Y-00467441*
X00549869Y-00469573*
X00553338*
X00554674Y-00471573*
X00553808Y-00473663*
Y-00479233*
X0055594Y-00484378*
X00559878Y-00488316*
X00565023Y-00490448*
X00570593*
X00575739Y-00488316*
X00579677Y-00484378*
X00581808Y-00479233*
Y-00473663*
X00579677Y-00468517*
X00575739Y-00464579*
X00570593Y-00462448*
X00567124*
X00565788Y-00460448*
X00566654Y-00458357*
Y-00452788*
X00565498Y-00449997*
X00565545Y-00449922*
X00567056Y-00448533*
X0056744Y-00448609*
X00568468Y-00448405*
X00574237Y-00447257*
X00576024Y-00446902*
X00576153Y-00446816*
X00576081Y-00446644*
X00599873Y-004366*
X00601691Y-00436137*
X00603529Y-00436485*
X00604039Y-00436707*
X00611764Y-0044182*
X00614879Y-00443095*
X00618245Y-0044308*
X00621349Y-00441778*
X00623718Y-00439388*
X00626448Y-00435264*
X00634778Y-00434601*
X00635345Y-00434441*
X00642367Y-00433044*
X00643561Y-00432246*
X00644975Y-00433661*
X00632088Y-00452947*
X0060111Y-00493319*
X00567559Y-00531577*
X00531577Y-00567559*
X00493319Y-0060111*
X00452947Y-00632088*
X00410636Y-00660359*
X00366568Y-00685802*
X00320931Y-00708308*
X00273918Y-00727782*
X00225732Y-00744138*
X00176579Y-00757309*
X00126671Y-00767236*
X0007622Y-00773878*
X00025442Y-00777206*
X-00025443*
X-0007622Y-00773878*
X-00126672Y-00767236*
X-00176579Y-00757309*
X-00225732Y-00744139*
X-00273918Y-00727782*
X-00320931Y-00708308*
X-00366569Y-00685802*
X-00410637Y-00660359*
X-00452947Y-00632088*
X-00493319Y-0060111*
X-00531577Y-00567559*
X-00567559Y-00531577*
X-0060111Y-00493319*
X-00632088Y-00452947*
X-00660359Y-00410637*
X-00685802Y-00366568*
X-00708308Y-00320931*
X-00727782Y-00273918*
X-00744138Y-00225732*
X-00757309Y-00176579*
X-00767236Y-00126671*
X-00773878Y-0007622*
X-00777206Y-00025443*
Y0*
Y00025443*
X-00773878Y0007622*
X-00767236Y00126672*
X-00757309Y00176579*
X-00744139Y00225732*
X-00727782Y00273918*
X-00708308Y00320931*
X-00685802Y00366569*
X-00660359Y00410637*
X-00632088Y00452947*
X-0060111Y00493319*
X-00567559Y00531577*
X-00531577Y00567559*
X-00493319Y0060111*
X-00452947Y00632088*
X-00410637Y00660359*
X-00366568Y00685802*
X-00320931Y00708308*
X-00273918Y00727782*
X-00225732Y00744138*
X-00176579Y00757309*
X-00126671Y00767236*
X-0007622Y00773878*
X-00025443Y00777206*
X00025443*
X0007622Y00773878*
G37*
%LNflagmate_copper_signal_bot-2*%
%LPC*%
%SRX1Y1I0J0*%
G36*
X00219468Y00564082D02*
X00213898D01*
X00208753Y00561951*
X00204815Y00558013*
X00202683Y00552867*
Y00547298*
X00204815Y00542152*
X00208753Y00538214*
X00213898Y00536082*
X00219468*
X00224614Y00538214*
X00228552Y00542152*
X00230683Y00547298*
Y00552867*
X00228552Y00558013*
X00224614Y00561951*
X00219468Y00564082*
G37*
G36*
X-00514039Y00528671D02*
X-00517405Y00528657D01*
X-00520509Y00527355*
X-00522878Y00524965*
X-00532113Y00511012*
X-00533388Y00507897*
X-00533378Y00505549*
X-00556906Y00481531*
X-00566876Y00488131*
X-00573797Y00490962*
X-00581274Y00490929*
X-00588169Y00488038*
X-00593433Y00482727*
X-00596265Y00475807*
X-00596232Y0046833*
X-00593341Y00461434*
X-0058803Y0045617*
X-005552Y0043444*
X-0054828Y00431609*
X-00540803Y00431642*
X-00533907Y00434533*
X-00528643Y00439844*
X-00525812Y00446764*
X-00525845Y00454241*
X-00528736Y00461137*
X-00534046Y00466401*
X-00536547Y00468056*
X-00536757Y00470045*
X-00516619Y00490602*
X-00514255Y00489634*
X-00510889Y00489649*
X-00507785Y0049095*
X-00505415Y00493341*
X-0049618Y00507293*
X-00494906Y00510409*
X-0049492Y00513775*
X-00496222Y00516879*
X-00498612Y00519248*
X-00510924Y00527397*
X-00514039Y00528671*
G37*
G36*
X00146855Y00457402D02*
X00141285D01*
X0013614Y00455271*
X00132202Y00451333*
X0013007Y00446187*
Y00440618*
X00132202Y00435472*
X0013614Y00431534*
X00141285Y00429402*
X00146855*
X00152001Y00431534*
X00155939Y00435472*
X0015807Y00440618*
Y00446187*
X00155939Y00451333*
X00152001Y00455271*
X00146855Y00457402*
G37*
G36*
X-00272376Y00319597D02*
X-00277945D01*
X-00283091Y00317465*
X-00287029Y00313527*
X-00289161Y00308382*
Y00302812*
X-00287029Y00297666*
X-00283091Y00293728*
X-00277945Y00291597*
X-00272376*
X-0026723Y00293728*
X-00263292Y00297666*
X-00261161Y00302812*
Y00308382*
X-00263292Y00313527*
X-0026723Y00317465*
X-00272376Y00319597*
G37*
G36*
X-00223133Y00319053D02*
X-00232518Y00318086D01*
X-00240819Y00313601*
X-00246771Y0030628*
X-0024947Y00297239*
X-00248502Y00287854*
X-00244018Y00279553*
X-00236697Y00273601*
X-00227656Y00270902*
X-00218271Y0027187*
X-0020997Y00276354*
X-00204018Y00283675*
X-0020132Y00292716*
X-00202286Y00302101*
X-00206771Y00310402*
X-00214092Y00316354*
X-00223133Y00319053*
G37*
G36*
X-00628989Y00407572D02*
X-00636466Y00407539D01*
X-00643362Y00404647*
X-00648626Y00399337*
X-00651457Y00392417*
X-00651425Y0038494*
X-00648533Y00378044*
X-00643223Y0037278*
X-00610393Y0035105*
X-00603472Y00348219*
X-00595995Y00348252*
X-00592115Y00349879*
X-00536439Y00315603*
X-00538882Y00311495*
X-00539008Y0031114*
X-0053925Y00310852*
X-00551487Y00288546*
X-00551488Y00288545*
X-00551494Y00288534*
X-00551856Y00287874*
X-00552409Y00286804*
X-00552405Y00286802*
X-00570321Y00249241*
X-0057049Y00248887*
X-00570493Y00248889*
X-00571123Y00247947*
X-00571215Y00247482*
X-00571256Y00247077*
X-00571258Y00247073*
X-00571259Y00247071*
X-00571261Y00247065*
X-00588247Y00203384*
X-00588348Y00203424*
X-00588736Y00201987*
X-0058888Y00201522*
X-00599613Y00166955*
X-00599625Y00166917*
X-00599689Y00166317*
X-00599942Y0016578*
X-00606507Y00139451*
X-00606569Y0013816*
X-00607333Y00134319*
X-00605703Y00126125*
X-0060375Y00123202*
X-0060325Y00122079*
X-00578446Y00086963*
X-00579758Y00078187*
X-00579596Y00074825*
X-0057816Y00071781*
X-00575669Y00069517*
X-00572501Y0006838*
X-00569633Y00067951*
X-00567778Y00067563*
X-00567777*
X-00566327Y00066767*
X-00565558Y00065226*
X-00564864Y00063044*
X-00565625Y00061207*
Y00055638*
X-00563493Y00050492*
X-00561443Y00048442*
X-00562315Y00046485*
X-00565941Y00046675*
X-00566267Y00047165*
Y00047166*
X-00613364Y00117853*
X-00613301Y00118003*
X-00613555Y00118618*
X-0060939Y00138643*
X-00608712Y00140445*
X-00608686Y00140507*
X-00608501Y00142421*
X-00599749Y00175664*
X-00598984Y00177438*
X-00598953Y00177512*
X-00598655Y00179417*
X-00592157Y00199718*
X-00591544Y00201631*
X-00590684Y00203384*
X-00590661Y00203439*
X-00590282Y00205324*
X-00584174Y00222106*
X-00583256Y00223801*
X-00583232Y00223857*
X-00582767Y00225725*
X-00571592Y00252703*
X-00570711Y00254085*
X-00570684Y00254151*
Y00254152*
X-00570125Y00255999*
X-00569265Y00257825*
X-00560111Y00277234*
X-00559056Y00278793*
X-00559039Y00278835*
X-00558355Y00280724*
X-00557918Y00281378*
X-00556288Y00289572*
X-00557918Y00297765*
X-00562559Y00304712*
X-00566821Y00307559*
X-00567711Y00308288*
X-00609162Y00330411*
X-00611527Y00336051*
X-00616838Y00341315*
X-00649668Y00363045*
X-00656588Y00365877*
X-00664065Y00365844*
X-00670961Y00362952*
X-00676225Y00357642*
X-00679056Y00350722*
X-00679024Y00343245*
X-00676132Y00336349*
X-00670822Y00331085*
X-00637992Y00309355*
X-00631071Y00306524*
X-00623594Y00306557*
X-00617161Y00309254*
X-00581042Y00289978*
X-00579601Y00288534*
X-00580438Y00286718*
X-00590851Y00264639*
X-00591259Y00263776*
X-00591274Y00263783*
X-00591852Y00262919*
X-00592036Y00261963*
X-00592037Y00261961*
Y0026196*
X-00603477Y00234341*
X-00604423Y00232569*
X-00604595Y00231708*
X-00604576Y00231655*
X-00604581Y00231622*
X-00604936Y00230646*
X-00612031Y00211154*
X-00612061Y00211165*
X-00612649Y00209276*
Y00209275*
X-00620623Y00184365*
X-00620687Y00183805*
X-00620934Y00183299*
X-00630705Y00146185*
X-00630737Y00145666*
X-0063094Y00145188*
X-00635696Y00122324*
X-00635706Y00121173*
X-00636336Y00118003*
X-00634706Y00109809*
X-00633014Y00107276*
X-00632591Y00106257*
X-00632573Y0010623*
Y00106229*
X-00584002Y00033328*
X-00584582Y00022259*
X-00584099Y00018928*
X-00582378Y00016035*
X-00579681Y00014021*
X-00576419Y00013193*
X-00570232Y00012868*
X-005652Y00005461*
Y00002025*
X-00563069Y-0000312*
X-0055913Y-00007058*
X-00553985Y-0000919*
X-00548415*
X-0054327Y-00007058*
X-00539331Y-0000312*
X-005372Y00002025*
Y00007595*
X-00537983Y00009485*
X-00536829Y00011119*
X-0052629Y00010566*
X-00522959Y00011049*
X-00520066Y0001277*
X-00518052Y00015467*
X-00517224Y0001873*
X-00516681Y00029084*
X-00509419Y00036345*
X-00508439*
X-00508438*
X-0050252*
X-00501867Y00035692*
X-00496721Y00033561*
X-00491152*
X-00486006Y00035692*
X-00482068Y0003963*
X-00479937Y00044776*
Y00050346*
X-00482068Y00055491*
X-00486006Y00059429*
X-00491152Y00061561*
X-00496721*
X-00501867Y00059429*
X-00502006Y00059291*
X-00504307*
X-00513097Y00068081*
X-00513047Y00068218*
X-00510574Y00084767*
X-00510736Y00088129*
X-00512172Y00091173*
X-00514663Y00093436*
X-00517831Y00094573*
X-00532433Y00096756*
X-00535794Y00096594*
X-00538839Y00095158*
X-00541102Y00092667*
X-00542239Y00089499*
X-00544032Y00077505*
X-00546124Y00077037*
X-0054625Y00077225*
X-00546391Y00077675*
X-00547232Y00079212*
X-00545619Y00090003*
X-00545781Y00093365*
X-00547217Y00096409*
X-00549708Y00098672*
X-00552876Y0009981*
X-00560905Y0010101*
X-00561396Y00101705*
Y00101706*
X-00584348Y00134198*
X-00584298Y00134319*
X-00584529Y00134878*
X-00578661Y00158414*
X-00577916Y00160206*
Y00160207*
X-00577885Y00160281*
X-00577698Y0016189*
X-00577105Y00163801*
X-00567808Y00193741*
X-00567403Y00194994*
X-00567076Y00195151*
X-00567035Y00195249*
X-00566607Y00197143*
X-00550814Y00237754*
X-00550323Y00238973*
X-00549985Y00239107*
X-00549942Y0023921*
X-00549366Y0024107*
X-0053302Y00275341*
X-00532995Y00275393*
X-00531933Y00276943*
X-005319Y00277022*
X-00531229Y00278837*
X-0052052Y00298356*
X-00519347Y00299873*
X-00519328Y00299919*
X-00518608Y00301702*
X-00516549Y00305162*
X-00516297Y00305876*
X-00515Y00307816*
X-00513371Y0031601*
X-00515Y00324204*
X-00519642Y0033115*
X-00522644Y00333156*
X-00523544Y00334005*
X-00523587Y00334031*
X-00523628Y00334047*
X-0052366Y00334076*
X-00581031Y00369396*
X-00581037Y00370851*
X-00583928Y00377747*
X-00589239Y00383011*
X-00622069Y0040474*
X-00628989Y00407572*
G37*
G36*
X-00205832Y00258258D02*
X-00211401D01*
X-00216547Y00256127*
X-00220485Y00252189*
X-00222616Y00247043*
Y00241474*
X-00220485Y00236328*
X-00216547Y0023239*
X-00211401Y00230258*
X-00205832*
X-00200686Y0023239*
X-00196748Y00236328*
X-00194616Y00241474*
Y00247043*
X-00196748Y00252189*
X-00200686Y00256127*
X-00205832Y00258258*
G37*
G36*
X00119267Y00309326D02*
X0011596Y00308698D01*
X00113145Y00306853*
X00111251Y0030407*
X00105482Y0029048*
X00104797Y00287185*
X00105424Y00283878*
X0010727Y00281063*
X00110052Y00279169*
X00124367Y00273093*
X00127662Y00272407*
X00130969Y00273035*
X00132253Y00273877*
X00136826Y00271571*
X00136827*
X00141488Y00269221*
X00141575Y00267688*
X00141796Y00267231*
X00140781Y00265507*
X00140276Y00265479*
X00137245Y00264016*
X00135003Y00261505*
X0012751Y00248784*
X001264Y00245607*
X00126591Y00242246*
X00127109Y00241173*
X00123247Y00237311*
X00121116Y00232165*
Y00228657*
X00119116Y00227458*
X00110349Y00232144*
X00109865Y00232291*
X00109445Y00232572*
X00087064Y00241842*
X00086568Y00241941*
X00086122Y00242179*
X0006294Y00249211*
X00062437Y00249261*
X00061969Y00249454*
X0003821Y00254181*
X00037704*
X0003722Y00254327*
X00013112Y00256702*
X00012608Y00256652*
X00012112Y00256751*
X-00012113*
X-00012608Y00256652*
X-00013112Y00256702*
X-0003722Y00254327*
X-00037704Y00254181*
X-0003821*
X-00061969Y00249454*
X-00062437Y00249261*
X-0006294Y00249211*
X-00086122Y00242179*
X-00086568Y00241941*
X-00087064Y00241842*
X-00109445Y00232572*
X-00109865Y00232291*
X-00110349Y00232144*
X-00131714Y00220724*
X-00132105Y00220404*
X-00132572Y0022021*
X-00152714Y00206751*
X-00153072Y00206393*
X-00153518Y00206155*
X-00172244Y00190787*
X-00172565Y00190396*
X-00172986Y00190115*
X-00190115Y00172986*
X-00190396Y00172565*
X-00190787Y00172244*
X-00206155Y00153518*
X-00206394Y00153072*
X-00206751Y00152714*
X-0022021Y00132572*
X-00220404Y00132105*
X-00220725Y00131714*
X-00232144Y00110349*
X-00232291Y00109865*
X-00232572Y00109445*
X-00241842Y00087064*
X-00241941Y00086568*
X-00242179Y00086122*
X-00249212Y0006294*
X-00249261Y00062437*
X-00249455Y00061969*
X-00254181Y0003821*
Y00037704*
X-00254327Y0003722*
X-00256702Y00013112*
X-00256652Y00012608*
X-00256751Y00012112*
Y-00012113*
X-00256652Y-00012609*
X-00256702Y-00013112*
X-00254327Y-0003722*
X-00254181Y-00037704*
Y-0003821*
X-00249455Y-00061969*
X-00249261Y-00062437*
X-00249212Y-0006294*
X-00242179Y-00086122*
X-00241941Y-00086568*
X-00241842Y-00087064*
X-00232572Y-00109445*
X-00232291Y-00109865*
X-00232144Y-00110349*
X-00220725Y-00131714*
X-00220404Y-00132105*
X-0022021Y-00132572*
X-00206751Y-00152714*
X-00206394Y-00153072*
X-00206155Y-00153518*
X-00190787Y-00172244*
X-00190396Y-00172565*
X-00190115Y-00172986*
X-00172986Y-00190115*
X-00172565Y-00190396*
X-00172244Y-00190787*
X-00153518Y-00206155*
X-00153072Y-00206394*
X-00152714Y-00206751*
X-00132572Y-0022021*
X-00132105Y-00220404*
X-00131714Y-00220725*
X-00110349Y-00232144*
X-00109865Y-00232291*
X-00109445Y-00232572*
X-00087064Y-00241842*
X-00086568Y-00241941*
X-00086122Y-00242179*
X-0006294Y-00249212*
X-00062437Y-00249261*
X-00061969Y-00249455*
X-0003821Y-00254181*
X-00037704*
X-0003722Y-00254327*
X-00013112Y-00256702*
X-00012608Y-00256652*
X-00012113Y-00256751*
X00012112*
X00012608Y-00256652*
X00013112Y-00256702*
X0003722Y-00254327*
X00037704Y-00254181*
X0003821*
X00061969Y-00249455*
X00062437Y-00249261*
X0006294Y-00249212*
X00086122Y-00242179*
X00086568Y-00241941*
X00087064Y-00241842*
X00102255Y-0023555*
X00103388Y-00237245*
X00102754Y-00237879*
X00100623Y-00243025*
Y-00248595*
X00102754Y-0025374*
X00106692Y-00257678*
X00111838Y-0025981*
X00117408*
X00122553Y-00257678*
X00126492Y-0025374*
X00128623Y-00248595*
Y-00243025*
X00126492Y-00237879*
X00122553Y-00233941*
X00117408Y-0023181*
X00115218*
X00114716Y-0022981*
X00131714Y-00220725*
X00132105Y-00220404*
X00132572Y-0022021*
X00152714Y-00206751*
X00153072Y-00206394*
X00153518Y-00206155*
X00172244Y-00190787*
X00172565Y-00190396*
X00172986Y-00190115*
X00190115Y-00172986*
X00190396Y-00172565*
X00190787Y-00172244*
X00206155Y-00153518*
X00206393Y-00153072*
X00206751Y-00152714*
X0022021Y-00132572*
X00220404Y-00132105*
X00220724Y-00131714*
X00232144Y-00110349*
X00232291Y-00109865*
X00232572Y-00109445*
X00241842Y-00087064*
X00241941Y-00086568*
X00242179Y-00086122*
X00249211Y-0006294*
X00249261Y-00062437*
X00249454Y-00061969*
X0025111Y-00053648*
X0025319Y-00053443*
X00254811Y-00057356*
X00258749Y-00061295*
X00263895Y-00063426*
X00269464*
X0027461Y-00061295*
X00278548Y-00057356*
X00280679Y-00052211*
Y-00046641*
X00278548Y-00041496*
X0027461Y-00037557*
X00269464Y-00035426*
X00263895*
X00258749Y-00037557*
X00255754Y-00040553*
X00253911Y-00039568*
X00254181Y-0003821*
Y-00037704*
X00254327Y-0003722*
X00256702Y-00013112*
X00256652Y-00012609*
X00256751Y-00012113*
Y00012112*
X00256652Y00012608*
X00256702Y00013112*
X00254327Y0003722*
X00254181Y00037704*
Y0003821*
X00252717Y00045568*
X00254263Y00046837*
X00256588Y00045873*
X00262158*
X00267303Y00048005*
X00268113Y00048814*
X002691Y00047886*
X00272248Y00046693*
X00275612Y00046796*
X00289998Y00050117*
X00293067Y00051499*
X00295373Y00053951*
X00295553Y00054426*
X00297501Y00054876*
X00297871Y00054528*
X00301018Y00053336*
X00304383Y00053438*
X00318768Y00056759*
X00321837Y00058142*
X00324143Y00060593*
X00325336Y00063741*
X00325233Y00067105*
X00321735Y00082258*
X00321145Y00083566*
X00322217Y00086057*
X00331575Y00089315*
X00333089Y00088687*
X00338659*
X00343805Y00090819*
X00347743Y00094757*
X00349874Y00099902*
Y00105472*
X00347743Y00110618*
X00343805Y00114556*
X00338659Y00116687*
X00333089*
X00327944Y00114556*
X00324006Y00110618*
X00323915Y001104*
X00315491Y00107467*
X00313773Y0010849*
X00313692Y00108983*
X00308246Y0012355*
X00306475Y00126412*
X00303743Y00128379*
X00300467Y0012915*
X00297145Y00128609*
X00283316Y00123439*
X00280454Y00121667*
X00278488Y00118936*
X00277716Y00115659*
X00278257Y00112337*
X00283703Y00097771*
X00285474Y00094909*
X00288206Y00092942*
X002897Y0009259*
X00292681Y00082686*
X00291628Y00081568*
X00291448Y00081093*
X002895Y00080643*
X0028913Y00080991*
X00285983Y00082183*
X00282618Y0008208*
X00268233Y00078759*
X00265164Y00077377*
X00262858Y00074925*
X00262518Y00074029*
X00262158Y00073873*
X00256588*
X00251443Y00071742*
X00249058Y00069357*
X00247117Y00069843*
X00242179Y00086122*
X00241941Y00086568*
X00241842Y00087064*
X00232763Y00108983*
X00233355Y00110323*
X00233847Y00110875*
X00234014Y00110983*
X00237844*
X0024299Y00113115*
X00246393Y00116518*
X00247537Y00115903*
X00250886Y00115566*
X00254109Y00116536*
X00267145Y00123467*
X00269752Y00125597*
X00271345Y00128562*
X00271396Y00129067*
X00273161Y00130006*
X00273609Y00129766*
X00276957Y00129428*
X0028018Y00130398*
X00293216Y00137329*
X00295823Y00139459*
X00297416Y00142424*
X00297753Y00145773*
X00296783Y00148996*
X00290173Y00161427*
X00290899Y00163954*
X00297795Y00167089*
X0029827Y00166892*
X0030384*
X00308986Y00169024*
X00312924Y00172962*
X00315055Y00178107*
Y00183677*
X00312924Y00188823*
X00308986Y00192761*
X0030384Y00194892*
X0029827*
X00293125Y00192761*
X00289187Y00188823*
X00288673Y00187583*
X00278046Y00182751*
X00275913Y00183978*
X00274796Y00186458*
X00265765Y00199119*
X00263313Y00201425*
X00260166Y00202617*
X00256802Y00202515*
X00253733Y00201132*
X00241713Y00192559*
X00239407Y00190107*
X00238215Y0018696*
X00238317Y00183595*
X002397Y00180527*
X0024873Y00167866*
X00251182Y0016556*
X00254329Y00164367*
X00255865Y00164414*
X00261307Y0015562*
X0026058Y00154268*
X00260529Y00153763*
X00258764Y00152824*
X00258316Y00153064*
X00254968Y00153402*
X00251744Y00152432*
X00238709Y001455*
X00236102Y00143371*
X00234509Y00140406*
X00234366Y00138983*
X00232274*
X00227129Y00136852*
X00223191Y00132914*
X00222729Y00131799*
X00221773Y00131752*
X00220594Y00131872*
X00220404Y00132105*
X0022021Y00132572*
X00206751Y00152714*
X00206393Y00153072*
X00206155Y00153518*
X00194711Y00167463*
X00195316Y00169878*
X00199057Y00171428*
X00202995Y00175366*
X00204323Y00178572*
X00207561Y00177839*
X00210879Y00178409*
X00213725Y00180206*
X00224435Y00190368*
X00226377Y00193117*
X0022712Y001964*
X00227034Y00196901*
X00228485Y00198277*
X00228979Y00198166*
X00232297Y00198735*
X00235143Y00200531*
X00245852Y00210694*
X00247795Y00213443*
X00248538Y00216726*
X00247968Y00220043*
X00246172Y0022289*
X00235467Y0023417*
X00233667Y00235442*
X00233204Y00237897*
X00239665Y00244947*
X00240066*
X00245212Y00247079*
X0024915Y00251017*
X00251281Y00256163*
Y00261732*
X0024915Y00266878*
X00245212Y00270816*
X00240066Y00272947*
X00234497*
X00229351Y00270816*
X00225413Y00266878*
X00223281Y00261732*
Y0026027*
X00216665Y0025305*
X00214179Y00253297*
X00212755Y0025498*
X00200584Y00264661*
X00200506Y00264701*
X00200162Y00267128*
X00203128Y00270094*
X00205259Y00275239*
Y00280809*
X00203128Y00285954*
X0019919Y00289893*
X00194044Y00292024*
X00188474*
X00183329Y00289893*
X00180748Y00287312*
X00173335Y00285787*
X00171422Y00285724*
X00171363Y002857*
X00169442Y00285498*
X00161798Y00290001*
X00158621Y00291111*
X0015526Y0029092*
X00152229Y00289458*
X00151902Y00289092*
X00142032Y00294067*
X00142132Y00294548*
X00141505Y00297855*
X00139659Y0030067*
X00136877Y00302564*
X00122562Y0030864*
X00119267Y00309326*
G37*
G36*
X-0027189Y00248594D02*
X-00277459D01*
X-00282605Y00246463*
X-00286543Y00242525*
X-00288675Y00237379*
Y0023181*
X-00286543Y00226664*
X-00282605Y00222726*
X-00277459Y00220594*
X-0027189*
X-00266744Y00222726*
X-00262806Y00226664*
X-00260675Y0023181*
Y00237379*
X-00262806Y00242525*
X-00266744Y00246463*
X-0027189Y00248594*
G37*
G36*
X00390537Y00224532D02*
X00384968D01*
X00379822Y00222401*
X00375884Y00218463*
X00373753Y00213317*
Y00207748*
X00375884Y00202602*
X00379822Y00198664*
X00384968Y00196532*
X00390537*
X00395683Y00198664*
X00399621Y00202602*
X00401753Y00207748*
Y00213317*
X00399621Y00218463*
X00395683Y00222401*
X00390537Y00224532*
G37*
G36*
X-00302602Y00216131D02*
X-00308171D01*
X-00313317Y00214*
X-00317255Y00210061*
X-00319387Y00204916*
Y00199346*
X-00317255Y00194201*
X-00313317Y00190262*
X-00308171Y00188131*
X-00302602*
X-00297456Y00190262*
X-00293518Y00194201*
X-00291387Y00199346*
Y00204916*
X-00293518Y00210061*
X-00297456Y00214*
X-00302602Y00216131*
G37*
G36*
X-00236866Y00204627D02*
X-00242436D01*
X-00247581Y00202496*
X-0025152Y00198558*
X-00253651Y00193412*
Y00187842*
X-0025152Y00182697*
X-00247581Y00178758*
X-00242436Y00176627*
X-00236866*
X-00231721Y00178758*
X-00227782Y00182697*
X-00225651Y00187842*
Y00193412*
X-00227782Y00198558*
X-00231721Y00202496*
X-00236866Y00204627*
G37*
G36*
X-00380348Y00189113D02*
X-00389733Y00188145D01*
X-00398034Y00183661*
X-00403987Y0017634*
X-00406685Y00167299*
X-00405718Y00157914*
X-00401233Y00149613*
X-00393913Y00143661*
X-00384872Y00140963*
X-00375487Y00141929*
X-00367186Y00146414*
X-00361233Y00153735*
X-00358535Y00162776*
X-00359502Y00172161*
X-00363987Y00180462*
X-00371307Y00186414*
X-00380348Y00189113*
G37*
G36*
X-00318282Y00138644D02*
X-00327667Y00137677D01*
X-00335968Y00133192*
X-00341921Y00125872*
X-00344619Y00116831*
X-00343652Y00107446*
X-00339167Y00099145*
X-00331847Y00093192*
X-00322806Y00090494*
X-00313421Y00091461*
X-0030512Y00095946*
X-00299167Y00103266*
X-00296469Y00112307*
X-00297436Y00121692*
X-00301921Y00129993*
X-00309241Y00135946*
X-00318282Y00138644*
G37*
G36*
X-00477806Y-00044182D02*
X-00535457Y-00057824D01*
X-00521815Y-00115476*
X-00464163Y-00101834*
X-00477806Y-00044182*
G37*
G36*
X-00605622Y-00044583D02*
X-00611192D01*
X-00616337Y-00046714*
X-00620276Y-00050653*
X-00622407Y-00055798*
Y-00061368*
X-00622295Y-00061639*
X-00629976Y-00077726*
X-00687002Y-00091944*
X-00672151Y-00151508*
X-0059915Y-00133306*
X-00610301Y-00088579*
X-00601934Y-00071055*
X-00600477Y-00070451*
X-00596538Y-00066513*
X-00594407Y-00061368*
Y-00055798*
X-00596538Y-00050653*
X-00600477Y-00046714*
X-00605622Y-00044583*
G37*
G36*
X00201376Y-00244809D02*
X00195806D01*
X0019066Y-0024694*
X00186722Y-00250878*
X00184591Y-00256024*
Y-00261593*
X00186722Y-00266739*
X0019066Y-00270677*
X00195806Y-00272808*
X00201376*
X00206521Y-00270677*
X00210459Y-00266739*
X00212591Y-00261593*
Y-00256024*
X00210459Y-00250878*
X00206521Y-0024694*
X00201376Y-00244809*
G37*
G36*
X00584227Y-00294077D02*
X00578657D01*
X00573512Y-00296209*
X00569573Y-00300147*
X00567578Y-00304965*
X00566812Y-00305713*
X00565796Y-00306392*
X00563308Y-00305361*
X00557738*
X00552593Y-00307493*
X00548654Y-00311431*
X00547113Y-00315151*
X00546954Y-00315536*
X00544954Y-00315138*
Y-00314628*
Y-00309971*
X00542823Y-00304825*
X00538884Y-00300887*
X00533739Y-00298756*
X00528169*
X00523024Y-00300887*
X00519085Y-00304825*
X00516954Y-00309971*
Y-00315541*
X00519085Y-00320686*
X00523024Y-00324624*
X00528169Y-00326756*
X00533739*
X00538884Y-00324624*
X00542823Y-00320686*
X00544364Y-00316966*
X00544523Y-00316581*
X00546523Y-00316979*
Y-00317489*
Y-00322146*
X00548654Y-00327291*
X00552593Y-0033123*
X00557738Y-00333361*
X00563308*
X00568453Y-0033123*
X00572392Y-00327291*
X00574387Y-00322473*
X00575153Y-00321725*
X00576169Y-00321046*
X00578657Y-00322077*
X00584227*
X00589372Y-00319946*
X00593311Y-00316007*
X00595442Y-00310862*
Y-00305292*
X00593311Y-00300147*
X00589372Y-00296209*
X00584227Y-00294077*
G37*
G36*
X00061323Y-00301842D02*
X00055753D01*
X00050608Y-00303974*
X00046669Y-00307912*
X00044538Y-00313057*
Y-00318627*
X00046669Y-00323772*
X00050608Y-00327711*
X00055753Y-00329842*
X00061323*
X00066468Y-00327711*
X00070406Y-00323772*
X00072538Y-00318627*
Y-00313057*
X00070406Y-00307912*
X00066468Y-00303974*
X00061323Y-00301842*
G37*
G36*
X00064302Y-00342184D02*
X00058733D01*
X00053587Y-00344315*
X00052934Y-00344968*
X00030828*
X00030827*
X00026535Y-00345822*
X00022897Y-00348253*
X00014126Y-00357024*
X00013111Y-00357779*
X-00009378Y-00369892*
X-00010291Y-00370646*
X-00014458Y-0037343*
X-00017092Y-00377372*
X-00017897Y-00378328*
X-00026073Y-00393157*
X-00026224Y-00393632*
X-00027275Y-00395206*
X-00028902Y-00403386*
X-00028709Y-00403426*
X-00028703Y-00405815*
X-00030803Y-00407192*
X-00032698Y-00409974*
X-00033383Y-0041327*
X-00033519Y-0042882*
X-0003304Y-00431341*
X-00034351Y-0043327*
X-00037478Y-00433093*
X-000854Y-00421162*
X-00085428Y-00421166*
X-00085452Y-00421149*
X-00114867Y-00414087*
X-0013638Y-0040751*
X-00150508Y-00402507*
X-00161058Y-00398404*
X-00163503Y-00398458*
X-00165949Y-00398479*
X-00165981Y-00398512*
X-00166027Y-00398513*
X-00167718Y-00400279*
X-00169433Y-00402024*
X-00191377Y-00456338*
Y-00456354*
X-00191388Y-00456365*
X-00191355Y-00458833*
X-00191334Y-00461309*
X-00191323Y-00461319*
Y-00461335*
X-00190533Y-00463172*
X-00190522Y-00463183*
Y-00463198*
X-00188742Y-00464917*
X-00186973Y-00466641*
X-00186957Y-0046664*
X-00186946Y-00466651*
X-0018021Y-00469305*
X-00180028Y-00469301*
X-0017989Y-00469421*
X-00138838Y-00483157*
X-00138611Y-00483141*
X-0013843Y-00483279*
X-00117494Y-00488791*
X-00117373Y-00488774*
X-00117274Y-00488845*
X-00104603Y-00491712*
X-00104469Y-00491688*
X-00104354Y-00491763*
X-0007881Y-00496497*
X-00078631Y-00496459*
X-00078474Y-0049655*
X-00052717Y-00499942*
X-00052541Y-00499894*
X-00052379Y-00499977*
X-0002648Y-00502015*
X-00026335Y-00501968*
X-00026197Y-00502031*
X-00010313Y-00502586*
X-00010284Y-00502575*
X-00010256Y-00502588*
X-0000796Y-00501706*
X-00005657Y-00500845*
X-00005644Y-00500817*
X-00005616Y-00500806*
X-00004165Y-0049943*
X-00004152Y-00499402*
X-00004124Y-0049939*
X-00003143Y-00497134*
X-00002143Y-00494889*
X-00002154Y-0049486*
X-00002142Y-00494832*
X-00002084Y-0049154*
X-0000021Y-00473533*
X0000193Y-00472295*
X00004254Y-00472779*
X00019017Y-00472908*
X00022324Y-0047228*
X00025139Y-00470434*
X00027033Y-00467652*
X00027441Y-00465689*
X00034613Y-00464744*
X00036035Y-00466453*
X00039013Y-0046802*
X00042365Y-00468328*
X00059005Y-00466579*
X0006222Y-00465581*
X00064808Y-00463429*
X00066375Y-0046045*
X00066542Y-00458633*
X00073502Y-00456856*
X00074175Y-00456535*
X00076423Y-00456088*
X0008337Y-00451446*
X00085179Y-00448739*
X0008599Y-00447911*
X00098109Y-00429365*
X00098499Y-00428396*
X0010013Y-00425954*
X00100609Y-00423546*
X00100957Y-00422801*
X00102181Y-00417797*
X00105095Y-00416589*
X00109034Y-00412651*
X00111165Y-00407506*
Y-00401936*
X00109034Y-0039679*
X00105095Y-00392852*
X0009995Y-00390721*
X0009438*
X00089234Y-00392852*
X00085296Y-0039679*
X00083165Y-00401936*
Y-00403849*
X00082203Y-00405289*
X00081728Y-00407678*
X0008138Y-00408426*
X00081372Y-00408461*
X00079731Y-00415169*
X00079071Y-00416925*
X0007907Y-00416928*
X0007876Y-00417627*
X00078037Y-00419076*
X00067694Y-00434904*
X00067082Y-00435158*
X00066995Y-00435367*
X00062011Y-00436639*
X00061989Y-00436613*
X00059011Y-00435046*
X00055659Y-00434738*
X00039018Y-00436487*
X00035804Y-00437485*
X00033216Y-00439637*
X00031709Y-00442502*
X00025774Y-00443284*
X00025381Y-00442685*
X00023128Y-0044115*
X00023164Y-0043693*
X00025444Y-00435435*
X00027338Y-00432653*
X00028023Y-00429358*
X00028159Y-00413807*
X00027531Y-00410501*
X00025686Y-00407686*
X00022904Y-00405791*
X00019608Y-00405106*
X00004845Y-00404977*
X00001538Y-00405605*
X-00001277Y-0040745*
X-00001562Y-0040787*
X-00003562Y-00407853*
X-00003841Y-00407428*
X-00005913Y-00406017*
X-00006Y-00405382*
X-0000587Y-00403401*
X-00005165Y-00401694*
X00001338Y-00389898*
X00001397*
X0000183Y-00389719*
X00001948Y-00389435*
X00002935Y-00388738*
X00024468Y-0037714*
X00025102Y-00376616*
X00025845Y-00376264*
X00028174Y-0037453*
X00028725Y-0037392*
X00029409Y-00373463*
X00035473Y-00367399*
X00052934*
X00053587Y-00368052*
X00058733Y-00370184*
X00064302*
X00069448Y-00368052*
X00073386Y-00364114*
X00075518Y-00358968*
Y-00353399*
X00073386Y-00348253*
X00069448Y-00344315*
X00064302Y-00342184*
G37*
G36*
X005353Y-00465726D02*
X0052973D01*
X00524584Y-00467857*
X00520646Y-00471796*
X00518515Y-00476941*
Y-00482511*
X00520646Y-00487656*
X00524584Y-00491595*
X0052973Y-00493726*
X005353*
X00540445Y-00491595*
X00544383Y-00487656*
X00546515Y-00482511*
Y-00476941*
X00544383Y-00471796*
X00540445Y-00467857*
X005353Y-00465726*
G37*
G36*
X-00481914Y-00218518D02*
X-00482904Y-00218561D01*
X-00484075Y-00219107*
X-00485365Y-00219164*
X-00595037Y-00270304*
X-00595918Y-00271267*
X-00597099Y-00271824*
X-00597876Y-00272679*
X-00598304Y-0027387*
X-00598395Y-00273969*
X-00598394Y-00273977*
X-00599172Y-00274827*
X-00599736Y-00276378*
X-00599683Y-00277582*
X-00599698Y-00277599*
X-00599692Y-00277717*
X-0060012Y-00278908*
X-00600063Y-00280078*
X-00599523Y-00281225*
X-00599517Y-00281343*
X-00599501Y-00281358*
X-00599438Y-00282563*
X-00595669Y-00290464*
X-00595613Y-00290515*
X-00595607Y-00290591*
X-00587875Y-00305932*
X-00587805Y-00305992*
X-00587796Y-00306083*
X-00579665Y-00321216*
X-00579606Y-00321265*
X-00579596Y-0032134*
X-00573957Y-00331308*
X-00573884Y-00331365*
X-00573871Y-00331455*
X-00562074Y-00351089*
X-00562Y-00351144*
X-00561984Y-00351233*
X-00555831Y-00360893*
X-00555743Y-00360954*
X-00555721Y-00361059*
X-00539608Y-00384725*
X-00539506Y-00384791*
X-00539477Y-0038491*
X-00529319Y-00398764*
X-00529202Y-00398835*
X-00529164Y-00398967*
X-00507777Y-00425854*
X-00507644Y-00425927*
X-00507596Y-00426071*
X-00492569Y-00443358*
X-0049246Y-00443413*
X-00492417Y-00443527*
X-00476796Y-00460279*
X-00476671Y-00460335*
X-00476618Y-00460462*
X-00456285Y-00480618*
X-00456172Y-00480664*
X-00456121Y-00480775*
X-00443506Y-00492436*
X-0044342Y-00492468*
X-0044338Y-0049255*
X-00430464Y-00503877*
X-00430406Y-00503897*
X-00430378Y-00503951*
X-00426007Y-00507651*
X-00425963Y-00507665*
X-00425942Y-00507706*
X-00419187Y-00513274*
X-0041806Y-00513618*
X-00418057Y-00513624*
X-0041793Y-00513662*
X-00416928Y-00514482*
X-00415818Y-00514816*
X-00414559Y-00514689*
X-00414433Y-00514727*
X-00414421Y-00514721*
X-00413298Y-00515059*
X-0041165Y-00514894*
X-00410611Y-00514336*
X-00410596Y-00514341*
X-00410483Y-00514279*
X-00409224Y-00514153*
X-00408201Y-00513603*
X-00407385Y-00512605*
X-00407271Y-00512543*
X-00407268Y-00512534*
X-00406228Y-00511969*
X-003859Y-00486867*
Y-00486866*
X-00357581Y-00451895*
X-0035758*
X-00353378Y-00446705*
X-00125695Y-00519075*
X-00124926Y-00520825*
X-0012456Y-00521176*
X-00124908Y-00523146*
X-00125374Y-0052335*
X-00127703Y-00525781*
X-00128924Y-00528917*
X-00131494Y-00543456*
X-00131422Y-00546821*
X-00130068Y-00549902*
X-00127638Y-00552231*
X-00124501Y-00553452*
X-00109188Y-00556159*
X-00105823Y-00556087*
X-00102741Y-00554733*
X-00101646Y-0055359*
X-00089564Y-00556518*
X-00089442Y-00557997*
X-00087901Y-00560989*
X-00085333Y-00563165*
X-00082127Y-00564192*
X-00065503Y-00566089*
X-00062149Y-00565811*
X-00059156Y-0056427*
X-00056981Y-00561702*
X-00056694Y-00560806*
X-00044517Y-00561087*
X-00043398Y-00562966*
X-00040702Y-0056498*
X-00037439Y-00565809*
X-00021909Y-00566623*
X-00018578Y-0056614*
X-00015686Y-00564419*
X-00013672Y-00561722*
X-00013072Y-00559361*
X-00000317Y-00557588*
X-0000029Y-00557585*
X00000967Y-00557152*
X00004983Y-00556353*
X00006561Y-00555298*
X0000704Y-00555146*
X00013582Y-00551536*
X0001511Y-00552977*
Y-00558244*
X00017242Y-00563389*
X0002118Y-00567327*
X00026326Y-00569459*
X00031895*
X00037041Y-00567327*
X00040979Y-00563389*
X0004311Y-00558244*
Y-00552674*
X00040979Y-00547528*
X00037041Y-0054359*
X00031895Y-00541459*
X00028831*
X00027888Y-00539695*
X00029131Y-00537834*
X00030056Y-00533185*
X00030434Y-00531995*
X00032574Y-00512838*
X00032629Y-00512815*
X0003287Y-00512234*
X00058757Y-00496118*
X0005992Y-0049775*
X00055406Y-00501414*
X00050914Y-00509711*
X00049939Y-00519096*
X0005263Y-00528139*
X00058576Y-00535464*
X00066873Y-00539956*
X00076257Y-00540932*
X00085301Y-00538241*
X00092626Y-00532295*
X00097118Y-00523998*
X00098093Y-00514613*
X00095403Y-0050557*
X00089456Y-00498245*
X00087512Y-00497192*
X00088052Y-00495266*
X00134523Y-0049759*
X00136359Y-00497851*
X00136926Y-00498086*
X001387Y-00498661*
X00222234Y-00538956*
X00221416Y-00540783*
X002213Y-00540735*
X00215731*
X00210585Y-00542866*
X00210271Y-0054318*
X00186161Y-00539544*
X00185394Y-0053958*
X00184641Y-0053943*
X00184554*
X0018251Y-00532674*
X00180926Y-00529705*
X00178326Y-00527567*
X00175106Y-00526587*
X00171756Y-00526915*
X00157624Y-00531189*
X00154655Y-00532773*
X00152517Y-00535373*
X00151537Y-00538593*
X00151865Y-00541943*
X00156709Y-00557959*
X00158293Y-00560929*
X00160893Y-00563066*
X00164113Y-00564046*
X00164222Y-00564035*
X00166164Y-00571034*
X00165564Y-00571345*
X00163394Y-00573918*
X00162375Y-00577126*
X00162661Y-0058048*
X00167306Y-00596554*
X00168853Y-00599543*
X00171427Y-00601713*
X00174634Y-00602732*
X00176083Y-00602609*
X00178712Y-00610072*
X00176832Y-00612318*
X0017668Y-00612803*
X0017476Y-00613365*
X00174371Y-00613039*
X00171159Y-00612031*
X00167807Y-00612328*
X00153638Y-00616478*
X00150654Y-00618036*
X00148494Y-00620617*
X00147486Y-00623828*
X00147784Y-00627181*
X00152155Y-00642105*
X00153713Y-00645089*
X00156294Y-00647249*
X0015905Y-00648114*
X00159933Y-00650355*
X00158696Y-00651592*
X00156564Y-00656738*
Y-00662307*
X00158696Y-00667453*
X00162634Y-00671391*
X00164113Y-00672004*
X0016401Y-00674001*
X00158101Y-00675759*
X00150775Y-00681706*
X00146283Y-00690003*
X00145308Y-00699387*
X00147999Y-0070843*
X00153945Y-00715756*
X00162242Y-00720248*
X00171626Y-00721223*
X0018067Y-00718533*
X00187995Y-00712586*
X00192487Y-00704289*
X00193462Y-00694905*
X00190772Y-00685861*
X00184826Y-00678536*
X0017687Y-00674229*
X00176681Y-00672962*
X00176804Y-00672092*
X00178494Y-00671391*
X00182433Y-00667453*
X00184418Y-00662661*
X00185019Y-00661793*
X0018504Y-00661697*
X00185095Y-00661615*
X00185503Y-00659562*
X00185947Y-00657517*
X0018593Y-00657419*
X00185949Y-00657322*
X0018554Y-00655269*
X00185168Y-00653211*
X00180581Y-0064157*
X0018217Y-00639671*
X00182322Y-00639186*
X00184242Y-00638624*
X00184632Y-0063895*
X00187843Y-00639958*
X00191196Y-0063966*
X00205364Y-00635511*
X00208348Y-00633953*
X00210508Y-00631372*
X00211516Y-0062816*
X00211218Y-00624808*
X00206848Y-00609883*
X0020529Y-006069*
X00202708Y-00604739*
X00199497Y-00603731*
X00198141Y-00603852*
X0019551Y-00596386*
X0019733Y-00594227*
X0019835Y-00591019*
X00198064Y-00587666*
X00193418Y-00571591*
X00191871Y-00568602*
X00189298Y-00566433*
X0018609Y-00565413*
X00185774Y-0056544*
X00184721Y-00561647*
X00186048Y-00560149*
X00207343Y-00563361*
X00210585Y-00566603*
X00215731Y-00568735*
X002213*
X00226446Y-00566603*
X00228382Y-00564667*
X00230077Y-005658*
X0022873Y-00569052*
Y-00569376*
X00227158Y-0057059*
X0022566Y-00570237*
X00222338Y-00570778*
X00206665Y-00576638*
X00203803Y-00578409*
X00201836Y-00581141*
X00201065Y-00584417*
X00201606Y-00587739*
X00206776Y-00601568*
X00208548Y-0060443*
X00211279Y-00606397*
X00214555Y-00607168*
X00217877Y-00606627*
X0023355Y-00600767*
X00236412Y-00598996*
X00238379Y-00596264*
X0023915Y-00592988*
X00238609Y-00589666*
X00238013Y-00588071*
X0024101Y-00585837*
X00245515*
X00250661Y-00583706*
X00254599Y-00579767*
X0025673Y-00574622*
Y-00569052*
X00254599Y-00563907*
X00250661Y-00559968*
X00245515Y-00557837*
X00239946*
X002348Y-00559968*
X00232864Y-00561904*
X00231169Y-00560771*
X00232516Y-00557519*
Y-0055195*
X00230384Y-00546804*
X00227108Y-00543528*
X00228283Y-00541874*
X00284592Y-00569037*
X00285784Y-00569942*
X00286114Y-00570087*
X00287754Y-00570848*
X00289584Y-00572033*
X0029053Y-00572409*
X0029307Y-00574106*
X00297Y-00574888*
X00298192Y-00575326*
X00340244Y-00581962*
X00340278Y-00581967*
X00341128Y-00581935*
X00343566Y-0058242*
X00344882Y-00582158*
X00345012Y-00582174*
X00396298Y-00578604*
X00396367Y-00578673*
X00401513Y-00580804*
X00407082*
X00412228Y-00578673*
X00416166Y-00574735*
X00418298Y-00569589*
Y-00564019*
X00416166Y-00558874*
X00412228Y-00554936*
X00407082Y-00552804*
X00401513*
X00396367Y-00554936*
X00395101Y-00556202*
X00344053Y-00559756*
X00343802Y-00559482*
X00343801*
X00343566Y-00559385*
X00343461Y-00559428*
X00341502Y-00559452*
X00303711Y-00553489*
X00301931Y-00552955*
X00301928Y-00552954*
X0030142Y-00552727*
X0030005Y-00552087*
X00298139Y-00550851*
X00297194Y-00550475*
X00296239Y-00549837*
X00295931Y-00549603*
X00295892Y-00549583*
X00295858Y-00549574*
X0029583Y-00549553*
X0014623Y-00477389*
X00146203Y-00477382*
X00145206Y-00476716*
X00138248Y-00475332*
X00138179Y-00475314*
X0013814Y-00475312*
X00138105Y-00475317*
X00138071Y-00475308*
X0006494Y-00471652*
X00062943Y-0047154*
X00061883Y-00471329*
X00060966Y-00471512*
X00053689Y-00472959*
X00051561Y-00474381*
X00050743Y-00474685*
X00050713Y-00474704*
X00050694Y-00474721*
X0005067Y-0047473*
X00020269Y-00493656*
X00019356Y-00494512*
X00016341Y-00496526*
X000117Y-00503473*
X00010778Y-00508104*
X00010437Y-00509187*
X00010397Y-00509312*
X00008258Y-00528469*
X00008202Y-00528492*
X00007991Y-00529002*
X-00001692Y-00534345*
X-00003428Y-00535038*
X-0000394Y-0053525*
X-00005749Y-00535697*
X-00014964Y-00536978*
X-00016971Y-00535479*
X-00020234Y-0053465*
X-00035764Y-00533836*
X-00039095Y-00534319*
X-00041987Y-0053604*
X-00043946Y-00538663*
X-00055629Y-00538394*
X-00056098Y-00537481*
X-00058667Y-00535306*
X-00061872Y-00534279*
X-00078497Y-00532381*
X-00081851Y-00532659*
X-00084844Y-005342*
X-00085112Y-00534517*
X-00096683Y-00531713*
X-00096693Y-00531263*
X-00098047Y-00528182*
X-00098413Y-00527831*
X-00098065Y-00525861*
X-00097599Y-00525656*
X-0009527Y-00523226*
X-00094049Y-0052009*
X-00091479Y-00505551*
X-00091551Y-00502186*
X-00092905Y-00499105*
X-00095335Y-00496776*
X-00098472Y-00495555*
X-00113785Y-00492848*
X-00117106Y-00492918*
X-00333084Y-00424269*
X-00333658Y-00422354*
X-00330074Y-00417927*
X-00329707Y-00416689*
X-00328894Y-00415685*
X-00328612Y-00414733*
X-00328747Y-00413448*
X-00328662Y-00413161*
X-00328805Y-00412899*
X-00328868Y-00412305*
X-00328923Y-00411702*
X-00328834Y-00411416*
X-00328974Y-00411151*
X-00329092Y-00409865*
X-00329554Y-00408987*
X-00330547Y-0040816*
X-00331149Y-00407017*
X-00340771Y-00399014*
X-00354501Y-00386867*
X-00367785Y-00374261*
X-00380612Y-00361208*
X-00396024Y-00344241*
X-00407787Y-00330223*
X-00419047Y-0031581*
X-00435032Y-002934*
X-00444993Y-00278062*
X-00454426Y-00262362*
X-00463317Y-00246322*
X-00467537Y-00238217*
X-00471623Y-0023002*
X-00475032Y-00222874*
X-00475992Y-00222009*
X-00476548Y-00220844*
X-00477284Y-0022018*
X-00478502Y-00219749*
X-00478726Y-00219548*
X-00479026Y-00219564*
X-00479608Y-00219357*
X-00480178Y-0021915*
X-00480399Y-00218947*
X-004807Y-0021896*
X-00481914Y-00218518*
G37*
G36*
X-0043931Y-0056215D02*
X-0044488D01*
X-00450026Y-00564281*
X-00453824Y-00568079*
X-00458636Y-00566086*
X-00464206*
X-00469351Y-00568217*
X-00473289Y-00572155*
X-00475421Y-00577301*
Y-0058287*
X-00473289Y-00588016*
X-00469351Y-00591954*
X-00464206Y-00594086*
X-00458636*
X-0045349Y-00591954*
X-00449693Y-00588156*
X-0044488Y-0059015*
X-0043931*
X-00434165Y-00588019*
X-00430227Y-0058408*
X-00428095Y-00578935*
Y-00573365*
X-00430227Y-0056822*
X-00434165Y-00564281*
X-0043931Y-0056215*
G37*
G36*
X-00232131Y-00539427D02*
X-00237701D01*
X-00242846Y-00541558*
X-00246784Y-00545496*
X-00248916Y-00550642*
Y-00556212*
X-00246784Y-00561357*
X-00242846Y-00565295*
X-00237701Y-00567427*
X-00232131*
X-00228664Y-00565991*
X-00227327Y-00569219*
X-00223389Y-00573157*
X-00218243Y-00575288*
X-00212673*
X-00208741Y-00573659*
X-00207607Y-00576396*
X-00203669Y-00580334*
X-00198523Y-00582466*
X-00192954*
X-00187808Y-00580334*
X-00186604Y-0057913*
X-00184503Y-00579858*
X-00182625Y-00584393*
X-00178686Y-00588331*
X-00173541Y-00590463*
X-00167971*
X-00163055Y-00588426*
X-00162402Y-00590001*
X-00158464Y-00593939*
X-00153319Y-00596071*
X-00147749*
X-00142603Y-00593939*
X-00142376Y-00593985*
X-00141997Y-005949*
X-00138058Y-00598838*
X-00132913Y-0060097*
X-00127343*
X-00123479Y-00599369*
X-00121432Y-00599084*
X-00117494Y-00603022*
X-00112349Y-00605154*
X-00106779*
X-00101633Y-00603022*
X-00101538Y-00602927*
X-00100735Y-00602548*
X-00096796Y-00606486*
X-00091651Y-00608617*
X-00086081*
X-00080936Y-00606486*
X-00076998Y-00602548*
X-00074866Y-00597402*
Y-00591832*
X-00076998Y-00586687*
X-00080936Y-00582749*
X-00086081Y-00580617*
X-00091651*
X-00096796Y-00582749*
X-00096892Y-00582844*
X-00097695Y-00583223*
X-00101633Y-00579285*
X-00106779Y-00577154*
X-00112349*
X-00116213Y-00578754*
X-0011826Y-00579039*
X-00122198Y-00575101*
X-00127343Y-0057297*
X-00132913*
X-00138058Y-00575101*
X-00138286Y-00575056*
X-00138665Y-0057414*
X-00142603Y-00570202*
X-00147749Y-00568071*
X-00153319*
X-00158235Y-00570107*
X-00158887Y-00568532*
X-00162826Y-00564594*
X-00167971Y-00562463*
X-00173541*
X-00178686Y-00564594*
X-00179891Y-00565798*
X-00181991Y-0056507*
X-0018387Y-00560535*
X-00187808Y-00556597*
X-00192954Y-00554466*
X-00198523*
X-00202456Y-00556095*
X-0020359Y-00553358*
X-00207528Y-0054942*
X-00212673Y-00547288*
X-00218243*
X-0022171Y-00548724*
X-00223047Y-00545496*
X-00226985Y-00541558*
X-00232131Y-00539427*
G37*
G36*
X00314323Y-00597427D02*
X00308753D01*
X00303607Y-00599559*
X00299669Y-00603497*
X00297538Y-00608643*
Y-00614212*
X00299669Y-00619358*
X00303607Y-00623296*
X00308753Y-00625427*
X00314323*
X00319468Y-00623296*
X00323406Y-00619358*
X00325538Y-00614212*
Y-00608643*
X00323406Y-00603497*
X00319468Y-00599559*
X00314323Y-00597427*
G37*
G36*
X0039999Y-00587685D02*
X00394421D01*
X00389275Y-00589816*
X00385337Y-00593754*
X00383205Y-005989*
Y-00599718*
X00374379Y-00608391*
X00374351Y-00608432*
X0037431Y-0060846*
X00369336Y-00613433*
X00368804Y-0061423*
X00368108Y-0061489*
X003676Y-00616032*
X00366905Y-00617071*
X00366718Y-00618012*
X00366328Y-00618888*
X00362523Y-00635701*
X00360523Y-00635477*
Y-00635431*
X00358391Y-00630285*
X00354453Y-00626347*
X00349308Y-00624215*
X00343738*
X00338592Y-00626347*
X00334654Y-00630285*
X00332523Y-00635431*
Y-00641*
X00334654Y-00646146*
X0033787Y-00649362*
X00337847Y-00649787*
X00337152Y-00651472*
X00334518Y-00652191*
X00319544Y-00659657*
X00316883Y-00661717*
X00315213Y-00664639*
X00314932Y-00666848*
X00308401Y-00669893*
X00306529Y-00668688*
X00303216Y-00668089*
X00299927Y-00668804*
X00284583Y-00675476*
X00281817Y-00677394*
X00279996Y-00680225*
X002796Y-00682416*
X00272919Y-00685115*
X00271112Y-00683814*
X00267836Y-00683043*
X00264514Y-00683584*
X00248841Y-00689444*
X00245979Y-00691215*
X00244013Y-00693947*
X00243273Y-00697088*
X00236298Y-00699904*
X00235081Y-00699259*
X00235004Y-00699197*
X00234916Y-00699171*
X00234485Y-00698942*
X00234003Y-00697038*
X00234234Y-00696751*
X00235176Y-00693519*
X00234809Y-00690174*
X0023037Y-00676093*
X00228751Y-00673142*
X00226126Y-00671035*
X00224861Y-00670667*
Y-00665982*
X0022273Y-00660836*
X00218792Y-00656898*
X00213646Y-00654766*
X00208076*
X00202931Y-00656898*
X00198993Y-00660836*
X00196861Y-00665982*
Y-00671551*
X00198993Y-00676697*
X00200557Y-00678261*
X00199659Y-0067938*
X00198717Y-00682612*
X00199084Y-00685957*
X00203523Y-00700038*
X00205142Y-00702989*
X00207767Y-00705096*
X00208254Y-00705238*
X00208856Y-00707145*
X00208538Y-00707542*
X00207596Y-00710773*
X00207962Y-00714119*
X00212402Y-00728199*
X00214021Y-0073115*
X00216646Y-00733257*
X00219877Y-00734199*
X00223223Y-00733832*
X00238054Y-00729156*
X00241005Y-00727537*
X00243112Y-00724912*
X00244054Y-00721681*
X00243979Y-00720993*
X00251644Y-00717899*
X00253455Y-00719202*
X00256732Y-00719974*
X00260054Y-00719433*
X00275726Y-00713573*
X00278589Y-00711802*
X00280555Y-0070907*
X00281296Y-00705923*
X00288029Y-00703203*
X00290748Y-00704952*
X0029406Y-00705551*
X00297349Y-00704837*
X00312694Y-00698165*
X00315459Y-00696246*
X0031728Y-00693415*
X00317856Y-00690234*
X00324437Y-00687165*
X00327244Y-0068877*
X00330583Y-00689195*
X0033383Y-00688309*
X00348804Y-00680843*
X00351466Y-00678783*
X00353136Y-00675861*
X00353403Y-00673759*
X00368295Y-00666918*
X00370134Y-00666129*
X00376396Y-00661945*
X00381037Y-00654998*
X00381564Y-0065235*
X00381948Y-00651488*
X0038749Y-00627002*
X00390135Y-00624356*
X0039896Y-00615685*
X0039999*
X00405136Y-00613553*
X00409074Y-00609615*
X00411205Y-0060447*
Y-005989*
X00409074Y-00593754*
X00405136Y-00589816*
X0039999Y-00587685*
G37*
G36*
X00031409Y-00641596D02*
X00025839D01*
X00020694Y-00643728*
X00016755Y-00647666*
X00014624Y-00652812*
Y-00658381*
X00016755Y-00663527*
X00020694Y-00667465*
X00025839Y-00669596*
X00031409*
X00036554Y-00667465*
X00040493Y-00663527*
X00042624Y-00658381*
Y-00652812*
X00040493Y-00647666*
X00036554Y-00643728*
X00031409Y-00641596*
G37*
G36*
X00090466Y-00695877D02*
X00081423Y-00698568D01*
X00074098Y-00704514*
X00069606Y-00712811*
X00068631Y-00722196*
X00071321Y-00731239*
X00077267Y-00738564*
X00085564Y-00743056*
X00094949Y-00744031*
X00103992Y-00741341*
X00111317Y-00735395*
X00115809Y-00727098*
X00116785Y-00717713*
X00114094Y-0070867*
X00108148Y-00701345*
X00099851Y-00696852*
X00090466Y-00695877*
G37*
%LNflagmate_copper_signal_bot-3*%
%LPD*%
%SRX1Y1I0J0*%
G36*
X-00152768Y-00408596D02*
X-00138415Y-00413679D01*
X-00116575Y-00420356*
X-00086969Y-00427464*
X-00038455Y-00439542*
X-0001155Y-0044107*
X-00003894Y-00446204*
X-0000411Y-0044828*
X-00004161Y-00448527*
X-00004164Y-00448795*
X-00008573Y-00491146*
X-00008635Y-00494719*
X-00010086Y-00496096*
X-0002597Y-00495541*
X-00051869Y-00493503*
X-00077626Y-00490112*
X-0010317Y-00485377*
X-00115841Y-0048251*
X-00136777Y-00476998*
X-0017783Y-00463262*
X-00184566Y-00460609*
X-00185356Y-00458771*
X-00163411Y-00404457*
X-00152768Y-00408596*
G37*
G36*
X-00480894Y-0022567D02*
X-00477458Y-00232872D01*
X-00473348Y-00241116*
X-00473321Y-00241169*
X-0046904Y-00249393*
X-00468998Y-00249469*
Y-0024947*
X-00460051Y-00265611*
X-00450501Y-00281504*
X-00440402Y-00297055*
X-00424252Y-00319697*
X-00412836Y-00334308*
X-00412764Y-00334395*
X-00400918Y-00348512*
X-00385334Y-00365668*
X-00372338Y-00378894*
X-0035897Y-00391579*
X-00358888Y-00391657*
X-00345Y-00403944*
X-00335301Y-0041201*
X-00334839Y-00412889*
X-00335121Y-0041384*
X-00358425Y-00442618*
X-00362628Y-00447808*
X-00390947Y-00482779*
X-00411275Y-00507882*
X-00412298Y-00508432*
X-00413946Y-00508597*
X-00415056Y-00508263*
X-00421811Y-00502695*
X-00426181Y-00498994*
X-00439098Y-00487667*
X-00451713Y-00476006*
X-00472046Y-00455849*
X-00487667Y-00439098*
X-00502695Y-00421811*
X-00524081Y-00394924*
X-0053424Y-0038107*
X-00550353Y-00357404*
X-00556507Y-00347744*
X-00568304Y-00328111*
X-00573944Y-00318142*
X-00582075Y-00303009*
X-00589808Y-00287668*
X-00593576Y-00279767*
X-00593633Y-00278596*
X-00593069Y-00277046*
X-00592292Y-0027619*
X-0048262Y-0022505*
X-0048163Y-00225006*
X-00480894Y-0022567*
G37*
G54D11*
X00229316Y-00581838D02*
X0024273Y-00571837D01*
X00220108Y-00588703D02*
X00229316Y-00581838D01*
X00177246Y-00549626D02*
X00184641D01*
X00218516Y-00554735*
X0016961Y-00545317D02*
X00177036Y-0054969D01*
X00177246Y-00549626*
X0016961Y-00545317D02*
X00172559Y-00555947D01*
X00177413Y-00573444*
X00180362Y-00584073*
X00184033Y-00594493*
X00190196Y-00611985*
X0019367Y-00621845*
G54D12*
X-00362458Y-00428801D02*
D01*
D01*
G75*
G03X-00358823Y-00430531I00008202J00012550D01*
G74*G01*
X-00436614Y-00354646D02*
X-00362458Y-00428801D01*
X-00479276Y-00354646D02*
X-00436614D01*
X-00358796Y-0043054D02*
X-00118952Y-00506775D01*
X-00108915Y-00509965*
X-00358823Y-00430531D02*
X-00358796Y-0043054D01*
G54D16*
X00169707Y00213349D02*
D01*
D01*
G75*
G03X00167538Y00206893I00007832J-00006223D01*
G74*G01*
X00173279Y00274334D02*
D01*
D01*
G75*
G03X00173685Y00274408I-00002006J00012160D01*
G74*G01*
X00528916Y-00242839D02*
D01*
D01*
G75*
G03X00536621Y-00239856I00000563J00009986D01*
G74*G01*
X00442777Y-00239276D02*
D01*
D01*
G75*
G03X00437978Y-00240592I00000159J-00009991D01*
G74*G01*
X00380639Y-0026519D02*
D01*
D01*
G75*
G03X00392456Y-00266594I00006856J00007278D01*
G74*G01*
X0033384Y-00220105D02*
D01*
D01*
G75*
G03X00335682Y-00222502I00008761J00004826D01*
G74*G01*
X00571593Y-00218849D02*
D01*
D01*
G75*
G03X00571894Y-00219321I00009039J00005432D01*
G74*G01*
X00570844Y-0021732D02*
D01*
D01*
G75*
G03X00571593Y-00218849I00009237J00003577D01*
G74*G01*
X00570542Y-00216533D02*
D01*
D01*
G75*
G03X00565178Y-00208928I-00017733J-00006813D01*
G74*G01*
X0056389Y-00207593D02*
D01*
D01*
G75*
G03X00565178Y-00208928I00007829J00006264D01*
G74*G01*
X00563494Y-00207063D02*
D01*
D01*
G75*
G03X0056389Y-00207593I00008115J00005650D01*
G74*G01*
X00410041Y-00119325D02*
D01*
D01*
G75*
G03X00408156Y-00123183I00007837J-00006218D01*
G74*G01*
X00450806Y-00080564D02*
D01*
D01*
G75*
G02X00450792Y-00080558I00000050J00000137D01*
G74*G01*
X00450806Y-00080564D02*
D01*
D01*
G75*
G03X00450964Y-00080626I00002641J00006499D01*
G74*G01*
D01*
D01*
G75*
G03X0045296Y-00081317I00009408J00023949D01*
G74*G01*
X0056651Y-00115573D02*
D01*
D01*
G75*
G03X00565927Y-00115377I-00003633J-00009842D01*
G74*G01*
X00456781Y-00065721D02*
D01*
D01*
G75*
G03X00460465Y-00066424I00003679J00009278D01*
G74*G01*
X00456781Y-00065721D02*
D01*
D01*
G75*
G03X00456615Y-00065655I-00013808J-00034489D01*
G74*G01*
D01*
D01*
G75*
G03X00456527Y-00065621I-00003622J-00009246D01*
G74*G01*
X00460465Y-00066424D02*
D01*
D01*
G75*
G03X00461827Y-00066331I-00000001J00010039D01*
G74*G01*
X00424575Y-00069589D02*
D01*
D01*
G75*
G03X00431605Y-00068367I00001915J00009815D01*
G74*G01*
X00456526Y-00065621D02*
D01*
D01*
G75*
G03X00432923Y-00067583I-00009791J-00025158D01*
G74*G01*
X00688077Y-00116963D02*
D01*
D01*
G75*
G03X00684504Y-00113772I-00008260J-00005653D01*
G74*G01*
X00597524Y-00068148D02*
D01*
D01*
G75*
G03X00597217Y-00067994I-00004196J-00007983D01*
G74*G01*
X00547617Y-00044326D02*
D01*
D01*
G75*
G03X00541201Y-00043576I-00004306J-00009023D01*
G74*G01*
X00514835Y-00049264D02*
D01*
D01*
G75*
G03X00512943Y-00049874I00002117J-00009807D01*
G74*G01*
X00480718Y-00063655D02*
D01*
D01*
G75*
G03X00483322Y-0006291I-00001421J00009891D01*
G74*G01*
X00566058Y-00143447D02*
D01*
D01*
G75*
G03X00560574Y-00139731I-00008029J-00005945D01*
G74*G01*
X00725204Y-0021445D02*
D01*
D01*
G75*
G03X00724982Y-00215101I00009681J-00003665D01*
G74*G01*
X0073401Y-00191237D02*
D01*
D01*
G75*
G03X00730091Y-00178363I-00010286J00003902D01*
G74*G01*
X00653596Y-00306521D02*
D01*
D01*
G75*
G03X00662711Y-00309027I00006893J00007242D01*
G74*G01*
X00645432Y-00297734D02*
D01*
D01*
G75*
G03X00647612Y-00300798I00009100J00004167D01*
G74*G01*
X00635652Y-00275574D02*
D01*
D01*
G75*
G03X00636366Y-0027771I00010734J00002400D01*
G74*G01*
X00623882Y-00222957D02*
D01*
D01*
G75*
G03X00622179Y-00219215I-00009760J-00002183D01*
G74*G01*
X-00624715Y0012004D02*
D01*
D01*
G75*
G03X-00623265Y00112486I00009794J-00002036D01*
G74*G01*
X-00619859Y00143329D02*
D01*
D01*
G75*
G03X-00619959Y00142905I00009884J-00002554D01*
G74*G01*
X-00609942Y00180946D02*
D01*
D01*
G75*
G03X-00610088Y00180443I00008757J-00002814D01*
G74*G01*
X-00601492Y00207318D02*
D01*
D01*
G75*
G03X-00601619Y00206946I00009029J-00003290D01*
G74*G01*
X-0059388Y00228202D02*
D01*
D01*
G75*
G03X-00594028Y00227825I00011021J-00004544D01*
G74*G01*
X-00581114Y00258991D02*
D01*
D01*
G75*
G03X-00581309Y00258553I00011007J-00005163D01*
G74*G01*
X-00569307Y00284016D02*
D01*
D01*
G75*
G03X-00569441Y00283742I00007738J-00003954D01*
G74*G01*
X-00568778Y00285055D02*
D01*
D01*
G75*
G03X-00572991Y00298394I-00008924J00004516D01*
G74*G01*
X-00526188Y00310897D02*
D01*
D01*
G75*
G03X-00529496Y00324499I-00008594J00005113D01*
G74*G01*
X-00529244Y0030576D02*
D01*
D01*
G75*
G03X-00529417Y00305457I00008160J-00004860D01*
G74*G01*
X-00542023Y00282479D02*
D01*
D01*
G75*
G03X-00542282Y00281974I00009099J-00004985D01*
G74*G01*
X-00560367Y00244059D02*
D01*
D01*
G75*
G03X-00560661Y00243378I00008834J-00004217D01*
G74*G01*
X-00577794Y00199319D02*
D01*
D01*
G75*
G03X-00578024Y00198661I00009472J-00003680D01*
G74*G01*
X-00588919Y00163575D02*
D01*
D01*
G75*
G03X-0058906Y00163067I00009603J-00002939D01*
G74*G01*
X-00595624Y00136738D02*
D01*
D01*
G75*
G03X-00594089Y0012855I00009702J-00002418D01*
G74*G01*
X-00555473Y00070523D02*
D01*
D01*
G75*
G03X-0055623Y00072292I-00009518J-00003026D01*
G74*G01*
X00685016Y-00343219D02*
D01*
D01*
G75*
G03X00685995Y-00340407I-00008868J00004663D01*
G74*G01*
X0065222Y-00405086D02*
D01*
D01*
G75*
G03X00652857Y-00404009I-00010812J00007122D01*
G74*G01*
X0063389Y-00423421D02*
D01*
D01*
G75*
G03X00644024Y-00417468I-00001067J00013419D01*
G74*G01*
X00659752Y-00356819D02*
D01*
D01*
G75*
G03X00659174Y-00346674I-00008887J00004582D01*
G74*G01*
X00657625Y-00360754D02*
D01*
D01*
G75*
G03X00658308Y-0035962I-00008186J00005703D01*
G74*G01*
X00342042Y-00570891D02*
D01*
D01*
G75*
G03X00344233Y-00570986I00001527J00009920D01*
G74*G01*
X00295678Y-00562617D02*
D01*
D01*
G75*
G03X0029994Y-00564248I00005980J00009244D01*
G74*G01*
X00292046Y-00560267D02*
D01*
D01*
G75*
G03X00290997Y-00559674I-00005514J-00008530D01*
G74*G01*
X00141357Y-00487491D02*
D01*
D01*
G75*
G03X0013755Y-00486512I-00004347J-00009012D01*
G74*G01*
X00062382Y-00482753D02*
D01*
D01*
G75*
G03X00056628Y-00484233I-00000499J-00009983D01*
G74*G01*
X00026196Y-00503177D02*
D01*
D01*
G75*
G03X00021545Y-00510539I00005282J-00008487D01*
G74*G01*
X00014181Y-00538395D02*
D01*
D01*
G75*
G03X00019288Y-0053075I-00004832J00008756D01*
G74*G01*
X-00001805Y-00546472D02*
D01*
D01*
G75*
G03X00001621Y-00545327I-00001409J00009914D01*
G74*G01*
X00553466Y-0043659D02*
D01*
D01*
G75*
G03X0055275Y-00436573I-00000798J-00018559D01*
G74*G01*
X0056697Y-00437168D02*
D01*
D01*
G75*
G03X00571718Y-00436312I00000471J00010979D01*
G74*G01*
X00601327Y-00424539D02*
D01*
D01*
G75*
G03X00597751Y-00425322I00000312J-00009986D01*
G74*G01*
X0036543Y-00655891D02*
D01*
D01*
G75*
G03X00371009Y-00649012I-00004176J00009089D01*
G74*G01*
X0009713Y-0040474D02*
D01*
D01*
G75*
G03X00092279Y-00411072I00004856J-00008744D01*
G74*G01*
X0008872Y-0042323D02*
D01*
D01*
G75*
G03X00090062Y-00420136I-00008360J00005464D01*
G74*G01*
X00070739Y-00445986D02*
D01*
D01*
G75*
G03X00076601Y-00441776I-00002508J00009678D01*
G74*G01*
X-0000406Y-00379766D02*
D01*
D01*
G75*
G03X-00008075Y-00383743I00004737J-00008798D01*
G74*G01*
X-00016251Y-00398572D02*
D01*
D01*
G75*
G03X-00017494Y-00403394I00008763J-00004830D01*
G74*G01*
X002874Y00174684D02*
X00301055Y00180892D01*
X0026797Y00166167D02*
X00273493Y00157242D01*
X00108003Y00254439D02*
X00111927Y00263685D01*
X00104021Y00245058D02*
X00108003Y00254439D01*
X00172071Y00216322D02*
X00178324Y00224184D01*
X00169707Y00213349D02*
X00172071Y00216322D01*
X00172533Y-00659523D02*
X00174733Y-00657322D01*
X00170564Y-00659523D02*
X00172533D01*
X00164645Y-00631724D02*
X00165332Y-00630144D01*
X00164645Y-00631724D02*
X00169018Y-00642818D01*
X00174733Y-00657322*
X00142931Y00242648D02*
X00145389Y0024682D01*
X00135116Y00229381D02*
X00142931Y00242648D01*
X00191127Y00183297D02*
X00203316Y00194864D01*
X0020779Y00197185*
X00244058Y00129768D02*
X00252927Y00134484D01*
X00235059Y00124983D02*
X00244058Y00129768D01*
X00173685Y00274408D02*
X00191259Y00278024D01*
X00173256Y0027433D02*
X00173279Y00274334D01*
X00536621Y-00239856D02*
X00552807Y-00223348D01*
X005289Y-00242838D02*
X00528916Y-00242839D01*
X00462788Y-0023899D02*
X005289Y-00242838D01*
X00442777Y-00239276D02*
X00461825Y-0023897D01*
X00392456Y-00266594D02*
X00437978Y-00240592D01*
X00380611Y-00265163D02*
X00380639Y-0026519D01*
X00335682Y-00222502D02*
X00380611Y-00265163D01*
X00333819Y-00220067D02*
X0033384Y-00220105D01*
X00311623Y-00179344D02*
X00333819Y-00220067D01*
X00302002Y-00161691D02*
X00311623Y-00179344D01*
X00570542Y-00216533D02*
X00570844Y-0021732D01*
X00563451Y-00207D02*
X00563494Y-00207063D01*
X00571894Y-00219321D02*
X00659129Y-00346608D01*
X00545233Y-00180418D02*
X00563451Y-00207D01*
X00385682Y-00216442D02*
X0038911Y-00202218D01*
X00408156Y-00123183*
X00410041Y-00119325D02*
X00438118Y-00083944D01*
X0045296Y-00081317D02*
X00565927Y-00115377D01*
X0056651Y-00115573D02*
X00566536Y-00115582D01*
X00673505Y-00155491*
X00461827Y-00066331D02*
X00461868Y-00066326D01*
X00431605Y-00068367D02*
X00432923Y-00067583D01*
X00392358Y-00063155D02*
X00424575Y-0006959D01*
X00461868Y-00066326D02*
X00480697Y-00063658D01*
X00688077Y-00116963D02*
X00730091Y-00178363D01*
X0068447Y-00113754D02*
X00684504Y-00113773D01*
X00597524Y-00068148D02*
X0068447Y-00113754D01*
X00597185Y-00067979D02*
X00597217Y-00067994D01*
X00547617Y-00044326D02*
X00597185Y-00067979D01*
X00514835Y-00049264D02*
X00541201Y-00043576D01*
X00512916Y-00049886D02*
X00512943Y-00049874D01*
X00483322Y-0006291D02*
X00512916Y-00049886D01*
X00480697Y-00063658D02*
X00480718Y-00063655D01*
X00472107Y-00116719D02*
X00560539Y-00139721D01*
X00560574Y-00139731*
X00566058Y-00143447D02*
X00622159Y-00219187D01*
X00723178Y-00221098D02*
X00724982Y-00215101D01*
X00725204Y-0021445D02*
X0073401Y-00191237D01*
X00653579Y-00306504D02*
X00653596Y-00306521D01*
X00647612Y-00300798D02*
X00653579Y-00306504D01*
X00645415Y-00297695D02*
X00645432Y-00297734D01*
X00636366Y-0027771D02*
X00645415Y-00297695D01*
X00623882Y-00222957D02*
X00635652Y-00275574D01*
X00622159Y-00219187D02*
X00622179Y-00219215D01*
X00454014Y-00112013D02*
X00472107Y-00116719D01*
X00373633Y-00059416D02*
X00392358Y-00063155D01*
X00259373Y00059873D02*
X00274398Y00063342D01*
X00279115Y00064438*
X-00575601Y00040947D02*
X-00568158Y00029776D01*
X-00623247Y00112459D02*
X-00575601Y00040947D01*
X-00623265Y00112486D02*
X-00623247Y00112459D01*
X-00624715Y0012004D02*
X-00619968Y00142862D01*
X-00619959Y00142905*
X-00619859Y00143329D02*
X-00610088Y00180443D01*
X-00609942Y00180946D02*
X-00601619Y00206946D01*
X-00601492Y00207318D02*
X-00594038Y00227796D01*
X-00594028Y00227825*
X-0059388Y00228202D02*
X-00581309Y00258553D01*
X-00581115Y00258991D02*
X-00569441Y00283742D01*
X-00569307Y00284016D02*
X-00568789Y00285032D01*
X-00568778Y00285055*
X-00615361Y00321007D02*
X-00572991Y00298394D01*
X-0064383Y003362D02*
X-00615361Y00321007D01*
X-00568158Y00029776D02*
X-00560598Y00018646D01*
X-005512Y0000481*
X-00616231Y00377895D02*
X-00588524Y00360839D01*
X-00529539Y00324526*
X-00529497Y00324499*
X-00529244Y0030576D02*
X-00526188Y00310897D01*
X-00542023Y00282479D02*
X-00529417Y00305457D01*
X-00560367Y00244059D02*
X-00542282Y00281974D01*
X-00577794Y00199319D02*
X-00560661Y00243378D01*
X-00588907Y00163613D02*
X-00578024Y00198661D01*
X-00588919Y00163575D02*
X-00588907Y00163613D01*
X-00595624Y00136738D02*
X-0058906Y00163067D01*
X-00594089Y0012855D02*
X-00570557Y00095235D01*
X-00562688Y00084095*
X-0055623Y00072292*
X-00555473Y00070523D02*
X-00551625Y00058423D01*
X00123465Y00290866D02*
X00128222Y00288702D01*
X-00514065Y00047561D02*
X-00508438D01*
X-0052875Y00077752D02*
X-00527643Y00078859D01*
X-0052875Y00067872D02*
Y00077752D01*
Y00067872D02*
X-00508438Y00047561D01*
X-00493937*
X-00532772Y00028854D02*
X-00514065Y00047561D01*
X-00532772Y00027922D02*
Y00028854D01*
X-00622013Y-00087077D02*
X-00608407Y-00058583D01*
X-00643076Y-00112625D02*
X-00622013Y-00087077D01*
X-00522007Y00501129D02*
X-00514147Y00509153D01*
X-00551741Y00470776D02*
X-00522007Y00501129D01*
X-00561038Y00461286D02*
X-00551741Y00470776D01*
X00707764Y-00266311D02*
X00712845Y-00252432D01*
X00704308Y-00275753D02*
X00707764Y-00266311D01*
X00691115Y-00313123D02*
X00693008Y-00303034D01*
X00685995Y-00340407D02*
X00691115Y-00313123D01*
X00670142Y-0037149D02*
X00685016Y-00343219D01*
X00652857Y-00404009D02*
X00670142Y-0037149D01*
X00644024Y-00417468D02*
X0065222Y-00405086D01*
X00624352Y-00424179D02*
X0063389Y-00423421D01*
X00614115Y-00424179D02*
X00624352D01*
X00657606Y-0036078D02*
X00657625Y-00360754D01*
X00658308Y-0035962D02*
X00659752Y-00356819D01*
X00659129Y-00346608D02*
X00659174Y-00346674D01*
X00636183Y-00391328D02*
X00657606Y-0036078D01*
X-00105232Y-00442029D02*
X-00094379Y-00444017D01*
X-00122647Y-00438838D02*
X-00105232Y-00442029D01*
X-00141467Y-0043539D02*
X-00122647Y-00438838D01*
X00344233Y-00570986D02*
X00404298Y-00566804D01*
X00342008Y-00570886D02*
X00342042Y-00570891D01*
X0029994Y-00564248D02*
X00342008Y-00570886D01*
X00292046Y-00560267D02*
X00295678Y-00562617D01*
X00290957Y-00559655D02*
X00290997Y-00559674D01*
X00141357Y-00487491D02*
X00290957Y-00559655D01*
X00137511Y-0048651D02*
X0013755Y-00486512D01*
X00062382Y-00482753D02*
X00137511Y-0048651D01*
X00056598Y-00484251D02*
X00056628Y-00484233D01*
X00026196Y-00503177D02*
X00056598Y-00484251D01*
X00021543Y-00510557D02*
X00021545Y-00510539D01*
X00019288Y-0053075D02*
X00021543Y-00510557D01*
X00001621Y-00545327D02*
X00014181Y-00538395D01*
X-00001834Y-00546476D02*
X-00001805Y-00546472D01*
X-00018306Y-00548766D02*
X-00001834Y-00546476D01*
X-00028836Y-00550229D02*
X-00018306Y-00548766D01*
X-00072Y-00549235D02*
X-00060928Y-0054949D01*
X-00039277Y-00549989*
X-00028836Y-00550229*
X-00082802Y-00546617D02*
X-00072Y-00549235D01*
X-00103892Y-00541505D02*
X-00082802Y-00546617D01*
X-00114058Y-00539042D02*
X-00103892Y-00541505D01*
X00517981Y-00170337D02*
X00534402Y-00164614D01*
X00402103Y-0021072D02*
X00517981Y-00170337D01*
X00385682Y-00216442D02*
X00402103Y-0021072D01*
X00534402Y-00164614D02*
X00545233Y-00180418D01*
X00630413Y-00399556D02*
X00636183Y-00391328D01*
X00216561Y-00435363D02*
X00238966Y-00434733D01*
X00253834Y-00434315*
X0055275Y-00436573*
X00553466Y-0043659D02*
X0056697Y-00437168D01*
X00571718Y-00436312D02*
X00597751Y-00425322D01*
X00601327Y-00424539D02*
X0060136Y-00424538D01*
X00614115Y-00424179*
X00160373Y00272262D02*
X00173256Y0027433D01*
X00321701Y00097753D02*
X00335874Y00102687D01*
X0030193Y0009087D02*
X00321701Y00097753D01*
X00301839Y00091175D02*
X00304871Y00081098D01*
X00268123Y00165919D02*
X002874Y00174684D01*
X00227144Y00247884D02*
X00237281Y00258947D01*
X00212956Y00232401D02*
X00227144Y00247884D01*
X00212823Y00232523D02*
X00221492Y0022458D01*
X00141875Y00281586D02*
X00151032Y0027697D01*
X00160373Y00272262*
X00132806Y00286158D02*
X00141875Y00281586D01*
X00123465Y00290866D02*
X00132806Y00286158D01*
X00221492Y0022458D02*
X00229208Y00217511D01*
X0020442Y00240222D02*
X00212823Y00232523D01*
X00196704Y00247292D02*
X0020442Y00240222D01*
X00273493Y00157242D02*
X00278998Y00148346D01*
X00262753Y00174597D02*
X0026797Y00166167D01*
X00257248Y00183492D02*
X00262753Y00174597D01*
X00304871Y00081098D02*
X00307886Y00071081D01*
X00298989Y00100643D02*
X00301839Y00091175D01*
X00295975Y0011066D02*
X00298989Y00100643D01*
X-0000406Y-00379766D02*
X00019149Y-00367266D01*
X00021478Y-00365533D02*
X00030827Y-00356184D01*
X00061518*
X00019149Y-00367266D02*
X00021478Y-00365533D01*
X00210861Y-00668766D02*
X00213926Y-00678485D01*
X00216946Y-00688066*
X00225825Y-00716227D02*
X00235535Y-00712307D01*
X00252053Y-00705639*
X00262284Y-00701509*
X00377267Y-00621364D02*
X0038224Y-0061639D01*
X00371009Y-00649012D02*
X00377267Y-00621364D01*
X0038224Y-0061639D02*
X00397205Y-00601685D01*
X00344202Y-00665643D02*
X0036543Y-00655891D01*
X00334174Y-0067025D02*
X00344202Y-00665643D01*
X00298638Y-0068682D02*
X00308638Y-00682157D01*
X00324175Y-00674913*
X00334174Y-0067025*
X00288409Y-00690953D02*
X00298638Y-0068682D01*
X00272514Y-00697375D02*
X00288409Y-00690953D01*
X00262284Y-00701509D02*
X00272514Y-00697375D01*
X-00051641Y-00461146D02*
X-00046123Y-00479006D01*
X-00054891Y-00450626D02*
X-00051641Y-00461146D01*
X-00071129Y-00475935D02*
X-0006091Y-00460008D01*
X-00054891Y-00450626*
X-00065779Y-00448804D02*
X-00054891Y-00450626D01*
X-0008349Y-0044584D02*
X-00065779Y-00448804D01*
X-00094379Y-00444017D02*
X-0008349Y-0044584D01*
X-00054891Y-00450626D02*
X-00043979Y-00452259D01*
X-00027782Y-00454683*
X-00017749Y-00456184*
X00011778Y-00456442D02*
X00011869Y-00446003D01*
X00011992Y-00431882*
X00012084Y-00421443*
X00011778Y-00456442D02*
X00021836Y-00455116D01*
X00038073Y-00452975*
X00049012Y-00451533*
X0009713Y-0040474D02*
X00097165Y-00404721D01*
X00092271Y-00411107D02*
X00092279Y-00411072D01*
X00090062Y-00420136D02*
X00092271Y-00411107D01*
X00076601Y-00441776D02*
X0008872Y-0042323D01*
X00070703Y-00445995D02*
X00070739Y-00445986D01*
X00059812Y-00448776D02*
X00070703Y-00445995D01*
X00049012Y-00451533D02*
X00059812Y-00448776D01*
X-00016251Y-00398572D02*
X-00008075Y-00383743D01*
X-00017494Y-00403394D02*
Y-00403428D01*
X-00017473Y-00410745*
X-00017443Y-00421185*
G54D17*
X00462676Y-00238983D02*
D01*
D01*
G75*
G03X00461926Y-00238968I-00000592J-00010856D01*
G74*G01*
X00450726Y-00080532D02*
D01*
D01*
G75*
G03X00438152Y-00083901I-00003992J-00010250D01*
G74*G01*
X00462676Y-00238983D02*
X00462788Y-0023899D01*
X00461825Y-0023897D02*
X00461926Y-00238968D01*
X00438118Y-00083944D02*
X00438152Y-00083901D01*
X00450726Y-00080532D02*
X00450792Y-00080558D01*
G54D33*
X-00529678Y-00511504D03*
X-00450381Y-00434927D03*
G54D63*
X00693008Y-00303034D03*
X00704308Y-00275753D03*
G54D97*
X-0048168Y-00156454D03*
G54D98*
X-0049981Y-00079829D03*
G54D99*
X-00671794Y0022524D03*
X-0045103Y00546456D03*
G54D100*
X-00538434Y00161055D03*
X-00343316Y00444959D03*
G54D101*
X00074016Y-00516855D03*
X00169385Y-00697146D03*
X00092708Y-00719954D03*
X-0038261Y00165037D03*
X-00320544Y00114569D03*
X-00225394Y00294978D03*
G54D102*
X-00466446Y-00607884D03*
X-00442095Y-0057615D03*
X0002911Y-00555459D03*
X-00461421Y-00580086D03*
X-00482199Y-00595466D03*
X-00523969Y-00284492D03*
X-00479276Y-00354646D03*
X-00395068Y-00446543D03*
X-00425255Y-00417897D03*
X-0045337Y-00387215D03*
X-00502848Y-00320349D03*
X00301055Y00180892D03*
X00216683Y00550082D03*
X00198591Y-00258808D03*
X-005418Y-005418D03*
X-00527432Y-00555797D03*
X-00512702Y-00569413D03*
X-00497621Y-00582639D03*
X-00450373Y-00619886D03*
X-00433992Y-00631463D03*
X-00417314Y-00642607D03*
X-00400349Y-00653311D03*
X-00383111Y-00663567D03*
X-00040101Y-00765171D03*
X-00060117Y-00763859D03*
X-00080092Y-00762024D03*
X-00100012Y-00759666D03*
X-00119863Y-00756788D03*
X-00139633Y-00753391D03*
X-00159306Y-00749477D03*
X-00274589Y-00715329D03*
X-00365609Y-00673368D03*
X-00347857Y-00682708D03*
X-00417102Y-00563681D03*
X-0043652Y-00548781D03*
X-00325601Y-00575497D03*
X-00345487Y-00563784D03*
X-00673368Y-00365609D03*
X-00663567Y-00383111D03*
X-00653311Y-00400349D03*
X-00642607Y-00417314D03*
X-00631463Y-00433992D03*
X-00619886Y-00450373D03*
X-00607884Y-00466446D03*
X-00595466Y-00482199D03*
X-00582639Y-00497621D03*
X-00569413Y-00512702D03*
X-00555797Y-00527432D03*
X-00329867Y-0069158D03*
X-0029322Y-00707896D03*
X-0031165Y-00699978D03*
X-00105125Y-00703409D03*
X-0012961Y-00699312D03*
X-00153936Y-00694362D03*
X-00178871Y-0074505D03*
X-00198313Y-00740113D03*
X-00217619Y-00734668D03*
X-00236775Y-0072872D03*
X-0025577Y-00722272D03*
X-00325Y-0062D03*
X-00285D03*
X-00386515Y00260707D03*
X00104021Y00245058D03*
X00167538Y00206893D03*
X0020603Y-00195386D03*
X00170564Y-00659523D03*
X-00305387Y00202131D03*
X00135116Y00229381D03*
X00191127Y00183297D03*
X00235059Y00124983D03*
X0014407Y00443402D03*
X-00215458Y-00561288D03*
X-00234916Y-00553427D03*
X-00195738Y-00568466D03*
X00567808Y-00476448D03*
X00552807Y-00223348D03*
X00667786Y-00182349D03*
X00341168Y-001701D03*
X00673505Y-00155491D03*
X00723178Y-00221098D03*
X00662711Y-00309027D03*
X-00275161Y00305597D03*
X00259373Y00059873D03*
X-00208616Y00244258D03*
X00297344Y-00118622D03*
X00191259Y00278024D03*
X00310255Y-00100808D03*
X00266679Y-00049426D03*
X-00274675Y00234594D03*
X-00239651Y00190627D03*
X0026536Y-00162613D03*
X-005512Y0000481D03*
X-00551625Y00058423D03*
X00114623Y-0024581D03*
X-00170756Y-00576463D03*
X-00150534Y-00582071D03*
X-00493937Y00047561D03*
X-00608407Y-00058583D03*
X0024273Y-00571837D03*
X00218516Y-00554735D03*
X00712845Y-00252432D03*
X00404298Y-00566804D03*
X00599644Y-00402531D03*
X00530954Y-00312756D03*
X00581442Y-00308077D03*
X00560523Y-00319361D03*
X00632071Y-00357608D03*
X00335874Y00102687D03*
X00237281Y00258947D03*
X00058538Y-00315842D03*
X00061518Y-00356184D03*
X00210861Y-00668766D03*
X00397205Y-00601685D03*
X00346523Y-00638215D03*
X00311538Y-00611427D03*
X-00046123Y-00479006D03*
X-00071129Y-00475935D03*
X00097165Y-00404721D03*
X00532515Y-00479726D03*
X00552654Y-00455573D03*
X00028624Y-00655596D03*
X00387753Y00210532D03*
X-00088866Y-00594617D03*
X-00109564Y-00591154D03*
X-00130128Y-0058697D03*
G54D103*
X00336237Y00344506D03*
X00319265Y00326149D03*
X00302293Y00307791D03*
X00285322Y00289435D03*
X00263293Y00309801D03*
X00280265Y00328158D03*
X00297237Y00346515D03*
X00314209Y00364871D03*
G54D106*
X-00599465Y-00427594D03*
X-0050972Y-0036358D03*
G54D107*
X-00108915Y-00509965D03*
X-00114058Y-00539042D03*
G54D108*
X00135695Y-00555575D03*
X0016961Y-00545317D03*
G54D109*
X00146322Y-00593909D03*
X00180362Y-00584073D03*
G54D110*
X00318364Y-0063854D03*
X00334174Y-0067025D03*
G54D111*
X00284509Y-00654327D03*
X00298638Y-0068682D03*
G54D112*
X00249875Y-0066832D03*
X00232514Y-00621892D03*
X00220108Y-00588703D03*
X00262284Y-00701509D03*
G54D113*
X-00087012Y-00409358D03*
X-00094379Y-00444017D03*
G54D114*
X-00050573Y-00415457D03*
X-00054891Y-00450626D03*
G54D115*
X00045307Y-00416294D03*
X00049012Y-00451533D03*
G54D116*
X-00027291Y-00520742D03*
X-00028836Y-00550229D03*
G54D117*
X-00067981Y-00514032D03*
X-00072Y-00549235D03*
G54D118*
X00111927Y00263685D03*
X00123465Y00290866D03*
G54D119*
X00178324Y00224184D03*
X00196704Y00247292D03*
G54D120*
X0023321Y00166346D03*
X00257248Y00183492D03*
G54D121*
X00268316Y0010032D03*
X00295975Y0011066D03*
G54D122*
X-00620678Y-00202464D03*
X-00643076Y-00112625D03*
G54D123*
X0031773Y00010103D03*
X00685056Y-00230254D03*
G54D124*
X00453703Y-00024769D03*
X00534088Y-00077361D03*
G54D125*
X0046936Y-00271198D03*
X00302002Y-00161691D03*
X00454014Y-00112013D03*
X00534402Y-00164614D03*
X00385682Y-00216442D03*
X00373633Y-00059416D03*
G54D126*
X0021318Y-00149678D03*
X00580506Y-00390031D03*
G54D127*
X00173225Y-002341D03*
G54D128*
X00140188Y-00297176D03*
G54D129*
X00139029Y-00435206D03*
X00283983Y-00530057D03*
G54D130*
X00469491Y-00559696D03*
G54D131*
X-00125043Y-00384841D03*
X-00141467Y-0043539D03*
G54D132*
X-00375548Y0033851D03*
X-00403144Y00296816D03*
X-00430742Y0025512D03*
X-00458337Y00213427D03*
X-00588635Y00419589D03*
X-0064383Y003362D03*
X-00616231Y00377895D03*
X-00561038Y00461286D03*
G54D133*
X-004846Y00489596D03*
X-00514147Y00509153D03*
G54D134*
X-00568158Y00029776D03*
X-00532772Y00027922D03*
G54D135*
X-00562688Y00084095D03*
X-00527643Y00078859D03*
G54D136*
X00145389Y0024682D03*
X00160373Y00272262D03*
G54D137*
X0020779Y00197185D03*
X00229208Y00217511D03*
G54D138*
X00252927Y00134484D03*
X00278998Y00148346D03*
G54D139*
X00279115Y00064438D03*
X00307886Y00071081D03*
G54D140*
X00216946Y-00688066D03*
X00225825Y-00716227D03*
G54D141*
X00216561Y-00435363D03*
G54D142*
X00614115Y-00424179D03*
X00630413Y-00399556D03*
G54D143*
X00012084Y-00421443D03*
X-00017443Y-00421185D03*
G54D144*
X00011778Y-00456442D03*
X-00017749Y-00456184D03*
G54D145*
X00165332Y-00630144D03*
X0019367Y-00621845D03*
M02*