%FSTAX26Y26*%
%MOIN*%
%SFA1B1*%

%IPPOS*%
%AMD24*
4,1,8,0.004700,-0.012000,0.012600,0.002800,0.011600,0.006100,-0.001500,0.013000,-0.004700,0.012000,-0.012600,-0.002800,-0.011600,-0.006100,0.001500,-0.013000,0.004700,-0.012000,0.0*
1,1,0.004922,0.002600,-0.010900*
1,1,0.004922,0.010500,0.003900*
1,1,0.004922,-0.002600,0.010900*
1,1,0.004922,-0.010500,-0.003900*
%
%AMD25*
4,1,8,-0.012900,0.001000,-0.003000,-0.012600,0.000400,-0.013100,0.012300,-0.004400,0.012900,-0.001000,0.003000,0.012600,-0.000400,0.013100,-0.012300,0.004400,-0.012900,0.001000,0.0*
1,1,0.004922,-0.010900,0.002400*
1,1,0.004922,-0.001000,-0.011100*
1,1,0.004922,0.010900,-0.002400*
1,1,0.004922,0.001000,0.011100*
%
%AMD26*
4,1,8,0.012900,-0.001000,0.002900,0.012600,-0.000400,0.013100,-0.012400,0.004300,-0.012900,0.001000,-0.002900,-0.012600,0.000400,-0.013100,0.012400,-0.004300,0.012900,-0.001000,0.0*
1,1,0.004922,0.010900,-0.002400*
1,1,0.004922,0.001000,0.011200*
1,1,0.004922,-0.010900,0.002400*
1,1,0.004922,-0.001000,-0.011200*
%
%AMD27*
4,1,8,0.012700,-0.002000,0.004000,0.012300,0.000700,0.013100,-0.012000,0.005300,-0.012700,0.002000,-0.004000,-0.012300,-0.000700,-0.013100,0.012000,-0.005300,0.012700,-0.002000,0.0*
1,1,0.004922,0.010700,-0.003300*
1,1,0.004922,0.001900,0.011000*
1,1,0.004922,-0.010700,0.003300*
1,1,0.004922,-0.001900,-0.011000*
%
%AMD28*
4,1,8,0.008500,-0.009700,0.010900,0.006900,0.008900,0.009600,-0.005800,0.011800,-0.008500,0.009700,-0.010900,-0.006900,-0.008900,-0.009600,0.005800,-0.011800,0.008500,-0.009700,0.0*
1,1,0.004922,0.006100,-0.009400*
1,1,0.004922,0.008500,0.007200*
1,1,0.004922,-0.006100,0.009400*
1,1,0.004922,-0.008500,-0.007200*
%
%AMD29*
4,1,8,0.009600,-0.008700,0.010000,0.008100,0.007700,0.010600,-0.007100,0.011000,-0.009600,0.008700,-0.010000,-0.008100,-0.007700,-0.010600,0.007100,-0.011000,0.009600,-0.008700,0.0*
1,1,0.004922,0.007200,-0.008600*
1,1,0.004922,0.007600,0.008200*
1,1,0.004922,-0.007200,0.008600*
1,1,0.004922,-0.007600,-0.008200*
%
%AMD30*
4,1,8,-0.010500,-0.006900,0.004400,-0.011700,0.007400,-0.010200,0.012000,0.003900,0.010500,0.006900,-0.004400,0.011700,-0.007400,0.010200,-0.012000,-0.003900,-0.010500,-0.006900,0.0*
1,1,0.004922,-0.009700,-0.004600*
1,1,0.004922,0.005100,-0.009500*
1,1,0.004922,0.009700,0.004600*
1,1,0.004922,-0.005100,0.009500*
%
%AMD31*
4,1,8,-0.011000,-0.006100,0.003500,-0.012000,0.006600,-0.010700,0.012300,0.002900,0.011000,0.006100,-0.003500,0.012000,-0.006600,0.010700,-0.012300,-0.002900,-0.011000,-0.006100,0.0*
1,1,0.004922,-0.010000,-0.003900*
1,1,0.004922,0.004400,-0.009800*
1,1,0.004922,0.010000,0.003900*
1,1,0.004922,-0.004400,0.009800*
%
%AMD32*
4,1,8,0.000800,0.010900,-0.009200,-0.005900,-0.008600,-0.008600,-0.003500,-0.011700,-0.000800,-0.010900,0.009200,0.005900,0.008600,0.008600,0.003500,0.011700,0.000800,0.010900,0.0*
1,1,0.003936,0.002400,0.010000*
1,1,0.003936,-0.007600,-0.006900*
1,1,0.003936,-0.002400,-0.010000*
1,1,0.003936,0.007600,0.006900*
%
%AMD33*
4,1,8,-0.033600,0.009300,0.008100,-0.033900,0.014300,-0.034000,0.033500,-0.015500,0.033600,-0.009300,-0.008100,0.033900,-0.014300,0.034000,-0.033500,0.015500,-0.033600,0.009300,0.0*
1,1,0.008858,-0.030400,0.012300*
1,1,0.008858,0.011300,-0.030800*
1,1,0.008858,0.030400,-0.012300*
1,1,0.008858,-0.011300,0.030800*
%
%AMD34*
4,1,8,0.012300,0.002400,0.000400,0.012500,-0.003000,0.012300,-0.012600,0.001000,-0.012300,-0.002400,-0.000400,-0.012500,0.003000,-0.012300,0.012600,-0.001000,0.012300,0.002400,0.0*
1,1,0.004922,0.010700,0.000600*
1,1,0.004922,-0.001100,0.010700*
1,1,0.004922,-0.010700,-0.000600*
1,1,0.004922,0.001100,-0.010700*
%
%AMD35*
4,1,8,-0.005400,0.018000,-0.018400,-0.003900,-0.017000,-0.009300,-0.000100,-0.019400,0.005400,-0.018000,0.018400,0.003900,0.017000,0.009300,0.000100,0.019400,-0.005400,0.018000,0.0*
1,1,0.007992,-0.001900,0.015900*
1,1,0.007992,-0.014900,-0.005900*
1,1,0.007992,0.001900,-0.015900*
1,1,0.007992,0.014900,0.005900*
%
%AMD36*
4,1,8,-0.012300,0.002500,-0.005200,-0.011400,-0.001900,-0.012500,0.011200,-0.005700,0.012300,-0.002500,0.005200,0.011400,0.001900,0.012500,-0.011200,0.005700,-0.012300,0.002500,0.0*
1,1,0.004922,-0.010100,0.003600*
1,1,0.004922,-0.003000,-0.010300*
1,1,0.004922,0.010100,-0.003600*
1,1,0.004922,0.003000,0.010300*
%
%AMD37*
4,1,8,-0.032000,0.013900,0.003300,-0.034700,0.009500,-0.035600,0.031000,-0.020000,0.032000,-0.013900,-0.003300,0.034700,-0.009500,0.035600,-0.031000,0.020000,-0.032000,0.013900,0.0*
1,1,0.008858,-0.028400,0.016500*
1,1,0.008858,0.006900,-0.032100*
1,1,0.008858,0.028400,-0.016500*
1,1,0.008858,-0.006900,0.032100*
%
%AMD38*
4,1,8,0.016400,0.015900,-0.021800,0.007100,-0.023300,0.004700,-0.018900,-0.014400,-0.016400,-0.015900,0.021800,-0.007100,0.023300,-0.004700,0.018900,0.014400,0.016400,0.015900,0.0*
1,1,0.004016,0.016900,0.014000*
1,1,0.004016,-0.021300,0.005100*
1,1,0.004016,-0.016900,-0.014000*
1,1,0.004016,0.021300,-0.005100*
%
%AMD39*
4,1,8,-0.012300,0.004000,-0.005800,-0.011500,-0.002700,-0.012800,0.011000,-0.007100,0.012300,-0.004000,0.005800,0.011500,0.002700,0.012800,-0.011000,0.007100,-0.012300,0.004000,0.0*
1,1,0.004922,-0.010100,0.004900*
1,1,0.004922,-0.003600,-0.010600*
1,1,0.004922,0.010100,-0.004900*
1,1,0.004922,0.003600,0.010600*
%
%AMD41*
4,1,4,0.013000,0.001800,0.000800,0.013100,-0.013000,-0.001800,-0.000800,-0.013100,0.013000,0.001800,0.0*
%
%AMD42*
4,1,4,0.009800,-0.001700,-0.002400,0.009600,-0.009800,0.001700,0.002400,-0.009600,0.009800,-0.001700,0.0*
%
%AMD43*
4,1,4,0.055800,0.015400,0.011000,0.056800,-0.055800,-0.015400,-0.011000,-0.056800,0.055800,0.015400,0.0*
%
%AMD44*
4,1,4,0.011200,-0.014900,0.017900,-0.005200,-0.011200,0.014900,-0.017900,0.005200,0.011200,-0.014900,0.0*
%
%AMD45*
4,1,8,0.012300,0.003900,-0.002000,0.012800,-0.005300,0.012000,-0.013100,-0.000600,-0.012300,-0.003900,0.002000,-0.012800,0.005300,-0.012000,0.013100,0.000600,0.012300,0.003900,0.0*
1,1,0.004922,0.011000,0.001900*
1,1,0.004922,-0.003300,0.010700*
1,1,0.004922,-0.011000,-0.001900*
1,1,0.004922,0.003300,-0.010700*
%
%AMD46*
4,1,8,0.012000,0.004900,-0.003000,0.012600,-0.006200,0.011500,-0.013000,-0.001600,-0.012000,-0.004900,0.003000,-0.012600,0.006200,-0.011500,0.013000,0.001600,0.012000,0.004900,0.0*
1,1,0.004922,0.010900,0.002700*
1,1,0.004922,-0.004100,0.010400*
1,1,0.004922,-0.010900,-0.002700*
1,1,0.004922,0.004100,-0.010400*
%
%AMD47*
4,1,8,-0.012300,-0.004000,0.002100,-0.012700,0.005400,-0.011900,0.013100,0.000700,0.012300,0.004000,-0.002100,0.012700,-0.005400,0.011900,-0.013100,-0.000700,-0.012300,-0.004000,0.0*
1,1,0.004922,-0.011000,-0.002000*
1,1,0.004922,0.003300,-0.010700*
1,1,0.004922,0.011000,0.002000*
1,1,0.004922,-0.003300,0.010700*
%
%AMD48*
4,1,8,-0.011900,-0.005000,0.003100,-0.012500,0.006300,-0.011500,0.013000,0.001800,0.011900,0.005000,-0.003100,0.012500,-0.006300,0.011500,-0.013000,-0.001800,-0.011900,-0.005000,0.0*
1,1,0.004922,-0.010800,-0.002900*
1,1,0.004922,0.004200,-0.010400*
1,1,0.004922,0.010800,0.002900*
1,1,0.004922,-0.004200,0.010400*
%
%AMD49*
4,1,8,-0.009400,-0.008900,0.007300,-0.010600,0.010000,-0.008500,0.011500,0.006200,0.009400,0.008900,-0.007300,0.010600,-0.010000,0.008500,-0.011500,-0.006200,-0.009400,-0.008900,0.0*
1,1,0.004922,-0.009100,-0.006500*
1,1,0.004922,0.007600,-0.008200*
1,1,0.004922,0.009100,0.006500*
1,1,0.004922,-0.007600,0.008200*
%
%AMD50*
4,1,4,-0.009800,0.010600,-0.014200,-0.002300,0.009800,-0.010600,0.014200,0.002300,-0.009800,0.010600,0.0*
%
%AMD51*
4,1,8,-0.012600,0.002700,-0.004600,-0.012100,-0.001300,-0.013000,0.011700,-0.005900,0.012600,-0.002700,0.004600,0.012100,0.001300,0.013000,-0.011700,0.005900,-0.012600,0.002700,0.0*
1,1,0.004922,-0.010500,0.003800*
1,1,0.004922,-0.002500,-0.010900*
1,1,0.004922,0.010500,-0.003800*
1,1,0.004922,0.002500,0.010900*
%
%AMD52*
4,1,4,-0.046400,0.012300,-0.038800,-0.028200,0.046400,-0.012300,0.038800,0.028200,-0.046400,0.012300,0.0*
%
%AMD53*
4,1,8,-0.011800,0.005200,-0.006900,-0.010900,-0.003900,-0.012500,0.010200,-0.008200,0.011800,-0.005200,0.006900,0.010900,0.003900,0.012500,-0.010200,0.008200,-0.011800,0.005200,0.0*
1,1,0.004922,-0.009500,0.005900*
1,1,0.004922,-0.004600,-0.010200*
1,1,0.004922,0.009500,-0.005900*
1,1,0.004922,0.004600,0.010200*
%
%AMD54*
4,1,8,-0.012600,0.002700,-0.004600,-0.012100,-0.001300,-0.013000,0.011700,-0.006000,0.012600,-0.002700,0.004600,0.012100,0.001300,0.013000,-0.011700,0.006000,-0.012600,0.002700,0.0*
1,1,0.004922,-0.010500,0.003900*
1,1,0.004922,-0.002500,-0.010900*
1,1,0.004922,0.010500,-0.003900*
1,1,0.004922,0.002500,0.010900*
%
%AMD55*
4,1,8,-0.012500,0.003400,-0.005200,-0.011800,-0.002000,-0.012900,0.011300,-0.006600,0.012500,-0.003400,0.005200,0.011800,0.002000,0.012900,-0.011300,0.006600,-0.012500,0.003400,0.0*
1,1,0.004922,-0.010300,0.004400*
1,1,0.004922,-0.003100,-0.010800*
1,1,0.004922,0.010300,-0.004400*
1,1,0.004922,0.003100,0.010800*
%
%AMD56*
4,1,8,-0.012500,0.000400,-0.003200,-0.012100,0.000100,-0.012600,0.012000,-0.003800,0.012500,-0.000400,0.003200,0.012100,-0.000100,0.012600,-0.012000,0.003800,-0.012500,0.000400,0.0*
1,1,0.004922,-0.010600,0.001900*
1,1,0.004922,-0.001300,-0.010700*
1,1,0.004922,0.010600,-0.001900*
1,1,0.004922,0.001300,0.010700*
%
%AMD57*
4,1,4,-0.011800,-0.018000,0.017200,-0.012900,0.011800,0.018000,-0.017200,0.012900,-0.011800,-0.018000,0.0*
%
%AMD58*
4,1,4,-0.016000,0.045200,-0.045200,0.016100,0.016000,-0.045200,0.045200,-0.016100,-0.016000,0.045200,0.0*
%
%AMD59*
4,1,8,-0.012300,0.002200,-0.004900,-0.011500,-0.001700,-0.012500,0.011400,-0.005500,0.012300,-0.002200,0.004900,0.011500,0.001700,0.012500,-0.011400,0.005500,-0.012300,0.002200,0.0*
1,1,0.004922,-0.010200,0.003400*
1,1,0.004922,-0.002800,-0.010400*
1,1,0.004922,0.010200,-0.003400*
1,1,0.004922,0.002800,0.010400*
%
%AMD60*
4,1,8,0.009000,0.009300,-0.007800,0.010300,-0.010300,0.008000,-0.011200,-0.006700,-0.009000,-0.009300,0.007800,-0.010300,0.010300,-0.008000,0.011200,0.006700,0.009000,0.009300,0.0*
1,1,0.004922,0.008800,0.006900*
1,1,0.004922,-0.007900,0.007900*
1,1,0.004922,-0.008800,-0.006900*
1,1,0.004922,0.007900,-0.007900*
%
%AMD61*
4,1,8,-0.019800,-0.003500,0.007200,-0.018800,0.011500,-0.017600,0.021000,-0.000900,0.019800,0.003500,-0.007200,0.018800,-0.011500,0.017600,-0.021000,0.000900,-0.019800,-0.003500,0.0*
1,1,0.006398,-0.018200,-0.000700*
1,1,0.006398,0.008800,-0.016000*
1,1,0.006398,0.018200,0.000700*
1,1,0.006398,-0.008800,0.016000*
%
%AMD62*
4,1,8,0.004600,-0.012100,0.012600,0.002700,0.011700,0.006000,-0.001300,0.013000,-0.004600,0.012100,-0.012600,-0.002700,-0.011700,-0.006000,0.001300,-0.013000,0.004600,-0.012100,0.0*
1,1,0.004922,0.002500,-0.010900*
1,1,0.004922,0.010500,0.003900*
1,1,0.004922,-0.002500,0.010900*
1,1,0.004922,-0.010500,-0.003900*
%
%AMD63*
4,1,8,-0.011000,-0.006100,0.003500,-0.012000,0.006600,-0.010700,0.012300,0.002900,0.011000,0.006100,-0.003500,0.012000,-0.006600,0.010700,-0.012300,-0.002900,-0.011000,-0.006100,0.0*
1,1,0.004922,-0.010000,-0.003900*
1,1,0.004922,0.004400,-0.009800*
1,1,0.004922,0.010000,0.003900*
1,1,0.004922,-0.004400,0.009800*
%
%AMD64*
4,1,8,-0.033800,-0.008500,0.023700,-0.025500,0.029200,-0.022500,0.036800,0.003000,0.033800,0.008500,-0.023700,0.025500,-0.029200,0.022500,-0.036800,-0.003000,-0.033800,-0.008500,0.0*
1,1,0.008858,-0.032500,-0.004200*
1,1,0.008858,0.025000,-0.021300*
1,1,0.008858,0.032500,0.004200*
1,1,0.008858,-0.025000,0.021300*
%
%AMD65*
4,1,8,-0.017600,-0.009800,0.012900,-0.015400,0.016600,-0.012800,0.020100,0.006000,0.017600,0.009800,-0.012900,0.015400,-0.016600,0.012800,-0.020100,-0.006000,-0.017600,-0.009800,0.0*
1,1,0.006398,-0.017000,-0.006600*
1,1,0.006398,0.013500,-0.012300*
1,1,0.006398,0.017000,0.006600*
1,1,0.006398,-0.013500,0.012300*
%
%AMD66*
4,1,8,0.012400,-0.002100,0.004800,0.011600,0.001500,0.012500,-0.011400,0.005300,-0.012400,0.002100,-0.004800,-0.011600,-0.001500,-0.012500,0.011400,-0.005300,0.012400,-0.002100,0.0*
1,1,0.004922,0.010300,-0.003200*
1,1,0.004922,0.002700,0.010400*
1,1,0.004922,-0.010300,0.003200*
1,1,0.004922,-0.002700,-0.010400*
%
%AMD67*
4,1,8,0.003000,-0.012200,0.012500,0.000200,0.012100,0.003600,0.000300,0.012600,-0.003000,0.012200,-0.012500,-0.000200,-0.012100,-0.003600,-0.000300,-0.012600,0.003000,-0.012200,0.0*
1,1,0.004922,0.001100,-0.010700*
1,1,0.004922,0.010600,0.001700*
1,1,0.004922,-0.001100,0.010700*
1,1,0.004922,-0.010600,-0.001700*
%
%AMD68*
4,1,8,-0.008600,0.008600,-0.011700,0.003500,-0.010900,0.000800,0.005900,-0.009200,0.008600,-0.008600,0.011700,-0.003500,0.010900,-0.000800,-0.005900,0.009200,-0.008600,0.008600,0.0*
1,1,0.003936,-0.006900,0.007600*
1,1,0.003936,-0.010000,0.002400*
1,1,0.003936,0.006900,-0.007600*
1,1,0.003936,0.010000,-0.002400*
%
%AMD69*
4,1,8,0.010200,0.030600,-0.022000,-0.023500,-0.020700,-0.028900,-0.015500,-0.032000,-0.010200,-0.030600,0.022000,0.023500,0.020700,0.028900,0.015500,0.032000,0.010200,0.030600,0.0*
1,1,0.007854,0.013500,0.028600*
1,1,0.007854,-0.018700,-0.025500*
1,1,0.007854,-0.013500,-0.028600*
1,1,0.007854,0.018700,0.025500*
%
%AMD70*
4,1,4,-0.014700,-0.003000,0.003000,-0.014700,0.014700,0.003000,-0.003000,0.014700,-0.014700,-0.003000,0.0*
%
%AMD71*
4,1,4,0.000900,0.012100,-0.010800,-0.005600,-0.000900,-0.012100,0.010800,0.005600,0.000900,0.012100,0.0*
%
%AMD72*
4,1,4,-0.005600,0.010800,-0.012100,0.000900,0.005600,-0.010800,0.012100,-0.000900,-0.005600,0.010800,0.0*
%
%AMD73*
4,1,4,-0.021800,-0.004400,0.004400,-0.021800,0.021800,0.004400,-0.004400,0.021800,-0.021800,-0.004400,0.0*
%
%AMD74*
4,1,4,-0.008200,-0.001700,0.001700,-0.008200,0.008200,0.001700,-0.001700,0.008200,-0.008200,-0.001700,0.0*
%
%AMD75*
4,1,8,-0.011100,0.005800,-0.008100,-0.009600,-0.005300,-0.011400,0.009200,-0.008600,0.011100,-0.005800,0.008100,0.009600,0.005300,0.011400,-0.009200,0.008600,-0.011100,0.005800,0.0*
1,1,0.004922,-0.008800,0.006200*
1,1,0.004922,-0.005700,-0.009100*
1,1,0.004922,0.008800,-0.006200*
1,1,0.004922,0.005700,0.009100*
%
%AMD76*
4,1,8,0.007800,0.009800,-0.007800,0.009800,-0.010200,0.007400,-0.010200,-0.007400,-0.007800,-0.009800,0.007800,-0.009800,0.010200,-0.007400,0.010200,0.007400,0.007800,0.009800,0.0*
1,1,0.004922,0.007800,0.007400*
1,1,0.004922,-0.007800,0.007400*
1,1,0.004922,-0.007800,-0.007400*
1,1,0.004922,0.007800,-0.007400*
%
%AMD77*
4,1,4,0.001500,0.014600,-0.011400,0.009200,-0.001500,-0.014600,0.011400,-0.009200,0.001500,0.014600,0.0*
%
%AMD78*
4,1,4,-0.001800,0.014300,-0.012900,0.006500,0.001800,-0.014300,0.012900,-0.006500,-0.001800,0.014300,0.0*
%
%AMD79*
4,1,4,0.000100,-0.014700,0.012400,-0.007900,-0.000100,0.014700,-0.012400,0.007900,0.000100,-0.014700,0.0*
%
%AMD80*
4,1,8,-0.005400,-0.011700,0.010800,-0.007100,0.012400,-0.004200,0.008400,0.010100,0.005400,0.011700,-0.010800,0.007100,-0.012400,0.004200,-0.008400,-0.010100,-0.005400,-0.011700,0.0*
1,1,0.004922,-0.006100,-0.009400*
1,1,0.004922,0.010100,-0.004800*
1,1,0.004922,0.006100,0.009400*
1,1,0.004922,-0.010100,0.004800*
%
%AMD81*
4,1,8,-0.001100,-0.012900,0.012500,-0.003000,0.013100,0.000300,0.004400,0.012300,0.001100,0.012900,-0.012500,0.003000,-0.013100,-0.000300,-0.004400,-0.012300,-0.001100,-0.012900,0.0*
1,1,0.004922,-0.002500,-0.010900*
1,1,0.004922,0.011100,-0.001100*
1,1,0.004922,0.002500,0.010900*
1,1,0.004922,-0.011100,0.001100*
%
%AMD82*
4,1,8,-0.003600,0.012000,-0.012500,-0.000800,-0.011900,-0.004100,0.000200,-0.012600,0.003600,-0.012000,0.012500,0.000800,0.011900,0.004100,-0.000200,0.012600,-0.003600,0.012000,0.0*
1,1,0.004922,-0.001600,0.010600*
1,1,0.004922,-0.010500,-0.002100*
1,1,0.004922,0.001600,-0.010600*
1,1,0.004922,0.010500,0.002100*
%
%AMD83*
4,1,8,0.006700,0.024700,-0.018500,-0.017600,-0.017200,-0.023000,-0.012000,-0.026000,-0.006700,-0.024700,0.018500,0.017600,0.017200,0.023000,0.012000,0.026000,0.006700,0.024700,0.0*
1,1,0.007854,0.010000,0.022700*
1,1,0.007854,-0.015200,-0.019600*
1,1,0.007854,-0.010000,-0.022700*
1,1,0.007854,0.015200,0.019600*
%
%AMD84*
4,1,4,0.118400,0.112600,0.043800,0.157400,-0.118400,-0.112600,-0.043800,-0.157400,0.118400,0.112600,0.0*
%
%AMD85*
4,1,4,-0.007700,-0.012900,0.011600,-0.009500,0.007700,0.012900,-0.011600,0.009500,-0.007700,-0.012900,0.0*
%
%AMD86*
4,1,8,-0.011000,-0.006100,0.003500,-0.012000,0.006600,-0.010700,0.012300,0.002900,0.011000,0.006100,-0.003500,0.012000,-0.006600,0.010700,-0.012300,-0.002900,-0.011000,-0.006100,0.0*
1,1,0.004922,-0.010000,-0.003900*
1,1,0.004922,0.004400,-0.009800*
1,1,0.004922,0.010000,0.003900*
1,1,0.004922,-0.004400,0.009800*
%
%AMD87*
4,1,8,-0.003600,-0.012000,0.010900,-0.006200,0.012200,-0.003000,0.006700,0.010700,0.003600,0.012000,-0.010900,0.006200,-0.012200,0.003000,-0.006700,-0.010700,-0.003600,-0.012000,0.0*
1,1,0.004922,-0.004500,-0.009800*
1,1,0.004922,0.010000,-0.003900*
1,1,0.004922,0.004500,0.009800*
1,1,0.004922,-0.010000,0.003900*
%
%AMD88*
4,1,8,-0.016700,-0.011200,0.014100,-0.014300,0.017600,-0.011400,0.019600,0.007700,0.016700,0.011200,-0.014100,0.014300,-0.017600,0.011400,-0.019600,-0.007700,-0.016700,-0.011200,0.0*
1,1,0.006398,-0.016400,-0.008000*
1,1,0.006398,0.014400,-0.011100*
1,1,0.006398,0.016400,0.008000*
1,1,0.006398,-0.014400,0.011100*
%
%AMD89*
4,1,4,-0.000600,0.028400,-0.028400,0.000800,0.000600,-0.028400,0.028400,-0.000800,-0.000600,0.028400,0.0*
%
%AMD90*
4,1,8,-0.001700,-0.012800,0.012400,-0.003600,0.013100,-0.000300,0.005000,0.012100,0.001700,0.012800,-0.012400,0.003600,-0.013100,0.000300,-0.005000,-0.012100,-0.001700,-0.012800,0.0*
1,1,0.004922,-0.003000,-0.010800*
1,1,0.004922,0.011100,-0.001600*
1,1,0.004922,0.003000,0.010800*
1,1,0.004922,-0.011100,0.001600*
%
%AMD91*
4,1,4,-0.023900,0.015500,-0.016600,-0.023100,0.023900,-0.015500,0.016600,0.023100,-0.023900,0.015500,0.0*
%
%AMD92*
4,1,8,-0.010900,-0.006100,0.003500,-0.012000,0.006700,-0.010700,0.012200,0.003000,0.010900,0.006100,-0.003500,0.012000,-0.006700,0.010700,-0.012200,-0.003000,-0.010900,-0.006100,0.0*
1,1,0.004922,-0.010000,-0.003900*
1,1,0.004922,0.004400,-0.009800*
1,1,0.004922,0.010000,0.003900*
1,1,0.004922,-0.004400,0.009800*
%
%AMD93*
4,1,8,-0.007700,0.009800,-0.011300,-0.005300,-0.009500,-0.008200,0.004900,-0.011600,0.007700,-0.009800,0.011300,0.005300,0.009500,0.008200,-0.004900,0.011600,-0.007700,0.009800,0.0*
1,1,0.004922,-0.005400,0.009300*
1,1,0.004922,-0.009000,-0.005900*
1,1,0.004922,0.005400,-0.009300*
1,1,0.004922,0.009000,0.005900*
%
%AMD98*
4,1,4,0.017500,0.028400,-0.028400,0.017500,-0.017500,-0.028400,0.028400,-0.017500,0.017500,0.028400,0.0*
%
%AMD99*
4,1,4,0.039800,-0.001100,-0.015300,0.036700,-0.039800,0.001100,0.015300,-0.036700,0.039800,-0.001100,0.0*
1,1,0.043307,-0.027500,0.018900*
1,1,0.043307,0.027500,-0.018900*
%
%AMD100*
4,1,4,0.009800,-0.022100,0.024200,-0.001200,-0.009800,0.022100,-0.024200,0.001200,0.009800,-0.022100,0.0*
1,1,0.041339,0.007200,0.010500*
1,1,0.041339,-0.007200,-0.010500*
%
%ADD10C,0.010000*%
%ADD11C,0.008000*%
%ADD12C,0.015000*%
%ADD13C,0.007624*%
%ADD14C,0.006000*%
%ADD15C,0.018010*%
%ADD16C,0.010000*%
%ADD17C,0.009999*%
%ADD18C,0.009999*%
%ADD19C,0.003870*%
%ADD20C,0.007324*%
%ADD21C,0.007387*%
%ADD22C,0.007387*%
%ADD23C,0.012000*%
G04~CAMADD=24~8~0.0~0.0~216.5~196.8~24.6~0.0~15~0.0~0.0~0.0~0.0~0~0.0~0.0~0.0~0.0~0~0.0~0.0~0.0~242.0~258.0~266.0*
%ADD24D24*%
G04~CAMADD=25~8~0.0~0.0~216.5~196.8~24.6~0.0~15~0.0~0.0~0.0~0.0~0~0.0~0.0~0.0~0.0~0~0.0~0.0~0.0~126.0~268.0~271.0*
%ADD25D25*%
G04~CAMADD=26~8~0.0~0.0~216.5~196.8~24.6~0.0~15~0.0~0.0~0.0~0.0~0~0.0~0.0~0.0~0.0~0~0.0~0.0~0.0~306.3~268.0~271.0*
%ADD26D26*%
G04~CAMADD=27~8~0.0~0.0~216.5~196.8~24.6~0.0~15~0.0~0.0~0.0~0.0~0~0.0~0.0~0.0~0.0~0~0.0~0.0~0.0~301.5~262.0~269.0*
%ADD27D27*%
G04~CAMADD=28~8~0.0~0.0~216.5~196.8~24.6~0.0~15~0.0~0.0~0.0~0.0~0~0.0~0.0~0.0~0.0~0~0.0~0.0~0.0~261.7~220.0~236.0*
%ADD28D28*%
G04~CAMADD=29~8~0.0~0.0~216.5~196.8~24.6~0.0~15~0.0~0.0~0.0~0.0~0~0.0~0.0~0.0~0.0~0~0.0~0.0~0.0~268.5~200.0~220.0*
%ADD29D29*%
G04~CAMADD=30~8~0.0~0.0~204.7~196.8~24.6~0.0~15~0.0~0.0~0.0~0.0~0~0.0~0.0~0.0~0.0~0~0.0~0.0~0.0~161.9~242.0~239.0*
%ADD30D30*%
G04~CAMADD=31~8~0.0~0.0~204.7~196.8~24.6~0.0~15~0.0~0.0~0.0~0.0~0~0.0~0.0~0.0~0.0~0~0.0~0.0~0.0~157.5~250.0~246.0*
%ADD31D31*%
G04~CAMADD=32~8~0.0~0.0~236.2~98.4~19.7~0.0~15~0.0~0.0~0.0~0.0~0~0.0~0.0~0.0~0.0~0~0.0~0.0~0.0~59.2~190.0~238.0*
%ADD32D32*%
G04~CAMADD=33~8~0.0~0.0~689.0~354.3~44.3~0.0~15~0.0~0.0~0.0~0.0~0~0.0~0.0~0.0~0.0~0~0.0~0.0~0.0~134.0~698.0~705.0*
%ADD33D33*%
G04~CAMADD=34~8~0.0~0.0~204.7~196.8~24.6~0.0~15~0.0~0.0~0.0~0.0~0~0.0~0.0~0.0~0.0~0~0.0~0.0~0.0~319.5~264.0~263.0*
%ADD34D34*%
G04~CAMADD=35~8~0.0~0.0~334.6~275.6~40.0~0.0~15~0.0~0.0~0.0~0.0~0~0.0~0.0~0.0~0.0~0~0.0~0.0~0.0~59.2~377.0~398.0*
%ADD35D35*%
G04~CAMADD=36~8~0.0~0.0~204.7~196.8~24.6~0.0~15~0.0~0.0~0.0~0.0~0~0.0~0.0~0.0~0.0~0~0.0~0.0~0.0~117.1~252.0~256.0*
%ADD36D36*%
G04~CAMADD=37~8~0.0~0.0~689.0~354.3~44.3~0.0~15~0.0~0.0~0.0~0.0~0~0.0~0.0~0.0~0.0~0~0.0~0.0~0.0~126.0~656.0~730.0*
%ADD37D37*%
G04~CAMADD=38~8~0.0~0.0~433.1~236.2~20.1~0.0~15~0.0~0.0~0.0~0.0~0~0.0~0.0~0.0~0.0~0~0.0~0.0~0.0~13.0~466.0~320.0*
%ADD38D38*%
G04~CAMADD=39~8~0.0~0.0~216.5~196.8~24.6~0.0~15~0.0~0.0~0.0~0.0~0~0.0~0.0~0.0~0.0~0~0.0~0.0~0.0~112.5~250.0~260.0*
%ADD39D39*%
%ADD40C,0.031496*%
G04~CAMADD=41~9~0.0~0.0~167.3~202.8~0.0~0.0~0~0.0~0.0~0.0~0.0~0~0.0~0.0~0.0~0.0~0~0.0~0.0~0.0~317.2~260.0~261.0*
%ADD41D41*%
G04~CAMADD=42~9~0.0~0.0~167.3~108.3~0.0~0.0~0~0.0~0.0~0.0~0.0~0~0.0~0.0~0.0~0.0~0~0.0~0.0~0.0~317.2~196.0~191.0*
%ADD42D42*%
G04~CAMADD=43~9~0.0~0.0~610.2~984.3~0.0~0.0~0~0.0~0.0~0.0~0.0~0~0.0~0.0~0.0~0.0~0~0.0~0.0~0.0~317.2~1116.0~1135.0*
%ADD43D43*%
G04~CAMADD=44~9~0.0~0.0~118.1~354.3~0.0~0.0~0~0.0~0.0~0.0~0.0~0~0.0~0.0~0.0~0.0~0~0.0~0.0~0.0~235.5~358.0~297.0*
%ADD44D44*%
G04~CAMADD=45~8~0.0~0.0~216.5~196.8~24.6~0.0~15~0.0~0.0~0.0~0.0~0~0.0~0.0~0.0~0.0~0~0.0~0.0~0.0~328.3~270.0~263.0*
%ADD45D45*%
G04~CAMADD=46~8~0.0~0.0~216.5~196.8~24.6~0.0~15~0.0~0.0~0.0~0.0~0~0.0~0.0~0.0~0.0~0~0.0~0.0~0.0~332.7~266.0~257.0*
%ADD46D46*%
G04~CAMADD=47~8~0.0~0.0~216.5~196.8~24.6~0.0~15~0.0~0.0~0.0~0.0~0~0.0~0.0~0.0~0.0~0~0.0~0.0~0.0~148.7~270.0~262.0*
%ADD47D47*%
G04~CAMADD=48~8~0.0~0.0~216.5~196.8~24.6~0.0~15~0.0~0.0~0.0~0.0~0~0.0~0.0~0.0~0.0~0~0.0~0.0~0.0~153.4~266.0~256.0*
%ADD48D48*%
G04~CAMADD=49~8~0.0~0.0~216.5~196.8~24.6~0.0~15~0.0~0.0~0.0~0.0~0~0.0~0.0~0.0~0.0~0~0.0~0.0~0.0~174.0~232.0~212.0*
%ADD49D49*%
G04~CAMADD=50~9~0.0~0.0~137.8~255.9~0.0~0.0~0~0.0~0.0~0.0~0.0~0~0.0~0.0~0.0~0.0~0~0.0~0.0~0.0~71.0~284.0~211.0*
%ADD50D50*%
G04~CAMADD=51~8~0.0~0.0~216.5~196.8~24.6~0.0~15~0.0~0.0~0.0~0.0~0~0.0~0.0~0.0~0.0~0~0.0~0.0~0.0~118.6~260.0~266.0*
%ADD51D51*%
G04~CAMADD=52~9~0.0~0.0~413.4~866.1~0.0~0.0~0~0.0~0.0~0.0~0.0~0~0.0~0.0~0.0~0.0~0~0.0~0.0~0.0~100.6~928.0~563.0*
%ADD52D52*%
G04~CAMADD=53~8~0.0~0.0~216.5~196.8~24.6~0.0~15~0.0~0.0~0.0~0.0~0~0.0~0.0~0.0~0.0~0~0.0~0.0~0.0~107.0~240.0~251.0*
%ADD53D53*%
G04~CAMADD=54~8~0.0~0.0~216.5~196.8~24.6~0.0~15~0.0~0.0~0.0~0.0~0~0.0~0.0~0.0~0.0~0~0.0~0.0~0.0~118.5~260.0~266.0*
%ADD54D54*%
G04~CAMADD=55~8~0.0~0.0~216.5~196.8~24.6~0.0~15~0.0~0.0~0.0~0.0~0~0.0~0.0~0.0~0.0~0~0.0~0.0~0.0~115.5~256.0~263.0*
%ADD55D55*%
G04~CAMADD=56~8~0.0~0.0~204.7~196.8~24.6~0.0~15~0.0~0.0~0.0~0.0~0~0.0~0.0~0.0~0.0~0~0.0~0.0~0.0~126.5~260.0~263.0*
%ADD56D56*%
G04~CAMADD=57~9~0.0~0.0~295.3~315.0~0.0~0.0~0~0.0~0.0~0.0~0.0~0~0.0~0.0~0.0~0.0~0~0.0~0.0~0.0~190.0~344.0~359.0*
%ADD57D57*%
G04~CAMADD=58~9~0.0~0.0~413.4~866.1~0.0~0.0~0~0.0~0.0~0.0~0.0~0~0.0~0.0~0.0~0.0~0~0.0~0.0~0.0~44.9~904.0~903.0*
%ADD58D58*%
G04~CAMADD=59~8~0.0~0.0~204.7~196.8~24.6~0.0~15~0.0~0.0~0.0~0.0~0~0.0~0.0~0.0~0.0~0~0.0~0.0~0.0~118.3~254.0~256.0*
%ADD59D59*%
G04~CAMADD=60~8~0.0~0.0~216.5~196.8~24.6~0.0~15~0.0~0.0~0.0~0.0~0~0.0~0.0~0.0~0.0~0~0.0~0.0~0.0~356.5~226.0~206.0*
%ADD60D60*%
G04~CAMADD=61~8~0.0~0.0~374.0~255.9~32.0~0.0~15~0.0~0.0~0.0~0.0~0~0.0~0.0~0.0~0.0~0~0.0~0.0~0.0~150.5~428.0~384.0*
%ADD61D61*%
G04~CAMADD=62~8~0.0~0.0~216.5~196.8~24.6~0.0~15~0.0~0.0~0.0~0.0~0~0.0~0.0~0.0~0.0~0~0.0~0.0~0.0~241.5~259.0~267.0*
%ADD62D62*%
G04~CAMADD=63~8~0.0~0.0~204.7~196.8~24.6~0.0~15~0.0~0.0~0.0~0.0~0~0.0~0.0~0.0~0.0~0~0.0~0.0~0.0~157.5~250.0~246.0*
%ADD63D63*%
G04~CAMADD=64~8~0.0~0.0~689.0~354.3~44.3~0.0~15~0.0~0.0~0.0~0.0~0~0.0~0.0~0.0~0.0~0~0.0~0.0~0.0~163.5~740.0~514.0*
%ADD64D64*%
G04~CAMADD=65~8~0.0~0.0~374.0~255.9~32.0~0.0~15~0.0~0.0~0.0~0.0~0~0.0~0.0~0.0~0.0~0~0.0~0.0~0.0~169.5~404.0~309.0*
%ADD65D65*%
G04~CAMADD=66~8~0.0~0.0~204.7~196.8~24.6~0.0~15~0.0~0.0~0.0~0.0~0~0.0~0.0~0.0~0.0~0~0.0~0.0~0.0~299.0~254.0~257.0*
%ADD66D66*%
G04~CAMADD=67~8~0.0~0.0~204.7~196.8~24.6~0.0~15~0.0~0.0~0.0~0.0~0~0.0~0.0~0.0~0.0~0~0.0~0.0~0.0~232.5~262.0~262.0*
%ADD67D67*%
G04~CAMADD=68~8~0.0~0.0~98.4~236.2~19.7~0.0~15~0.0~0.0~0.0~0.0~0~0.0~0.0~0.0~0.0~0~0.0~0.0~0.0~59.2~238.0~190.0*
%ADD68D68*%
G04~CAMADD=69~8~0.0~0.0~708.7~137.8~39.3~0.0~15~0.0~0.0~0.0~0.0~0~0.0~0.0~0.0~0.0~0~0.0~0.0~0.0~59.2~453.0~650.0*
%ADD69D69*%
G04~CAMADD=70~10~0.0~212.6~0.0~0.0~0.0~0.0~0~0.0~0.0~0.0~0.0~0~0.0~0.0~0.0~0.0~0~0.0~0.0~0.0~146.5~212.6~0.0*
%ADD70D70*%
G04~CAMADD=71~9~0.0~0.0~212.6~118.1~0.0~0.0~0~0.0~0.0~0.0~0.0~0~0.0~0.0~0.0~0.0~0~0.0~0.0~0.0~56.5~216.0~241.0*
%ADD71D71*%
G04~CAMADD=72~9~0.0~0.0~118.1~212.6~0.0~0.0~0~0.0~0.0~0.0~0.0~0~0.0~0.0~0.0~0.0~0~0.0~0.0~0.0~56.5~242.0~215.0*
%ADD72D72*%
G04~CAMADD=73~10~0.0~315.0~0.0~0.0~0.0~0.0~0~0.0~0.0~0.0~0.0~0~0.0~0.0~0.0~0.0~0~0.0~0.0~0.0~146.5~315.0~0.0*
%ADD73D73*%
G04~CAMADD=74~10~0.0~118.1~0.0~0.0~0.0~0.0~0~0.0~0.0~0.0~0.0~0~0.0~0.0~0.0~0.0~0~0.0~0.0~0.0~146.5~118.1~0.0*
%ADD74D74*%
G04~CAMADD=75~8~0.0~0.0~204.7~196.8~24.6~0.0~15~0.0~0.0~0.0~0.0~0~0.0~0.0~0.0~0.0~0~0.0~0.0~0.0~101.2~224.0~230.0*
%ADD75D75*%
G04~CAMADD=76~8~0.0~0.0~204.7~196.8~24.6~0.0~15~0.0~0.0~0.0~0.0~0~0.0~0.0~0.0~0.0~0~0.0~0.0~0.0~360.0~204.0~197.0*
%ADD76D76*%
G04~CAMADD=77~9~0.0~0.0~141.7~259.8~0.0~0.0~0~0.0~0.0~0.0~0.0~0~0.0~0.0~0.0~0.0~0~0.0~0.0~0.0~22.6~228.0~291.0*
%ADD77D77*%
G04~CAMADD=78~9~0.0~0.0~137.8~255.9~0.0~0.0~0~0.0~0.0~0.0~0.0~0~0.0~0.0~0.0~0.0~0~0.0~0.0~0.0~35.2~258.0~285.0*
%ADD78D78*%
G04~CAMADD=79~9~0.0~0.0~141.7~259.8~0.0~0.0~0~0.0~0.0~0.0~0.0~0~0.0~0.0~0.0~0.0~0~0.0~0.0~0.0~208.9~248.0~293.0*
%ADD79D79*%
G04~CAMADD=80~8~0.0~0.0~216.5~196.8~24.6~0.0~15~0.0~0.0~0.0~0.0~0~0.0~0.0~0.0~0.0~0~0.0~0.0~0.0~195.9~249.0~236.0*
%ADD80D80*%
G04~CAMADD=81~8~0.0~0.0~216.5~196.8~24.6~0.0~15~0.0~0.0~0.0~0.0~0~0.0~0.0~0.0~0.0~0~0.0~0.0~0.0~215.8~271.0~267.0*
%ADD81D81*%
G04~CAMADD=82~8~0.0~0.0~204.7~196.8~24.6~0.0~15~0.0~0.0~0.0~0.0~0~0.0~0.0~0.0~0.0~0~0.0~0.0~0.0~55.0~261.0~262.0*
%ADD82D82*%
G04~CAMADD=83~8~0.0~0.0~570.9~137.8~39.3~0.0~15~0.0~0.0~0.0~0.0~0~0.0~0.0~0.0~0.0~0~0.0~0.0~0.0~59.2~382.0~531.0*
%ADD83D83*%
G04~CAMADD=84~9~0.0~0.0~870.0~3150.0~0.0~0.0~0~0.0~0.0~0.0~0.0~0~0.0~0.0~0.0~0.0~0~0.0~0.0~0.0~329.0~2368.0~3147.0*
%ADD84D84*%
G04~CAMADD=85~9~0.0~0.0~196.8~228.3~0.0~0.0~0~0.0~0.0~0.0~0.0~0~0.0~0.0~0.0~0.0~0~0.0~0.0~0.0~190.0~232.0~257.0*
%ADD85D85*%
G04~CAMADD=86~8~0.0~0.0~204.7~196.8~24.6~0.0~15~0.0~0.0~0.0~0.0~0~0.0~0.0~0.0~0.0~0~0.0~0.0~0.0~157.5~250.0~246.0*
%ADD86D86*%
G04~CAMADD=87~8~0.0~0.0~204.7~196.8~24.6~0.0~15~0.0~0.0~0.0~0.0~0~0.0~0.0~0.0~0.0~0~0.0~0.0~0.0~202.0~250.0~244.0*
%ADD87D87*%
G04~CAMADD=88~8~0.0~0.0~374.0~255.9~32.0~0.0~15~0.0~0.0~0.0~0.0~0~0.0~0.0~0.0~0.0~0~0.0~0.0~0.0~174.2~392.0~287.0*
%ADD88D88*%
G04~CAMADD=89~9~0.0~0.0~393.7~413.4~0.0~0.0~0~0.0~0.0~0.0~0.0~0~0.0~0.0~0.0~0.0~0~0.0~0.0~0.0~44.9~568.0~567.0*
%ADD89D89*%
G04~CAMADD=90~8~0.0~0.0~216.5~196.8~24.6~0.0~15~0.0~0.0~0.0~0.0~0~0.0~0.0~0.0~0.0~0~0.0~0.0~0.0~213.0~269.0~264.0*
%ADD90D90*%
G04~CAMADD=91~9~0.0~0.0~393.7~413.4~0.0~0.0~0~0.0~0.0~0.0~0.0~0~0.0~0.0~0.0~0.0~0~0.0~0.0~0.0~100.6~478.0~461.0*
%ADD91D91*%
G04~CAMADD=92~8~0.0~0.0~204.7~196.8~24.6~0.0~15~0.0~0.0~0.0~0.0~0~0.0~0.0~0.0~0.0~0~0.0~0.0~0.0~157.8~250.0~245.0*
%ADD92D92*%
G04~CAMADD=93~8~0.0~0.0~204.7~196.8~24.6~0.0~15~0.0~0.0~0.0~0.0~0~0.0~0.0~0.0~0.0~0~0.0~0.0~0.0~76.7~229.0~234.0*
%ADD93D93*%
%ADD94C,0.018020*%
%ADD95C,0.002880*%
%ADD96C,0.004639*%
%ADD97C,0.047244*%
G04~CAMADD=98~10~0.0~472.4~0.0~0.0~0.0~0.0~0~0.0~0.0~0.0~0.0~0~0.0~0.0~0.0~0.0~0~0.0~0.0~0.0~373.3~472.4~0.0*
%ADD98D98*%
G04~CAMADD=99~3~0.0~0.0~1102.4~433.1~0.0~0.0~0~0.0~0.0~0.0~0.0~0~0.0~0.0~0.0~0.0~0~0.0~0.0~0.0~325.5~982.0~808.0*
%ADD99D99*%
G04~CAMADD=100~3~0.0~0.0~669.3~413.4~0.0~0.0~0~0.0~0.0~0.0~0.0~0~0.0~0.0~0.0~0.0~0~0.0~0.0~0.0~235.5~556.0~622.0*
%ADD100D100*%
%ADD101C,0.033465*%
%ADD102C,0.016000*%
%ADD103C,0.024000*%
%LNflagmate_copper_signal_top-1*%
%LPD*%
%SRX1Y1I0J0*%
G36*
X0007622Y00773878D02*
X00126672Y00767236D01*
X00176579Y00757309*
X00225732Y00744138*
X00273918Y00727782*
X00320931Y00708308*
X00366569Y00685802*
X00410637Y00660359*
X00452947Y00632088*
X00493319Y0060111*
X00531577Y00567559*
X00567559Y00531577*
X0060111Y00493319*
X00632088Y00452947*
X00660359Y00410636*
X00685802Y00366568*
X00708308Y00320931*
X00727782Y00273918*
X00744138Y00225732*
X00757309Y00176579*
X00767236Y00126671*
X00773878Y0007622*
X00777206Y00025442*
Y0*
Y-00025443*
X00773878Y-0007622*
X00767236Y-00126672*
X00757309Y-00176579*
X00744138Y-00225732*
X00727782Y-00273918*
X00708308Y-00320931*
X00685802Y-00366569*
X00660359Y-00410637*
X00632088Y-00452947*
X0060111Y-00493319*
X00567559Y-00531577*
X00531577Y-00567559*
X00493319Y-0060111*
X00452947Y-00632088*
X00410636Y-00660359*
X00366568Y-00685802*
X00320931Y-00708308*
X00273918Y-00727782*
X00225732Y-00744138*
X00176579Y-00757309*
X00126671Y-00767236*
X0007622Y-00773878*
X00025442Y-00777206*
X-00025443*
X-0007622Y-00773878*
X-00126672Y-00767236*
X-00176579Y-00757309*
X-00225732Y-00744139*
X-00273918Y-00727782*
X-00320931Y-00708308*
X-00366569Y-00685802*
X-00410637Y-00660359*
X-00452947Y-00632088*
X-00493319Y-0060111*
X-00531577Y-00567559*
X-00567559Y-00531577*
X-0060111Y-00493319*
X-00632088Y-00452947*
X-00660359Y-00410637*
X-00685802Y-00366568*
X-00708308Y-00320931*
X-00727782Y-00273918*
X-00744138Y-00225732*
X-00757309Y-00176579*
X-00767236Y-00126671*
X-00773878Y-0007622*
X-00777206Y-00025443*
Y0*
Y00025443*
X-00773878Y0007622*
X-00767236Y00126672*
X-00757309Y00176579*
X-00744139Y00225732*
X-00727782Y00273918*
X-00708308Y00320931*
X-00685802Y00366569*
X-00660359Y00410637*
X-00632088Y00452947*
X-0060111Y00493319*
X-00567559Y00531577*
X-00531577Y00567559*
X-00493319Y0060111*
X-00452947Y00632088*
X-00410637Y00660359*
X-00366568Y00685802*
X-00320931Y00708308*
X-00273918Y00727782*
X-00225732Y00744138*
X-00176579Y00757309*
X-00126671Y00767236*
X-0007622Y00773878*
X-00025443Y00777206*
X00025443*
X0007622Y00773878*
G37*
%LNflagmate_copper_signal_top-2*%
%LPC*%
%SRX1Y1I0J0*%
G36*
X00219468Y00564082D02*
X00213898D01*
X00208753Y00561951*
X00204815Y00558013*
X00202683Y00552867*
Y00547298*
X00204187Y00543667*
X00204067Y00540601*
X00202401Y00539495*
X00192739Y00543117*
X00192881Y00544287*
X00191974Y00547529*
X00189896Y00550177*
X00186963Y00551827*
X00172183Y00556665*
X00168841Y00557068*
X001656Y00556161*
X00162952Y00554083*
X00161301Y0055115*
X00156709Y00537119*
X00156306Y00533777*
X00157213Y00530535*
X00159291Y00527888*
X00162224Y00526237*
X00177003Y00521399*
X00180345Y00520996*
X00183587Y00521903*
X00186059Y00523844*
X00197024Y00519733*
X0019767Y00516489*
X00197951Y00516068*
X00197186Y0051422*
X00196689Y00514121*
X00193891Y0051225*
X00192021Y00509451*
X00186375Y0049581*
X00185719Y00492509*
X00186377Y00489207*
X00188247Y00486409*
X00191047Y0048454*
X00205416Y00478593*
X00208717Y00477937*
X00212018Y00478594*
X00214816Y00480465*
X00215808Y0048195*
X00222749Y00479712*
X0022284Y00478906*
X0022447Y00475961*
X00227102Y00473864*
X00241972Y00466193*
X00245207Y00465263*
X00248552Y00465641*
X00249786Y00466325*
X00261249Y0045956*
X00261189Y00459399*
X00261312Y00456035*
X00262713Y00452975*
X00265178Y00450683*
X00274212Y00445113*
X00276505Y00436807*
X00276138Y00436352*
X00273402Y00436147*
X00272496Y00436977*
X00258192Y00445658*
X0025503Y00446809*
X00251667Y00446663*
X00248616Y0044524*
X00247789Y00444338*
X00241745Y00447654*
X00242043Y00448738*
X00241624Y00452078*
X00239959Y00455003*
X00237301Y00457068*
X00222341Y00464561*
X00219095Y00465452*
X00215755Y00465034*
X0021283Y00463369*
X00211339Y00461451*
X00204423Y00463959*
X0020378Y004671*
X00201894Y00469888*
X00199085Y00471742*
X00184684Y00477612*
X00181379Y0047825*
X00178082Y00477575*
X00175294Y00475689*
X0017344Y0047288*
X00167867Y00459208*
X00167229Y00455903*
X00167904Y00452606*
X00168189Y00452184*
X00167434Y00450332*
X00166936Y0045023*
X00164148Y00448344*
X00164052Y00448199*
X00156059Y00451042*
X00155939Y00451333*
X00152001Y00455271*
X00146855Y00457402*
X00141285*
X0013614Y00455271*
X00132202Y00451333*
X0013007Y00446187*
Y00440618*
X00132202Y00435472*
X0013614Y00431534*
X00141285Y00429402*
X00146855*
X00148291Y00429997*
X00156378Y0042712*
X00156758Y00425261*
X00158644Y00422473*
X00161453Y00420619*
X00175854Y00414749*
X00179159Y00414111*
X00182456Y00414786*
X00185244Y00416672*
X00187098Y00419481*
X00192671Y00433153*
X00193309Y00436457*
X00192634Y00439755*
X00192349Y00440177*
X00193104Y00442029*
X00193602Y00442131*
X0019639Y00444017*
X0019701Y00444956*
X00203469Y00442613*
X00203681Y00440925*
X00205346Y00438*
X00208003Y00435934*
X00222964Y00428442*
X0022621Y0042755*
X00229549Y00427969*
X00232338Y00429556*
X00237543Y004267*
X00237677Y00423612*
X002391Y00420562*
X00241581Y00418288*
X00250298Y00412997*
X0025165Y00401564*
X00251659Y00399551*
X00251476Y0039863*
X00251453Y00397696*
X00247688Y00387529*
X00246964Y00385664*
X00245705Y00379335*
X00246821Y00373727*
X00247102Y00372312*
X00247396Y00371871*
X00247654Y00371445*
X00247749Y00371234*
X00247968Y00370925*
X002484Y00370209*
X00248648Y00369631*
X00251697Y00365192*
X00248837Y00362098*
X00269934Y00342592*
X0028543Y00359353*
Y00359354*
X00298793Y00373808*
X00290521Y00381456*
X0029039Y00382118*
X0029022Y00383662*
X00290004Y00384055*
X00289917Y00384495*
X00289053Y00385788*
X00288306Y00387149*
X00287956Y0038743*
X00287706Y00387803*
X00286414Y00388666*
X00286245Y00388803*
X00285955Y00389721*
X00285762Y00390073*
X00285151Y00391871*
X00285212Y00392019*
X00285149Y0039217*
X00285748Y00393972*
X00285939Y00394325*
X0029282Y00416677*
X00296739Y00429408*
X00296848Y00430475*
X00297701Y00434761*
X00296989Y00438339*
X00296906Y00439536*
X00296899Y00439563*
X00296889Y00439582*
X00296888Y00439603*
X00294182Y00449405*
X0029904Y00457284*
X00300213Y00460438*
X0030009Y00463802*
X0029869Y00466862*
X00296224Y00469154*
X00281982Y00477936*
X00278827Y00479109*
X00275464Y00478986*
X00272403Y00477586*
X00271844Y00476985*
X00260543Y00483654*
X00261293Y00486259*
X00260914Y00489604*
X00259284Y00492549*
X00256651Y00494646*
X00241781Y00502317*
X00238546Y00503247*
X00235202Y00502869*
X00232257Y00501239*
X00230249Y00498719*
X00222806Y00501119*
X0022233Y00503508*
X00222049Y00503929*
X00222814Y00505777*
X00223311Y00505876*
X0022611Y00507747*
X00227979Y00510546*
X00233625Y00524187*
X00234281Y00527488*
X00233623Y00530789*
X00231753Y00533588*
X00228953Y00535457*
X00228364Y00535701*
X00228624Y00542326*
X00230683Y00547298*
Y00552867*
X00228552Y00558013*
X00224614Y00561951*
X00219468Y00564082*
G37*
G36*
X-00334192Y00594483D02*
X-00337398Y00593457D01*
X-00350311Y00586299*
X-0035288Y00584125*
X-00354421Y00581132*
X-003547Y00577778*
X-00353673Y00574572*
X-00346134Y00560971*
X-00343959Y00558402*
X-0034268Y00557743*
X-00340711Y00550515*
X-00342858Y005492*
X-00343134Y00548944*
X-00343482Y00548802*
X-00370894Y00530658*
X-00371294Y00530262*
X-00371803Y00530022*
X-00398105Y00510559*
X-00398578Y00510038*
X-00399193Y00509697*
X-00436651Y00477987*
X-00436738Y00477913*
X-00437758Y00477137*
X-00438171Y00476861*
X-00438224Y00476782*
X-00438098Y00476657*
X-0048037Y00434014*
X-00480496Y00434139*
X-00481543Y00432572*
X-00481964Y00432212*
X-00532306Y00368354*
X-00532885Y00367216*
X-00535278Y00363636*
X-00535173Y0036351*
X-00542283Y00346763*
X-00542429Y00346826*
X-00542536Y00346667*
X-00542883Y00344921*
X-00544165Y00338473*
X-00542535Y00330279*
X-00537894Y00323332*
X-00534842Y00321293*
X-00533898Y0032042*
X-00520824Y00312371*
X-00520784Y00312356*
X-00520753Y00312328*
X-0051934Y00311473*
X-00518919Y00309517*
X-00526415Y00298611*
X-00539902Y00278988*
X-00539901Y00278987*
X-00551049Y00262767*
X-0051536Y00238239*
X-00520938Y00230123*
X-00481847Y00203257*
X-0047194Y00217673*
X-00469745Y00217334*
X-0045547Y00170559*
X-00455006Y00169995*
X-00454918Y00169269*
X-00388122Y00050567*
X-00386355Y00049179*
X-00384702Y00047656*
X-00370285Y00042358*
X-00369539Y00042389*
X-00368893Y00042015*
X-00340562Y00038285*
X-00341649Y00027002*
X-00341618Y000269*
X-00341665Y00026804*
X-00342241Y00018021*
X-00342216Y00017949*
X-00342248Y0001788*
X-00342504Y00012017*
X-00342468Y00011917*
X-0034251Y00011819*
X-00342702Y-00002849*
X-00342651Y-00002976*
X-003427Y-00003104*
X-00342393Y-00014836*
X-0034235Y-00014933*
X-00342385Y-00015034*
X-00342275Y-00016969*
X-00344201Y-00017509*
X-00347642Y-0001107*
X-00358101Y00001673*
X-00359649Y00002953*
X-00430891Y00074196*
X-00430801Y00074286*
X-00444086Y00085633*
X-00458983Y00094762*
X-00475125Y00101448*
X-00492114Y00105527*
X-00509532Y00106897*
Y0010677*
X-00629814*
X-00631237Y00109454*
X-00634058Y00111785*
X-00637556Y00112859*
X-006684Y00116004*
X-00672043Y00115658*
X-00675277Y00113944*
X-00677608Y00111124*
X-00678682Y00107625*
X-00680629Y00088531*
X-00680283Y00084888*
X-00678569Y00081655*
X-00675748Y00079323*
X-0067225Y00078249*
X-00641406Y00075104*
X-00637763Y0007545*
X-00634529Y00077164*
X-00632198Y00079985*
X-00631124Y00083483*
X-00631037Y00084339*
X-00509532*
X-00509049Y00084435*
X-00492183Y00082774*
X-00475501Y00077713*
X-00460126Y00069495*
X-00455139Y00065402*
X-00455579Y00063451*
X-00459353Y0006251*
X-00459445Y00062443*
X-00459557Y00062456*
X-00480359Y00056549*
X-00480447Y00056479*
X-0048056Y00056488*
X-00481911Y00056057*
X-00482303Y00055726*
X-00486006Y00059429*
X-00491152Y00061561*
X-00496721*
X-00501867Y00059429*
X-00505805Y00055491*
X-00507937Y00050346*
Y00047915*
X-0050861Y00047276*
X-00522124Y00042479*
X-00522207Y00042404*
X-00522318Y00042406*
X-00542846Y00034373*
X-00542926Y00034296*
X-00543037Y00034295*
X-00563436Y00025556*
X-00563513Y00025477*
X-00563623Y00025472*
X-00583877Y0001603*
X-00584374Y00015487*
X-00585085Y00015297*
X-00605151Y-00000093*
X-00605462Y-00000632*
X-00606023Y-000009*
X-00620671Y-00017159*
X-00620723Y-00017306*
X-0062086Y-00017379*
X-00639686Y-00040254*
X-00639848Y-00040786*
X-0064029Y-00041124*
X-00657622Y-0007103*
X-00657784Y-00072247*
X-00658421Y-00073297*
X-00661155Y-00091028*
X-00660926Y-00091963*
X-00661171Y-00092893*
X-00660393Y-00098611*
X-00660332Y-00098716*
X-00660359Y-00098835*
X-00655473Y-00127267*
X-00655392Y-00127395*
X-00655419Y-00127545*
X-00649298Y-00155737*
X-00649211Y-00155862*
X-00649232Y-00156012*
X-00641887Y-00183911*
X-00641804Y-0018402*
X-00641817Y-00184156*
X-00635069Y-00206227*
X-00635001Y-0020631*
X-00635008Y-00206416*
X-00629631Y-00222255*
X-0066921Y-00236661*
X-00669232Y-00236682*
X-00669263Y-00236681*
X-00671061Y-00238358*
X-00672874Y-00240019*
X-00672876Y-0024005*
X-00672898Y-00240071*
X-00673727Y-00241891*
X-00673729Y-00241921*
X-00673751Y-00241942*
X-00673815Y-00244395*
X-00673901Y-00246858*
X-0067388Y-00246881*
X-00673881Y-00246911*
X-00665496Y-00268755*
X-00665412Y-00268844*
X-00665411Y-00268966*
X-00655711Y-00291817*
X-00655592Y-00291934*
X-00655582Y-00292101*
X-00650944Y-00301718*
X-00651607Y-00303604*
X-00656994Y-00306174*
X-00656999Y-0030618*
X-00657006*
X-0065865Y-00308015*
X-00660319Y-00309869*
Y-00309876*
X-00660324Y-00309882*
X-00660987Y-00311769*
Y-00311776*
X-00660992Y-00311782*
X-00660852Y-00314246*
X-00660736Y-00316361*
X-00661365Y-00317406*
X-00662203Y-00318253*
X-00662337Y-00318243*
X-00665291Y-00312322*
X-00665889Y-00310489*
X-00665912Y-00310433*
X-00666948Y-00308811*
X-00675792Y-00288947*
X-00676305Y-00287096*
X-0067632Y-0028706*
X-00677295Y-00285406*
X-00685472Y-00265166*
X-00685919Y-00263299*
X-00685935Y-00263262*
X-0068686Y-00261574*
X-00687572Y-00259646*
X-00692184Y-00247143*
X-0069257Y-00245268*
X-0069258Y-00245244*
X-00693459Y-00243543*
X-00699065Y-00227029*
X-00699081Y-00227001*
X-00699085Y-00226969*
X-00699096Y-0022694*
X-00699116Y-00226905*
X-00699121Y-00226864*
X-00705444Y-0020873*
X-0071421Y-00173537*
X-00714367Y-00171631*
X-00714383Y-00171594*
X-00715071Y-00169807*
X-00722304Y-00135779*
X-00722382Y-00133866*
X-00722404Y-00133812*
X-00723022Y-00131996*
X-00726615Y-00110525*
X-00726593Y-00108618*
X-00726613Y-0010857*
X-0072718Y-00106746*
X-00730031Y-00085091*
X-00729927Y-00083192*
X-00729945Y-00083147*
X-00730461Y-00081313*
X-00732492Y-00060221*
X-00726282Y-00046088*
X-00725238Y-00044437*
X-00725113Y-00044136*
X-00725179Y-00043892*
X-00724562Y-00042948*
X-00714918Y-00029637*
X-00713922Y-00028262*
X-00713069Y-00027421*
X-00712415Y-00026844*
X-00711394Y-00025478*
X-00711266Y-00025323*
X-0070975Y-00024018*
X-00701181Y-00016645*
X-00699509Y-00015579*
X-00699273Y-00015481*
X-00697774Y-00014171*
X-00683051Y-00005225*
X-00681254Y-00004438*
X-00680998Y-00004332*
X-00679276Y-00003381*
X-00677624Y-00002753*
X-00669412Y00000365*
X-00669325Y00000303*
Y00000302*
X-00668751Y00000416*
X-0066761Y0000118*
X-00661805Y00005058*
X-0066115Y00006039*
X-00661139Y00006046*
X-00658924Y00008521*
X-00657408Y00009642*
X-006574Y00009662*
X-00656424Y00011278*
X-00655086Y00012736*
X-00655061Y00012712*
X-00650933Y00018889*
X-006502Y00022575*
X-00646798Y00022228*
X-00643155Y00022575*
X-00639921Y00024288*
X-0063759Y00027109*
X-00636516Y00030608*
X-00634569Y00049702*
X-00634915Y00053345*
X-00636629Y00056578*
X-0063945Y00058909*
X-00642948Y00059984*
X-00673792Y00063129*
X-00677435Y00062782*
X-00680668Y00061069*
X-00683Y00058248*
X-00684074Y00054749*
X-00686021Y00035655*
X-00685675Y00032012*
X-00683961Y00028779*
X-0068114Y00026448*
X-00677642Y00025373*
X-00676713Y00025279*
X-00675902Y00023186*
X-00676559Y00022452*
X-00677458Y00021595*
X-00677482Y00021599*
X-00678093Y00021346*
X-0067813Y00021259*
X-00678172Y00021033*
X-00689319Y00016799*
X-00689348Y00016873*
X-00689981Y00016747*
X-00692027Y0001538*
X-00692803Y00015097*
X-00711313Y0000385*
X-00712259Y00002983*
X-00713301Y00002287*
X-00714067Y00001858*
X-00714096Y00001834*
X-00714112Y00001814*
X-00714134Y00001801*
X-00727401Y-00009614*
X-00727517Y-00009763*
X-00728704Y-00010556*
X-00730111Y-00012662*
X-00730744Y-00013248*
X-00743667Y-00031085*
X-00744197Y-00032239*
X-00746011Y-00034953*
X-0074591Y-00034998*
X-00754199Y-00053863*
X-00754226Y-00053982*
X-00754293Y-00054083*
X-00754512Y-00055186*
X-0075464Y-00055424*
X-00754716Y-00056201*
X-00755144Y-00058136*
X-00755136Y-00058322*
X-00755147Y-00058375*
X-0075513Y-00058457*
X-00755104Y-00059058*
X-0075507Y-00059779*
X-00755067Y-00059801*
Y-00059803*
X-00754947Y-00061052*
X-00752603Y-000854*
X-00752499Y-00085745*
X-00752522Y-00086107*
X-00749167Y-0011159*
X-00749046Y-00111946*
X-00749057Y-00112322*
X-00744818Y-00137655*
X-00744659Y-00138076*
X-00744652Y-00138529*
X-00744647Y-00138551*
X-007366Y-00176407*
X-00736466Y-00176719*
X-00736449Y-0017706*
X-00736439Y-00177102*
X-00727086Y-00214649*
X-00726865Y-00215118*
X-00726793Y-0021563*
X-00720925Y-00232463*
X-00720576Y-00234336*
X-00720573Y-00234343*
X-00719659Y-00236143*
X-00714574Y-00251123*
X-00714067Y-00252617*
X-00713958Y-00253018*
X-00713896Y-00253099*
X-00707924Y-00269285*
X-00707276Y-00271178*
X-00707163Y-00271741*
X-0070708Y-00271708*
X-00707041Y-00271729*
X-007065Y-00273001*
X-00697853Y-00294402*
X-00697395Y-00295722*
X-00697494Y-00295763*
X-00697475Y-00295858*
X-00696601Y-00297381*
X-00696541Y-00297492*
X-00695727Y-0029932*
X-00687454Y-00317901*
X-00686725Y-00319766*
X-00686239Y-00320579*
X-00685778Y-00321503*
X-00681565Y-00329948*
X-00682989Y-00332506*
X-00683376Y-00335849*
X-00682455Y-00339087*
X-0067536Y-00352925*
X-0067327Y-00355563*
X-00670329Y-00357201*
X-00666985Y-00357588*
X-00663748Y-00356666*
X-0065061Y-00349931*
X-00647972Y-00347841*
X-00647412Y-00346835*
X-00645412Y-0034685*
X-00644607Y-00348348*
X-00644601Y-00348353*
X-006446Y-00348361*
X-00642665Y-00349935*
X-00640758Y-00351493*
X-0064075Y-00351492*
X-00640744Y-00351497*
X-00638828Y-00352069*
X-0063882*
X-00638814Y-00352073*
X-00636348Y-00351814*
X-00633883Y-0035156*
X-00633879Y-00351555*
X-00633871Y-00351554*
X-00627547Y-0034812*
X-00624723Y-00353321*
X-0062464Y-00353388*
X-00624625Y-00353494*
X-00615245Y-00369578*
X-00615173Y-00369633*
X-00615158Y-00369723*
X-0060536Y-00385556*
X-00605298Y-00385601*
X-00605284Y-00385676*
X-00598524Y-00396086*
X-00598461Y-0039613*
X-00598445Y-00396204*
X-00587966Y-00411595*
X-0058789Y-00411645*
X-00587869Y-00411734*
X-00576991Y-00426845*
X-00576926Y-00426885*
X-00576907Y-00426959*
X-00569436Y-00436872*
X-00569397Y-00436896*
X-00569385Y-0043694*
X-00565585Y-00441847*
X-00565558Y-00441863*
X-0056555Y-00441892*
X-00562585Y-00445653*
X-00562578Y-00445657*
X-00562576Y-00445664*
X-00560398Y-00446878*
X-00558248Y-00448082*
X-00558241Y-0044808*
X-00558234Y-00448083*
X-00556248Y-00448314*
X-0055624Y-00448312*
X-00556233Y-00448316*
X-0055384Y-00447629*
X-00551467Y-00446955*
X-00551463Y-00446948*
X-00551455Y-00446946*
X-00518488Y-00420722*
X-00511536Y-00429156*
X-00511482Y-00429184*
X-00511463Y-00429243*
X-00503968Y-00438018*
X-00503914Y-00438046*
X-00503894Y-00438103*
X-00496247Y-00446747*
X-00496192Y-00446773*
X-00496171Y-00446831*
X-00488375Y-00455339*
X-00488319Y-00455365*
X-00488297Y-00455422*
X-00480353Y-00463793*
X-0048027Y-0046383*
X-00480235Y-00463915*
X-00463915Y-00480235*
X-0046383Y-0048027*
X-00463793Y-00480353*
X-00455422Y-00488297*
X-00455322Y-00488336*
X-00455276Y-00488432*
X-00445728Y-00496954*
X-00446241Y-00499176*
X-00447299Y-00499475*
X-00449942Y-00501558*
X-0045953Y-00512785*
X-00461175Y-00515722*
X-0046157Y-00519064*
X-00460657Y-00522304*
X-00458573Y-00524947*
X-00446748Y-00535047*
X-00443811Y-00536691*
X-00440469Y-00537087*
X-00437229Y-00536173*
X-004362Y-00535362*
X-00435621Y-00535414*
X-004336Y-00535653*
X-00433445Y-00535609*
X-00433285Y-00535624*
X-00407677Y-0053288*
X-00407616Y-00532861*
X-00407552Y-00532866*
X-00402065Y-00532216*
X-00402044Y-00532246*
X-00401356Y-00532531*
X-00401173Y-00532455*
X-00401104Y-00532407*
X-00392782Y-00536721*
X-0039233Y-00536851*
X-0038591Y-00540675*
X-00384845Y-00541678*
X-00384907Y-00543412*
X-00386122Y-00546756*
X-00386342Y-00546676*
X-00386441Y-00546914*
X-00386248Y-00547026*
X-00396192Y-0056427*
X-00397915Y-00569357*
X-00397734Y-00572109*
X-00398821Y-00573935*
X-00399881Y-00576923*
X-00399716Y-00580089*
X-00398353Y-00582951*
X-00395998Y-00585073*
X-00390924Y-00588094*
X-00389192Y-00588709*
X-0038841Y-00591029*
X-00395952Y-00601352*
X-00396638Y-00601636*
X-00400788Y-00601883*
X-00401419Y-00602048*
X-0040207Y-00602033*
X-00403525Y-0060229*
X-00409692Y-00597971*
X-00412773Y-00596616*
X-00416138Y-00596542*
X-00416611Y-00596726*
X-0041825Y-00595579*
X-00418239Y-00595071*
X-00419459Y-00591934*
X-00421786Y-00589503*
X-00428197Y-00585013*
Y-00580456*
X-00428369Y-00579595*
X-00428095Y-00578935*
Y-00573365*
X-00430227Y-0056822*
X-00434165Y-00564281*
X-0043931Y-0056215*
X-0044488*
X-00450026Y-00564281*
X-00453824Y-00568079*
X-00458636Y-00566086*
X-00464206*
X-00469351Y-00568217*
X-00473289Y-00572155*
X-00475421Y-00577301*
Y-0058287*
X-00473289Y-00588016*
X-00469351Y-00591954*
X-00466159Y-00593277*
X-00464034Y-00595402*
X-00462504Y-00596424*
X-00461041Y-00597541*
X-00460694Y-00597633*
X-00460395Y-00597833*
X-00458589Y-00598192*
X-00456812Y-00598664*
X-00456587Y-00598678*
X-00456172Y-00599093*
X-00456243Y-00602337*
X-00455023Y-00605474*
X-00452696Y-00607906*
X-00440602Y-00616374*
X-00437521Y-0061773*
X-00434156Y-00617803*
X-00433683Y-00617619*
X-00432044Y-00618766*
X-00432055Y-00619274*
X-00430835Y-00622411*
X-00428508Y-00624843*
X-00416414Y-00633311*
X-00413333Y-00634667*
X-00409968Y-0063474*
X-00406831Y-0063352*
X-004044Y-00631192*
X-0039963Y-0062438*
X-00398813Y-00624236*
X-00394236Y-00623964*
X-00394235*
X-00394216Y-00623963*
X-00393891Y-00623878*
X-003873Y-00622567*
X-00381027Y-00618376*
X-00379498Y-0061976*
X-00380387Y-00621424*
X-00380503Y-00621808*
X-00381612Y-00623468*
X-00383475Y-00632833*
X-00383073Y-00634854*
X-0038731Y-00642659*
X-00388309Y-00645873*
X-00388001Y-00649225*
X-00386433Y-00652204*
X-00383846Y-00654356*
X-00370871Y-006614*
X-00367656Y-00662399*
X-00364305Y-00662091*
X-00361326Y-00660524*
X-00359174Y-00657936*
X-0035119Y-00643231*
X-00350192Y-00640017*
X-003505Y-00636665*
X-00352067Y-00633686*
X-00354655Y-00631534*
X-00357284Y-00630107*
X-00339646Y-0059705*
X-00338271Y-00592504*
X-00335887Y-00588502*
X-00334828Y-00585514*
X-00334992Y-00582348*
X-00336356Y-00579486*
X-00338711Y-00577364*
X-00343784Y-00574343*
X-00346772Y-00573283*
X-0034984Y-00573443*
X-00350433Y-00573403*
X-0035163Y-0057269*
X-00351944Y-00572188*
X-00353267Y-00569412*
X-00355622Y-0056729*
X-00360696Y-00564269*
X-00361865Y-00563854*
X-00362766Y-00561413*
X-003624Y-00560778*
X-0036232Y-00560543*
X-00361056Y-00557491*
X-00360249Y-0055616*
X-00358548Y-00551481*
X-00357734Y-00546173*
X-00358806Y-00541799*
X-00358074Y-00540989*
X-00356944Y-00540595*
X-0035304Y-00542987*
X-00350614Y-00543882*
X-0034803Y-0054378*
X-00347889Y-00543715*
X-00344595Y-00543544*
X-0034103Y-00541846*
X-00338386Y-00538912*
X-00314355Y-00498558*
X-00311807Y-00498189*
X-00311314Y-00498645*
X-00302814Y-00503854*
X-00302564Y-0050456*
X-00327043Y-00545665*
X-00328363Y-00549388*
X-00328159Y-00553332*
X-0032646Y-00556897*
X-0032568Y-005576*
X-00325649Y-00557712*
X-00325645Y-00557718*
X-00325646Y-00557725*
X-00324109Y-0055971*
X-00322615Y-00561648*
X-00322607Y-00561649*
X-00322603Y-00561655*
X-00318975Y-00563729*
X-00318945Y-00563733*
X-00318926Y-00563757*
X-0031607Y-00565356*
X-00316047Y-00565359*
X-00316033Y-00565377*
X-00313601Y-00565648*
X-00313642Y-00566045*
X-00313901Y-00568509*
X-00313896Y-00568515*
X-00313897Y-00568523*
X-00313325Y-00570439*
X-0031332Y-00570445*
Y-00570453*
X-0031176Y-00572362*
X-00310188Y-00574295*
X-0031018Y-00574296*
X-00310175Y-00574302*
X-00308261Y-00575331*
X-00306509Y-00575507*
X-0030485Y-00576095*
X-0030412Y-00575747*
X-00303315Y-00575828*
X-00302254Y-00574961*
X-00301917Y-00574944*
X-00300222Y-00574136*
X-00299636Y-00574106*
X-00298468Y-00574519*
X-00286411Y-005817*
X-002859Y-00584332*
X-00286314Y-00584877*
X-00288288Y-00588923*
X-00290396Y-00589995*
X-00303158Y-00582395*
X-00304821Y-00580896*
X-00306887Y-00580164*
X-00308873Y-00579233*
X-00310154Y-00579175*
X-0031071Y-00579376*
X-00311281Y-00579222*
X-00312304Y-00579354*
X-00312801Y-00579639*
X-00313371Y-00579584*
X-00314898Y-00580843*
X-00316615Y-00581828*
X-00316765Y-00582381*
X-00317207Y-00582746*
X-00324881Y-00597179*
X-00324883Y-00597194*
X-00324894Y-00597204*
X-00325121Y-00599667*
X-00325358Y-00602127*
X-00325348Y-00602139*
X-00325349Y-00602154*
X-00324756Y-00604064*
X-00324746Y-00604076*
X-00324748Y-00604091*
X-0032316Y-00605984*
X-00321578Y-00607886*
X-00321563Y-00607887*
X-00321553Y-00607899*
X-00312267Y-00612733*
X-00312206Y-00612738*
X-00312166Y-00612784*
X-00301933Y-00617886*
X-00300422Y-00617992*
X-00299022Y-00618568*
X-00296855Y-00618564*
X-00294585Y-00617618*
X-00292276Y-00616662*
X-00289252Y-00613637*
X-00286493Y-00612494*
X-00283507*
X-00280748Y-00613637*
X-00278637Y-00615748*
X-00277494Y-00618507*
Y-00621493*
X-00278637Y-00624251*
X-00280748Y-00626363*
X-00283507Y-00627506*
X-00287785*
X-00288015Y-00627601*
X-00288642*
X-00291023Y-00627518*
X-00291112Y-00627601*
X-00291234*
X-00292917Y-00629284*
X-00294658Y-00630908*
X-00304407Y-006523*
X-00304408Y-00652308*
X-00304413Y-00652313*
X-00304494Y-00654771*
X-00304581Y-00657268*
X-00304575Y-00657274*
X-00304576Y-00657281*
X-00303871Y-00659153*
X-00303866Y-00659159*
Y-00659166*
X-00302175Y-00660964*
X-00300474Y-00662781*
X-00300466*
X-00300461Y-00662787*
X-00296014Y-00664789*
X-00295893Y-00664793*
X-00295806Y-00664879*
X-00285771Y-00668985*
X-00285574Y-00669116*
X-00271206Y-00675067*
X-00270614Y-00675185*
X-00256365Y-00681015*
X-00256312Y-00681014*
X-00256273Y-00681051*
X-00253834Y-00681004*
X-00251395Y-00680993*
X-00251357Y-00680955*
X-00251304Y-00680954*
X-00249471Y-00680152*
X-00249434Y-00680114*
X-00249381Y-00680112*
X-00247716Y-00678327*
X-00246026Y-00676569*
X-00246027Y-00676516*
X-00245991Y-00676477*
X-0022315Y-00615386*
X-00222725Y-00614929*
X-00220738Y-0061489*
X-00218492Y-00617591*
X-0021482Y-00619523*
X-00157253Y-00636575*
X-00153121Y-00636955*
X-00149159Y-00635724*
X-00148865Y-0063548*
X-00146939Y-0063596*
X-00146804Y-0063594*
X-00146691Y-00636017*
X-00119087Y-00641758*
X-00118967Y-00641736*
X-00118864Y-00641801*
X-00102191Y-00644666*
X-00102117Y-00644649*
X-00102051Y-00644688*
X-00090897Y-00646355*
X-00090837Y-0064634*
X-00090784Y-00646371*
X-0008101Y-00647658*
X-00080996Y-00647654*
X-00080982Y-00647661*
X-00078586Y-00647008*
X-00076209Y-00646371*
X-00076202Y-00646358*
X-00076187Y-00646354*
X-00074605Y-00645129*
X-00074598Y-00645116*
X-00074583Y-00645112*
X-00073372Y-00642971*
X-00072139Y-00640814*
X-00072143Y-00640799*
X-00072135Y-00640786*
X-00063157Y-00567669*
X-0006381Y-00565311*
X-00064433Y-00562946*
X-00064473Y-00562923*
X-00064485Y-00562879*
X-00066613Y-00561675*
X-00068727Y-00560442*
X-00088342Y-00557772*
X-00112602Y-00553386*
X-00122178Y-00551263*
X-00133319Y-00548707*
X-00134339Y-00546987*
X-00132554Y-00540663*
X-00129613Y-0053025*
X00013848Y-00291491*
X-00048215Y-002542*
X-00047494Y-00252334*
X-0003821Y-00254181*
X-00037704*
X-0003722Y-00254327*
X-00013112Y-00256702*
X-00012608Y-00256652*
X-00012113Y-00256751*
X00012112*
X00012608Y-00256652*
X00013112Y-00256702*
X0003722Y-00254327*
X00037704Y-00254181*
X0003821*
X00061969Y-00249455*
X00062437Y-00249261*
X0006294Y-00249212*
X00086122Y-00242179*
X00086568Y-00241941*
X00087064Y-00241842*
X00102255Y-0023555*
X00103388Y-00237245*
X00102754Y-00237879*
X00100623Y-00243025*
Y-00248595*
X00102754Y-0025374*
X00106692Y-00257678*
X00111838Y-0025981*
X00117408*
X00122553Y-00257678*
X00126492Y-0025374*
X00128623Y-00248595*
Y-00245944*
X00178157Y-00203781*
X00179653Y-00205108*
X00177004Y-0020911*
X00177003Y-00209109*
X00163861Y-00228965*
X00152997Y-00245379*
X00165611Y-00253728*
X00167428Y-00255289*
X0017107Y-00257341*
X00180732Y-00263737*
X0018119Y-00263045*
X00186411Y-00265988*
X00186722Y-00266739*
X0019066Y-00270677*
X00195806Y-00272808*
X00201376*
X00206521Y-00270677*
X00210459Y-00266739*
X00212591Y-00261593*
Y-00256024*
X00210459Y-00250878*
X00206521Y-0024694*
X00201376Y-00244809*
X0019867*
X00196008Y-00243308*
X0019554Y-00241364*
X00202171Y-00231344*
X0020413Y-00232009*
X00223803Y-00245031*
X00234668Y-00228616*
X0024781Y-00208761*
X00247809Y-0020876*
X00258674Y-00192345*
Y-00192344*
X00269443Y-00176075*
X0027329Y-00174481*
X00277228Y-00170543*
X0027936Y-00165397*
Y-00159828*
X00279088Y-00159172*
X00280199Y-00157509*
X00291092*
X00311613Y-0017803*
X00311614Y-00178031*
X00315252Y-00180462*
X00319544Y-00181315*
X00332584*
X00333237Y-00181969*
X00338383Y-001841*
X00343953*
X00349098Y-00181969*
X00353036Y-0017803*
X00355168Y-00172885*
Y-00167315*
X00353036Y-0016217*
X00349098Y-00158231*
X00343953Y-001561*
X00338383*
X00333237Y-00158231*
X00332584Y-00158885*
X0032419*
X00303668Y-00138363*
X00300029Y-00135931*
X00295737Y-00135077*
Y-00135078*
X0027591*
X00271618Y-00135931*
X00268805Y-00137811*
X00266482*
X00265407Y-00135811*
X0026993Y-00128977*
X00248407Y-00114732*
Y-00109109*
X00256252Y-00101264*
X00267479Y-00108695*
X00267818Y-00109007*
X00268111Y-00109186*
X00268331Y-00109451*
X00283517Y-00121823*
X00285476Y-00126552*
X00289414Y-0013049*
X0029456Y-00132622*
X00300129*
X00305275Y-0013049*
X00309213Y-00126552*
X00311344Y-00121406*
Y-00115837*
X00312032Y-00114808*
X00313039*
X00318185Y-00112676*
X00322123Y-00108738*
X00324255Y-00103593*
Y-00098023*
X00322123Y-00092877*
X00318185Y-00088939*
X00313039Y-00086808*
X00312116*
X00303762Y-00078454*
X00300124Y-00076023*
X00295832Y-00075169*
X00295831Y-0007517*
X00295635*
X00276337Y-00062396*
X00276078Y-00059826*
X00278548Y-00057356*
X00280679Y-00052211*
Y-00046641*
X00278548Y-00041496*
X0027461Y-00037557*
X00269464Y-00035426*
X00263895*
X00258749Y-00037557*
X00255754Y-00040553*
X00253911Y-00039568*
X00254181Y-0003821*
Y-00037704*
X00254327Y-0003722*
X00256702Y-00013112*
X00256652Y-00012609*
X00256751Y-00012113*
Y00012112*
X00256652Y00012608*
X00256702Y00013112*
X00254327Y0003722*
X00254181Y00037704*
Y0003821*
X00252717Y00045568*
X00254263Y00046837*
X00256588Y00045873*
X00262158*
X00267303Y00048005*
X00271242Y00051943*
X00273373Y00057089*
Y00062658*
X00271242Y00067804*
X00267303Y00071742*
X00262158Y00073873*
X00256588*
X00251443Y00071742*
X00249058Y00069357*
X00247117Y00069843*
X00242179Y00086122*
X00241941Y00086568*
X00241842Y00087064*
X00232763Y00108983*
X00233355Y00110323*
X00233847Y00110875*
X00234014Y00110983*
X00237844*
X0024299Y00113115*
X00246928Y00117053*
X00249059Y00122198*
Y00127768*
X00246928Y00132914*
X0024299Y00136852*
X00237844Y00138983*
X00232274*
X00227129Y00136852*
X00223191Y00132914*
X00222729Y00131799*
X00221773Y00131752*
X00220594Y00131872*
X00220404Y00132105*
X0022021Y00132572*
X00206751Y00152714*
X00206393Y00153072*
X00206155Y00153518*
X00194711Y00167463*
X00195316Y00169878*
X00199057Y00171428*
X00202995Y00175366*
X00205127Y00180512*
Y00186082*
X00202995Y00191227*
X00199057Y00195165*
X00193911Y00197297*
X00188342*
X00183196Y00195165*
X00179258Y00191227*
X00177924Y00188006*
X00175564Y00187536*
X00172986Y00190115*
X00172565Y00190396*
X00172244Y00190787*
X00153518Y00206155*
X00153072Y00206393*
X00152714Y00206751*
X00140837Y00214688*
X00141033Y00216678*
X00143046Y00217512*
X00146984Y0022145*
X00149116Y00226596*
Y00232165*
X00146984Y00237311*
X00143046Y00241249*
X00137901Y00243381*
X00132331*
X00127185Y00241249*
X00123247Y00237311*
X00121116Y00232165*
Y00228657*
X00119116Y00227458*
X00110349Y00232144*
X00109865Y00232291*
X00109445Y00232572*
X00087064Y00241842*
X00086568Y00241941*
X00086122Y00242179*
X0006294Y00249211*
X00062437Y00249261*
X00061969Y00249454*
X0003821Y00254181*
X00037704*
X0003722Y00254327*
X00013112Y00256702*
X00012608Y00256652*
X00012112Y00256751*
X-00012113*
X-00012608Y00256652*
X-00013112Y00256702*
X-0003722Y00254327*
X-00037704Y00254181*
X-0003821*
X-00061969Y00249454*
X-00062437Y00249261*
X-0006294Y00249211*
X-00086122Y00242179*
X-00086568Y00241941*
X-00087064Y00241842*
X-00109445Y00232572*
X-00109865Y00232291*
X-00110349Y00232144*
X-00131714Y00220724*
X-00132105Y00220404*
X-00132572Y0022021*
X-00152714Y00206751*
X-00153072Y00206393*
X-00153518Y00206155*
X-00172244Y00190787*
X-00172565Y00190396*
X-00172986Y00190115*
X-00190115Y00172986*
X-00190396Y00172565*
X-00190787Y00172244*
X-00206155Y00153518*
X-00206394Y00153072*
X-00206751Y00152714*
X-0022021Y00132572*
X-00220404Y00132105*
X-00220725Y00131714*
X-00232144Y00110349*
X-00232291Y00109865*
X-00232572Y00109445*
X-00241842Y00087064*
X-00241941Y00086568*
X-00242179Y00086122*
X-00249212Y0006294*
X-00249261Y00062437*
X-00249455Y00061969*
X-00254181Y0003821*
Y00037704*
X-00254327Y0003722*
X-00256702Y00013112*
X-00256652Y00012608*
X-00256751Y00012112*
Y-00012113*
X-00256652Y-00012609*
X-00256702Y-00013112*
X-00254327Y-0003722*
X-00254181Y-00037704*
Y-0003821*
X-00249455Y-00061969*
X-00249261Y-00062437*
X-00249212Y-0006294*
X-00242179Y-00086122*
X-00241941Y-00086568*
X-00241842Y-00087064*
X-00232572Y-00109445*
X-00232291Y-00109865*
X-00232144Y-00110349*
X-00220725Y-00131714*
X-00220404Y-00132105*
X-0022021Y-00132572*
X-00208329Y-00150353*
X-00209675Y-00151939*
X-00232154Y-00141753*
X-00234107Y-00141689*
X-00236017Y-00141282*
X-00236071Y-00141317*
X-00263869Y-00124615*
X-00424653Y-00392204*
X-00426644Y-00392391*
X-00440836Y-00376491*
X-00448659Y-00367001*
X-0044845Y-00365012*
X-00435173Y-00354451*
X-00415608Y-00338888*
X-00414418Y-00336741*
X-00413205Y-00334597*
X-00413213Y-00334567*
X-00413198Y-00334541*
X-00413875Y-00332179*
X-00414533Y-00329807*
X-00420251Y-00322488*
X-00420633Y-00321977*
X-00420717Y-00320106*
X-00422143Y-00317058*
X-00432053Y-00303576*
X-00434537Y-00301305*
X-00435964Y-00300788*
X-00439155Y-0029623*
X-00444658Y-00287674*
X-00444598Y-00286133*
X-00445763Y-00282976*
X-00454505Y-00268709*
X-0045679Y-00266237*
X-00458373Y-00265508*
X-00458749Y-00264875*
X-00467733Y-00248668*
X-00471981Y-00240507*
X-00478519Y-0022722*
X-00485801Y-00211203*
X-00489404Y-00202717*
X-00492867Y-00194144*
X-00493545Y-00192378*
X-00493049Y-00191277*
X-00492248Y-0019053*
X-004912Y-00190212*
X-004905Y-001889*
X-00489414Y-00187887*
X-00489375Y-00186793*
X-0048886Y-00185827*
X-00488643Y-0018361*
X-00488961Y-00182563*
X-00488786Y-00181482*
X-00489656Y-00180277*
X-00490089Y-00178855*
X-00491054Y-00178339*
X-00491695Y-00177451*
X-0049642Y-00174535*
X-00500597Y-00170104*
X-00503485Y-00164743*
X-00504887Y-00158816*
X-00504708Y-0015273*
X-0050296Y-00146897*
X-00499761Y-00141715*
X-0049533Y-00137537*
X-00489969Y-00134649*
X-00484043Y-00133247*
X-00477956Y-00133426*
X-00472123Y-00135174*
X-00466941Y-00138373*
X-00462764Y-00142804*
X-00459875Y-00148165*
X-00458473Y-00154091*
X-00458652Y-00160178*
X-00460333Y-00165785*
X-00460224Y-00166857*
X-00460603Y-00167866*
X-00459982Y-00169235*
X-0045983Y-00170731*
X-00458995Y-00171411*
X-00458549Y-00172393*
X-00456918Y-00173918*
X-00455909Y-00174298*
X-00455175Y-00175085*
X-00453673Y-00175138*
X-00452265Y-00175667*
X-00451284Y-00175221*
X-00450207Y-00175259*
X-00434422Y-00169357*
X-00400798Y-00156786*
X-00399779Y-00155835*
X-0039849Y-00155305*
X-00398032Y-00154207*
X-00397163Y-00153396*
X-00397114Y-00152003*
X-00396578Y-00150717*
X-00396573Y-0014858*
X-00396456Y-00148353*
X-0036049Y-0014005*
X-00357586Y-00138741*
X-00355403Y-00136421*
X-00354274Y-00133442*
X-00354371Y-00130258*
X-00354508Y-00129668*
X-00353551Y-00128933*
X-0035359Y-00128894*
X-00349054Y-00124357*
X-00347502Y-00123081*
X-00339886Y-00113155*
X-00335098Y-00101595*
X-00333464Y-00089191*
X-00333659*
Y-00059446*
X-00333276Y-00059144*
X-00331659Y-00058312*
X-0032968Y-00058791*
X-00329673Y-00058788*
X-00329666Y-00058789*
X-00271804Y-00049625*
X-00269718Y-00048347*
X-00267617Y-00047096*
X-00267605Y-00047052*
X-00267566Y-00047028*
X-00266996Y-00044652*
X-00266393Y-00042279*
X-00267421Y-00035193*
X-00267993Y-00030532*
X-00268483Y-00025868*
X-0026907Y-00018801*
X-0026936Y-0001406*
X-00269815Y-00013128*
X-00269794Y-00012091*
X-00270863Y-00010979*
X-00271539Y-00009592*
X-00272519Y-00009255*
X-00273238Y-00008507*
X-00283442Y-0000404*
X-00284101Y-00004027*
X-0028464Y-00003649*
X-00287087Y-00003106*
X-00287728Y-00003219*
X-00288323Y-00002954*
X-00290421Y-00002899*
X-0029182Y-00002582*
X-00291838Y-00002569*
X-00292869Y-00002336*
X-00293198Y-00001954*
X-00299715Y00001328*
Y00002599*
X-00299544Y00010448*
X-00298995Y00020922*
X-00298344Y00028758*
X-00298091Y00031271*
X-00296429Y0004433*
X-00295172Y00052049*
X-00293707Y00059768*
X-00292624Y00064861*
X-00290803Y00072593*
X-00291197Y00075008*
X-00291558Y00077427*
X-00291595Y00077454*
X-00291602Y00077499*
X-00293586Y00078927*
X-00295554Y00080383*
X-00324459Y0008759*
X-0035645Y00097794*
X-00389844Y00140457*
X-00388717Y0014211*
X-00384872Y00140963*
X-00375487Y00141929*
X-00367186Y00146414*
X-00361233Y00153735*
X-00358535Y00162776*
X-00359502Y00172161*
X-00363987Y00180462*
X-00371307Y00186414*
X-00380348Y00189113*
X-00389607Y00188159*
X-00390522Y00188902*
X-00391167Y00189521*
X-00387343Y00197362*
X-00380213Y00210772*
X-00374573Y0022064*
X-00368691Y00230333*
X-0035609Y00249371*
X-00347228Y00261568*
X-00326341Y00287133*
X-00326319Y00287206*
X-00326252Y00287243*
X-00325606Y00289575*
X-00324908Y00291893*
X-00324944Y0029196*
X-00324924Y00292033*
X-00325168Y00294019*
X-00325205Y00294085*
X-00325187Y00294159*
X-00326423Y00296236*
X-00327615Y00298345*
X-00327689Y00298365*
X-00327728Y00298431*
X-00366755Y00327574*
X-00367377Y00327732*
X-00367817Y0032823*
X-00387504Y00337851*
X-00388012Y00339785*
X-00379159Y00352667*
X-0037916*
X-00368011Y00368889*
X-00403702Y00393419*
X-00398127Y0040153*
X-00437218Y00428396*
X-00450705Y00408773*
X-00450703Y00408772*
X-00459515Y0039595*
X-00459518Y00395952*
X-00473005Y00376329*
X-00473002Y00376327*
X-00481816Y00363503*
X-00481817*
X-00504115Y00331059*
X-00504116Y0033106*
X-0050537Y00329236*
X-00509099Y00331494*
X-00521227Y0033896*
X-00515428Y00352619*
X-00514421Y00354255*
X-00514266Y00354629*
X-00513276Y0035626*
X-00465634Y00416694*
X-00464152Y00417937*
X-00464079Y00418113*
X-00462958Y00419717*
X-00422492Y00460538*
X-00422013Y00460519*
X-00422008Y00460521*
X-00421882Y00460573*
X-00421879Y0046058*
X-00421858Y00461121*
X-00386227Y00491285*
X-00384566Y00492262*
X-00384468Y00492303*
X-00383165Y0049371*
X-00360052Y00510813*
X-00358341Y00511693*
X-00358265Y00511724*
X-00356869Y00513042*
X-00332724Y00529023*
X-00330979Y00529816*
X-00330929Y00529836*
X-00329481Y00531089*
X-00328213Y00531866*
X-00327278Y0053273*
X-00324158Y00534815*
X-00319517Y00541761*
X-00317887Y00549955*
X-00318738Y00554237*
X-00318829Y00555532*
X-00321373Y00564869*
X-00318925Y00566941*
X-00317384Y00569933*
X-00317106Y00573287*
X-00318132Y00576493*
X-00325671Y00590094*
X-00327846Y00592663*
X-00330838Y00594204*
X-00334192Y00594483*
G37*
G36*
X-00042768Y00444167D02*
X-00130462Y00426723D01*
X-00113168Y00348297*
X-00028733Y00365092*
X-00030014Y00372307*
X00019666Y00381629*
X00019308Y00383541*
X0002059Y00385076*
X00037649Y00384965*
X00052151Y00383453*
X00056934Y00383896*
X00070673Y00382708*
X00083629Y00379644*
X00089378Y00379437*
X0009134Y00380168*
X00092766Y00378636*
X00097999Y00376245*
X00112366Y00372846*
X00116089Y00372712*
X00133642Y00367943*
X00143714Y00363316*
X00143715*
X00156275Y00357547*
X00160047Y00354465*
X00173082Y00347534*
X00178591Y00345876*
X00184205Y00346441*
X00186877Y00341469*
X00191332Y00337829*
X00200309Y00333056*
X00207422Y0032614*
X00206589Y0032524*
X00236498Y00297589*
X00248014Y00310045*
X00251927Y0031274*
X00255258Y0031788*
X00266555Y00330099*
X00236646Y0035775*
X00236363Y00357743*
X00233493Y00360534*
X00233244Y00363001*
X00230521Y00368068*
X00226066Y00371708*
X00213031Y00378639*
X00207522Y00380297*
X00201908Y00379732*
X00199236Y00384704*
X00194781Y00388344*
X00181746Y00395275*
X00176237Y00396933*
X00173702Y00396678*
X00161594Y00402239*
X0014991Y00407606*
X00148179Y0040802*
X00146585Y00408812*
X00128481Y00413731*
X00127966Y00414285*
X00122734Y00416676*
X00108366Y00420074*
X00102617Y00420281*
X00100655Y0041955*
X00099229Y00421082*
X00093997Y00423473*
X00079629Y00426872*
X0007388Y00427078*
X00070277Y00425735*
X0005925Y00426688*
X00056741Y00427465*
X00040099Y00429201*
X00034371Y0042867*
X00032778Y0042783*
X0001097Y00427972*
X00007979Y00443912*
X-00039692Y00434967*
X-00041337Y00436104*
X-00042768Y00444167*
G37*
G36*
X-00223133Y00319053D02*
X-00232518Y00318086D01*
X-00240819Y00313601*
X-00246771Y0030628*
X-0024947Y00297239*
X-00248502Y00287854*
X-00244018Y00279553*
X-00236697Y00273601*
X-00227656Y00270902*
X-00218271Y0027187*
X-0020997Y00276354*
X-00204018Y00283675*
X-0020132Y00292716*
X-00202286Y00302101*
X-00206771Y00310402*
X-00214092Y00316354*
X-00223133Y00319053*
G37*
G36*
X00194044Y00292024D02*
X00188474D01*
X00183329Y00289893*
X00179391Y00285954*
X00177259Y00280809*
Y00275239*
X00179391Y00270094*
X00183329Y00266156*
X00188474Y00264024*
X00194044*
X0019919Y00266156*
X00203128Y00270094*
X00205259Y00275239*
Y00280809*
X00203128Y00285954*
X0019919Y00289893*
X00194044Y00292024*
G37*
G36*
X-00272376Y00319597D02*
X-00277945D01*
X-00283091Y00317465*
X-00287029Y00313527*
X-00289161Y00308382*
Y00302812*
X-00287029Y00297666*
X-00286672Y00297309*
X-00286893Y00290968*
X-00290478Y00289031*
X-00295937Y00282318*
X-00298411Y00274028*
X-00297525Y00265422*
X-00293412Y0025781*
X-00286699Y00252351*
X-00279095Y00250082*
X-00278986Y00247962*
X-00282605Y00246463*
X-00283634Y00245434*
X-00289651Y00245174*
X-00290803Y00247307*
X-00297516Y00252765*
X-00305806Y00255239*
X-00314413Y00254353*
X-00322024Y0025024*
X-00327483Y00243527*
X-00329957Y00235237*
X-00329071Y00226631*
X-00324958Y00219019*
X-00318245Y0021356*
X-00316659Y00213087*
X-00316169Y00211148*
X-00317255Y00210061*
X-00319387Y00204916*
Y00199346*
X-00317255Y00194201*
X-00313317Y00190262*
X-00311846Y00189653*
Y00181483*
X-00314774Y00179901*
X-00320233Y00173188*
X-00322707Y00164897*
X-0032182Y00156291*
X-00317708Y00148679*
X-00310995Y00143221*
X-00302704Y00140746*
X-00294098Y00141633*
X-00286486Y00145746*
X-00281028Y00152458*
X-00278553Y00160749*
X-0027944Y00169355*
X-00283553Y00176967*
X-00289415Y00181734*
Y00189406*
X-00287476Y00189897*
X-00286167Y00187474*
X-00279454Y00182015*
X-00271163Y00179541*
X-00262557Y00180428*
X-00255137Y00184437*
X-00251711Y00183158*
X-0025152Y00182697*
X-00247581Y00178758*
X-00242436Y00176627*
X-00236866*
X-00231721Y00178758*
X-00227782Y00182697*
X-00225651Y00187842*
Y00193412*
X-00227782Y00198558*
X-00231721Y00202496*
X-00236866Y00204627*
X-00242436*
X-00243691Y00204107*
X-00247634Y00205579*
X-00247899Y0020815*
X-00252012Y00215762*
X-00258725Y0022122*
X-00264189Y00222851*
X-0026468Y0022479*
X-00262806Y00226664*
X-00260675Y0023181*
Y0023358*
X-00258733Y00233874*
X-0025462Y00226262*
X-00247908Y00220803*
X-00239617Y00218329*
X-00231011Y00219215*
X-00223399Y00223328*
X-0021794Y00230041*
X-00217477Y00231593*
X-00215589Y00231993*
X-00211401Y00230258*
X-00205832*
X-00200686Y0023239*
X-00196748Y00236328*
X-00194616Y00241474*
Y00247043*
X-00196748Y00252189*
X-00200686Y00256127*
X-00205832Y00258258*
X-00211401*
X-00216547Y00256127*
X-00218357Y00254316*
X-00220365Y00254364*
X-00220465Y0025455*
X-00227178Y00260008*
X-00235469Y00262483*
X-00244075Y00261596*
X-00251687Y00257483*
X-00257146Y0025077*
X-0025962Y0024248*
X-00259288Y00239257*
X-00261247Y00238762*
X-00262806Y00242525*
X-00266744Y00246463*
X-0027189Y00248594*
X-00271801Y00250558*
X-00269802Y00250764*
X-0026219Y00254876*
X-00256732Y00261589*
X-00254257Y0026988*
X-00255144Y00278486*
X-00259257Y00286098*
X-00264471Y00290337*
X-00264248Y0029671*
X-00263292Y00297666*
X-00261161Y00302812*
Y00308382*
X-00263292Y00313527*
X-0026723Y00317465*
X-00272376Y00319597*
G37*
G36*
X00240066Y00272947D02*
X00234497D01*
X00229351Y00270816*
X00225413Y00266878*
X00223281Y00261732*
Y00256163*
X00225413Y00251017*
X00229351Y00247079*
X00234497Y00244947*
X00240066*
X00245212Y00247079*
X0024915Y00251017*
X00251281Y00256163*
Y00261732*
X0024915Y00266878*
X00245212Y00270816*
X00240066Y00272947*
G37*
G36*
X00366429Y00360388D02*
X00355404Y00348463D01*
X00349907Y00344023*
X00347911Y00340358*
X00336372Y00327878*
X00345151Y00319762*
X003453Y00318925*
X0034594Y00317927*
X00346275Y00316789*
X00348176Y00314436*
X00349808Y00311888*
X00364328Y00296796*
X00366483Y00292082*
X00375123Y0028011*
X00379334Y00276192*
X00384622Y00274222*
X00384826Y00268582*
X00387217Y00263351*
X00395857Y00251379*
X00399992Y00247532*
X00403439Y00242282*
X00402958Y0024034*
X00388524Y0023237*
X00387171Y00233843*
X0038815Y00235308*
X00389547Y00242331*
X00388223Y00248985*
X00392372Y00251909*
X00370716Y00282635*
X00367254Y00280195*
X00353295Y0029502*
X00354088Y00295878*
X00332991Y00315383*
X00317495Y00298622*
X00304132Y00284168*
X00325229Y00264663*
X0032617Y00263062*
X00328861Y00255475*
X00329242Y00253511*
X00327781Y00252373*
X00322291Y00248504*
X00327183Y00241563*
X0032567Y00240238*
X00323981Y00241799*
X00320823Y00242964*
X0031746Y00242832*
X00314403Y00241423*
X00302459Y00232744*
X00300174Y00230273*
X00299009Y00227115*
X00299141Y00223752*
X00300551Y00220695*
X00310386Y00207159*
X00312857Y00204874*
X00316015Y00203709*
X00319378Y00203841*
X00322435Y0020525*
X00326341Y00208088*
X00332556Y00205036*
X00332585Y00205022*
X00332693Y00204993*
X0033358Y002044*
X00340604Y00203003*
X00347332Y00204341*
X00347296Y00204435*
X00351813Y00206222*
X00353614Y00204783*
X00354486Y00201995*
X003625Y00187306*
X00364657Y00184723*
X00367639Y00183162*
X00370991Y0018286*
X00374204Y00183865*
X00387164Y00190936*
X00389748Y00193093*
X00391309Y00196075*
X00391382Y00196882*
X00395683Y00198664*
X00397144Y00200125*
X00399124Y00199845*
X00401245Y00196004*
X00421717Y00207308*
X00423622Y00206701*
X00425477Y00202856*
X00424766Y00200987*
X00403173Y00192002*
X00406234Y00184647*
X00400118Y00181996*
X00399998Y00182175*
X00397198Y00184043*
X00393896Y00184697*
X00390595Y00184038*
X00376959Y00178378*
X00374162Y00176506*
X00372294Y00173706*
X0037164Y00170405*
X00372299Y00167104*
X00378714Y0015165*
X00380586Y00148853*
X00383386Y00146985*
X00386688Y00146331*
X00389988Y0014699*
X00403624Y0015265*
X00406421Y00154522*
X00408289Y00157322*
X00408943Y00160624*
X00408805Y00161314*
X00413545Y00163368*
X004154Y00162619*
X00417766Y00156933*
X0044193Y00166988*
X00443119Y00165563*
X0044785Y00155345*
X0044791Y00154607*
X00451943Y00140405*
X00454564Y00135284*
X00458863Y00131626*
X00457128Y00126256*
X0045759Y00120522*
X00461623Y0010632*
X00464245Y00101199*
X00468626Y00097471*
X00468649Y00097463*
X00470253Y00094054*
X00471007Y00092286*
X00471187Y00091853*
X00471828Y00090033*
X00479738Y00065083*
X00474587Y00056704*
X00473921Y00054907*
X00462801Y00038105*
X00492663Y0001834*
X00504025Y00035507*
X00505857Y00037483*
X00512174Y00047759*
X00515682Y00049691*
X00520902Y00056216*
X00523228Y00064242*
X00522305Y00072547*
X00511936Y00105257*
X00511914Y00105297*
X00511909Y00105342*
X00511897Y00105379*
X0051072Y00107496*
X00510623Y0010773*
X00510027Y0011013*
X00506128Y00118415*
X00506085Y00118947*
X00502052Y00133149*
X00499431Y0013827*
X00495132Y00141928*
X00496867Y00147298*
X00496405Y00153032*
X00492371Y00167234*
X0048975Y00172355*
X00485502Y00175971*
X00479073Y00189854*
X0047361Y00201653*
X00473508Y00201792*
X00473465Y00201959*
X00467812Y00213678*
X00458446Y00233097*
X00458445Y00233098*
X00452793Y00244817*
X00451938Y00245951*
X00451406Y00247267*
X00435807Y00271026*
X00435728Y00273194*
X00433337Y00278426*
X00424697Y00290398*
X00420485Y00294317*
X00415197Y00296287*
X00414994Y00301926*
X00412602Y00307158*
X00403962Y0031913*
X0039975Y00323048*
X00397816Y00323769*
X00392834Y00328947*
X00396337Y00332737*
X00366429Y00360388*
G37*
G36*
X0030384Y00194892D02*
X0029827D01*
X00293125Y00192761*
X00289187Y00188823*
X00287055Y00183677*
Y00178107*
X00289187Y00172962*
X00293125Y00169024*
X0029827Y00166892*
X0030384*
X00308986Y00169024*
X00312924Y00172962*
X00315055Y00178107*
Y00183677*
X00312924Y00188823*
X00308986Y00192761*
X0030384Y00194892*
G37*
G36*
X-00318282Y00138644D02*
X-00327667Y00137677D01*
X-00335968Y00133192*
X-00341921Y00125872*
X-00344619Y00116831*
X-00343652Y00107446*
X-00339167Y00099145*
X-00331847Y00093192*
X-00322806Y00090494*
X-00313421Y00091461*
X-0030512Y00095946*
X-00299167Y00103266*
X-00296469Y00112307*
X-00297436Y00121692*
X-00301921Y00129993*
X-00309241Y00135946*
X-00318282Y00138644*
G37*
G36*
X00338659Y00116687D02*
X00333089D01*
X00327944Y00114556*
X00324006Y00110618*
X00321874Y00105472*
Y00099902*
X00324006Y00094757*
X00327944Y00090819*
X00333089Y00088687*
X00338659*
X00343805Y00090819*
X00347743Y00094757*
X00349874Y00099902*
Y00105472*
X00347743Y00110618*
X00343805Y00114556*
X00338659Y00116687*
G37*
G36*
X00423814Y00110993D02*
X00407732Y00086697D01*
X00383438Y00102777*
X00370296Y00082921*
X00398031Y00064564*
X00408897Y00080981*
X00421871Y00072394*
X0042187Y00072393*
X00441726Y00059251*
X00460083Y00086985*
X00443669Y0009785*
Y00097851*
X00423814Y00110993*
G37*
G36*
X-0054884Y00072423D02*
X-00554409D01*
X-00559555Y00070291*
X-00563493Y00066353*
X-00565625Y00061207*
Y00055638*
X-00563493Y00050492*
X-00559555Y00046554*
X-00554409Y00044423*
X-0054884*
X-00543694Y00046554*
X-00539756Y00050492*
X-00537625Y00055638*
Y00061207*
X-00539756Y00066353*
X-00543694Y00070291*
X-0054884Y00072423*
G37*
G36*
X00538717Y00034938D02*
X0052036Y00007204D01*
X00540216Y-00005939*
X00558573Y00021796*
X00538717Y00034938*
G37*
G36*
X00487067Y00550942D02*
X00422897Y00494869D01*
X0048356Y00426301*
X00495556Y00437047*
X00531734Y00400717*
X00536425Y00405389*
X0053842Y00405238*
X0054631Y00394575*
X00550568Y00390707*
X00555982Y00388764*
X00561729Y0038904*
X00561838Y00389091*
X00567277Y00380716*
X00571291Y00376595*
X00576477Y00374367*
X00576404Y00368725*
X00578535Y00363382*
X00586576Y00351*
X0059059Y00346879*
X00591851Y00346338*
X00599064Y00335564*
Y00335563*
X00600433Y00333518*
X00607574Y00320366*
X00608957Y00318703*
X00615771Y0030533*
X00616304Y00303232*
X00623507Y0028813*
X00626949Y00283521*
X00627711Y00283067*
X00630276Y00278479*
X00635788Y00264836*
X00638942Y00260025*
X00640672Y00258848*
X00640245Y00256798*
X00641319Y00251146*
X00646849Y00237458*
X00648608Y00234775*
X00651141Y00227626*
X00651686Y00225746*
X00651842Y0022537*
X00652337Y00223494*
X00654112Y00215639*
X00653778Y0021453*
X00654355Y00208806*
X00659247Y00192805*
X00659575Y00192193*
X00664995Y00169805*
X00670117Y00140755*
X00670537Y00140829*
X00678265Y00097001*
X00677845Y00096927*
X00685978Y00050805*
Y00050804*
X00685537Y00048992*
X00683128Y00043864*
X00682204Y00042199*
X00681909Y00041486*
X00680776Y00039986*
X00679721Y0003861*
X0060133Y00026166*
X00593491Y00023271*
X00587357Y00017597*
X00583861Y00010007*
X00583744Y00006992*
X00573614Y-00007661*
X00572609Y-00009982*
X00561289Y-00027085*
X00591151Y-0004685*
X00602325Y-00029969*
X00603807Y-00028533*
X0061291Y-00015365*
X00693556Y-00002564*
X00695921Y-0000169*
X00698394Y-00001198*
X00699804Y-00000256*
X00701394Y00000331*
X00703245Y00002043*
X00705342Y00003444*
X00710318Y00008421*
X00711108Y00009602*
X00712176Y00010541*
X00712898Y00011483*
X00716375Y00016023*
X00717303Y00017908*
X00719156Y00020323*
X00719852Y00022003*
X00720763Y00023239*
X00726285Y00034997*
X00728874Y00040508*
X00729541Y00043203*
X0073056Y00045785*
X00730536Y00047223*
X00730882Y0004862*
X00730467Y00051365*
X00730421Y0005414*
X00726783Y00070961*
X00720866Y00104513*
X00720447Y00104439*
X00712719Y00148267*
X00713139Y00148341*
X00705006Y00194464*
X00703174Y00194141*
X00701925Y00199301*
X00702141Y00200019*
X00701565Y00205743*
X00696673Y00221744*
X00696627Y00221829*
X00696411Y00222783*
Y00222784*
X00693597Y00235232*
X00693577Y00235278*
X00693575Y00235329*
X00693562Y00235387*
X00693231Y00236121*
X00693152Y00236724*
X00692512Y00238269*
X00692303Y00239709*
X00689476Y00247687*
X00689682Y00248678*
X00688609Y0025433*
X00683078Y00268018*
X00679924Y00272829*
X00678194Y00274007*
X0067862Y00276057*
X00677547Y00281708*
X00672017Y00295397*
X00668862Y00300208*
X00666198Y00302022*
X00663559Y00306742*
X00663448Y00307181*
X00656245Y00322283*
X0065301Y00326614*
X00648067Y00336317*
X00646463Y00341481*
X00638479Y00356186*
X00634801Y00360609*
X0063334Y00361377*
X00627462Y00370157*
X00627471Y0037083*
X0062534Y00376173*
X00617299Y00388555*
X00613284Y00392676*
X00608098Y00394904*
X00608172Y00400546*
X0060604Y00405889*
X00597999Y00418271*
X00593985Y00422392*
X00588699Y00424663*
X00586749Y00424688*
X00571633Y00438403*
X00571586Y00440403*
X00576637Y00445433*
X00543849Y00478359*
X00543906Y00480358*
X00547035Y00483161*
X00487067Y00550942*
G37*
G36*
X00358331Y00001363D02*
X00345189Y-00018492D01*
X0034519Y-00018493*
X00334327Y-00034906*
Y-00034907*
X00325737Y-00047885*
X00325736*
X00312594Y-0006774*
X0033245Y-00080883*
X00343317Y-00064465*
X00356459Y-0004461*
X00356458Y-00044609*
X00367324Y-00028193*
X00367323Y-00028192*
X00378187Y-00011779*
X00358331Y00001363*
G37*
G36*
X00620795Y-00019388D02*
X00602438Y-00047123D01*
X00622294Y-00060265*
Y-00060264*
X00635266Y-0006885*
X00635264Y-00068853*
X0065512Y-00081995*
X00673477Y-0005426*
X00657063Y-00043396*
X00657065Y-00043393*
X0063721Y-00030251*
X00637209Y-00030252*
X00620795Y-00019388*
G37*
G36*
X00686456Y-00062848D02*
X00668098Y-00090583D01*
X00684513Y-00101447*
X00684512Y-00101448*
X00704368Y-0011459*
X00717341Y-00123177*
X00706477Y-00139592*
X00734212Y-00157949*
X00747354Y-00138093*
X00723059Y-00122013*
X00739139Y-00097719*
X00719283Y-00084577*
X00706311Y-00075991*
Y-0007599*
X00686456Y-00062848*
G37*
G36*
X-00265652Y-00081914D02*
X-00268836Y-00082011D01*
X-0030712Y-0009085*
X-00310025Y-00092158*
X-00312208Y-00094478*
X-00313336Y-00097458*
X-00313239Y-00100642*
X-00308829Y-00119746*
X-0030752Y-0012265*
X-003052Y-00124833*
X-00302221Y-00125962*
X-00301637Y-00125944*
X-00300731Y-00127917*
X-00307234Y-00135028*
X-00330902Y-00160753*
X-00331546Y-00160411*
X-00334897Y-0016009*
X-00338115Y-00161076*
X-00351116Y-00168073*
X-00353712Y-00170216*
X-0035529Y-00173189*
X-0035561Y-00176539*
X-00354624Y-00179757*
X-00347254Y-00193451*
X-00345111Y-00196047*
X-00342139Y-00197625*
X-00338788Y-00197946*
X-0033557Y-00196959*
X-00322569Y-00189963*
X-00319973Y-0018782*
X-00318395Y-00184847*
X-00318075Y-00181497*
X-00318433Y-00180329*
X-00290722Y-0015021*
X-00290713Y-00150196*
X-00290699Y-00150185*
X-00278953Y-00137341*
X-00277599Y-00135882*
X-00273545Y-00129815*
X-00273141Y-00127786*
X-00272868Y-00127237*
X-00270712Y-00119325*
X-00260752Y-00117026*
X-00257848Y-00115717*
X-00255665Y-00113397*
X-00254536Y-00110418*
X-00254633Y-00107234*
X-00259044Y-0008813*
X-00260352Y-00085225*
X-00262673Y-00083042*
X-00265652Y-00081914*
G37*
G36*
X0067629Y-00141491D02*
X0067072D01*
X00665575Y-00143622*
X00661636Y-0014756*
X00659505Y-00152706*
Y-00158276*
X00661636Y-00163421*
X00664693Y-00166477*
X00664704Y-00166548*
X00664107Y-0016872*
X00659856Y-00170481*
X00658157Y-0017218*
X0064315Y-00173927*
X00643142Y-0017393*
X00643136Y-00173929*
X00643029Y-00173942*
X00641829Y-00174331*
X00637063Y-00175279*
X00629786Y-00180141*
X00628233Y-00182466*
X0062757Y-00183089*
X00627539Y-00183132*
X00627531Y-00183149*
X00627517Y-00183163*
X00597789Y-00225142*
X00597697Y-00225103*
X00597314Y-00225262*
X005973Y-00225297*
X00564453Y-00215196*
X00560737Y-0021148*
X00555591Y-00209348*
X00550022*
X00544876Y-0021148*
X00540938Y-00215418*
X00538807Y-00220564*
Y-00226133*
X00540938Y-00231279*
X00544876Y-00235217*
X00550022Y-00237348*
X00555591*
X00557545Y-00236539*
X00591167Y-00246879*
X00592224Y-00246987*
X00597697Y-00248076*
X00602389Y-00247142*
X00603504Y-00248803*
X00598218Y-0025679*
X00617889Y-0026981*
X00618073Y-00269932*
X00619262Y-00271359*
X00608692Y-00287328*
X00636427Y-00305685*
X0064283Y-00296013*
X00644822Y-00296183*
X00648968Y-00305624*
X00648711Y-00306243*
Y-00311812*
X00650843Y-00316958*
X00654781Y-00320896*
X00659927Y-00323027*
X00665496*
X00670642Y-00320896*
X0067458Y-00316958*
X00676711Y-00311812*
Y-00306243*
X0067458Y-00301097*
X00670642Y-00297159*
X0066955Y-00296707*
X00662367Y-00280347*
X00661694Y-00278514*
X0065848Y-00273705*
X00658115Y-00273058*
X00658063Y-00272998*
X00660435Y-00269414*
X00632883Y-00251178*
X00631507Y-00249633*
X00639512Y-00237539*
X00641289Y-00238082*
X00641453Y-00238191*
X00657043Y-00248509*
X00659702Y-00251168*
X0065995Y-00251334*
X00660129Y-00251573*
X00661761Y-00252544*
X00663341Y-002536*
X00663634Y-00253658*
X0066389Y-0025381*
X0066639Y-00254696*
X00669024Y-00256439*
X00669459Y-00255782*
X0068663Y-00261862*
X00686659Y-00261866*
X0068666Y-00261868*
X00693014Y-00263132*
X00693016Y-00263086*
X00693049Y-0026306*
X00704002Y-00263388*
X00704915Y-002643*
X00710061Y-00266432*
X0071563*
X00720776Y-002643*
X00724714Y-00260362*
X00726845Y-00255217*
Y-00249647*
X00724714Y-00244501*
X00720776Y-00240563*
X0071905Y-00239848*
X00719023Y-00237672*
X00719301Y-00237549*
X0072278Y-00235098*
X00725962*
X00731108Y-00232966*
X00735046Y-00229028*
X00737178Y-00223882*
Y-00218313*
X00735046Y-00213167*
X00731108Y-00209229*
X00725962Y-00207098*
X00720393*
X00715247Y-00209229*
X00711309Y-00213167*
X00709804Y-00216801*
X00707203Y-00218633*
X00707081Y-00218583*
X00706335Y-00218892*
X00687694Y-00216639*
X00665477Y-00201934*
X0066381Y-00200829*
X00663627Y-00200708*
X00657599Y-00196718*
X00658064Y-00194773*
X00660509Y-00194488*
X00665002Y-00196349*
X00670571*
X00675717Y-00194218*
X00676538Y-00193397*
X00679658*
X00682278Y-00196017*
X00682279*
X00685917Y-00198449*
X00689472Y-00199156*
X00701616Y-00207193*
X00714758Y-00187338*
X00714757Y-00187337*
X00725623Y-00170921*
X00709869Y-00160494*
X00707209Y-00157834*
X00707146Y-00157792*
X00707102Y-00157729*
X00705332Y-00156579*
X00703571Y-00155403*
X00703496Y-00155388*
X00703432Y-00155346*
X00700064Y-00154004*
X00697888Y-00152564*
X00697588Y-00153017*
X00685665Y-00148264*
X00685374Y-0014756*
X00681436Y-00143622*
X0067629Y-00141491*
G37*
G36*
X00144408Y-00258353D02*
X00122062Y-00292114D01*
X00086073Y-00281599*
X00085199Y-00277181*
X00083915Y-0027407*
X00081537Y-00271687*
X00078429Y-00270396*
X00075063Y-00270392*
X0006058Y-00273257*
X00057469Y-00274542*
X00055086Y-00276919*
X00054892Y-00277387*
X0005293Y-00277775*
X00052573Y-00277418*
X00049465Y-00276126*
X00046099Y-00276123*
X00031616Y-00278988*
X00028505Y-00280272*
X00026122Y-0028265*
X00024831Y-00285758*
X00024828Y-00289124*
X00027845Y-00304379*
X0002913Y-0030749*
X00031507Y-00309873*
X0003287Y-00310439*
X00033722Y-00314724*
X00038364Y-0032167*
X0004531Y-00326312*
X00050176Y-0032728*
X00050608Y-00327711*
X00055753Y-00329842*
X00061323*
X00066468Y-00327711*
X00070406Y-00323772*
X00072538Y-00318627*
Y-00313057*
X00070406Y-00307912*
X00069271Y-00306776*
X00069852Y-00304862*
X00079309Y-00302992*
X00111655Y-00312442*
X0013709Y-00329277*
X00138469Y-00330818*
X00130462Y-00342915*
X00128685Y-00342374*
X00128542Y-00342279*
X0010095Y-00324017*
X00090084Y-00340433*
X00090083*
X00080269Y-0035526*
X00078279Y-00355461*
X00075023Y-00352204*
X00073386Y-00348253*
X00069448Y-00344315*
X00064302Y-00342184*
X00058733*
X00053587Y-00344315*
X00049649Y-00348253*
X00047518Y-00353399*
Y-00358968*
X00049649Y-00364114*
X00053587Y-00368052*
X00058733Y-00370184*
X0006128*
X00066764Y-00375668*
X0006608Y-00376702*
X00055215Y-00393117*
X00079508Y-00409196*
X00063428Y-00433489*
X00079845Y-00444355*
X00079842Y-00444358*
X00099698Y-00457501*
X000997Y-00457497*
X00116113Y-00468361*
X00134471Y-00440626*
X00114615Y-00427484*
X00114613Y-00427487*
X00102834Y-00419691*
X00103051Y-00417436*
X00105095Y-00416589*
X00109034Y-00412651*
X00111165Y-00407506*
Y-00401936*
X00109034Y-0039679*
X00105095Y-00392852*
X0009995Y-00390721*
X00098799*
X00097853Y-00388959*
X00106957Y-00375203*
X00106955Y-00375202*
X00115247Y-00362674*
X0011721Y-00363332*
X00136881Y-00376352*
X00147746Y-00359937*
X00147749Y-00359938*
X00160891Y-00340082*
X00160887Y-0034008*
X00169475Y-00327105*
X00169476Y-00327106*
X00182618Y-0030725*
X00162946Y-00294229*
X00162762Y-00294108*
X0016157Y-00292683*
X00172143Y-0027671*
X00144408Y-00258353*
G37*
G36*
X00584227Y-00294077D02*
X00578657D01*
X00573512Y-00296209*
X00569573Y-00300147*
X00567578Y-00304965*
X00566812Y-00305713*
X00565796Y-00306392*
X00563308Y-00305361*
X00557738*
X00552593Y-00307493*
X00548654Y-00311431*
X00548117Y-00312729*
X00545912Y-00313125*
X00544954Y-00312181*
Y-00309971*
X00542823Y-00304825*
X00538884Y-00300887*
X00533739Y-00298756*
X00528169*
X00523024Y-00300887*
X00519085Y-00304825*
X00516954Y-00309971*
Y-00315541*
X00519085Y-00320686*
X00523024Y-00324624*
X0052709Y-00326309*
X00553347Y-0036138*
X00551953Y-00362856*
X00535308Y-00351839*
X00524442Y-00368256*
X0052444Y-00368255*
X00511298Y-0038811*
X00511299Y-00388111*
X00500435Y-00404525*
X0048957Y-00420941*
X0050924Y-0043396*
X00509425Y-00434083*
X00510612Y-00435511*
X00500042Y-00451481*
X00516453Y-00462343*
X00520648Y-00466291*
X00522437Y-00467975*
X00522467Y-00469975*
X00520646Y-00471796*
X00518515Y-00476941*
Y-00480251*
X00516753Y-00481198*
X00491455Y-00464454*
X00480589Y-0048087*
X00480588Y-00480869*
X00470018Y-00496838*
X00468057Y-00496177*
X00448385Y-00483156*
X00435243Y-00503012*
X00435245Y-00503014*
X0042438Y-00519428*
X00424382Y-00519429*
X00416897Y-00530736*
X00415793Y-00532404*
X00402651Y-0055226*
X00400947Y-00553038*
X00396367Y-00554936*
X00392429Y-00558874*
X00390298Y-00564019*
Y-00569589*
X00392429Y-00574735*
X00396367Y-00578673*
X00401513Y-00580804*
X00407082*
X00408075Y-00580393*
X0041143Y-00581734*
X00412199Y-00584196*
X0040802Y-0059051*
X0040603Y-0059071*
X00405136Y-00589816*
X0039999Y-00587685*
X00394421*
X00389275Y-00589816*
X00385337Y-00593754*
X00383205Y-005989*
Y-00602864*
X00382637Y-00603169*
X00380698Y-00603599*
X00364281Y-00592733*
X00364282*
X00344426Y-00579591*
X00326738Y-00606314*
X00324483Y-00606097*
X00323406Y-00603497*
X00319468Y-00599559*
X00315924Y-00598091*
X00315166Y-00595612*
X00331453Y-00571005*
X00315039Y-00560141*
Y-00560139*
X00295184Y-00546997*
X00276826Y-00574732*
X00293241Y-00585597*
X0029324Y-00585598*
X00308321Y-0059558*
X00307976Y-00597749*
X00303607Y-00599559*
X00302954Y-00600212*
X0020767*
X00165218Y-00579228*
X00134006Y-00558595*
X00134317Y-00555595*
X0013185Y-00547303*
X00126397Y-00540585*
X00118789Y-00536466*
X00110184Y-00535572*
X00101891Y-00538039*
X00095174Y-00543492*
X00091054Y-005511*
X0009016Y-00559706*
X00092627Y-00567998*
X0009808Y-00574716*
X00105688Y-00578835*
X00114294Y-00579729*
X00121884Y-00577471*
X0012871Y-00581983*
X00128036Y-00583866*
X00124438Y-00583492*
X00116145Y-0058596*
X00109428Y-00591412*
X00105309Y-00599021*
X00104415Y-00607626*
X00106882Y-00615919*
X00112335Y-00622636*
X00119943Y-00626755*
X00128548Y-0062765*
X00136841Y-00625183*
X00137688Y-00624495*
X00168097Y-00641159*
X00168553Y-00641303*
X00170099Y-00642336*
X00175734Y-00643457*
X00176608Y-00643703*
X00248667Y-00649396*
X00249112Y-00649344*
X00249551Y-00649431*
X00337939*
X00338592Y-00650084*
X00343738Y-00652215*
X00349308*
X00354453Y-00650084*
X00358391Y-00646146*
X00360523Y-00641*
Y-00635431*
X00358869Y-00631438*
X00360483Y-00630107*
X00378755Y-00642201*
X00394835Y-00617907*
X00419127Y-00633985*
X00429991Y-00617571*
X00429993Y-00617572*
X00443135Y-00597717*
X00451724Y-0058474*
X00462589Y-00568324*
X0046259Y-00568325*
X00475732Y-00548469*
X00448181Y-00530234*
X00446806Y-00528687*
X00454807Y-00516599*
X00456585Y-00517138*
X00456768Y-00517259*
X0048432Y-00535495*
X00497462Y-00515639*
X0049746Y-00515638*
X00506046Y-00502666*
X00506048Y-00502667*
X00517675Y-00485099*
X00519666Y-00485291*
X00520646Y-00487656*
X00524584Y-00491595*
X0052973Y-00493726*
X005353*
X00540445Y-00491595*
X00544383Y-00487656*
X00546515Y-00482511*
Y-00476941*
X00545494Y-00474478*
X00546753Y-00470447*
X00549033Y-00469226*
X00549869Y-00469573*
X00553338*
X00554674Y-00471573*
X00553808Y-00473663*
Y-00479233*
X0055594Y-00484378*
X00559878Y-00488316*
X00565023Y-00490448*
X00570593*
X00575739Y-00488316*
X00579677Y-00484378*
X00581808Y-00479233*
Y-00477097*
X00583004Y-00475646*
X00583454Y-00474808*
X00587015Y-00469479*
X00587409Y-00467498*
X00587534Y-0046727*
X00589981Y-00459412*
X00590072Y-0045856*
X00591366Y-00452055*
X00589463Y-00442487*
X00584043Y-00434376*
X00581445Y-0043264*
X00580861Y-00432012*
X00564579Y-00420236*
X00565149Y-00418318*
X00570626Y-00418052*
X00570628Y-00418079*
X00573958Y-00417416*
X00575245Y-00417335*
X00583707Y-00415089*
X00585341Y-00414655*
X00587294Y-00414496*
X00587636Y-00414354*
X00587784Y-00414155*
X00588826Y-00414062*
X00591305Y-00413991*
X00591714Y-00414399*
X0059686Y-00416531*
X00602429*
X00607575Y-00414399*
X00611513Y-00410461*
X00613644Y-00405315*
Y-00401807*
X00615644Y-00400641*
X00640513Y-00414729*
X00643987Y-00415877*
X00647637Y-00415608*
X00650906Y-00413963*
X00653296Y-00411192*
X00662757Y-00394492*
X00663905Y-00391018*
X00663636Y-00387368*
X0066199Y-00384099*
X00659219Y-00381709*
X00645516Y-00373946*
X00644303Y-00364661*
X00646071Y-00360393*
Y-00354824*
X00643939Y-00349678*
X00640001Y-0034574*
X00634855Y-00343608*
X00629286*
X0062414Y-0034574*
X00620202Y-00349678*
X00618071Y-00354824*
Y-00360393*
X00620202Y-00365539*
X00621851Y-00367188*
X0062185Y-00367193*
X0061946Y-00369964*
X00609999Y-00386663*
X00609107Y-00389365*
X00608763Y-00389657*
X00607273Y-0039032*
X00606863Y-00390367*
X00602429Y-00388531*
X0059686*
X00591714Y-00390662*
X00590812Y-00391565*
X00586638Y-00391685*
X00586636Y-00391601*
X00583106Y-00392304*
X00581805Y-00392386*
X00571468Y-0039513*
X0056952Y-00395332*
X0056837Y-00395578*
X00567523Y-00395743*
X00565654Y-00395532*
X00545966Y-00382501*
X00544596Y-00380948*
X00552588Y-00368873*
X00554367Y-00369404*
X00554553Y-00369527*
X00582102Y-00387761*
X00595244Y-00367906*
X00595243Y-00367905*
X00603831Y-00354929*
X00603833Y-0035493*
X00616975Y-00335075*
X00616973Y-00335074*
X00627838Y-00318658*
X00600104Y-003003*
X0059729Y-00304551*
X00595041Y-00304325*
X00593311Y-00300147*
X00589372Y-00296209*
X00584227Y-00294077*
G37*
G36*
X-00068344Y-00461935D02*
X-00073914D01*
X-00079059Y-00464067*
X-00082998Y-00468005*
X-00085129Y-0047315*
Y-0047872*
X-00082998Y-00483866*
X-00079059Y-00487804*
X-00073914Y-00489935*
X-00068344*
X-00063199Y-00487804*
X-00060535Y-0048514*
X-00058574Y-00485531*
X-00057992Y-00486936*
X-00054053Y-00490874*
X-00048908Y-00493006*
X-00043338*
X-00038193Y-00490874*
X-00034254Y-00486936*
X-00032123Y-0048179*
Y-00476221*
X-00034254Y-00471075*
X-00038193Y-00467137*
X-00043338Y-00465006*
X-00048908*
X-00054053Y-00467137*
X-00056717Y-004698*
X-00058678Y-0046941*
X-0005926Y-00468005*
X-00063199Y-00464067*
X-00068344Y-00461935*
G37*
G36*
X00213108Y-00492676D02*
X00194751Y-00520411D01*
X00214606Y-00533553*
X00232964Y-00505818*
X00213108Y-00492676*
G37*
G36*
X00071775Y-00492777D02*
X00062732Y-00495468D01*
X00055406Y-00501414*
X00050914Y-00509711*
X00049939Y-00519096*
X0005263Y-00528139*
X00058576Y-00535464*
X00066873Y-00539956*
X00076257Y-00540932*
X00085301Y-00538241*
X00092626Y-00532295*
X00097118Y-00523998*
X00098093Y-00514613*
X00095403Y-0050557*
X00089456Y-00498245*
X00081159Y-00493753*
X00071775Y-00492777*
G37*
G36*
X00245937Y-00514404D02*
X0023008Y-00538362D01*
X00225831Y-00542611*
X002213Y-00540735*
X00215731*
X00210585Y-00542866*
X00206647Y-00546804*
X00204516Y-0055195*
Y-00557519*
X00206647Y-00562665*
X00210585Y-00566603*
X00215731Y-00568735*
X002213*
X00226446Y-00566603*
X00228382Y-00564667*
X00230077Y-005658*
X0022873Y-00569052*
Y-00574622*
X00230862Y-00579767*
X002348Y-00583706*
X00239946Y-00585837*
X00245515*
X00250661Y-00583706*
X00254599Y-00579767*
X0025673Y-00574622*
Y-00570461*
X0026137Y-00564509*
X00263846Y-00566147*
X00282204Y-00538413*
X00265791Y-00527549*
X00265793Y-00527546*
X00245937Y-00514404*
G37*
G36*
X00031895Y-00541459D02*
X00026326D01*
X0002118Y-0054359*
X00017242Y-00547528*
X0001511Y-00552674*
Y-00558244*
X00017242Y-00563389*
X0002118Y-00567327*
X00026326Y-00569459*
X00031895*
X00032258Y-00569309*
X00042236Y-00573971*
X00044701Y-00582254*
X00050154Y-00588971*
X00057762Y-00593091*
X00066367Y-00593985*
X0007466Y-00591518*
X00081377Y-00586065*
X00085497Y-00578457*
X00086391Y-00569851*
X00083924Y-00561558*
X00078471Y-00554841*
X00070863Y-00550722*
X00062257Y-00549828*
X00053964Y-00552295*
X0005209Y-00553816*
X00041542Y-00548888*
X00040979Y-00547528*
X00037041Y-0054359*
X00031895Y-00541459*
G37*
G36*
X00076516Y-00597752D02*
X00068223Y-00600219D01*
X00061506Y-00605672*
X00059042Y-00610223*
X00014542Y-00613976*
X00013874Y-00612976*
X00011075Y-00611106*
X00007774Y-0061045*
X-00007777*
X-00011078Y-00611106*
X-00013877Y-00612976*
X-00015747Y-00615775*
X-00016403Y-00619076*
Y-0063384*
X-00015747Y-00637141*
X-00013877Y-0063994*
X-00013454Y-00640223*
Y-00642223*
X-00013875Y-00642504*
X-00015745Y-00645303*
X-00015771Y-00645435*
X-00024571Y-00645812*
X-00024966Y-00645135*
X-00027645Y-00643097*
X-000309Y-0064224*
X-00047601Y-00641219*
X-00050936Y-00641673*
X-00053844Y-00643368*
X-00055881Y-00646048*
X-00056738Y-00649303*
X-00057639Y-00664039*
X-00057185Y-00667374*
X-0005549Y-00670281*
X-00052811Y-00672319*
X-00049556Y-00673176*
X-00032855Y-00674197*
X-0002952Y-00673743*
X-00026612Y-00672048*
X-00024575Y-00669369*
X-0002428Y-00668251*
X-00014955Y-00667852*
X-00013875Y-00669468*
X-00011076Y-00671338*
X-00007775Y-00671994*
X00007776*
X00011077Y-00671338*
X00013876Y-00669468*
X0001553Y-00666991*
X00020157Y-00666928*
X00020694Y-00667465*
X00025839Y-00669596*
X00031409*
X00036554Y-00667465*
X00040493Y-00663527*
X00042624Y-00658381*
Y-00652812*
X00040493Y-00647666*
X00036554Y-00643728*
X00031409Y-00641596*
X00025839*
X00020694Y-00643728*
X00019923Y-00644498*
X00015251Y-00644562*
X00013876Y-00642504*
X00013453Y-00642221*
Y-00640221*
X00013874Y-0063994*
X00015744Y-00637141*
X00015897Y-00636372*
X00060906Y-00632576*
X00064412Y-00636896*
X00072021Y-00641015*
X00080626Y-00641909*
X00088919Y-00639442*
X00095636Y-0063399*
X00099755Y-00626381*
X0010065Y-00617776*
X00098183Y-00609483*
X0009273Y-00602766*
X00085121Y-00598646*
X00076516Y-00597752*
G37*
G36*
X00213646Y-00654766D02*
X00208076D01*
X00202931Y-00656898*
X00198993Y-00660836*
X00196861Y-00665982*
Y-00671551*
X00198993Y-00676697*
X00202931Y-00680635*
X00208076Y-00682766*
X00213646*
X00218792Y-00680635*
X0022273Y-00676697*
X00224861Y-00671551*
Y-00665982*
X0022273Y-00660836*
X00218792Y-00656898*
X00213646Y-00654766*
G37*
G36*
X00138696Y-00631418D02*
X00130403Y-00633885D01*
X00123686Y-00639338*
X00119567Y-00646946*
X00118673Y-00655552*
X0012114Y-00663845*
X00126593Y-00670562*
X00134201Y-00674681*
X00142806Y-00675575*
X00151099Y-00673108*
X00156971Y-00668342*
X00158085Y-00667768*
X00159672Y-00668429*
X00162634Y-00671391*
X00164113Y-00672004*
X0016401Y-00674001*
X00158101Y-00675759*
X00150775Y-00681706*
X00146283Y-00690003*
X00145308Y-00699387*
X00147999Y-0070843*
X00153945Y-00715756*
X00162242Y-00720248*
X00171626Y-00721223*
X0018067Y-00718533*
X00187995Y-00712586*
X00192487Y-00704289*
X00193462Y-00694905*
X00190772Y-00685861*
X00184826Y-00678536*
X0017687Y-00674229*
X00176681Y-00672962*
X00176804Y-00672092*
X00178494Y-00671391*
X00182433Y-00667453*
X00184564Y-00662307*
Y-00656738*
X00182433Y-00651592*
X00178494Y-00647654*
X00173349Y-00645523*
X00167779*
X00163663Y-00647228*
X00161317Y-00646357*
X00160363Y-00643149*
X0015491Y-00636432*
X00147302Y-00632312*
X00138696Y-00631418*
G37*
G36*
X00090466Y-00695877D02*
X00081423Y-00698568D01*
X00074098Y-00704514*
X00069606Y-00712811*
X00068631Y-00722196*
X00071321Y-00731239*
X00077267Y-00738564*
X00085564Y-00743056*
X00094949Y-00744031*
X00103992Y-00741341*
X00111317Y-00735395*
X00115809Y-00727098*
X00116785Y-00717713*
X00114094Y-0070867*
X00108148Y-00701345*
X00099851Y-00696852*
X00090466Y-00695877*
G37*
%LNflagmate_copper_signal_top-3*%
%LPD*%
%SRX1Y1I0J0*%
G36*
X-0039311Y00333362D02*
X-00392646Y00333043D01*
X-00392599Y00333112*
X-00370668Y00322395*
X-0037064Y0032237*
X-00331614Y00293227*
X-0033137Y00291242*
X-00352375Y00265533*
X-00361427Y00253074*
X-00374177Y00233811*
X-00380169Y00223937*
X-00385901Y00213908*
X-00393131Y0020031*
X-00399882Y00186468*
X-00406146Y00172399*
X-00406078Y00169334*
X-00406685Y00167299*
X-00405718Y00157914*
X-00405239Y00157028*
X-00403913Y00151017*
X-00397772Y0014005*
X-00360331Y00092215*
X-00326234Y00081339*
X-00297125Y00074082*
X-00298962Y00066278*
X-00300074Y00061051*
X-00301569Y00053175*
X-00302857Y00045262*
X-00304543Y00032009*
X-00304811Y0002935*
X-00305475Y00021361*
X-00306034Y00010687*
X-00306209Y00002672*
Y-00002672*
X-0029612Y-00007754*
X-00295587Y-00007872*
X-00294515Y-00008631*
X-00291232Y-00009374*
X-00288494Y-00009446*
X-00286047Y-00009989*
X-00275842Y-00014456*
X-00275548Y-00019268*
X-00274949Y-00026475*
X-00274445Y-00031269*
X-00273858Y-00036054*
X-0027282Y-00043211*
X-00330682Y-00052375*
X-00332297Y-00051196*
X-00332528Y-00049697*
X-00333715Y-00040975*
X-00334673Y-00032225*
X-00335402Y-00023454*
X-00335901Y-00014666*
X-00336208Y-00002934*
X-00336016Y00011734*
X-0033576Y00017596*
X-00335185Y0002638*
X-0033406Y00038061*
X-00333345Y00043886*
X-00368045Y00048454*
X-00382462Y00053752*
X-00449259Y00172454*
X-00465789Y0022662*
X-00457208Y00239105*
X-00472888Y00249881*
X-00473455Y0025174*
X-00464378Y00262911*
X-00448397Y00251927*
X-0043491Y0027155*
X-00434911Y00271551*
X-00426099Y00284373*
X-00426095Y0028437*
X-00415589Y00299656*
X-00414415Y00299873*
X-00412634Y00299136*
X-00411552Y00295949*
X-00409333Y00293418*
X-0039762Y0028443*
X-00394601Y00282942*
X-00391243Y00282722*
X-0039076Y00282885*
X-00389173Y00281668*
X-00389207Y0028116*
X-00389109Y00280873*
X-0039627Y00270751*
X-00398383Y00268638*
X-00400515Y00263492*
Y00257923*
X-00398383Y00252777*
X-00394445Y00248839*
X-003893Y00246708*
X-0038373*
X-00378584Y00248839*
X-00374646Y00252777*
X-00373773Y00254885*
X-00366475Y00265201*
X-00364628Y00265828*
X-00362097Y00268047*
X-0035263Y00280385*
X-00351142Y00283404*
X-00350921Y00286762*
X-00352003Y00289949*
X-00354223Y0029248*
X-00365936Y00301468*
X-00368954Y00302956*
X-00372313Y00303176*
X-00372796Y00303013*
X-00374382Y0030423*
X-00374349Y00304738*
X-00375431Y00307925*
X-0037765Y00310456*
X-00389363Y00319443*
X-00392382Y00320932*
X-0039574Y00321152*
X-00398928Y0032007*
X-00399762Y00319338*
X-00401464Y00320219*
X-00410308Y00326297*
X-00410681Y0032898*
X-00403109Y00338248*
X-0039311Y00333362*
G37*
G36*
X-00447026Y00058744D02*
X-00446752Y00058334D01*
X-00386886Y-00001532*
X-00387643Y-00003383*
X-00416205Y-00003632*
X-00416158Y-00007264*
X-00416078Y-00010895*
X-00415836Y-00017843*
X-00416826Y-00018648*
X-00417553Y-00019006*
X-0042226Y-00014971*
X-00422286Y-00014956*
X-00422305Y-00014933*
X-00422336Y-00014906*
X-00423145Y-00014457*
X-0042723Y-00011727*
X-00427254Y-00011781*
X-00436607Y-0000751*
X-00436608Y-00007509*
X-00438587Y-00006606*
X-00438784Y-00006559*
X-00438952Y-00006447*
X-00440907Y-00006058*
X-00442846Y-000056*
X-00443046Y-00005632*
X-00443244Y-00005593*
X-00445419*
X-00539191*
X-00539956Y-00003745*
X-00539331Y-0000312*
X-005372Y00002025*
Y00007595*
X-00539331Y00012741*
X-0054327Y00016679*
X-00548415Y0001881*
X-00553985*
X-0055913Y00016679*
X-00563069Y00012741*
X-005652Y00007595*
Y00002025*
X-00563069Y-0000312*
X-00562444Y-00003745*
X-00563209Y-00005593*
X-00566632*
X-00566633*
X-00570924Y-00006447*
X-00574563Y-00008878*
X-00610268Y-00044583*
X-00611192*
X-00616337Y-00046714*
X-00620276Y-00050653*
X-00622407Y-00055798*
Y-00061368*
X-00620276Y-00066513*
X-00616337Y-00070451*
X-00611192Y-00072583*
X-00605622*
X-00600477Y-00070451*
X-00596538Y-00066513*
X-00594407Y-00061368*
Y-00060444*
X-00561987Y-00028024*
X-00445684*
X-00440192Y-00030532*
X-00438687Y-00031219*
X-00437088Y-0003228*
X-0043669Y-00032445*
X-00435111Y-00033499*
X-00426997Y-00040454*
X-00427184Y-00042928*
X-00428774Y-00044618*
X-00429902Y-00047597*
X-00429805Y-00050781*
X-00425394Y-00069885*
X-00424086Y-0007279*
X-00421766Y-00074973*
X-00418786Y-00076101*
X-00415602Y-00076004*
X-00410878Y-00074913*
X-00409206Y-0007601*
X-00408574Y-00079419*
X-00407126Y-00086537*
X-00405553Y-00093629*
X-00402963Y-00104213*
X-00401066Y-00111054*
X-00402089Y-00112773*
X-00406858Y-00113874*
X-00409763Y-00115182*
X-00411946Y-00117502*
X-00413074Y-00120482*
X-00412977Y-00123666*
X-00408567Y-00142769*
X-00407258Y-00145674*
X-00404938Y-00147857*
X-00403068Y-00148566*
X-00403072Y-00150703*
X-00436696Y-00163274*
X-00452482Y-00169176*
X-00454112Y-0016765*
X-00452186Y-00161224*
X-00451956Y-00153428*
X-00453752Y-00145838*
X-00457452Y-00138971*
X-00462802Y-00133296*
X-00469439Y-00129199*
X-0047691Y-0012696*
X-00484706Y-0012673*
X-00492296Y-00128526*
X-00499163Y-00132225*
X-00504838Y-00137576*
X-00508935Y-00144213*
X-00511175Y-00151684*
X-00511404Y-0015948*
X-00509608Y-0016707*
X-00505909Y-00173937*
X-00500558Y-00179612*
X-00495106Y-00182977*
X-00495323Y-00185194*
X-00502263Y-00187789*
X-00498909Y-00196526*
X-00495404Y-00205203*
X-00491747Y-00213818*
X-00484389Y-0023*
X-00477776Y-00243439*
X-00473455Y-0025174*
X-00464381Y-00268111*
X-00457204Y-00280175*
X-00444547Y-00299851*
X-00433812Y-00315183*
X-00425413Y-00326431*
X-00419651Y-00333805*
X-00439216Y-00349368*
X-00458781Y-00364931*
X-00445766Y-0038072*
X-00429024Y-00399478*
X-00432286Y-00404908*
X-0041161Y-00417332*
X-00399802Y-00428735*
X-00392258Y-00435647*
X-0038072Y-00445766*
X-00372882Y-00452342*
X-00364931Y-00458781*
X-00356869Y-0046508*
X-00348698Y-00471238*
X-00344572Y-00474263*
X-0034042Y-00477252*
X-00338878Y-00478342*
X-00337391Y-00479442*
X-00351552Y-00500045*
X-00362985Y-00516681*
X-00363262Y-00517984*
X-00364002Y-00519092*
X-00363885Y-00519682*
X-00368224Y-00525878*
X-00370531Y-00525686*
X-00371141Y-00524404*
X-00373496Y-00522282*
X-00381783Y-00517347*
X-00382459Y-00516806*
X-00384249Y-00515878*
X-00390409Y-0051221*
X-00392819Y-00511355*
X-00393162Y-00511126*
X-00401356Y-00509496*
X-00403301Y-00509883*
X-00403853Y-00509839*
X-00410116Y-00510582*
X-00418849Y-00511517*
X-00429429Y-00502796*
X-00450952Y-00483586*
X-00459323Y-00475643*
X-00475643Y-00459323*
X-00483586Y-00450952*
X-00491383Y-00442443*
X-0049903Y-004338*
X-00506525Y-00425025*
X-00513865Y-0041612*
X-00517438Y-00411588*
X-00525303Y-00417845*
X-00555498Y-00441863*
X-00557485Y-00441632*
X-0056045Y-00437871*
X-0056425Y-00432964*
X-0057172Y-0042305*
X-00582598Y-0040794*
X-00593077Y-00392549*
X-00599838Y-00382139*
X-00609635Y-00366306*
X-00619015Y-00350222*
X-00624938Y-00339314*
X-0063697Y-00345846*
X-00638886Y-00345274*
X-00641215Y-0034094*
X-00644166Y-00335332*
X-0064992Y-00324038*
X-00652723Y-00318354*
X-00654861Y-00313923*
X-00654197Y-00312036*
X-00641645Y-00306047*
X-00649733Y-0028928*
X-00659433Y-00266428*
X-00667818Y-00244584*
X-00666988Y-00242764*
X-00621274Y-00226124*
X-00623294Y-0022072*
X-00628859Y-00204328*
X-00635606Y-00182257*
X-00642951Y-00154359*
X-00649072Y-00126167*
X-00653958Y-00097735*
X-00654736Y-00092017*
X-00652003Y-00074286*
X-00634671Y-0004438*
X-00615846Y-00021506*
X-00601198Y-00005247*
X-00581133Y00010144*
X-00560879Y00019586*
X-00540479Y00028325*
X-00519951Y00036358*
X-00506437Y00041156*
X-00505805Y0003963*
X-00501867Y00035692*
X-00496721Y00033561*
X-00491152*
X-00486006Y00035692*
X-00482068Y0003963*
X-00479937Y00044776*
Y0004987*
X-00478585Y00050301*
X-00457783Y00056209*
X-00447162Y00058856*
X-00447026Y00058744*
G37*
G36*
X-00205829Y-00160811D02*
X-00204434Y-00162614D01*
X-00200107Y-0016791*
X-00192592Y-00176478*
X-00187907Y-00181459*
X-00184711Y-00184711*
X-00183092Y-00186316*
X-0030294Y-00466486*
X-00345207Y-00531572*
X-00346115Y-00531686*
X-00354615Y-00526476*
X-00356316Y-00525849*
X-00357313Y-00520837*
X-00357633Y-00520359*
X-00346199Y-00503723*
X-00332039Y-0048312*
X-00326375Y-00474879*
X-00330507Y-00472013*
X-00342749Y-00463199*
X-00346779Y-0046019*
X-00354757Y-00454068*
X-00366522Y-00444626*
X-00374226Y-00438162*
X-00385567Y-00428216*
X-00396644Y-00417976*
X-00403879Y-0041099*
X-00410959Y-00403848*
X-00234835Y-00147668*
X-00205829Y-00160811*
G37*
G36*
X-00071144Y-00256539D02*
X-00068903Y-0025715D01*
X-00066656Y-00257741*
X-00064405Y-00258313*
X-0006129Y-00259061*
X-00060279Y-00260787*
X-00138804Y-00538899*
X-00141032Y-0054679*
X-00141584Y-00546644*
X-00143198Y-00546864*
X-00144809Y-00546623*
X-0014557Y-00547187*
X-00146509Y-00547314*
X-00147495Y-00548611*
X-00148804Y-0054958*
X-00155133Y-00560112*
X-00160206Y-00558706*
X-0016726Y-00556582*
X-00233465Y-00516803*
X-00233565Y-00516484*
X-00233702Y-00516321*
X-00233696Y-00516109*
X-00235281Y-00514439*
X-0023676Y-00512676*
X-00236971Y-00512657*
X-00237118Y-00512503*
X-00238701Y-00511799*
X-00243106Y-00509721*
X-00251993Y-00505386*
X-00256369Y-00503181*
X-00265134Y-00498618*
X-00269489Y-00496278*
X-00271954Y-0049603*
X-00274408Y-00495772*
X-0027442Y-00495781*
X-00274435Y-0049578*
X-00276356Y-0049735*
X-00278271Y-004989*
X-00283801Y-00509086*
X-00283964Y-00510632*
X-00284171Y-00510862*
X-00285277Y-00513982*
X-00298606Y-00536364*
X-00298626Y-00536501*
X-00298733Y-00536588*
X-00310975Y-00559134*
X-00312896Y-0055969*
X-00315752Y-0055809*
X-0031938Y-00556017*
X-00319902Y-00554086*
X-00288111Y-00499022*
X-00278111Y-00481702*
X-0007338Y-00255908*
X-00071144Y-00256539*
G37*
G36*
X-00309168Y-00585721D02*
X-00307031Y-00587647D01*
X-00290118Y-00597719*
X-0028713Y-00598779*
X-00284Y-00598616*
X-00282954Y-00598891*
X-00280853Y-00598605*
X-00279444Y-0059927*
X-00274188Y-00601651*
X-00270685Y-00593963*
X-00270651Y-00593957*
X-00265509Y-00596274*
X-00265463Y-00596275*
X-00265431Y-00596308*
X-00260704Y-00598364*
X-00258906Y-00598395*
X-00258574Y-00598617*
X-00255899Y-00599149*
X-00242714Y-00604611*
X-00240447Y-00606125*
X-00240032Y-00606208*
X-00238761Y-00607424*
X-00228665Y-0061135*
X-00229233Y-00613112*
X-00252074Y-00674202*
X-00253906Y-00675004*
X-00293347Y-00658868*
X-00297793Y-00656865*
X-00298498Y-00654994*
X-00288748Y-00633601*
X-00287785Y-00634*
X-00282215*
X-0027707Y-00631869*
X-00273131Y-0062793*
X-00271Y-00622785*
Y-00617215*
X-00273131Y-0061207*
X-0027707Y-00608131*
X-00282215Y-00606*
X-00287785*
X-0029293Y-00608131*
X-00296869Y-00612069*
X-00299035Y-00612074*
X-00309268Y-00606972*
X-00318554Y-00602138*
X-00319147Y-00600228*
X-00311473Y-00585795*
X-00310449Y-00585663*
X-00309168Y-00585721*
G37*
G36*
X-00268172Y-00504358D02*
X-00259329Y-00508962D01*
X-00254878Y-00511205*
X-00245917Y-00515576*
X-00241408Y-00517702*
X-00239759Y-00518436*
X-00239158Y-00520344*
X-00239429Y-00520796*
X-0015457Y-00571784*
X-00143238Y-00552925*
X-00138191Y-00554253*
X-00123616Y-00557596*
X-00113883Y-00559754*
X-00089359Y-00564188*
X-00069603Y-00566877*
X-00078581Y-00639994*
X-00080163Y-00641219*
X-00089937Y-00639932*
X-00101091Y-00638265*
X-00117764Y-006354*
X-00145368Y-00629658*
X-00167254Y-00624202*
X-00183537Y-00619609*
X-00194322Y-00616312*
X-00205049Y-00612827*
X-00215713Y-00609155*
X-00226311Y-00605297*
X-00236408Y-00601371*
X-00236839Y-00600725*
X-00239638Y-00598855*
X-00254005Y-00592904*
X-00257306Y-00592247*
X-00258114Y-00592408*
X-00262842Y-00590352*
X-00267983Y-00588036*
X-00273105Y-00585675*
X-00274426Y-00585052*
X-00275047Y-00583987*
X-00275063Y-00583668*
X-00276427Y-00580807*
X-00278782Y-00578684*
X-00295695Y-00568612*
X-00298683Y-00567553*
X-00301849Y-00567717*
X-00304711Y-00569081*
X-00305187Y-0056961*
X-00307101Y-00568581*
X-00307674Y-00566664*
X-00293026Y-00539687*
X-0027937Y-00516755*
X-0027805Y-00513033*
X-00278094Y-00512185*
X-00272563Y-00501999*
X-00268172Y-00504358*
G37*
G54D10*
X-00458774Y-00584801D03*
G54D11*
X00377034Y00236863D02*
D01*
D01*
G75*
G03X00378426Y00245752I-00005840J00005468D01*
G74*G01*
X00373946Y00233601D02*
D01*
D01*
G75*
G03X0037439Y00234039I-00005546J00006066D01*
G74*G01*
X00357811Y00219558D02*
D01*
D01*
G75*
G03X00360235Y00221079I-00002968J00007422D01*
G74*G01*
X00337107Y0021416D02*
D01*
D01*
G75*
G03X00343546Y00213916I00003496J00007195D01*
G74*G01*
X00286994Y00432407D02*
D01*
D01*
G75*
G03X00287067Y00436862I-00007641J00002353D01*
G74*G01*
X00261321Y00394983D02*
D01*
D01*
G75*
G03X00262011Y00400776I-00011686J00004329D01*
G74*G01*
X00256555Y00382113D02*
D01*
D01*
G75*
G03X00256757Y00376065I00007496J-00002776D01*
G74*G01*
X00371008Y00259846D02*
X00377018Y00248428D01*
X00378426Y00245752*
X0037439Y00234039D02*
X00377034Y00236863D01*
X00360235Y00221079D02*
X00373946Y00233601D01*
X00357783Y00219547D02*
X00357811Y00219558D01*
X00343546Y00213916D02*
X00357783Y00219547D01*
X00337078Y00214175D02*
X00337107Y0021416D01*
X00329616Y00217838D02*
X00337078Y00214175D01*
X00318419Y00223336D02*
X00329616Y00217838D01*
X00184376Y00535364D02*
X00205867Y00527306D01*
X00174593Y00539032D02*
X00184376Y00535364D01*
X00256542Y-00554118D02*
X00263097Y-00545709D01*
X0024273Y-00571837D02*
X00256542Y-00554118D01*
X00229657Y-00553204D02*
X00246687Y-00536174D01*
X00220046Y-00553204D02*
X00229657D01*
X00218516Y-00554735D02*
X00220046Y-00553204D01*
X00246687Y-00536174D02*
Y-00534842D01*
X00280497Y0037518D02*
Y00380594D01*
X00278357Y00379918D02*
X00280497Y00380594D01*
X00276232Y00386653D02*
X00278357Y00379918D01*
X00276194Y00397325D02*
X00283075Y00419676D01*
X00286994Y00432407*
X0028706Y0043689D02*
X00287067Y00436862D01*
X00284355Y00446686D02*
X0028706Y0043689D01*
X00280701Y00459918D02*
X00284355Y00446686D01*
X00257039Y00427632D02*
X00259843Y00419096D01*
X00262011Y00400776*
X00261014Y00394156D02*
X00261321Y00394983D01*
X00256555Y00382113D02*
X00261014Y00394156D01*
X00236557Y00485971D02*
X00250828Y00477549D01*
X00271201Y00465525*
X00280701Y00459918*
X00231237Y00487687D02*
X00236557Y00485971D01*
X0021432Y00493143D02*
X00231237Y00487687D01*
X00204353Y00496358D02*
X0021432Y00493143D01*
X00262277Y00367796D02*
X00267134Y00360725D01*
X00257053Y00375403D02*
X00262277Y00367796D01*
X00256757Y00376065D02*
X00257053Y00375403D01*
X00222652Y00446501D02*
X00232328Y00441192D01*
X0024736Y00432943*
X00257039Y00427632*
X00212213Y00450288D02*
X00222652Y00446501D01*
X00195663Y00456291D02*
X00212213Y00450288D01*
X00185842Y00459853D02*
X00195663Y00456291D01*
G54D12*
X-00374324Y-00553902D02*
D01*
D01*
G75*
G03X-00373186Y-00551458I-00013388J00007721D01*
G74*G01*
X-00384268Y-00571146D02*
X-00374324Y-00553902D01*
X-00373186Y-00551458D02*
X-00371485Y-00546779D01*
X-00372512Y-00501393D02*
X-0037184Y-00512538D01*
X-00370637Y-00515437*
X-00376097Y00275433D02*
X-00370064Y00283961D01*
X-00386515Y00260707D02*
X-00376097Y00275433D01*
G54D13*
X-00366568Y-0053325D02*
D01*
D01*
G75*
G03X-00367234Y-00523765I-00011082J00003987D01*
G74*G01*
X-00371485Y-00546779D02*
X-00366568Y-0053325D01*
X-00370623Y-00517341D02*
X-00367234Y-00523765D01*
X-00370637Y-00515437D02*
X-00370623Y-00517341D01*
G54D14*
X00194916Y-00177478D02*
D01*
D01*
G75*
G03X00194591Y-00177742I00005408J-00006990D01*
G74*G01*
X00209107Y-00172431D02*
D01*
D01*
G75*
G03X00201601Y-00172303I-00003832J-00004615D01*
G74*G01*
X00236956Y-00167683D02*
D01*
D01*
G75*
G03X00237433Y-00167546I-00001344J00005580D01*
G74*G01*
X00114623Y-0024581D02*
X00194591Y-00177742D01*
X00209132Y-00172452D02*
X00216896Y-0017897D01*
X00194916Y-00177478D02*
X00201601Y-00172303D01*
X00209107Y-00172431D02*
X00209132Y-00172452D01*
X00239231Y-00119348D02*
X00255397Y-00135515D01*
X00256653Y-00077316D02*
Y-00059453D01*
X00266679Y-00049426*
X00250096Y-00083873D02*
X00256653Y-00077316D01*
X00250096Y-00094442D02*
Y-00083873D01*
X00239231Y-00105308D02*
X00250096Y-00094442D01*
X00239231Y-00119348D02*
Y-00105308D01*
X00255397Y-00135632D02*
Y-00135515D01*
X00249491Y-00129727D02*
X00255397Y-00135632D01*
X00255305Y-00163008D02*
X0026536Y-00162613D01*
X00227762Y-00162554D02*
X00233668Y-00168459D01*
X00236956Y-00167683*
X00237433Y-00167546D02*
X00242698Y-001658D01*
G54D15*
X00491509Y00098822D02*
D01*
D01*
G75*
G03X00490649Y00101011I-00017235J-00005507D01*
G74*G01*
X00672694Y00230569D02*
D01*
D01*
G75*
G03X00672116Y00232555I-00017497J-00004015D01*
G74*G01*
X00699374Y00029047D02*
D01*
D01*
G75*
G03X00701378Y00032343I-00014278J00010938D01*
G74*G01*
X00383456Y00307675D02*
D01*
D01*
G75*
G03X00382441Y0030886I-00010789J-00008214D01*
G74*G01*
X-00018286Y00406746D02*
X0000277Y00406609D01*
X00035043Y00406399*
X00046125Y00406327*
X00057115Y00405377*
X00071514Y00404132*
X00081629Y00403258*
X00110366Y0039646D02*
X00120065Y00393825D01*
X00128595Y00391507*
X0014097Y00388145*
X00152654Y00382778*
X0016827Y00375605*
X00177414Y00371404*
X00208699Y00354769D02*
X00216199Y00347477D01*
X00236572Y0032767*
X00695174Y00023564D02*
X00695896Y00024507D01*
X00604688Y00005015D02*
X00690198Y00018588D01*
X00695174Y00023564*
X00695896Y00024507D02*
X00699374Y00029047D01*
X00481838Y00119734D02*
X00486173Y00110523D01*
X00490649Y00101011*
X00491509Y00098822D02*
X00491521Y00098785D01*
X0050189Y00066075*
X00664964Y00252738D02*
X00668322Y00243261D01*
X00672116Y00232555*
X00672694Y00230569D02*
X00672708Y0023051D01*
X00675521Y00218062*
X0067796Y00207274*
X00680559Y00196536*
X0068487Y00178728*
X00687562Y00167609*
X00689544Y00156365*
X00701439Y00088903*
X00703422Y00077659*
X00705838Y00066491*
X00709489Y00049612*
X007069Y000441D02*
X00709489Y00049612D01*
X00701378Y00032343D02*
X007069Y000441D01*
X00365241Y00326737D02*
X00366355Y00330307D01*
X00365241Y00326737D02*
X00382441Y0030886D01*
X00383456Y00307675D02*
X00383485Y00307637D01*
X00389542Y0029962*
X00410277Y00270888D02*
X00415796Y00262483D01*
X00426352Y00246405*
X00433503Y00235513*
X00439156Y00223793*
X00448523Y00204374*
X00454176Y00192654*
X00459639Y00180856*
X00467884Y00163048*
X00472157Y0015382*
G54D16*
X0057435Y-00468512D02*
D01*
D01*
G75*
G03X00576826Y-00463934I-00010442J00008606D01*
G74*G01*
X00579274Y-00456076D02*
D01*
D01*
G75*
G03X00574288Y-00441099I-00012908J00004020D01*
G74*G01*
X00570081Y-0040685D02*
D01*
D01*
G75*
G03X00572368Y-00406495I-00000536J00010998D01*
G74*G01*
X00594464Y-00236159D02*
D01*
D01*
G75*
G03X00606674Y-00232003I00003232J00010515D01*
G74*G01*
X00705916Y-00230138D02*
D01*
D01*
G75*
G03X00712841Y-00228381I00001164J00009934D01*
G74*G01*
X00173487Y-00631324D02*
D01*
D01*
G75*
G03X00177485Y-00632522I00004807J00008773D01*
G74*G01*
X00690373Y-0025129D02*
D01*
D01*
G75*
G03X0069337Y-00251849I00003307J00009419D01*
G74*G01*
X0058696Y-00402895D02*
D01*
D01*
G75*
G03X00584682Y-00403226I00000283J-00009955D01*
G74*G01*
X00564742Y-00357886D02*
D01*
D01*
G75*
G03X00565216Y-00358477I00009415J00007065D01*
G74*G01*
X00575323Y-00341077D02*
D01*
D01*
G75*
G03X00576052Y-00342029I00008846J00006019D01*
G74*G01*
X0058503Y-00322467D02*
D01*
D01*
G75*
G03X00586948Y-00325651I00010251J00004005D01*
G74*G01*
X00043566Y-00307643D02*
D01*
D01*
G75*
G03X00055111Y-003164I00009937J00001112D01*
G74*G01*
X00340531Y00255842D02*
D01*
D01*
G75*
G03X00340162Y00257162I-00009678J-00001993D01*
G74*G01*
X-00663348Y0002032D02*
D01*
D01*
G75*
G03X-00660718Y00026816I-00007367J00006763D01*
G74*G01*
X-00665951Y00017485D02*
D01*
D01*
G75*
G03X-00666034Y00017393I00004090J-00003773D01*
G74*G01*
X-00673368Y0001086D02*
D01*
D01*
G75*
G03X-00669495Y00013528I-00003574J00009333D01*
G74*G01*
X-00685337Y00006314D02*
D01*
D01*
G75*
G03X-00686979Y00005512I00003563J-00009376D01*
G74*G01*
X-0070549Y-00005735D02*
D01*
D01*
G75*
G03X-00706791Y-00006676I00005221J-00008589D01*
G74*G01*
X-00720086Y-00018116D02*
D01*
D01*
G75*
G03X-00721662Y-00019828I00006568J-00007628D01*
G74*G01*
X-00734585Y-00037665D02*
D01*
D01*
G75*
G03X-00735642Y-0003951I00008065J-00005846D01*
G74*G01*
X-00743931Y-00058375D02*
D01*
D01*
G75*
G03X-00743908Y-00058682I00012699J00000797D01*
G74*G01*
X-00741439Y-00084325D02*
D01*
D01*
G75*
G03X-00741405Y-00084622I00008906J00000869D01*
G74*G01*
X-00738047Y-00110126D02*
D01*
D01*
G75*
G03X-00737999Y-00110449I00009526J00001250D01*
G74*G01*
X-00733756Y-00135804D02*
D01*
D01*
G75*
G03X-00733687Y-0013617I00011154J00001913D01*
G74*G01*
X-0072563Y-00174075D02*
D01*
D01*
G75*
G03X-00725572Y-00174328I00012301J00002686D01*
G74*G01*
X-00709695Y-00230605D02*
D01*
D01*
G75*
G03X-00709712Y-00230556I-00005341J-00001825D01*
G74*G01*
X-00703447Y-00249012D02*
D01*
D01*
G75*
G03X-00703389Y-00249174I00005162J00001757D01*
G74*G01*
X-0069671Y-0026728D02*
D01*
D01*
G75*
G03X-00696615Y-00267528I00010787J00003990D01*
G74*G01*
X-00686949Y-0029145D02*
D01*
D01*
G75*
G03X-00686847Y-00291692I00014958J00006162D01*
G74*G01*
X-00676395Y-00315167D02*
D01*
D01*
G75*
G03X-00676224Y-00315531I00008916J00003966D01*
G74*G01*
X-00334073Y00541429D02*
D01*
D01*
G75*
G03X-0032965Y00552584I-00005227J00008526D01*
G74*G01*
X-00336997Y00539637D02*
D01*
D01*
G75*
G03X-00337291Y00539449I00004348J-00007123D01*
G74*G01*
X-00364704Y00521306D02*
D01*
D01*
G75*
G03X-00365132Y00521006I00005317J-00008041D01*
G74*G01*
X-00391434Y00501543D02*
D01*
D01*
G75*
G03X-00391947Y00501137I00006033J-00008151D01*
G74*G01*
X-00429492Y00469353D02*
D01*
D01*
G75*
G03X-00430132Y00468761I00006358J-00007515D01*
G74*G01*
X-00472405Y00426118D02*
D01*
D01*
G75*
G03X-00473156Y00425269I00007080J-00007019D01*
G74*G01*
X-00523498Y00361411D02*
D01*
D01*
G75*
G03X-00524836Y0035916I00007852J-00006190D01*
G74*G01*
X-00531959Y0034238D02*
D01*
D01*
G75*
G03X-00528033Y0032998I00009202J-00003907D01*
G74*G01*
X-00376003Y-00126962D02*
D01*
D01*
G75*
G03X-00361521Y-00120963I0J00020479D01*
G74*G01*
X-0035557Y-00115013D02*
D01*
D01*
G75*
G03X-00344875Y-00089191I-00025817J00025818D01*
G74*G01*
Y-00057792D02*
D01*
D01*
G75*
G03X-00366165Y-00006391I-00072697J-00000001D01*
G74*G01*
X-00438822Y00066265D02*
D01*
D01*
G75*
G03X-00509532Y00095554I-00070709J-00070708D01*
G74*G01*
X-00429591Y-0002346D02*
D01*
D01*
G75*
G03X-00431913Y-00021983I-00006488J-00007637D01*
G74*G01*
X-00414059Y-00037005D02*
D01*
D01*
G75*
G03X-00415365Y-00035653I-00007809J-00006237D01*
G74*G01*
X-00285918Y-00128339D02*
D01*
D01*
G75*
G03X-00283689Y-00124288I-00007399J00006710D01*
G74*G01*
X-00394863Y-00612766D02*
D01*
D01*
G75*
G03X-00387435Y-00608706I-00000632J00009982D01*
G74*G01*
X-00396783Y-00522014D02*
D01*
D01*
G75*
G03X-00402533Y-00520977I-00004571J-00008888D01*
G74*G01*
X-00442095Y-00577774D02*
X-00439413Y-00580456D01*
X-00442095Y-00577774D02*
Y-0057615D01*
X-00439413Y-00588599D02*
Y-00580456D01*
X0002911Y-00555459D02*
X00064312Y-00571906D01*
X-00456103Y-00587471D02*
X-00451652Y-00587753D01*
X-00461421Y-00582153D02*
Y-00580086D01*
X-00442143Y-00597262D02*
X-00437241Y-00598704D01*
X-00458774Y-00584801D02*
X-00456103Y-00587471D01*
X-00461421Y-00582153D02*
X-00458774Y-00584801D01*
X-00451652Y-00587753D02*
X-00442143Y-00597262D01*
X00397277Y00215602D02*
X0040352Y00218955D01*
X00381396Y00207071D02*
X00397277Y00215602D01*
X00372546Y00202317D02*
X00381396Y00207071D01*
X00416049Y00176677D02*
X00422552Y00179495D01*
X0039951Y00169509D02*
X00416049Y00176677D01*
X00390292Y00165514D02*
X0039951Y00169509D01*
X-00305387Y00200507D02*
X-0030063Y00195751D01*
Y00162823D02*
Y00195751D01*
X-00305387Y00200507D02*
Y00202131D01*
X0014407Y00443402D02*
X00164851Y0043601D01*
X00174696Y00432508*
X00567808Y-00476448D02*
X0057435Y-00468512D01*
X00576826Y-00463934D02*
X00579274Y-00456076D01*
X00572368Y-00406495D02*
X00584682Y-00403226D01*
X00558981Y-0040739D02*
X00570081Y-0040685D01*
X00644447Y-00185068D02*
X00667786Y-00182349D01*
X00606674Y-00232003D02*
X00636669Y-00189645D01*
X00552807Y-00223348D02*
X00594464Y-00236159D01*
X0067039Y-00182349D02*
X00670558Y-00182181D01*
X00667786Y-00182349D02*
X0067039D01*
X00690209Y-00188087D02*
X00694319D01*
X00684304Y-00182181D02*
X00690209Y-00188087D01*
X00670558Y-00182181D02*
X00684304D01*
X0027591Y-00146293D02*
X00295737D01*
X00319544Y-001701*
X00341168*
X00673505Y-00155491D02*
X00699279Y-00165765D01*
X00705184Y-0017167*
X0067259Y-00220919D02*
X00678496Y-00226825D01*
X00705916Y-00230138*
X00712841Y-00228381D02*
X00723178Y-00221098D01*
X00639996Y-00270164D02*
X00645902Y-00276069D01*
X00649521Y-00280265*
X0065136Y-00283177D02*
X00662711Y-00309027D01*
X-0040085Y00307425D02*
X-00395362Y00301937D01*
X-00393492*
X-00402119Y00305723D02*
X-0040085Y00307425D01*
X-00417506Y00316299D02*
X-00402119Y00305723D01*
X-00427753Y00323841D02*
X-00417506Y00316299D01*
X-00275784Y00287719D02*
X-00275161Y00305597D01*
X-00276334Y00271954D02*
X-00275784Y00287719D01*
X-00237543Y00240406D02*
X-00221714Y00242514D01*
X-00208616Y00244258*
X00275415Y-00100756D02*
X00297344Y-00118622D01*
X0027122Y-00096893D02*
X00275415Y-00100756D01*
X-00291999Y00233847D02*
X-00274675Y00234594D01*
X-0030788Y00233163D02*
X-00291999Y00233847D01*
X-00254212Y00196064D02*
X-00239651Y00190627D01*
X-00269089Y00201618D02*
X-00254212Y00196064D01*
X00295832Y-00086385D02*
X00310255Y-00100808D01*
X00287993Y-00086385D02*
X00295832D01*
X00282087Y-0008048D02*
X00287993Y-00086385D01*
X00241234Y-00148747D02*
X00241775D01*
X00238627Y-0014614D02*
X00241234Y-00148747D01*
X00071004Y-00287915D02*
X00082075Y-00292115D01*
X00124069Y-00304385*
X00129975Y-0031029*
X-00566633Y-00016808D02*
X-0044542D01*
X-00441266Y-00017712D02*
X-00431913Y-00021983D01*
X-00608407Y-00058583D02*
X-00566633Y-00016808D01*
X-0044542D02*
X-00443245D01*
X-00441266Y-00017712*
X00159619Y-00588971D02*
X00205049Y-00611427D01*
X00311538*
X00125454Y-00566386D02*
X00159619Y-00588971D01*
X00112239Y-0055765D02*
X00125454Y-00566386D01*
X00126493Y-00605571D02*
X0014056Y-0061328D01*
X00173487Y-00631324*
X00177485Y-00632522D02*
X00177505Y-00632523D01*
X00249551Y-00638215*
X00661727Y-00237333D02*
X00667633Y-00243238D01*
X00690373Y-0025129*
X0069337Y-00251849D02*
X00693385D01*
X00712845Y-00252432*
X00427657Y-00576143D02*
X00433563Y-00582048D01*
X00404298Y-00566804D02*
X00427657Y-00576143D01*
X0058696Y-00402895D02*
X00599644Y-00402531D01*
X00553076Y-00401484D02*
X00558981Y-0040739D01*
X00542212Y-004179D02*
X00574288Y-00441099D01*
X00530954Y-00312756D02*
X00564741Y-00357886D01*
X00565216Y-00358477D02*
X005689Y-00362749D01*
X00574805Y-00368655*
X00560523Y-00319361D02*
X00575323Y-00341077D01*
X00576052Y-00342029D02*
X00581476Y-00348374D01*
X00585671Y-00352236*
X00579678Y-00308766D02*
X0058503Y-00322467D01*
X00580753Y-00308766D02*
X00581442Y-00308077D01*
X00579678Y-00308766D02*
X00580753D01*
X00586948Y-00325651D02*
X00590631Y-00329918D01*
X00596537Y-00335824*
X00632071Y-00357608D02*
X0063426Y-00374369D01*
X0004204Y-00293645D02*
X00043176Y-00304062D01*
X00043566Y-00307643*
X00055111Y-003164D02*
X00058538Y-00315842D01*
X00055111Y-003164D02*
X00058538Y-00315842D01*
X0063426Y-00374369D02*
X00636378Y-00390578D01*
X00063141Y-00356184D02*
X0008291Y-00375952D01*
X00086519*
X00061518Y-00356184D02*
X00063141D01*
X00397205Y-00601685D02*
X00397255D01*
X00410449Y-00614879*
X0041183*
X00249551Y-00638215D02*
X00346523D01*
X00075654Y-00392368D02*
X00080848Y-0039472D01*
X00097165Y-00404721*
X00532256Y-00479467D02*
Y-00479245D01*
Y-00479467D02*
X00532515Y-00479726D01*
X00532256Y-00479245D02*
X00536462Y-00465775D01*
X00528335Y-00458125D02*
X00536462Y-00465775D01*
X00520481Y-00450732D02*
X00528335Y-00458125D01*
X00531346Y-00434313D02*
X00539024Y-00441973D01*
X00552654Y-00455573*
X-00000001Y-00626458D02*
X00010438Y-00625578D01*
X00062878Y-00621154*
X00078571Y-00619831*
X00010439Y-00655844D02*
X00028624Y-00655596D01*
X0Y-00655986D02*
X00010439Y-00655844D01*
X-00010439Y-00656433D02*
X0Y-00655986D01*
X-00029149Y-00657234D02*
X-00010439Y-00656433D01*
X-00040228Y-00657708D02*
X-00029149Y-00657234D01*
X00322428Y00282796D02*
X00328648Y002772D01*
X00335122Y00271376*
X0033597Y00268983*
X00340162Y00257162*
X00340531Y00255842D02*
X00340535Y00255824D01*
X00340857Y00254248*
X00343655Y00240566*
X00335791Y0029725D02*
X0034154Y00291144D01*
X00362149Y00269256*
X00371008Y00259846*
X-00439413Y-00588599D02*
X-00437686Y-00598393D01*
X-00660644Y00029587D02*
X-00660295Y00042678D01*
X-00660718Y00026816D02*
X-00660644Y00029587D01*
X-00665951Y00017485D02*
X-00663348Y0002032D01*
X-00669495Y00013528D02*
X-00666034Y00017393D01*
X-00673394Y0001085D02*
X-00673368Y0001086D01*
X-00685337Y00006314D02*
X-00673394Y0001085D01*
X-0070549Y-00005735D02*
X-00686979Y00005512D01*
X-00706819Y-00006701D02*
X-00706791Y-00006676D01*
X-00720086Y-00018116D02*
X-00706819Y-00006701D01*
X-00734585Y-00037665D02*
X-00721662Y-00019828D01*
X-00743931Y-00058375D02*
X-00735642Y-0003951D01*
X-00743908Y-00058682D02*
X-00743904Y-00058722D01*
X-00741439Y-00084325*
X-00741405Y-00084622D02*
X-00741402Y-00084648D01*
X-00738047Y-00110126*
X-00737999Y-00110449D02*
X-00737996Y-00110471D01*
X-00733756Y-00135804*
X-00733687Y-0013617D02*
X-0073368Y-00136202D01*
X-0072563Y-00174075*
X-00725572Y-00174328D02*
X-00725561Y-0017437D01*
X-00716203Y-00211938*
X-00709712Y-00230556*
X-00709695Y-00230605D02*
X-00709685Y-00230634D01*
X-00703447Y-00249012*
X-00703389Y-00249174D02*
X-00703374Y-00249217D01*
X-0069671Y-0026728*
X-00696615Y-00267528D02*
X-006966Y-00267563D01*
X-00686949Y-0029145*
X-00686847Y-00291692D02*
X-00686829Y-00291731D01*
X-00676395Y-00315167*
X-00676224Y-00315531D02*
X-00676208Y-00315563D01*
X-00669323Y-00329362*
X-00664662Y-00338703*
X-00252948Y-00610669D02*
D01*
D01*
X-00270411Y-00652828D02*
X-00252948Y-00610669D01*
X-00272264Y-00657302D02*
X-00270411Y-00652828D01*
X-00335902Y00575533D02*
X-00333077Y00565163D01*
X-0032965Y00552584*
X-00336997Y00539637D02*
X-00334073Y00541429D01*
X-00364704Y00521306D02*
X-00337291Y00539449D01*
X-00391434Y00501543D02*
X-00365132Y00521006D01*
X-00429492Y00469353D02*
X-00391947Y00501137D01*
X-00472405Y00426118D02*
X-00430132Y00468761D01*
X-00523498Y00361411D02*
X-00473156Y00425269D01*
X-0052485Y00359127D02*
X-00524836Y0035916D01*
X-00531959Y0034238D02*
X-0052485Y00359127D01*
X-00528033Y0032998D02*
X-00527996Y00329957D01*
X-00514944Y00321922*
X-00502307Y00314272*
X-00491314Y00307815*
X-00482314Y00266898D02*
X-00472347Y00258949D01*
X-00484684Y00270793D02*
X-00482314Y00266898D01*
X-00492495Y00283641D02*
X-00490128Y00279748D01*
X-00502462Y0029159D02*
X-00492495Y00283641D01*
X-00426565Y00348014D02*
X-00416598Y00340065D01*
X-00428934Y00351909D02*
X-00426565Y00348014D01*
X-00436749Y00364758D02*
X-00434377Y00360859D01*
X-00446716Y00372707D02*
X-00436749Y00364758D01*
X-00383674Y-00126962D02*
X-00376003D01*
X-00361521Y-00120963D02*
X-0035557Y-00115013D01*
X-00344875Y-00089191D02*
Y-00057792D01*
X-00438822Y00066265D02*
X-00366165Y-00006391D01*
X-00654903Y00095554D02*
X-00509532D01*
X-00429591Y-0002346D02*
X-00429559Y-00023486D01*
X-00415365Y-00035653*
X-00414059Y-00037005D02*
X-00414041Y-00037027D01*
X-0040875Y-0004369*
X-00400502Y-00054077*
X-00283936Y-00103938D02*
X-00281279Y-00115446D01*
X-00283689Y-00124288D02*
X-00281279Y-00115446D01*
X-00285947Y-0012837D02*
X-00285918Y-00128339D01*
X-00298976Y-00142617D02*
X-00285947Y-0012837D01*
X-00328175Y-00174353D02*
X-00298976Y-00142617D01*
X-00336842Y-00179018D02*
X-00328175Y-00174353D01*
X-00387435Y-00608706D02*
X-00367352Y-00581216D01*
X-00394901Y-00612768D02*
X-00394863Y-00612766D01*
X-00400123Y-00613078D02*
X-00394901Y-00612768D01*
X-00412827Y-00615319D02*
X-00400123Y-00613078D01*
X-00413053Y-00615641D02*
X-00412827Y-00615319D01*
X-0043448Y-00524472D02*
X-00408872Y-00521728D01*
X-00442264Y-00517824D02*
X-0043448Y-00524472D01*
X-00408872Y-00521728D02*
X-00402533Y-00520977D01*
X-00396783Y-00522014D02*
X-00396754Y-00522029D01*
X-0038762Y-00526763*
G54D17*
X0064434Y-0018508D02*
D01*
D01*
G75*
G03X006367Y-00189602I00001305J-00010920D01*
G74*G01*
X0064434Y-0018508D02*
X00644447Y-00185068D01*
X00636669Y-00189645D02*
X006367Y-00189602D01*
G54D18*
X0065132Y-00283086D02*
D01*
D01*
G75*
G03X00649612Y-0028037I-00010080J-00004444D01*
G74*G01*
X00649521Y-00280265D02*
X00649612Y-0028037D01*
X0065132Y-00283086D02*
X0065136Y-00283177D01*
G54D19*
X00246729Y-00164463D02*
D01*
D01*
G75*
G03X00247731Y-00164053I-00002506J00007555D01*
G74*G01*
X00251036Y-00163176D02*
D01*
D01*
G75*
G03X00247874Y-00163983I00000333J-00007905D01*
G74*G01*
X00242698Y-001658D02*
X00246729Y-00164463D01*
X00247731Y-00164053D02*
X00247874Y-00163983D01*
X00251036Y-00163176D02*
X00255305Y-00163008D01*
G54D20*
X00275436Y00394862D02*
D01*
D01*
G75*
G03X00275456Y00389112I00009233J-00002842D01*
G74*G01*
X00276232Y00386653*
X00275436Y00394862D02*
X00276194Y00397325D01*
G54D21*
X-00487427Y00275304D02*
D01*
X-00487426Y00275303*
X-00484684Y00270793D01*
X-00490128Y00279748D02*
X-00487427Y00275304D01*
G54D22*
X-00431635Y00356351D02*
D01*
X-00431636Y00356352*
X-00431635Y00356351D02*
X-00428934Y00351909D01*
X-00434377Y00360859D02*
X-00431636Y00356352D01*
G54D23*
X-00369592Y-00627184D02*
D01*
D01*
G75*
G03X-00370389Y-00629038I00010605J-00005657D01*
G74*G01*
D01*
D01*
G75*
G03X-00370525Y-00636191I00011379J-00003794D01*
G74*G01*
X00216066Y00534337D02*
X00216683Y00550082D01*
X00215647Y00523639D02*
X00216066Y00534337D01*
X00173436Y-0024463D02*
X00198591Y-00258808D01*
X00457394Y00068823D02*
X00473805Y00057957D01*
X00506636Y00036228D02*
X00523052Y00025362D01*
X00555883Y00003631D02*
X00572298Y-00007229D01*
X00588711Y-00018097D02*
X00604688Y00005015D01*
X00490222Y00047093D02*
X0050189Y00066075D01*
X-00369592Y-00627184D02*
X-00350441Y-00591291D01*
X-00370525Y-00636191D02*
X-00370324Y-0063687D01*
X-0037051Y-00636241D02*
X-00370324Y-0063687D01*
X-0037051Y-00636241D02*
X-00368781Y-0064208D01*
X-0036925Y-00642945D02*
X-00368781Y-0064208D01*
G54D24*
X00208699Y00354769D03*
X00177414Y00371404D03*
G54D25*
X00289754Y00202511D03*
X00318419Y00223336D03*
G54D26*
X-00411447Y-00298812D03*
X-00439997Y-00319798D03*
G54D27*
X-00433571Y-00265692D03*
X-00463783Y-00284207D03*
G54D28*
X-00280383Y00041952D03*
X-00315441Y00047093D03*
G54D29*
X-00283405Y00007418D03*
X-00318828Y00008351D03*
G54D30*
X00174593Y00539032D03*
X00165407Y00510968D03*
G54D31*
X00204353Y00496358D03*
X00215647Y00523639D03*
G54D32*
X-00384268Y-00571146D03*
X-00333526Y-00601363D03*
X-00350441Y-00591291D03*
X-00367352Y-00581216D03*
G54D33*
X-00450382Y-00434928D03*
X-00529679Y-00511506D03*
G54D34*
X-00423087Y-00495372D03*
X-00442264Y-00517824D03*
G54D35*
X-00372512Y-00501393D03*
X-00277797Y-00557796D03*
G54D36*
X-00638386Y-00325231D03*
X-00664662Y-00338703D03*
G54D37*
X-00506528Y-00368014D03*
X-00595711Y-0043281D03*
G54D38*
X-00392089Y-00090523D03*
X-00292348Y-00067494D03*
X-00300766Y-00031053D03*
X-00283936Y-00103938D03*
X-00383674Y-00126962D03*
X-00400502Y-00054077D03*
G54D39*
X00357565Y00151931D03*
X00390292Y00165514D03*
G54D40*
X00092825Y-00667754D03*
X-00339426Y00194372D03*
X-00237543Y00240406D03*
X-0030063Y00162823D03*
X-00269089Y00201618D03*
X-0030788Y00233163D03*
X00078571Y-00619831D03*
X00064312Y-00571906D03*
X00140751Y-00653497D03*
X00126493Y-00605571D03*
X00112239Y-0055765D03*
X-00276334Y00271954D03*
G54D41*
X00297695Y00393783D03*
X00305229Y00264194D03*
X00236572Y0032767D03*
X00366355Y00330307D03*
G54D42*
X00253771Y00346274D03*
X00349153Y00311704D03*
X00322428Y00282796D03*
X00280497Y0037518D03*
X00335791Y0029725D03*
X00267134Y00360725D03*
G54D43*
X00301462Y00328989D03*
G54D44*
X-00413266Y00421373D03*
X-00505795Y00210279D03*
X-00535913Y00242921D03*
X-00383149Y00388735D03*
X-003943Y00372511D03*
X-00405448Y00356288D03*
X-00416598Y00340065D03*
X-00427753Y00323841D03*
X-00438897Y00307615D03*
X-0045005Y00291395D03*
X-00461199Y00275172D03*
X-00472347Y00258949D03*
X-00483497Y00242727D03*
X-00494649Y00226502D03*
X-0052476Y00259146D03*
X-00513613Y00275366D03*
X-00502462Y0029159D03*
X-00491314Y00307815D03*
X-00480163Y00324037D03*
X-00469014Y00340259D03*
X-00457863Y00356482D03*
X-00446716Y00372707D03*
X-00435565Y00388927D03*
X-00424416Y00405151D03*
G54D45*
X00299298Y0049008D03*
X00280701Y00459918D03*
G54D46*
X00258123Y00515745D03*
X00241877Y00484255D03*
G54D47*
X00238655Y00397342D03*
X00257039Y00427632D03*
G54D48*
X00206787Y0041482D03*
X00222652Y00446501D03*
G54D49*
X00042449Y00371084D03*
X00046125Y00406327D03*
G54D50*
X00130062Y00356507D03*
X0014097Y00388145D03*
G54D51*
X00341442Y00185346D03*
X00372546Y00202317D03*
G54D52*
X-00066586Y00338597D03*
X-00088005Y00452747D03*
G54D53*
X00644075Y00196913D03*
X0067796Y00207274D03*
G54D54*
X00591889Y00321369D03*
X00623027Y00338276D03*
G54D55*
X00607895Y0028995D03*
X00639876Y00305206D03*
G54D56*
X00535738Y00396425D03*
X00559471Y00413987D03*
G54D57*
X00741728Y00092808D03*
X00662245Y00078793D03*
X00728737Y00166476D03*
X00649257Y0015246D03*
G54D58*
X0044762Y00447793D03*
X00529915Y0052974D03*
G54D59*
X-00362843Y-00193011D03*
X-00336842Y-00179018D03*
G54D60*
X-00038063Y-00622341D03*
X-00040228Y-00657708D03*
G54D61*
X00662577Y-00344336D03*
X00636378Y-00390578D03*
G54D62*
X-00338111Y-00659851D03*
X-0036925Y-00642945D03*
G54D63*
X-00283562Y-00684581D03*
X-00272264Y-00657302D03*
G54D64*
X-00210553Y-0071081D03*
X-00179242Y-00605113D03*
G54D65*
X-0012443Y-00671361D03*
X-00114744Y-00619103D03*
G54D66*
X-00310078Y00589848D03*
X-00335902Y00575533D03*
G54D67*
X-00370064Y00283961D03*
X-00393492Y00301937D03*
G54D68*
X-00292906Y-00583166D03*
X-00397691Y-00543675D03*
X-0038762Y-00526763D03*
X-00302979Y-0060008D03*
G54D69*
X-00323643Y-00527058D03*
G54D70*
X0006218Y-00412723D03*
X00404207Y00104026D03*
X0039836Y-00635235D03*
X00740385Y-00118488D03*
G54D71*
X00131779Y-00458789D03*
X00148192Y-00469655D03*
X00164608Y-0048052D03*
X00181026Y-00491385D03*
X0019744Y-00502249D03*
X00230272Y-00523978D03*
X00279515Y-00556571D03*
X00328761Y-00589165D03*
X00670788Y-00072421D03*
X00605128Y-00028962D03*
X00572298Y-00007229D03*
X00555883Y00003631D03*
X00523052Y00025362D03*
X00506636Y00036228D03*
X00473805Y00057957D03*
X00457394Y00068823D03*
X00424563Y00090554D03*
X00440977Y00079689D03*
X00539467Y000145D03*
X00588711Y-00018097D03*
X00621545Y-00039826D03*
X00637959Y-0005069D03*
X00654371Y-00061557D03*
X00687205Y-00083287D03*
X00703619Y-00094151D03*
X00720032Y-00105015D03*
X00378005Y-00621763D03*
X00361591Y-00610895D03*
X00345175Y-00600029D03*
X00312347Y-00578302D03*
X00295933Y-00567436D03*
X00263097Y-00545709D03*
X00246687Y-00534842D03*
X00213857Y-00513115D03*
X00115364Y-00447922D03*
X00098949Y-00437062D03*
X00082535Y-00426192D03*
X00490222Y00047093D03*
G54D72*
X00466158Y-00532805D03*
X00509616Y-00467144D03*
X00563941Y-00385071D03*
X00618267Y-00302991D03*
X00650862Y-00253749D03*
X00683456Y-00204504D03*
X0071605Y-00155258D03*
X00379871Y00067255D03*
X00369003Y0005084D03*
X00358143Y00034424D03*
X00347276Y00018012D03*
X00336413Y00001596D03*
X00325543Y-00014821D03*
X0031468Y-00031236D03*
X00303815Y-00047649D03*
X00292951Y-00064065D03*
X00260354Y-00113308D03*
X0020603Y-00195386D03*
X0016257Y-00261047D03*
X00119113Y-0032671D03*
X00075654Y-00392368D03*
X00086519Y-00375952D03*
X0009738Y-00359539D03*
X00108246Y-00343123D03*
X00129975Y-0031029D03*
X00140839Y-00293875D03*
X00151704Y-00277459D03*
X00173436Y-0024463D03*
X00184299Y-00228216D03*
X00195167Y-00211799D03*
X00216896Y-0017897D03*
X00227762Y-00162554D03*
X00238627Y-0014614D03*
X00249491Y-00129727D03*
X0027122Y-00096893D03*
X00282087Y-0008048D03*
X00390734Y0008367D03*
X00726915Y-00138843D03*
X00661727Y-00237333D03*
X00629131Y-00286579D03*
X006074Y-00319407D03*
X00596537Y-00335824D03*
X00585671Y-00352236D03*
X00574805Y-00368655D03*
X00553076Y-00401484D03*
X00542212Y-004179D03*
X00531346Y-00434313D03*
X00520481Y-00450732D03*
X00498751Y-0048356D03*
X00487884Y-00499976D03*
X00477023Y-00516389D03*
X00455294Y-00549219D03*
X00444427Y-00565634D03*
X00433563Y-00582048D03*
X00422696Y-00598466D03*
X0041183Y-00614879D03*
X00705184Y-0017167D03*
X0067259Y-00220919D03*
X00639996Y-00270164D03*
X00694319Y-00188087D03*
G54D73*
X00165849Y-00393048D03*
X00209309Y-00327388D03*
X00252768Y-00261729D03*
X00296228Y-00196068D03*
X00339687Y-00130409D03*
X00383147Y-0006475D03*
X00426606Y0000091D03*
X00218377Y-00427817D03*
X00261836Y-00362159D03*
X00305295Y-00296497D03*
X00348757Y-00230838D03*
X00392216Y-00165177D03*
X00435675Y-00099517D03*
X00479136Y-00033856D03*
X00270906Y-00462585D03*
X00314366Y-00396922D03*
X00357827Y-00331266D03*
X00401283Y-00265604D03*
X00444745Y-00199944D03*
X00488203Y-00134282D03*
X00531663Y-00068623D03*
X00323433Y-00497352D03*
X0036689Y-00431693D03*
X00410352Y-00366033D03*
X00453811Y-00300372D03*
X00497271Y-0023471D03*
X00540732Y-00169054D03*
X00584189Y-00103392D03*
X0037596Y-00532123D03*
X00419421Y-00466459D03*
X00462883Y-00400799D03*
X00506341Y-0033514D03*
X005498Y-00269477D03*
X00593257Y-00203821D03*
X00636721Y-00138159D03*
G54D74*
X00133524Y-00359853D03*
X00144392Y-00343439D03*
X00155253Y-00327022D03*
X00166119Y-00310607D03*
X00220446Y-00228532D03*
X00231311Y-00212118D03*
X00242175Y-00195701D03*
X00253039Y-00179288D03*
X00329093Y-00064384D03*
X00339961Y-00047967D03*
X00350825Y-00031549D03*
X00361688Y-00015136D03*
X00647311Y-00204186D03*
X00636447Y-00220602D03*
X00625582Y-00237015D03*
X00614716Y-00253433D03*
X00538665Y-00368338D03*
X00527797Y-00384753D03*
X00516933Y-00401168D03*
X00506068Y-00417584D03*
X00451741Y-00499655D03*
X00440879Y-00516071D03*
X00430014Y-00532488D03*
X0041915Y-00548903D03*
G54D75*
X00071004Y-00287915D03*
X0004204Y-00293645D03*
G54D76*
X-00000001Y-00626458D03*
X0Y-00655986D03*
G54D77*
X00422552Y00179495D03*
X00454176Y00192654D03*
G54D78*
X00343655Y00240566D03*
X00371008Y00259846D03*
G54D79*
X0040352Y00218955D03*
X00433503Y00235513D03*
G54D80*
X00472157Y0015382D03*
X00481838Y00119734D03*
G54D81*
X00410277Y00270888D03*
X00389542Y0029962D03*
G54D82*
X-00437241Y-00598704D03*
X-00413053Y-00615641D03*
G54D83*
X-00337033Y-00511067D03*
X-00303207Y-0053121D03*
G54D84*
X-00112791Y-00406143D03*
X-00305648Y-00290256D03*
G54D85*
X00703422Y00077659D03*
X00687562Y00167609D03*
G54D86*
X-00241649Y-0058339D03*
X-00252948Y-00610669D03*
G54D87*
X00653902Y00280117D03*
X00664964Y00252738D03*
G54D88*
X-00660295Y00042678D03*
X-00654903Y00095554D03*
G54D89*
X00531134Y00446224D03*
G54D90*
X00601937Y00369777D03*
X00582638Y00399493D03*
G54D91*
X-00018286Y00406746D03*
G54D92*
X00185842Y00459853D03*
X00174696Y00432508D03*
G54D93*
X00110366Y0039646D03*
X00081629Y00403258D03*
G54D94*
X00639876Y00305206D02*
X00645269Y00295559D01*
X00648961Y00288955*
X00653902Y00280117*
X00634867Y00315037D02*
X00639876Y00305206D01*
X00628035Y00328445D02*
X00634867Y00315037D01*
X00623027Y00338276D02*
X00628035Y00328445D01*
X00616864Y00347481D02*
X00623027Y00338276D01*
X00607526Y00361429D02*
X00616864Y00347481D01*
X00601937Y00369777D02*
X00607526Y00361429D01*
X00574944Y00406474D02*
X00582638Y00399493D01*
X00546461Y00432317D02*
X00574944Y00406474D01*
X00531134Y00446224D02*
X00546461Y00432317D01*
G54D95*
X00257389Y-00148747D02*
X00259843Y-00146293D01*
X00264877*
X00241775Y-00148747D02*
X00257389D01*
G54D96*
X00264877Y-00146293D02*
X0027591D01*
G54D97*
X-0048168Y-00156454D03*
G54D98*
X-0049981Y-00079829D03*
G54D99*
X-00671794Y0022524D03*
X-0045103Y00546456D03*
G54D100*
X-00538434Y00161055D03*
X-00343316Y00444959D03*
G54D101*
X00074016Y-00516855D03*
X00169385Y-00697146D03*
X00092708Y-00719954D03*
X-0038261Y00165037D03*
X-00320544Y00114569D03*
X-00225394Y00294978D03*
G54D102*
X-00466446Y-00607884D03*
X-00442095Y-0057615D03*
X0002911Y-00555459D03*
X-00461421Y-00580086D03*
X-00482199Y-00595466D03*
X-00523969Y-00284492D03*
X-00479276Y-00354646D03*
X-00395068Y-00446543D03*
X-00425255Y-00417897D03*
X-0045337Y-00387215D03*
X-00502848Y-00320349D03*
X00301055Y00180892D03*
X00216683Y00550082D03*
X00198591Y-00258808D03*
X-005418Y-005418D03*
X-00527432Y-00555797D03*
X-00512702Y-00569413D03*
X-00497621Y-00582639D03*
X-00450373Y-00619886D03*
X-00433992Y-00631463D03*
X-00417314Y-00642607D03*
X-00400349Y-00653311D03*
X-00383111Y-00663567D03*
X-00040101Y-00765171D03*
X-00060117Y-00763859D03*
X-00080092Y-00762024D03*
X-00100012Y-00759666D03*
X-00119863Y-00756788D03*
X-00139633Y-00753391D03*
X-00159306Y-00749477D03*
X-00274589Y-00715329D03*
X-00365609Y-00673368D03*
X-00347857Y-00682708D03*
X-00417102Y-00563681D03*
X-0043652Y-00548781D03*
X-00325601Y-00575497D03*
X-00345487Y-00563784D03*
X-00673368Y-00365609D03*
X-00663567Y-00383111D03*
X-00653311Y-00400349D03*
X-00642607Y-00417314D03*
X-00631463Y-00433992D03*
X-00619886Y-00450373D03*
X-00607884Y-00466446D03*
X-00595466Y-00482199D03*
X-00582639Y-00497621D03*
X-00569413Y-00512702D03*
X-00555797Y-00527432D03*
X-00329867Y-0069158D03*
X-0029322Y-00707896D03*
X-0031165Y-00699978D03*
X-00105125Y-00703409D03*
X-0012961Y-00699312D03*
X-00153936Y-00694362D03*
X-00178871Y-0074505D03*
X-00198313Y-00740113D03*
X-00217619Y-00734668D03*
X-00236775Y-0072872D03*
X-0025577Y-00722272D03*
X-00325Y-0062D03*
X-00285D03*
X-00386515Y00260707D03*
X00104021Y00245058D03*
X00167538Y00206893D03*
X0020603Y-00195386D03*
X00170564Y-00659523D03*
X-00305387Y00202131D03*
X00135116Y00229381D03*
X00191127Y00183297D03*
X00235059Y00124983D03*
X0014407Y00443402D03*
X-00215458Y-00561288D03*
X-00234916Y-00553427D03*
X-00195738Y-00568466D03*
X00567808Y-00476448D03*
X00552807Y-00223348D03*
X00667786Y-00182349D03*
X00341168Y-001701D03*
X00673505Y-00155491D03*
X00723178Y-00221098D03*
X00662711Y-00309027D03*
X-00275161Y00305597D03*
X00259373Y00059873D03*
X-00208616Y00244258D03*
X00297344Y-00118622D03*
X00191259Y00278024D03*
X00310255Y-00100808D03*
X00266679Y-00049426D03*
X-00274675Y00234594D03*
X-00239651Y00190627D03*
X0026536Y-00162613D03*
X-005512Y0000481D03*
X-00551625Y00058423D03*
X00114623Y-0024581D03*
X-00170756Y-00576463D03*
X-00150534Y-00582071D03*
X-00493937Y00047561D03*
X-00608407Y-00058583D03*
X0024273Y-00571837D03*
X00218516Y-00554735D03*
X00712845Y-00252432D03*
X00404298Y-00566804D03*
X00599644Y-00402531D03*
X00530954Y-00312756D03*
X00581442Y-00308077D03*
X00560523Y-00319361D03*
X00632071Y-00357608D03*
X00335874Y00102687D03*
X00237281Y00258947D03*
X00058538Y-00315842D03*
X00061518Y-00356184D03*
X00210861Y-00668766D03*
X00397205Y-00601685D03*
X00346523Y-00638215D03*
X00311538Y-00611427D03*
X-00046123Y-00479006D03*
X-00071129Y-00475935D03*
X00097165Y-00404721D03*
X00532515Y-00479726D03*
X00552654Y-00455573D03*
X00028624Y-00655596D03*
X00387753Y00210532D03*
X-00088866Y-00594617D03*
X-00109564Y-00591154D03*
X-00130128Y-0058697D03*
G54D103*
X00336237Y00344506D03*
X00319265Y00326149D03*
X00302293Y00307791D03*
X00285322Y00289435D03*
X00263293Y00309801D03*
X00280265Y00328158D03*
X00297237Y00346515D03*
X00314209Y00364871D03*
M02*