%FSTAX26Y26*%
%MOIN*%
%SFA1B1*%

%IPPOS*%
%AMD152*
4,1,4,0.092800,0.059200,-0.040300,0.102500,-0.092800,-0.059200,0.040300,-0.102500,0.092800,0.059200,0.0*
%
%ADD147C,0.007874*%
%ADD148C,0.006000*%
%ADD151C,0.005906*%
G04~CAMADD=152~9~0.0~0.0~1400.0~1700.0~0.0~0.0~0~0.0~0.0~0.0~0.0~0~0.0~0.0~0.0~0.0~0~0.0~0.0~0.0~342.0~1856.0~2049.0*
%ADD152D152*%
%LNflagmate_legend_bot-1*%
%LPD*%
%SRX1Y1I0J0*%
G36*
X00147973Y00570412D02*
X00147887Y00570146D01*
X0014762Y00570233*
X00147534Y00569965*
X00147267Y00570054*
X00147094Y0056952*
X00146829Y00569607*
X00131687Y00523004*
X00131952Y00522919*
X00131779Y00522385*
X00132046Y00522298*
X00131873Y00521765*
X00125749Y00523755*
X00125482Y00523842*
X00096988Y00533102*
X00100708Y00544552*
X00100975Y00544466*
X00100888Y005442*
X00101155Y00544114*
X00101068Y00543848*
X001016Y00543674*
X00101515Y00543408*
X00122286Y00536659*
X00134399Y00573939*
X00134133Y00574026*
X00134306Y00574558*
X0013404Y00574647*
X00134126Y00574912*
X00147973Y00570412*
G37*
G36*
X00188717Y00557174D02*
X00188631Y00556908D01*
X00188363Y00556993*
X00188191Y00556461*
X00187924Y00556548*
X00172695Y00509681*
X00172963Y00509595*
X0017279Y00509062*
X00173056Y00508976*
X00172884Y00508443*
X00137997Y00519777*
X00138084Y00520043*
X00137818Y00520129*
X00141452Y00531314*
X00141718Y00531227*
X00141632Y0053096*
X00142164Y0053079*
X00142077Y00530522*
X00142345Y00530434*
X00142258Y00530169*
X00163296Y00523333*
X00168486Y00539311*
X00168573Y00539579*
X00175322Y00560348*
X00175056Y00560436*
X00175229Y00560968*
X00174963Y00561054*
X00175048Y0056132*
X00174783Y00561407*
X00174869Y00561674*
X00188717Y00557174*
G37*
G36*
X00211086Y00549905D02*
X00210999Y0054964D01*
X00210732Y00549725*
X00210561Y00549192*
X00210293Y00549279*
X00201554Y00522385*
X00201469Y00522118*
X00194979Y00502146*
X00195245Y0050206*
X00195158Y00501793*
X00195426Y00501705*
X00195251Y00501174*
X00181671Y00505587*
X00181843Y00506118*
X0018211Y00506033*
X00182284Y00506564*
X00182549Y00506479*
X00197692Y00553081*
X00197425Y00553168*
X00197598Y005537*
X00197332Y00553786*
X00197419Y00554052*
X00197152Y00554139*
X00197237Y00554405*
X00211086Y00549905*
G37*
G36*
X00223868Y00545752D02*
X00223954Y00546019D01*
X00227415Y00544894*
X0022733Y00544628*
X00227596Y00544542*
X00227423Y00544009*
X0022769Y00543922*
X00227602Y00543656*
X00227869Y0054357*
X00227696Y00543037*
X00227961Y00542951*
X00227876Y00542683*
X00228142Y00542597*
X00227969Y00542065*
X00228235Y00541978*
X00228149Y00541712*
X00228415Y00541625*
X00228242Y00541092*
X00228508Y00541005*
X00228423Y0054074*
X00228686Y00540654*
X00228517Y00540121*
X00228782Y00540035*
X00228608Y00539501*
X00228874Y00539415*
X00228789Y00539149*
X00229054Y00539062*
X00228881Y00538528*
X00229147Y00538444*
X00229062Y00538177*
X00229327Y0053809*
X00229155Y00537558*
X00229422Y00537471*
X00229334Y00537205*
X002296Y00537118*
X00229427Y00536586*
X00229693Y00536499*
X00229609Y00536234*
X00229873Y00536147*
X002297Y00535615*
X00229966Y00535527*
X00229881Y00535262*
X00230146Y00535174*
X00229973Y00534641*
X0023024Y00534555*
X00230153Y0053429*
X00230419Y00534203*
X00230246Y00533669*
X00230512Y00533583*
X00230426Y00533319*
X00230692Y00533231*
X00230519Y00532699*
X00230786Y00532612*
X00230699Y00532344*
X00230967Y00532259*
X00230794Y00531726*
X00231058Y0053164*
X00230973Y00531374*
X00231239Y00531286*
X00231064Y00530755*
X00231331Y00530668*
X00231245Y00530402*
X00231512Y00530315*
X00231339Y00529782*
X00231605Y00529696*
X00231517Y0052943*
X00231785Y00529344*
X00231612Y00528812*
X00231878Y00528724*
X00231791Y00528458*
X00232058Y00528371*
X00231883Y00527838*
X0023215Y00527752*
X00232065Y00527486*
X00232331Y00527399*
X00232158Y00526867*
X00232424Y00526781*
X00232338Y00526514*
X00232605Y00526427*
X00232431Y00525895*
X00232696Y00525809*
X00232609Y0052554*
X00232877Y00525457*
X00232703Y00524923*
X0023297Y00524837*
X00232884Y0052457*
X00233148Y00524485*
X00232977Y00523951*
X00233242Y00523864*
X00233156Y00523598*
X00233422Y00523512*
X0023325Y00522979*
X00233516Y00522893*
X0023343Y00522625*
X00233695Y0052254*
X00233523Y00522007*
X00233789Y00521921*
X00233703Y00521654*
X00233969Y00521567*
X00233795Y00521035*
X00234062Y00520948*
X00233975Y00520682*
X00234242Y00520596*
X00234069Y00520065*
X00234334Y00519977*
X00234247Y00519709*
X00234515Y00519624*
X00234341Y0051909*
X00234608Y00519005*
X00234521Y00518737*
X00234789Y00518653*
X00234616Y00518121*
X00234882Y00518033*
X00234794Y00517766*
X00235061Y0051768*
X00234887Y00517147*
X00235155Y0051706*
X00235068Y00516795*
X00235334Y00516709*
X0023516Y00516177*
X00235427Y00516088*
X00235254Y00515556*
X00235521Y0051547*
X00235433Y00515204*
X002357Y00515115*
X00235527Y00514585*
X00235793Y00514498*
X00235706Y0051423*
X00235972Y00514146*
X002358Y00513612*
X00236066Y00513524*
X0023598Y00513259*
X00236246Y00513174*
X00236073Y00512641*
X00236339Y00512553*
X00236252Y00512286*
X00236519Y00512201*
X00236345Y00511668*
X00236612Y00511582*
X00236525Y00511315*
X00236793Y00511229*
X0023662Y00510697*
X00236884Y0051061*
X00236799Y00510344*
X00237065Y00510258*
X00236892Y00509726*
X00237158Y00509637*
X00237071Y00509371*
X00237338Y00509285*
X00237166Y00508754*
X00237431Y00508666*
X00237345Y005084*
X00237611Y00508314*
X00237697Y0050858*
X00237964Y00508492*
X00238136Y00509027*
X00238404Y00508939*
X00238491Y00509205*
X00238757Y00509119*
X00238929Y00509651*
X00239195Y00509566*
X00239282Y00509832*
X00239548Y00509745*
X00239721Y00510278*
X00239987Y00510191*
X00240074Y00510457*
X00240341Y0051037*
X00240514Y00510903*
X0024078Y00510816*
X00240867Y00511083*
X00241133Y00510996*
X00241306Y00511529*
X00241572Y00511442*
X00241658Y00511709*
X00241923Y00511622*
X00242097Y00512155*
X00242364Y00512068*
X00242451Y00512334*
X00242717Y00512249*
X00242891Y00512782*
X00243156Y00512694*
X00243242Y00512961*
X0024351Y00512874*
X00243682Y00513406*
X00243948Y00513319*
X00244035Y00513587*
X00244302Y005135*
X00244474Y0051403*
X00244741Y00513946*
X00244828Y00514212*
X00245094Y00514126*
X00245267Y00514658*
X00245534Y00514573*
X0024562Y00514838*
X00245886Y00514752*
X00246059Y00515284*
X00246324Y00515198*
X00246411Y00515463*
X00246678Y00515377*
X00246851Y00515909*
X00247117Y00515823*
X00247202Y0051609*
X0024747Y00516003*
X00247644Y00516537*
X00247908Y00516449*
X00247996Y00516716*
X00248262Y00516629*
X00248434Y00517163*
X00248702Y00517074*
X00248787Y00517341*
X00249055Y00517255*
X00249226Y00517787*
X00249493Y00517702*
X00249578Y00517967*
X00249847Y0051788*
X00250019Y00518413*
X00250286Y00518327*
X00250372Y00518595*
X00250639Y00518507*
X00250812Y0051904*
X00251079Y00518953*
X00251164Y00519219*
X00251432Y00519134*
X00251518Y00519399*
X00251783Y00519312*
X00251956Y00519845*
X00252223Y00519758*
X00252308Y00520025*
X00252575Y00519938*
X00252747Y0052047*
X00253014Y00520384*
X00253102Y0052065*
X00253369Y00520564*
X00253541Y00521096*
X00253807Y0052101*
X00253893Y00521276*
X00254161Y00521189*
X00254332Y00521723*
X002546Y00521636*
X00254686Y00521903*
X00254952Y00521815*
X00255126Y00522349*
X00255392Y00522262*
X00255478Y00522527*
X00255744Y00522442*
X00255918Y00522974*
X00256184Y00522887*
X00256271Y00523154*
X00256536Y00523067*
X0025671Y005236*
X00256977Y00523514*
X00257063Y0052378*
X00257329Y00523694*
X00257503Y00524226*
X00257768Y00524139*
X00257855Y00524406*
X00258121Y00524319*
X00258294Y00524852*
X00258561Y00524765*
X00258646Y00525032*
X00258914Y00524946*
X00259087Y00525477*
X00259352Y00525391*
X00259439Y00525657*
X00259705Y00525572*
X00259877Y00526102*
X00260144Y00526017*
X00260231Y00526282*
X00260498Y00526195*
X00260671Y00526728*
X00260937Y00526643*
X00261022Y00526909*
X00261289Y00526822*
X00261463Y00527356*
X00261729Y00527268*
X00261816Y00527535*
X00262081Y00527449*
X00262255Y00527981*
X00262522Y00527894*
X00262608Y00528161*
X00262873Y00528074*
X00263047Y00528607*
X00263313Y0052852*
X002634Y00528786*
X00263667Y005287*
X00263839Y00529233*
X00264106Y00529146*
X00264192Y00529411*
X00264459Y00529326*
X00264632Y00529858*
X00264897Y00529773*
X00264983Y00530038*
X0026525Y00529952*
X00265423Y00530484*
X00265689Y00530397*
X00265777Y00530663*
X00266044Y00530579*
X00266215Y0053111*
X00266482Y00531024*
X0026657Y0053129*
X00266836Y00531203*
X00267007Y00531736*
X00267273Y00531649*
X00267361Y00531917*
X0027029Y00530964*
X00270203Y00530697*
X00272068Y00530092*
X00271721Y00529027*
X00271988Y00528939*
X00271123Y00526277*
X00271388Y00526192*
X00270524Y00523527*
X0027079Y00523441*
X00270011Y00521044*
X00270277Y00520958*
X00269414Y00518293*
X00269679Y00518208*
X00268813Y00515546*
X00269078Y00515459*
X00268301Y0051306*
X00268567Y00512976*
X00267703Y00510313*
X00267969Y00510228*
X00267103Y00507565*
X0026737Y00507478*
X00266503Y00504813*
X00266771Y00504728*
X00265992Y0050233*
X00266258Y00502244*
X00265392Y00499581*
X0026566Y00499496*
X00264794Y00496832*
X00265061Y00496746*
X00264282Y00494349*
X00264548Y00494263*
X00263681Y00491599*
X00263949Y00491512*
X00263084Y00488849*
X0026335Y00488764*
X00262484Y004861*
X0026275Y00486012*
X00261973Y00483618*
X00262237Y00483529*
X0026146Y00481134*
X00261726Y00481046*
X00261552Y00480514*
X0026182Y00480427*
X00261646Y00479894*
X00261912Y00479809*
X00261825Y00479542*
X00248245Y00483956*
X00248415Y00484488*
X00248685Y00484401*
X00248857Y00484935*
X00249124Y00484847*
X0025042Y00488842*
X00250155Y00488929*
X00251453Y00492924*
X00251187Y0049301*
X00252399Y00496738*
X0025213Y00496824*
X00253428Y00500819*
X00253162Y00500905*
X00254374Y00504634*
X00254107Y00504721*
X00254629Y00506317*
X00254361Y00506404*
X00254188Y00505872*
X00253923Y00505958*
X00253834Y00505691*
X00253569Y00505778*
X00253395Y00505245*
X0025313Y00505332*
X00252956Y00504799*
X00252691Y00504886*
X00252603Y00504619*
X00252336Y00504707*
X00252164Y00504174*
X00251898Y0050426*
X00251813Y00503993*
X00251545Y0050408*
X00251372Y00503548*
X00251106Y00503635*
X00250933Y00503102*
X00250666Y00503189*
X0025058Y00502922*
X00250314Y00503009*
X00250141Y00502476*
X00249875Y00502562*
X00249788Y00502296*
X00249521Y00502382*
X00249347Y0050185*
X00249084Y00501937*
X00248995Y00501671*
X00248732Y00501757*
X00248557Y00501225*
X00248289Y0050131*
X00248117Y00500779*
X00247851Y00500864*
X00247765Y00500599*
X00247499Y00500685*
X00247325Y00500152*
X00247058Y00500239*
X00246972Y00499972*
X00246705Y0050006*
X00246533Y00499526*
X00246266Y00499614*
X00246094Y00499081*
X00245827Y00499168*
X00245741Y00498901*
X00245472Y00498987*
X00245301Y00498454*
X00245034Y00498541*
X00244949Y00498275*
X00244683Y00498361*
X0024451Y00497829*
X00244241Y00497915*
X00244157Y00497649*
X0024389Y00497734*
X00243716Y00497204*
X0024345Y0049729*
X00243278Y00496758*
X00243012Y00496846*
X00242924Y00496578*
X00242659Y00496663*
X00242486Y0049613*
X00242219Y00496218*
X00242133Y00495951*
X00241866Y0049604*
X00241693Y00495504*
X00241425Y00495591*
X0024134Y00495326*
X00241075Y00495413*
X002409Y00494878*
X00240635Y00494966*
X00240463Y00494433*
X00240194Y0049452*
X00240109Y00494253*
X00239842Y0049434*
X0023967Y00493806*
X00239403Y00493895*
X00239317Y00493627*
X0023905Y00493714*
X00238876Y0049318*
X00238613Y00493268*
X00238439Y00492735*
X00238172Y00492822*
X00238085Y00492555*
X00237819Y00492643*
X00237645Y0049211*
X0023738Y00492197*
X00237293Y0049193*
X00237027Y00492016*
X00236852Y00491484*
X00236588Y00491571*
X00236501Y00491304*
X00236234Y00491392*
X00236062Y00490858*
X00235795Y00490945*
X00235622Y00490411*
X00235356Y00490499*
X00235269Y00490233*
X00235003Y00490319*
X0023483Y00489786*
X00234563Y00489873*
X00234477Y00489607*
X0022995Y00491077*
X00230037Y00491343*
X00229771Y0049143*
X00229856Y00491696*
X00229591Y00491783*
X00229763Y00492314*
X00229497Y00492402*
X0022967Y00492935*
X00229404Y00493022*
X0022949Y00493288*
X00229225Y00493373*
X00229398Y00493906*
X00229131Y00493993*
X00229218Y0049426*
X00228952Y00494346*
X00229124Y00494878*
X00228858Y00494965*
X00229032Y00495498*
X00228765Y00495584*
X00228851Y0049585*
X00228584Y00495937*
X00228757Y00496468*
X00228492Y00496555*
X00228578Y00496822*
X00228312Y00496909*
X00228484Y00497441*
X00228218Y00497527*
X00228392Y00498062*
X00228125Y00498147*
X00228211Y00498412*
X00227946Y00498499*
X00228118Y00499032*
X00227852Y0049912*
X00228025Y00499653*
X00227759Y00499737*
X00227845Y00500004*
X00227579Y00500092*
X00227752Y00500623*
X00227486Y00500711*
X00227574Y00500976*
X00227306Y00501062*
X0022748Y00501596*
X00227214Y00501682*
X00227387Y00502216*
X0022712Y00502301*
X00227207Y00502568*
X0022694Y00502654*
X00227112Y00503186*
X00226847Y00503273*
X00226933Y00503539*
X00226667Y00503626*
X0022684Y00504158*
X00226572Y00504245*
X00226747Y00504778*
X00226482Y00504864*
X00226565Y0050513*
X00226301Y00505218*
X00226474Y00505749*
X00226208Y00505836*
X00226294Y00506103*
X00226028Y00506189*
X00226201Y00506723*
X00225935Y00506808*
X00226107Y0050734*
X00225841Y00507425*
X00225927Y00507695*
X00225662Y00507779*
X00225834Y00508313*
X00225567Y00508398*
X0022574Y00508933*
X00225476Y00509018*
X00225562Y00509283*
X00225294Y0050937*
X00225469Y00509903*
X00225203Y0050999*
X00225288Y00510257*
X00225022Y00510343*
X00225195Y00510875*
X00224929Y00510962*
X00225102Y00511494*
X00224837Y0051158*
X00224923Y00511847*
X00224657Y00511935*
X00224829Y00512466*
X00224562Y00512553*
X0022465Y00512819*
X00224383Y00512904*
X00224557Y00513439*
X00224291Y00513524*
X00224463Y00514057*
X00224197Y00514144*
X00224284Y00514411*
X00224016Y00514498*
X0022419Y0051503*
X00223924Y00515116*
X00224096Y0051565*
X0022383Y00515735*
X00223917Y00516002*
X00223651Y00516088*
X00222354Y00512094*
X00222085Y0051218*
X00220788Y00508186*
X00220521Y00508272*
X00219138Y00504012*
X00218871Y00504099*
X00217488Y00499837*
X00217221Y00499924*
X00215836Y00495663*
X00216103Y00495576*
X00215928Y00495045*
X00216195Y00494958*
X00216023Y00494425*
X00202444Y00498838*
X00202615Y0049937*
X0020288Y00499282*
X00203054Y00499816*
X00203321Y0049973*
X00204013Y00501859*
X00204279Y00501774*
X00205405Y00505235*
X0020567Y0050515*
X0020619Y00506746*
X00206275Y00507013*
X00206707Y00508344*
X00206974Y00508259*
X00208012Y00511454*
X0020828Y00511366*
X00209317Y00514562*
X00209583Y00514475*
X00210622Y00517671*
X00210887Y00517586*
X00211928Y00520778*
X00212191Y00520693*
X00213317Y00524155*
X00213584Y00524071*
X00214623Y00527265*
X00214887Y00527179*
X00215928Y00530373*
X00216192Y00530288*
X00217231Y00533482*
X00217496Y00533396*
X00218537Y00536593*
X00218802Y00536506*
X00219927Y00539967*
X00220194Y0053988*
X00221231Y00543077*
X00221498Y0054299*
X00222537Y00546186*
X00223868Y00545752*
G37*
G36*
X00301897Y00519516D02*
X00301986Y00519781D01*
X00303051Y00519436*
X00303138Y00519702*
X00305002Y00519097*
X00305087Y00519363*
X00330653Y00511057*
X00330567Y00510789*
X003303Y00510875*
X00330127Y00510345*
X00329861Y00510429*
X00314546Y00463297*
X00314812Y00463208*
X00314725Y00462944*
X0031499Y00462857*
X00314819Y00462325*
X00300972Y00466823*
X00301057Y00467091*
X00301323Y00467003*
X00301411Y00467269*
X00301497Y00467536*
X00301763Y00467449*
X00301936Y00467983*
X00302203Y00467895*
X00306874Y00482276*
X00300484Y00484351*
X00300397Y00484084*
X00300132Y00484172*
X00299959Y0048364*
X00299692Y00483726*
X00299605Y0048346*
X00299339Y00483548*
X00299252Y00483279*
X00298984Y00483367*
X00298813Y00482834*
X00298546Y0048292*
X00298459Y00482655*
X00298194Y00482741*
X00298022Y00482206*
X00297757Y00482294*
X00297668Y00482028*
X00297402Y00482116*
X00297316Y00481848*
X00297049Y00481936*
X00296876Y00481403*
X00296611Y00481491*
X00296524Y00481223*
X00296256Y00481309*
X00296085Y00480777*
X00295818Y00480863*
X00295731Y00480597*
X00295465Y00480682*
X00295378Y00480417*
X00295112Y00480504*
X00294939Y00479971*
X00294672Y00480058*
X00294585Y00479791*
X00294319Y00479878*
X00294233Y00479612*
X00293967Y00479698*
X00293793Y00479166*
X00293527Y00479254*
X0029344Y00478985*
X00293175Y00479073*
X00293088Y00478805*
X00292822Y00478893*
X00292649Y00478359*
X00292383Y00478447*
X00292296Y00478181*
X0029203Y00478267*
X00291945Y00477999*
X00291676Y00478088*
X00291591Y0047782*
X00291325Y00477908*
X00291151Y00477374*
X00290883Y00477461*
X00290799Y00477195*
X00290531Y00477281*
X00290445Y00477014*
X0029018Y00477102*
X00290092Y00476835*
X00289828Y00476922*
X00289741Y00476655*
X00289474Y00476741*
X00289389Y00476476*
X00289121Y00476561*
X00289034Y00476296*
X00288768Y00476381*
X00288682Y00476117*
X00288414Y00476203*
X00288329Y00475937*
X00288062Y00476024*
X00287976Y00475756*
X00287709Y00475842*
X00287623Y00475577*
X00287357Y00475663*
X00287269Y00475397*
X00287004Y00475483*
X00286918Y00475217*
X00286651Y00475303*
X00286565Y0047504*
X00286298Y00475123*
X00286211Y00474858*
X00285945Y00474943*
X00285859Y00474678*
X00285592Y00474764*
X00285505Y00474498*
X00284974Y00474671*
X00284885Y00474406*
X00284621Y00474492*
X00284534Y00474226*
X00284001Y00474399*
X00283914Y00474131*
X00283648Y00474218*
X00283563Y00473952*
X00283028Y00474125*
X00282944Y00473859*
X00282676Y00473945*
X00282589Y00473679*
X00282057Y00473853*
X00281971Y00473586*
X00281439Y00473759*
X00281351Y00473492*
X00280553Y00473752*
X00280467Y00473486*
X00279934Y00473659*
X00279847Y00473393*
X00279049Y00473653*
X00278961Y00473387*
X00277897Y00473732*
X00277811Y00473465*
X00276479Y00473897*
X00276392Y00473631*
X00270001Y00475709*
X00270088Y00475974*
X0026849Y00476495*
X00268577Y0047676*
X00267245Y00477193*
X0026733Y00477459*
X00267065Y00477546*
X00267931Y00480208*
X00267663Y00480295*
X00268442Y00482693*
X00268176Y00482777*
X00269042Y00485442*
X00268776Y00485529*
X00269467Y00487659*
X00270267Y00487398*
X00270182Y00487132*
X00272044Y00486527*
X00271958Y0048626*
X00273289Y00485828*
X00273376Y00486095*
X0027524Y00485488*
X00275325Y00485754*
X00276392Y00485409*
X00276478Y00485673*
X0027701Y00485503*
X00277099Y00485769*
X00277897Y00485509*
X00277983Y00485775*
X00278514Y00485602*
X00278601Y00485868*
X00278868Y00485782*
X00278954Y00486048*
X00279487Y00485875*
X00279573Y00486142*
X00279839Y00486055*
X00279925Y00486321*
X00280458Y00486149*
X00280546Y00486414*
X0028081Y00486328*
X00280898Y00486592*
X00281163Y00486509*
X00281252Y00486774*
X00281517Y00486687*
X00281604Y00486954*
X00281871Y00486868*
X00281958Y00487134*
X00282224Y00487046*
X00282309Y00487313*
X00282575Y00487227*
X00282664Y00487492*
X0028293Y00487407*
X00283014Y00487674*
X00283281Y00487586*
X00283367Y00487853*
X00283633Y00487766*
X00283808Y00488298*
X00284073Y00488212*
X0028416Y00488478*
X00284426Y00488391*
X00284512Y00488659*
X0028478Y00488572*
X00284866Y00488838*
X00285133Y00488751*
X00285218Y00489018*
X00285487Y00488931*
X00285659Y00489462*
X00285924Y00489378*
X00286011Y00489644*
X00286276Y00489558*
X00286364Y00489823*
X0028663Y00489737*
X00286802Y00490269*
X00287069Y00490183*
X00287155Y00490448*
X00287422Y00490362*
X0028751Y00490629*
X00287774Y00490543*
X00287948Y00491074*
X00288213Y00490988*
X00288301Y00491256*
X00288568Y00491168*
X00288652Y00491436*
X00288921Y00491347*
X00289178Y00492147*
X00288647Y0049232*
X00288734Y00492586*
X00288201Y00492758*
X00288288Y00493025*
X0028802Y00493112*
X00288106Y00493378*
X00287575Y00493552*
X0028766Y00493816*
X00287395Y00493904*
X00287481Y00494171*
X00286949Y00494343*
X00287035Y0049461*
X00286769Y00494697*
X00286856Y00494964*
X0028659Y00495048*
X00286677Y00495314*
X0028641Y00495402*
X00286496Y00495668*
X0028623Y00495754*
X00286317Y00496021*
X00285784Y00496193*
X00285871Y0049646*
X00285605Y00496547*
X00285776Y00497079*
X00285512Y00497167*
X00285598Y00497432*
X00285331Y00497517*
X00285418Y00497785*
X00285151Y00497871*
X00285237Y00498137*
X00284971Y00498224*
X00285146Y00498756*
X00284878Y00498843*
X00284965Y0049911*
X00284698Y00499197*
X00284871Y00499729*
X00284605Y00499817*
X00284691Y00500082*
X00284425Y00500168*
X00284599Y005007*
X00284331Y00500787*
X00284504Y00501321*
X0028424Y00501407*
X00284498Y00502205*
X00284233Y00502292*
X00284491Y0050309*
X00284225Y00503177*
X00284572Y00504242*
X00284304Y00504328*
X00284652Y00505395*
X00284386Y00505481*
X00286289Y0051134*
X00286555Y00511252*
X00286988Y00512584*
X00287254Y00512497*
X002876Y00513563*
X00287867Y00513478*
X00288126Y00514275*
X00288391Y00514188*
X00288566Y00514721*
X00288831Y00514635*
X00289091Y00515434*
X00289358Y00515346*
X00289531Y0051588*
X00289797Y00515793*
X00289883Y00516059*
X0029015Y00515974*
X00290323Y00516505*
X00290589Y00516419*
X00290763Y00516951*
X00291029Y00516866*
X00291114Y00517133*
X0029138Y00517045*
X00291468Y00517312*
X00291733Y00517225*
X00291819Y0051749*
X00292087Y00517404*
X00292259Y00517937*
X00292526Y00517851*
X00292613Y00518117*
X00292878Y0051803*
X00292966Y00518296*
X00293232Y00518209*
X00293318Y00518476*
X00293851Y00518303*
X00293938Y0051857*
X00294202Y00518483*
X00294289Y00518748*
X00294556Y00518663*
X00294643Y00518929*
X00294909Y00518842*
X00294995Y00519109*
X00295529Y00518936*
X00295616Y00519202*
X00295881Y00519116*
X00295967Y00519381*
X002965Y0051921*
X00296586Y00519475*
X0029712Y00519302*
X00297205Y00519569*
X00297739Y00519395*
X00297826Y0051966*
X00298358Y00519487*
X00298443Y00519754*
X00298977Y00519584*
X00299063Y00519847*
X00299861Y00519589*
X0029995Y00519855*
X00300748Y00519595*
X00300834Y00519861*
X00301897Y00519516*
G37*
G36*
X00354267Y0050309D02*
X00354353Y00503355D01*
X00355418Y00503011*
X00355504Y00503276*
X00356836Y00502843*
X00356923Y0050311*
X00359055Y00502417*
X00359139Y00502685*
X00364464Y00500953*
X00364378Y00500687*
X00366508Y00499995*
X00366422Y00499729*
X00367753Y00499295*
X00367667Y00499031*
X00369Y00498595*
X00368913Y00498331*
X00369712Y00498071*
X00369626Y00497805*
X00370424Y00497546*
X00370337Y00497279*
X00371137Y0049702*
X00371049Y00496754*
X00371848Y00496495*
X00371763Y00496228*
X00372296Y00496056*
X00372208Y00495789*
X00373007Y00495529*
X0037292Y00495262*
X00373454Y0049509*
X00373366Y00494823*
X00373899Y00494649*
X00373812Y00494384*
X00374346Y00494209*
X0037426Y00493945*
X00374526Y00493858*
X00374439Y00493591*
X00374971Y00493418*
X00374885Y00493151*
X00375417Y00492979*
X0037533Y00492712*
X00375597Y00492625*
X00375511Y00492359*
X00376044Y00492187*
X00375956Y00491921*
X00376223Y00491834*
X00376136Y00491567*
X00376402Y00491482*
X00376316Y00491214*
X00376848Y00491043*
X00376761Y00490776*
X00377028Y00490688*
X00376942Y00490422*
X00377207Y00490337*
X00377122Y0049007*
X00377388Y00489983*
X00377301Y00489716*
X00377567Y00489631*
X00377482Y00489365*
X00377747Y00489277*
X00377661Y00489011*
X00377927Y00488923*
X0037784Y00488658*
X00378373Y00488484*
X003782Y00487952*
X00378466Y00487865*
X0037838Y004876*
X00378645Y00487513*
X0037856Y00487246*
X00378826Y0048716*
X00378739Y00486896*
X00379005Y00486808*
X00378918Y00486542*
X00379185Y00486454*
X00379099Y00486188*
X00379365Y00486103*
X00379279Y00485835*
X00379546Y0048575*
X00379373Y00485216*
X00379639Y0048513*
X00379551Y00484864*
X00379818Y00484778*
X00379731Y00484512*
X00379999Y00484425*
X00379825Y00483892*
X0038009Y00483804*
X00380004Y00483539*
X0038027Y00483452*
X00380098Y0048292*
X00380364Y00482833*
X00380191Y00482301*
X00380458Y00482213*
X0038037Y0048195*
X00380637Y00481861*
X00380465Y00481329*
X0038073Y00481241*
X00380557Y0048071*
X00380824Y00480624*
X00380565Y00479826*
X0038083Y00479739*
X00380657Y00479206*
X00380923Y00479118*
X00380751Y00478586*
X00381016Y004785*
X00380757Y004777*
X00381023Y00477615*
X00380765Y00476815*
X00381031Y00476728*
X00380771Y00475931*
X00381038Y00475843*
X00380692Y00474778*
X00380958Y00474691*
X00380525Y00473359*
X00380791Y00473274*
X00380272Y00471675*
X00380538Y0047159*
X00378031Y00463867*
X00377763Y00463953*
X00377245Y00462355*
X00376978Y00462441*
X00376544Y00461111*
X00376278Y00461197*
X00375933Y00460133*
X00375666Y00460218*
X00375407Y00459421*
X0037514Y00459507*
X00374881Y00458708*
X00374614Y00458793*
X00374355Y00457994*
X0037409Y00458081*
X00373915Y00457548*
X00373649Y00457635*
X00373475Y00457103*
X0037321Y00457189*
X00373036Y00456656*
X00372769Y00456742*
X00372598Y0045621*
X0037233Y00456296*
X00372159Y00455764*
X00371891Y00455851*
X00371719Y00455318*
X00371452Y00455404*
X00371366Y00455138*
X003711Y00455226*
X00370927Y00454692*
X0037066Y00454779*
X00370572Y00454512*
X00370307Y00454599*
X00370134Y00454066*
X00369868Y00454153*
X00369781Y00453887*
X00369515Y00453974*
X00369429Y00453709*
X00369162Y00453793*
X0036899Y00453261*
X00368724Y00453348*
X00368637Y00453081*
X0036837Y00453168*
X00368284Y00452901*
X00368017Y00452989*
X00367931Y00452721*
X00367664Y00452808*
X00367579Y00452541*
X0036731Y00452629*
X00367224Y00452362*
X0036696Y00452448*
X00366872Y00452182*
X00366606Y00452268*
X0036652Y00452002*
X00366253Y00452089*
X00366167Y00451822*
X00365901Y00451911*
X00365815Y00451642*
X00365547Y0045173*
X00365462Y00451463*
X00364928Y00451635*
X00364843Y0045137*
X00364574Y00451457*
X00364489Y00451189*
X00364223Y00451277*
X00364137Y0045101*
X00363869Y00451096*
X00363782Y00450829*
X0036325Y00451003*
X00363163Y00450737*
X00362898Y00450824*
X00362811Y00450557*
X0036228Y00450731*
X00362193Y00450464*
X00361925Y0045055*
X0036184Y00450286*
X00361306Y00450457*
X0036122Y00450192*
X00360687Y00450365*
X00360602Y00450097*
X0036007Y00450271*
X00359982Y00450006*
X00359449Y00450178*
X00359363Y00449912*
X00358831Y00450085*
X00358745Y00449818*
X00358211Y00449993*
X00358125Y00449725*
X00357326Y00449985*
X0035724Y00449719*
X00356705Y0044989*
X00356621Y00449626*
X00355822Y00449885*
X00355735Y00449618*
X00354935Y00449878*
X00354848Y00449611*
X00353784Y00449958*
X00353699Y00449691*
X00352634Y00450038*
X00352547Y00449771*
X00351215Y00450204*
X00351128Y00449937*
X00348998Y0045063*
X00348911Y00450364*
X00343053Y00452269*
X00343139Y00452534*
X00341008Y00453225*
X00341095Y00453493*
X00339763Y00453924*
X00339851Y00454191*
X00338786Y00454537*
X00338871Y00454803*
X00337808Y00455149*
X00337893Y00455415*
X00337094Y00455674*
X0033718Y00455941*
X00336382Y00456199*
X00336467Y00456467*
X00335668Y00456727*
X00335756Y00456992*
X00335225Y00457166*
X0033531Y00457433*
X00334779Y00457605*
X00334863Y00457873*
X00334332Y00458046*
X00334418Y00458312*
X00333885Y00458485*
X00333973Y0045875*
X00333439Y00458925*
X00333526Y00459191*
X00332992Y00459363*
X0033308Y0045963*
X00332548Y00459802*
X00332634Y0046007*
X00332366Y00460154*
X00332454Y00460422*
X0033192Y00460594*
X00332008Y0046086*
X00331743Y00460947*
X00331828Y00461214*
X00331295Y00461387*
X00331382Y00461654*
X00331115Y0046174*
X00331203Y00462007*
X0033067Y0046218*
X00330757Y00462444*
X00330491Y00462533*
X00330576Y00462798*
X0033031Y00462884*
X00330397Y00463151*
X0033013Y00463238*
X00330216Y00463504*
X0032995Y0046359*
X00330036Y00463857*
X00329771Y00463943*
X00329856Y00464208*
X00329325Y00464382*
X0032941Y00464649*
X00329144Y00464733*
X00329231Y00465003*
X00328965Y00465087*
X00329051Y00465354*
X00328785Y0046544*
X00328959Y00465973*
X00328694Y0046606*
X00328779Y00466327*
X00328512Y00466414*
X00328598Y00466679*
X00328332Y00466765*
X00328418Y00467031*
X00328152Y0046712*
X0032824Y00467384*
X00327974Y00467472*
X00328146Y00468005*
X0032788Y00468091*
X00327967Y00468356*
X003277Y00468444*
X00327786Y00468709*
X00327521Y00468796*
X00327694Y00469329*
X00327426Y00469415*
X00327512Y00469682*
X00327248Y00469769*
X0032742Y00470301*
X00327154Y00470387*
X0032724Y00470654*
X00326974Y0047074*
X00327146Y00471272*
X00326882Y0047136*
X00327053Y00471891*
X00326787Y00471978*
X0032696Y00472512*
X00326695Y00472597*
X00326868Y0047313*
X00326602Y00473218*
X0032686Y00474016*
X00326595Y00474103*
X00326766Y00474633*
X00326502Y00474721*
X0032676Y0047552*
X00326495Y00475606*
X00326754Y00476405*
X00326488Y00476492*
X00326834Y00477558*
X00326568Y00477644*
X00326913Y00478709*
X00326647Y00478794*
X0032708Y00480127*
X00326814Y00480213*
X0032742Y00482077*
X00327152Y00482163*
X00329057Y00488023*
X00329322Y00487935*
X00330016Y00490065*
X00330282Y00489979*
X00330714Y00491312*
X00330981Y00491224*
X00331326Y00492289*
X00331592Y00492203*
X00331851Y00493001*
X00332118Y00492915*
X00332378Y00493713*
X00332645Y00493627*
X00332905Y00494427*
X00333171Y0049434*
X0033343Y00495138*
X00333696Y00495052*
X00333869Y00495586*
X00334136Y00495498*
X00334308Y0049603*
X00334576Y00495945*
X00334748Y00496477*
X00335015Y00496392*
X00335188Y00496924*
X00335453Y00496837*
X00335626Y00497368*
X00335894Y00497282*
X00335979Y00497549*
X00336245Y00497464*
X00336418Y00497996*
X00336686Y00497909*
X0033677Y00498176*
X00337037Y00498088*
X00337211Y00498622*
X00337476Y00498535*
X00337563Y00498801*
X00337831Y00498714*
X00338005Y00499247*
X00338269Y0049916*
X00338356Y00499426*
X00338622Y00499341*
X00338709Y00499607*
X00338974Y0049952*
X00339061Y00499786*
X00339327Y004997*
X00339415Y00499966*
X00339681Y0049988*
X00339768Y00500146*
X00340034Y0050006*
X00340207Y00500591*
X00340472Y00500505*
X00340562Y00500771*
X00340826Y00500685*
X00340911Y00500952*
X00341445Y00500779*
X00341533Y00501044*
X00341797Y00500957*
X00341884Y00501225*
X0034215Y00501137*
X00342237Y00501404*
X00342503Y00501318*
X0034259Y00501584*
X00342856Y00501497*
X00342943Y00501764*
X00343209Y00501677*
X00343295Y00501944*
X00343829Y00501771*
X00343914Y00502036*
X0034418Y0050195*
X00344268Y00502217*
X00344535Y0050213*
X0034462Y00502395*
X00345154Y00502223*
X00345238Y0050249*
X00345505Y00502403*
X00345592Y0050267*
X00346125Y00502497*
X00346212Y00502764*
X00346745Y00502589*
X0034683Y00502856*
X00347096Y00502769*
X00347183Y00503035*
X00347716Y00502861*
X00347801Y00503128*
X00348335Y00502957*
X0034842Y00503222*
X00348954Y00503049*
X00349041Y00503316*
X00349839Y00503056*
X00349925Y00503322*
X00350459Y00503149*
X00350544Y00503414*
X00351344Y00503155*
X00351431Y00503421*
X0035223Y00503163*
X00352316Y00503428*
X00353114Y00503169*
X00353201Y00503435*
X00354267Y0050309*
G37*
G36*
X0042359Y00480859D02*
X00423504Y00480592D01*
X00423237Y00480679*
X00423065Y00480146*
X00422798Y00480234*
X00407482Y00433099*
X0040775Y00433013*
X00407663Y00432746*
X00407929Y0043266*
X00407755Y00432128*
X00374735Y00442855*
X00374822Y00443121*
X00374554Y00443209*
X00376633Y00449599*
X00376719Y00449867*
X00378189Y00454394*
X00378721Y00454221*
X00378635Y00453954*
X00378902Y00453868*
X00378815Y00453601*
X00379082Y00453515*
X00378994Y00453248*
X00398169Y00447019*
X00410195Y00484034*
X00409927Y0048412*
X00410102Y00484654*
X00409835Y0048474*
X00409922Y00485006*
X00409656Y00485093*
X00409743Y00485358*
X0042359Y00480859*
G37*
G36*
X0045661Y00470128D02*
X00456438Y00469596D01*
X00456704Y00469512*
X00456445Y00468713*
X0045671Y00468627*
X00456538Y00468094*
X00456804Y00468007*
X00456632Y00467473*
X00456897Y00467387*
X00456725Y00466853*
X0045699Y00466768*
X00456731Y00465969*
X00456996Y00465882*
X00456823Y00465352*
X00457091Y00465263*
X00456917Y00464731*
X00457182Y00464644*
X00456924Y00463846*
X00457191Y00463759*
X00457015Y00463227*
X00457284Y00463139*
X00457109Y00462607*
X00457377Y0046252*
X00457203Y00461988*
X0045747Y00461901*
X00457211Y00461103*
X00457478Y00461015*
X00457305Y00460484*
X0045757Y00460397*
X00457397Y00459865*
X00457663Y00459779*
X00457491Y00459245*
X00457758Y00459159*
X00457495Y00458359*
X00457763Y00458273*
X00457592Y00457741*
X00457856Y00457654*
X00457684Y00457122*
X0045795Y00457036*
X00457775Y00456503*
X00458043Y00456416*
X00457784Y00455616*
X00458051Y00455531*
X00457877Y00454997*
X00458144Y00454912*
X00457969Y00454379*
X00458236Y00454291*
X00458063Y0045376*
X0045833Y00453674*
X0045807Y00452875*
X00458336Y00452788*
X00458162Y00452255*
X00458429Y00452168*
X00458257Y00451636*
X00458523Y00451549*
X00458351Y00451017*
X00458615Y0045093*
X00458355Y00450132*
X00458623Y00450045*
X0045845Y00449512*
X00458716Y00449426*
X00458542Y00448895*
X00458809Y00448806*
X00458549Y00448008*
X00458815Y00447921*
X00458643Y00447388*
X00458908Y00447303*
X00458736Y0044677*
X00459003Y00446682*
X0045883Y00446151*
X00459095Y00446064*
X00458837Y00445265*
X00459102Y00445179*
X00458929Y00444646*
X00459195Y0044456*
X00459023Y00444027*
X00459289Y00443941*
X00459115Y00443407*
X00459382Y00443322*
X00459123Y00442522*
X00459389Y00442437*
X00459214Y00441903*
X00459481Y00441817*
X0045931Y00441284*
X00459576Y00441197*
X00459401Y00440665*
X00459668Y0044058*
X00459409Y0043978*
X00459676Y00439693*
X00459502Y00439161*
X00459769Y00439074*
X00459595Y00438543*
X00459861Y00438454*
X0045969Y00437923*
X00459955Y00437835*
X00459695Y00437037*
X00459961Y0043695*
X00459789Y00436417*
X00460055Y00436332*
X00459881Y00435798*
X00460148Y00435712*
X00459975Y00435181*
X00460242Y00435092*
X00459981Y00434294*
X00460248Y00434206*
X00460076Y00433676*
X00460342Y00433589*
X00460167Y00433055*
X00460435Y00432971*
X00460176Y0043217*
X00460442Y00432084*
X00460268Y00431552*
X00460534Y00431465*
X00460361Y00430931*
X00460627Y00430846*
X00460455Y00430314*
X00460721Y00430228*
X00460462Y00429427*
X00460726Y00429341*
X00460553Y00428808*
X0046082Y00428723*
X00460647Y0042819*
X00460914Y00428103*
X0046074Y00427572*
X00461008Y00427484*
X00460748Y00426685*
X00461013Y00426598*
X00460841Y00426065*
X00461104Y00425979*
X00460934Y00425446*
X004612Y0042536*
X00461027Y00424828*
X00461294Y00424741*
X00461034Y00423941*
X00461299Y00423856*
X00461127Y00423322*
X00461395Y00423236*
X00461221Y00422706*
X00461487Y00422616*
X00461314Y00422084*
X00461579Y00421999*
X00461322Y004212*
X00461586Y00421112*
X00461414Y0042058*
X0046168Y00420494*
X00461507Y00419962*
X00461774Y00419875*
X00461601Y00419341*
X00461867Y00419256*
X00461607Y00418456*
X00461873Y00418369*
X00461701Y00417838*
X00461967Y0041775*
X00461793Y0041722*
X00462061Y00417132*
X00461887Y00416601*
X00462154Y00416514*
X0046198Y0041598*
X00462247Y00415892*
X0046216Y00415627*
X00462427Y00415542*
X00462253Y00415009*
X00462519Y00414923*
X00462434Y00414656*
X00462699Y00414569*
X00462613Y00414303*
X00448765Y00418802*
X00449025Y00419601*
X0044929Y00419515*
X0044955Y00420312*
X00449284Y00420399*
X00449543Y00421198*
X00449276Y00421284*
X00449537Y00422084*
X00449271Y00422171*
X00449443Y00422703*
X00449179Y00422789*
X00449439Y00423589*
X00449172Y00423676*
X00449344Y00424208*
X00449078Y00424296*
X00449337Y00425093*
X0044907Y00425178*
X00449244Y00425713*
X00448979Y00425798*
X00449238Y00426597*
X00448972Y00426685*
X00449144Y00427216*
X00448878Y00427302*
X00449138Y00428103*
X00448871Y00428187*
X00449044Y00428723*
X00448777Y00428806*
X0044895Y00429339*
X00433238Y00434445*
X00433153Y00434179*
X00432886Y00434265*
X00432802Y00434*
X00432714Y00433734*
X00432448Y0043382*
X00432187Y00433021*
X00431922Y00433106*
X00431663Y00432308*
X00431395Y00432396*
X00431222Y00431861*
X00430956Y00431949*
X00430698Y00431151*
X00430429Y00431238*
X0043017Y00430438*
X00429904Y00430524*
X00429732Y00429992*
X00429465Y00430078*
X00429206Y00429279*
X00428939Y00429365*
X0042868Y00428568*
X00428413Y00428654*
X00428241Y00428121*
X00427974Y00428208*
X00427195Y00425811*
X00413348Y0043031*
X00413435Y00430578*
X00413701Y0043049*
X00413787Y00430756*
X00414054Y0043067*
X00414228Y00431201*
X00414494Y00431115*
X0041458Y00431381*
X00414846Y00431296*
X00415019Y00431828*
X00415285Y00431742*
X00415457Y00432275*
X00415725Y00432188*
X00415984Y00432987*
X0041625Y00432899*
X00416424Y00433432*
X00416689Y00433347*
X0041695Y00434145*
X00417215Y00434059*
X00417388Y00434591*
X00417655Y00434504*
X00417914Y00435302*
X00418181Y00435218*
X0041844Y00436016*
X00418707Y0043593*
X00418881Y00436462*
X00419146Y00436375*
X00419406Y00437173*
X00419673Y00437087*
X00419845Y0043762*
X00420111Y00437533*
X00420371Y00438333*
X00420638Y00438246*
X00420896Y00439045*
X00421162Y00438959*
X00421336Y00439492*
X00421601Y00439404*
X00421862Y00440203*
X00422128Y00440116*
X00422301Y00440649*
X00422568Y00440562*
X00422829Y00441362*
X00423093Y00441275*
X00423267Y00441807*
X00423534Y0044172*
X00423793Y00442519*
X0042406Y00442434*
X00424318Y00443231*
X00424585Y00443146*
X00424757Y00443678*
X00425024Y00443593*
X00425283Y00444392*
X0042555Y00444305*
X00425723Y00444837*
X00425989Y00444751*
X00426247Y0044555*
X00426516Y00445462*
X00426774Y00446261*
X00427039Y00446174*
X00427214Y00446708*
X0042748Y00446621*
X0042774Y00447421*
X00428005Y00447334*
X00428179Y00447866*
X00428445Y0044778*
X00428705Y00448578*
X00428973Y00448492*
X0042923Y00449291*
X00429498Y00449204*
X0042967Y00449737*
X00429936Y00449651*
X00430195Y0045045*
X00430461Y00450363*
X00430635Y00450895*
X00430902Y00450808*
X0043116Y00451609*
X00431426Y00451522*
X00431601Y00452054*
X00431867Y00451967*
X00432126Y00452766*
X00432392Y0045268*
X00432652Y00453478*
X00432918Y00453392*
X00433092Y00453923*
X00433358Y00453839*
X00433618Y00454638*
X00433884Y0045455*
X00434057Y00455083*
X00434322Y00454997*
X00434583Y00455796*
X00434848Y00455709*
X00435109Y00456508*
X00435375Y0045642*
X00435547Y00456954*
X00435815Y00456867*
X00436075Y00457665*
X0043634Y00457579*
X00436515Y00458111*
X00436779Y00458028*
X00437039Y00458824*
X00437305Y00458739*
X00437478Y0045927*
X00437743Y00459183*
X00438005Y00459982*
X00438272Y00459896*
X0043853Y00460695*
X00438796Y00460608*
X0043897Y00461141*
X00439235Y00461055*
X00439495Y00461853*
X00439762Y00461768*
X00439935Y004623*
X00440201Y00462213*
X0044046Y00463013*
X00440728Y00462924*
X00440986Y00463724*
X00441253Y00463638*
X00441427Y00464171*
X00441691Y00464085*
X00441952Y00464883*
X00442219Y00464797*
X00442391Y00465329*
X00442656Y00465243*
X00442916Y00466043*
X00443183Y00465955*
X00443356Y00466488*
X00443624Y00466401*
X00443883Y004672*
X00444148Y00467113*
X00444409Y00467913*
X00444673Y00467827*
X00444848Y00468358*
X00445114Y00468272*
X00445373Y00469071*
X00445639Y00468984*
X00445812Y00469516*
X00446078Y00469429*
X00446338Y00470229*
X00446604Y00470142*
X00446865Y00470941*
X0044713Y00470855*
X00447304Y00471387*
X00447569Y00471301*
X0044783Y004721*
X00448095Y00472014*
X00448269Y00472546*
X00448535Y00472459*
X00448621Y00472725*
X0045661Y00470128*
G37*
G36*
X00482175Y00461823D02*
X00482003Y00461292D01*
X00481737Y00461377*
X00481302Y00460046*
X00481569Y00459958*
X00481396Y00459427*
X00481663Y00459341*
X00481402Y00458542*
X0048167Y00458455*
X00481495Y00457923*
X00481762Y00457835*
X00481504Y00457038*
X00481769Y00456951*
X00481597Y00456417*
X00481864Y00456332*
X00481691Y00455799*
X00481955Y00455711*
X00481696Y00454913*
X00481962Y00454825*
X0048179Y00454293*
X00482056Y00454207*
X00481796Y00453408*
X00482064Y00453322*
X00481888Y0045279*
X00482156Y00452703*
X00481897Y00451904*
X00482162Y00451817*
X0048199Y00451284*
X00482256Y00451199*
X00481997Y00450399*
X00482261Y00450313*
X0048209Y0044978*
X00482356Y00449695*
X00482096Y00448895*
X00482363Y00448807*
X00482188Y00448277*
X00482457Y0044819*
X00482282Y00447656*
X00482548Y00447571*
X0048229Y00446773*
X00482555Y00446684*
X00482383Y00446153*
X00482648Y00446066*
X00482388Y00445267*
X00482655Y00445179*
X00482483Y00444649*
X00482749Y00444562*
X00482489Y00443762*
X00482755Y00443676*
X00482582Y00443142*
X00482848Y00443056*
X00482589Y00442259*
X00482856Y00442171*
X00482683Y00441637*
X00482948Y00441552*
X00482689Y00440753*
X00482954Y00440666*
X00482782Y00440134*
X00483048Y00440047*
X00482875Y00439516*
X00483143Y00439429*
X00482882Y0043863*
X00483149Y00438543*
X00482976Y00438012*
X00483242Y00437924*
X00482981Y00437123*
X00483248Y00437038*
X00483075Y00436505*
X00483341Y0043642*
X00483084Y0043562*
X00483349Y00435533*
X00483175Y00435002*
X00483442Y00434915*
X00483182Y00434116*
X00483449Y00434029*
X00483276Y00433496*
X00483541Y0043341*
X00483281Y00432611*
X00483548Y00432524*
X00483375Y00431992*
X00483641Y00431906*
X00483468Y00431373*
X00483734Y00431287*
X00483476Y00430489*
X00483742Y004304*
X00483568Y00429869*
X00483836Y00429782*
X00483577Y00428983*
X00483842Y00428897*
X00483669Y00428364*
X00483935Y00428278*
X00484108Y00428812*
X00484374Y00428724*
X00484546Y00429255*
X00484813Y0042917*
X00484986Y00429704*
X00485253Y00429617*
X00485512Y00430416*
X00485778Y00430329*
X00485952Y0043086*
X00486219Y00430774*
X00486477Y00431573*
X00486745Y00431486*
X00486916Y00432019*
X00487183Y00431933*
X00487443Y00432732*
X0048771Y00432644*
X00487883Y00433179*
X00488148Y00433091*
X00488322Y00433623*
X00488586Y00433538*
X00488847Y00434337*
X00489114Y0043425*
X00489287Y00434782*
X00489553Y00434696*
X00489811Y00435495*
X00490079Y00435408*
X00490251Y00435941*
X00490518Y00435854*
X00490777Y00436654*
X00491045Y00436567*
X00491217Y00437099*
X00491484Y00437012*
X00491742Y00437812*
X00492009Y00437725*
X00492182Y00438258*
X00492448Y00438171*
X00492622Y00438706*
X00492888Y00438617*
X00493148Y00439416*
X00493415Y0043933*
X00493587Y00439861*
X00493853Y00439776*
X00494113Y00440574*
X00494378Y00440487*
X00494553Y0044102*
X00494818Y00440933*
X00495078Y00441733*
X00495345Y00441647*
X00495518Y00442178*
X00495784Y00442092*
X00495957Y00442625*
X00496222Y00442538*
X00496483Y00443338*
X0049675Y00443251*
X00496923Y00443784*
X00497189Y00443697*
X00497448Y00444496*
X00497714Y00444409*
X00497887Y00444942*
X00498155Y00444854*
X00498413Y00445655*
X00498678Y00445568*
X00498852Y00446102*
X00499119Y00446014*
X00499378Y00446812*
X00499645Y00446726*
X00499819Y00447259*
X00500085Y0044717*
X00500257Y00447704*
X00500524Y00447618*
X00500783Y00448417*
X00501048Y0044833*
X00501223Y00448863*
X00501489Y00448777*
X00501749Y00449575*
X00502015Y00449489*
X00502187Y00450021*
X00502454Y00449936*
X00502712Y00450733*
X00502979Y00450647*
X00503154Y0045118*
X00503418Y00451094*
X00503678Y00451894*
X00503944Y00451806*
X00504117Y00452338*
X00504384Y0045225*
X00504988Y00454116*
X00504723Y00454202*
X0050481Y00454469*
X00518924Y00449883*
X00518837Y00449618*
X00518571Y00449702*
X00518484Y00449437*
X00518219Y00449524*
X00518131Y00449257*
X00517865Y00449343*
X00517778Y00449077*
X00517513Y00449166*
X00517339Y00448632*
X00517074Y00448717*
X00516813Y0044792*
X00516548Y00448005*
X00516375Y00447474*
X00516108Y00447559*
X00515848Y00446762*
X00515582Y00446848*
X00515409Y00446316*
X00515142Y00446401*
X0051497Y0044587*
X00514703Y00445956*
X00514444Y00445156*
X00514178Y00445243*
X00514005Y0044471*
X00513738Y00444796*
X00513478Y00443998*
X00513212Y00444085*
X0051304Y00443551*
X00512773Y00443637*
X00512514Y00442839*
X00512247Y00442925*
X00512074Y00442392*
X00511808Y00442479*
X00511548Y00441681*
X00511281Y00441767*
X00511107Y00441233*
X00510841Y00441323*
X00510669Y00440789*
X00510402Y00440875*
X00510143Y00440076*
X00509878Y00440163*
X00509704Y0043963*
X00509439Y00439717*
X00509178Y00438918*
X00508912Y00439005*
X00508738Y00438472*
X00508472Y00438558*
X00508214Y00437759*
X00507947Y00437846*
X00507774Y00437313*
X00507509Y00437399*
X00507247Y00436601*
X00506982Y00436689*
X00506809Y00436155*
X00506542Y00436241*
X00506283Y00435443*
X00506016Y00435529*
X00505844Y00434997*
X00505577Y00435084*
X00505404Y00434551*
X00505137Y00434637*
X00504878Y00433839*
X00504612Y00433925*
X00504438Y00433392*
X00504174Y00433478*
X00503912Y0043268*
X00503647Y00432767*
X00503474Y00432233*
X00503207Y00432322*
X00502947Y00431521*
X00502682Y00431606*
X00502508Y00431075*
X00502243Y00431162*
X00501982Y00430364*
X00501717Y00430449*
X00501543Y00429918*
X00501278Y00430003*
X00501017Y00429203*
X0050075Y0042929*
X00500578Y00428757*
X00500312Y00428845*
X00500137Y00428312*
X00499873Y00428398*
X00499612Y00427601*
X00499346Y00427686*
X00499172Y00427154*
X00498908Y00427242*
X00498649Y00426441*
X00498381Y00426529*
X00498209Y00425995*
X00497942Y00426083*
X00497682Y00425284*
X00497417Y00425369*
X00497243Y00424837*
X00496978Y00424924*
X00496718Y00424124*
X0049645Y00424211*
X00496279Y0042368*
X00496012Y00423765*
X00495752Y00422966*
X00495484Y00423053*
X00495314Y0042252*
X00495046Y00422607*
X00494875Y00422075*
X00494608Y00422161*
X00494347Y00421362*
X00494081Y00421447*
X00493908Y00420915*
X00493641Y00421003*
X00493382Y00420203*
X00493117Y00420291*
X00492944Y00419756*
X00492675Y00419844*
X00492415Y00419045*
X00492152Y00419133*
X00491977Y00418597*
X00491711Y00418686*
X00491453Y00417887*
X00491185Y00417974*
X00491013Y00417441*
X00490747Y00417527*
X00490573Y00416995*
X00490307Y0041708*
X00490046Y00416281*
X00489781Y00416369*
X00489608Y00415836*
X00489341Y00415922*
X00489082Y00415122*
X00488817Y00415209*
X00488642Y00414676*
X00488377Y00414763*
X00488118Y00413964*
X00487851Y00414052*
X00487678Y0041352*
X0048741Y00413606*
X00487153Y00412807*
X00486885Y00412892*
X00486713Y0041236*
X00486445Y00412446*
X00486186Y00411648*
X0048592Y00411735*
X00485748Y00411202*
X0048548Y00411289*
X00485307Y00410758*
X00485042Y00410842*
X00484781Y00410044*
X00484516Y0041013*
X00484344Y00409598*
X00484077Y00409685*
X00483817Y00408885*
X0048355Y00408972*
X00483377Y0040844*
X0048311Y00408525*
X00482938Y00407993*
X00482671Y0040808*
X00482585Y00407814*
X00474063Y00410583*
X0047415Y00410848*
X00473884Y00410936*
X00474143Y00411734*
X00473876Y00411819*
X0047405Y00412352*
X00473784Y00412438*
X00473956Y00412973*
X00473691Y00413058*
X00473952Y00413856*
X00473684Y00413945*
X00473856Y00414475*
X00473591Y00414562*
X00473763Y00415094*
X00473498Y00415183*
X00473757Y00415981*
X00473492Y00416068*
X00473663Y004166*
X00473397Y00416688*
X0047357Y00417219*
X00473304Y00417305*
X00473563Y00418103*
X00473298Y0041819*
X0047347Y00418725*
X00473204Y00418811*
X00473376Y00419343*
X00473111Y0041943*
X00473284Y0041996*
X00473017Y00420048*
X00473278Y00420847*
X00473011Y00420933*
X00473183Y00421467*
X00472918Y00421552*
X00473091Y00422086*
X00472824Y00422171*
X00473084Y00422971*
X00472818Y00423058*
X0047299Y00423589*
X00472727Y00423678*
X00472898Y0042421*
X00472631Y00424295*
X00472891Y00425094*
X00472623Y00425182*
X00472797Y00425713*
X00472532Y004258*
X00472705Y00426333*
X00472437Y0042642*
X00472698Y00427218*
X00472431Y00427305*
X00472605Y00427838*
X00472337Y00427924*
X0047251Y00428457*
X00472244Y00428543*
X00472418Y00429075*
X00472153Y00429161*
X00472412Y00429961*
X00472146Y00430048*
X00472317Y0043058*
X00472051Y00430667*
X00472225Y00431199*
X00471959Y00431286*
X00472219Y00432085*
X00471953Y00432172*
X00472125Y00432704*
X0047186Y00432791*
X00472031Y00433322*
X00471766Y00433411*
X00472023Y00434209*
X00471759Y00434296*
X00471931Y00434829*
X00471666Y00434915*
X00471838Y00435448*
X00471573Y00435534*
X00471831Y00436332*
X00471565Y00436418*
X00471737Y0043695*
X00471472Y00437039*
X00471644Y00437569*
X00471378Y00437657*
X00471552Y00438189*
X00471284Y00438276*
X00471544Y00439074*
X00471279Y00439161*
X00471451Y00439694*
X00471185Y00439781*
X00471358Y00440315*
X00471092Y004404*
X00471352Y00441199*
X00471084Y00441285*
X00471258Y00441817*
X00470991Y00441903*
X00471166Y00442436*
X00470899Y00442523*
X0047116Y00443322*
X00470893Y00443409*
X00471065Y00443941*
X00470799Y00444029*
X00470972Y0044456*
X00470707Y00444647*
X00470965Y00445445*
X00470699Y00445532*
X0047087Y00446066*
X00470607Y00446152*
X0047078Y00446685*
X00470512Y00446771*
X00470685Y00447303*
X00470421Y00447391*
X00470678Y00448187*
X00470413Y00448275*
X00470585Y00448807*
X00470319Y00448894*
X00470492Y00449426*
X00470226Y00449515*
X00470486Y00450312*
X00470219Y00450399*
X00470393Y0045093*
X00470126Y00451017*
X00470298Y00451552*
X00470034Y00451638*
X00470291Y00452436*
X00470026Y00452524*
X004702Y00453055*
X00469933Y00453141*
X00470106Y00453675*
X00469839Y0045376*
X00470099Y0045456*
X00469834Y00454646*
X00470006Y00455179*
X0046974Y00455266*
X00469913Y00455798*
X00469647Y00455885*
X00469821Y00456416*
X00469552Y00456503*
X00469813Y00457301*
X00469546Y00457389*
X0046972Y00457922*
X00469454Y00458009*
X00469626Y0045854*
X0046936Y00458626*
X00469619Y00459425*
X00469353Y00459512*
X00469527Y00460046*
X00469259Y00460132*
X00469433Y00460666*
X00469167Y0046075*
X00469425Y0046155*
X0046916Y00461635*
X00469334Y00462169*
X00469068Y00462254*
X0046924Y00462788*
X00468973Y00462875*
X00469146Y00463407*
X00468881Y00463493*
X00469052Y00464026*
X00468787Y00464113*
X00468873Y00464379*
X0046896Y00464645*
X00468694Y00464733*
X00468867Y00465264*
X00468601Y00465351*
X00468688Y00465617*
X00468421Y00465704*
X00468507Y00465968*
X00468241Y00466058*
X00468326Y00466324*
X00482175Y00461823*
G37*
G36*
X00600987Y00440589D02*
X00600816Y00440056D01*
X0060108Y00439968*
X00600994Y00439703*
X00601263Y00439616*
X00601174Y00439351*
X00601441Y00439264*
X00601353Y00438999*
X0060162Y00438912*
X00601534Y00438645*
X00601801Y00438557*
X00601713Y00438294*
X0060198Y00438204*
X00601894Y00437939*
X0060216Y00437853*
X00601987Y0043732*
X00602254Y00437233*
X00602168Y00436968*
X00602432Y00436882*
X00602346Y00436614*
X00602613Y00436528*
X00602527Y00436262*
X00602793Y00436176*
X00602706Y00435908*
X00602972Y00435822*
X00602885Y00435557*
X00603153Y00435471*
X00603066Y00435205*
X00603331Y00435117*
X0060316Y00434583*
X00603425Y00434498*
X00603339Y0043423*
X00603604Y00434146*
X00603519Y0043388*
X00603785Y00433793*
X00603698Y00433525*
X00603965Y00433441*
X00603877Y00433174*
X00604144Y00433088*
X00604058Y00432821*
X00604323Y00432732*
X00604237Y00432467*
X00604503Y00432383*
X00604331Y00431849*
X00604598Y00431761*
X0060451Y00431496*
X00604777Y0043141*
X00604691Y00431141*
X00604958Y00431057*
X0060487Y00430789*
X00605136Y00430701*
X0060505Y00430437*
X00605316Y0043035*
X0060523Y00430086*
X00605496Y00429998*
X00605409Y00429733*
X00605676Y00429645*
X00605501Y00429113*
X00605769Y00429025*
X00605681Y00428759*
X00605948Y00428674*
X00605862Y00428406*
X00606129Y00428319*
X00606041Y00428054*
X00606309Y00427966*
X00606222Y004277*
X0060649Y00427615*
X00606403Y0042735*
X00606669Y00427261*
X00606581Y00426995*
X00606848Y00426908*
X0060676Y00426643*
X00607027Y00426556*
X0060694Y00426289*
X00608272Y00425856*
X00608445Y00426389*
X00608712Y00426303*
X00609405Y00428434*
X0060967Y00428347*
X00610536Y0043101*
X00610802Y00430923*
X00611753Y00433854*
X00612021Y00433767*
X00612885Y00436429*
X00613152Y00436342*
X0061341Y00437142*
X00614209Y00436882*
X00614123Y00436616*
X00615188Y00436269*
X00615103Y00436004*
X00616167Y00435656*
X0061608Y0043539*
X00617145Y00435044*
X0061706Y00434777*
X00618126Y00434433*
X00618037Y00434166*
X00619104Y00433821*
X00619017Y00433554*
X00620082Y00433209*
X00619995Y00432941*
X0062106Y00432594*
X00620972Y00432328*
X00622039Y00431984*
X00621953Y00431717*
X00622485Y00431543*
X0062188Y00429681*
X00621612Y00429767*
X0062118Y00428435*
X00620914Y00428521*
X00620395Y00426923*
X00620129Y0042701*
X00619609Y00425411*
X00619343Y00425498*
X00618911Y00424169*
X00618644Y00424253*
X00618125Y00422656*
X00617859Y00422743*
X00617341Y00421144*
X00617073Y00421233*
X0061664Y00419899*
X00616375Y00419985*
X00615855Y00418389*
X00615589Y00418474*
X0061507Y00416876*
X00614803Y00416962*
X00614373Y00415632*
X00614104Y00415719*
X00613585Y00414121*
X0061332Y00414207*
X006128Y00412609*
X00612535Y00412696*
X00612101Y00411365*
X00611836Y00411451*
X00611315Y00409853*
X00611051Y00409941*
X00610531Y00408343*
X00610265Y00408428*
X00609746Y00406831*
X00609479Y00406917*
X00609045Y00405586*
X0060878Y00405672*
X0060826Y00404074*
X00607993Y00404159*
X00607734Y00403362*
X00607468Y00403448*
X00607555Y00403715*
X00607288Y00403802*
X00607375Y00404068*
X00607109Y00404154*
X00607196Y0040442*
X00606928Y00404508*
X00607016Y00404773*
X0060675Y00404859*
X00606835Y00405125*
X00606569Y00405211*
X00606657Y0040548*
X0060639Y00405566*
X00606476Y00405832*
X00606209Y00405919*
X00606297Y00406186*
X00606031Y00406271*
X00606117Y00406537*
X00605852Y00406624*
X00605937Y00406891*
X0060567Y00406976*
X00605758Y00407243*
X0060549Y00407329*
X00605577Y00407596*
X00605311Y00407682*
X00605398Y00407949*
X00605132Y00408035*
X00605216Y00408301*
X00604952Y0040839*
X00605037Y00408654*
X00604773Y00408741*
X00604857Y00409007*
X00604592Y00409095*
X00604678Y00409362*
X00604412Y00409447*
X00604499Y00409712*
X00604233Y00409799*
X00604318Y00410066*
X00604052Y00410151*
X0060414Y00410417*
X00603873Y00410504*
X00603959Y00410771*
X00603694Y00410858*
X0060378Y00411124*
X00603514Y00411211*
X00603601Y00411477*
X00603334Y00411563*
X0060342Y00411829*
X00603154Y00411916*
X0060324Y00412183*
X00602973Y00412269*
X0060306Y00412537*
X00602793Y00412622*
X00602882Y00412888*
X00602614Y00412974*
X00602701Y00413241*
X00602436Y00413327*
X00602522Y00413593*
X00602256Y00413681*
X00602342Y00413948*
X00602076Y00414034*
X00602163Y004143*
X00601895Y00414386*
X00601982Y00414651*
X00601716Y00414739*
X00601803Y00415005*
X00601537Y00415092*
X00601622Y00415358*
X00601356Y00415445*
X00601443Y00415711*
X00601176Y00415798*
X00601264Y00416062*
X00600997Y00416151*
X00601084Y00416417*
X00600816Y00416503*
X00600903Y0041677*
X00600636Y00416855*
X00600723Y00417123*
X00600456Y00417209*
X00600544Y00417475*
X00600279Y00417562*
X00600364Y00417828*
X00600097Y00417914*
X00600185Y00418181*
X00599918Y00418267*
X00600005Y00418534*
X00599738Y00418619*
X00599824Y00418885*
X00599559Y00418974*
X00599645Y0041924*
X00599378Y00419326*
X00599465Y00419592*
X00599198Y00419678*
X00599287Y00419944*
X0059902Y00420031*
X00599104Y00420299*
X00598838Y00420384*
X00598926Y00420651*
X00598659Y00420736*
X00598746Y00421003*
X00598479Y00421089*
X00598567Y00421358*
X00598301Y00421442*
X00598388Y00421708*
X0059812Y00421795*
X00598208Y00422063*
X0059794Y00422149*
X00598025Y00422415*
X00597762Y00422501*
X00597846Y00422766*
X00597581Y00422854*
X00597666Y00423119*
X005974Y00423206*
X00597488Y00423473*
X00597222Y00423559*
X00597308Y00423826*
X00597042Y00423911*
X00597128Y00424178*
X00596861Y00424265*
X00596948Y00424532*
X00596682Y00424618*
X00596769Y00424884*
X00596501Y00424971*
X00596589Y00425237*
X00596323Y00425324*
X00596408Y0042559*
X00596143Y00425676*
X00596229Y00425943*
X00595963Y00426029*
X00596049Y00426295*
X00595782Y00426382*
X00595869Y00426647*
X00595603Y00426734*
X00595688Y00427002*
X00595425Y00427087*
X0059551Y00427354*
X00595243Y00427442*
X0059533Y00427707*
X00595064Y00427795*
X00595151Y00428059*
X00594885Y00428146*
X00594971Y00428414*
X00594705Y00428498*
X00594791Y00428766*
X00594525Y00428852*
X00594611Y00429118*
X00594345Y00429205*
X00594431Y0042947*
X00594166Y00429558*
X00594252Y00429823*
X00593987Y00429909*
X00594072Y00430177*
X00593805Y00430263*
X00593892Y00430529*
X00593627Y00430616*
X00593712Y00430881*
X00593447Y0043097*
X00593533Y00431235*
X00593266Y00431322*
X00593352Y00431588*
X00593087Y00431675*
X00593174Y0043194*
X00592908Y00432028*
X00592992Y00432293*
X00592727Y0043238*
X00592814Y00432645*
X00592548Y00432734*
X00592633Y00433*
X00592367Y00433085*
X00592454Y00433352*
X00592187Y00433439*
X00592274Y00433704*
X00592007Y00433791*
X00592094Y00434058*
X00591827Y00434145*
X00591915Y0043441*
X00591648Y00434497*
X00591736Y00434762*
X00591468Y00434851*
X00591555Y00435116*
X00591289Y00435202*
X00591375Y00435469*
X0059111Y00435555*
X00591196Y00435821*
X00590929Y00435909*
X00591015Y00436174*
X0059075Y00436261*
X00590835Y00436526*
X0059057Y00436613*
X00590656Y0043688*
X0059039Y00436966*
X00590477Y00437233*
X0059021Y00437318*
X00590296Y00437587*
X0059003Y00437672*
X00590117Y00437938*
X0058985Y00438025*
X00589937Y00438291*
X0058967Y00438378*
X00589759Y00438644*
X00589491Y00438732*
X00589577Y00438997*
X00589311Y00439085*
X00589396Y0043935*
X00589132Y00439436*
X00589218Y00439703*
X00588953Y0043979*
X00589039Y00440055*
X00588772Y00440143*
X00588858Y00440407*
X00589657Y00440147*
X00589745Y00440414*
X00590543Y00440156*
X0059063Y00440422*
X00591162Y00440248*
X00591248Y00440515*
X00592048Y00440255*
X00592134Y00440521*
X00592933Y00440263*
X0059302Y00440529*
X00593819Y00440269*
X00593906Y00440534*
X00594437Y00440362*
X00594524Y00440629*
X00595323Y00440368*
X0059541Y00440635*
X0059621Y00440374*
X00596294Y00440641*
X00597093Y00440382*
X0059718Y0044065*
X00597712Y00440476*
X005978Y00440742*
X00598598Y00440483*
X00598684Y00440749*
X00599484Y00440489*
X0059957Y00440754*
X00600369Y00440495*
X00600457Y00440762*
X00600987Y00440589*
G37*
G36*
X0057914Y00437678D02*
X00579053Y00437412D01*
X00579318Y00437324*
X00579233Y0043706*
X00579499Y00436971*
X00579413Y00436706*
X00579678Y00436619*
X00579592Y00436352*
X00580124Y00436181*
X00580038Y00435915*
X00580304Y00435828*
X00580217Y00435563*
X00580484Y00435475*
X00580398Y0043521*
X00580665Y00435121*
X00580577Y00434856*
X00580844Y00434769*
X00580758Y00434503*
X00581289Y00434329*
X00581203Y00434063*
X00581471Y00433976*
X00581382Y0043371*
X00581648Y00433624*
X00581564Y00433357*
X00581829Y00433271*
X00581742Y00433006*
X00582008Y00432919*
X00581923Y00432652*
X00582188Y00432564*
X00582102Y00432298*
X00582634Y00432126*
X0058255Y00431861*
X00582814Y00431773*
X00582729Y00431508*
X00582995Y00431422*
X00582907Y00431154*
X00583174Y00431067*
X00583087Y00430802*
X00583354Y00430715*
X00583268Y00430449*
X00583799Y00430277*
X00583713Y00430009*
X0058398Y00429922*
X00583894Y00429656*
X00584159Y0042957*
X00584073Y00429303*
X00584339Y00429218*
X00584254Y00428952*
X00584518Y00428865*
X00584433Y00428598*
X00584965Y00428425*
X00584878Y00428158*
X00585144Y00428072*
X00585058Y00427806*
X00585325Y00427719*
X00585238Y00427452*
X00585505Y00427366*
X00585417Y00427101*
X00585685Y00427014*
X00585598Y00426747*
X0058613Y00426574*
X00586043Y00426308*
X0058631Y00426221*
X00586223Y00425955*
X0058649Y0042587*
X00586403Y00425603*
X0058667Y00425516*
X00586583Y00425248*
X0058685Y00425164*
X00586762Y00424896*
X00587295Y00424724*
X00587209Y00424457*
X00587474Y00424372*
X00587388Y00424106*
X00587656Y00424018*
X00587569Y00423753*
X00587834Y00423666*
X00587749Y004234*
X00588014Y00423313*
X00587928Y00423047*
X00588194Y00422961*
X00588107Y00422695*
X0058864Y00422521*
X00588552Y00422254*
X0058882Y00422166*
X00588732Y004219*
X00589001Y00421814*
X00588913Y00421549*
X0058918Y00421461*
X00589092Y00421195*
X0058936Y00421108*
X00589274Y00420843*
X00589806Y0042067*
X00589718Y00420404*
X00589986Y00420317*
X00589898Y00420051*
X00590164Y00419964*
X00590078Y00419698*
X00590345Y0041961*
X00590258Y00419345*
X00590525Y00419258*
X00590438Y00418992*
X00590971Y00418819*
X00590884Y00418552*
X00591151Y00418466*
X00591064Y004182*
X00591331Y00418113*
X00591244Y00417848*
X00591511Y0041776*
X00591423Y00417494*
X0059169Y00417407*
X00591604Y00417142*
X00592136Y00416967*
X00592049Y00416703*
X00592315Y00416617*
X00592229Y00416349*
X00592495Y00416262*
X00592409Y00415995*
X00592676Y00415908*
X00592588Y00415643*
X00592856Y00415557*
X00592769Y00415292*
X00593301Y00415119*
X00593216Y00414851*
X0059348Y00414765*
X00593394Y00414498*
X00593661Y00414414*
X00593574Y00414146*
X0059384Y00414059*
X00593753Y00413793*
X0059402Y00413707*
X00593933Y00413441*
X00594198Y00413353*
X00594114Y00413089*
X00594646Y00412913*
X0059456Y00412647*
X00594826Y00412561*
X00594739Y00412294*
X00595005Y00412209*
X00594919Y00411943*
X00595186Y00411856*
X00595099Y0041159*
X00595365Y00411503*
X00595278Y00411238*
X00595811Y00411062*
X00595638Y00410532*
X00595106Y00410704*
X00594841Y0041079*
X00594753Y00410525*
X00593688Y00410871*
X00593602Y00410604*
X00592802Y00410864*
X00592716Y00410597*
X0059165Y00410943*
X00591564Y00410677*
X00590498Y00411024*
X00590412Y00410758*
X00589612Y00411017*
X00589527Y00410751*
X00588461Y00411097*
X00588377Y00410831*
X00587309Y00411177*
X00587224Y0041091*
X00586157Y00411255*
X0058607Y0041099*
X00585273Y0041125*
X00585185Y00410984*
X0058412Y00411329*
X00584035Y00411063*
X00582969Y00411409*
X00582882Y00411141*
X00581819Y00411489*
X00581731Y00411221*
X00580933Y00411482*
X00580845Y00411216*
X00579779Y00411562*
X00579692Y00411295*
X00578629Y00411642*
X00578542Y00411374*
X00577477Y00411722*
X00577391Y00411455*
X00576592Y00411714*
X00576505Y0041145*
X00575439Y00411795*
X00575353Y00411529*
X00574288Y00411875*
X00574201Y00411608*
X00573402Y00411868*
X00573316Y004116*
X00572252Y00411947*
X00572164Y0041168*
X00571099Y00412026*
X00571013Y0041176*
X00569947Y00412104*
X00569861Y00411841*
X00569061Y004121*
X00568976Y00411834*
X0056791Y00412181*
X00567823Y00411913*
X00566759Y00412261*
X00566672Y00411994*
X00565607Y0041234*
X00565519Y00412073*
X00564722Y00412333*
X00564636Y00412065*
X00563569Y00412414*
X00563485Y00412147*
X00562417Y00412493*
X00562332Y00412228*
X00561534Y00412486*
X00561447Y0041222*
X0056038Y00412566*
X00560294Y004123*
X00559229Y00412644*
X00559142Y0041238*
X00558077Y00412726*
X00557991Y0041246*
X00557191Y00412719*
X00557105Y0041245*
X00556041Y00412799*
X00555955Y00412531*
X00554888Y00412878*
X00554803Y00412612*
X00554535Y00412699*
X00555143Y00414562*
X00555408Y00414476*
X00555841Y00415808*
X00556108Y0041572*
X00556627Y00417318*
X00556893Y00417233*
X00557411Y0041883*
X00557678Y00418744*
X00558112Y00420075*
X00558377Y00419988*
X00558896Y00421586*
X00559162Y00421501*
X00559682Y00423098*
X00559947Y0042301*
X00560034Y00423277*
X005603Y00423191*
X00560386Y00423458*
X00561718Y00423024*
X00561806Y00423291*
X00563137Y00422858*
X00563222Y00423125*
X00564554Y00422692*
X0056464Y00422959*
X00565973Y00422526*
X00566059Y00422791*
X0056739Y00422359*
X00567477Y00422624*
X00568807Y00422192*
X00568893Y00422459*
X00570226Y00422027*
X00570314Y00422293*
X00571644Y00421859*
X00571731Y00422127*
X00573062Y00421694*
X00573149Y0042196*
X0057448Y00421527*
X00574566Y00421793*
X00575632Y00421449*
X0057572Y00421713*
X00575986Y00421627*
X00576157Y00422161*
X00576424Y00422074*
X00576597Y00422606*
X00576331Y00422693*
X00576417Y00422959*
X00576151Y00423046*
X00576238Y00423312*
X00575972Y00423397*
X00576058Y00423664*
X00575792Y0042375*
X00575879Y00424016*
X00575346Y0042419*
X00575432Y00424457*
X00575165Y00424543*
X00575252Y0042481*
X0057472Y00424982*
X00574806Y00425248*
X0057454Y00425337*
X00574627Y00425602*
X0057436Y00425688*
X00574447Y00425955*
X00573915Y00426127*
X00574002Y00426394*
X00573735Y0042648*
X00573821Y00426747*
X00573287Y00426921*
X00573375Y00427185*
X00573108Y00427271*
X00573194Y00427539*
X00572928Y00427624*
X00573014Y00427892*
X00572483Y00428065*
X00572569Y00428331*
X00572304Y00428419*
X00572392Y00428683*
X00571856Y00428858*
X00571943Y00429123*
X00571678Y00429209*
X00571764Y00429477*
X00571497Y00429562*
X00571584Y00429828*
X00571051Y00430001*
X00571138Y00430267*
X0057087Y00430354*
X00570958Y0043062*
X00570425Y00430794*
X00570512Y0043106*
X00570244Y00431147*
X00570332Y00431413*
X00570066Y004315*
X00570153Y00431766*
X0056962Y00431939*
X00569707Y00432205*
X00569441Y00432293*
X00569612Y00432824*
X0056988Y00432739*
X00569966Y00433004*
X00570234Y00432916*
X00570318Y00433184*
X00570586Y00433098*
X00570671Y00433363*
X00570939Y00433277*
X00571024Y00433544*
X0057129Y00433456*
X00571376Y00433723*
X00571644Y00433636*
X0057173Y00433903*
X00571997Y00433816*
X00572084Y00434083*
X00572349Y00433995*
X00572435Y00434262*
X00572702Y00434175*
X00572788Y00434442*
X00573056Y00434355*
X00573142Y00434621*
X00573408Y00434536*
X00573494Y00434801*
X0057376Y00434715*
X00573848Y00434982*
X00574113Y00434895*
X00574287Y00435427*
X00574553Y00435341*
X00574639Y00435607*
X00574906Y00435522*
X00574992Y00435788*
X00575258Y004357*
X00575344Y00435967*
X00575613Y00435881*
X00575697Y00436146*
X00575964Y0043606*
X0057605Y00436326*
X00576317Y00436239*
X00576404Y00436505*
X0057667Y0043642*
X00576757Y00436686*
X00577024Y00436599*
X00577109Y00436866*
X00577374Y0043678*
X00577461Y00437046*
X00577728Y00436959*
X00577815Y00437225*
X00578081Y00437139*
X00578168Y00437405*
X00578433Y00437318*
X00578519Y00437585*
X00578787Y00437499*
X00578873Y00437764*
X0057914Y00437678*
G37*
G36*
X00630069Y00424074D02*
X00629981Y00423809D01*
X00630249Y00423722*
X00630162Y00423457*
X00630427Y00423369*
X00630341Y00423103*
X00630608Y00423016*
X0063052Y0042275*
X00630788Y00422663*
X00630701Y00422398*
X00630967Y00422312*
X00630881Y00422045*
X00631413Y00421871*
X00631327Y00421605*
X00631593Y00421517*
X00631507Y00421252*
X00631773Y00421166*
X00631686Y00420899*
X00631952Y00420812*
X00631866Y00420546*
X00632131Y00420459*
X00632046Y00420194*
X00632577Y00420021*
X00632492Y00419753*
X00632758Y00419667*
X00632671Y00419401*
X00632938Y00419315*
X00632852Y00419049*
X00633117Y00418962*
X00633032Y00418696*
X00633297Y00418609*
X00633211Y00418343*
X00633744Y0041817*
X00633658Y00417903*
X00633923Y00417817*
X00633837Y0041755*
X00634103Y00417464*
X00634017Y00417199*
X00634282Y0041711*
X00634196Y00416845*
X00634463Y00416758*
X00634376Y00416492*
X00634907Y00416318*
X00634823Y00416053*
X00635088Y00415966*
X00635002Y00415701*
X00635269Y00415613*
X00635183Y00415347*
X0063545Y00415261*
X00635361Y00414995*
X00635629Y00414909*
X00635541Y00414642*
X00636075Y00414468*
X00635727Y00413403*
X00635462Y00413489*
X00635202Y0041269*
X00634934Y00412778*
X00634676Y00411978*
X0063441Y00412066*
X00634149Y00411268*
X00633884Y00411352*
X00633624Y00410553*
X00633358Y00410641*
X00633099Y00409843*
X00632832Y00409928*
X00632573Y00409127*
X00632306Y00409216*
X00632047Y00408417*
X0063178Y00408503*
X00631521Y00407704*
X00631256Y00407791*
X00630994Y00406993*
X00630729Y00407079*
X00630469Y00406281*
X00630202Y00406366*
X00629944Y00405569*
X00629675Y00405654*
X00629417Y00404855*
X00629151Y00404942*
X00628893Y00404143*
X00628626Y00404229*
X00628365Y0040343*
X006281Y00403516*
X0062784Y00402717*
X00627575Y00402805*
X00627314Y00402007*
X00627047Y00402092*
X00626614Y0040076*
X00626882Y00400673*
X00626794Y00400408*
X00628126Y00399976*
X00628212Y00400243*
X00628745Y00400069*
X00628832Y00400336*
X00629632Y00400075*
X00629718Y00400342*
X0063025Y00400168*
X00630337Y00400436*
X00630869Y00400263*
X00630956Y00400528*
X00631488Y00400354*
X00631573Y00400621*
X00632107Y00400448*
X00632194Y00400714*
X00632991Y00400455*
X00633078Y00400722*
X00633612Y00400547*
X00633698Y00400814*
X0063423Y00400641*
X00634317Y00400908*
X0063485Y00400734*
X00634937Y00401001*
X0063547Y00400827*
X00635554Y00401094*
X0063609Y00400922*
X00636175Y00401188*
X00636972Y00400929*
X0063706Y00401195*
X00637592Y00401022*
X00637678Y00401288*
X00638212Y00401114*
X00638298Y00401381*
X00638831Y00401208*
X00638917Y00401473*
X00639451Y00401301*
X00639276Y00400768*
X00639544Y0040068*
X00639197Y00399617*
X00639464Y0039953*
X00639204Y00398731*
X0063947Y00398645*
X00639124Y00397579*
X00639389Y00397491*
X0063913Y00396693*
X00639396Y00396606*
X00639051Y00395543*
X00639317Y00395456*
X00639057Y00394656*
X00639323Y0039457*
X00638978Y00393506*
X00639244Y0039342*
X00638985Y0039262*
X00639251Y00392533*
X00638905Y00391469*
X00639172Y00391383*
X00638825Y00390317*
X00638027Y00390575*
X00637939Y0039031*
X00637142Y00390569*
X00637055Y00390303*
X00636521Y00390476*
X00636435Y0039021*
X00635636Y00390469*
X00635549Y00390203*
X0063475Y00390462*
X00634664Y00390195*
X00633864Y00390455*
X00633779Y0039019*
X00633247Y00390362*
X0063316Y00390097*
X00632361Y00390355*
X00632275Y00390088*
X00631476Y00390349*
X0063139Y00390084*
X0063059Y00390342*
X00630503Y00390077*
X00629971Y00390249*
X00629885Y00389983*
X00629085Y00390241*
X00628999Y00389976*
X006282Y00390236*
X00628115Y0038997*
X00627314Y00390228*
X00627227Y00389962*
X00626695Y00390135*
X00626609Y00389869*
X00625809Y00390128*
X00625725Y00389864*
X00624926Y00390123*
X00624837Y00389857*
X00624037Y00390115*
X00623954Y00389849*
X0062342Y00390022*
X00623334Y00389756*
X00622535Y00390015*
X00622449Y00389749*
X00621649Y00390009*
X00621562Y00389741*
X00620764Y00390003*
X00620678Y00389735*
X00620144Y00389909*
X00620058Y00389643*
X0061926Y00389902*
X00619173Y00389638*
X00618374Y00389894*
X00618286Y0038963*
X00617488Y0038989*
X00617401Y00389622*
X0061687Y00389797*
X00616784Y00389531*
X00615985Y0038979*
X00615897Y00389524*
X00615097Y0038978*
X00615012Y00389516*
X00614211Y00389775*
X00614128Y00389509*
X00613595Y00389683*
X00613509Y00389416*
X00612709Y00389676*
X00612623Y00389409*
X00611823Y0038967*
X00611737Y00389402*
X00610939Y00389661*
X00610851Y00389394*
X00610319Y00389568*
X00610231Y00389303*
X00609432Y00389563*
X00609346Y00389295*
X00608547Y00389557*
X00608461Y0038929*
X00607663Y00389549*
X00607576Y00389282*
X00607044Y00389454*
X00607131Y00389722*
X00607396Y00389633*
X00607655Y00390436*
X00607921Y00390348*
X00608269Y00391414*
X00608534Y00391327*
X0060888Y00392392*
X00609147Y00392306*
X00609407Y00393102*
X00609673Y00393016*
X00610018Y00394082*
X00610285Y00393995*
X00610631Y00395062*
X00610897Y00394974*
X00611243Y00396039*
X0061151Y00395953*
X00611768Y00396752*
X00612037Y00396665*
X00612383Y00397729*
X00612648Y00397644*
X00612995Y00398709*
X0061326Y00398624*
X00613607Y00399689*
X00613874Y00399601*
X00614133Y00400401*
X00614399Y00400312*
X00614744Y00401379*
X00615011Y00401293*
X00615357Y00402358*
X00615625Y00402271*
X0061597Y00403335*
X00616235Y0040325*
X00616496Y00404049*
X0061676Y0040396*
X00617107Y00405027*
X00617374Y00404941*
X00617719Y00406004*
X00617986Y00405919*
X00618245Y00406718*
X00618512Y00406631*
X00618858Y00407697*
X00619126Y00407611*
X00619472Y00408676*
X00619737Y0040859*
X00620085Y00409654*
X0062035Y00409568*
X0062061Y00410366*
X00620875Y0041028*
X00621221Y00411344*
X00621489Y00411257*
X00621835Y00412325*
X00622101Y00412238*
X00622447Y00413303*
X00622713Y00413216*
X00622972Y00414015*
X00623239Y00413928*
X00623584Y00414994*
X0062385Y00414907*
X00624198Y00415971*
X00624463Y00415886*
X00624722Y00416686*
X00624988Y00416599*
X00625335Y00417663*
X00625602Y00417576*
X00625948Y00418643*
X00626214Y00418555*
X0062656Y00419621*
X00626826Y00419535*
X00627087Y00420333*
X00627351Y00420247*
X00627698Y00421311*
X00627964Y00421224*
X00628311Y00422291*
X00628579Y00422203*
X00628924Y00423268*
X00629189Y00423183*
X00629449Y00423981*
X00629715Y00423895*
X00629802Y00424159*
X00630069Y00424074*
G37*
G36*
X00583556Y00404153D02*
X00583467Y00403886D01*
X00583295Y00403354*
X0058303Y00403441*
X00582683Y00402374*
X00582417Y00402462*
X00582072Y00401396*
X00581806Y00401483*
X00581545Y00400684*
X00581279Y00400771*
X00580933Y00399707*
X00580666Y00399792*
X0058032Y00398726*
X00580053Y00398816*
X00579708Y00397748*
X00579442Y00397834*
X00579183Y00397036*
X00578916Y00397123*
X00578571Y00396058*
X00578304Y00396143*
X00577958Y00395079*
X00577693Y00395165*
X00577431Y00394365*
X00577165Y00394453*
X0057682Y00393388*
X00576553Y00393474*
X00576207Y00392408*
X00575939Y00392494*
X00575593Y0039143*
X00575329Y00391517*
X00575069Y00390718*
X00574802Y00390804*
X00574455Y00389739*
X0057419Y00389826*
X00573843Y00388761*
X00573578Y00388848*
X00573232Y00387782*
X00572965Y00387868*
X00572705Y00387069*
X00572439Y00387157*
X00572093Y0038609*
X00571825Y00386176*
X00571482Y00385112*
X00571214Y00385198*
X00570954Y00384401*
X00570688Y00384487*
X00570341Y00383421*
X00570077Y00383506*
X00569731Y00382441*
X00569463Y00382529*
X00569117Y00381463*
X0056885Y0038155*
X00568591Y00380752*
X00568325Y00380838*
X0056798Y00379773*
X00567714Y00379857*
X00567367Y00378794*
X00567101Y00378882*
X00566754Y00377817*
X00566489Y00377901*
X00566228Y00377103*
X00565962Y00377189*
X00565617Y00376125*
X00565351Y00376211*
X00565003Y00375146*
X00564738Y00375232*
X00564391Y00374166*
X00564125Y00374254*
X00563866Y00373455*
X005636Y00373541*
X00563254Y00372475*
X00562988Y00372563*
X00562641Y00371498*
X00562375Y00371584*
X00562115Y00370785*
X00561848Y00370871*
X00561504Y00369806*
X00561236Y00369894*
X00561063Y0036936*
X00560796Y00369449*
X00560883Y00369714*
X00560617Y003698*
X00560704Y00370066*
X00560171Y0037024*
X00560257Y00370505*
X0055999Y00370592*
X00560079Y00370858*
X00559811Y00370944*
X00559899Y00371212*
X00559631Y00371299*
X00559719Y00371562*
X00559453Y00371651*
X00559539Y00371917*
X00559005Y00372089*
X00559093Y00372356*
X00558827Y00372443*
X00558913Y00372709*
X00558647Y00372797*
X00558733Y00373061*
X00558466Y00373149*
X00558554Y00373415*
X00558287Y00373502*
X00558372Y00373766*
X0055784Y0037394*
X00557927Y00374207*
X00557663Y00374295*
X00557748Y00374558*
X0055748Y00374646*
X00557567Y00374913*
X00557301Y00374999*
X00557388Y00375265*
X00557121Y00375352*
X00557208Y00375619*
X00556676Y00375791*
X00556762Y00376058*
X00556494Y00376143*
X00556582Y00376409*
X00556317Y00376496*
X00556402Y00376763*
X00556137Y00376849*
X00556222Y00377116*
X00555959Y00377201*
X00556045Y00377469*
X0055551Y0037764*
X00555598Y00377907*
X00555332Y00377995*
X00555417Y00378262*
X00555151Y00378347*
X00555238Y00378613*
X00554971Y003787*
X00555058Y00378965*
X00554791Y00379052*
X00554878Y00379318*
X0055461Y00379405*
X00554698Y00379671*
X00554965Y00379586*
X00555224Y00380385*
X0055549Y00380298*
X00555751Y00381095*
X00556017Y0038101*
X00556276Y00381808*
X00556543Y00381722*
X00556803Y00382522*
X00557068Y00382434*
X00557327Y00383234*
X00557594Y00383146*
X00557853Y00383946*
X0055812Y00383859*
X00558379Y00384658*
X00558645Y00384572*
X00558905Y00385371*
X00559171Y00385285*
X0055943Y00386083*
X00559696Y00385996*
X00559957Y00386797*
X00560225Y00386709*
X00560483Y00387509*
X0056075Y00387422*
X00561009Y00388221*
X00561275Y00388134*
X00561536Y00388932*
X00561799Y00388846*
X00562058Y00389644*
X00562327Y00389558*
X00562499Y00390091*
X00562766Y00390005*
X00563025Y00390803*
X00563293Y00390716*
X00563638Y00391782*
X00563904Y00391695*
X00564164Y00392494*
X00563899Y00392581*
X00563984Y00392848*
X00563717Y00392933*
X00563804Y00393201*
X0056274Y00393546*
X00562651Y00393279*
X00562119Y00393453*
X00562034Y00393187*
X00561501Y00393359*
X00561415Y00393094*
X00560883Y00393266*
X00560795Y00393*
X00559996Y00393259*
X0055991Y00392993*
X00559376Y00393168*
X00559291Y00392899*
X00558758Y00393072*
X00558672Y00392807*
X00558139Y0039298*
X00558052Y00392715*
X0055752Y00392886*
X00557433Y0039262*
X00556634Y0039288*
X00556548Y00392614*
X00556014Y00392787*
X00555929Y00392521*
X00555396Y00392694*
X00555311Y00392428*
X00554777Y003926*
X00554692Y00392334*
X00554159Y00392507*
X00554073Y0039224*
X00553272Y003925*
X00553185Y00392234*
X00552654Y00392407*
X00552567Y0039214*
X00552034Y00392313*
X00551947Y00392047*
X00551149Y00392306*
X00551495Y00393371*
X00551229Y00393459*
X00551487Y00394257*
X00551221Y00394344*
X00551568Y0039541*
X00551302Y00395496*
X00551562Y00396295*
X00551295Y00396381*
X00551641Y00397447*
X00551374Y00397533*
X00551721Y00398598*
X00551455Y00398685*
X00551715Y00399484*
X00551448Y00399569*
X00551793Y00400635*
X00551528Y00400723*
X00551788Y00401521*
X00551521Y00401607*
X00551867Y00402672*
X00551601Y00402758*
X00551687Y00403025*
X0055222Y00402853*
X00552307Y00403118*
X00552839Y00402946*
X00552925Y00403211*
X00553725Y00402952*
X0055381Y00403217*
X00554609Y00402958*
X00554695Y00403224*
X00555496Y00402965*
X00555584Y00403231*
X00556114Y00403059*
X005562Y00403325*
X00557Y00403067*
X00557087Y00403332*
X00557884Y00403074*
X00557971Y00403337*
X00558771Y00403078*
X00558857Y00403345*
X0055939Y00403171*
X00559477Y00403438*
X00560275Y00403179*
X00560362Y00403446*
X00561162Y00403187*
X00561247Y00403452*
X00562046Y00403191*
X00562134Y00403458*
X00562665Y00403287*
X00562752Y00403552*
X0056355Y00403293*
X00563637Y00403559*
X00564435Y004033*
X00564522Y00403565*
X00565322Y00403307*
X00565409Y00403573*
X00565941Y00403399*
X00566026Y00403665*
X00566827Y00403407*
X00566914Y00403671*
X0056771Y00403413*
X00567799Y00403679*
X00568596Y0040342*
X00568684Y00403685*
X00569216Y00403512*
X00569301Y00403778*
X00570102Y00403519*
X00570188Y00403787*
X00570987Y00403526*
X00571074Y00403792*
X00571872Y00403532*
X00571958Y00403797*
X00572491Y00403626*
X00572578Y00403892*
X00573377Y00403632*
X00573463Y00403898*
X00574261Y00403639*
X00574348Y00403905*
X00575147Y00403647*
X00575235Y00403913*
X00575766Y00403738*
X00575853Y00404005*
X00576651Y00403747*
X00576738Y00404014*
X00577538Y00403752*
X00577624Y00404019*
X00578423Y00403759*
X00578509Y00404024*
X00579042Y00403853*
X00579129Y00404119*
X00579927Y00403858*
X00580014Y00404127*
X00580813Y00403866*
X00580898Y00404132*
X00581698Y00403874*
X00581785Y00404139*
X00582318Y00403965*
X00582403Y00404231*
X00583202Y00403973*
X00583289Y00404239*
X00583556Y00404153*
G37*
G36*
X00583397Y00390075D02*
X00583311Y00389805D01*
X00583577Y0038972*
X0058349Y00389453*
X00583756Y00389367*
X0058367Y00389101*
X00583937Y00389014*
X0058385Y00388747*
X00584117Y00388661*
X0058403Y00388395*
X00584296Y00388308*
X00584211Y00388043*
X00584475Y00387954*
X00584389Y00387689*
X00584654Y00387603*
X00584568Y00387336*
X00584836Y00387251*
X00584747Y00386983*
X00585016Y00386898*
X00584929Y00386631*
X00585194Y00386544*
X00585107Y00386278*
X00585376Y00386192*
X00585288Y00385925*
X00585554Y0038584*
X00585468Y00385574*
X00585734Y00385486*
X00585648Y0038522*
X00585913Y00385132*
X00585826Y00384866*
X00586093Y00384779*
X00586006Y00384514*
X00586273Y00384427*
X00586186Y00384161*
X00586452Y00384074*
X00586367Y00383807*
X00586633Y00383723*
X00586544Y00383455*
X00586813Y00383368*
X00586726Y00383102*
X00586992Y00383015*
X00586906Y00382748*
X00587172Y00382663*
X00587086Y00382398*
X00587351Y0038231*
X00587265Y00382043*
X00587533Y00381959*
X00587443Y00381691*
X00587711Y00381604*
X00587625Y00381338*
X0058789Y00381253*
X00587803Y00380986*
X0058807Y00380898*
X00587984Y00380633*
X0058825Y00380546*
X00588164Y0038028*
X0058843Y00380194*
X00588345Y00379927*
X00588611Y00379841*
X00588525Y00379574*
X00588789Y00379489*
X00588703Y00379221*
X00588969Y00379135*
X00588883Y0037887*
X0058915Y00378782*
X00589064Y00378515*
X00589327Y0037843*
X00589242Y00378163*
X0058951Y00378077*
X00589423Y0037781*
X00589688Y00377724*
X00589601Y00377459*
X00589869Y0037737*
X0058978Y00377105*
X00590048Y00377019*
X00589962Y00376751*
X00590227Y00376665*
X00590142Y00376399*
X00590409Y00376313*
X0059032Y00376046*
X00590587Y00375961*
X005905Y00375694*
X00590766Y00375608*
X00590679Y0037534*
X00590945Y00375253*
X0059086Y00374986*
X00591126Y003749*
X00591042Y00374635*
X00591307Y00374549*
X00591221Y00374282*
X00591486Y00374196*
X00591399Y0037393*
X00591666Y00373842*
X0059158Y00373576*
X00591846Y0037349*
X00591759Y00373223*
X00592026Y00373136*
X00591938Y00372871*
X00592206Y00372783*
X00592118Y00372517*
X00592385Y00372432*
X00592298Y00372165*
X00592566Y00372078*
X00592479Y00371813*
X00592745Y00371726*
X0059266Y00371458*
X00592924Y00371374*
X00592838Y00371106*
X00593104Y00371019*
X00593018Y00370754*
X00593284Y00370667*
X00593199Y00370401*
X00593463Y00370314*
X00593378Y00370049*
X00593644Y00369962*
X00593557Y00369696*
X00593823Y00369608*
X00593737Y00369344*
X00594003Y00369257*
X00593917Y00368991*
X00594184Y00368902*
X00594096Y00368638*
X00594363Y00368551*
X00594277Y00368285*
X00594542Y00368197*
X00594456Y0036793*
X00594722Y00367844*
X00594635Y00367579*
X00594902Y00367492*
X00594814Y00367225*
X00595082Y0036714*
X00594995Y00366874*
X00595262Y00366786*
X00595176Y00366521*
X0059544Y00366433*
X00595356Y00366166*
X00595622Y0036608*
X00595534Y00365815*
X005958Y00365727*
X00595715Y00365462*
X00595982Y00365375*
X00595894Y00365109*
X00596161Y00365022*
X00596073Y00364756*
X0059634Y0036467*
X00596254Y00364403*
X0059652Y00364317*
X00596433Y0036405*
X005967Y00363964*
X00596614Y00363698*
X00596878Y0036361*
X00596792Y00363345*
X0059706Y00363259*
X00596972Y00362993*
X00597238Y00362906*
X00597153Y00362639*
X0059742Y00362553*
X00597332Y00362287*
X00597598Y00362201*
X00597513Y00361933*
X00597778Y00361846*
X00597692Y0036158*
X00597958Y00361494*
X0059787Y00361229*
X00598138Y00361141*
X00598051Y00360875*
X00598319Y00360788*
X00598232Y00360521*
X00598497Y00360435*
X0059841Y00360169*
X00598678Y00360082*
X00598591Y00359817*
X00598858Y00359731*
X00598769Y00359463*
X00599036Y00359378*
X00598951Y0035911*
X00599217Y00359024*
X00599131Y00358759*
X00599397Y00358673*
X00599311Y00358404*
X00599576Y00358319*
X00599488Y00358052*
X00599756Y00357966*
X00599669Y003577*
X00599936Y00357613*
X00599848Y00357348*
X00600115Y00357261*
X0060003Y00356994*
X00600296Y00356908*
X00600208Y00356642*
X00600474Y00356554*
X00600389Y00356288*
X00600655Y00356202*
X00600569Y00355936*
X00600835Y00355849*
X00600748Y00355582*
X00601014Y00355497*
X00600928Y0035523*
X00601195Y00355144*
X00601107Y00354877*
X00601374Y00354791*
X00601286Y00354525*
X00601552Y00354438*
X00601467Y00354172*
X00601734Y00354085*
X00601647Y00353819*
X00601913Y00353732*
X0060174Y003532*
X00601209Y00353373*
X00601121Y00353106*
X00600588Y0035328*
X00600502Y00353014*
X00599703Y00353273*
X00599616Y00353005*
X00598818Y00353266*
X00598731Y00353*
X00597932Y0035326*
X00597846Y00352994*
X00597311Y00353165*
X00597227Y00352899*
X0059643Y00353159*
X00596342Y00352893*
X00595543Y00353152*
X00595455Y00352885*
X00594923Y00353059*
X00594837Y00352793*
X00594039Y00353051*
X00593951Y00352786*
X00593151Y00353045*
X00593066Y00352778*
X00592267Y00353038*
X00592181Y00352772*
X00591648Y00352946*
X00591561Y0035268*
X00590762Y00352939*
X00590677Y00352672*
X00589878Y00352932*
X00589964Y00353199*
X00589698Y00353287*
X00589784Y00353552*
X00589518Y00353638*
X00589604Y00353906*
X00589337Y00353991*
X00589424Y00354256*
X00589158Y00354344*
X00589244Y0035461*
X00588978Y00354696*
X00589151Y00355229*
X00588884Y00355316*
X0058897Y00355583*
X00588704Y00355668*
X00588789Y00355935*
X00588524Y00356021*
X00588613Y00356288*
X00588345Y00356373*
X00588432Y00356641*
X00588165Y00356727*
X00588252Y00356992*
X00587986Y00357081*
X00588072Y00357346*
X00587806Y00357432*
X00587981Y00357965*
X00587712Y00358052*
X005878Y00358317*
X00587533Y00358406*
X0058762Y00358672*
X00587353Y00358757*
X00587438Y00359023*
X00587174Y0035911*
X0058726Y00359377*
X00586996Y00359462*
X0058708Y00359729*
X00586814Y00359816*
X00586901Y00360082*
X00586636Y00360168*
X00586807Y003607*
X00586541Y00360787*
X00586627Y00361054*
X00586361Y00361139*
X00586446Y00361407*
X00586182Y00361493*
X00586268Y00361761*
X00586001Y00361847*
X00586088Y00362112*
X00585822Y00362198*
X00585909Y00362465*
X00585643Y00362552*
X00585729Y00362819*
X00585463Y00362903*
X00585636Y00363438*
X00585369Y00363523*
X00585456Y00363789*
X00585189Y00363876*
X00585277Y00364142*
X0058501Y00364229*
X00585095Y00364497*
X0058483Y00364583*
X00584917Y00364848*
X00584649Y00364934*
X00584737Y003652*
X0058447Y00365288*
X00584557Y00365554*
X00584289Y00365641*
X00584465Y00366172*
X00584196Y00366261*
X00584284Y00366525*
X00584017Y00366613*
X00584104Y00366878*
X00583572Y00367052*
X00583659Y00367317*
X00582593Y00367663*
X00582506Y00367399*
X00582241Y00367486*
X00581808Y00366152*
X00581541Y00366239*
X00580675Y00363577*
X0058041Y00363662*
X00579459Y00360733*
X00579191Y0036082*
X00578326Y00358157*
X0057806Y00358243*
X00577456Y0035638*
X00576389Y00356726*
X00576475Y00356992*
X00575409Y00357339*
X00575496Y00357605*
X00574431Y00357951*
X00574518Y00358217*
X00573454Y00358562*
X00573538Y00358829*
X00572473Y00359175*
X00572562Y00359441*
X00571496Y00359787*
X00571583Y00360053*
X00570517Y00360401*
X00570603Y00360666*
X00569538Y00361012*
X00569626Y00361279*
X0056856Y00361625*
X00568646Y0036189*
X00568112Y00362065*
X00568374Y00362863*
X0056864Y00362777*
X00569158Y00364375*
X00569426Y00364287*
X00569858Y00365619*
X00570124Y00365533*
X00570643Y00367131*
X00570911Y00367045*
X00571429Y00368643*
X00571695Y00368555*
X00572126Y00369887*
X00572394Y00369801*
X00572914Y00371399*
X00573179Y00371312*
X00573698Y00372909*
X00573965Y00372824*
X00574399Y00374155*
X00574663Y00374068*
X00575182Y00375665*
X00575449Y00375577*
X00575968Y00377177*
X00576235Y00377092*
X00576667Y00378422*
X00576934Y00378336*
X00577453Y00379933*
X00577719Y00379844*
X00578237Y00381444*
X00578503Y00381358*
X00578937Y00382689*
X00579203Y00382603*
X00579723Y00384199*
X00579989Y00384113*
X00580506Y00385713*
X00580774Y00385625*
X00581119Y0038669*
X00581207Y00386957*
X00581472Y0038687*
X00581993Y00388468*
X00582257Y00388382*
X00582778Y00389979*
X00583044Y00389893*
X00583131Y00390158*
X00583397Y00390075*
G37*
G36*
X00597179Y0038265D02*
X00597265Y00382917D01*
X00598329Y00382571*
X00598416Y00382837*
X00599481Y00382492*
X00599566Y00382757*
X00600367Y00382498*
X00600452Y00382762*
X00601519Y00382417*
X00601605Y00382685*
X00602671Y00382337*
X00602756Y00382603*
X00603823Y00382259*
X00603908Y00382526*
X00604706Y00382267*
X00604794Y00382532*
X00605858Y00382186*
X00605945Y00382452*
X00607009Y00382105*
X00607096Y00382372*
X00608163Y00382026*
X0060825Y00382294*
X00609048Y00382032*
X00609135Y003823*
X00610199Y00381954*
X00610285Y00382219*
X0061135Y00381873*
X00611437Y00382139*
X00612234Y00381881*
X00612323Y00382146*
X00613388Y003818*
X00613475Y00382066*
X00614538Y00381721*
X00614627Y00381986*
X00615692Y0038164*
X00615778Y00381906*
X00616577Y00381648*
X00616663Y00381914*
X00617729Y00381567*
X00617815Y00381834*
X0061835Y00381661*
X00618614Y00381574*
X00618881Y00381489*
X00618967Y00381752*
X00620033Y00381408*
X0062012Y00381675*
X00620918Y00381413*
X00621004Y00381681*
X0062207Y00381333*
X00622155Y00381601*
X00623222Y00381255*
X00623307Y00381522*
X00624374Y00381175*
X0062446Y00381441*
X00625259Y00381182*
X00625344Y00381448*
X0062641Y00381101*
X00626496Y00381369*
X00627561Y00381022*
X00627649Y00381289*
X00628447Y0038103*
X00628532Y00381295*
X00629599Y0038095*
X00629686Y00381216*
X00630751Y00380868*
X00630837Y00381135*
X00631902Y00380789*
X0063199Y00381056*
X00632787Y00380797*
X00632875Y00381061*
X00633939Y00380716*
X00634026Y00380983*
X00635091Y00380636*
X00635177Y00380903*
X00636243Y00380557*
X00635897Y00379492*
X00635631Y00379579*
X00635199Y00378246*
X00634931Y00378335*
X00634412Y00376734*
X00634147Y00376824*
X00633627Y00375224*
X0063336Y0037531*
X00632928Y0037398*
X00632661Y00374066*
X00632143Y00372467*
X00631877Y00372554*
X00631356Y00370955*
X00631089Y00371043*
X00630831Y00370245*
X00630563Y0037033*
X00630479Y00370064*
X00629414Y0037041*
X00629326Y00370144*
X00627995Y00370577*
X00627909Y00370311*
X00626576Y00370744*
X00626491Y00370477*
X00625158Y0037091*
X00625072Y00370642*
X00623741Y00371076*
X00623653Y00370809*
X00622322Y00371242*
X00622236Y00370976*
X00620905Y00371408*
X00620818Y00371143*
X00619486Y00371575*
X006194Y00371308*
X00618068Y0037174*
X00617982Y00371475*
X00616653Y00371906*
X00616564Y00371641*
X00615499Y00371986*
X00615411Y00371721*
X0061488Y00371894*
X00614794Y00371628*
X00614528Y00371714*
X00614181Y00370649*
X00614448Y00370561*
X00614361Y00370295*
X00614627Y00370209*
X00614541Y00369944*
X00615074Y0036977*
X00614987Y00369503*
X00615253Y00369418*
X00615167Y00369152*
X00615433Y00369064*
X00615346Y00368798*
X0061588Y00368625*
X00615792Y00368358*
X0061606Y00368272*
X00615972Y00368007*
X00616506Y00367833*
X00616417Y00367566*
X00616685Y0036748*
X00616597Y00367213*
X00616865Y00367127*
X00616778Y00366861*
X00617311Y00366688*
X00617225Y00366422*
X0061749Y00366336*
X00617404Y0036607*
X00617937Y00365895*
X0061785Y0036563*
X00618116Y00365544*
X00618031Y00365278*
X00618298Y00365191*
X00618209Y00364924*
X00618743Y00364751*
X00618655Y00364485*
X00618921Y00364399*
X00618835Y00364133*
X00619368Y00363959*
X00619281Y00363692*
X00619548Y00363607*
X00619461Y0036334*
X00619726Y00363254*
X0061964Y00362986*
X00620173Y00362814*
X00620087Y00362547*
X00620352Y00362462*
X00620268Y00362195*
X00620799Y00362021*
X00620712Y00361755*
X00620979Y00361669*
X00620892Y00361402*
X0062116Y00361316*
X00621072Y0036105*
X00621339Y00360963*
X00621252Y00360697*
X00620986Y00360784*
X00620899Y00360519*
X00620631Y00360605*
X00620546Y00360337*
X00620279Y00360426*
X00620193Y00360157*
X00619928Y00360244*
X0061984Y00359977*
X00619575Y00360065*
X00619488Y00359799*
X00619222Y00359886*
X00619135Y00359618*
X00618868Y00359705*
X00618782Y00359438*
X00618516Y00359527*
X00618429Y00359259*
X00618164Y00359345*
X00618077Y00359079*
X00617811Y00359166*
X00617724Y00358899*
X00617457Y00358985*
X00617371Y00358718*
X00617106Y00358807*
X00617016Y00358539*
X00616752Y00358627*
X00616666Y00358361*
X00616399Y00358447*
X00616312Y0035818*
X00616046Y00358267*
X0061596Y00358*
X00615692Y00358087*
X00615607Y00357823*
X00615341Y00357907*
X00615169Y00357376*
X00614901Y00357462*
X00614816Y00357195*
X00614549Y00357281*
X00614462Y00357016*
X00614196Y00357102*
X00614109Y00356836*
X00613844Y00356921*
X00613755Y00356656*
X00613491Y00356742*
X00613404Y00356476*
X00613137Y00356562*
X00613052Y00356296*
X00612784Y00356382*
X00612697Y00356117*
X00612432Y00356202*
X00612345Y00355936*
X00612079Y00356023*
X00611993Y00355757*
X0061146Y0035593*
X00611546Y00356195*
X0061128Y00356283*
X00611366Y00356549*
X00611101Y00356635*
X00611188Y00356902*
X0061092Y00356986*
X00611008Y00357254*
X00610741Y00357341*
X00610827Y00357607*
X00610294Y00357781*
X00610381Y00358046*
X00610115Y00358134*
X00610202Y003584*
X00609936Y00358486*
X00610022Y00358753*
X00609756Y00358839*
X00609842Y00359104*
X00609576Y00359192*
X00609662Y00359459*
X00609396Y00359544*
X00609481Y00359809*
X0060895Y00359984*
X00609036Y00360249*
X0060877Y00360335*
X00608856Y00360603*
X0060859Y00360689*
X00608676Y00360955*
X0060841Y00361043*
X00608496Y00361309*
X0060823Y00361397*
X00608317Y00361661*
X00607784Y00361833*
X00607871Y00362101*
X00607605Y00362187*
X0060769Y00362455*
X00607426Y00362541*
X00607512Y00362807*
X00607245Y00362893*
X00607332Y00363159*
X00607065Y00363246*
X00607152Y00363512*
X0060662Y00363685*
X00606705Y00363951*
X0060644Y00364038*
X00606526Y00364304*
X00606258Y00364391*
X00606347Y00364657*
X00606081Y00364744*
X00606166Y0036501*
X00605901Y00365096*
X00605986Y00365362*
X00605453Y00365536*
X0060554Y00365802*
X00605274Y00365888*
X00605361Y00366154*
X00605094Y00366241*
X00605182Y00366509*
X00604915Y00366594*
X00605Y00366859*
X00604734Y00366946*
X00604822Y00367214*
X00604556Y003673*
X00604643Y00367565*
X0060411Y00367739*
X00604196Y00368006*
X0060393Y00368092*
X00604016Y00368358*
X0060375Y00368444*
X00603835Y00368711*
X00603569Y00368798*
X00603655Y00369064*
X0060339Y0036915*
X00603476Y00369416*
X00602944Y00369591*
X0060303Y00369856*
X00602764Y00369942*
X00602851Y00370209*
X00602585Y00370294*
X00602671Y00370563*
X00602404Y00370649*
X00602491Y00370915*
X00602223Y00371*
X00602312Y00371267*
X00601778Y00371441*
X00601865Y00371706*
X006016Y00371793*
X00601686Y00372059*
X00601419Y00372147*
X00601506Y00372411*
X00601241Y00372498*
X00601326Y00372765*
X00601059Y00372851*
X00601146Y00373118*
X00600613Y00373291*
X00600702Y00373558*
X00600434Y00373642*
X00600519Y0037391*
X00600254Y00373996*
X00600341Y00374262*
X00600075Y00374349*
X0060016Y00374616*
X00599894Y00374701*
X00599982Y00374968*
X00599448Y00375141*
X00599536Y00375408*
X00599269Y00375494*
X00599356Y00375761*
X00599088Y00375848*
X00599176Y00376114*
X00598909Y003762*
X00598996Y00376466*
X00598728Y00376552*
X00598818Y00376819*
X0059855Y00376905*
X00598637Y00377172*
X00598104Y00377346*
X00598191Y00377612*
X00597925Y00377698*
X00598012Y00377964*
X00597743Y0037805*
X00597832Y00378318*
X00597565Y00378404*
X00597651Y0037867*
X00597386Y00378756*
X0059747Y00379022*
X00596939Y00379196*
X00597025Y00379463*
X00596759Y00379549*
X00596845Y00379815*
X00596579Y00379901*
X00596665Y00380167*
X00596399Y00380253*
X00596486Y0038052*
X0059622Y00380606*
X00596305Y00380873*
X00595773Y00381046*
X0059586Y00381312*
X00595595Y00381399*
X00595679Y00381666*
X00595414Y00381752*
X005955Y00382019*
X00595233Y00382104*
X0059532Y00382373*
X00595055Y00382458*
X00595227Y0038299*
X00596027Y00382729*
X00596112Y00382997*
X00597179Y0038265*
G37*
%LNflagmate_legend_bot-2*%
%LPC*%
%SRX1Y1I0J0*%
G36*
X00303758Y00508019D02*
X00303671Y00507752D01*
X00302872Y00508012*
X00302786Y00507746*
X00302253Y00507919*
X00302167Y00507652*
X00301634Y00507825*
X00301548Y00507559*
X00301281Y00507646*
X00301195Y00507379*
X00300928Y00507466*
X00300842Y005072*
X00300576Y00507286*
X00300489Y0050702*
X00300223Y00507106*
X00300136Y0050684*
X0029987Y00506927*
X00299697Y00506394*
X00299431Y00506481*
X00299344Y00506214*
X00299078Y00506301*
X00298818Y00505502*
X00298552Y00505588*
X00298206Y00504523*
X0029794Y0050461*
X00296988Y0050168*
X00297254Y00501594*
X00296908Y00500529*
X00297174Y00500442*
X00297001Y0049991*
X00297267Y00499823*
X00297094Y00499291*
X00297361Y00499204*
X00297188Y00498671*
X00297454Y00498585*
X00297367Y00498319*
X00297634Y00498232*
X00297547Y00497966*
X00297813Y00497879*
X00297727Y00497613*
X0029826Y0049744*
X00298173Y00497174*
X00298706Y00497001*
X00298619Y00496734*
X00299152Y00496561*
X00299065Y00496295*
X00299598Y00496122*
X00299511Y00495856*
X00300576Y0049551*
X0030049Y00495243*
X00310077Y00492128*
X0031423Y00504911*
X00305442Y00507766*
X00305356Y005075*
X00303758Y00508019*
G37*
G36*
X00353908Y00492018D02*
X00353821Y00491752D01*
X00353022Y00492012*
X00352936Y00491745*
X00352137Y00492005*
X0035205Y00491739*
X00351518Y00491912*
X00351431Y00491645*
X00350899Y00491818*
X00350812Y00491552*
X00350546Y00491639*
X00350459Y00491372*
X00349927Y00491545*
X0034984Y00491279*
X00349574Y00491366*
X00349488Y00491099*
X00349221Y00491186*
X00349135Y0049092*
X00348602Y00491093*
X00348515Y00490826*
X00348249Y00490913*
X00348163Y00490647*
X00347896Y00490733*
X0034781Y00490467*
X00347723Y004902*
X00347457Y00490287*
X0034737Y00490021*
X00347104Y00490107*
X00347018Y00489841*
X00346751Y00489927*
X00346665Y00489661*
X00346399Y00489748*
X00346226Y00489215*
X00345959Y00489302*
X00345786Y00488769*
X0034552Y00488856*
X00345433Y00488589*
X00345167Y00488676*
X00344908Y00487877*
X00344641Y00487963*
X00344468Y00487431*
X00344202Y00487517*
X00343942Y00486718*
X00343676Y00486805*
X00343416Y00486006*
X0034315Y00486093*
X00342717Y00484761*
X00342451Y00484848*
X00341586Y00482185*
X0034132Y00482271*
X00340714Y00480407*
X0034098Y00480321*
X00340029Y00477391*
X00340295Y00477305*
X00339862Y00475973*
X00340128Y00475887*
X00339782Y00474822*
X00340049Y00474735*
X00339789Y00473936*
X00340055Y0047385*
X00339882Y00473317*
X00340149Y00473231*
X00339889Y00472432*
X00340155Y00472345*
X00339982Y00471813*
X00340249Y00471726*
X00340162Y0047146*
X00340428Y00471373*
X00340255Y00470841*
X00340522Y00470754*
X00340349Y00470221*
X00340615Y00470135*
X00340528Y00469869*
X00340795Y00469782*
X00340708Y00469516*
X00340974Y00469429*
X00340888Y00469163*
X00341154Y00469077*
X00341068Y0046881*
X00341334Y00468724*
X00341161Y00468191*
X00341693Y00468018*
X00341607Y00467752*
X00341873Y00467665*
X00341787Y00467399*
X00342053Y00467312*
X00341966Y00467046*
X00342233Y0046696*
X00342146Y00466693*
X00342679Y0046652*
X00342592Y00466254*
X00342859Y00466167*
X00342772Y00465901*
X00343305Y00465728*
X00343218Y00465462*
X00343751Y00465289*
X00343664Y00465022*
X00344463Y00464763*
X00344377Y00464497*
X00345175Y00464237*
X00345089Y00463971*
X00346154Y00463625*
X00346068Y00463358*
X00347932Y00462753*
X00347845Y00462486*
X00350774Y00461535*
X00350861Y00461801*
X00352725Y00461195*
X00352812Y00461462*
X00353877Y00461115*
X00353963Y00461382*
X00354762Y00461122*
X00354849Y00461388*
X00355381Y00461215*
X00355468Y00461482*
X00356Y00461309*
X00356087Y00461575*
X0035662Y00461402*
X00356706Y00461668*
X00357239Y00461495*
X00357325Y00461761*
X00357591Y00461675*
X00357678Y00461941*
X00358211Y00461768*
X00358297Y00462034*
X00358563Y00461948*
X0035865Y00462214*
X00358916Y00462128*
X00359003Y00462394*
X00359269Y00462307*
X00359356Y00462574*
X00359622Y00462487*
X00359708Y00462753*
X00359975Y00462667*
X00360061Y00462933*
X00360327Y00462847*
X00360414Y00463113*
X0036068Y00463026*
X00360853Y00463559*
X0036112Y00463473*
X00361206Y00463739*
X00361473Y00463652*
X00361646Y00464185*
X00361912Y00464098*
X00362085Y00464631*
X00362351Y00464545*
X00362524Y00465077*
X00362791Y00464991*
X00362964Y00465523*
X0036323Y00465437*
X00363489Y00466236*
X00363756Y00466149*
X00364015Y00466948*
X00364282Y00466861*
X00364628Y00467926*
X00364894Y0046784*
X003655Y00469704*
X00365766Y00469618*
X0036741Y00474677*
X00367144Y00474764*
X00367749Y00476628*
X00367483Y00476714*
X00367916Y00478046*
X00367649Y00478132*
X00367909Y00478931*
X00367643Y00479018*
X00367902Y00479817*
X00367636Y00479903*
X00367809Y00480436*
X00367543Y00480522*
X00367716Y00481055*
X00367449Y00481141*
X00367623Y00481674*
X00367356Y0048176*
X00367529Y00482293*
X00367263Y0048238*
X00367349Y00482646*
X00367083Y00482732*
X00367256Y00483265*
X0036699Y00483351*
X00367076Y00483618*
X0036681Y00483704*
X00366897Y00483971*
X0036663Y00484057*
X00366717Y00484324*
X00366451Y0048441*
X00366537Y00484676*
X00366271Y00484763*
X00366357Y00485029*
X00366091Y00485116*
X00366178Y00485382*
X00365911Y00485468*
X00365998Y00485735*
X00365731Y00485821*
X00365818Y00486088*
X00365552Y00486174*
X00365638Y0048644*
X00365106Y00486613*
X00365192Y0048688*
X0036466Y00487053*
X00364746Y00487319*
X00364214Y00487492*
X003643Y00487758*
X00363767Y00487932*
X00363854Y00488198*
X00363321Y00488371*
X00363408Y00488637*
X00362609Y00488897*
X00362696Y00489163*
X00361364Y00489596*
X00361451Y00489862*
X00359054Y00490641*
X0035914Y00490907*
X00357809Y00491339*
X00357723Y00491073*
X0035506Y00491938*
X00354973Y00491672*
X00353908Y00492018*
G37*
G36*
X00447265Y00453147D02*
X00447005Y00452348D01*
X00446739Y00452434*
X0044648Y00451635*
X00446213Y00451722*
X00445954Y00450923*
X00445688Y0045101*
X00445514Y00450477*
X00445248Y00450564*
X00444988Y00449765*
X00444722Y00449851*
X00444463Y00449052*
X00444196Y00449139*
X00443937Y0044834*
X00443671Y00448426*
X00443411Y00447628*
X00443145Y00447714*
X00443058Y00447448*
X00442885Y00446915*
X00442619Y00447002*
X00442359Y00446203*
X00442093Y00446289*
X00441833Y00445491*
X00441567Y00445577*
X00441307Y00444778*
X00441041Y00444865*
X00440782Y00444066*
X00440515Y00444152*
X00440256Y00443353*
X00439989Y0044344*
X0043973Y00442641*
X00439464Y00442728*
X00439377Y00442461*
X00448165Y00439606*
X00448338Y00440139*
X00448072Y00440225*
X00448245Y00440758*
X00447978Y00440844*
X00448238Y00441643*
X00447972Y0044173*
X00448231Y00442529*
X00447965Y00442615*
X00448138Y00443148*
X00447872Y00443234*
X00448131Y00444033*
X00447865Y0044412*
X00448125Y00444918*
X00447858Y00445005*
X00448031Y00445538*
X00447765Y00445624*
X00448024Y00446423*
X00447758Y0044651*
X00447931Y00447042*
X00447665Y00447129*
X00447925Y00447928*
X00447658Y00448014*
X00447918Y00448813*
X00447651Y00448899*
X00447825Y00449432*
X00447558Y00449519*
X00447818Y00450317*
X00447551Y00450404*
X00447725Y00450937*
X00447458Y00451023*
X00447718Y00451822*
X00447452Y00451909*
X00447711Y00452707*
X00447445Y00452794*
X00447531Y0045306*
X00447265Y00453147*
G37*
%LNflagmate_legend_bot-3*%
%LPD*%
%SRX1Y1I0J0*%
G54D147*
X-00487173Y-00512163D02*
X-00451206Y-0047743D01*
X-00528853Y-00469002D02*
X-00492886Y-00434269D01*
X-00557524Y-00434528D02*
X-00516819Y-00405494D01*
X-00592366Y-0038568D02*
X-00551661Y-00356646D01*
X-00511485Y00220514D02*
X-00402835Y00384662D01*
X-00616542Y00290048D02*
X-00507892Y00454199D01*
X-00402835Y00384662*
X-00616542Y00290048D02*
X-00511485Y00220514D01*
X-0012291Y-00419686D02*
X-00119261Y-00408453D01*
X-00147248Y-00411778D02*
X-00143599Y-00400545D01*
X00045799Y-00400084D02*
X00105619Y-00308662D01*
X00418072Y-00643672D02*
X0043801Y-00613197D01*
X00307541Y-00571349D02*
X00418072Y-00643672D01*
X00045799Y-00400084D02*
X00091757Y-00430156D01*
X-00601776Y-00139949D02*
X-00597038Y-00158949D01*
X-00666716Y-00156141D02*
X-00661979Y-0017514D01*
G54D148*
X00592981Y00282363D02*
X00576681Y00287659D01*
X00571836Y00291236*
X00570613Y00293636*
X00569979Y00297846*
X00571744Y0030328*
X00574732Y00306314*
X00577132Y00307536*
X00583154Y00307582*
X00599454Y00302286*
X00587096Y00264252*
X00535476Y00313062D02*
X00538464Y00316096D01*
X00543264Y00318541*
X00547474Y00319175*
X00554719Y00316821*
X00557753Y00313833*
X00560198Y00309034*
X00560832Y00304823*
X00560878Y00298801*
X00557936Y00289745*
X00554359Y002849*
X00551371Y00281867*
X00546572Y00279421*
X00542361Y00278787*
X00535116Y00281141*
X00532082Y00284129*
X00529637Y00288928*
X00529003Y00293139*
X00527733Y00325589D02*
X00515375Y00287555D01*
X00527733Y00325589D02*
X00511432Y00330886D01*
X00505411Y0033084*
X00503011Y00329617*
X00500023Y00326584*
X00498846Y00322961*
X0049948Y0031875*
X00500703Y00316351*
X00505548Y00312774*
X00521848Y00307478D02*
X00505548Y00312774D01*
X00499526Y00312728*
X00497126Y00311506*
X00494138Y00308472*
X00492373Y00303039*
X00493007Y00298828*
X00494229Y00296428*
X00499074Y00292852*
X00515375Y00287555*
X00452528Y00307976D02*
X00479375Y00341302D01*
X00481506Y0029856*
X00480192Y00313003D02*
X00462081Y00318888D01*
X00450081Y00336804D02*
X00451303Y00334404D01*
X00448904Y00333181*
X00447681Y00335581*
X00450081Y00336804*
X00443019Y0031507D02*
X00444242Y0031267D01*
X00441842Y00311448*
X0044062Y00313847*
X00443019Y0031507*
X00392868Y00290549D02*
X00397713Y00286972D01*
X0039957Y00280362*
X00398439Y00270717*
X00396673Y00265284*
X0039192Y00256817*
X00386532Y0025256*
X0038051Y00252515*
X00376888Y00253692*
X00372043Y00257268*
X00370186Y00263879*
X00371317Y00273523*
X00373083Y00278956*
X00377836Y00287423*
X00383224Y0029168*
X00389246Y00291726*
X00392868Y00290549*
X00359Y00301553D02*
X00363845Y00297977D01*
X00365702Y00291366*
X0036457Y00281722*
X00362805Y00276289*
X00358051Y00267821*
X00352664Y00263565*
X00346642Y00263519*
X00343019Y00264696*
X00338174Y00268273*
X00336317Y00274883*
X00337449Y00284527*
X00339214Y00289961*
X00343968Y00298428*
X00349356Y00302685*
X00355377Y0030273*
X00359Y00301553*
X00332376Y00310204D02*
X00312453Y00316677D01*
X00318612Y00298657*
X00313179Y00300423*
X00308968Y00299788*
X00306568Y00298566*
X00302992Y00293721*
X00301815Y00290098*
X00301861Y00284077*
X00304306Y00279277*
X00309151Y00275701*
X00314584Y00273935*
X00320606Y00273981*
X00323006Y00275204*
X00325994Y00278237*
X00291263Y00323562D02*
X00296108Y00319986D01*
X00297965Y00313375*
X00296833Y00303731*
X00295068Y00298298*
X00290314Y0028983*
X00284927Y00285574*
X00278905Y00285528*
X00275283Y00286705*
X00270438Y00290282*
X00268581Y00296892*
X00269712Y00306536*
X00271477Y0031197*
X00276231Y00320437*
X00281619Y00324694*
X0028764Y00324739*
X00291263Y00323562*
X00257394Y00334567D02*
X00262239Y0033099D01*
X00264096Y0032438*
X00262965Y00314736*
X002612Y00309302*
X00256446Y00300835*
X00251058Y00296579*
X00245036Y00296533*
X00241414Y0029771*
X00236569Y00301286*
X00234712Y00307897*
X00235843Y00317541*
X00237609Y00322974*
X00242362Y00331442*
X0024775Y00335698*
X00253772Y00335744*
X00257394Y00334567*
X00223526Y00345571D02*
X00228371Y00341995D01*
X00230228Y00335385*
X00229096Y0032574*
X00227331Y00320307*
X00222577Y0031184*
X0021719Y00307583*
X00211168Y00307537*
X00207546Y00308714*
X00202701Y00312291*
X00200844Y00318901*
X00201975Y00328546*
X0020374Y00333979*
X00208494Y00342446*
X00213882Y00346703*
X00219904Y00346748*
X00223526Y00345571*
X0019817Y003458D02*
X00195137Y00348789D01*
X00191469Y00355988*
X00179111Y00317953*
X00163577Y0036505D02*
X00168422Y00361474D01*
X00169056Y00357263*
X00167879Y0035364*
X00164891Y00350607*
X0016068Y00349972*
X00152847Y00350515*
X00146825Y00350469*
X00142026Y00348024*
X00139038Y0034499*
X00137272Y00339557*
X00137907Y00335346*
X00139129Y00332947*
X00143974Y0032937*
X00151219Y00327016*
X00157241Y00327062*
X0015964Y00328284*
X00162629Y00331318*
X00164394Y00336752*
X0016376Y00340962*
X00161314Y00345762*
X00156469Y00349338*
X00149813Y00353503*
X0014678Y00356491*
X00146145Y00360702*
X00147322Y00364325*
X0015031Y00367358*
X00156332Y00367404*
X00163577Y0036505*
X00131702Y00351378D02*
X00099102Y00361971D01*
X00090815Y00374675D02*
X00071709Y0035285D01*
X00069081Y00381737D02*
X00071709Y0035285D01*
X00056176Y00399947D02*
X00061021Y0039637D01*
X00062877Y0038976*
X00061746Y00380116*
X00059981Y00374682*
X00055227Y00366215*
X0004984Y00361959*
X00043818Y00361913*
X00040195Y0036309*
X0003535Y00366666*
X00033494Y00373277*
X00034625Y00382921*
X0003639Y00388354*
X00041144Y00396822*
X00046532Y00401078*
X00052553Y00401124*
X00056176Y00399947*
X00020182Y00373597D02*
X00021405Y00371198D01*
X00019005Y00369975*
X00017782Y00372375*
X00020182Y00373597*
X00018867Y0040406D02*
X00015833Y00407048D01*
X00012165Y00414247*
X-00000193Y00376213*
X-00019663Y00386544D02*
X-00018441Y00384144D01*
X-0002084Y00382921*
X-00022063Y00385321*
X-00019663Y00386544*
X-00029491Y00427782D02*
X-00024647Y00424205D01*
X-0002279Y00417595*
X-00023921Y00407951*
X-00025686Y00402517*
X-0003044Y0039405*
X-00035828Y00389794*
X-00041849Y00389748*
X-00045472Y00390925*
X-00050317Y00394501*
X-00052174Y00401112*
X-00051042Y00410756*
X-00049277Y00416189*
X-00044523Y00424657*
X-00039136Y00428913*
X-00033114Y00428959*
X-00029491Y00427782*
X00416046Y00361879D02*
X0042089Y00358303D01*
X00422747Y00351692*
X00421616Y00342048*
X00419851Y00336615*
X00415097Y00328148*
X00409709Y00323891*
X00403687Y00323845*
X00400065Y00325022*
X0039522Y00328599*
X00393363Y00335209*
X00394495Y00344853*
X0039626Y00350287*
X00401014Y00358754*
X00406401Y00363011*
X00412423Y00363056*
X00416046Y00361879*
X00382177Y00372884D02*
X00387022Y00369308D01*
X00388879Y00362697*
X00387748Y00353053*
X00385982Y00347619*
X00381229Y00339152*
X00375841Y00334896*
X00369819Y0033485*
X00366197Y00336027*
X00361352Y00339603*
X00359495Y00346214*
X00360626Y00355858*
X00362392Y00361291*
X00367145Y00369759*
X00372533Y00374015*
X00378555Y00374061*
X00382177Y00372884*
X00354422Y0037189D02*
X0035501Y00373702D01*
X00354376Y00377912*
X00353154Y00380312*
X0035012Y003833*
X00342875Y00385654*
X00338664Y0038502*
X00336265Y00383797*
X00333277Y00380763*
X003321Y00377141*
X00332734Y0037293*
X00334591Y0036632*
X00346817Y00342324*
X00321461Y00350562*
X0031444Y00394893D02*
X00319285Y00391317D01*
X00321142Y00384706*
X00320011Y00375062*
X00318245Y00369628*
X00313492Y00361161*
X00308104Y00356905*
X00302082Y00356859*
X0029846Y00358036*
X00293615Y00361613*
X00291758Y00368223*
X00292889Y00377867*
X00294655Y00383301*
X00299408Y00391768*
X00304796Y00396024*
X00310818Y0039607*
X0031444Y00394893*
X00280572Y00405898D02*
X00285417Y00402321D01*
X00287273Y00395711*
X00286142Y00386066*
X00284377Y00380633*
X00279623Y00372166*
X00274236Y00367909*
X00268214Y00367863*
X00264591Y00369041*
X00259746Y00372617*
X00257889Y00379227*
X00259021Y00388872*
X00260786Y00394305*
X0026554Y00402772*
X00270927Y00407029*
X00276949Y00407075*
X00280572Y00405898*
X00246703Y00416902D02*
X00251548Y00413326D01*
X00253405Y00406715*
X00252274Y00397071*
X00250508Y00391637*
X00245755Y0038317*
X00240367Y00378914*
X00234345Y00378868*
X00230723Y00380045*
X00225878Y00383622*
X00224021Y00390232*
X00225152Y00399876*
X00226918Y0040531*
X00231671Y00413777*
X00237059Y00418033*
X00243081Y00418079*
X00246703Y00416902*
X00221348Y00417131D02*
X00218314Y00420119D01*
X00214646Y00427318*
X00202288Y00389284*
X00193456Y00426194D02*
X00190422Y00429182D01*
X00186754Y00436381*
X00174396Y00398347*
X00142562Y0045074D02*
X00148316Y00406821D01*
X00167918Y00442501D02*
X00142562Y0045074D01*
X00126988Y00431772D02*
X00094387Y00442364D01*
X00086101Y00455069D02*
X00066995Y00433243D01*
X00064367Y0046213D02*
X00066995Y00433243D01*
X00051461Y0048034D02*
X00056306Y00476764D01*
X00058163Y00470153*
X00057032Y00460509*
X00055267Y00455076*
X00050513Y00446608*
X00045125Y00442352*
X00039103Y00442306*
X00035481Y00443483*
X00030636Y0044706*
X00028779Y0045367*
X0002991Y00463314*
X00031676Y00468748*
X00036429Y00477215*
X00041817Y00481471*
X00047839Y00481517*
X00051461Y0048034*
X00015467Y0045399D02*
X0001669Y00451591D01*
X0001429Y00450368*
X00013068Y00452768*
X00015467Y0045399*
X00014152Y00484453D02*
X00011118Y00487441D01*
X0000745Y0049464*
X-00004908Y00456606*
X-00024378Y00466937D02*
X-00023155Y00464538D01*
X-00025555Y00463315*
X-00026777Y00465714*
X-00024378Y00466937*
X0055279Y00170992D02*
X00532867Y00177466D01*
X00539026Y00159446*
X00533593Y00161211*
X00529382Y00160577*
X00526982Y00159354*
X00523406Y00154509*
X00522229Y00150887*
X00522275Y00144865*
X0052472Y00140066*
X00529565Y00136489*
X00534998Y00134724*
X0054102Y00134769*
X0054342Y00135992*
X00546408Y00139026*
X0050842Y00137352D02*
X00497188Y00189059D01*
X00492298Y00182638D02*
X00489264Y00185626D01*
X00485596Y00192825*
X00473238Y00154791*
X00462007Y00190478D02*
X00462595Y00192289D01*
X00461961Y001965*
X00460738Y00198899*
X00457705Y00201888*
X0045046Y00204242*
X00446249Y00203607*
X0044385Y00202385*
X00440861Y00199351*
X00439685Y00195728*
X00440319Y00191518*
X00442176Y00184907*
X00454402Y00160911*
X00429046Y0016915*
X00418768Y00166482D02*
X00407536Y00218188D01*
X00400247Y00210545D02*
X00400835Y00212356D01*
X00400201Y00216567*
X00398978Y00218967*
X00395944Y00221955*
X003887Y00224309*
X00384489Y00223674*
X00382089Y00222452*
X00379101Y00219418*
X00377924Y00215796*
X00378559Y00211585*
X00380416Y00204974*
X00392642Y00180978*
X00367286Y00189217*
X00360265Y00233548D02*
X0036511Y00229971D01*
X00366967Y00223361*
X00365835Y00213716*
X0036407Y00208283*
X00359316Y00199816*
X00353929Y00195559*
X00347907Y00195514*
X00344284Y00196691*
X0033944Y00200267*
X00337583Y00206878*
X00338714Y00216522*
X00340479Y00221955*
X00345233Y00230423*
X00350621Y00234679*
X00356643Y00234725*
X00360265Y00233548*
X0033251Y00232554D02*
X00333098Y00234365D01*
X00332464Y00238576*
X00331241Y00240976*
X00328207Y00243964*
X00320963Y00246318*
X00316752Y00245684*
X00314353Y00244461*
X00311364Y00241427*
X00310188Y00237805*
X00310822Y00233594*
X00312679Y00226983*
X00324905Y00202987*
X00299549Y00211226*
X00279896Y00253654D02*
X00282884Y00256688D01*
X00288906Y00256734*
X00292528Y00255557*
X00297373Y0025198*
X0029923Y0024537*
X00298099Y00235726*
X00295156Y0022667*
X00290991Y00220014*
X00286192Y00217569*
X0028017Y00217523*
X00278359Y00218111*
X00273514Y00221688*
X00271068Y00226487*
X00271023Y00232509*
X00271611Y0023432*
X00275188Y00239165*
X00279987Y0024161*
X00286009Y00241656*
X0028782Y00241068*
X00292665Y00237491*
X0029511Y00232692*
X00295156Y0022667*
X00569805Y00211033D02*
X00553504Y00216329D01*
X00548659Y00219906*
X00547437Y00222306*
X00546802Y00226516*
X00548568Y0023195*
X00551556Y00234984*
X00553956Y00236206*
X00559977Y00236252*
X00576278Y00230956*
X0056392Y00192922*
X005123Y00241732D02*
X00515288Y00244766D01*
X00520087Y00247211*
X00524298Y00247845*
X00531543Y00245491*
X00534576Y00242503*
X00537022Y00237704*
X00537656Y00233493*
X00537702Y00227471*
X00534759Y00218415*
X00531183Y0021357*
X00528194Y00210537*
X00523395Y00208091*
X00519184Y00207457*
X0051194Y00209811*
X00508906Y00212799*
X00506461Y00217598*
X00505827Y00221809*
X00504556Y00254259D02*
X00492198Y00216225D01*
X00504556Y00254259D02*
X00488256Y00259556D01*
X00482234Y0025951*
X00479834Y00258287*
X00476846Y00255254*
X00475669Y00251631*
X00476304Y00247421*
X00477526Y00245021*
X00482371Y00241444*
X00498672Y00236148D02*
X00482371Y00241444D01*
X00476349Y00241399*
X0047395Y00240176*
X00470962Y00237142*
X00469196Y00231709*
X0046983Y00227498*
X00471053Y00225098*
X00475898Y00221522*
X00492198Y00216225*
X00464757Y00253174D02*
X0046598Y00250775D01*
X0046358Y00249552*
X00462358Y00251952*
X00464757Y00253174*
X00457696Y00231441D02*
X00458918Y00229041D01*
X00456519Y00227818*
X00455296Y00230218*
X00457696Y00231441*
G54D151*
X-00503719Y00492808D02*
X-00495027Y0050594D01*
X-00550877Y00020985D02*
X-00550053Y00036712D01*
X-0054633Y00073689D02*
X-00544002Y00089264D01*
G54D152*
X-00096076Y00569294D03*
M02*