%FSTAX26Y26*%
%MOIN*%
%SFA1B1*%

%IPPOS*%
%ADD149C,0.005000*%
%LNflagmate_drillmap_1-1*%
%LPD*%
%SRX1Y1I0J0*%
G54D149*
X-0049546Y-00156454D02*
X-00467901D01*
X-0048168Y-00170233D02*
Y-00142674D01*
X-0051359Y-00079829D02*
X-00486031D01*
X-0049981Y-00093608D02*
Y-00066049D01*
X-00681637Y0022524D02*
X-00661952D01*
X-00671794Y00215398D02*
Y00235083D01*
X-00547293Y00161055D02*
X-00529576D01*
X-00538434Y00152197D02*
Y00169913D01*
X-00460872Y00546456D02*
X-00441187D01*
X-0045103Y00536614D02*
Y00556299D01*
X-00352174Y00444959D02*
X-00334458D01*
X-00343316Y004361D02*
Y00453817D01*
X000563Y-00516855D02*
X00091733D01*
X00074016Y-00534571D02*
Y-00499138D01*
X00151669Y-00697146D02*
X00187102D01*
X00169385Y-00714862D02*
Y-00679429D01*
X00074991Y-00719954D02*
X00110424D01*
X00092708Y-00737671D02*
Y-00702238D01*
X-00400327Y00165037D02*
X-00364894D01*
X-0038261Y00147321D02*
Y00182754D01*
X-0033826Y00114569D02*
X-00302827D01*
X-00320544Y00096853D02*
Y00132286D01*
X-00243111Y00294978D02*
X-00207678D01*
X-00225394Y00277261D02*
Y00312694D01*
X-00470446Y-00607884D02*
X-00462446D01*
X-00466446Y-00611884D02*
Y-00603884D01*
X-00446095Y-0057615D02*
X-00438095D01*
X-00442095Y-0058015D02*
Y-0057215D01*
X0002511Y-00555459D02*
X0003311D01*
X0002911Y-00559459D02*
Y-00551459D01*
X-00465421Y-00580086D02*
X-00457421D01*
X-00461421Y-00584086D02*
Y-00576086D01*
X-00486199Y-00595466D02*
X-00478199D01*
X-00482199Y-00599466D02*
Y-00591466D01*
X-00527969Y-00284492D02*
X-00519969D01*
X-00523969Y-00288492D02*
Y-00280492D01*
X-00483276Y-00354646D02*
X-00475276D01*
X-00479276Y-00358646D02*
Y-00350646D01*
X-00399068Y-00446543D02*
X-00391068D01*
X-00395068Y-00450543D02*
Y-00442543D01*
X-00429255Y-00417897D02*
X-00421255D01*
X-00425255Y-00421897D02*
Y-00413897D01*
X-0045737Y-00387215D02*
X-0044937D01*
X-0045337Y-00391215D02*
Y-00383215D01*
X-00506848Y-00320349D02*
X-00498848D01*
X-00502848Y-00324349D02*
Y-00316349D01*
X00297055Y00180892D02*
X00305055D01*
X00301055Y00176892D02*
Y00184892D01*
X00212683Y00550082D02*
X00220683D01*
X00216683Y00546082D02*
Y00554082D01*
X00194591Y-00258808D02*
X00202591D01*
X00198591Y-00262808D02*
Y-00254809D01*
X-005458Y-005418D02*
X-005378D01*
X-005418Y-005458D02*
Y-005378D01*
X-00531432Y-00555797D02*
X-00523432D01*
X-00527432Y-00559797D02*
Y-00551797D01*
X-00516702Y-00569413D02*
X-00508702D01*
X-00512702Y-00573413D02*
Y-00565413D01*
X-00501621Y-00582639D02*
X-00493621D01*
X-00497621Y-00586639D02*
Y-00578639D01*
X-00454373Y-00619886D02*
X-00446373D01*
X-00450373Y-00623886D02*
Y-00615886D01*
X-00437992Y-00631463D02*
X-00429992D01*
X-00433992Y-00635463D02*
Y-00627463D01*
X-00421314Y-00642607D02*
X-00413314D01*
X-00417314Y-00646607D02*
Y-00638607D01*
X-00404349Y-00653311D02*
X-00396349D01*
X-00400349Y-00657311D02*
Y-00649311D01*
X-00387111Y-00663567D02*
X-00379111D01*
X-00383111Y-00667567D02*
Y-00659567D01*
X-00044101Y-00765171D02*
X-00036101D01*
X-00040101Y-00769171D02*
Y-00761171D01*
X-00064117Y-00763859D02*
X-00056117D01*
X-00060117Y-00767859D02*
Y-00759859D01*
X-00084092Y-00762024D02*
X-00076092D01*
X-00080092Y-00766024D02*
Y-00758024D01*
X-00104012Y-00759666D02*
X-00096012D01*
X-00100012Y-00763666D02*
Y-00755666D01*
X-00123863Y-00756788D02*
X-00115863D01*
X-00119863Y-00760788D02*
Y-00752788D01*
X-00143633Y-00753391D02*
X-00135633D01*
X-00139633Y-00757391D02*
Y-00749391D01*
X-00163306Y-00749477D02*
X-00155306D01*
X-00159306Y-00753477D02*
Y-00745477D01*
X-00278589Y-00715329D02*
X-00270589D01*
X-00274589Y-00719329D02*
Y-00711329D01*
X-00369609Y-00673368D02*
X-00361609D01*
X-00365609Y-00677368D02*
Y-00669368D01*
X-00351857Y-00682708D02*
X-00343857D01*
X-00347857Y-00686708D02*
Y-00678708D01*
X-00421102Y-00563681D02*
X-00413102D01*
X-00417102Y-00567681D02*
Y-00559681D01*
X-0044052Y-00548781D02*
X-0043252D01*
X-0043652Y-00552781D02*
Y-00544781D01*
X-00329601Y-00575497D02*
X-00321601D01*
X-00325601Y-00579497D02*
Y-00571497D01*
X-00349487Y-00563784D02*
X-00341487D01*
X-00345487Y-00567784D02*
Y-00559784D01*
X-00677368Y-00365609D02*
X-00669368D01*
X-00673368Y-00369609D02*
Y-00361609D01*
X-00667567Y-00383111D02*
X-00659567D01*
X-00663567Y-00387111D02*
Y-00379111D01*
X-00657311Y-00400349D02*
X-00649311D01*
X-00653311Y-00404349D02*
Y-00396349D01*
X-00646607Y-00417314D02*
X-00638607D01*
X-00642607Y-00421314D02*
Y-00413314D01*
X-00635463Y-00433992D02*
X-00627463D01*
X-00631463Y-00437992D02*
Y-00429992D01*
X-00623886Y-00450373D02*
X-00615886D01*
X-00619886Y-00454373D02*
Y-00446373D01*
X-00611884Y-00466446D02*
X-00603884D01*
X-00607884Y-00470446D02*
Y-00462446D01*
X-00599466Y-00482199D02*
X-00591466D01*
X-00595466Y-00486199D02*
Y-00478199D01*
X-00586639Y-00497621D02*
X-00578639D01*
X-00582639Y-00501621D02*
Y-00493621D01*
X-00573413Y-00512702D02*
X-00565413D01*
X-00569413Y-00516702D02*
Y-00508702D01*
X-00559797Y-00527432D02*
X-00551797D01*
X-00555797Y-00531432D02*
Y-00523432D01*
X-00333867Y-0069158D02*
X-00325867D01*
X-00329867Y-0069558D02*
Y-0068758D01*
X-0029722Y-00707896D02*
X-0028922D01*
X-0029322Y-00711896D02*
Y-00703896D01*
X-0031565Y-00699978D02*
X-0030765D01*
X-0031165Y-00703978D02*
Y-00695978D01*
X-00109125Y-00703409D02*
X-00101125D01*
X-00105125Y-00707409D02*
Y-00699409D01*
X-0013361Y-00699312D02*
X-0012561D01*
X-0012961Y-00703312D02*
Y-00695312D01*
X-00157936Y-00694362D02*
X-00149936D01*
X-00153936Y-00698362D02*
Y-00690362D01*
X-00182871Y-0074505D02*
X-00174871D01*
X-00178871Y-0074905D02*
Y-0074105D01*
X-00202313Y-00740113D02*
X-00194313D01*
X-00198313Y-00744113D02*
Y-00736113D01*
X-00221619Y-00734668D02*
X-00213619D01*
X-00217619Y-00738668D02*
Y-00730668D01*
X-00240775Y-0072872D02*
X-00232775D01*
X-00236775Y-0073272D02*
Y-0072472D01*
X-0025977Y-00722272D02*
X-0025177D01*
X-0025577Y-00726272D02*
Y-00718272D01*
X00330237Y00344506D02*
X00342237D01*
X00336237Y00338506D02*
Y00350506D01*
X00313265Y00326149D02*
X00325265D01*
X00319265Y00320149D02*
Y00332149D01*
X00296293Y00307791D02*
X00308293D01*
X00302293Y00301791D02*
Y00313791D01*
X00279322Y00289435D02*
X00291322D01*
X00285322Y00283435D02*
Y00295435D01*
X00257293Y00309801D02*
X00269293D01*
X00263293Y00303801D02*
Y00315801D01*
X00274265Y00328158D02*
X00286265D01*
X00280265Y00322158D02*
Y00334158D01*
X00291237Y00346515D02*
X00303237D01*
X00297237Y00340515D02*
Y00352515D01*
X00308209Y00364871D02*
X00320209D01*
X00314209Y00358871D02*
Y00370871D01*
X-00329Y-0062D02*
X-00321D01*
X-00325Y-00624D02*
Y-00616D01*
X-00289Y-0062D02*
X-00281D01*
X-00285Y-00624D02*
Y-00616D01*
X-00390515Y00260707D02*
X-00382515D01*
X-00386515Y00256707D02*
Y00264707D01*
X00100021Y00245058D02*
X00108021D01*
X00104021Y00241058D02*
Y00249058D01*
X00163538Y00206893D02*
X00171538D01*
X00167538Y00202893D02*
Y00210893D01*
X0020203Y-00195386D02*
X0021003D01*
X0020603Y-00199386D02*
Y-00191386D01*
X00166564Y-00659523D02*
X00174564D01*
X00170564Y-00663523D02*
Y-00655523D01*
X-00309387Y00202131D02*
X-00301387D01*
X-00305387Y00198131D02*
Y00206131D01*
X00131116Y00229381D02*
X00139116D01*
X00135116Y00225381D02*
Y00233381D01*
X00187127Y00183297D02*
X00195127D01*
X00191127Y00179297D02*
Y00187297D01*
X00231059Y00124983D02*
X00239059D01*
X00235059Y00120983D02*
Y00128983D01*
X0014007Y00443402D02*
X0014807D01*
X0014407Y00439402D02*
Y00447402D01*
X-00219458Y-00561288D02*
X-00211458D01*
X-00215458Y-00565288D02*
Y-00557288D01*
X-00238916Y-00553427D02*
X-00230916D01*
X-00234916Y-00557427D02*
Y-00549427D01*
X-00199738Y-00568466D02*
X-00191738D01*
X-00195738Y-00572466D02*
Y-00564466D01*
X00563808Y-00476448D02*
X00571808D01*
X00567808Y-00480448D02*
Y-00472448D01*
X00548807Y-00223348D02*
X00556807D01*
X00552807Y-00227348D02*
Y-00219348D01*
X00663786Y-00182349D02*
X00671786D01*
X00667786Y-00186349D02*
Y-00178349D01*
X00337168Y-001701D02*
X00345168D01*
X00341168Y-001741D02*
Y-001661D01*
X00669505Y-00155491D02*
X00677505D01*
X00673505Y-00159491D02*
Y-00151491D01*
X00719178Y-00221098D02*
X00727178D01*
X00723178Y-00225098D02*
Y-00217098D01*
X00658711Y-00309027D02*
X00666711D01*
X00662711Y-00313027D02*
Y-00305027D01*
X-00279161Y00305597D02*
X-00271161D01*
X-00275161Y00301597D02*
Y00309597D01*
X00255373Y00059873D02*
X00263373D01*
X00259373Y00055873D02*
Y00063873D01*
X-00212616Y00244258D02*
X-00204616D01*
X-00208616Y00240258D02*
Y00248258D01*
X00293344Y-00118622D02*
X00301344D01*
X00297344Y-00122622D02*
Y-00114622D01*
X00187259Y00278024D02*
X00195259D01*
X00191259Y00274024D02*
Y00282024D01*
X00306255Y-00100808D02*
X00314255D01*
X00310255Y-00104808D02*
Y-00096808D01*
X00262679Y-00049426D02*
X00270679D01*
X00266679Y-00053426D02*
Y-00045426D01*
X-00278675Y00234594D02*
X-00270675D01*
X-00274675Y00230594D02*
Y00238594D01*
X-00243651Y00190627D02*
X-00235651D01*
X-00239651Y00186627D02*
Y00194627D01*
X0026136Y-00162613D02*
X0026936D01*
X0026536Y-00166613D02*
Y-00158613D01*
X-005552Y0000481D02*
X-005472D01*
X-005512Y0000081D02*
Y0000881D01*
X-00555625Y00058423D02*
X-00547625D01*
X-00551625Y00054423D02*
Y00062423D01*
X00110623Y-0024581D02*
X00118623D01*
X00114623Y-0024981D02*
Y-0024181D01*
X-00174756Y-00576463D02*
X-00166756D01*
X-00170756Y-00580463D02*
Y-00572463D01*
X-00154534Y-00582071D02*
X-00146534D01*
X-00150534Y-00586071D02*
Y-00578071D01*
X-00497937Y00047561D02*
X-00489937D01*
X-00493937Y00043561D02*
Y00051561D01*
X-00612407Y-00058583D02*
X-00604407D01*
X-00608407Y-00062583D02*
Y-00054583D01*
X0023873Y-00571837D02*
X0024673D01*
X0024273Y-00575837D02*
Y-00567837D01*
X00214516Y-00554735D02*
X00222516D01*
X00218516Y-00558735D02*
Y-00550735D01*
X00708845Y-00252432D02*
X00716845D01*
X00712845Y-00256432D02*
Y-00248432D01*
X00400298Y-00566804D02*
X00408298D01*
X00404298Y-00570804D02*
Y-00562804D01*
X00595644Y-00402531D02*
X00603644D01*
X00599644Y-00406531D02*
Y-00398531D01*
X00526954Y-00312756D02*
X00534954D01*
X00530954Y-00316756D02*
Y-00308756D01*
X00577442Y-00308077D02*
X00585442D01*
X00581442Y-00312077D02*
Y-00304077D01*
X00556523Y-00319361D02*
X00564523D01*
X00560523Y-00323361D02*
Y-00315361D01*
X00628071Y-00357608D02*
X00636071D01*
X00632071Y-00361608D02*
Y-00353608D01*
X00331874Y00102687D02*
X00339874D01*
X00335874Y00098687D02*
Y00106687D01*
X00233281Y00258947D02*
X00241281D01*
X00237281Y00254947D02*
Y00262947D01*
X00054538Y-00315842D02*
X00062538D01*
X00058538Y-00319842D02*
Y-00311842D01*
X00057518Y-00356184D02*
X00065518D01*
X00061518Y-00360184D02*
Y-00352184D01*
X00206861Y-00668766D02*
X00214861D01*
X00210861Y-00672766D02*
Y-00664766D01*
X00393205Y-00601685D02*
X00401205D01*
X00397205Y-00605685D02*
Y-00597685D01*
X00342523Y-00638215D02*
X00350523D01*
X00346523Y-00642215D02*
Y-00634215D01*
X00307538Y-00611427D02*
X00315538D01*
X00311538Y-00615427D02*
Y-00607427D01*
X-00050123Y-00479006D02*
X-00042123D01*
X-00046123Y-00483006D02*
Y-00475006D01*
X-00075129Y-00475935D02*
X-00067129D01*
X-00071129Y-00479935D02*
Y-00471935D01*
X00093165Y-00404721D02*
X00101165D01*
X00097165Y-00408721D02*
Y-00400721D01*
X00528515Y-00479726D02*
X00536515D01*
X00532515Y-00483726D02*
Y-00475726D01*
X00548654Y-00455573D02*
X00556654D01*
X00552654Y-00459573D02*
Y-00451573D01*
X00024624Y-00655596D02*
X00032624D01*
X00028624Y-00659596D02*
Y-00651596D01*
X00383753Y00210532D02*
X00391753D01*
X00387753Y00206532D02*
Y00214532D01*
X-00092866Y-00594617D02*
X-00084866D01*
X-00088866Y-00598617D02*
Y-00590617D01*
X-00113564Y-00591154D02*
X-00105564D01*
X-00109564Y-00595154D02*
Y-00587154D01*
X-00134128Y-0058697D02*
X-00126128D01*
X-00130128Y-0059097D02*
Y-0058297D01*
M02*