%FSTAX26Y26*%
%MOIN*%
%SFA1B1*%

%IPPOS*%
%AMD24*
4,1,8,0.004700,-0.012000,0.012600,0.002800,0.011600,0.006100,-0.001500,0.013000,-0.004700,0.012000,-0.012600,-0.002800,-0.011600,-0.006100,0.001500,-0.013000,0.004700,-0.012000,0.0*
1,1,0.004922,0.002600,-0.010900*
1,1,0.004922,0.010500,0.003900*
1,1,0.004922,-0.002600,0.010900*
1,1,0.004922,-0.010500,-0.003900*
%
%AMD25*
4,1,8,-0.012900,0.001000,-0.003000,-0.012600,0.000400,-0.013100,0.012300,-0.004400,0.012900,-0.001000,0.003000,0.012600,-0.000400,0.013100,-0.012300,0.004400,-0.012900,0.001000,0.0*
1,1,0.004922,-0.010900,0.002400*
1,1,0.004922,-0.001000,-0.011100*
1,1,0.004922,0.010900,-0.002400*
1,1,0.004922,0.001000,0.011100*
%
%AMD26*
4,1,8,0.012900,-0.001000,0.002900,0.012600,-0.000400,0.013100,-0.012400,0.004300,-0.012900,0.001000,-0.002900,-0.012600,0.000400,-0.013100,0.012400,-0.004300,0.012900,-0.001000,0.0*
1,1,0.004922,0.010900,-0.002400*
1,1,0.004922,0.001000,0.011200*
1,1,0.004922,-0.010900,0.002400*
1,1,0.004922,-0.001000,-0.011200*
%
%AMD27*
4,1,8,0.012700,-0.002000,0.004000,0.012300,0.000700,0.013100,-0.012000,0.005300,-0.012700,0.002000,-0.004000,-0.012300,-0.000700,-0.013100,0.012000,-0.005300,0.012700,-0.002000,0.0*
1,1,0.004922,0.010700,-0.003300*
1,1,0.004922,0.001900,0.011000*
1,1,0.004922,-0.010700,0.003300*
1,1,0.004922,-0.001900,-0.011000*
%
%AMD28*
4,1,8,0.008500,-0.009700,0.010900,0.006900,0.008900,0.009600,-0.005800,0.011800,-0.008500,0.009700,-0.010900,-0.006900,-0.008900,-0.009600,0.005800,-0.011800,0.008500,-0.009700,0.0*
1,1,0.004922,0.006100,-0.009400*
1,1,0.004922,0.008500,0.007200*
1,1,0.004922,-0.006100,0.009400*
1,1,0.004922,-0.008500,-0.007200*
%
%AMD29*
4,1,8,0.009600,-0.008700,0.010000,0.008100,0.007700,0.010600,-0.007100,0.011000,-0.009600,0.008700,-0.010000,-0.008100,-0.007700,-0.010600,0.007100,-0.011000,0.009600,-0.008700,0.0*
1,1,0.004922,0.007200,-0.008600*
1,1,0.004922,0.007600,0.008200*
1,1,0.004922,-0.007200,0.008600*
1,1,0.004922,-0.007600,-0.008200*
%
%AMD30*
4,1,8,-0.010500,-0.006900,0.004400,-0.011700,0.007400,-0.010200,0.012000,0.003900,0.010500,0.006900,-0.004400,0.011700,-0.007400,0.010200,-0.012000,-0.003900,-0.010500,-0.006900,0.0*
1,1,0.004922,-0.009700,-0.004600*
1,1,0.004922,0.005100,-0.009500*
1,1,0.004922,0.009700,0.004600*
1,1,0.004922,-0.005100,0.009500*
%
%AMD31*
4,1,8,-0.011000,-0.006100,0.003500,-0.012000,0.006600,-0.010700,0.012300,0.002900,0.011000,0.006100,-0.003500,0.012000,-0.006600,0.010700,-0.012300,-0.002900,-0.011000,-0.006100,0.0*
1,1,0.004922,-0.010000,-0.003900*
1,1,0.004922,0.004400,-0.009800*
1,1,0.004922,0.010000,0.003900*
1,1,0.004922,-0.004400,0.009800*
%
%AMD32*
4,1,8,0.000800,0.010900,-0.009200,-0.005900,-0.008600,-0.008600,-0.003500,-0.011700,-0.000800,-0.010900,0.009200,0.005900,0.008600,0.008600,0.003500,0.011700,0.000800,0.010900,0.0*
1,1,0.003936,0.002400,0.010000*
1,1,0.003936,-0.007600,-0.006900*
1,1,0.003936,-0.002400,-0.010000*
1,1,0.003936,0.007600,0.006900*
%
%AMD33*
4,1,8,-0.033600,0.009300,0.008100,-0.033900,0.014300,-0.034000,0.033500,-0.015500,0.033600,-0.009300,-0.008100,0.033900,-0.014300,0.034000,-0.033500,0.015500,-0.033600,0.009300,0.0*
1,1,0.008858,-0.030400,0.012300*
1,1,0.008858,0.011300,-0.030800*
1,1,0.008858,0.030400,-0.012300*
1,1,0.008858,-0.011300,0.030800*
%
%AMD34*
4,1,8,0.012300,0.002400,0.000400,0.012500,-0.003000,0.012300,-0.012600,0.001000,-0.012300,-0.002400,-0.000400,-0.012500,0.003000,-0.012300,0.012600,-0.001000,0.012300,0.002400,0.0*
1,1,0.004922,0.010700,0.000600*
1,1,0.004922,-0.001100,0.010700*
1,1,0.004922,-0.010700,-0.000600*
1,1,0.004922,0.001100,-0.010700*
%
%AMD36*
4,1,8,-0.012300,0.002500,-0.005200,-0.011400,-0.001900,-0.012500,0.011200,-0.005700,0.012300,-0.002500,0.005200,0.011400,0.001900,0.012500,-0.011200,0.005700,-0.012300,0.002500,0.0*
1,1,0.004922,-0.010100,0.003600*
1,1,0.004922,-0.003000,-0.010300*
1,1,0.004922,0.010100,-0.003600*
1,1,0.004922,0.003000,0.010300*
%
%AMD37*
4,1,8,-0.032000,0.013900,0.003300,-0.034700,0.009500,-0.035600,0.031000,-0.020000,0.032000,-0.013900,-0.003300,0.034700,-0.009500,0.035600,-0.031000,0.020000,-0.032000,0.013900,0.0*
1,1,0.008858,-0.028400,0.016500*
1,1,0.008858,0.006900,-0.032100*
1,1,0.008858,0.028400,-0.016500*
1,1,0.008858,-0.006900,0.032100*
%
%AMD38*
4,1,8,0.016400,0.015900,-0.021800,0.007100,-0.023300,0.004700,-0.018900,-0.014400,-0.016400,-0.015900,0.021800,-0.007100,0.023300,-0.004700,0.018900,0.014400,0.016400,0.015900,0.0*
1,1,0.004016,0.016900,0.014000*
1,1,0.004016,-0.021300,0.005100*
1,1,0.004016,-0.016900,-0.014000*
1,1,0.004016,0.021300,-0.005100*
%
%AMD39*
4,1,8,-0.012300,0.004000,-0.005800,-0.011500,-0.002700,-0.012800,0.011000,-0.007100,0.012300,-0.004000,0.005800,0.011500,0.002700,0.012800,-0.011000,0.007100,-0.012300,0.004000,0.0*
1,1,0.004922,-0.010100,0.004900*
1,1,0.004922,-0.003600,-0.010600*
1,1,0.004922,0.010100,-0.004900*
1,1,0.004922,0.003600,0.010600*
%
%AMD41*
4,1,4,0.013000,0.001800,0.000800,0.013100,-0.013000,-0.001800,-0.000800,-0.013100,0.013000,0.001800,0.0*
%
%AMD42*
4,1,4,0.009800,-0.001700,-0.002400,0.009600,-0.009800,0.001700,0.002400,-0.009600,0.009800,-0.001700,0.0*
%
%AMD44*
4,1,4,0.011200,-0.014900,0.017900,-0.005200,-0.011200,0.014900,-0.017900,0.005200,0.011200,-0.014900,0.0*
%
%AMD45*
4,1,8,0.012300,0.003900,-0.002000,0.012800,-0.005300,0.012000,-0.013100,-0.000600,-0.012300,-0.003900,0.002000,-0.012800,0.005300,-0.012000,0.013100,0.000600,0.012300,0.003900,0.0*
1,1,0.004922,0.011000,0.001900*
1,1,0.004922,-0.003300,0.010700*
1,1,0.004922,-0.011000,-0.001900*
1,1,0.004922,0.003300,-0.010700*
%
%AMD46*
4,1,8,0.012000,0.004900,-0.003000,0.012600,-0.006200,0.011500,-0.013000,-0.001600,-0.012000,-0.004900,0.003000,-0.012600,0.006200,-0.011500,0.013000,0.001600,0.012000,0.004900,0.0*
1,1,0.004922,0.010900,0.002700*
1,1,0.004922,-0.004100,0.010400*
1,1,0.004922,-0.010900,-0.002700*
1,1,0.004922,0.004100,-0.010400*
%
%AMD47*
4,1,8,-0.012300,-0.004000,0.002100,-0.012700,0.005400,-0.011900,0.013100,0.000700,0.012300,0.004000,-0.002100,0.012700,-0.005400,0.011900,-0.013100,-0.000700,-0.012300,-0.004000,0.0*
1,1,0.004922,-0.011000,-0.002000*
1,1,0.004922,0.003300,-0.010700*
1,1,0.004922,0.011000,0.002000*
1,1,0.004922,-0.003300,0.010700*
%
%AMD48*
4,1,8,-0.011900,-0.005000,0.003100,-0.012500,0.006300,-0.011500,0.013000,0.001800,0.011900,0.005000,-0.003100,0.012500,-0.006300,0.011500,-0.013000,-0.001800,-0.011900,-0.005000,0.0*
1,1,0.004922,-0.010800,-0.002900*
1,1,0.004922,0.004200,-0.010400*
1,1,0.004922,0.010800,0.002900*
1,1,0.004922,-0.004200,0.010400*
%
%AMD49*
4,1,8,-0.009400,-0.008900,0.007300,-0.010600,0.010000,-0.008500,0.011500,0.006200,0.009400,0.008900,-0.007300,0.010600,-0.010000,0.008500,-0.011500,-0.006200,-0.009400,-0.008900,0.0*
1,1,0.004922,-0.009100,-0.006500*
1,1,0.004922,0.007600,-0.008200*
1,1,0.004922,0.009100,0.006500*
1,1,0.004922,-0.007600,0.008200*
%
%AMD50*
4,1,4,-0.009800,0.010600,-0.014200,-0.002300,0.009800,-0.010600,0.014200,0.002300,-0.009800,0.010600,0.0*
%
%AMD51*
4,1,8,-0.012600,0.002700,-0.004600,-0.012100,-0.001300,-0.013000,0.011700,-0.005900,0.012600,-0.002700,0.004600,0.012100,0.001300,0.013000,-0.011700,0.005900,-0.012600,0.002700,0.0*
1,1,0.004922,-0.010500,0.003800*
1,1,0.004922,-0.002500,-0.010900*
1,1,0.004922,0.010500,-0.003800*
1,1,0.004922,0.002500,0.010900*
%
%AMD52*
4,1,4,-0.046400,0.012300,-0.038800,-0.028200,0.046400,-0.012300,0.038800,0.028200,-0.046400,0.012300,0.0*
%
%AMD53*
4,1,8,-0.011800,0.005200,-0.006900,-0.010900,-0.003900,-0.012500,0.010200,-0.008200,0.011800,-0.005200,0.006900,0.010900,0.003900,0.012500,-0.010200,0.008200,-0.011800,0.005200,0.0*
1,1,0.004922,-0.009500,0.005900*
1,1,0.004922,-0.004600,-0.010200*
1,1,0.004922,0.009500,-0.005900*
1,1,0.004922,0.004600,0.010200*
%
%AMD54*
4,1,8,-0.012600,0.002700,-0.004600,-0.012100,-0.001300,-0.013000,0.011700,-0.006000,0.012600,-0.002700,0.004600,0.012100,0.001300,0.013000,-0.011700,0.006000,-0.012600,0.002700,0.0*
1,1,0.004922,-0.010500,0.003900*
1,1,0.004922,-0.002500,-0.010900*
1,1,0.004922,0.010500,-0.003900*
1,1,0.004922,0.002500,0.010900*
%
%AMD55*
4,1,8,-0.012500,0.003400,-0.005200,-0.011800,-0.002000,-0.012900,0.011300,-0.006600,0.012500,-0.003400,0.005200,0.011800,0.002000,0.012900,-0.011300,0.006600,-0.012500,0.003400,0.0*
1,1,0.004922,-0.010300,0.004400*
1,1,0.004922,-0.003100,-0.010800*
1,1,0.004922,0.010300,-0.004400*
1,1,0.004922,0.003100,0.010800*
%
%AMD56*
4,1,8,-0.012500,0.000400,-0.003200,-0.012100,0.000100,-0.012600,0.012000,-0.003800,0.012500,-0.000400,0.003200,0.012100,-0.000100,0.012600,-0.012000,0.003800,-0.012500,0.000400,0.0*
1,1,0.004922,-0.010600,0.001900*
1,1,0.004922,-0.001300,-0.010700*
1,1,0.004922,0.010600,-0.001900*
1,1,0.004922,0.001300,0.010700*
%
%AMD58*
4,1,4,-0.016000,0.045200,-0.045200,0.016100,0.016000,-0.045200,0.045200,-0.016100,-0.016000,0.045200,0.0*
%
%AMD59*
4,1,8,-0.012300,0.002200,-0.004900,-0.011500,-0.001700,-0.012500,0.011400,-0.005500,0.012300,-0.002200,0.004900,0.011500,0.001700,0.012500,-0.011400,0.005500,-0.012300,0.002200,0.0*
1,1,0.004922,-0.010200,0.003400*
1,1,0.004922,-0.002800,-0.010400*
1,1,0.004922,0.010200,-0.003400*
1,1,0.004922,0.002800,0.010400*
%
%AMD60*
4,1,8,0.009000,0.009300,-0.007800,0.010300,-0.010300,0.008000,-0.011200,-0.006700,-0.009000,-0.009300,0.007800,-0.010300,0.010300,-0.008000,0.011200,0.006700,0.009000,0.009300,0.0*
1,1,0.004922,0.008800,0.006900*
1,1,0.004922,-0.007900,0.007900*
1,1,0.004922,-0.008800,-0.006900*
1,1,0.004922,0.007900,-0.007900*
%
%AMD61*
4,1,8,-0.019800,-0.003500,0.007200,-0.018800,0.011500,-0.017600,0.021000,-0.000900,0.019800,0.003500,-0.007200,0.018800,-0.011500,0.017600,-0.021000,0.000900,-0.019800,-0.003500,0.0*
1,1,0.006398,-0.018200,-0.000700*
1,1,0.006398,0.008800,-0.016000*
1,1,0.006398,0.018200,0.000700*
1,1,0.006398,-0.008800,0.016000*
%
%AMD62*
4,1,8,0.004600,-0.012100,0.012600,0.002700,0.011700,0.006000,-0.001300,0.013000,-0.004600,0.012100,-0.012600,-0.002700,-0.011700,-0.006000,0.001300,-0.013000,0.004600,-0.012100,0.0*
1,1,0.004922,0.002500,-0.010900*
1,1,0.004922,0.010500,0.003900*
1,1,0.004922,-0.002500,0.010900*
1,1,0.004922,-0.010500,-0.003900*
%
%AMD63*
4,1,8,-0.011000,-0.006100,0.003500,-0.012000,0.006600,-0.010700,0.012300,0.002900,0.011000,0.006100,-0.003500,0.012000,-0.006600,0.010700,-0.012300,-0.002900,-0.011000,-0.006100,0.0*
1,1,0.004922,-0.010000,-0.003900*
1,1,0.004922,0.004400,-0.009800*
1,1,0.004922,0.010000,0.003900*
1,1,0.004922,-0.004400,0.009800*
%
%AMD64*
4,1,8,-0.033800,-0.008500,0.023700,-0.025500,0.029200,-0.022500,0.036800,0.003000,0.033800,0.008500,-0.023700,0.025500,-0.029200,0.022500,-0.036800,-0.003000,-0.033800,-0.008500,0.0*
1,1,0.008858,-0.032500,-0.004200*
1,1,0.008858,0.025000,-0.021300*
1,1,0.008858,0.032500,0.004200*
1,1,0.008858,-0.025000,0.021300*
%
%AMD65*
4,1,8,-0.017600,-0.009800,0.012900,-0.015400,0.016600,-0.012800,0.020100,0.006000,0.017600,0.009800,-0.012900,0.015400,-0.016600,0.012800,-0.020100,-0.006000,-0.017600,-0.009800,0.0*
1,1,0.006398,-0.017000,-0.006600*
1,1,0.006398,0.013500,-0.012300*
1,1,0.006398,0.017000,0.006600*
1,1,0.006398,-0.013500,0.012300*
%
%AMD66*
4,1,8,0.012400,-0.002100,0.004800,0.011600,0.001500,0.012500,-0.011400,0.005300,-0.012400,0.002100,-0.004800,-0.011600,-0.001500,-0.012500,0.011400,-0.005300,0.012400,-0.002100,0.0*
1,1,0.004922,0.010300,-0.003200*
1,1,0.004922,0.002700,0.010400*
1,1,0.004922,-0.010300,0.003200*
1,1,0.004922,-0.002700,-0.010400*
%
%AMD67*
4,1,8,0.003000,-0.012200,0.012500,0.000200,0.012100,0.003600,0.000300,0.012600,-0.003000,0.012200,-0.012500,-0.000200,-0.012100,-0.003600,-0.000300,-0.012600,0.003000,-0.012200,0.0*
1,1,0.004922,0.001100,-0.010700*
1,1,0.004922,0.010600,0.001700*
1,1,0.004922,-0.001100,0.010700*
1,1,0.004922,-0.010600,-0.001700*
%
%AMD68*
4,1,8,-0.008600,0.008600,-0.011700,0.003500,-0.010900,0.000800,0.005900,-0.009200,0.008600,-0.008600,0.011700,-0.003500,0.010900,-0.000800,-0.005900,0.009200,-0.008600,0.008600,0.0*
1,1,0.003936,-0.006900,0.007600*
1,1,0.003936,-0.010000,0.002400*
1,1,0.003936,0.006900,-0.007600*
1,1,0.003936,0.010000,-0.002400*
%
%AMD70*
4,1,4,-0.014700,-0.003000,0.003000,-0.014700,0.014700,0.003000,-0.003000,0.014700,-0.014700,-0.003000,0.0*
%
%AMD71*
4,1,4,0.000900,0.012100,-0.010800,-0.005600,-0.000900,-0.012100,0.010800,0.005600,0.000900,0.012100,0.0*
%
%AMD72*
4,1,4,-0.005600,0.010800,-0.012100,0.000900,0.005600,-0.010800,0.012100,-0.000900,-0.005600,0.010800,0.0*
%
%AMD73*
4,1,4,-0.021800,-0.004400,0.004400,-0.021800,0.021800,0.004400,-0.004400,0.021800,-0.021800,-0.004400,0.0*
%
%AMD74*
4,1,4,-0.008200,-0.001700,0.001700,-0.008200,0.008200,0.001700,-0.001700,0.008200,-0.008200,-0.001700,0.0*
%
%AMD75*
4,1,8,-0.011100,0.005800,-0.008100,-0.009600,-0.005300,-0.011400,0.009200,-0.008600,0.011100,-0.005800,0.008100,0.009600,0.005300,0.011400,-0.009200,0.008600,-0.011100,0.005800,0.0*
1,1,0.004922,-0.008800,0.006200*
1,1,0.004922,-0.005700,-0.009100*
1,1,0.004922,0.008800,-0.006200*
1,1,0.004922,0.005700,0.009100*
%
%AMD76*
4,1,8,0.007800,0.009800,-0.007800,0.009800,-0.010200,0.007400,-0.010200,-0.007400,-0.007800,-0.009800,0.007800,-0.009800,0.010200,-0.007400,0.010200,0.007400,0.007800,0.009800,0.0*
1,1,0.004922,0.007800,0.007400*
1,1,0.004922,-0.007800,0.007400*
1,1,0.004922,-0.007800,-0.007400*
1,1,0.004922,0.007800,-0.007400*
%
%AMD77*
4,1,4,0.001500,0.014600,-0.011400,0.009200,-0.001500,-0.014600,0.011400,-0.009200,0.001500,0.014600,0.0*
%
%AMD78*
4,1,4,-0.001800,0.014300,-0.012900,0.006500,0.001800,-0.014300,0.012900,-0.006500,-0.001800,0.014300,0.0*
%
%AMD79*
4,1,4,0.000100,-0.014700,0.012400,-0.007900,-0.000100,0.014700,-0.012400,0.007900,0.000100,-0.014700,0.0*
%
%AMD80*
4,1,8,-0.005400,-0.011700,0.010800,-0.007100,0.012400,-0.004200,0.008400,0.010100,0.005400,0.011700,-0.010800,0.007100,-0.012400,0.004200,-0.008400,-0.010100,-0.005400,-0.011700,0.0*
1,1,0.004922,-0.006100,-0.009400*
1,1,0.004922,0.010100,-0.004800*
1,1,0.004922,0.006100,0.009400*
1,1,0.004922,-0.010100,0.004800*
%
%AMD81*
4,1,8,-0.001100,-0.012900,0.012500,-0.003000,0.013100,0.000300,0.004400,0.012300,0.001100,0.012900,-0.012500,0.003000,-0.013100,-0.000300,-0.004400,-0.012300,-0.001100,-0.012900,0.0*
1,1,0.004922,-0.002500,-0.010900*
1,1,0.004922,0.011100,-0.001100*
1,1,0.004922,0.002500,0.010900*
1,1,0.004922,-0.011100,0.001100*
%
%AMD82*
4,1,8,-0.003600,0.012000,-0.012500,-0.000800,-0.011900,-0.004100,0.000200,-0.012600,0.003600,-0.012000,0.012500,0.000800,0.011900,0.004100,-0.000200,0.012600,-0.003600,0.012000,0.0*
1,1,0.004922,-0.001600,0.010600*
1,1,0.004922,-0.010500,-0.002100*
1,1,0.004922,0.001600,-0.010600*
1,1,0.004922,0.010500,0.002100*
%
%AMD84*
4,1,4,0.118400,0.112600,0.043800,0.157400,-0.118400,-0.112600,-0.043800,-0.157400,0.118400,0.112600,0.0*
%
%AMD86*
4,1,8,-0.011000,-0.006100,0.003500,-0.012000,0.006600,-0.010700,0.012300,0.002900,0.011000,0.006100,-0.003500,0.012000,-0.006600,0.010700,-0.012300,-0.002900,-0.011000,-0.006100,0.0*
1,1,0.004922,-0.010000,-0.003900*
1,1,0.004922,0.004400,-0.009800*
1,1,0.004922,0.010000,0.003900*
1,1,0.004922,-0.004400,0.009800*
%
%AMD87*
4,1,8,-0.003600,-0.012000,0.010900,-0.006200,0.012200,-0.003000,0.006700,0.010700,0.003600,0.012000,-0.010900,0.006200,-0.012200,0.003000,-0.006700,-0.010700,-0.003600,-0.012000,0.0*
1,1,0.004922,-0.004500,-0.009800*
1,1,0.004922,0.010000,-0.003900*
1,1,0.004922,0.004500,0.009800*
1,1,0.004922,-0.010000,0.003900*
%
%AMD88*
4,1,8,-0.016700,-0.011200,0.014100,-0.014300,0.017600,-0.011400,0.019600,0.007700,0.016700,0.011200,-0.014100,0.014300,-0.017600,0.011400,-0.019600,-0.007700,-0.016700,-0.011200,0.0*
1,1,0.006398,-0.016400,-0.008000*
1,1,0.006398,0.014400,-0.011100*
1,1,0.006398,0.016400,0.008000*
1,1,0.006398,-0.014400,0.011100*
%
%AMD89*
4,1,4,-0.000600,0.028400,-0.028400,0.000800,0.000600,-0.028400,0.028400,-0.000800,-0.000600,0.028400,0.0*
%
%AMD90*
4,1,8,-0.001700,-0.012800,0.012400,-0.003600,0.013100,-0.000300,0.005000,0.012100,0.001700,0.012800,-0.012400,0.003600,-0.013100,0.000300,-0.005000,-0.012100,-0.001700,-0.012800,0.0*
1,1,0.004922,-0.003000,-0.010800*
1,1,0.004922,0.011100,-0.001600*
1,1,0.004922,0.003000,0.010800*
1,1,0.004922,-0.011100,0.001600*
%
%AMD91*
4,1,4,-0.023900,0.015500,-0.016600,-0.023100,0.023900,-0.015500,0.016600,0.023100,-0.023900,0.015500,0.0*
%
%AMD92*
4,1,8,-0.010900,-0.006100,0.003500,-0.012000,0.006700,-0.010700,0.012200,0.003000,0.010900,0.006100,-0.003500,0.012000,-0.006700,0.010700,-0.012200,-0.003000,-0.010900,-0.006100,0.0*
1,1,0.004922,-0.010000,-0.003900*
1,1,0.004922,0.004400,-0.009800*
1,1,0.004922,0.010000,0.003900*
1,1,0.004922,-0.004400,0.009800*
%
%AMD93*
4,1,8,-0.007700,0.009800,-0.011300,-0.005300,-0.009500,-0.008200,0.004900,-0.011600,0.007700,-0.009800,0.011300,0.005300,0.009500,0.008200,-0.004900,0.011600,-0.007700,0.009800,0.0*
1,1,0.004922,-0.005400,0.009300*
1,1,0.004922,-0.009000,-0.005900*
1,1,0.004922,0.005400,-0.009300*
1,1,0.004922,0.009000,0.005900*
%
%AMD240*
4,1,4,-0.008700,-0.017500,0.014200,-0.013400,0.008700,0.017500,-0.014200,0.013400,-0.008700,-0.017500,0.0*
%
%AMD241*
4,1,4,0.006400,-0.004500,0.004500,0.006400,-0.006400,0.004500,-0.004500,-0.006400,0.006400,-0.004500,0.0*
%
G04~CAMADD=24~8~0.0~0.0~216.5~196.8~24.6~0.0~15~0.0~0.0~0.0~0.0~0~0.0~0.0~0.0~0.0~0~0.0~0.0~0.0~242.0~258.0~266.0*
%ADD24D24*%
G04~CAMADD=25~8~0.0~0.0~216.5~196.8~24.6~0.0~15~0.0~0.0~0.0~0.0~0~0.0~0.0~0.0~0.0~0~0.0~0.0~0.0~126.0~268.0~271.0*
%ADD25D25*%
G04~CAMADD=26~8~0.0~0.0~216.5~196.8~24.6~0.0~15~0.0~0.0~0.0~0.0~0~0.0~0.0~0.0~0.0~0~0.0~0.0~0.0~306.3~268.0~271.0*
%ADD26D26*%
G04~CAMADD=27~8~0.0~0.0~216.5~196.8~24.6~0.0~15~0.0~0.0~0.0~0.0~0~0.0~0.0~0.0~0.0~0~0.0~0.0~0.0~301.5~262.0~269.0*
%ADD27D27*%
G04~CAMADD=28~8~0.0~0.0~216.5~196.8~24.6~0.0~15~0.0~0.0~0.0~0.0~0~0.0~0.0~0.0~0.0~0~0.0~0.0~0.0~261.7~220.0~236.0*
%ADD28D28*%
G04~CAMADD=29~8~0.0~0.0~216.5~196.8~24.6~0.0~15~0.0~0.0~0.0~0.0~0~0.0~0.0~0.0~0.0~0~0.0~0.0~0.0~268.5~200.0~220.0*
%ADD29D29*%
G04~CAMADD=30~8~0.0~0.0~204.7~196.8~24.6~0.0~15~0.0~0.0~0.0~0.0~0~0.0~0.0~0.0~0.0~0~0.0~0.0~0.0~161.9~242.0~239.0*
%ADD30D30*%
G04~CAMADD=31~8~0.0~0.0~204.7~196.8~24.6~0.0~15~0.0~0.0~0.0~0.0~0~0.0~0.0~0.0~0.0~0~0.0~0.0~0.0~157.5~250.0~246.0*
%ADD31D31*%
G04~CAMADD=32~8~0.0~0.0~236.2~98.4~19.7~0.0~15~0.0~0.0~0.0~0.0~0~0.0~0.0~0.0~0.0~0~0.0~0.0~0.0~59.2~190.0~238.0*
%ADD32D32*%
G04~CAMADD=33~8~0.0~0.0~689.0~354.3~44.3~0.0~15~0.0~0.0~0.0~0.0~0~0.0~0.0~0.0~0.0~0~0.0~0.0~0.0~134.0~698.0~705.0*
%ADD33D33*%
G04~CAMADD=34~8~0.0~0.0~204.7~196.8~24.6~0.0~15~0.0~0.0~0.0~0.0~0~0.0~0.0~0.0~0.0~0~0.0~0.0~0.0~319.5~264.0~263.0*
%ADD34D34*%
G04~CAMADD=36~8~0.0~0.0~204.7~196.8~24.6~0.0~15~0.0~0.0~0.0~0.0~0~0.0~0.0~0.0~0.0~0~0.0~0.0~0.0~117.1~252.0~256.0*
%ADD36D36*%
G04~CAMADD=37~8~0.0~0.0~689.0~354.3~44.3~0.0~15~0.0~0.0~0.0~0.0~0~0.0~0.0~0.0~0.0~0~0.0~0.0~0.0~126.0~656.0~730.0*
%ADD37D37*%
G04~CAMADD=38~8~0.0~0.0~433.1~236.2~20.1~0.0~15~0.0~0.0~0.0~0.0~0~0.0~0.0~0.0~0.0~0~0.0~0.0~0.0~13.0~466.0~320.0*
%ADD38D38*%
G04~CAMADD=39~8~0.0~0.0~216.5~196.8~24.6~0.0~15~0.0~0.0~0.0~0.0~0~0.0~0.0~0.0~0.0~0~0.0~0.0~0.0~112.5~250.0~260.0*
%ADD39D39*%
G04~CAMADD=41~9~0.0~0.0~167.3~202.8~0.0~0.0~0~0.0~0.0~0.0~0.0~0~0.0~0.0~0.0~0.0~0~0.0~0.0~0.0~317.2~260.0~261.0*
%ADD41D41*%
G04~CAMADD=42~9~0.0~0.0~167.3~108.3~0.0~0.0~0~0.0~0.0~0.0~0.0~0~0.0~0.0~0.0~0.0~0~0.0~0.0~0.0~317.2~196.0~191.0*
%ADD42D42*%
G04~CAMADD=44~9~0.0~0.0~118.1~354.3~0.0~0.0~0~0.0~0.0~0.0~0.0~0~0.0~0.0~0.0~0.0~0~0.0~0.0~0.0~235.5~358.0~297.0*
%ADD44D44*%
G04~CAMADD=45~8~0.0~0.0~216.5~196.8~24.6~0.0~15~0.0~0.0~0.0~0.0~0~0.0~0.0~0.0~0.0~0~0.0~0.0~0.0~328.3~270.0~263.0*
%ADD45D45*%
G04~CAMADD=46~8~0.0~0.0~216.5~196.8~24.6~0.0~15~0.0~0.0~0.0~0.0~0~0.0~0.0~0.0~0.0~0~0.0~0.0~0.0~332.7~266.0~257.0*
%ADD46D46*%
G04~CAMADD=47~8~0.0~0.0~216.5~196.8~24.6~0.0~15~0.0~0.0~0.0~0.0~0~0.0~0.0~0.0~0.0~0~0.0~0.0~0.0~148.7~270.0~262.0*
%ADD47D47*%
G04~CAMADD=48~8~0.0~0.0~216.5~196.8~24.6~0.0~15~0.0~0.0~0.0~0.0~0~0.0~0.0~0.0~0.0~0~0.0~0.0~0.0~153.4~266.0~256.0*
%ADD48D48*%
G04~CAMADD=49~8~0.0~0.0~216.5~196.8~24.6~0.0~15~0.0~0.0~0.0~0.0~0~0.0~0.0~0.0~0.0~0~0.0~0.0~0.0~174.0~232.0~212.0*
%ADD49D49*%
G04~CAMADD=50~9~0.0~0.0~137.8~255.9~0.0~0.0~0~0.0~0.0~0.0~0.0~0~0.0~0.0~0.0~0.0~0~0.0~0.0~0.0~71.0~284.0~211.0*
%ADD50D50*%
G04~CAMADD=51~8~0.0~0.0~216.5~196.8~24.6~0.0~15~0.0~0.0~0.0~0.0~0~0.0~0.0~0.0~0.0~0~0.0~0.0~0.0~118.6~260.0~266.0*
%ADD51D51*%
G04~CAMADD=52~9~0.0~0.0~413.4~866.1~0.0~0.0~0~0.0~0.0~0.0~0.0~0~0.0~0.0~0.0~0.0~0~0.0~0.0~0.0~100.6~928.0~563.0*
%ADD52D52*%
G04~CAMADD=53~8~0.0~0.0~216.5~196.8~24.6~0.0~15~0.0~0.0~0.0~0.0~0~0.0~0.0~0.0~0.0~0~0.0~0.0~0.0~107.0~240.0~251.0*
%ADD53D53*%
G04~CAMADD=54~8~0.0~0.0~216.5~196.8~24.6~0.0~15~0.0~0.0~0.0~0.0~0~0.0~0.0~0.0~0.0~0~0.0~0.0~0.0~118.5~260.0~266.0*
%ADD54D54*%
G04~CAMADD=55~8~0.0~0.0~216.5~196.8~24.6~0.0~15~0.0~0.0~0.0~0.0~0~0.0~0.0~0.0~0.0~0~0.0~0.0~0.0~115.5~256.0~263.0*
%ADD55D55*%
G04~CAMADD=56~8~0.0~0.0~204.7~196.8~24.6~0.0~15~0.0~0.0~0.0~0.0~0~0.0~0.0~0.0~0.0~0~0.0~0.0~0.0~126.5~260.0~263.0*
%ADD56D56*%
G04~CAMADD=58~9~0.0~0.0~413.4~866.1~0.0~0.0~0~0.0~0.0~0.0~0.0~0~0.0~0.0~0.0~0.0~0~0.0~0.0~0.0~44.9~904.0~903.0*
%ADD58D58*%
G04~CAMADD=59~8~0.0~0.0~204.7~196.8~24.6~0.0~15~0.0~0.0~0.0~0.0~0~0.0~0.0~0.0~0.0~0~0.0~0.0~0.0~118.3~254.0~256.0*
%ADD59D59*%
G04~CAMADD=60~8~0.0~0.0~216.5~196.8~24.6~0.0~15~0.0~0.0~0.0~0.0~0~0.0~0.0~0.0~0.0~0~0.0~0.0~0.0~356.5~226.0~206.0*
%ADD60D60*%
G04~CAMADD=61~8~0.0~0.0~374.0~255.9~32.0~0.0~15~0.0~0.0~0.0~0.0~0~0.0~0.0~0.0~0.0~0~0.0~0.0~0.0~150.5~428.0~384.0*
%ADD61D61*%
G04~CAMADD=62~8~0.0~0.0~216.5~196.8~24.6~0.0~15~0.0~0.0~0.0~0.0~0~0.0~0.0~0.0~0.0~0~0.0~0.0~0.0~241.5~259.0~267.0*
%ADD62D62*%
G04~CAMADD=63~8~0.0~0.0~204.7~196.8~24.6~0.0~15~0.0~0.0~0.0~0.0~0~0.0~0.0~0.0~0.0~0~0.0~0.0~0.0~157.5~250.0~246.0*
%ADD63D63*%
G04~CAMADD=64~8~0.0~0.0~689.0~354.3~44.3~0.0~15~0.0~0.0~0.0~0.0~0~0.0~0.0~0.0~0.0~0~0.0~0.0~0.0~163.5~740.0~514.0*
%ADD64D64*%
G04~CAMADD=65~8~0.0~0.0~374.0~255.9~32.0~0.0~15~0.0~0.0~0.0~0.0~0~0.0~0.0~0.0~0.0~0~0.0~0.0~0.0~169.5~404.0~309.0*
%ADD65D65*%
G04~CAMADD=66~8~0.0~0.0~204.7~196.8~24.6~0.0~15~0.0~0.0~0.0~0.0~0~0.0~0.0~0.0~0.0~0~0.0~0.0~0.0~299.0~254.0~257.0*
%ADD66D66*%
G04~CAMADD=67~8~0.0~0.0~204.7~196.8~24.6~0.0~15~0.0~0.0~0.0~0.0~0~0.0~0.0~0.0~0.0~0~0.0~0.0~0.0~232.5~262.0~262.0*
%ADD67D67*%
G04~CAMADD=68~8~0.0~0.0~98.4~236.2~19.7~0.0~15~0.0~0.0~0.0~0.0~0~0.0~0.0~0.0~0.0~0~0.0~0.0~0.0~59.2~238.0~190.0*
%ADD68D68*%
G04~CAMADD=70~10~0.0~212.6~0.0~0.0~0.0~0.0~0~0.0~0.0~0.0~0.0~0~0.0~0.0~0.0~0.0~0~0.0~0.0~0.0~146.5~212.6~0.0*
%ADD70D70*%
G04~CAMADD=71~9~0.0~0.0~212.6~118.1~0.0~0.0~0~0.0~0.0~0.0~0.0~0~0.0~0.0~0.0~0.0~0~0.0~0.0~0.0~56.5~216.0~241.0*
%ADD71D71*%
G04~CAMADD=72~9~0.0~0.0~118.1~212.6~0.0~0.0~0~0.0~0.0~0.0~0.0~0~0.0~0.0~0.0~0.0~0~0.0~0.0~0.0~56.5~242.0~215.0*
%ADD72D72*%
G04~CAMADD=73~10~0.0~315.0~0.0~0.0~0.0~0.0~0~0.0~0.0~0.0~0.0~0~0.0~0.0~0.0~0.0~0~0.0~0.0~0.0~146.5~315.0~0.0*
%ADD73D73*%
G04~CAMADD=74~10~0.0~118.1~0.0~0.0~0.0~0.0~0~0.0~0.0~0.0~0.0~0~0.0~0.0~0.0~0.0~0~0.0~0.0~0.0~146.5~118.1~0.0*
%ADD74D74*%
G04~CAMADD=75~8~0.0~0.0~204.7~196.8~24.6~0.0~15~0.0~0.0~0.0~0.0~0~0.0~0.0~0.0~0.0~0~0.0~0.0~0.0~101.2~224.0~230.0*
%ADD75D75*%
G04~CAMADD=76~8~0.0~0.0~204.7~196.8~24.6~0.0~15~0.0~0.0~0.0~0.0~0~0.0~0.0~0.0~0.0~0~0.0~0.0~0.0~360.0~204.0~197.0*
%ADD76D76*%
G04~CAMADD=77~9~0.0~0.0~141.7~259.8~0.0~0.0~0~0.0~0.0~0.0~0.0~0~0.0~0.0~0.0~0.0~0~0.0~0.0~0.0~22.6~228.0~291.0*
%ADD77D77*%
G04~CAMADD=78~9~0.0~0.0~137.8~255.9~0.0~0.0~0~0.0~0.0~0.0~0.0~0~0.0~0.0~0.0~0.0~0~0.0~0.0~0.0~35.2~258.0~285.0*
%ADD78D78*%
G04~CAMADD=79~9~0.0~0.0~141.7~259.8~0.0~0.0~0~0.0~0.0~0.0~0.0~0~0.0~0.0~0.0~0.0~0~0.0~0.0~0.0~208.9~248.0~293.0*
%ADD79D79*%
G04~CAMADD=80~8~0.0~0.0~216.5~196.8~24.6~0.0~15~0.0~0.0~0.0~0.0~0~0.0~0.0~0.0~0.0~0~0.0~0.0~0.0~195.9~249.0~236.0*
%ADD80D80*%
G04~CAMADD=81~8~0.0~0.0~216.5~196.8~24.6~0.0~15~0.0~0.0~0.0~0.0~0~0.0~0.0~0.0~0.0~0~0.0~0.0~0.0~215.8~271.0~267.0*
%ADD81D81*%
G04~CAMADD=82~8~0.0~0.0~204.7~196.8~24.6~0.0~15~0.0~0.0~0.0~0.0~0~0.0~0.0~0.0~0.0~0~0.0~0.0~0.0~55.0~261.0~262.0*
%ADD82D82*%
G04~CAMADD=84~9~0.0~0.0~870.0~3150.0~0.0~0.0~0~0.0~0.0~0.0~0.0~0~0.0~0.0~0.0~0.0~0~0.0~0.0~0.0~329.0~2368.0~3147.0*
%ADD84D84*%
G04~CAMADD=86~8~0.0~0.0~204.7~196.8~24.6~0.0~15~0.0~0.0~0.0~0.0~0~0.0~0.0~0.0~0.0~0~0.0~0.0~0.0~157.5~250.0~246.0*
%ADD86D86*%
G04~CAMADD=87~8~0.0~0.0~204.7~196.8~24.6~0.0~15~0.0~0.0~0.0~0.0~0~0.0~0.0~0.0~0.0~0~0.0~0.0~0.0~202.0~250.0~244.0*
%ADD87D87*%
G04~CAMADD=88~8~0.0~0.0~374.0~255.9~32.0~0.0~15~0.0~0.0~0.0~0.0~0~0.0~0.0~0.0~0.0~0~0.0~0.0~0.0~174.2~392.0~287.0*
%ADD88D88*%
G04~CAMADD=89~9~0.0~0.0~393.7~413.4~0.0~0.0~0~0.0~0.0~0.0~0.0~0~0.0~0.0~0.0~0.0~0~0.0~0.0~0.0~44.9~568.0~567.0*
%ADD89D89*%
G04~CAMADD=90~8~0.0~0.0~216.5~196.8~24.6~0.0~15~0.0~0.0~0.0~0.0~0~0.0~0.0~0.0~0.0~0~0.0~0.0~0.0~213.0~269.0~264.0*
%ADD90D90*%
G04~CAMADD=91~9~0.0~0.0~393.7~413.4~0.0~0.0~0~0.0~0.0~0.0~0.0~0~0.0~0.0~0.0~0.0~0~0.0~0.0~0.0~100.6~478.0~461.0*
%ADD91D91*%
G04~CAMADD=92~8~0.0~0.0~204.7~196.8~24.6~0.0~15~0.0~0.0~0.0~0.0~0~0.0~0.0~0.0~0.0~0~0.0~0.0~0.0~157.8~250.0~245.0*
%ADD92D92*%
G04~CAMADD=93~8~0.0~0.0~204.7~196.8~24.6~0.0~15~0.0~0.0~0.0~0.0~0~0.0~0.0~0.0~0.0~0~0.0~0.0~0.0~76.7~229.0~234.0*
%ADD93D93*%
G04~CAMADD=240~9~0.0~0.0~232.3~315.0~0.0~0.0~0~0.0~0.0~0.0~0.0~0~0.0~0.0~0.0~0.0~0~0.0~0.0~0.0~190.0~284.0~349.0*
%ADD240D240*%
G04~CAMADD=241~10~0.0~110.2~0.0~0.0~0.0~0.0~0~0.0~0.0~0.0~0.0~0~0.0~0.0~0.0~0.0~0~0.0~0.0~0.0~280.0~110.2~0.0*
%ADD241D241*%
%LNflagmate_paste_top-1*%
%LPD*%
%SRX1Y1I0J0*%
G36*
X00357274Y00344411D02*
X00337362Y00322874D01*
X00292557Y00364302*
X00312467Y00385836*
X00357274Y00344411*
G37*
G36*
X0033282Y00317959D02*
X00314912Y00298591D01*
X00270104Y00340017*
X00288012Y00359387*
X0033282Y00317959*
G37*
G36*
X00310368Y00293675D02*
X00290457Y00272141D01*
X00245652Y00313566*
X00265562Y00335104*
X00310368Y00293675*
G37*
G36*
X-00373752Y-00483472D02*
X-00373416Y-00483673D01*
X-00373414Y-00483672*
X-00356502Y-00493743*
X-00356165Y-00493943*
X-00355697Y-00494571*
X-00355505Y-0049533*
X-00355617Y-00496105*
X-00355818Y-00496442*
X-00355817*
X-00368911Y-0051843*
X-00369111Y-00518766*
X-00369738Y-00519235*
X-00370498Y-00519427*
X-00371272Y-00519314*
X-00371609Y-00519114*
X-00371611Y-00519113*
X-00388524Y-00509044*
X-0038886Y-00508844*
X-00389329Y-00508216*
X-00389521Y-00507457*
X-00389408Y-00506682*
X-00389208Y-00506346*
X-00389205Y-00506344*
X-00386183Y-00501269*
X-00385983Y-00500933*
X-00385355Y-00500464*
X-00384596Y-00500272*
X-00383821Y-00500385*
X-00383485Y-00500585*
X-00383486Y-00500584*
X-0037334Y-0050663*
X-00368302Y-00498171*
X-00378451Y-00492127*
X-00378787Y-00491927*
X-00379256Y-00491299*
X-00379448Y-0049054*
X-00379335Y-00489765*
X-00379135Y-00489429*
X-00376114Y-00484357*
X-00375914Y-0048402*
X-00375286Y-00483552*
X-00374527Y-0048336*
X-00373752Y-00483472*
G37*
G36*
X-003263Y-00486504D02*
X-00325963Y-00486704D01*
X-00325961Y-00486707*
X-00320889Y-00489726*
X-00320553Y-00489926*
X-00320085Y-00490554*
X-00319892Y-00491313*
X-00320005Y-00492088*
X-00320205Y-00492424*
X-00320202*
X-00329773Y-00508494*
X-00329973Y-0050883*
X-00330601Y-00509299*
X-0033136Y-00509491*
X-00332135Y-00509378*
X-00332471Y-00509178*
X-0033247*
X-00337545Y-00506157*
X-00337881Y-00505956*
X-0033835Y-00505329*
X-00338542Y-0050457*
X-00338429Y-00503795*
X-00338229Y-00503458*
X-0033823*
X-00328662Y-00487388*
X-00328462Y-00487052*
X-00327834Y-00486584*
X-00327075Y-00486391*
X-003263Y-00486504*
G37*
G36*
X-0034191Y-00512721D02*
X-00341574Y-00512921D01*
X-00336498Y-00515942*
X-00336162Y-00516143*
X-00335693Y-0051677*
X-00335501Y-00517529*
X-00335614Y-00518304*
X-00335814Y-00518641*
X-00335817Y-0051864*
X-00345385Y-0053471*
X-00345586Y-00535047*
X-00346214Y-00535515*
X-00346973Y-00535707*
X-00347748Y-00535595*
X-00348084Y-00535394*
Y-00535391*
X-00353156Y-0053237*
X-00353492Y-0053217*
X-0035396Y-00531542*
X-00354153Y-00530783*
X-0035404Y-00530008*
X-0035384Y-00529672*
X-00353842*
X-00344272Y-00513606*
X-00344072Y-00513269*
X-00343444Y-00512801*
X-00342685Y-00512608*
X-0034191Y-00512721*
G37*
G36*
X-00310001Y-0049761D02*
X-00309665Y-0049781D01*
X-00309663*
X-0030459Y-00500831*
X-00304253Y-00501031*
X-00303785Y-00501659*
X-00303593Y-00502418*
X-00303705Y-00503193*
X-00303906Y-00503529*
X-00303905*
X-00316395Y-00524502*
X-00316595Y-00524838*
X-00317223Y-00525306*
X-00317982Y-00525499*
X-00318757Y-00525386*
X-00319094Y-00525186*
X-00319093Y-00525185*
X-00324168Y-00522163*
X-00324505Y-00521963*
X-00324973Y-00521335*
X-00325165Y-00520576*
X-00325053Y-00519801*
X-00324852Y-00519464*
X-00324853Y-00519466*
X-00312363Y-00498494*
X-00312163Y-00498158*
X-00311535Y-00497689*
X-00310776Y-00497497*
X-00310001Y-0049761*
G37*
G36*
X-00292472Y-00506649D02*
X-00292135Y-0050685D01*
X-00287063Y-00509871*
X-00286727Y-00510072*
X-00286258Y-005107*
X-00286066Y-00511459*
X-00286179Y-00512234*
X-00286379Y-0051257*
X-00286376*
X-00295946Y-00528638*
X-00296147Y-00528974*
X-00296774Y-00529442*
X-00297534Y-00529635*
X-00298308Y-00529522*
X-00298645Y-00529322*
X-00298644Y-0052932*
X-00303719Y-00526301*
X-00304056Y-005261*
X-00304524Y-00525472*
X-00304716Y-00524713*
X-00304604Y-00523938*
X-00304404Y-00523602*
X-00304403Y-00523601*
X-00294834Y-00507534*
X-00294633Y-00507197*
X-00294006Y-00506729*
X-00293247Y-00506537*
X-00292472Y-00506649*
G37*
G36*
X-00328532Y-0052873D02*
X-00328195Y-0052893D01*
X-00323122Y-00531952*
X-00322785Y-00532153*
X-00322317Y-0053278*
X-00322124Y-00533539*
X-00322237Y-00534314*
X-00322437Y-00534651*
X-00322438Y-00534648*
X-00334927Y-00555622*
X-00335128Y-00555958*
X-00335755Y-00556426*
X-00336515Y-00556619*
X-00337289Y-00556506*
X-00337626Y-00556306*
X-00337625*
X-00342701Y-00553286*
X-00343037Y-00553086*
X-00343506Y-00552458*
X-00343698Y-00551699*
X-00343585Y-00550924*
X-00343385Y-00550588*
X-00343383Y-00550585*
X-00330894Y-00529614*
X-00330693Y-00529278*
X-00330066Y-00528809*
X-00329307Y-00528617*
X-00328532Y-0052873*
G37*
G36*
X-00308084Y-00532864D02*
X-00307747Y-00533065D01*
X-00307746*
X-00302673Y-00536086*
X-00302336Y-00536286*
X-00301868Y-00536914*
X-00301676Y-00537673*
X-00301788Y-00538448*
X-00301989Y-00538784*
Y-00538785*
X-00311558Y-00554854*
X-00311758Y-0055519*
X-00312386Y-00555658*
X-00313145Y-00555851*
X-0031392Y-00555738*
X-00314257Y-00555538*
X-00314255Y-00555535*
X-0031933Y-00552516*
X-00319666Y-00552315*
X-00320135Y-00551688*
X-00320327Y-00550929*
X-00320214Y-00550154*
X-00320014Y-00549817*
Y-00549816*
X-00310446Y-00533749*
X-00310245Y-00533412*
X-00309618Y-00532944*
X-00308859Y-00532752*
X-00308084Y-00532864*
G37*
G36*
X-00279036Y-00539874D02*
X-00278699Y-00540074D01*
X-00261788Y-00550146*
X-00261786Y-00550148*
X-0026145Y-00550348*
X-00260982Y-00550976*
X-00260789Y-00551735*
X-00260902Y-0055251*
X-00261102Y-00552847*
X-00264126Y-00557919*
X-00264125Y-0055792*
X-00264326Y-00558257*
X-00264954Y-00558725*
X-00265713Y-00558917*
X-00266488Y-00558805*
X-00266824Y-00558604*
X-0027697Y-0055256*
X-00282006Y-00561018*
X-00271859Y-0056706*
X-00271861Y-00567062*
X-00271525Y-00567262*
X-00271056Y-0056789*
X-00270864Y-00568649*
X-00270976Y-00569424*
X-00271177Y-0056976*
X-00274197Y-00574834*
X-00274397Y-0057517*
X-00275025Y-00575639*
X-00275784Y-00575831*
X-00276559Y-00575718*
X-00276896Y-00575518*
X-0029381Y-00565445*
Y-00565446*
X-00294147Y-00565245*
X-00294615Y-00564618*
X-00294807Y-00563859*
X-00294695Y-00563084*
X-00294494Y-00562747*
X-002814Y-0054076*
X-00281398Y-00540759*
X-00281197Y-00540422*
X-0028057Y-00539954*
X-00279811Y-00539761*
X-00279036Y-00539874*
G37*
G54D24*
X00208699Y00354769D03*
X00177414Y00371404D03*
G54D25*
X00289754Y00202511D03*
X00318419Y00223336D03*
G54D26*
X-00411447Y-00298812D03*
X-00439997Y-00319798D03*
G54D27*
X-00433571Y-00265692D03*
X-00463783Y-00284207D03*
G54D28*
X-00280383Y00041952D03*
X-00315441Y00047093D03*
G54D29*
X-00283405Y00007418D03*
X-00318828Y00008351D03*
G54D30*
X00174593Y00539032D03*
X00165407Y00510968D03*
G54D31*
X00204353Y00496358D03*
X00215647Y00523639D03*
G54D32*
X-00384268Y-00571146D03*
X-00333526Y-00601363D03*
X-00350441Y-00591291D03*
X-00367352Y-00581216D03*
G54D33*
X-00450382Y-00434928D03*
X-00529679Y-00511506D03*
G54D34*
X-00423087Y-00495372D03*
X-00442264Y-00517824D03*
G54D36*
X-00638386Y-00325231D03*
X-00664662Y-00338703D03*
G54D37*
X-00506528Y-00368014D03*
X-00595711Y-0043281D03*
G54D38*
X-00392089Y-00090523D03*
X-00292348Y-00067494D03*
X-00300766Y-00031053D03*
X-00283936Y-00103938D03*
X-00383674Y-00126962D03*
X-00400502Y-00054077D03*
G54D39*
X00357565Y00151931D03*
X00390292Y00165514D03*
G54D41*
X00297695Y00393783D03*
X00305229Y00264194D03*
X00236572Y0032767D03*
X00366355Y00330307D03*
G54D42*
X00253771Y00346274D03*
X00349153Y00311704D03*
X00322428Y00282796D03*
X00280497Y0037518D03*
X00335791Y0029725D03*
X00267134Y00360725D03*
G54D44*
X-00413266Y00421373D03*
X-00505795Y00210279D03*
X-00535913Y00242921D03*
X-00383149Y00388735D03*
X-003943Y00372511D03*
X-00405448Y00356288D03*
X-00416598Y00340065D03*
X-00427753Y00323841D03*
X-00438897Y00307615D03*
X-0045005Y00291395D03*
X-00461199Y00275172D03*
X-00472347Y00258949D03*
X-00483497Y00242727D03*
X-00494649Y00226502D03*
X-0052476Y00259146D03*
X-00513613Y00275366D03*
X-00502462Y0029159D03*
X-00491314Y00307815D03*
X-00480163Y00324037D03*
X-00469014Y00340259D03*
X-00457863Y00356482D03*
X-00446716Y00372707D03*
X-00435565Y00388927D03*
X-00424416Y00405151D03*
G54D45*
X00299298Y0049008D03*
X00280701Y00459918D03*
G54D46*
X00258123Y00515745D03*
X00241877Y00484255D03*
G54D47*
X00238655Y00397342D03*
X00257039Y00427632D03*
G54D48*
X00206787Y0041482D03*
X00222652Y00446501D03*
G54D49*
X00042449Y00371084D03*
X00046125Y00406327D03*
G54D50*
X00130062Y00356507D03*
X0014097Y00388145D03*
G54D51*
X00341442Y00185346D03*
X00372546Y00202317D03*
G54D52*
X-00066586Y00338597D03*
X-00088005Y00452747D03*
G54D53*
X00644075Y00196913D03*
X0067796Y00207274D03*
G54D54*
X00591889Y00321369D03*
X00623027Y00338276D03*
G54D55*
X00607895Y0028995D03*
X00639876Y00305206D03*
G54D56*
X00535738Y00396425D03*
X00559471Y00413987D03*
G54D58*
X0044762Y00447793D03*
X00529915Y0052974D03*
G54D59*
X-00362843Y-00193011D03*
X-00336842Y-00179018D03*
G54D60*
X-00038063Y-00622341D03*
X-00040228Y-00657708D03*
G54D61*
X00662577Y-00344336D03*
X00636378Y-00390578D03*
G54D62*
X-00338111Y-00659851D03*
X-0036925Y-00642945D03*
G54D63*
X-00283562Y-00684581D03*
X-00272264Y-00657302D03*
G54D64*
X-00210553Y-0071081D03*
X-00179242Y-00605113D03*
G54D65*
X-0012443Y-00671361D03*
X-00114744Y-00619103D03*
G54D66*
X-00310078Y00589848D03*
X-00335902Y00575533D03*
G54D67*
X-00370064Y00283961D03*
X-00393492Y00301937D03*
G54D68*
X-00292906Y-00583166D03*
X-00397691Y-00543675D03*
X-0038762Y-00526763D03*
X-00302979Y-0060008D03*
G54D70*
X0006218Y-00412723D03*
X00404207Y00104026D03*
X0039836Y-00635235D03*
X00740385Y-00118488D03*
G54D71*
X00131779Y-00458789D03*
X00148192Y-00469655D03*
X00164608Y-0048052D03*
X00181026Y-00491385D03*
X0019744Y-00502249D03*
X00230272Y-00523978D03*
X00279515Y-00556571D03*
X00328761Y-00589165D03*
X00670788Y-00072421D03*
X00605128Y-00028962D03*
X00572298Y-00007229D03*
X00555883Y00003631D03*
X00523052Y00025362D03*
X00506636Y00036228D03*
X00473805Y00057957D03*
X00457394Y00068823D03*
X00424563Y00090554D03*
X00440977Y00079689D03*
X00539467Y000145D03*
X00588711Y-00018097D03*
X00621545Y-00039826D03*
X00637959Y-0005069D03*
X00654371Y-00061557D03*
X00687205Y-00083287D03*
X00703619Y-00094151D03*
X00720032Y-00105015D03*
X00378005Y-00621763D03*
X00361591Y-00610895D03*
X00345175Y-00600029D03*
X00312347Y-00578302D03*
X00295933Y-00567436D03*
X00263097Y-00545709D03*
X00246687Y-00534842D03*
X00213857Y-00513115D03*
X00115364Y-00447922D03*
X00098949Y-00437062D03*
X00082535Y-00426192D03*
X00490222Y00047093D03*
G54D72*
X00466158Y-00532805D03*
X00509616Y-00467144D03*
X00563941Y-00385071D03*
X00618267Y-00302991D03*
X00650862Y-00253749D03*
X00683456Y-00204504D03*
X0071605Y-00155258D03*
X00379871Y00067255D03*
X00369003Y0005084D03*
X00358143Y00034424D03*
X00347276Y00018012D03*
X00336413Y00001596D03*
X00325543Y-00014821D03*
X0031468Y-00031236D03*
X00303815Y-00047649D03*
X00292951Y-00064065D03*
X00260354Y-00113308D03*
X0020603Y-00195386D03*
X0016257Y-00261047D03*
X00119113Y-0032671D03*
X00075654Y-00392368D03*
X00086519Y-00375952D03*
X0009738Y-00359539D03*
X00108246Y-00343123D03*
X00129975Y-0031029D03*
X00140839Y-00293875D03*
X00151704Y-00277459D03*
X00173436Y-0024463D03*
X00184299Y-00228216D03*
X00195167Y-00211799D03*
X00216896Y-0017897D03*
X00227762Y-00162554D03*
X00238627Y-0014614D03*
X00249491Y-00129727D03*
X0027122Y-00096893D03*
X00282087Y-0008048D03*
X00390734Y0008367D03*
X00726915Y-00138843D03*
X00661727Y-00237333D03*
X00629131Y-00286579D03*
X006074Y-00319407D03*
X00596537Y-00335824D03*
X00585671Y-00352236D03*
X00574805Y-00368655D03*
X00553076Y-00401484D03*
X00542212Y-004179D03*
X00531346Y-00434313D03*
X00520481Y-00450732D03*
X00498751Y-0048356D03*
X00487884Y-00499976D03*
X00477023Y-00516389D03*
X00455294Y-00549219D03*
X00444427Y-00565634D03*
X00433563Y-00582048D03*
X00422696Y-00598466D03*
X0041183Y-00614879D03*
X00705184Y-0017167D03*
X0067259Y-00220919D03*
X00639996Y-00270164D03*
X00694319Y-00188087D03*
G54D73*
X00165849Y-00393048D03*
X00209309Y-00327388D03*
X00252768Y-00261729D03*
X00296228Y-00196068D03*
X00339687Y-00130409D03*
X00383147Y-0006475D03*
X00426606Y0000091D03*
X00218377Y-00427817D03*
X00261836Y-00362159D03*
X00305295Y-00296497D03*
X00348757Y-00230838D03*
X00392216Y-00165177D03*
X00435675Y-00099517D03*
X00479136Y-00033856D03*
X00270906Y-00462585D03*
X00314366Y-00396922D03*
X00357827Y-00331266D03*
X00401283Y-00265604D03*
X00444745Y-00199944D03*
X00488203Y-00134282D03*
X00531663Y-00068623D03*
X00323433Y-00497352D03*
X0036689Y-00431693D03*
X00410352Y-00366033D03*
X00453811Y-00300372D03*
X00497271Y-0023471D03*
X00540732Y-00169054D03*
X00584189Y-00103392D03*
X0037596Y-00532123D03*
X00419421Y-00466459D03*
X00462883Y-00400799D03*
X00506341Y-0033514D03*
X005498Y-00269477D03*
X00593257Y-00203821D03*
X00636721Y-00138159D03*
G54D74*
X00133524Y-00359853D03*
X00144392Y-00343439D03*
X00155253Y-00327022D03*
X00166119Y-00310607D03*
X00220446Y-00228532D03*
X00231311Y-00212118D03*
X00242175Y-00195701D03*
X00253039Y-00179288D03*
X00329093Y-00064384D03*
X00339961Y-00047967D03*
X00350825Y-00031549D03*
X00361688Y-00015136D03*
X00647311Y-00204186D03*
X00636447Y-00220602D03*
X00625582Y-00237015D03*
X00614716Y-00253433D03*
X00538665Y-00368338D03*
X00527797Y-00384753D03*
X00516933Y-00401168D03*
X00506068Y-00417584D03*
X00451741Y-00499655D03*
X00440879Y-00516071D03*
X00430014Y-00532488D03*
X0041915Y-00548903D03*
G54D75*
X00071004Y-00287915D03*
X0004204Y-00293645D03*
G54D76*
X-00000001Y-00626458D03*
X0Y-00655986D03*
G54D77*
X00422552Y00179495D03*
X00454176Y00192654D03*
G54D78*
X00343655Y00240566D03*
X00371008Y00259846D03*
G54D79*
X0040352Y00218955D03*
X00433503Y00235513D03*
G54D80*
X00472157Y0015382D03*
X00481838Y00119734D03*
G54D81*
X00410277Y00270888D03*
X00389542Y0029962D03*
G54D82*
X-00437241Y-00598704D03*
X-00413053Y-00615641D03*
G54D84*
X-00112791Y-00406143D03*
X-00305648Y-00290256D03*
G54D86*
X-00241649Y-0058339D03*
X-00252948Y-00610669D03*
G54D87*
X00653902Y00280117D03*
X00664964Y00252738D03*
G54D88*
X-00660295Y00042678D03*
X-00654903Y00095554D03*
G54D89*
X00531134Y00446224D03*
G54D90*
X00601937Y00369777D03*
X00582638Y00399493D03*
G54D91*
X-00018286Y00406746D03*
G54D92*
X00185842Y00459853D03*
X00174696Y00432508D03*
G54D93*
X00110366Y0039646D03*
X00081629Y00403258D03*
G54D240*
X00652358Y00153006D03*
X00725636Y00165927D03*
X00665346Y00079339D03*
X00738625Y00092262D03*
G54D241*
X00687218Y00169547D03*
X00703764Y00075725D03*
M02*