%FSTAX26Y26*%
%MOIN*%
%SFA1B1*%

%IPPOS*%
%AMD246*
4,1,4,0.033100,-0.010800,-0.022000,0.027000,-0.033100,0.010800,0.022000,-0.027000,0.033100,-0.010800,0.0*
1,1,0.019685,-0.027500,0.018900*
1,1,0.019685,0.027500,-0.018900*
%
%AMD247*
4,1,4,0.000100,-0.015500,0.014400,0.005500,-0.000100,0.015500,-0.014400,-0.005500,0.000100,-0.015500,0.0*
1,1,0.017716,0.007200,0.010500*
1,1,0.017716,-0.007200,-0.010500*
%
%ADD245C,0.027559*%
G04~CAMADD=246~3~0.0~0.0~866.1~196.8~0.0~0.0~0~0.0~0.0~0.0~0.0~0~0.0~0.0~0.0~0.0~0~0.0~0.0~0.0~325.5~746.0~574.0*
%ADD246D246*%
G04~CAMADD=247~3~0.0~0.0~433.1~177.2~0.0~0.0~0~0.0~0.0~0.0~0.0~0~0.0~0.0~0.0~0.0~0~0.0~0.0~0.0~235.5~320.0~386.0*
%ADD247D247*%
%ADD248C,0.008000*%
%ADD249C,0.012000*%
%LNflagmate_pth_drill-1*%
%LPD*%
%SRX1Y1I0J0*%
G54D245*
X-0048168Y-00156454D03*
X-0049981Y-00079829D03*
G54D246*
X-00671794Y0022524D03*
X-0045103Y00546456D03*
G54D247*
X-00538434Y00161055D03*
X-00343316Y00444959D03*
G54D248*
X-00466446Y-00607884D03*
X-00442095Y-0057615D03*
X0002911Y-00555459D03*
X-00461421Y-00580086D03*
X-00482199Y-00595466D03*
X-00523969Y-00284492D03*
X-00479276Y-00354646D03*
X-00395068Y-00446543D03*
X-00425255Y-00417897D03*
X-0045337Y-00387215D03*
X-00502848Y-00320349D03*
X00301055Y00180892D03*
X00216683Y00550082D03*
X00198591Y-00258808D03*
X-005418Y-005418D03*
X-00527432Y-00555797D03*
X-00512702Y-00569413D03*
X-00497621Y-00582639D03*
X-00450373Y-00619886D03*
X-00433992Y-00631463D03*
X-00417314Y-00642607D03*
X-00400349Y-00653311D03*
X-00383111Y-00663567D03*
X-00040101Y-00765171D03*
X-00060117Y-00763859D03*
X-00080092Y-00762024D03*
X-00100012Y-00759666D03*
X-00119863Y-00756788D03*
X-00139633Y-00753391D03*
X-00159306Y-00749477D03*
X-00274589Y-00715329D03*
X-00365609Y-00673368D03*
X-00347857Y-00682708D03*
X-00417102Y-00563681D03*
X-0043652Y-00548781D03*
X-00325601Y-00575497D03*
X-00345487Y-00563784D03*
X-00673368Y-00365609D03*
X-00663567Y-00383111D03*
X-00653311Y-00400349D03*
X-00642607Y-00417314D03*
X-00631463Y-00433992D03*
X-00619886Y-00450373D03*
X-00607884Y-00466446D03*
X-00595466Y-00482199D03*
X-00582639Y-00497621D03*
X-00569413Y-00512702D03*
X-00555797Y-00527432D03*
X-00329867Y-0069158D03*
X-0029322Y-00707896D03*
X-0031165Y-00699978D03*
X-00105125Y-00703409D03*
X-0012961Y-00699312D03*
X-00153936Y-00694362D03*
X-00178871Y-0074505D03*
X-00198313Y-00740113D03*
X-00217619Y-00734668D03*
X-00236775Y-0072872D03*
X-0025577Y-00722272D03*
X-00325Y-0062D03*
X-00285D03*
X-00386515Y00260707D03*
X00104021Y00245058D03*
X00167538Y00206893D03*
X0020603Y-00195386D03*
X00170564Y-00659523D03*
X-00305387Y00202131D03*
X00135116Y00229381D03*
X00191127Y00183297D03*
X00235059Y00124983D03*
X0014407Y00443402D03*
X-00215458Y-00561288D03*
X-00234916Y-00553427D03*
X-00195738Y-00568466D03*
X00567808Y-00476448D03*
X00552807Y-00223348D03*
X00667786Y-00182349D03*
X00341168Y-001701D03*
X00673505Y-00155491D03*
X00723178Y-00221098D03*
X00662711Y-00309027D03*
X-00275161Y00305597D03*
X00259373Y00059873D03*
X-00208616Y00244258D03*
X00297344Y-00118622D03*
X00191259Y00278024D03*
X00310255Y-00100808D03*
X00266679Y-00049426D03*
X-00274675Y00234594D03*
X-00239651Y00190627D03*
X0026536Y-00162613D03*
X-005512Y0000481D03*
X-00551625Y00058423D03*
X00114623Y-0024581D03*
X-00170756Y-00576463D03*
X-00150534Y-00582071D03*
X-00493937Y00047561D03*
X-00608407Y-00058583D03*
X0024273Y-00571837D03*
X00218516Y-00554735D03*
X00712845Y-00252432D03*
X00404298Y-00566804D03*
X00599644Y-00402531D03*
X00530954Y-00312756D03*
X00581442Y-00308077D03*
X00560523Y-00319361D03*
X00632071Y-00357608D03*
X00335874Y00102687D03*
X00237281Y00258947D03*
X00058538Y-00315842D03*
X00061518Y-00356184D03*
X00210861Y-00668766D03*
X00397205Y-00601685D03*
X00346523Y-00638215D03*
X00311538Y-00611427D03*
X-00046123Y-00479006D03*
X-00071129Y-00475935D03*
X00097165Y-00404721D03*
X00532515Y-00479726D03*
X00552654Y-00455573D03*
X00028624Y-00655596D03*
X00387753Y00210532D03*
X-00088866Y-00594617D03*
X-00109564Y-00591154D03*
X-00130128Y-0058697D03*
G54D249*
X00336237Y00344506D03*
X00319265Y00326149D03*
X00302293Y00307791D03*
X00285322Y00289435D03*
X00263293Y00309801D03*
X00280265Y00328158D03*
X00297237Y00346515D03*
X00314209Y00364871D03*
M02*