%FSTAX26Y26*%
%MOIN*%
%SFA1B1*%

%IPPOS*%
%ADD250C,0.010000*%
%ADD251C,0.003333*%
%ADD252C,0.015000*%
%ADD253C,0.016000*%
%ADD254C,0.014000*%
%LNflagmate_drawing_1-1*%
%LPD*%
%SRX1Y1I0J0*%
G54D250*
X00330059Y03866648D02*
D01*
D01*
G75*
G03X00263393I-00033333J0D01*
G74*G01*
D01*
G75*
G03X00330059I00033333J0D01*
G74*G01*
X00263393Y03983315D02*
X00330059D01*
Y04049981*
X00263393D02*
X00330059D01*
X00263393Y03983315D02*
Y04049981D01*
X00280059Y03699981D02*
X00296726Y03683315D01*
X00263393Y03699981D02*
X00280059D01*
X00263393D02*
X00280059Y03716648D01*
X00263393Y03733315D02*
X00280059Y03716648D01*
X00263393Y03733315D02*
X00280059D01*
X00296726Y03749981*
X00313392Y03733315*
X00330059*
X00313392Y03716648D02*
X00330059Y03733315D01*
X00313392Y03716648D02*
X00330059Y03699981D01*
X00313392D02*
X00330059D01*
X00296726Y03683315D02*
X00313392Y03699981D01*
X00263393Y03533315D02*
X00296726Y03549981D01*
X00330059Y03533315*
X00313392Y03566648D02*
X00330059Y03533315D01*
X00313392Y03566648D02*
X00330059Y03599981D01*
X00296726Y03583315D02*
X00330059Y03599981D01*
X00263393D02*
X00296726Y03583315D01*
X00263393Y03599981D02*
X00280059Y03566648D01*
X00263393Y03533315D02*
X00280059Y03566648D01*
X00296726Y03383315D02*
X00330059Y03449981D01*
X00263393D02*
X00330059D01*
X00263393D02*
X00296726Y03383315D01*
X00263393Y03249981D02*
X00280059D01*
X00263393D02*
Y03283315D01*
X00280059*
Y03299981*
X00313392*
Y03283315D02*
Y03299981D01*
Y03283315D02*
X00330059D01*
Y03249981D02*
Y03283315D01*
X00313392Y03249981D02*
X00330059D01*
X00313392Y03233315D02*
Y03249981D01*
X00280059Y03233315D02*
X00313392D01*
X00280059D02*
Y03249981D01*
X06563876Y04023302D02*
Y03983315D01*
Y04003308*
X06573873Y04013305*
X06583869Y04023302*
X06593866*
X06623857Y03983315D02*
X0664385D01*
X06633853*
Y04043295*
X06623857Y04033298*
X0667384Y04043295D02*
X06713828D01*
Y04033298*
X0667384Y03993311*
Y03983315*
X06733821Y04033298D02*
X06743818Y04043295D01*
X06763811*
X06773808Y04033298*
Y03993311*
X06763811Y03983315*
X06743818*
X06733821Y03993311*
Y04033298*
X06793802Y03973318D02*
X06833789D01*
X06853782Y03983315D02*
X06873776D01*
X06863779*
Y04043295*
X06853782Y04033298*
X06903766D02*
X06913763Y04043295D01*
X06933756*
X06943753Y04033298*
Y03993311*
X06933756Y03983315*
X06913763*
X06903766Y03993311*
Y04033298*
X07003734Y04043295D02*
X06963747D01*
Y04013305*
X0698374Y04023302*
X06993737*
X07003734Y04013305*
Y03993311*
X06993737Y03983315*
X06973743*
X06963747Y03993311*
X07023727Y04043295D02*
Y03983315D01*
Y04013305*
X07033724Y04023302*
X07053717*
X07063714Y04013305*
Y03983315*
X07113698D02*
Y04043295D01*
X07083708Y04013305*
X07123695*
X07183676Y04043295D02*
X07143688D01*
Y04013305*
X07163682Y04023302*
X07173679*
X07183676Y04013305*
Y03993311*
X07173679Y03983315*
X07153685*
X07143688Y03993311*
X07203669Y03973318D02*
X07243656D01*
X0726365Y03983315D02*
X07283643D01*
X07273646*
Y04043295*
X0726365Y04033298*
X07313633Y03983315D02*
X07333627D01*
X0732363*
Y04043295*
X07313633Y04033298*
X07363617D02*
X07373614Y04043295D01*
X07393608*
X07403604Y04033298*
Y03993311*
X07393608Y03983315*
X07373614*
X07363617Y03993311*
Y04033298*
X07423598Y04023302D02*
Y03983315D01*
Y04003308*
X07433595Y04013305*
X07443591Y04023302*
X07453588*
X07523565Y04043295D02*
X07483578D01*
Y04013305*
X07503572Y04023302*
X07513569*
X07523565Y04013305*
Y03993311*
X07513569Y03983315*
X07493575*
X07483578Y03993311*
X07583546Y03983315D02*
X07543559D01*
X07583546Y04023302*
Y04033298*
X07573549Y04043295*
X07553556*
X07543559Y04033298*
X06563876Y03873302D02*
Y03833315D01*
Y03853308*
X06573873Y03863305*
X06583869Y03873302*
X06593866*
X06663844Y03833315D02*
X06623857D01*
X06663844Y03873302*
Y03883298*
X06653847Y03893295*
X06633853*
X06623857Y03883298*
X06683837D02*
X06693834Y03893295D01*
X06713828*
X06723824Y03883298*
Y03873302*
X06713828Y03863305*
X06723824Y03853308*
Y03843311*
X06713828Y03833315*
X06693834*
X06683837Y03843311*
Y03853308*
X06693834Y03863305*
X06683837Y03873302*
Y03883298*
X06693834Y03863305D02*
X06713828D01*
X06743818Y03883298D02*
X06753815Y03893295D01*
X06773808*
X06783805Y03883298*
Y03843311*
X06773808Y03833315*
X06753815*
X06743818Y03843311*
Y03883298*
X06803798Y03823318D02*
X06843785D01*
X06863779Y03833315D02*
X06883773D01*
X06873776*
Y03893295*
X06863779Y03883298*
X06913763Y03833315D02*
X06933756D01*
X0692376*
Y03893295*
X06913763Y03883298*
X06963747D02*
X06973743Y03893295D01*
X06993737*
X07003734Y03883298*
Y03843311*
X06993737Y03833315*
X06973743*
X06963747Y03843311*
Y03883298*
X07023727Y03893295D02*
Y03833315D01*
Y03863305*
X07033724Y03873302*
X07053717*
X07063714Y03863305*
Y03833315*
X07123695Y03893295D02*
X07083708D01*
Y03863305*
X07103701Y03873302*
X07113698*
X07123695Y03863305*
Y03843311*
X07113698Y03833315*
X07093705*
X07083708Y03843311*
X07143688Y03883298D02*
X07153685Y03893295D01*
X07173679*
X07183676Y03883298*
Y03843311*
X07173679Y03833315*
X07153685*
X07143688Y03843311*
Y03883298*
X07203669Y03823318D02*
X07243656D01*
X07303637Y03833315D02*
X0726365D01*
X07303637Y03873302*
Y03883298*
X0729364Y03893295*
X07273646*
X0726365Y03883298*
X07363617Y03833315D02*
X0732363D01*
X07363617Y03873302*
Y03883298*
X0735362Y03893295*
X07333627*
X0732363Y03883298*
X07383611D02*
X07393608Y03893295D01*
X07413601*
X07423598Y03883298*
Y03843311*
X07413601Y03833315*
X07393608*
X07383611Y03843311*
Y03883298*
X07443591Y03873302D02*
Y03833315D01*
Y03853308*
X07453588Y03863305*
X07463585Y03873302*
X07473582*
X07543559Y03893295D02*
X07503572D01*
Y03863305*
X07523565Y03873302*
X07533562*
X07543559Y03863305*
Y03843311*
X07533562Y03833315*
X07513569*
X07503572Y03843311*
X0760354Y03893295D02*
X07563553D01*
Y03863305*
X07583546Y03873302*
X07593543*
X0760354Y03863305*
Y03843311*
X07593543Y03833315*
X07573549*
X07563553Y03843311*
X06583869Y03683315D02*
X06563876Y03703308D01*
Y03723302*
X06583869Y03743295*
X0661386Y03683315D02*
Y03743295D01*
X06633853Y03723302*
X06653847Y03743295*
Y03683315*
X0667384D02*
X06693834D01*
X06683837*
Y03723302*
X0667384*
X06723824D02*
X06763811Y03683315D01*
X06743818Y03703308*
X06763811Y03723302*
X06723824Y03683315*
X06813795D02*
X06793802D01*
X06783805Y03693311*
Y03713305*
X06793802Y03723302*
X06813795*
X06823792Y03713305*
Y03703308*
X06783805*
X06883773Y03743295D02*
Y03683315D01*
X06853782*
X06843785Y03693311*
Y03713305*
X06853782Y03723302*
X06883773*
X06903766Y03683315D02*
X0692376Y03703308D01*
Y03723302*
X06903766Y03743295*
X06603863Y03573302D02*
X06573873D01*
X06563876Y03563305*
Y03543311*
X06573873Y03533315*
X06603863*
X06623857Y03583298D02*
X06633853Y03593295D01*
X06653847*
X06663844Y03583298*
Y03573302*
X06653847Y03563305*
X06663844Y03553308*
Y03543311*
X06653847Y03533315*
X06633853*
X06623857Y03543311*
Y03553308*
X06633853Y03563305*
X06623857Y03573302*
Y03583298*
X06633853Y03563305D02*
X06653847D01*
X06723824Y03593295D02*
X06683837D01*
Y03563305*
X06703831Y03573302*
X06713828*
X06723824Y03563305*
Y03543311*
X06713828Y03533315*
X06693834*
X06683837Y03543311*
X06743818Y03593295D02*
Y03533315D01*
Y03563305*
X06753815Y03573302*
X06773808*
X06783805Y03563305*
Y03533315*
X06803798D02*
Y03573302D01*
X06833789*
X06843785Y03563305*
Y03533315*
X06863779Y03543311D02*
X06873776Y03533315D01*
X06893769*
X06903766Y03543311*
Y03583298*
X06893769Y03593295*
X06873776*
X06863779Y03583298*
Y03573302*
X06873776Y03563305*
X06903766*
X0692376Y03583298D02*
X06933756Y03593295D01*
X0695375*
X06963747Y03583298*
Y03543311*
X0695375Y03533315*
X06933756*
X0692376Y03543311*
Y03583298*
X0698374Y03533315D02*
Y03573302D01*
X06993737*
X07003734Y03563305*
Y03533315*
Y03563305*
X0701373Y03573302*
X07023727Y03563305*
Y03533315*
X07043721Y03583298D02*
X07053718Y03593295D01*
X07073711*
X07083708Y03583298*
Y03573302*
X07073711Y03563305*
X07083708Y03553308*
Y03543311*
X07073711Y03533315*
X07053718*
X07043721Y03543311*
Y03553308*
X07053718Y03563305*
X07043721Y03573302*
Y03583298*
X07053718Y03563305D02*
X07073711D01*
X07143689Y03593295D02*
X07103701D01*
Y03563305*
X07123695Y03573302*
X07133692*
X07143689Y03563305*
Y03543311*
X07133692Y03533315*
X07113698*
X07103701Y03543311*
X06563876Y03423302D02*
X06583869Y03383315D01*
X06603863Y03423302*
X06663844Y03443295D02*
X0664385Y03433298D01*
X06623857Y03413305*
Y03393311*
X06633853Y03383315*
X06653847*
X06663844Y03393311*
Y03403308*
X06653847Y03413305*
X06623857*
X06683837Y03383315D02*
X06703831D01*
X06693834*
Y03443295*
X06683837Y03433298*
X06733821Y03443295D02*
Y03383315D01*
Y03413305*
X06743818Y03423302*
X06763811*
X06773808Y03413305*
Y03383315*
X06793802Y03433298D02*
X06803798Y03443295D01*
X06823792*
X06833789Y03433298*
Y03423302*
X06823792Y03413305*
X06813795*
X06823792*
X06833789Y03403308*
Y03393311*
X06823792Y03383315*
X06803798*
X06793802Y03393311*
X06853782Y03433298D02*
X06863779Y03443295D01*
X06883773*
X06893769Y03433298*
Y03393311*
X06883773Y03383315*
X06863779*
X06853782Y03393311*
Y03433298*
X06913763Y03383315D02*
Y03423302D01*
X0692376*
X06933756Y03413305*
Y03383315*
Y03413305*
X06943753Y03423302*
X0695375Y03413305*
Y03383315*
X06973743Y03433298D02*
X0698374Y03443295D01*
X07003734*
X0701373Y03433298*
Y03393311*
X07003734Y03383315*
X0698374*
X06973743Y03393311*
Y03433298*
X07033724Y03383315D02*
Y03423302D01*
X07043721*
X07053717Y03413305*
Y03383315*
Y03413305*
X07063714Y03423302*
X07073711Y03413305*
Y03383315*
X07093705Y03423302D02*
X07133692Y03383315D01*
X07113698Y03403308*
X07133692Y03423302*
X07093705Y03383315*
X07153685Y03433298D02*
X07163682Y03443295D01*
X07183676*
X07193672Y03433298*
Y03393311*
X07183676Y03383315*
X07163682*
X07153685Y03393311*
Y03433298*
X06583869Y03233315D02*
X06563876Y03253308D01*
Y03273302*
X06583869Y03293295*
X0661386Y03233315D02*
Y03293295D01*
X06633853Y03273302*
X06653847Y03293295*
Y03233315*
X0667384D02*
X06693834D01*
X06683837*
Y03273302*
X0667384*
X06723824D02*
X06763811Y03233315D01*
X06743818Y03253308*
X06763811Y03273302*
X06723824Y03233315*
X06813795D02*
X06793802D01*
X06783805Y03243311*
Y03263305*
X06793802Y03273302*
X06813795*
X06823792Y03263305*
Y03253308*
X06783805*
X06883773Y03293295D02*
Y03233315D01*
X06853782*
X06843785Y03243311*
Y03263305*
X06853782Y03273302*
X06883773*
X06903766Y03233315D02*
X0692376Y03253308D01*
Y03273302*
X06903766Y03293295*
X05818078Y03983315D02*
Y04043295D01*
X05848068*
X05858065Y04033298*
Y04013305*
X05848068Y04003308*
X05818078*
X05838071D02*
X05858065Y03983315D01*
X05888055D02*
X05908049D01*
X05918046Y03993311*
Y04013305*
X05908049Y04023302*
X05888055*
X05878059Y04013305*
Y03993311*
X05888055Y03983315*
X05938039Y04023302D02*
Y03993311D01*
X05948036Y03983315*
X05978026*
Y04023302*
X0599802Y03983315D02*
Y04023302D01*
X0602801*
X06038007Y04013305*
Y03983315*
X06097987Y04043295D02*
Y03983315D01*
X06067997*
X06058Y03993311*
Y04013305*
X06067997Y04023302*
X06097987*
X06147971Y03983315D02*
X06127978D01*
X06117981Y03993311*
Y04013305*
X06127978Y04023302*
X06147971*
X06157968Y04013305*
Y04003308*
X06117981*
X06217949Y04043295D02*
Y03983315D01*
X06187958*
X06177962Y03993311*
Y04013305*
X06187958Y04023302*
X06217949*
X05818078Y03833315D02*
Y03893295D01*
X05848068*
X05858065Y03883298*
Y03863305*
X05848068Y03853308*
X05818078*
X05838071D02*
X05858065Y03833315D01*
X05888055D02*
X05908049D01*
X05918046Y03843311*
Y03863305*
X05908049Y03873302*
X05888055*
X05878059Y03863305*
Y03843311*
X05888055Y03833315*
X05938039Y03873302D02*
Y03843311D01*
X05948036Y03833315*
X05978026*
Y03873302*
X0599802Y03833315D02*
Y03873302D01*
X0602801*
X06038007Y03863305*
Y03833315*
X06097987Y03893295D02*
Y03833315D01*
X06067997*
X06058Y03843311*
Y03863305*
X06067997Y03873302*
X06097987*
X06147971Y03833315D02*
X06127978D01*
X06117981Y03843311*
Y03863305*
X06127978Y03873302*
X06147971*
X06157968Y03863305*
Y03853308*
X06117981*
X06217949Y03893295D02*
Y03833315D01*
X06187958*
X06177962Y03843311*
Y03863305*
X06187958Y03873302*
X06217949*
X05838071Y03683315D02*
X05818078Y03703308D01*
Y03723302*
X05838071Y03743295*
X05868062Y03683315D02*
Y03743295D01*
X05888055Y03723302*
X05908049Y03743295*
Y03683315*
X05928042D02*
X05948036D01*
X05938039*
Y03723302*
X05928042*
X05978026D02*
X06018013Y03683315D01*
X0599802Y03703308*
X06018013Y03723302*
X05978026Y03683315*
X06067997D02*
X06048003D01*
X06038007Y03693311*
Y03713305*
X06048003Y03723302*
X06067997*
X06077994Y03713305*
Y03703308*
X06038007*
X06137974Y03743295D02*
Y03683315D01*
X06107984*
X06097987Y03693311*
Y03713305*
X06107984Y03723302*
X06137974*
X06157968Y03683315D02*
X06177961Y03703308D01*
Y03723302*
X06157968Y03743295*
X05818078Y03533315D02*
Y03593295D01*
X05848068*
X05858065Y03583298*
Y03563305*
X05848068Y03553308*
X05818078*
X05838071D02*
X05858065Y03533315D01*
X05888055D02*
X05908049D01*
X05918046Y03543311*
Y03563305*
X05908049Y03573302*
X05888055*
X05878059Y03563305*
Y03543311*
X05888055Y03533315*
X05938039Y03573302D02*
Y03543311D01*
X05948036Y03533315*
X05978026*
Y03573302*
X0599802Y03533315D02*
Y03573302D01*
X0602801*
X06038007Y03563305*
Y03533315*
X06097987Y03593295D02*
Y03533315D01*
X06067997*
X06058Y03543311*
Y03563305*
X06067997Y03573302*
X06097987*
X06147971Y03533315D02*
X06127978D01*
X06117981Y03543311*
Y03563305*
X06127978Y03573302*
X06147971*
X06157968Y03563305*
Y03553308*
X06117981*
X06217949Y03593295D02*
Y03533315D01*
X06187958*
X06177962Y03543311*
Y03563305*
X06187958Y03573302*
X06217949*
X05818078Y03383315D02*
Y03443295D01*
X05848068*
X05858065Y03433298*
Y03413305*
X05848068Y03403308*
X05818078*
X05838071D02*
X05858065Y03383315D01*
X05888055D02*
X05908049D01*
X05918046Y03393311*
Y03413305*
X05908049Y03423302*
X05888055*
X05878059Y03413305*
Y03393311*
X05888055Y03383315*
X05938039Y03423302D02*
Y03393311D01*
X05948036Y03383315*
X05978026*
Y03423302*
X0599802Y03383315D02*
Y03423302D01*
X0602801*
X06038007Y03413305*
Y03383315*
X06097987Y03443295D02*
Y03383315D01*
X06067997*
X06058Y03393311*
Y03413305*
X06067997Y03423302*
X06097987*
X06147971Y03383315D02*
X06127978D01*
X06117981Y03393311*
Y03413305*
X06127978Y03423302*
X06147971*
X06157968Y03413305*
Y03403308*
X06117981*
X06217949Y03443295D02*
Y03383315D01*
X06187958*
X06177962Y03393311*
Y03413305*
X06187958Y03423302*
X06217949*
X05818078Y03233315D02*
Y03293295D01*
X05848068*
X05858065Y03283298*
Y03263305*
X05848068Y03253308*
X05818078*
X05838071D02*
X05858065Y03233315D01*
X05888055D02*
X05908049D01*
X05918046Y03243311*
Y03263305*
X05908049Y03273302*
X05888055*
X05878059Y03263305*
Y03243311*
X05888055Y03233315*
X05938039Y03273302D02*
Y03243311D01*
X05948036Y03233315*
X05978026*
Y03273302*
X0599802Y03233315D02*
Y03273302D01*
X0602801*
X06038007Y03263305*
Y03233315*
X06097987Y03293295D02*
Y03233315D01*
X06067997*
X06058Y03243311*
Y03263305*
X06067997Y03273302*
X06097987*
X06147971Y03233315D02*
X06127978D01*
X06117981Y03243311*
Y03263305*
X06127978Y03273302*
X06147971*
X06157968Y03263305*
Y03253308*
X06117981*
X06217949Y03293295D02*
Y03233315D01*
X06187958*
X06177962Y03243311*
Y03263305*
X06187958Y03273302*
X06217949*
X05228229Y03983315D02*
Y04043295D01*
X0525822*
X05268216Y04033298*
Y04013305*
X0525822Y04003308*
X05228229*
X05298207Y04023302D02*
X053182D01*
X05328197Y04013305*
Y03983315*
X05298207*
X0528821Y03993311*
X05298207Y04003308*
X05328197*
X05388178Y04043295D02*
Y03983315D01*
X05358187*
X0534819Y03993311*
Y04013305*
X05358187Y04023302*
X05388178*
X05228229Y03833315D02*
Y03893295D01*
X0525822*
X05268216Y03883298*
Y03863305*
X0525822Y03853308*
X05228229*
X05298207Y03873302D02*
X053182D01*
X05328197Y03863305*
Y03833315*
X05298207*
X0528821Y03843311*
X05298207Y03853308*
X05328197*
X05388178Y03893295D02*
Y03833315D01*
X05358187*
X0534819Y03843311*
Y03863305*
X05358187Y03873302*
X05388178*
X05228229Y03683315D02*
Y03743295D01*
X0525822*
X05268216Y03733298*
Y03713305*
X0525822Y03703308*
X05228229*
X05298207Y03723302D02*
X053182D01*
X05328197Y03713305*
Y03683315*
X05298207*
X0528821Y03693311*
X05298207Y03703308*
X05328197*
X05388178Y03743295D02*
Y03683315D01*
X05358187*
X0534819Y03693311*
Y03713305*
X05358187Y03723302*
X05388178*
X05228229Y03533315D02*
Y03593295D01*
X0525822*
X05268216Y03583298*
Y03563305*
X0525822Y03553308*
X05228229*
X05298207Y03573302D02*
X053182D01*
X05328197Y03563305*
Y03533315*
X05298207*
X0528821Y03543311*
X05298207Y03553308*
X05328197*
X05388178Y03593295D02*
Y03533315D01*
X05358187*
X0534819Y03543311*
Y03563305*
X05358187Y03573302*
X05388178*
X05228229Y03443295D02*
Y03403308D01*
X05248223Y03383315*
X05268216Y03403308*
Y03443295*
X0528821Y03383315D02*
X05308203D01*
X05298207*
Y03423302*
X0528821*
X0534819D02*
X05368184D01*
X05378181Y03413305*
Y03383315*
X0534819*
X05338194Y03393311*
X0534819Y03403308*
X05378181*
X05228229Y03293295D02*
Y03253308D01*
X05248223Y03233315*
X05268216Y03253308*
Y03293295*
X0528821Y03233315D02*
X05308203D01*
X05298207*
Y03273302*
X0528821*
X0534819D02*
X05368184D01*
X05378181Y03263305*
Y03233315*
X0534819*
X05338194Y03243311*
X0534819Y03253308*
X05378181*
X03728679Y04043295D02*
X03768666D01*
X03748672*
Y03983315*
X03798656D02*
X0381865D01*
X03828646Y03993311*
Y04013305*
X0381865Y04023302*
X03798656*
X03788659Y04013305*
Y03993311*
X03798656Y03983315*
X0384864Y03963321D02*
Y04023302D01*
X0387863*
X03888627Y04013305*
Y03993311*
X0387863Y03983315*
X0384864*
X03968601Y04043295D02*
Y03983315D01*
X04008588*
X04038579Y04023302D02*
X04058572D01*
X04068569Y04013305*
Y03983315*
X04038579*
X04028582Y03993311*
X04038579Y04003308*
X04068569*
X04088562Y04023302D02*
Y03993311D01*
X04098559Y03983315*
X0412855*
Y03973318*
X04118553Y03963321*
X04108556*
X0412855Y03983315D02*
Y04023302D01*
X04178533Y03983315D02*
X0415854D01*
X04148543Y03993311*
Y04013305*
X0415854Y04023302*
X04178533*
X0418853Y04013305*
Y04003308*
X04148543*
X04208524Y04023302D02*
Y03983315D01*
Y04003308*
X0421852Y04013305*
X04228517Y04023302*
X04238514*
X04328485Y04013305D02*
X04368472D01*
X04448446Y04043295D02*
Y03983315D01*
X04478436*
X04488433Y03993311*
Y04003308*
X04478436Y04013305*
X04448446*
X04478436*
X04488433Y04023302*
Y04033298*
X04478436Y04043295*
X04448446*
X04518423Y03983315D02*
X04538417D01*
X04548414Y03993311*
Y04013305*
X04538417Y04023302*
X04518423*
X04508427Y04013305*
Y03993311*
X04518423Y03983315*
X04578404Y04033298D02*
Y04023302D01*
X04568407*
X04588401*
X04578404*
Y03993311*
X04588401Y03983315*
X04628388Y04033298D02*
Y04023302D01*
X04618391*
X04638385*
X04628388*
Y03993311*
X04638385Y03983315*
X04678372D02*
X04698365D01*
X04708362Y03993311*
Y04013305*
X04698365Y04023302*
X04678372*
X04668375Y04013305*
Y03993311*
X04678372Y03983315*
X04728355D02*
Y04023302D01*
X04738352*
X04748349Y04013305*
Y03983315*
Y04013305*
X04758346Y04023302*
X04768342Y04013305*
Y03983315*
X04848317Y04043295D02*
Y03983315D01*
X04888304*
X04918294Y04023302D02*
X04938288D01*
X04948284Y04013305*
Y03983315*
X04918294*
X04908297Y03993311*
X04918294Y04003308*
X04948284*
X04968278Y04023302D02*
Y03993311D01*
X04978275Y03983315*
X05008265*
Y03973318*
X04998268Y03963321*
X04988271*
X05008265Y03983315D02*
Y04023302D01*
X05058249Y03983315D02*
X05038255D01*
X05028258Y03993311*
Y04013305*
X05038255Y04023302*
X05058249*
X05068245Y04013305*
Y04003308*
X05028258*
X05088239Y04023302D02*
Y03983315D01*
Y04003308*
X05098236Y04013305*
X05108233Y04023302*
X05118229*
X03728679Y03893295D02*
X03768666D01*
X03748672*
Y03833315*
X03798656D02*
X0381865D01*
X03828646Y03843311*
Y03863305*
X0381865Y03873302*
X03798656*
X03788659Y03863305*
Y03843311*
X03798656Y03833315*
X0384864Y03813321D02*
Y03873302D01*
X0387863*
X03888627Y03863305*
Y03843311*
X0387863Y03833315*
X0384864*
X03968601Y03893295D02*
Y03833315D01*
X04008588*
X04038579Y03873302D02*
X04058572D01*
X04068569Y03863305*
Y03833315*
X04038579*
X04028582Y03843311*
X04038579Y03853308*
X04068569*
X04088562Y03873302D02*
Y03843311D01*
X04098559Y03833315*
X0412855*
Y03823318*
X04118553Y03813321*
X04108556*
X0412855Y03833315D02*
Y03873302D01*
X04178533Y03833315D02*
X0415854D01*
X04148543Y03843311*
Y03863305*
X0415854Y03873302*
X04178533*
X0418853Y03863305*
Y03853308*
X04148543*
X04208524Y03873302D02*
Y03833315D01*
Y03853308*
X0421852Y03863305*
X04228517Y03873302*
X04238514*
X04328485Y03863305D02*
X04368472D01*
X04448446Y03893295D02*
Y03833315D01*
X04478436*
X04488433Y03843311*
Y03853308*
X04478436Y03863305*
X04448446*
X04478436*
X04488433Y03873302*
Y03883298*
X04478436Y03893295*
X04448446*
X04518423Y03833315D02*
X04538417D01*
X04548414Y03843311*
Y03863305*
X04538417Y03873302*
X04518423*
X04508427Y03863305*
Y03843311*
X04518423Y03833315*
X04578404Y03883298D02*
Y03873302D01*
X04568407*
X04588401*
X04578404*
Y03843311*
X04588401Y03833315*
X04628388Y03883298D02*
Y03873302D01*
X04618391*
X04638385*
X04628388*
Y03843311*
X04638385Y03833315*
X04678372D02*
X04698365D01*
X04708362Y03843311*
Y03863305*
X04698365Y03873302*
X04678372*
X04668375Y03863305*
Y03843311*
X04678372Y03833315*
X04728355D02*
Y03873302D01*
X04738352*
X04748349Y03863305*
Y03833315*
Y03863305*
X04758346Y03873302*
X04768342Y03863305*
Y03833315*
X04848317Y03893295D02*
Y03833315D01*
X04888304*
X04918294Y03873302D02*
X04938288D01*
X04948284Y03863305*
Y03833315*
X04918294*
X04908297Y03843311*
X04918294Y03853308*
X04948284*
X04968278Y03873302D02*
Y03843311D01*
X04978275Y03833315*
X05008265*
Y03823318*
X04998268Y03813321*
X04988271*
X05008265Y03833315D02*
Y03873302D01*
X05058249Y03833315D02*
X05038255D01*
X05028258Y03843311*
Y03863305*
X05038255Y03873302*
X05058249*
X05068245Y03863305*
Y03853308*
X05028258*
X05088239Y03873302D02*
Y03833315D01*
Y03853308*
X05098236Y03863305*
X05108233Y03873302*
X05118229*
X03728679Y03743295D02*
X03768666D01*
X03748672*
Y03683315*
X03798656D02*
X0381865D01*
X03828646Y03693311*
Y03713305*
X0381865Y03723302*
X03798656*
X03788659Y03713305*
Y03693311*
X03798656Y03683315*
X0384864Y03663321D02*
Y03723302D01*
X0387863*
X03888627Y03713305*
Y03693311*
X0387863Y03683315*
X0384864*
X03968601Y03743295D02*
Y03683315D01*
X04008588*
X04038579Y03723302D02*
X04058572D01*
X04068569Y03713305*
Y03683315*
X04038579*
X04028582Y03693311*
X04038579Y03703308*
X04068569*
X04088562Y03723302D02*
Y03693311D01*
X04098559Y03683315*
X0412855*
Y03673318*
X04118553Y03663321*
X04108556*
X0412855Y03683315D02*
Y03723302D01*
X04178533Y03683315D02*
X0415854D01*
X04148543Y03693311*
Y03713305*
X0415854Y03723302*
X04178533*
X0418853Y03713305*
Y03703308*
X04148543*
X04208524Y03723302D02*
Y03683315D01*
Y03703308*
X0421852Y03713305*
X04228517Y03723302*
X04238514*
X04328485Y03713305D02*
X04368472D01*
X04448446Y03743295D02*
Y03683315D01*
X04478436*
X04488433Y03693311*
Y03703308*
X04478436Y03713305*
X04448446*
X04478436*
X04488433Y03723302*
Y03733298*
X04478436Y03743295*
X04448446*
X04518423Y03683315D02*
X04538417D01*
X04548414Y03693311*
Y03713305*
X04538417Y03723302*
X04518423*
X04508427Y03713305*
Y03693311*
X04518423Y03683315*
X04578404Y03733298D02*
Y03723302D01*
X04568407*
X04588401*
X04578404*
Y03693311*
X04588401Y03683315*
X04628388Y03733298D02*
Y03723302D01*
X04618391*
X04638385*
X04628388*
Y03693311*
X04638385Y03683315*
X04678372D02*
X04698365D01*
X04708362Y03693311*
Y03713305*
X04698365Y03723302*
X04678372*
X04668375Y03713305*
Y03693311*
X04678372Y03683315*
X04728355D02*
Y03723302D01*
X04738352*
X04748349Y03713305*
Y03683315*
Y03713305*
X04758346Y03723302*
X04768342Y03713305*
Y03683315*
X04848317Y03743295D02*
Y03683315D01*
X04888304*
X04918294Y03723302D02*
X04938288D01*
X04948284Y03713305*
Y03683315*
X04918294*
X04908297Y03693311*
X04918294Y03703308*
X04948284*
X04968278Y03723302D02*
Y03693311D01*
X04978275Y03683315*
X05008265*
Y03673318*
X04998268Y03663321*
X04988271*
X05008265Y03683315D02*
Y03723302D01*
X05058249Y03683315D02*
X05038255D01*
X05028258Y03693311*
Y03713305*
X05038255Y03723302*
X05058249*
X05068245Y03713305*
Y03703308*
X05028258*
X05088239Y03723302D02*
Y03683315D01*
Y03703308*
X05098236Y03713305*
X05108233Y03723302*
X05118229*
X03728679Y03593295D02*
X03768666D01*
X03748672*
Y03533315*
X03798656D02*
X0381865D01*
X03828646Y03543311*
Y03563305*
X0381865Y03573302*
X03798656*
X03788659Y03563305*
Y03543311*
X03798656Y03533315*
X0384864Y03513321D02*
Y03573302D01*
X0387863*
X03888627Y03563305*
Y03543311*
X0387863Y03533315*
X0384864*
X03968601Y03593295D02*
Y03533315D01*
X04008588*
X04038579Y03573302D02*
X04058572D01*
X04068569Y03563305*
Y03533315*
X04038579*
X04028582Y03543311*
X04038579Y03553308*
X04068569*
X04088562Y03573302D02*
Y03543311D01*
X04098559Y03533315*
X0412855*
Y03523318*
X04118553Y03513321*
X04108556*
X0412855Y03533315D02*
Y03573302D01*
X04178533Y03533315D02*
X0415854D01*
X04148543Y03543311*
Y03563305*
X0415854Y03573302*
X04178533*
X0418853Y03563305*
Y03553308*
X04148543*
X04208524Y03573302D02*
Y03533315D01*
Y03553308*
X0421852Y03563305*
X04228517Y03573302*
X04238514*
X04328485Y03563305D02*
X04368472D01*
X04448446Y03593295D02*
Y03533315D01*
X04478436*
X04488433Y03543311*
Y03553308*
X04478436Y03563305*
X04448446*
X04478436*
X04488433Y03573302*
Y03583298*
X04478436Y03593295*
X04448446*
X04518423Y03533315D02*
X04538417D01*
X04548414Y03543311*
Y03563305*
X04538417Y03573302*
X04518423*
X04508427Y03563305*
Y03543311*
X04518423Y03533315*
X04578404Y03583298D02*
Y03573302D01*
X04568407*
X04588401*
X04578404*
Y03543311*
X04588401Y03533315*
X04628388Y03583298D02*
Y03573302D01*
X04618391*
X04638385*
X04628388*
Y03543311*
X04638385Y03533315*
X04678372D02*
X04698365D01*
X04708362Y03543311*
Y03563305*
X04698365Y03573302*
X04678372*
X04668375Y03563305*
Y03543311*
X04678372Y03533315*
X04728355D02*
Y03573302D01*
X04738352*
X04748349Y03563305*
Y03533315*
Y03563305*
X04758346Y03573302*
X04768342Y03563305*
Y03533315*
X04848317Y03593295D02*
Y03533315D01*
X04888304*
X04918294Y03573302D02*
X04938288D01*
X04948284Y03563305*
Y03533315*
X04918294*
X04908297Y03543311*
X04918294Y03553308*
X04948284*
X04968278Y03573302D02*
Y03543311D01*
X04978275Y03533315*
X05008265*
Y03523318*
X04998268Y03513321*
X04988271*
X05008265Y03533315D02*
Y03573302D01*
X05058249Y03533315D02*
X05038255D01*
X05028258Y03543311*
Y03563305*
X05038255Y03573302*
X05058249*
X05068245Y03563305*
Y03553308*
X05028258*
X05088239Y03573302D02*
Y03533315D01*
Y03553308*
X05098236Y03563305*
X05108233Y03573302*
X05118229*
X03728679Y03443295D02*
X03768666D01*
X03748672*
Y03383315*
X03798656D02*
X0381865D01*
X03828646Y03393311*
Y03413305*
X0381865Y03423302*
X03798656*
X03788659Y03413305*
Y03393311*
X03798656Y03383315*
X0384864Y03363321D02*
Y03423302D01*
X0387863*
X03888627Y03413305*
Y03393311*
X0387863Y03383315*
X0384864*
X03968601Y03443295D02*
Y03383315D01*
X04008588*
X04038579Y03423302D02*
X04058572D01*
X04068569Y03413305*
Y03383315*
X04038579*
X04028582Y03393311*
X04038579Y03403308*
X04068569*
X04088562Y03423302D02*
Y03393311D01*
X04098559Y03383315*
X0412855*
Y03373318*
X04118553Y03363321*
X04108556*
X0412855Y03383315D02*
Y03423302D01*
X04178533Y03383315D02*
X0415854D01*
X04148543Y03393311*
Y03413305*
X0415854Y03423302*
X04178533*
X0418853Y03413305*
Y03403308*
X04148543*
X04208524Y03423302D02*
Y03383315D01*
Y03403308*
X0421852Y03413305*
X04228517Y03423302*
X04238514*
X04328485Y03413305D02*
X04368472D01*
X04448446Y03443295D02*
Y03383315D01*
X04478436*
X04488433Y03393311*
Y03403308*
X04478436Y03413305*
X04448446*
X04478436*
X04488433Y03423302*
Y03433298*
X04478436Y03443295*
X04448446*
X04518423Y03383315D02*
X04538417D01*
X04548414Y03393311*
Y03413305*
X04538417Y03423302*
X04518423*
X04508427Y03413305*
Y03393311*
X04518423Y03383315*
X04578404Y03433298D02*
Y03423302D01*
X04568407*
X04588401*
X04578404*
Y03393311*
X04588401Y03383315*
X04628388Y03433298D02*
Y03423302D01*
X04618391*
X04638385*
X04628388*
Y03393311*
X04638385Y03383315*
X04678372D02*
X04698365D01*
X04708362Y03393311*
Y03413305*
X04698365Y03423302*
X04678372*
X04668375Y03413305*
Y03393311*
X04678372Y03383315*
X04728355D02*
Y03423302D01*
X04738352*
X04748349Y03413305*
Y03383315*
Y03413305*
X04758346Y03423302*
X04768342Y03413305*
Y03383315*
X04848317Y03443295D02*
Y03383315D01*
X04888304*
X04918294Y03423302D02*
X04938288D01*
X04948284Y03413305*
Y03383315*
X04918294*
X04908297Y03393311*
X04918294Y03403308*
X04948284*
X04968278Y03423302D02*
Y03393311D01*
X04978275Y03383315*
X05008265*
Y03373318*
X04998268Y03363321*
X04988271*
X05008265Y03383315D02*
Y03423302D01*
X05058249Y03383315D02*
X05038255D01*
X05028258Y03393311*
Y03413305*
X05038255Y03423302*
X05058249*
X05068245Y03413305*
Y03403308*
X05028258*
X05088239Y03423302D02*
Y03383315D01*
Y03403308*
X05098236Y03413305*
X05108233Y03423302*
X05118229*
X03728679Y03293295D02*
X03768666D01*
X03748672*
Y03233315*
X03798656D02*
X0381865D01*
X03828646Y03243311*
Y03263305*
X0381865Y03273302*
X03798656*
X03788659Y03263305*
Y03243311*
X03798656Y03233315*
X0384864Y03213321D02*
Y03273302D01*
X0387863*
X03888627Y03263305*
Y03243311*
X0387863Y03233315*
X0384864*
X03968601Y03293295D02*
Y03233315D01*
X04008588*
X04038579Y03273302D02*
X04058572D01*
X04068569Y03263305*
Y03233315*
X04038579*
X04028582Y03243311*
X04038579Y03253308*
X04068569*
X04088562Y03273302D02*
Y03243311D01*
X04098559Y03233315*
X0412855*
Y03223318*
X04118553Y03213321*
X04108556*
X0412855Y03233315D02*
Y03273302D01*
X04178533Y03233315D02*
X0415854D01*
X04148543Y03243311*
Y03263305*
X0415854Y03273302*
X04178533*
X0418853Y03263305*
Y03253308*
X04148543*
X04208524Y03273302D02*
Y03233315D01*
Y03253308*
X0421852Y03263305*
X04228517Y03273302*
X04238514*
X04328485Y03263305D02*
X04368472D01*
X04448446Y03293295D02*
Y03233315D01*
X04478436*
X04488433Y03243311*
Y03253308*
X04478436Y03263305*
X04448446*
X04478436*
X04488433Y03273302*
Y03283298*
X04478436Y03293295*
X04448446*
X04518423Y03233315D02*
X04538417D01*
X04548414Y03243311*
Y03263305*
X04538417Y03273302*
X04518423*
X04508427Y03263305*
Y03243311*
X04518423Y03233315*
X04578404Y03283298D02*
Y03273302D01*
X04568407*
X04588401*
X04578404*
Y03243311*
X04588401Y03233315*
X04628388Y03283298D02*
Y03273302D01*
X04618391*
X04638385*
X04628388*
Y03243311*
X04638385Y03233315*
X04678372D02*
X04698365D01*
X04708362Y03243311*
Y03263305*
X04698365Y03273302*
X04678372*
X04668375Y03263305*
Y03243311*
X04678372Y03233315*
X04728355D02*
Y03273302D01*
X04738352*
X04748349Y03263305*
Y03233315*
Y03263305*
X04758346Y03273302*
X04768342Y03263305*
Y03233315*
X04848317Y03293295D02*
Y03233315D01*
X04888304*
X04918294Y03273302D02*
X04938288D01*
X04948284Y03263305*
Y03233315*
X04918294*
X04908297Y03243311*
X04918294Y03253308*
X04948284*
X04968278Y03273302D02*
Y03243311D01*
X04978275Y03233315*
X05008265*
Y03223318*
X04998268Y03213321*
X04988271*
X05008265Y03233315D02*
Y03273302D01*
X05058249Y03233315D02*
X05038255D01*
X05028258Y03243311*
Y03263305*
X05038255Y03273302*
X05058249*
X05068245Y03263305*
Y03253308*
X05028258*
X05088239Y03273302D02*
Y03233315D01*
Y03253308*
X05098236Y03263305*
X05108233Y03273302*
X05118229*
X03034864Y04033298D02*
X03024867Y04043295D01*
X03004874*
X02994877Y04033298*
Y04023302*
X03004874Y04013305*
X03024867*
X03034864Y04003308*
Y03993311*
X03024867Y03983315*
X03004874*
X02994877Y03993311*
X03054857Y03983315D02*
X03074851D01*
X03064854*
Y04043295*
X03054857*
X03114838Y03983315D02*
X03134831D01*
X03144828Y03993311*
Y04013305*
X03134831Y04023302*
X03114838*
X03104841Y04013305*
Y03993311*
X03114838Y03983315*
X03174819Y04033298D02*
Y04023302D01*
X03164822*
X03184815*
X03174819*
Y03993311*
X03184815Y03983315*
X03034864Y03883298D02*
X03024867Y03893295D01*
X03004874*
X02994877Y03883298*
Y03873302*
X03004874Y03863305*
X03024867*
X03034864Y03853308*
Y03843311*
X03024867Y03833315*
X03004874*
X02994877Y03843311*
X03054857Y03833315D02*
X03074851D01*
X03064854*
Y03893295*
X03054857*
X03114838Y03833315D02*
X03134831D01*
X03144828Y03843311*
Y03863305*
X03134831Y03873302*
X03114838*
X03104841Y03863305*
Y03843311*
X03114838Y03833315*
X03174819Y03883298D02*
Y03873302D01*
X03164822*
X03184815*
X03174819*
Y03843311*
X03184815Y03833315*
X02994877Y03683315D02*
Y03743295D01*
X03024867*
X03034864Y03733298*
Y03713305*
X03024867Y03703308*
X02994877*
X0301487D02*
X03034864Y03683315D01*
X03064854D02*
X03084848D01*
X03094845Y03693311*
Y03713305*
X03084848Y03723302*
X03064854*
X03054857Y03713305*
Y03693311*
X03064854Y03683315*
X03114838Y03723302D02*
Y03693311D01*
X03124835Y03683315*
X03154825*
Y03723302*
X03174819Y03683315D02*
Y03723302D01*
X03204809*
X03214806Y03713305*
Y03683315*
X03274786Y03743295D02*
Y03683315D01*
X03244796*
X03234799Y03693311*
Y03713305*
X03244796Y03723302*
X03274786*
X02994877Y03533315D02*
Y03593295D01*
X03024867*
X03034864Y03583298*
Y03563305*
X03024867Y03553308*
X02994877*
X0301487D02*
X03034864Y03533315D01*
X03064854D02*
X03084848D01*
X03094845Y03543311*
Y03563305*
X03084848Y03573302*
X03064854*
X03054857Y03563305*
Y03543311*
X03064854Y03533315*
X03114838Y03573302D02*
Y03543311D01*
X03124835Y03533315*
X03154825*
Y03573302*
X03174819Y03533315D02*
Y03573302D01*
X03204809*
X03214806Y03563305*
Y03533315*
X03274786Y03593295D02*
Y03533315D01*
X03244796*
X03234799Y03543311*
Y03563305*
X03244796Y03573302*
X03274786*
X02994877Y03383315D02*
Y03443295D01*
X03024867*
X03034864Y03433298*
Y03413305*
X03024867Y03403308*
X02994877*
X0301487D02*
X03034864Y03383315D01*
X03064854D02*
X03084848D01*
X03094845Y03393311*
Y03413305*
X03084848Y03423302*
X03064854*
X03054857Y03413305*
Y03393311*
X03064854Y03383315*
X03114838Y03423302D02*
Y03393311D01*
X03124835Y03383315*
X03154825*
Y03423302*
X03174819Y03383315D02*
Y03423302D01*
X03204809*
X03214806Y03413305*
Y03383315*
X03274786Y03443295D02*
Y03383315D01*
X03244796*
X03234799Y03393311*
Y03413305*
X03244796Y03423302*
X03274786*
X02994877Y03233315D02*
Y03293295D01*
X03024867*
X03034864Y03283298*
Y03263305*
X03024867Y03253308*
X02994877*
X0301487D02*
X03034864Y03233315D01*
X03064854D02*
X03084848D01*
X03094845Y03243311*
Y03263305*
X03084848Y03273302*
X03064854*
X03054857Y03263305*
Y03243311*
X03064854Y03233315*
X03114838Y03273302D02*
Y03243311D01*
X03124835Y03233315*
X03154825*
Y03273302*
X03174819Y03233315D02*
Y03273302D01*
X03204809*
X03214806Y03263305*
Y03233315*
X03274786Y03293295D02*
Y03233315D01*
X03244796*
X03234799Y03243311*
Y03263305*
X03244796Y03273302*
X03274786*
X02489001Y03983315D02*
Y04043295D01*
X02518991*
X02528988Y04033298*
Y04013305*
X02518991Y04003308*
X02489001*
X02548982Y04043295D02*
X02588969D01*
X02568975*
Y03983315*
X02608962Y04043295D02*
Y03983315D01*
Y04013305*
X02648949*
Y04043295*
Y03983315*
X02489001Y03833315D02*
Y03893295D01*
X02518991*
X02528988Y03883298*
Y03863305*
X02518991Y03853308*
X02489001*
X02548982Y03893295D02*
X02588969D01*
X02568975*
Y03833315*
X02608962Y03893295D02*
Y03833315D01*
Y03863305*
X02648949*
Y03893295*
Y03833315*
X02489001Y03683315D02*
Y03743295D01*
X02518991*
X02528988Y03733298*
Y03713305*
X02518991Y03703308*
X02489001*
X02548982Y03743295D02*
X02588969D01*
X02568975*
Y03683315*
X02608962Y03743295D02*
Y03683315D01*
Y03713305*
X02648949*
Y03743295*
Y03683315*
X02489001Y03533315D02*
Y03593295D01*
X02528988Y03533315*
Y03593295*
X02548982Y03533315D02*
Y03593295D01*
X02578972*
X02588969Y03583298*
Y03563305*
X02578972Y03553308*
X02548982*
X02608962Y03593295D02*
X02648949D01*
X02628956*
Y03533315*
X02668943Y03593295D02*
Y03533315D01*
Y03563305*
X0270893*
Y03593295*
Y03533315*
X02489001Y03383315D02*
Y03443295D01*
X02518991*
X02528988Y03433298*
Y03413305*
X02518991Y03403308*
X02489001*
X02548982Y03443295D02*
X02588969D01*
X02568975*
Y03383315*
X02608962Y03443295D02*
Y03383315D01*
Y03413305*
X02648949*
Y03443295*
Y03383315*
X02489001Y03233315D02*
Y03293295D01*
X02518991*
X02528988Y03283298*
Y03263305*
X02518991Y03253308*
X02489001*
X02548982Y03293295D02*
X02588969D01*
X02568975*
Y03233315*
X02608962Y03293295D02*
Y03233315D01*
Y03263305*
X02648949*
Y03293295*
Y03233315*
X01389321Y03983315D02*
X01409315D01*
X01399318*
Y04043295*
X01389321Y04033298*
X01439305Y04043295D02*
X01479292D01*
Y04033298*
X01439305Y03993311*
Y03983315*
X01499286D02*
Y03993311D01*
X01509283*
Y03983315*
X01499286*
X0154927Y04043295D02*
X01589257D01*
Y04033298*
X0154927Y03993311*
Y03983315*
X01649237D02*
X0160925D01*
X01649237Y04023302*
Y04033298*
X0163924Y04043295*
X01619247*
X0160925Y04033298*
X01669231Y03983315D02*
Y04023302D01*
X01679227*
X01689224Y04013305*
Y03983315*
Y04013305*
X01699221Y04023302*
X01709218Y04013305*
Y03983315*
X01729211D02*
X01749205D01*
X01739208*
Y04023302*
X01729211*
X01779195Y03983315D02*
X01799189D01*
X01789192*
Y04043295*
X01779195*
X01909153Y03983315D02*
X01889159Y04003308D01*
Y04023302*
X01909153Y04043295*
X01939143Y04033298D02*
X0194914Y04043295D01*
X01969134*
X0197913Y04033298*
Y03993311*
X01969134Y03983315*
X0194914*
X01939143Y03993311*
Y04033298*
X01999124Y03983315D02*
Y03993311D01*
X02009121*
Y03983315*
X01999124*
X02079098D02*
Y04043295D01*
X02049108Y04013305*
X02089095*
X02149075Y04043295D02*
X02109088D01*
Y04013305*
X02129082Y04023302*
X02139079*
X02149075Y04013305*
Y03993311*
X02139079Y03983315*
X02119085*
X02109088Y03993311*
X02169069Y04033298D02*
X02179066Y04043295D01*
X02199059*
X02209056Y04033298*
Y03993311*
X02199059Y03983315*
X02179066*
X02169069Y03993311*
Y04033298*
X0222905Y03983315D02*
Y04023302D01*
X02239046*
X02249043Y04013305*
Y03983315*
Y04013305*
X0225904Y04023302*
X02269037Y04013305*
Y03983315*
X0228903D02*
Y04023302D01*
X02299027*
X02309024Y04013305*
Y03983315*
Y04013305*
X0231902Y04023302*
X02329017Y04013305*
Y03983315*
X02349011D02*
X02369004Y04003308D01*
Y04023302*
X02349011Y04043295*
X01389321Y03833315D02*
X01409315D01*
X01399318*
Y03893295*
X01389321Y03883298*
X01439305Y03843311D02*
X01449302Y03833315D01*
X01469295*
X01479292Y03843311*
Y03883298*
X01469295Y03893295*
X01449302*
X01439305Y03883298*
Y03873302*
X01449302Y03863305*
X01479292*
X01499286Y03833315D02*
Y03843311D01*
X01509283*
Y03833315*
X01499286*
X01589257Y03893295D02*
X01569263Y03883298D01*
X0154927Y03863305*
Y03843311*
X01559266Y03833315*
X0157926*
X01589257Y03843311*
Y03853308*
X0157926Y03863305*
X0154927*
X0160925Y03843311D02*
X01619247Y03833315D01*
X0163924*
X01649237Y03843311*
Y03883298*
X0163924Y03893295*
X01619247*
X0160925Y03883298*
Y03873302*
X01619247Y03863305*
X01649237*
X01669231Y03833315D02*
Y03873302D01*
X01679227*
X01689224Y03863305*
Y03833315*
Y03863305*
X01699221Y03873302*
X01709218Y03863305*
Y03833315*
X01729211D02*
X01749205D01*
X01739208*
Y03873302*
X01729211*
X01779195Y03833315D02*
X01799189D01*
X01789192*
Y03893295*
X01779195*
X01909153Y03833315D02*
X01889159Y03853308D01*
Y03873302*
X01909153Y03893295*
X01939143Y03883298D02*
X0194914Y03893295D01*
X01969134*
X0197913Y03883298*
Y03843311*
X01969134Y03833315*
X0194914*
X01939143Y03843311*
Y03883298*
X01999124Y03833315D02*
Y03843311D01*
X02009121*
Y03833315*
X01999124*
X02089095Y03893295D02*
X02049108D01*
Y03863305*
X02069101Y03873302*
X02079098*
X02089095Y03863305*
Y03843311*
X02079098Y03833315*
X02059104*
X02049108Y03843311*
X02109088Y03883298D02*
X02119085Y03893295D01*
X02139079*
X02149075Y03883298*
Y03843311*
X02139079Y03833315*
X02119085*
X02109088Y03843311*
Y03883298*
X02169069D02*
X02179066Y03893295D01*
X02199059*
X02209056Y03883298*
Y03843311*
X02199059Y03833315*
X02179066*
X02169069Y03843311*
Y03883298*
X0222905Y03833315D02*
Y03873302D01*
X02239046*
X02249043Y03863305*
Y03833315*
Y03863305*
X0225904Y03873302*
X02269037Y03863305*
Y03833315*
X0228903D02*
Y03873302D01*
X02299027*
X02309024Y03863305*
Y03833315*
Y03863305*
X0231902Y03873302*
X02329017Y03863305*
Y03833315*
X02349011D02*
X02369004Y03853308D01*
Y03873302*
X02349011Y03893295*
X01429308Y03683315D02*
X01389321D01*
X01429308Y03723302*
Y03733298*
X01419312Y03743295*
X01399318*
X01389321Y03733298*
X01449302Y03743295D02*
X01489289D01*
Y03733298*
X01449302Y03693311*
Y03683315*
X01509283D02*
Y03693311D01*
X01519279*
Y03683315*
X01509283*
X01599253Y03743295D02*
X01559266D01*
Y03713305*
X0157926Y03723302*
X01589257*
X01599253Y03713305*
Y03693311*
X01589257Y03683315*
X01569263*
X01559266Y03693311*
X01659234Y03743295D02*
X0163924Y03733298D01*
X01619247Y03713305*
Y03693311*
X01629244Y03683315*
X01649237*
X01659234Y03693311*
Y03703308*
X01649237Y03713305*
X01619247*
X01679227Y03683315D02*
Y03723302D01*
X01689224*
X01699221Y03713305*
Y03683315*
Y03713305*
X01709218Y03723302*
X01719215Y03713305*
Y03683315*
X01739208D02*
X01759202D01*
X01749205*
Y03723302*
X01739208*
X01789192Y03683315D02*
X01809185D01*
X01799189*
Y03743295*
X01789192*
X0191915Y03683315D02*
X01899156Y03703308D01*
Y03723302*
X0191915Y03743295*
X0194914Y03733298D02*
X01959137Y03743295D01*
X0197913*
X01989127Y03733298*
Y03693311*
X0197913Y03683315*
X01959137*
X0194914Y03693311*
Y03733298*
X02009121Y03683315D02*
Y03693311D01*
X02019118*
Y03683315*
X02009121*
X02059104Y03743295D02*
X02099092D01*
Y03733298*
X02059104Y03693311*
Y03683315*
X02119085Y03733298D02*
X02129082Y03743295D01*
X02149075*
X02159072Y03733298*
Y03693311*
X02149075Y03683315*
X02129082*
X02119085Y03693311*
Y03733298*
X02179066D02*
X02189062Y03743295D01*
X02209056*
X02219053Y03733298*
Y03693311*
X02209056Y03683315*
X02189062*
X02179066Y03693311*
Y03733298*
X02239046Y03683315D02*
Y03723302D01*
X02249043*
X0225904Y03713305*
Y03683315*
Y03713305*
X02269037Y03723302*
X02279033Y03713305*
Y03683315*
X02299027D02*
Y03723302D01*
X02309024*
X0231902Y03713305*
Y03683315*
Y03713305*
X02329017Y03723302*
X02339014Y03713305*
Y03683315*
X02359008D02*
X02379001Y03703308D01*
Y03723302*
X02359008Y03743295*
X01389321Y03583298D02*
X01399318Y03593295D01*
X01419312*
X01429308Y03583298*
Y03573302*
X01419312Y03563305*
X01409315*
X01419312*
X01429308Y03553308*
Y03543311*
X01419312Y03533315*
X01399318*
X01389321Y03543311*
X01489289Y03593295D02*
X01449302D01*
Y03563305*
X01469295Y03573302*
X01479292*
X01489289Y03563305*
Y03543311*
X01479292Y03533315*
X01459299*
X01449302Y03543311*
X01509283Y03533315D02*
Y03543311D01*
X01519279*
Y03533315*
X01509283*
X01589257D02*
Y03593295D01*
X01559266Y03563305*
X01599253*
X01619247Y03583298D02*
X01629244Y03593295D01*
X01649237*
X01659234Y03583298*
Y03573302*
X01649237Y03563305*
X0163924*
X01649237*
X01659234Y03553308*
Y03543311*
X01649237Y03533315*
X01629244*
X01619247Y03543311*
X01679227Y03533315D02*
Y03573302D01*
X01689224*
X01699221Y03563305*
Y03533315*
Y03563305*
X01709218Y03573302*
X01719215Y03563305*
Y03533315*
X01739208D02*
X01759202D01*
X01749205*
Y03573302*
X01739208*
X01789192Y03533315D02*
X01809185D01*
X01799189*
Y03593295*
X01789192*
X0191915Y03533315D02*
X01899156Y03553308D01*
Y03573302*
X0191915Y03593295*
X0194914Y03583298D02*
X01959137Y03593295D01*
X0197913*
X01989127Y03583298*
Y03543311*
X0197913Y03533315*
X01959137*
X0194914Y03543311*
Y03583298*
X02009121Y03533315D02*
Y03543311D01*
X02019118*
Y03533315*
X02009121*
X02059104Y03543311D02*
X02069101Y03533315D01*
X02089095*
X02099092Y03543311*
Y03583298*
X02089095Y03593295*
X02069101*
X02059104Y03583298*
Y03573302*
X02069101Y03563305*
X02099092*
X02119085Y03583298D02*
X02129082Y03593295D01*
X02149075*
X02159072Y03583298*
Y03543311*
X02149075Y03533315*
X02129082*
X02119085Y03543311*
Y03583298*
X02179066D02*
X02189062Y03593295D01*
X02209056*
X02219053Y03583298*
Y03543311*
X02209056Y03533315*
X02189062*
X02179066Y03543311*
Y03583298*
X02239046Y03533315D02*
Y03573302D01*
X02249043*
X0225904Y03563305*
Y03533315*
Y03563305*
X02269037Y03573302*
X02279033Y03563305*
Y03533315*
X02299027D02*
Y03573302D01*
X02309024*
X0231902Y03563305*
Y03533315*
Y03563305*
X02329017Y03573302*
X02339014Y03563305*
Y03533315*
X02359008D02*
X02379001Y03553308D01*
Y03573302*
X02359008Y03593295*
X01389321Y03383315D02*
X01409315D01*
X01399318*
Y03443295*
X01389321Y03433298*
X01479292Y03383315D02*
X01439305D01*
X01479292Y03423302*
Y03433298*
X01469295Y03443295*
X01449302*
X01439305Y03433298*
X01499286Y03383315D02*
Y03393311D01*
X01509283*
Y03383315*
X01499286*
X0154927Y03433298D02*
X01559266Y03443295D01*
X0157926*
X01589257Y03433298*
Y03393311*
X0157926Y03383315*
X01559266*
X0154927Y03393311*
Y03433298*
X0160925D02*
X01619247Y03443295D01*
X0163924*
X01649237Y03433298*
Y03393311*
X0163924Y03383315*
X01619247*
X0160925Y03393311*
Y03433298*
X01669231Y03383315D02*
Y03423302D01*
X01679227*
X01689224Y03413305*
Y03383315*
Y03413305*
X01699221Y03423302*
X01709218Y03413305*
Y03383315*
X01729211D02*
X01749205D01*
X01739208*
Y03423302*
X01729211*
X01779195Y03383315D02*
X01799189D01*
X01789192*
Y03443295*
X01779195*
X01909153Y03383315D02*
X01889159Y03403308D01*
Y03423302*
X01909153Y03443295*
X01939143Y03433298D02*
X0194914Y03443295D01*
X01969134*
X0197913Y03433298*
Y03393311*
X01969134Y03383315*
X0194914*
X01939143Y03393311*
Y03433298*
X01999124Y03383315D02*
Y03393311D01*
X02009121*
Y03383315*
X01999124*
X02049108Y03433298D02*
X02059104Y03443295D01*
X02079098*
X02089095Y03433298*
Y03423302*
X02079098Y03413305*
X02069101*
X02079098*
X02089095Y03403308*
Y03393311*
X02079098Y03383315*
X02059104*
X02049108Y03393311*
X02109088Y03433298D02*
X02119085Y03443295D01*
X02139079*
X02149075Y03433298*
Y03393311*
X02139079Y03383315*
X02119085*
X02109088Y03393311*
Y03433298*
X02209056Y03443295D02*
X02169069D01*
Y03413305*
X02189062Y03423302*
X02199059*
X02209056Y03413305*
Y03393311*
X02199059Y03383315*
X02179066*
X02169069Y03393311*
X0222905Y03383315D02*
Y03423302D01*
X02239046*
X02249043Y03413305*
Y03383315*
Y03413305*
X0225904Y03423302*
X02269037Y03413305*
Y03383315*
X0228903D02*
Y03423302D01*
X02299027*
X02309024Y03413305*
Y03383315*
Y03413305*
X0231902Y03423302*
X02329017Y03413305*
Y03383315*
X02349011D02*
X02369004Y03403308D01*
Y03423302*
X02349011Y03443295*
X01389321Y03283298D02*
X01399318Y03293295D01*
X01419312*
X01429308Y03283298*
Y03273302*
X01419312Y03263305*
X01429308Y03253308*
Y03243311*
X01419312Y03233315*
X01399318*
X01389321Y03243311*
Y03253308*
X01399318Y03263305*
X01389321Y03273302*
Y03283298*
X01399318Y03263305D02*
X01419312D01*
X01449302Y03233315D02*
Y03243311D01*
X01459299*
Y03233315*
X01449302*
X01499286Y03283298D02*
X01509283Y03293295D01*
X01529276*
X01539273Y03283298*
Y03243311*
X01529276Y03233315*
X01509283*
X01499286Y03243311*
Y03283298*
X01559266D02*
X01569263Y03293295D01*
X01589257*
X01599253Y03283298*
Y03243311*
X01589257Y03233315*
X01569263*
X01559266Y03243311*
Y03283298*
X01619247Y03233315D02*
Y03273302D01*
X01629244*
X0163924Y03263305*
Y03233315*
Y03263305*
X01649237Y03273302*
X01659234Y03263305*
Y03233315*
X01679227D02*
X01699221D01*
X01689224*
Y03273302*
X01679227*
X01729211Y03233315D02*
X01749205D01*
X01739208*
Y03293295*
X01729211*
X01859169Y03233315D02*
X01839176Y03253308D01*
Y03273302*
X01859169Y03293295*
X01889159Y03283298D02*
X01899156Y03293295D01*
X0191915*
X01929147Y03283298*
Y03243311*
X0191915Y03233315*
X01899156*
X01889159Y03243311*
Y03283298*
X0194914Y03233315D02*
Y03243311D01*
X01959137*
Y03233315*
X0194914*
X02039111D02*
X01999124D01*
X02039111Y03273302*
Y03283298*
X02029114Y03293295*
X02009121*
X01999124Y03283298*
X02059104D02*
X02069101Y03293295D01*
X02089095*
X02099092Y03283298*
Y03243311*
X02089095Y03233315*
X02069101*
X02059104Y03243311*
Y03283298*
X02119085D02*
X02129082Y03293295D01*
X02149075*
X02159072Y03283298*
Y03273302*
X02149075Y03263305*
X02139079*
X02149075*
X02159072Y03253308*
Y03243311*
X02149075Y03233315*
X02129082*
X02119085Y03243311*
X02179066Y03233315D02*
Y03273302D01*
X02189062*
X02199059Y03263305*
Y03233315*
Y03263305*
X02209056Y03273302*
X02219053Y03263305*
Y03233315*
X02239046D02*
Y03273302D01*
X02249043*
X0225904Y03263305*
Y03233315*
Y03263305*
X02269037Y03273302*
X02279033Y03263305*
Y03233315*
X02299027D02*
X0231902Y03253308D01*
Y03273302*
X02299027Y03293295*
X00799477Y03083315D02*
X0081947D01*
X00809473*
Y03143295*
X00799477Y03133298*
X00879451Y03083315D02*
Y03143295D01*
X0084946Y03113305*
X00889447*
X00949428Y03143295D02*
X00909441D01*
Y03113305*
X00929434Y03123302*
X00939431*
X00949428Y03113305*
Y03093311*
X00939431Y03083315*
X00919438*
X00909441Y03093311*
X01029402Y03143295D02*
X01069389D01*
X01049396*
Y03083315*
X0109938D02*
X01119373D01*
X0112937Y03093311*
Y03113305*
X01119373Y03123302*
X0109938*
X01089383Y03113305*
Y03093311*
X0109938Y03083315*
X0115936Y03133298D02*
Y03123302D01*
X01149363*
X01169357*
X0115936*
Y03093311*
X01169357Y03083315*
X01209344Y03123302D02*
X01229338D01*
X01239334Y03113305*
Y03083315*
X01209344*
X01199347Y03093311*
X01209344Y03103308*
X01239334*
X01259328Y03083315D02*
X01279321D01*
X01269325*
Y03143295*
X01259328*
X00839464Y03983315D02*
X00799477D01*
X00839464Y04023302*
Y04033298*
X00829467Y04043295*
X00809473*
X00799477Y04033298*
X00839464Y03833315D02*
X00799477D01*
X00839464Y03873302*
Y03883298*
X00829467Y03893295*
X00809473*
X00799477Y03883298*
X00839464Y03683315D02*
X00799477D01*
X00839464Y03723302*
Y03733298*
X00829467Y03743295*
X00809473*
X00799477Y03733298*
X00839464Y03593295D02*
X0081947Y03583298D01*
X00799477Y03563305*
Y03543311*
X00809473Y03533315*
X00829467*
X00839464Y03543311*
Y03553308*
X00829467Y03563305*
X00799477*
Y03433298D02*
X00809473Y03443295D01*
X00829467*
X00839464Y03433298*
Y03423302*
X00829467Y03413305*
X00839464Y03403308*
Y03393311*
X00829467Y03383315*
X00809473*
X00799477Y03393311*
Y03403308*
X00809473Y03413305*
X00799477Y03423302*
Y03433298*
X00809473Y03413305D02*
X00829467D01*
X00799477Y03233315D02*
X0081947D01*
X00809473*
Y03293295*
X00799477Y03283298*
X00889447Y03233315D02*
X0084946D01*
X00889447Y03273302*
Y03283298*
X00879451Y03293295*
X00859457*
X0084946Y03283298*
X00949428Y03293295D02*
X00909441D01*
Y03263305*
X00929434Y03273302*
X00939431*
X00949428Y03263305*
Y03243311*
X00939431Y03233315*
X00919438*
X00909441Y03243311*
X0207907Y0285836D02*
X02119057D01*
X0207907Y02878354D02*
X02119057D01*
X02199032Y02838367D02*
Y02898347D01*
X02229022*
X02239019Y0288835*
Y02868357*
X02229022Y0285836*
X02199032*
X02219025D02*
X02239019Y02838367D01*
X02269009D02*
X02289003D01*
X02298999Y02848363*
Y02868357*
X02289003Y02878354*
X02269009*
X02259012Y02868357*
Y02848363*
X02269009Y02838367*
X02318993Y02878354D02*
Y02848363D01*
X0232899Y02838367*
X0235898*
Y02878354*
X0238897Y0288835D02*
Y02878354D01*
X02378973*
X02398967*
X0238897*
Y02848363*
X02398967Y02838367*
X02458948D02*
X02438954D01*
X02428957Y02848363*
Y02868357*
X02438954Y02878354*
X02458948*
X02468944Y02868357*
Y0285836*
X02428957*
X02528925Y02898347D02*
Y02838367D01*
X02498935*
X02488938Y02848363*
Y02868357*
X02498935Y02878354*
X02528925*
X02608899Y02838367D02*
Y02898347D01*
X02638889*
X02648886Y0288835*
Y02868357*
X02638889Y0285836*
X02608899*
X02678876Y02878354D02*
X0269887D01*
X02708867Y02868357*
Y02838367*
X02678876*
X0266888Y02848363*
X02678876Y0285836*
X02708867*
X02738857Y0288835D02*
Y02878354D01*
X0272886*
X02748854*
X02738857*
Y02848363*
X02748854Y02838367*
X02778844Y02898347D02*
Y02838367D01*
Y02868357*
X02788841Y02878354*
X02808834*
X02818831Y02868357*
Y02838367*
X02898805Y02898347D02*
Y02838367D01*
X02938792*
X02988776D02*
X02968783D01*
X02958786Y02848363*
Y02868357*
X02968783Y02878354*
X02988776*
X02998773Y02868357*
Y0285836*
X02958786*
X03018766Y02838367D02*
Y02878354D01*
X03048757*
X03058753Y02868357*
Y02838367*
X0309874Y02818373D02*
X03108737D01*
X03118734Y0282837*
Y02878354*
X03088744*
X03078747Y02868357*
Y02848363*
X03088744Y02838367*
X03118734*
X03148724Y0288835D02*
Y02878354D01*
X03138728*
X03158721*
X03148724*
Y02848363*
X03158721Y02838367*
X03188711Y02898347D02*
Y02838367D01*
Y02868357*
X03198708Y02878354*
X03218702*
X03228698Y02868357*
Y02838367*
X03308673Y02868357D02*
X0334866D01*
X03328666Y0288835D02*
Y02848363D01*
X03428634Y02898347D02*
X03468621D01*
X03448627*
Y02838367*
X03498611D02*
X03518605D01*
X03528602Y02848363*
Y02868357*
X03518605Y02878354*
X03498611*
X03488614Y02868357*
Y02848363*
X03498611Y02838367*
X03558592D02*
X03578585D01*
X03588582Y02848363*
Y02868357*
X03578585Y02878354*
X03558592*
X03548595Y02868357*
Y02848363*
X03558592Y02838367*
X03608576D02*
X03628569D01*
X03618572*
Y02898347*
X03608576*
X03758527Y0288835D02*
X0374853Y02898347D01*
X03728537*
X0371854Y0288835*
Y02878354*
X03728537Y02868357*
X0374853*
X03758527Y0285836*
Y02848363*
X0374853Y02838367*
X03728537*
X0371854Y02848363*
X03778521Y02838367D02*
X03798514D01*
X03788517*
Y02878354*
X03778521*
X03828504D02*
X03868492D01*
X03828504Y02838367*
X03868492*
X03918475D02*
X03898482D01*
X03888485Y02848363*
Y02868357*
X03898482Y02878354*
X03918475*
X03928472Y02868357*
Y0285836*
X03888485*
X04008446D02*
X04048433D01*
X04008446Y02878354D02*
X04048433D01*
X04168395Y0288835D02*
X04158398Y02898347D01*
X04138404*
X04128407Y0288835*
Y02878354*
X04138404Y02868357*
X04158398*
X04168395Y0285836*
Y02848363*
X04158398Y02838367*
X04138404*
X04128407Y02848363*
X04188388Y02838367D02*
X04208382D01*
X04198385*
Y02898347*
X04188388*
X04248369Y02838367D02*
X04268362D01*
X04278359Y02848363*
Y02868357*
X04268362Y02878354*
X04248369*
X04238372Y02868357*
Y02848363*
X04248369Y02838367*
X04308349Y0288835D02*
Y02878354D01*
X04298352*
X04318346*
X04308349*
Y02848363*
X04318346Y02838367*
X04408317D02*
X0442831D01*
X04418314*
Y02898347*
X04408317*
X04488291Y02838367D02*
X04468297D01*
X04458301Y02848363*
Y02868357*
X04468297Y02878354*
X04488291*
X04498288Y02868357*
Y0285836*
X04458301*
X04518281Y02838367D02*
Y02878354D01*
X04548271*
X04558268Y02868357*
Y02838367*
X04598255Y02818373D02*
X04608252D01*
X04618249Y0282837*
Y02878354*
X04588259*
X04578262Y02868357*
Y02848363*
X04588259Y02838367*
X04618249*
X04648239Y0288835D02*
Y02878354D01*
X04638242*
X04658236*
X04648239*
Y02848363*
X04658236Y02838367*
X04688226Y02898347D02*
Y02838367D01*
Y02868357*
X04698223Y02878354*
X04718217*
X04728213Y02868357*
Y02838367*
X04818184Y02878354D02*
X04838178D01*
X04848175Y02868357*
Y02838367*
X04818184*
X04808187Y02848363*
X04818184Y0285836*
X04848175*
X04868168Y02838367D02*
X04898158D01*
X04908155Y02848363*
X04898158Y0285836*
X04878165*
X04868168Y02868357*
X04878165Y02878354*
X04908155*
X05028116Y02898347D02*
Y02838367D01*
X04998126*
X04988129Y02848363*
Y02868357*
X04998126Y02878354*
X05028116*
X050781Y02838367D02*
X05058107D01*
X0504811Y02848363*
Y02868357*
X05058107Y02878354*
X050781*
X05088097Y02868357*
Y0285836*
X0504811*
X05118087Y02838367D02*
Y0288835D01*
Y02868357*
X0510809*
X05128084*
X05118087*
Y0288835*
X05128084Y02898347*
X05158074Y02838367D02*
X05178068D01*
X05168071*
Y02878354*
X05158074*
X05208058Y02838367D02*
Y02878354D01*
X05238048*
X05248045Y02868357*
Y02838367*
X05298029D02*
X05278035D01*
X05268039Y02848363*
Y02868357*
X05278035Y02878354*
X05298029*
X05308026Y02868357*
Y0285836*
X05268039*
X05368006Y02898347D02*
Y02838367D01*
X05338016*
X05328019Y02848363*
Y02868357*
X05338016Y02878354*
X05368006*
X0544798Y02838367D02*
X05467974D01*
X05457977*
Y02878354*
X0544798*
X05497964Y02838367D02*
Y02878354D01*
X05527954*
X05537951Y02868357*
Y02838367*
X05627922Y0288835D02*
Y02878354D01*
X05617925*
X05637919*
X05627922*
Y02848363*
X05637919Y02838367*
X05667909Y02898347D02*
Y02838367D01*
Y02868357*
X05677906Y02878354*
X056979*
X05707896Y02868357*
Y02838367*
X0575788D02*
X05737887D01*
X0572789Y02848363*
Y02868357*
X05737887Y02878354*
X0575788*
X05767877Y02868357*
Y0285836*
X0572789*
X05847851Y02838367D02*
Y02898347D01*
X05877841*
X05887838Y0288835*
Y02868357*
X05877841Y0285836*
X05847851*
X05947819Y0288835D02*
X05937822Y02898347D01*
X05917828*
X05907832Y0288835*
Y02848363*
X05917828Y02838367*
X05937822*
X05947819Y02848363*
X05967812Y02898347D02*
Y02838367D01*
X05997802*
X06007799Y02848363*
Y0285836*
X05997802Y02868357*
X05967812*
X05997802*
X06007799Y02878354*
Y0288835*
X05997802Y02898347*
X05967812*
X06087773Y02838367D02*
X06107767D01*
X0609777*
Y02898347*
X06087773*
X06147754Y02878354D02*
X06167748D01*
X06177744Y02868357*
Y02838367*
X06147754*
X06137757Y02848363*
X06147754Y0285836*
X06177744*
X06197738Y02878354D02*
Y02848363D01*
X06207735Y02838367*
X06237725*
Y0282837*
X06227728Y02818373*
X06217731*
X06237725Y02838367D02*
Y02878354D01*
X06267715Y02838367D02*
X06287709D01*
X06297706Y02848363*
Y02868357*
X06287709Y02878354*
X06267715*
X06257718Y02868357*
Y02848363*
X06267715Y02838367*
X06317699Y02878354D02*
Y02848363D01*
X06327696Y02838367*
X06357686*
Y02878354*
X06387676Y0288835D02*
Y02878354D01*
X0637768*
X06397673*
X06387676*
Y02848363*
X06397673Y02838367*
X02428957Y02958334D02*
X02468944D01*
X02428957Y02978328D02*
X02468944D01*
X02588905Y02988324D02*
X02578909Y02998321D01*
X02558915*
X02548918Y02988324*
Y02948337*
X02558915Y02938341*
X02578909*
X02588905Y02948337*
X02618896Y02978328D02*
X02638889D01*
X02648886Y02968331*
Y02938341*
X02618896*
X02608899Y02948337*
X02618896Y02958334*
X02648886*
X0266888Y02938341D02*
X02688873D01*
X02678876*
Y02998321*
X0266888*
X02758851Y02978328D02*
X0272886D01*
X02718863Y02968331*
Y02948337*
X0272886Y02938341*
X02758851*
X02778844Y02978328D02*
Y02948337D01*
X02788841Y02938341*
X02818831*
Y02978328*
X02838825Y02938341D02*
X02858818D01*
X02848821*
Y02998321*
X02838825*
X02898805Y02978328D02*
X02918799D01*
X02928796Y02968331*
Y02938341*
X02898805*
X02888808Y02948337*
X02898805Y02958334*
X02928796*
X02958786Y02988324D02*
Y02978328D01*
X02948789*
X02968782*
X02958786*
Y02948337*
X02968782Y02938341*
X03028763D02*
X0300877D01*
X02998773Y02948337*
Y02968331*
X0300877Y02978328*
X03028763*
X0303876Y02968331*
Y02958334*
X02998773*
X0309874Y02998321D02*
Y02938341D01*
X0306875*
X03058753Y02948337*
Y02968331*
X0306875Y02978328*
X0309874*
X03188711Y02938341D02*
Y02988324D01*
Y02968331*
X03178715*
X03198708*
X03188711*
Y02988324*
X03198708Y02998321*
X03228698Y02978328D02*
Y02938341D01*
Y02958334*
X03238695Y02968331*
X03248692Y02978328*
X03258689*
X03298676Y02938341D02*
X03318669D01*
X03328666Y02948337*
Y02968331*
X03318669Y02978328*
X03298676*
X03288679Y02968331*
Y02948337*
X03298676Y02938341*
X0334866D02*
Y02978328D01*
X03358656*
X03368653Y02968331*
Y02938341*
Y02968331*
X0337865Y02978328*
X03388647Y02968331*
Y02938341*
X03478618Y02988324D02*
Y02978328D01*
X03468621*
X03488614*
X03478618*
Y02948337*
X03488614Y02938341*
X03528601D02*
X03548595D01*
X03558592Y02948337*
Y02968331*
X03548595Y02978328*
X03528601*
X03518605Y02968331*
Y02948337*
X03528601Y02938341*
X03588582D02*
X03608575D01*
X03618572Y02948337*
Y02968331*
X03608575Y02978328*
X03588582*
X03578585Y02968331*
Y02948337*
X03588582Y02938341*
X03638566D02*
X03658559D01*
X03648563*
Y02998321*
X03638566*
X0374853Y02938341D02*
X03778521D01*
X03788517Y02948337*
X03778521Y02958334*
X03758527*
X0374853Y02968331*
X03758527Y02978328*
X03788517*
X03818508Y02988324D02*
Y02978328D01*
X03808511*
X03828504*
X03818508*
Y02948337*
X03828504Y02938341*
X03868491Y02978328D02*
X03888485D01*
X03898482Y02968331*
Y02938341*
X03868491*
X03858495Y02948337*
X03868491Y02958334*
X03898482*
X03918475Y02978328D02*
Y02938341D01*
Y02958334*
X03928472Y02968331*
X03938469Y02978328*
X03948465*
X03988453Y02988324D02*
Y02978328D01*
X03978456*
X03998449*
X03988453*
Y02948337*
X03998449Y02938341*
X04128407Y02978328D02*
X04098417D01*
X0408842Y02968331*
Y02948337*
X04098417Y02938341*
X04128407*
X04178391D02*
X04158398D01*
X04148401Y02948337*
Y02968331*
X04158398Y02978328*
X04178391*
X04188388Y02968331*
Y02958334*
X04148401*
X04208381Y02938341D02*
Y02978328D01*
X04238372*
X04248368Y02968331*
Y02938341*
X04278359Y02988324D02*
Y02978328D01*
X04268362*
X04288355*
X04278359*
Y02948337*
X04288355Y02938341*
X04318346Y02978328D02*
Y02938341D01*
Y02958334*
X04328343Y02968331*
X04338339Y02978328*
X04348336*
X04408317Y02938341D02*
X04388323D01*
X04378326Y02948337*
Y02968331*
X04388323Y02978328*
X04408317*
X04418314Y02968331*
Y02958334*
X04378326*
X04498288Y02918347D02*
Y02978328D01*
X04528278*
X04538275Y02968331*
Y02948337*
X04528278Y02938341*
X04498288*
X04568265D02*
X04588258D01*
X04598255Y02948337*
Y02968331*
X04588258Y02978328*
X04568265*
X04558268Y02968331*
Y02948337*
X04568265Y02938341*
X04618249D02*
X04648239D01*
X04658236Y02948337*
X04648239Y02958334*
X04628246*
X04618249Y02968331*
X04628246Y02978328*
X04658236*
X04678229Y02938341D02*
X04698223D01*
X04688226*
Y02978328*
X04678229*
X0473821Y02988324D02*
Y02978328D01*
X04728213*
X04748207*
X0473821*
Y02948337*
X04748207Y02938341*
X04778197D02*
X0479819D01*
X04788194*
Y02978328*
X04778197*
X04838178Y02938341D02*
X04858171D01*
X04868168Y02948337*
Y02968331*
X04858171Y02978328*
X04838178*
X04828181Y02968331*
Y02948337*
X04838178Y02938341*
X04888161D02*
Y02978328D01*
X04918152*
X04928149Y02968331*
Y02938341*
X05018119Y02988324D02*
Y02978328D01*
X05008123*
X05028116*
X05018119*
Y02948337*
X05028116Y02938341*
X05068103D02*
X05088097D01*
X05098093Y02948337*
Y02968331*
X05088097Y02978328*
X05068103*
X05058106Y02968331*
Y02948337*
X05068103Y02938341*
X05188064Y02988324D02*
Y02978328D01*
X05178068*
X05198061*
X05188064*
Y02948337*
X05198061Y02938341*
X05238048D02*
X05258042D01*
X05268038Y02948337*
Y02968331*
X05258042Y02978328*
X05238048*
X05228051Y02968331*
Y02948337*
X05238048Y02938341*
X05298029D02*
X05318022D01*
X05328019Y02948337*
Y02968331*
X05318022Y02978328*
X05298029*
X05288032Y02968331*
Y02948337*
X05298029Y02938341*
X05348013D02*
X05368006D01*
X05358009*
Y02998321*
X05348013*
X05487967Y02938341D02*
X05467974D01*
X05457977Y02948337*
Y02968331*
X05467974Y02978328*
X05487967*
X05497964Y02968331*
Y02958334*
X05457977*
X05517958Y02938341D02*
Y02978328D01*
X05547948*
X05557945Y02968331*
Y02938341*
X05617925Y02998321D02*
Y02938341D01*
X05587935*
X05577938Y02948337*
Y02968331*
X05587935Y02978328*
X05617925*
X05737886D02*
X05707896D01*
X05697899Y02968331*
Y02948337*
X05707896Y02938341*
X05737886*
X0578787D02*
X05767877D01*
X0575788Y02948337*
Y02968331*
X05767877Y02978328*
X0578787*
X05797867Y02968331*
Y02958334*
X0575788*
X05817861Y02938341D02*
Y02978328D01*
X05847851*
X05857848Y02968331*
Y02938341*
X05887838Y02988324D02*
Y02978328D01*
X05877841*
X05897835*
X05887838*
Y02948337*
X05897835Y02938341*
X05927825Y02978328D02*
Y02938341D01*
Y02958334*
X05937822Y02968331*
X05947819Y02978328*
X05957815*
X06017796Y02938341D02*
X05997802D01*
X05987806Y02948337*
Y02968331*
X05997802Y02978328*
X06017796*
X06027793Y02968331*
Y02958334*
X05987806*
X06107767Y02918347D02*
Y02978328D01*
X06137757*
X06147754Y02968331*
Y02948337*
X06137757Y02938341*
X06107767*
X06177744D02*
X06197738D01*
X06207734Y02948337*
Y02968331*
X06197738Y02978328*
X06177744*
X06167747Y02968331*
Y02948337*
X06177744Y02938341*
X06227728D02*
X06257718D01*
X06267715Y02948337*
X06257718Y02958334*
X06237725*
X06227728Y02968331*
X06237725Y02978328*
X06267715*
X06287709Y02938341D02*
X06307702D01*
X06297705*
Y02978328*
X06287709*
X06347689Y02988324D02*
Y02978328D01*
X06337692*
X06357686*
X06347689*
Y02948337*
X06357686Y02938341*
X06387676D02*
X0640767D01*
X06397673*
Y02978328*
X06387676*
X06447657Y02938341D02*
X0646765D01*
X06477647Y02948337*
Y02968331*
X0646765Y02978328*
X06447657*
X0643766Y02968331*
Y02948337*
X06447657Y02938341*
X06497641D02*
Y02978328D01*
X06527631*
X06537628Y02968331*
Y02938341*
X06557621D02*
Y02948337D01*
X06567618*
Y02938341*
X06557621*
G54D251*
X-00434363Y00546456D02*
D01*
D01*
G75*
G03X-00467697I-00016667J0D01*
G74*G01*
D01*
G75*
G03X-00434363I00016667J0D01*
G74*G01*
X-00655128Y0022524D02*
D01*
D01*
G75*
G03X-00688462I-00016667J0D01*
G74*G01*
D01*
G75*
G03X-00655128I00016667J0D01*
G74*G01*
X-00146795Y-00595303D02*
X-00138461D01*
X-00146795D02*
Y-00578636D01*
X-00138461*
Y-00570303*
X-00121795*
Y-00578636D02*
Y-00570303D01*
Y-00578636D02*
X-00113461D01*
Y-00595303D02*
Y-00578636D01*
X-00121795Y-00595303D02*
X-00113461D01*
X-00121795Y-00603636D02*
Y-00595303D01*
X-00138461Y-00603636D02*
X-00121795D01*
X-00138461D02*
Y-00595303D01*
X-0012623Y-00599487D02*
X-00117897D01*
X-0012623D02*
Y-0058282D01*
X-00117897*
Y-00574487*
X-00101231*
Y-0058282D02*
Y-00574487D01*
Y-0058282D02*
X-00092897D01*
Y-00599487D02*
Y-0058282D01*
X-00101231Y-00599487D02*
X-00092897D01*
X-00101231Y-0060782D02*
Y-00599487D01*
X-00117897Y-0060782D02*
X-00101231D01*
X-00117897D02*
Y-00599487D01*
X-00105533Y-0060295D02*
X-00097199D01*
X-00105533D02*
Y-00586284D01*
X-00097199*
Y-00577951*
X-00080533*
Y-00586284D02*
Y-00577951D01*
Y-00586284D02*
X-000722D01*
Y-0060295D02*
Y-00586284D01*
X-00080533Y-0060295D02*
X-000722D01*
X-00080533Y-00611284D02*
Y-0060295D01*
X-00097199Y-00611284D02*
X-00080533D01*
X-00097199D02*
Y-0060295D01*
X00371086Y00202199D02*
X00379419D01*
X00371086D02*
Y00218866D01*
X00379419*
Y00227199*
X00396086*
Y00218866D02*
Y00227199D01*
Y00218866D02*
X00404419D01*
Y00202199D02*
Y00218866D01*
X00396086Y00202199D02*
X00404419D01*
X00396086Y00193866D02*
Y00202199D01*
X00379419Y00193866D02*
X00396086D01*
X00379419D02*
Y00202199D01*
X00011957Y-0066393D02*
X00020291D01*
X00011957D02*
Y-00647263D01*
X00020291*
Y-0063893*
X00036957*
Y-00647263D02*
Y-0063893D01*
Y-00647263D02*
X00045291D01*
Y-0066393D02*
Y-00647263D01*
X00036957Y-0066393D02*
X00045291D01*
X00036957Y-00672263D02*
Y-0066393D01*
X00020291Y-00672263D02*
X00036957D01*
X00020291D02*
Y-0066393D01*
X00535987Y-00463906D02*
X0054432D01*
X00535987D02*
Y-00447239D01*
X0054432*
Y-00438906*
X00560987*
Y-00447239D02*
Y-00438906D01*
Y-00447239D02*
X0056932D01*
Y-00463906D02*
Y-00447239D01*
X00560987Y-00463906D02*
X0056932D01*
X00560987Y-00472239D02*
Y-00463906D01*
X0054432Y-00472239D02*
X00560987D01*
X0054432D02*
Y-00463906D01*
X00515848Y-00488059D02*
X00524182D01*
X00515848D02*
Y-00471393D01*
X00524182*
Y-00463059*
X00540848*
Y-00471393D02*
Y-00463059D01*
Y-00471393D02*
X00549181D01*
Y-00488059D02*
Y-00471393D01*
X00540848Y-00488059D02*
X00549181D01*
X00540848Y-00496393D02*
Y-00488059D01*
X00524182Y-00496393D02*
X00540848D01*
X00524182D02*
Y-00488059D01*
X00080498Y-00413054D02*
X00088832D01*
X00080498D02*
Y-00396387D01*
X00088832*
Y-00388054*
X00105498*
Y-00396387D02*
Y-00388054D01*
Y-00396387D02*
X00113832D01*
Y-00413054D02*
Y-00396387D01*
X00105498Y-00413054D02*
X00113832D01*
X00105498Y-00421387D02*
Y-00413054D01*
X00088832Y-00421387D02*
X00105498D01*
X00088832D02*
Y-00413054D01*
X-00087796Y-00484269D02*
X-00079462D01*
X-00087796D02*
Y-00467602D01*
X-00079462*
Y-00459269*
X-00062796*
Y-00467602D02*
Y-00459269D01*
Y-00467602D02*
X-00054462D01*
Y-00484269D02*
Y-00467602D01*
X-00062796Y-00484269D02*
X-00054462D01*
X-00062796Y-00492602D02*
Y-00484269D01*
X-00079462Y-00492602D02*
X-00062796D01*
X-00079462D02*
Y-00484269D01*
X-0006279Y-00487339D02*
X-00054456D01*
X-0006279D02*
Y-00470672D01*
X-00054456*
Y-00462339*
X-0003779*
Y-00470672D02*
Y-00462339D01*
Y-00470672D02*
X-00029456D01*
Y-00487339D02*
Y-00470672D01*
X-0003779Y-00487339D02*
X-00029456D01*
X-0003779Y-00495672D02*
Y-00487339D01*
X-00054456Y-00495672D02*
X-0003779D01*
X-00054456D02*
Y-00487339D01*
X00294871Y-00619761D02*
X00303204D01*
X00294871D02*
Y-00603094D01*
X00303204*
Y-00594761*
X00319871*
Y-00603094D02*
Y-00594761D01*
Y-00603094D02*
X00328204D01*
Y-00619761D02*
Y-00603094D01*
X00319871Y-00619761D02*
X00328204D01*
X00319871Y-00628094D02*
Y-00619761D01*
X00303204Y-00628094D02*
X00319871D01*
X00303204D02*
Y-00619761D01*
X00329856Y-00646549D02*
X00338189D01*
X00329856D02*
Y-00629882D01*
X00338189*
Y-00621549*
X00354856*
Y-00629882D02*
Y-00621549D01*
Y-00629882D02*
X00363189D01*
Y-00646549D02*
Y-00629882D01*
X00354856Y-00646549D02*
X00363189D01*
X00354856Y-00654882D02*
Y-00646549D01*
X00338189Y-00654882D02*
X00354856D01*
X00338189D02*
Y-00646549D01*
X00380539Y-00610018D02*
X00388872D01*
X00380539D02*
Y-00593351D01*
X00388872*
Y-00585018*
X00405539*
Y-00593351D02*
Y-00585018D01*
Y-00593351D02*
X00413872D01*
Y-00610018D02*
Y-00593351D01*
X00405539Y-00610018D02*
X00413872D01*
X00405539Y-00618351D02*
Y-00610018D01*
X00388872Y-00618351D02*
X00405539D01*
X00388872D02*
Y-00610018D01*
X00194195Y-006771D02*
X00202528D01*
X00194195D02*
Y-00660433D01*
X00202528*
Y-006521*
X00219195*
Y-00660433D02*
Y-006521D01*
Y-00660433D02*
X00227528D01*
Y-006771D02*
Y-00660433D01*
X00219195Y-006771D02*
X00227528D01*
X00219195Y-00685433D02*
Y-006771D01*
X00202528Y-00685433D02*
X00219195D01*
X00202528D02*
Y-006771D01*
X00044851Y-00364517D02*
X00053184D01*
X00044851D02*
Y-0034785D01*
X00053184*
Y-00339517*
X00069851*
Y-0034785D02*
Y-00339517D01*
Y-0034785D02*
X00078184D01*
Y-00364517D02*
Y-0034785D01*
X00069851Y-00364517D02*
X00078184D01*
X00069851Y-0037285D02*
Y-00364517D01*
X00053184Y-0037285D02*
X00069851D01*
X00053184D02*
Y-00364517D01*
X00041871Y-00324175D02*
X00050205D01*
X00041871D02*
Y-00307509D01*
X00050205*
Y-00299175*
X00066871*
Y-00307509D02*
Y-00299175D01*
Y-00307509D02*
X00075204D01*
Y-00324175D02*
Y-00307509D01*
X00066871Y-00324175D02*
X00075204D01*
X00066871Y-00332509D02*
Y-00324175D01*
X00050205Y-00332509D02*
X00066871D01*
X00050205D02*
Y-00324175D01*
X00220615Y00250614D02*
X00228948D01*
X00220615D02*
Y00267281D01*
X00228948*
Y00275614*
X00245615*
Y00267281D02*
Y00275614D01*
Y00267281D02*
X00253948D01*
Y00250614D02*
Y00267281D01*
X00245615Y00250614D02*
X00253948D01*
X00245615Y00242281D02*
Y00250614D01*
X00228948Y00242281D02*
X00245615D01*
X00228948D02*
Y00250614D01*
X00319208Y00094354D02*
X00327541D01*
X00319208D02*
Y0011102D01*
X00327541*
Y00119354*
X00344208*
Y0011102D02*
Y00119354D01*
Y0011102D02*
X00352541D01*
Y00094354D02*
Y0011102D01*
X00344208Y00094354D02*
X00352541D01*
X00344208Y0008602D02*
Y00094354D01*
X00327541Y0008602D02*
X00344208D01*
X00327541D02*
Y00094354D01*
X00615404Y-00365942D02*
X00623737D01*
X00615404D02*
Y-00349275D01*
X00623737*
Y-00340942*
X00640404*
Y-00349275D02*
Y-00340942D01*
Y-00349275D02*
X00648737D01*
Y-00365942D02*
Y-00349275D01*
X00640404Y-00365942D02*
X00648737D01*
X00640404Y-00374275D02*
Y-00365942D01*
X00623737Y-00374275D02*
X00640404D01*
X00623737D02*
Y-00365942D01*
X00543856Y-00327694D02*
X0055219D01*
X00543856D02*
Y-00311028D01*
X0055219*
Y-00302695*
X00568856*
Y-00311028D02*
Y-00302695D01*
Y-00311028D02*
X0057719D01*
Y-00327694D02*
Y-00311028D01*
X00568856Y-00327694D02*
X0057719D01*
X00568856Y-00336028D02*
Y-00327694D01*
X0055219Y-00336028D02*
X00568856D01*
X0055219D02*
Y-00327694D01*
X00564775Y-0031641D02*
X00573109D01*
X00564775D02*
Y-00299744D01*
X00573109*
Y-00291411*
X00589775*
Y-00299744D02*
Y-00291411D01*
Y-00299744D02*
X00598109D01*
Y-0031641D02*
Y-00299744D01*
X00589775Y-0031641D02*
X00598109D01*
X00589775Y-00324744D02*
Y-0031641D01*
X00573109Y-00324744D02*
X00589775D01*
X00573109D02*
Y-0031641D01*
X00514287Y-00321089D02*
X00522621D01*
X00514287D02*
Y-00304423D01*
X00522621*
Y-00296089*
X00539287*
Y-00304423D02*
Y-00296089D01*
Y-00304423D02*
X00547621D01*
Y-00321089D02*
Y-00304423D01*
X00539287Y-00321089D02*
X00547621D01*
X00539287Y-00329422D02*
Y-00321089D01*
X00522621Y-00329422D02*
X00539287D01*
X00522621D02*
Y-00321089D01*
X00582978Y-00410864D02*
X00591311D01*
X00582978D02*
Y-00394197D01*
X00591311*
Y-00385864*
X00607978*
Y-00394197D02*
Y-00385864D01*
Y-00394197D02*
X00616311D01*
Y-00410864D02*
Y-00394197D01*
X00607978Y-00410864D02*
X00616311D01*
X00607978Y-00419197D02*
Y-00410864D01*
X00591311Y-00419197D02*
X00607978D01*
X00591311D02*
Y-00410864D01*
X00387631Y-00575138D02*
X00395964D01*
X00387631D02*
Y-00558471D01*
X00395964*
Y-00550138*
X00412631*
Y-00558471D02*
Y-00550138D01*
Y-00558471D02*
X00420964D01*
Y-00575138D02*
Y-00558471D01*
X00412631Y-00575138D02*
X00420964D01*
X00412631Y-00583471D02*
Y-00575138D01*
X00395964Y-00583471D02*
X00412631D01*
X00395964D02*
Y-00575138D01*
X00696179Y-00260765D02*
X00704512D01*
X00696179D02*
Y-00244099D01*
X00704512*
Y-00235765*
X00721179*
Y-00244099D02*
Y-00235765D01*
Y-00244099D02*
X00729512D01*
Y-00260765D02*
Y-00244099D01*
X00721179Y-00260765D02*
X00729512D01*
X00721179Y-00269098D02*
Y-00260765D01*
X00704512Y-00269098D02*
X00721179D01*
X00704512D02*
Y-00260765D01*
X00201849Y-00563068D02*
X00210182D01*
X00201849D02*
Y-00546401D01*
X00210182*
Y-00538068*
X00226849*
Y-00546401D02*
Y-00538068D01*
Y-00546401D02*
X00235182D01*
Y-00563068D02*
Y-00546401D01*
X00226849Y-00563068D02*
X00235182D01*
X00226849Y-00571401D02*
Y-00563068D01*
X00210182Y-00571401D02*
X00226849D01*
X00210182D02*
Y-00563068D01*
X00226064Y-0058017D02*
X00234397D01*
X00226064D02*
Y-00563504D01*
X00234397*
Y-0055517*
X00251064*
Y-00563504D02*
Y-0055517D01*
Y-00563504D02*
X00259397D01*
Y-0058017D02*
Y-00563504D01*
X00251064Y-0058017D02*
X00259397D01*
X00251064Y-00588504D02*
Y-0058017D01*
X00234397Y-00588504D02*
X00251064D01*
X00234397D02*
Y-0058017D01*
X-00625074Y-00066916D02*
X-0061674D01*
X-00625074D02*
Y-0005025D01*
X-0061674*
Y-00041916*
X-00600074*
Y-0005025D02*
Y-00041916D01*
Y-0005025D02*
X-0059174D01*
Y-00066916D02*
Y-0005025D01*
X-00600074Y-00066916D02*
X-0059174D01*
X-00600074Y-00075249D02*
Y-00066916D01*
X-0061674Y-00075249D02*
X-00600074D01*
X-0061674D02*
Y-00066916D01*
X-00510603Y00039227D02*
X-0050227D01*
X-00510603D02*
Y00055894D01*
X-0050227*
Y00064227*
X-00485603*
Y00055894D02*
Y00064227D01*
Y00055894D02*
X-0047727D01*
Y00039227D02*
Y00055894D01*
X-00485603Y00039227D02*
X-0047727D01*
X-00485603Y00030894D02*
Y00039227D01*
X-0050227Y00030894D02*
X-00485603D01*
X-0050227D02*
Y00039227D01*
X-001672Y-00590404D02*
X-00158867D01*
X-001672D02*
Y-00573737D01*
X-00158867*
Y-00565404*
X-001422*
Y-00573737D02*
Y-00565404D01*
Y-00573737D02*
X-00133867D01*
Y-00590404D02*
Y-00573737D01*
X-001422Y-00590404D02*
X-00133867D01*
X-001422Y-00598737D02*
Y-00590404D01*
X-00158867Y-00598737D02*
X-001422D01*
X-00158867D02*
Y-00590404D01*
X-00187423Y-00584796D02*
X-00179089D01*
X-00187423D02*
Y-00568129D01*
X-00179089*
Y-00559796*
X-00162423*
Y-00568129D02*
Y-00559796D01*
Y-00568129D02*
X-00154089D01*
Y-00584796D02*
Y-00568129D01*
X-00162423Y-00584796D02*
X-00154089D01*
X-00162423Y-00593129D02*
Y-00584796D01*
X-00179089Y-00593129D02*
X-00162423D01*
X-00179089D02*
Y-00584796D01*
X00097956Y-00254143D02*
X0010629D01*
X00097956D02*
Y-00237476D01*
X0010629*
Y-00229143*
X00122956*
Y-00237476D02*
Y-00229143D01*
Y-00237476D02*
X0013129D01*
Y-00254143D02*
Y-00237476D01*
X00122956Y-00254143D02*
X0013129D01*
X00122956Y-00262476D02*
Y-00254143D01*
X0010629Y-00262476D02*
X00122956D01*
X0010629D02*
Y-00254143D01*
X-00568291Y00050089D02*
X-00559958D01*
X-00568291D02*
Y00066756D01*
X-00559958*
Y00075089*
X-00543291*
Y00066756D02*
Y00075089D01*
Y00066756D02*
X-00534958D01*
Y00050089D02*
Y00066756D01*
X-00543291Y00050089D02*
X-00534958D01*
X-00543291Y00041756D02*
Y00050089D01*
X-00559958Y00041756D02*
X-00543291D01*
X-00559958D02*
Y00050089D01*
X-00567867Y-00003523D02*
X-00559533D01*
X-00567867D02*
Y00013143D01*
X-00559533*
Y00021477*
X-00542867*
Y00013143D02*
Y00021477D01*
Y00013143D02*
X-00534533D01*
Y-00003523D02*
Y00013143D01*
X-00542867Y-00003523D02*
X-00534533D01*
X-00542867Y-00011856D02*
Y-00003523D01*
X-00559533Y-00011856D02*
X-00542867D01*
X-00559533D02*
Y-00003523D01*
X00248693Y-00170946D02*
X00257026D01*
X00248693D02*
Y-00154279D01*
X00257026*
Y-00145946*
X00273693*
Y-00154279D02*
Y-00145946D01*
Y-00154279D02*
X00282026D01*
Y-00170946D02*
Y-00154279D01*
X00273693Y-00170946D02*
X00282026D01*
X00273693Y-00179279D02*
Y-00170946D01*
X00257026Y-00179279D02*
X00273693D01*
X00257026D02*
Y-00170946D01*
X-00256318Y00182294D02*
X-00247984D01*
X-00256318D02*
Y0019896D01*
X-00247984*
Y00207294*
X-00231318*
Y0019896D02*
Y00207294D01*
Y0019896D02*
X-00222984D01*
Y00182294D02*
Y0019896D01*
X-00231318Y00182294D02*
X-00222984D01*
X-00231318Y0017396D02*
Y00182294D01*
X-00247984Y0017396D02*
X-00231318D01*
X-00247984D02*
Y00182294D01*
X-00291341Y00226261D02*
X-00283008D01*
X-00291341D02*
Y00242928D01*
X-00283008*
Y00251261*
X-00266341*
Y00242928D02*
Y00251261D01*
Y00242928D02*
X-00258008D01*
Y00226261D02*
Y00242928D01*
X-00266341Y00226261D02*
X-00258008D01*
X-00266341Y00217928D02*
Y00226261D01*
X-00283008Y00217928D02*
X-00266341D01*
X-00283008D02*
Y00226261D01*
X00250013Y-00057759D02*
X00258346D01*
X00250013D02*
Y-00041093D01*
X00258346*
Y-0003276*
X00275013*
Y-00041093D02*
Y-0003276D01*
Y-00041093D02*
X00283346D01*
Y-00057759D02*
Y-00041093D01*
X00275013Y-00057759D02*
X00283346D01*
X00275013Y-00066093D02*
Y-00057759D01*
X00258346Y-00066093D02*
X00275013D01*
X00258346D02*
Y-00057759D01*
X00293588Y-00109141D02*
X00301921D01*
X00293588D02*
Y-00092475D01*
X00301921*
Y-00084141*
X00318588*
Y-00092475D02*
Y-00084141D01*
Y-00092475D02*
X00326921D01*
Y-00109141D02*
Y-00092475D01*
X00318588Y-00109141D02*
X00326921D01*
X00318588Y-00117474D02*
Y-00109141D01*
X00301921Y-00117474D02*
X00318588D01*
X00301921D02*
Y-00109141D01*
X00174593Y00269691D02*
X00182926D01*
X00174593D02*
Y00286357D01*
X00182926*
Y00294691*
X00199592*
Y00286357D02*
Y00294691D01*
Y00286357D02*
X00207926D01*
Y00269691D02*
Y00286357D01*
X00199592Y00269691D02*
X00207926D01*
X00199592Y00261358D02*
Y00269691D01*
X00182926Y00261358D02*
X00199592D01*
X00182926D02*
Y00269691D01*
X00280678Y-00126955D02*
X00289011D01*
X00280678D02*
Y-00110288D01*
X00289011*
Y-00101955*
X00305678*
Y-00110288D02*
Y-00101955D01*
Y-00110288D02*
X00314011D01*
Y-00126955D02*
Y-00110288D01*
X00305678Y-00126955D02*
X00314011D01*
X00305678Y-00135288D02*
Y-00126955D01*
X00289011Y-00135288D02*
X00305678D01*
X00289011D02*
Y-00126955D01*
X-00225283Y00235925D02*
X-0021695D01*
X-00225283D02*
Y00252592D01*
X-0021695*
Y00260925*
X-00200283*
Y00252592D02*
Y00260925D01*
Y00252592D02*
X-0019195D01*
Y00235925D02*
Y00252592D01*
X-00200283Y00235925D02*
X-0019195D01*
X-00200283Y00227592D02*
Y00235925D01*
X-0021695Y00227592D02*
X-00200283D01*
X-0021695D02*
Y00235925D01*
X00242707Y0005154D02*
X0025104D01*
X00242707D02*
Y00068207D01*
X0025104*
Y0007654*
X00267706*
Y00068207D02*
Y0007654D01*
Y00068207D02*
X0027604D01*
Y0005154D02*
Y00068207D01*
X00267706Y0005154D02*
X0027604D01*
X00267706Y00043207D02*
Y0005154D01*
X0025104Y00043207D02*
X00267706D01*
X0025104D02*
Y0005154D01*
X-00291827Y00297264D02*
X-00283494D01*
X-00291827D02*
Y0031393D01*
X-00283494*
Y00322263*
X-00266827*
Y0031393D02*
Y00322263D01*
Y0031393D02*
X-00258494D01*
Y00297264D02*
Y0031393D01*
X-00266827Y00297264D02*
X-00258494D01*
X-00266827Y0028893D02*
Y00297264D01*
X-00283494Y0028893D02*
X-00266827D01*
X-00283494D02*
Y00297264D01*
X00646045Y-00317361D02*
X00654378D01*
X00646045D02*
Y-00300694D01*
X00654378*
Y-00292361*
X00671045*
Y-00300694D02*
Y-00292361D01*
Y-00300694D02*
X00679378D01*
Y-00317361D02*
Y-00300694D01*
X00671045Y-00317361D02*
X00679378D01*
X00671045Y-00325694D02*
Y-00317361D01*
X00654378Y-00325694D02*
X00671045D01*
X00654378D02*
Y-00317361D01*
X00706511Y-00229431D02*
X00714844D01*
X00706511D02*
Y-00212764D01*
X00714844*
Y-00204431*
X00731511*
Y-00212764D02*
Y-00204431D01*
Y-00212764D02*
X00739844D01*
Y-00229431D02*
Y-00212764D01*
X00731511Y-00229431D02*
X00739844D01*
X00731511Y-00237764D02*
Y-00229431D01*
X00714844Y-00237764D02*
X00731511D01*
X00714844D02*
Y-00229431D01*
X00656838Y-00163824D02*
X00665172D01*
X00656838D02*
Y-00147158D01*
X00665172*
Y-00138824*
X00681838*
Y-00147158D02*
Y-00138824D01*
Y-00147158D02*
X00690172D01*
Y-00163824D02*
Y-00147158D01*
X00681838Y-00163824D02*
X00690172D01*
X00681838Y-00172157D02*
Y-00163824D01*
X00665172Y-00172157D02*
X00681838D01*
X00665172D02*
Y-00163824D01*
X00324501Y-00178433D02*
X00332834D01*
X00324501D02*
Y-00161767D01*
X00332834*
Y-00153433*
X00349501*
Y-00161767D02*
Y-00153433D01*
Y-00161767D02*
X00357834D01*
Y-00178433D02*
Y-00161767D01*
X00349501Y-00178433D02*
X00357834D01*
X00349501Y-00186767D02*
Y-00178433D01*
X00332834Y-00186767D02*
X00349501D01*
X00332834D02*
Y-00178433D01*
X0065112Y-00190683D02*
X00659453D01*
X0065112D02*
Y-00174016D01*
X00659453*
Y-00165683*
X0067612*
Y-00174016D02*
Y-00165683D01*
Y-00174016D02*
X00684453D01*
Y-00190683D02*
Y-00174016D01*
X0067612Y-00190683D02*
X00684453D01*
X0067612Y-00199016D02*
Y-00190683D01*
X00659453Y-00199016D02*
X0067612D01*
X00659453D02*
Y-00190683D01*
X0053614Y-00231682D02*
X00544473D01*
X0053614D02*
Y-00215015D01*
X00544473*
Y-00206682*
X0056114*
Y-00215015D02*
Y-00206682D01*
Y-00215015D02*
X00569473D01*
Y-00231682D02*
Y-00215015D01*
X0056114Y-00231682D02*
X00569473D01*
X0056114Y-00240015D02*
Y-00231682D01*
X00544473Y-00240015D02*
X0056114D01*
X00544473D02*
Y-00231682D01*
X00551142Y-00484781D02*
X00559475D01*
X00551142D02*
Y-00468114D01*
X00559475*
Y-00459781*
X00576141*
Y-00468114D02*
Y-00459781D01*
Y-00468114D02*
X00584475D01*
Y-00484781D02*
Y-00468114D01*
X00576141Y-00484781D02*
X00584475D01*
X00576141Y-00493114D02*
Y-00484781D01*
X00559475Y-00493114D02*
X00576141D01*
X00559475D02*
Y-00484781D01*
X-00212405Y-00576799D02*
X-00204072D01*
X-00212405D02*
Y-00560132D01*
X-00204072*
Y-00551799*
X-00187405*
Y-00560132D02*
Y-00551799D01*
Y-00560132D02*
X-00179072D01*
Y-00576799D02*
Y-00560132D01*
X-00187405Y-00576799D02*
X-00179072D01*
X-00187405Y-00585132D02*
Y-00576799D01*
X-00204072Y-00585132D02*
X-00187405D01*
X-00204072D02*
Y-00576799D01*
X-00251582Y-0056176D02*
X-00243249D01*
X-00251582D02*
Y-00545093D01*
X-00243249*
Y-0053676*
X-00226583*
Y-00545093D02*
Y-0053676D01*
Y-00545093D02*
X-00218249D01*
Y-0056176D02*
Y-00545093D01*
X-00226583Y-0056176D02*
X-00218249D01*
X-00226583Y-00570093D02*
Y-0056176D01*
X-00243249Y-00570093D02*
X-00226583D01*
X-00243249D02*
Y-0056176D01*
X-00232125Y-00569621D02*
X-00223792D01*
X-00232125D02*
Y-00552955D01*
X-00223792*
Y-00544622*
X-00207125*
Y-00552955D02*
Y-00544622D01*
Y-00552955D02*
X-00198792D01*
Y-00569621D02*
Y-00552955D01*
X-00207125Y-00569621D02*
X-00198792D01*
X-00207125Y-00577955D02*
Y-00569621D01*
X-00223792Y-00577955D02*
X-00207125D01*
X-00223792D02*
Y-00569621D01*
X00127404Y00435069D02*
X00135737D01*
X00127404D02*
Y00451736D01*
X00135737*
Y00460069*
X00152404*
Y00451736D02*
Y00460069D01*
Y00451736D02*
X00160737D01*
Y00435069D02*
Y00451736D01*
X00152404Y00435069D02*
X00160737D01*
X00152404Y00426736D02*
Y00435069D01*
X00135737Y00426736D02*
X00152404D01*
X00135737D02*
Y00435069D01*
X00218393Y0011665D02*
X00226726D01*
X00218393D02*
Y00133316D01*
X00226726*
Y0014165*
X00243393*
Y00133316D02*
Y0014165D01*
Y00133316D02*
X00251726D01*
Y0011665D02*
Y00133316D01*
X00243393Y0011665D02*
X00251726D01*
X00243393Y00108317D02*
Y0011665D01*
X00226726Y00108317D02*
X00243393D01*
X00226726D02*
Y0011665D01*
X0017446Y00174963D02*
X00182793D01*
X0017446D02*
Y0019163D01*
X00182793*
Y00199963*
X0019946*
Y0019163D02*
Y00199963D01*
Y0019163D02*
X00207793D01*
Y00174963D02*
Y0019163D01*
X0019946Y00174963D02*
X00207793D01*
X0019946Y0016663D02*
Y00174963D01*
X00182793Y0016663D02*
X0019946D01*
X00182793D02*
Y00174963D01*
X00118449Y00221047D02*
X00126782D01*
X00118449D02*
Y00237714D01*
X00126782*
Y00246047*
X00143449*
Y00237714D02*
Y00246047D01*
Y00237714D02*
X00151782D01*
Y00221047D02*
Y00237714D01*
X00143449Y00221047D02*
X00151782D01*
X00143449Y00212714D02*
Y00221047D01*
X00126782Y00212714D02*
X00143449D01*
X00126782D02*
Y00221047D01*
X-00322053Y00193798D02*
X-0031372D01*
X-00322053D02*
Y00210464D01*
X-0031372*
Y00218798*
X-00297053*
Y00210464D02*
Y00218798D01*
Y00210464D02*
X-0028872D01*
Y00193798D02*
Y00210464D01*
X-00297053Y00193798D02*
X-0028872D01*
X-00297053Y00185464D02*
Y00193798D01*
X-0031372Y00185464D02*
X-00297053D01*
X-0031372D02*
Y00193798D01*
X00153898Y-00667856D02*
X00162231D01*
X00153898D02*
Y-00651189D01*
X00162231*
Y-00642856*
X00178897*
Y-00651189D02*
Y-00642856D01*
Y-00651189D02*
X00187231D01*
Y-00667856D02*
Y-00651189D01*
X00178897Y-00667856D02*
X00187231D01*
X00178897Y-00676189D02*
Y-00667856D01*
X00162231Y-00676189D02*
X00178897D01*
X00162231D02*
Y-00667856D01*
X00189363Y-0020372D02*
X00197696D01*
X00189363D02*
Y-00187053D01*
X00197696*
Y-0017872*
X00214363*
Y-00187053D02*
Y-0017872D01*
Y-00187053D02*
X00222696D01*
Y-0020372D02*
Y-00187053D01*
X00214363Y-0020372D02*
X00222696D01*
X00214363Y-00212053D02*
Y-0020372D01*
X00197696Y-00212053D02*
X00214363D01*
X00197696D02*
Y-0020372D01*
X00150872Y00198559D02*
X00159205D01*
X00150872D02*
Y00215226D01*
X00159205*
Y00223559*
X00175872*
Y00215226D02*
Y00223559D01*
Y00215226D02*
X00184205D01*
Y00198559D02*
Y00215226D01*
X00175872Y00198559D02*
X00184205D01*
X00175872Y00190226D02*
Y00198559D01*
X00159205Y00190226D02*
X00175872D01*
X00159205D02*
Y00198559D01*
X00087354Y00236724D02*
X00095688D01*
X00087354D02*
Y00253391D01*
X00095688*
Y00261724*
X00112354*
Y00253391D02*
Y00261724D01*
Y00253391D02*
X00120687D01*
Y00236724D02*
Y00253391D01*
X00112354Y00236724D02*
X00120687D01*
X00112354Y00228391D02*
Y00236724D01*
X00095688Y00228391D02*
X00112354D01*
X00095688D02*
Y00236724D01*
X-00403181Y00252374D02*
X-00394848D01*
X-00403181D02*
Y00269041D01*
X-00394848*
Y00277374*
X-00378181*
Y00269041D02*
Y00277374D01*
Y00269041D02*
X-00369848D01*
Y00252374D02*
Y00269041D01*
X-00378181Y00252374D02*
X-00369848D01*
X-00378181Y00244041D02*
Y00252374D01*
X-00394848Y00244041D02*
X-00378181D01*
X-00394848D02*
Y00252374D01*
X-00301667Y-00628333D02*
X-00293333D01*
X-00301667D02*
Y-00611667D01*
X-00293333*
Y-00603333*
X-00276667*
Y-00611667D02*
Y-00603333D01*
Y-00611667D02*
X-00268333D01*
Y-00628333D02*
Y-00611667D01*
X-00276667Y-00628333D02*
X-00268333D01*
X-00276667Y-00636667D02*
Y-00628333D01*
X-00293333Y-00636667D02*
X-00276667D01*
X-00293333D02*
Y-00628333D01*
X-00341667D02*
X-00333333D01*
X-00341667D02*
Y-00611667D01*
X-00333333*
Y-00603333*
X-00316667*
Y-00611667D02*
Y-00603333D01*
Y-00611667D02*
X-00308333D01*
Y-00628333D02*
Y-00611667D01*
X-00316667Y-00628333D02*
X-00308333D01*
X-00316667Y-00636667D02*
Y-00628333D01*
X-00333333Y-00636667D02*
X-00316667D01*
X-00333333D02*
Y-00628333D01*
X00314209Y00348204D02*
X00330876Y00381537D01*
X00297543D02*
X00330876D01*
X00297543D02*
X00314209Y00348204D01*
X00297237Y00329849D02*
X00313904Y00363182D01*
X00280571D02*
X00313904D01*
X00280571D02*
X00297237Y00329849D01*
X00280265Y00311491D02*
X00296932Y00344824D01*
X00263599D02*
X00296932D01*
X00263599D02*
X00280265Y00311491D01*
X00263293Y00293134D02*
X0027996Y00326467D01*
X00246627D02*
X0027996D01*
X00246627D02*
X00263293Y00293134D01*
X00285322Y00272769D02*
X00301988Y00306102D01*
X00268655D02*
X00301988D01*
X00268655D02*
X00285322Y00272769D01*
X00302293Y00291124D02*
X0031896Y00324457D01*
X00285627D02*
X0031896D01*
X00285627D02*
X00302293Y00291124D01*
X00319265Y00309483D02*
X00335931Y00342816D01*
X00302598D02*
X00335931D01*
X00302598D02*
X00319265Y00309483D01*
X00336237Y00327839D02*
X00352904Y00361172D01*
X0031957D02*
X00352904D01*
X0031957D02*
X00336237Y00327839D01*
X-00272436Y-00730605D02*
X-00264103D01*
X-00272436D02*
Y-00713938D01*
X-00264103*
Y-00705605*
X-00247436*
Y-00713938D02*
Y-00705605D01*
Y-00713938D02*
X-00239103D01*
Y-00730605D02*
Y-00713938D01*
X-00247436Y-00730605D02*
X-00239103D01*
X-00247436Y-00738938D02*
Y-00730605D01*
X-00264103Y-00738938D02*
X-00247436D01*
X-00264103D02*
Y-00730605D01*
X-00253442Y-00737053D02*
X-00245109D01*
X-00253442D02*
Y-00720386D01*
X-00245109*
Y-00712053*
X-00228442*
Y-00720386D02*
Y-00712053D01*
Y-00720386D02*
X-00220109D01*
Y-00737053D02*
Y-00720386D01*
X-00228442Y-00737053D02*
X-00220109D01*
X-00228442Y-00745386D02*
Y-00737053D01*
X-00245109Y-00745386D02*
X-00228442D01*
X-00245109D02*
Y-00737053D01*
X-00234285Y-00743001D02*
X-00225952D01*
X-00234285D02*
Y-00726335D01*
X-00225952*
Y-00718001*
X-00209285*
Y-00726335D02*
Y-00718001D01*
Y-00726335D02*
X-00200952D01*
Y-00743001D02*
Y-00726335D01*
X-00209285Y-00743001D02*
X-00200952D01*
X-00209285Y-00751334D02*
Y-00743001D01*
X-00225952Y-00751334D02*
X-00209285D01*
X-00225952D02*
Y-00743001D01*
X-00214979Y-00748446D02*
X-00206646D01*
X-00214979D02*
Y-00731779D01*
X-00206646*
Y-00723446*
X-00189979*
Y-00731779D02*
Y-00723446D01*
Y-00731779D02*
X-00181646D01*
Y-00748446D02*
Y-00731779D01*
X-00189979Y-00748446D02*
X-00181646D01*
X-00189979Y-00756779D02*
Y-00748446D01*
X-00206646Y-00756779D02*
X-00189979D01*
X-00206646D02*
Y-00748446D01*
X-00195537Y-00753384D02*
X-00187204D01*
X-00195537D02*
Y-00736717D01*
X-00187204*
Y-00728384*
X-00170537*
Y-00736717D02*
Y-00728384D01*
Y-00736717D02*
X-00162204D01*
Y-00753384D02*
Y-00736717D01*
X-00170537Y-00753384D02*
X-00162204D01*
X-00170537Y-00761717D02*
Y-00753384D01*
X-00187204Y-00761717D02*
X-00170537D01*
X-00187204D02*
Y-00753384D01*
X-00170603Y-00702696D02*
X-0016227D01*
X-00170603D02*
Y-00686029D01*
X-0016227*
Y-00677696*
X-00145603*
Y-00686029D02*
Y-00677696D01*
Y-00686029D02*
X-0013727D01*
Y-00702696D02*
Y-00686029D01*
X-00145603Y-00702696D02*
X-0013727D01*
X-00145603Y-00711029D02*
Y-00702696D01*
X-0016227Y-00711029D02*
X-00145603D01*
X-0016227D02*
Y-00702696D01*
X-00146276Y-00707645D02*
X-00137943D01*
X-00146276D02*
Y-00690978D01*
X-00137943*
Y-00682645*
X-00121276*
Y-00690978D02*
Y-00682645D01*
Y-00690978D02*
X-00112943D01*
Y-00707645D02*
Y-00690978D01*
X-00121276Y-00707645D02*
X-00112943D01*
X-00121276Y-00715978D02*
Y-00707645D01*
X-00137943Y-00715978D02*
X-00121276D01*
X-00137943D02*
Y-00707645D01*
X-00121792Y-00711742D02*
X-00113459D01*
X-00121792D02*
Y-00695076D01*
X-00113459*
Y-00686742*
X-00096792*
Y-00695076D02*
Y-00686742D01*
Y-00695076D02*
X-00088459D01*
Y-00711742D02*
Y-00695076D01*
X-00096792Y-00711742D02*
X-00088459D01*
X-00096792Y-00720075D02*
Y-00711742D01*
X-00113459Y-00720075D02*
X-00096792D01*
X-00113459D02*
Y-00711742D01*
X-00328317Y-00708311D02*
X-00319983D01*
X-00328317D02*
Y-00691644D01*
X-00319983*
Y-00683311*
X-00303317*
Y-00691644D02*
Y-00683311D01*
Y-00691644D02*
X-00294984D01*
Y-00708311D02*
Y-00691644D01*
X-00303317Y-00708311D02*
X-00294984D01*
X-00303317Y-00716644D02*
Y-00708311D01*
X-00319983Y-00716644D02*
X-00303317D01*
X-00319983D02*
Y-00708311D01*
X-00309887Y-00716229D02*
X-00301553D01*
X-00309887D02*
Y-00699563D01*
X-00301553*
Y-00691229*
X-00284887*
Y-00699563D02*
Y-00691229D01*
Y-00699563D02*
X-00276553D01*
Y-00716229D02*
Y-00699563D01*
X-00284887Y-00716229D02*
X-00276553D01*
X-00284887Y-00724562D02*
Y-00716229D01*
X-00301553Y-00724562D02*
X-00284887D01*
X-00301553D02*
Y-00716229D01*
X-00346533Y-00699913D02*
X-003382D01*
X-00346533D02*
Y-00683246D01*
X-003382*
Y-00674913*
X-00321533*
Y-00683246D02*
Y-00674913D01*
Y-00683246D02*
X-003132D01*
Y-00699913D02*
Y-00683246D01*
X-00321533Y-00699913D02*
X-003132D01*
X-00321533Y-00708246D02*
Y-00699913D01*
X-003382Y-00708246D02*
X-00321533D01*
X-003382D02*
Y-00699913D01*
X-00572464Y-00535765D02*
X-0056413D01*
X-00572464D02*
Y-00519098D01*
X-0056413*
Y-00510765*
X-00547464*
Y-00519098D02*
Y-00510765D01*
Y-00519098D02*
X-0053913D01*
Y-00535765D02*
Y-00519098D01*
X-00547464Y-00535765D02*
X-0053913D01*
X-00547464Y-00544098D02*
Y-00535765D01*
X-0056413Y-00544098D02*
X-00547464D01*
X-0056413D02*
Y-00535765D01*
X-0058608Y-00521035D02*
X-00577746D01*
X-0058608D02*
Y-00504369D01*
X-00577746*
Y-00496035*
X-0056108*
Y-00504369D02*
Y-00496035D01*
Y-00504369D02*
X-00552747D01*
Y-00521035D02*
Y-00504369D01*
X-0056108Y-00521035D02*
X-00552747D01*
X-0056108Y-00529369D02*
Y-00521035D01*
X-00577746Y-00529369D02*
X-0056108D01*
X-00577746D02*
Y-00521035D01*
X-00599306Y-00505954D02*
X-00590972D01*
X-00599306D02*
Y-00489287D01*
X-00590972*
Y-00480954*
X-00574306*
Y-00489287D02*
Y-00480954D01*
Y-00489287D02*
X-00565972D01*
Y-00505954D02*
Y-00489287D01*
X-00574306Y-00505954D02*
X-00565972D01*
X-00574306Y-00514287D02*
Y-00505954D01*
X-00590972Y-00514287D02*
X-00574306D01*
X-00590972D02*
Y-00505954D01*
X-00612132Y-00490532D02*
X-00603799D01*
X-00612132D02*
Y-00473865D01*
X-00603799*
Y-00465532*
X-00587132*
Y-00473865D02*
Y-00465532D01*
Y-00473865D02*
X-00578799D01*
Y-00490532D02*
Y-00473865D01*
X-00587132Y-00490532D02*
X-00578799D01*
X-00587132Y-00498865D02*
Y-00490532D01*
X-00603799Y-00498865D02*
X-00587132D01*
X-00603799D02*
Y-00490532D01*
X-00624551Y-00474779D02*
X-00616217D01*
X-00624551D02*
Y-00458113D01*
X-00616217*
Y-00449779*
X-00599551*
Y-00458113D02*
Y-00449779D01*
Y-00458113D02*
X-00591217D01*
Y-00474779D02*
Y-00458113D01*
X-00599551Y-00474779D02*
X-00591217D01*
X-00599551Y-00483112D02*
Y-00474779D01*
X-00616217Y-00483112D02*
X-00599551D01*
X-00616217D02*
Y-00474779D01*
X-00636552Y-00458707D02*
X-00628219D01*
X-00636552D02*
Y-0044204D01*
X-00628219*
Y-00433707*
X-00611553*
Y-0044204D02*
Y-00433707D01*
Y-0044204D02*
X-00603219D01*
Y-00458707D02*
Y-0044204D01*
X-00611553Y-00458707D02*
X-00603219D01*
X-00611553Y-0046704D02*
Y-00458707D01*
X-00628219Y-0046704D02*
X-00611553D01*
X-00628219D02*
Y-00458707D01*
X-00648129Y-00442326D02*
X-00639796D01*
X-00648129D02*
Y-00425659D01*
X-00639796*
Y-00417326*
X-0062313*
Y-00425659D02*
Y-00417326D01*
Y-00425659D02*
X-00614796D01*
Y-00442326D02*
Y-00425659D01*
X-0062313Y-00442326D02*
X-00614796D01*
X-0062313Y-00450659D02*
Y-00442326D01*
X-00639796Y-00450659D02*
X-0062313D01*
X-00639796D02*
Y-00442326D01*
X-00659274Y-00425647D02*
X-0065094D01*
X-00659274D02*
Y-00408981D01*
X-0065094*
Y-00400647*
X-00634274*
Y-00408981D02*
Y-00400647D01*
Y-00408981D02*
X-0062594D01*
Y-00425647D02*
Y-00408981D01*
X-00634274Y-00425647D02*
X-0062594D01*
X-00634274Y-00433981D02*
Y-00425647D01*
X-0065094Y-00433981D02*
X-00634274D01*
X-0065094D02*
Y-00425647D01*
X-00669977Y-00408683D02*
X-00661644D01*
X-00669977D02*
Y-00392016D01*
X-00661644*
Y-00383683*
X-00644977*
Y-00392016D02*
Y-00383683D01*
Y-00392016D02*
X-00636644D01*
Y-00408683D02*
Y-00392016D01*
X-00644977Y-00408683D02*
X-00636644D01*
X-00644977Y-00417016D02*
Y-00408683D01*
X-00661644Y-00417016D02*
X-00644977D01*
X-00661644D02*
Y-00408683D01*
X-00680234Y-00391444D02*
X-006719D01*
X-00680234D02*
Y-00374777D01*
X-006719*
Y-00366444*
X-00655234*
Y-00374777D02*
Y-00366444D01*
Y-00374777D02*
X-006469D01*
Y-00391444D02*
Y-00374777D01*
X-00655234Y-00391444D02*
X-006469D01*
X-00655234Y-00399777D02*
Y-00391444D01*
X-006719Y-00399777D02*
X-00655234D01*
X-006719D02*
Y-00391444D01*
X-00690035Y-00373942D02*
X-00681701D01*
X-00690035D02*
Y-00357276D01*
X-00681701*
Y-00348942*
X-00665035*
Y-00357276D02*
Y-00348942D01*
Y-00357276D02*
X-00656702D01*
Y-00373942D02*
Y-00357276D01*
X-00665035Y-00373942D02*
X-00656702D01*
X-00665035Y-00382276D02*
Y-00373942D01*
X-00681701Y-00382276D02*
X-00665035D01*
X-00681701D02*
Y-00373942D01*
X-00362154Y-00572117D02*
X-0035382D01*
X-00362154D02*
Y-0055545D01*
X-0035382*
Y-00547117*
X-00337154*
Y-0055545D02*
Y-00547117D01*
Y-0055545D02*
X-0032882D01*
Y-00572117D02*
Y-0055545D01*
X-00337154Y-00572117D02*
X-0032882D01*
X-00337154Y-0058045D02*
Y-00572117D01*
X-0035382Y-0058045D02*
X-00337154D01*
X-0035382D02*
Y-00572117D01*
X-00342267Y-00583831D02*
X-00333934D01*
X-00342267D02*
Y-00567164D01*
X-00333934*
Y-00558831*
X-00317267*
Y-00567164D02*
Y-00558831D01*
Y-00567164D02*
X-00308934D01*
Y-00583831D02*
Y-00567164D01*
X-00317267Y-00583831D02*
X-00308934D01*
X-00317267Y-00592164D02*
Y-00583831D01*
X-00333934Y-00592164D02*
X-00317267D01*
X-00333934D02*
Y-00583831D01*
X-00453187Y-00557115D02*
X-00444854D01*
X-00453187D02*
Y-00540448D01*
X-00444854*
Y-00532115*
X-00428187*
Y-00540448D02*
Y-00532115D01*
Y-00540448D02*
X-00419854D01*
Y-00557115D02*
Y-00540448D01*
X-00428187Y-00557115D02*
X-00419854D01*
X-00428187Y-00565448D02*
Y-00557115D01*
X-00444854Y-00565448D02*
X-00428187D01*
X-00444854D02*
Y-00557115D01*
X-00433769Y-00572015D02*
X-00425435D01*
X-00433769D02*
Y-00555348D01*
X-00425435*
Y-00547015*
X-00408769*
Y-00555348D02*
Y-00547015D01*
Y-00555348D02*
X-00400436D01*
Y-00572015D02*
Y-00555348D01*
X-00408769Y-00572015D02*
X-00400436D01*
X-00408769Y-00580348D02*
Y-00572015D01*
X-00425435Y-00580348D02*
X-00408769D01*
X-00425435D02*
Y-00572015D01*
X-00364524Y-00691041D02*
X-0035619D01*
X-00364524D02*
Y-00674375D01*
X-0035619*
Y-00666041*
X-00339524*
Y-00674375D02*
Y-00666041D01*
Y-00674375D02*
X-0033119D01*
Y-00691041D02*
Y-00674375D01*
X-00339524Y-00691041D02*
X-0033119D01*
X-00339524Y-00699375D02*
Y-00691041D01*
X-0035619Y-00699375D02*
X-00339524D01*
X-0035619D02*
Y-00691041D01*
X-00382276Y-00681701D02*
X-00373942D01*
X-00382276D02*
Y-00665035D01*
X-00373942*
Y-00656702*
X-00357276*
Y-00665035D02*
Y-00656702D01*
Y-00665035D02*
X-00348942D01*
Y-00681701D02*
Y-00665035D01*
X-00357276Y-00681701D02*
X-00348942D01*
X-00357276Y-00690035D02*
Y-00681701D01*
X-00373942Y-00690035D02*
X-00357276D01*
X-00373942D02*
Y-00681701D01*
X-00291256Y-00723662D02*
X-00282922D01*
X-00291256D02*
Y-00706996D01*
X-00282922*
Y-00698662*
X-00266256*
Y-00706996D02*
Y-00698662D01*
Y-00706996D02*
X-00257922D01*
Y-00723662D02*
Y-00706996D01*
X-00266256Y-00723662D02*
X-00257922D01*
X-00266256Y-00731995D02*
Y-00723662D01*
X-00282922Y-00731995D02*
X-00266256D01*
X-00282922D02*
Y-00723662D01*
X-00175973Y-00757811D02*
X-0016764D01*
X-00175973D02*
Y-00741144D01*
X-0016764*
Y-00732811*
X-00150973*
Y-00741144D02*
Y-00732811D01*
Y-00741144D02*
X-0014264D01*
Y-00757811D02*
Y-00741144D01*
X-00150973Y-00757811D02*
X-0014264D01*
X-00150973Y-00766144D02*
Y-00757811D01*
X-0016764Y-00766144D02*
X-00150973D01*
X-0016764D02*
Y-00757811D01*
X-00156299Y-00761724D02*
X-00147966D01*
X-00156299D02*
Y-00745057D01*
X-00147966*
Y-00736724*
X-00131299*
Y-00745057D02*
Y-00736724D01*
Y-00745057D02*
X-00122966D01*
Y-00761724D02*
Y-00745057D01*
X-00131299Y-00761724D02*
X-00122966D01*
X-00131299Y-00770057D02*
Y-00761724D01*
X-00147966Y-00770057D02*
X-00131299D01*
X-00147966D02*
Y-00761724D01*
X-0013653Y-00765121D02*
X-00128197D01*
X-0013653D02*
Y-00748454D01*
X-00128197*
Y-00740121*
X-0011153*
Y-00748454D02*
Y-00740121D01*
Y-00748454D02*
X-00103197D01*
Y-00765121D02*
Y-00748454D01*
X-0011153Y-00765121D02*
X-00103197D01*
X-0011153Y-00773454D02*
Y-00765121D01*
X-00128197Y-00773454D02*
X-0011153D01*
X-00128197D02*
Y-00765121D01*
X-00116678Y-00767999D02*
X-00108345D01*
X-00116678D02*
Y-00751333D01*
X-00108345*
Y-00742999*
X-00091679*
Y-00751333D02*
Y-00742999D01*
Y-00751333D02*
X-00083345D01*
Y-00767999D02*
Y-00751333D01*
X-00091679Y-00767999D02*
X-00083345D01*
X-00091679Y-00776332D02*
Y-00767999D01*
X-00108345Y-00776332D02*
X-00091679D01*
X-00108345D02*
Y-00767999D01*
X-00096758Y-00770357D02*
X-00088425D01*
X-00096758D02*
Y-0075369D01*
X-00088425*
Y-00745357*
X-00071759*
Y-0075369D02*
Y-00745357D01*
Y-0075369D02*
X-00063425D01*
Y-00770357D02*
Y-0075369D01*
X-00071759Y-00770357D02*
X-00063425D01*
X-00071759Y-0077869D02*
Y-00770357D01*
X-00088425Y-0077869D02*
X-00071759D01*
X-00088425D02*
Y-00770357D01*
X-00076784Y-00772192D02*
X-0006845D01*
X-00076784D02*
Y-00755526D01*
X-0006845*
Y-00747192*
X-00051784*
Y-00755526D02*
Y-00747192D01*
Y-00755526D02*
X-0004345D01*
Y-00772192D02*
Y-00755526D01*
X-00051784Y-00772192D02*
X-0004345D01*
X-00051784Y-00780526D02*
Y-00772192D01*
X-0006845Y-00780526D02*
X-00051784D01*
X-0006845D02*
Y-00772192D01*
X-00056767Y-00773504D02*
X-00048434D01*
X-00056767D02*
Y-00756838D01*
X-00048434*
Y-00748504*
X-00031768*
Y-00756838D02*
Y-00748504D01*
Y-00756838D02*
X-00023434D01*
Y-00773504D02*
Y-00756838D01*
X-00031768Y-00773504D02*
X-00023434D01*
X-00031768Y-00781837D02*
Y-00773504D01*
X-00048434Y-00781837D02*
X-00031768D01*
X-00048434D02*
Y-00773504D01*
X-00399777Y-006719D02*
X-00391444D01*
X-00399777D02*
Y-00655234D01*
X-00391444*
Y-006469*
X-00374777*
Y-00655234D02*
Y-006469D01*
Y-00655234D02*
X-00366444D01*
Y-006719D02*
Y-00655234D01*
X-00374777Y-006719D02*
X-00366444D01*
X-00374777Y-00680234D02*
Y-006719D01*
X-00391444Y-00680234D02*
X-00374777D01*
X-00391444D02*
Y-006719D01*
X-00417016Y-00661644D02*
X-00408683D01*
X-00417016D02*
Y-00644977D01*
X-00408683*
Y-00636644*
X-00392016*
Y-00644977D02*
Y-00636644D01*
Y-00644977D02*
X-00383683D01*
Y-00661644D02*
Y-00644977D01*
X-00392016Y-00661644D02*
X-00383683D01*
X-00392016Y-00669977D02*
Y-00661644D01*
X-00408683Y-00669977D02*
X-00392016D01*
X-00408683D02*
Y-00661644D01*
X-00433981Y-0065094D02*
X-00425647D01*
X-00433981D02*
Y-00634274D01*
X-00425647*
Y-0062594*
X-00408981*
Y-00634274D02*
Y-0062594D01*
Y-00634274D02*
X-00400647D01*
Y-0065094D02*
Y-00634274D01*
X-00408981Y-0065094D02*
X-00400647D01*
X-00408981Y-00659274D02*
Y-0065094D01*
X-00425647Y-00659274D02*
X-00408981D01*
X-00425647D02*
Y-0065094D01*
X-00450659Y-00639796D02*
X-00442326D01*
X-00450659D02*
Y-0062313D01*
X-00442326*
Y-00614796*
X-00425659*
Y-0062313D02*
Y-00614796D01*
Y-0062313D02*
X-00417326D01*
Y-00639796D02*
Y-0062313D01*
X-00425659Y-00639796D02*
X-00417326D01*
X-00425659Y-00648129D02*
Y-00639796D01*
X-00442326Y-00648129D02*
X-00425659D01*
X-00442326D02*
Y-00639796D01*
X-0046704Y-00628219D02*
X-00458707D01*
X-0046704D02*
Y-00611553D01*
X-00458707*
Y-00603219*
X-0044204*
Y-00611553D02*
Y-00603219D01*
Y-00611553D02*
X-00433707D01*
Y-00628219D02*
Y-00611553D01*
X-0044204Y-00628219D02*
X-00433707D01*
X-0044204Y-00636552D02*
Y-00628219D01*
X-00458707Y-00636552D02*
X-0044204D01*
X-00458707D02*
Y-00628219D01*
X-00514287Y-00590972D02*
X-00505954D01*
X-00514287D02*
Y-00574306D01*
X-00505954*
Y-00565972*
X-00489287*
Y-00574306D02*
Y-00565972D01*
Y-00574306D02*
X-00480954D01*
Y-00590972D02*
Y-00574306D01*
X-00489287Y-00590972D02*
X-00480954D01*
X-00489287Y-00599306D02*
Y-00590972D01*
X-00505954Y-00599306D02*
X-00489287D01*
X-00505954D02*
Y-00590972D01*
X-00529369Y-00577746D02*
X-00521035D01*
X-00529369D02*
Y-0056108D01*
X-00521035*
Y-00552747*
X-00504369*
Y-0056108D02*
Y-00552747D01*
Y-0056108D02*
X-00496035D01*
Y-00577746D02*
Y-0056108D01*
X-00504369Y-00577746D02*
X-00496035D01*
X-00504369Y-0058608D02*
Y-00577746D01*
X-00521035Y-0058608D02*
X-00504369D01*
X-00521035D02*
Y-00577746D01*
X-00544098Y-0056413D02*
X-00535765D01*
X-00544098D02*
Y-00547464D01*
X-00535765*
Y-0053913*
X-00519098*
Y-00547464D02*
Y-0053913D01*
Y-00547464D02*
X-00510765D01*
Y-0056413D02*
Y-00547464D01*
X-00519098Y-0056413D02*
X-00510765D01*
X-00519098Y-00572464D02*
Y-0056413D01*
X-00535765Y-00572464D02*
X-00519098D01*
X-00535765D02*
Y-0056413D01*
X-00558467Y-00550133D02*
X-00550133D01*
X-00558467D02*
Y-00533467D01*
X-00550133*
Y-00525134*
X-00533467*
Y-00533467D02*
Y-00525134D01*
Y-00533467D02*
X-00525134D01*
Y-00550133D02*
Y-00533467D01*
X-00533467Y-00550133D02*
X-00525134D01*
X-00533467Y-00558467D02*
Y-00550133D01*
X-00550133Y-00558467D02*
X-00533467D01*
X-00550133D02*
Y-00550133D01*
X00181924Y-00267142D02*
X00190257D01*
X00181924D02*
Y-00250475D01*
X00190257*
Y-00242142*
X00206924*
Y-00250475D02*
Y-00242142D01*
Y-00250475D02*
X00215257D01*
Y-00267142D02*
Y-00250475D01*
X00206924Y-00267142D02*
X00215257D01*
X00206924Y-00275475D02*
Y-00267142D01*
X00190257Y-00275475D02*
X00206924D01*
X00190257D02*
Y-00267142D01*
X00200017Y00541749D02*
X0020835D01*
X00200017D02*
Y00558416D01*
X0020835*
Y00566749*
X00225017*
Y00558416D02*
Y00566749D01*
Y00558416D02*
X0023335D01*
Y00541749D02*
Y00558416D01*
X00225017Y00541749D02*
X0023335D01*
X00225017Y00533416D02*
Y00541749D01*
X0020835Y00533416D02*
X00225017D01*
X0020835D02*
Y00541749D01*
X00284389Y00172559D02*
X00292722D01*
X00284389D02*
Y00189226D01*
X00292722*
Y00197559*
X00309389*
Y00189226D02*
Y00197559D01*
Y00189226D02*
X00317722D01*
Y00172559D02*
Y00189226D01*
X00309389Y00172559D02*
X00317722D01*
X00309389Y00164226D02*
Y00172559D01*
X00292722Y00164226D02*
X00309389D01*
X00292722D02*
Y00172559D01*
X-00519514Y-00328683D02*
X-00511181D01*
X-00519514D02*
Y-00312016D01*
X-00511181*
Y-00303683*
X-00494514*
Y-00312016D02*
Y-00303683D01*
Y-00312016D02*
X-00486181D01*
Y-00328683D02*
Y-00312016D01*
X-00494514Y-00328683D02*
X-00486181D01*
X-00494514Y-00337016D02*
Y-00328683D01*
X-00511181Y-00337016D02*
X-00494514D01*
X-00511181D02*
Y-00328683D01*
X-00470037Y-00395548D02*
X-00461703D01*
X-00470037D02*
Y-00378881D01*
X-00461703*
Y-00370548*
X-00445037*
Y-00378881D02*
Y-00370548D01*
Y-00378881D02*
X-00436703D01*
Y-00395548D02*
Y-00378881D01*
X-00445037Y-00395548D02*
X-00436703D01*
X-00445037Y-00403881D02*
Y-00395548D01*
X-00461703Y-00403881D02*
X-00445037D01*
X-00461703D02*
Y-00395548D01*
X-00441921Y-0042623D02*
X-00433588D01*
X-00441921D02*
Y-00409563D01*
X-00433588*
Y-0040123*
X-00416922*
Y-00409563D02*
Y-0040123D01*
Y-00409563D02*
X-00408588D01*
Y-0042623D02*
Y-00409563D01*
X-00416922Y-0042623D02*
X-00408588D01*
X-00416922Y-00434563D02*
Y-0042623D01*
X-00433588Y-00434563D02*
X-00416922D01*
X-00433588D02*
Y-0042623D01*
X-00411735Y-00454876D02*
X-00403401D01*
X-00411735D02*
Y-0043821D01*
X-00403401*
Y-00429877*
X-00386735*
Y-0043821D02*
Y-00429877D01*
Y-0043821D02*
X-00378401D01*
Y-00454876D02*
Y-0043821D01*
X-00386735Y-00454876D02*
X-00378401D01*
X-00386735Y-0046321D02*
Y-00454876D01*
X-00403401Y-0046321D02*
X-00386735D01*
X-00403401D02*
Y-00454876D01*
X-00495943Y-00362979D02*
X-0048761D01*
X-00495943D02*
Y-00346312D01*
X-0048761*
Y-00337979*
X-00470943*
Y-00346312D02*
Y-00337979D01*
Y-00346312D02*
X-0046261D01*
Y-00362979D02*
Y-00346312D01*
X-00470943Y-00362979D02*
X-0046261D01*
X-00470943Y-00371312D02*
Y-00362979D01*
X-0048761Y-00371312D02*
X-00470943D01*
X-0048761D02*
Y-00362979D01*
X-00540636Y-00292825D02*
X-00532303D01*
X-00540636D02*
Y-00276159D01*
X-00532303*
Y-00267825*
X-00515636*
Y-00276159D02*
Y-00267825D01*
Y-00276159D02*
X-00507303D01*
Y-00292825D02*
Y-00276159D01*
X-00515636Y-00292825D02*
X-00507303D01*
X-00515636Y-00301159D02*
Y-00292825D01*
X-00532303Y-00301159D02*
X-00515636D01*
X-00532303D02*
Y-00292825D01*
X-00498865Y-00603799D02*
X-00490532D01*
X-00498865D02*
Y-00587132D01*
X-00490532*
Y-00578799*
X-00473865*
Y-00587132D02*
Y-00578799D01*
Y-00587132D02*
X-00465532D01*
Y-00603799D02*
Y-00587132D01*
X-00473865Y-00603799D02*
X-00465532D01*
X-00473865Y-00612132D02*
Y-00603799D01*
X-00490532Y-00612132D02*
X-00473865D01*
X-00490532D02*
Y-00603799D01*
X-00478087Y-00588419D02*
X-00469754D01*
X-00478087D02*
Y-00571752D01*
X-00469754*
Y-00563419*
X-00453088*
Y-00571752D02*
Y-00563419D01*
Y-00571752D02*
X-00444754D01*
Y-00588419D02*
Y-00571752D01*
X-00453088Y-00588419D02*
X-00444754D01*
X-00453088Y-00596752D02*
Y-00588419D01*
X-00469754Y-00596752D02*
X-00453088D01*
X-00469754D02*
Y-00588419D01*
X00012444Y-00563792D02*
X00020777D01*
X00012444D02*
Y-00547125D01*
X00020777*
Y-00538792*
X00037444*
Y-00547125D02*
Y-00538792D01*
Y-00547125D02*
X00045777D01*
Y-00563792D02*
Y-00547125D01*
X00037444Y-00563792D02*
X00045777D01*
X00037444Y-00572125D02*
Y-00563792D01*
X00020777Y-00572125D02*
X00037444D01*
X00020777D02*
Y-00563792D01*
X-00458762Y-00584483D02*
X-00450429D01*
X-00458762D02*
Y-00567817D01*
X-00450429*
Y-00559483*
X-00433762*
Y-00567817D02*
Y-00559483D01*
Y-00567817D02*
X-00425429D01*
Y-00584483D02*
Y-00567817D01*
X-00433762Y-00584483D02*
X-00425429D01*
X-00433762Y-00592817D02*
Y-00584483D01*
X-00450429Y-00592817D02*
X-00433762D01*
X-00450429D02*
Y-00584483D01*
X-00483112Y-00616217D02*
X-00474779D01*
X-00483112D02*
Y-00599551D01*
X-00474779*
Y-00591217*
X-00458113*
Y-00599551D02*
Y-00591217D01*
Y-00599551D02*
X-00449779D01*
Y-00616217D02*
Y-00599551D01*
X-00458113Y-00616217D02*
X-00449779D01*
X-00458113Y-00624551D02*
Y-00616217D01*
X-00474779Y-00624551D02*
X-00458113D01*
X-00474779D02*
Y-00616217D01*
X-00242061Y00278311D02*
X-00225394Y00286644D01*
X-00208728Y00278311*
X-00217061Y00294978D02*
X-00208728Y00278311D01*
X-00217061Y00294978D02*
X-00208728Y00311644D01*
X-00225394Y00303311D02*
X-00208728Y00311644D01*
X-00242061D02*
X-00225394Y00303311D01*
X-00242061Y00311644D02*
X-00233728Y00294978D01*
X-00242061Y00278311D02*
X-00233728Y00294978D01*
X-0033721Y00097902D02*
X-00320544Y00106236D01*
X-00303877Y00097902*
X-00312211Y00114569D02*
X-00303877Y00097902D01*
X-00312211Y00114569D02*
X-00303877Y00131236D01*
X-00320544Y00122902D02*
X-00303877Y00131236D01*
X-0033721D02*
X-00320544Y00122902D01*
X-0033721Y00131236D02*
X-00328877Y00114569D01*
X-0033721Y00097902D02*
X-00328877Y00114569D01*
X-00399277Y00148371D02*
X-0038261Y00156704D01*
X-00365943Y00148371*
X-00374277Y00165037D02*
X-00365943Y00148371D01*
X-00374277Y00165037D02*
X-00365943Y00181704D01*
X-0038261Y00173371D02*
X-00365943Y00181704D01*
X-00399277D02*
X-0038261Y00173371D01*
X-00399277Y00181704D02*
X-00390943Y00165037D01*
X-00399277Y00148371D02*
X-00390943Y00165037D01*
X00076041Y-00736621D02*
X00092708Y-00728288D01*
X00109374Y-00736621*
X00101041Y-00719954D02*
X00109374Y-00736621D01*
X00101041Y-00719954D02*
X00109374Y-00703288D01*
X00092708Y-00711621D02*
X00109374Y-00703288D01*
X00076041D02*
X00092708Y-00711621D01*
X00076041Y-00703288D02*
X00084374Y-00719954D01*
X00076041Y-00736621D02*
X00084374Y-00719954D01*
X00152719Y-00713812D02*
X00169385Y-00705479D01*
X00186052Y-00713812*
X00177719Y-00697146D02*
X00186052Y-00713812D01*
X00177719Y-00697146D02*
X00186052Y-00680479D01*
X00169385Y-00688813D02*
X00186052Y-00680479D01*
X00152719D02*
X00169385Y-00688813D01*
X00152719Y-00680479D02*
X00161052Y-00697146D01*
X00152719Y-00713812D02*
X00161052Y-00697146D01*
X00057349Y-00533521D02*
X00074016Y-00525188D01*
X00090683Y-00533521*
X00082349Y-00516855D02*
X00090683Y-00533521D01*
X00082349Y-00516855D02*
X00090683Y-00500188D01*
X00074016Y-00508521D02*
X00090683Y-00500188D01*
X00057349D02*
X00074016Y-00508521D01*
X00057349Y-00500188D02*
X00065683Y-00516855D01*
X00057349Y-00533521D02*
X00065683Y-00516855D01*
X-00359983Y00428292D02*
X-0032665D01*
Y00461625*
X-00359983D02*
X-0032665D01*
X-00359983Y00428292D02*
Y00461625D01*
X-00555101Y00144389D02*
X-00521768D01*
Y00177722*
X-00555101D02*
X-00521768D01*
X-00555101Y00144389D02*
Y00177722D01*
X-00508144Y-00088162D02*
X-0049981Y-00096495D01*
X-00516477Y-00088162D02*
X-00508144D01*
X-00516477D02*
X-00508144Y-00079829D01*
X-00516477Y-00071496D02*
X-00508144Y-00079829D01*
X-00516477Y-00071496D02*
X-00508144D01*
X-0049981Y-00063162*
X-00491477Y-00071496*
X-00483144*
X-00491477Y-00079829D02*
X-00483144Y-00071496D01*
X-00491477Y-00079829D02*
X-00483144Y-00088162D01*
X-00491477D02*
X-00483144D01*
X-0049981Y-00096495D02*
X-00491477Y-00088162D01*
X-00490014Y-00164787D02*
X-0048168Y-0017312D01*
X-00498347Y-00164787D02*
X-00490014D01*
X-00498347D02*
X-00490014Y-00156454D01*
X-00498347Y-00148121D02*
X-00490014Y-00156454D01*
X-00498347Y-00148121D02*
X-00490014D01*
X-0048168Y-00139787*
X-00473347Y-00148121*
X-00465014*
X-00473347Y-00156454D02*
X-00465014Y-00148121D01*
X-00473347Y-00156454D02*
X-00465014Y-00164787D01*
X-00473347D02*
X-00465014D01*
X-0048168Y-0017312D02*
X-00473347Y-00164787D01*
G54D252*
X00203601Y04088315D02*
X11234519D01*
X00203601Y03188315D02*
X11234519D01*
X00203601Y03038315D02*
X11234519D01*
Y04238315*
X00203601D02*
X11234519D01*
X00203601Y03038315D02*
Y04238315D01*
X09855911Y03038315D02*
Y04238315D01*
X08522303Y03038315D02*
Y04238315D01*
X0766854Y03038315D02*
Y04238315D01*
X06518876Y03038315D02*
Y04238315D01*
X05773078Y03038315D02*
Y04238315D01*
X05183229Y03038315D02*
Y04238315D01*
X03683679Y03038315D02*
Y04238315D01*
X02949877Y03038315D02*
Y04238315D01*
X02444001Y03038315D02*
Y04238315D01*
X01344321Y03038315D02*
Y04238315D01*
X00754477Y03038315D02*
Y04238315D01*
G54D253*
X09900911Y04205291D02*
Y04133315D01*
Y04169303*
X09948895*
Y04205291*
Y04133315*
X09984883D02*
X10008876D01*
X10020872Y04145311*
Y04169303*
X10008876Y04181299*
X09984883*
X09972887Y04169303*
Y04145311*
X09984883Y04133315*
X10044864D02*
X10068856D01*
X1005686*
Y04205291*
X10044864*
X10140833Y04133315D02*
X10116841D01*
X10104845Y04145311*
Y04169303*
X10116841Y04181299*
X10140833*
X10152829Y04169303*
Y04157307*
X10104845*
X10248798Y04205291D02*
X10296783D01*
X1027279*
Y04133315*
X10332771D02*
X10356763D01*
X10368759Y04145311*
Y04169303*
X10356763Y04181299*
X10332771*
X10320775Y04169303*
Y04145311*
X10332771Y04133315*
X10392752D02*
X10416744D01*
X10404748*
Y04205291*
X10392752*
X1048872Y04133315D02*
X10464728D01*
X10452732Y04145311*
Y04169303*
X10464728Y04181299*
X1048872*
X10500717Y04169303*
Y04157307*
X10452732*
X10524709Y04181299D02*
Y04133315D01*
Y04157307*
X10536705Y04169303*
X10548701Y04181299*
X10560697*
X10608682D02*
X10632674D01*
X1064467Y04169303*
Y04133315*
X10608682*
X10596685Y04145311*
X10608682Y04157307*
X1064467*
X10668662Y04133315D02*
Y04181299D01*
X10704651*
X10716647Y04169303*
Y04133315*
X10788623Y04181299D02*
X10752635D01*
X10740639Y04169303*
Y04145311*
X10752635Y04133315*
X10788623*
X10848604D02*
X10824612D01*
X10812616Y04145311*
Y04169303*
X10824612Y04181299*
X10848604*
X108606Y04169303*
Y04157307*
X10812616*
X10980561Y04133315D02*
X10956569Y04157307D01*
Y04181299*
X10980561Y04205291*
X1101655Y04169303D02*
X11064534D01*
X11088526Y04133315D02*
X11112519Y04157307D01*
Y04181299*
X11088526Y04205291*
X08567303D02*
Y04133315D01*
Y04169303*
X08615287*
Y04205291*
Y04133315*
X08651276D02*
X08675268D01*
X08687264Y04145311*
Y04169303*
X08675268Y04181299*
X08651276*
X0863928Y04169303*
Y04145311*
X08651276Y04133315*
X08711256D02*
X08735248D01*
X08723252*
Y04205291*
X08711256*
X08807225Y04133315D02*
X08783233D01*
X08771237Y04145311*
Y04169303*
X08783233Y04181299*
X08807225*
X08819221Y04169303*
Y04157307*
X08771237*
X0891519Y04205291D02*
X08963175D01*
X08939183*
Y04133315*
X08999163D02*
X09023155D01*
X09035151Y04145311*
Y04169303*
X09023155Y04181299*
X08999163*
X08987167Y04169303*
Y04145311*
X08999163Y04133315*
X09059144D02*
X09083136D01*
X0907114*
Y04205291*
X09059144*
X09155113Y04133315D02*
X0913112D01*
X09119124Y04145311*
Y04169303*
X0913112Y04181299*
X09155113*
X09167109Y04169303*
Y04157307*
X09119124*
X09191101Y04181299D02*
Y04133315D01*
Y04157307*
X09203097Y04169303*
X09215093Y04181299*
X09227089*
X09275074D02*
X09299066D01*
X09311062Y04169303*
Y04133315*
X09275074*
X09263078Y04145311*
X09275074Y04157307*
X09311062*
X09335054Y04133315D02*
Y04181299D01*
X09371043*
X09383039Y04169303*
Y04133315*
X09455016Y04181299D02*
X09419027D01*
X09407031Y04169303*
Y04145311*
X09419027Y04133315*
X09455016*
X09514996D02*
X09491004D01*
X09479008Y04145311*
Y04169303*
X09491004Y04181299*
X09514996*
X09526992Y04169303*
Y04157307*
X09479008*
X09646953Y04133315D02*
X09622961Y04157307D01*
Y04181299*
X09646953Y04205291*
X09682942Y04169303D02*
X09730926D01*
X09706934Y04193295D02*
Y04145311D01*
X09754918Y04133315D02*
X09778911Y04157307D01*
Y04181299*
X09754918Y04205291*
X0771354D02*
Y04133315D01*
X07749528*
X07761524Y04145311*
Y04193295*
X07749528Y04205291*
X0771354*
X07821505Y04133315D02*
X07797512D01*
X07785516Y04145311*
Y04169303*
X07797512Y04181299*
X07821505*
X07833501Y04169303*
Y04157307*
X07785516*
X07857493Y04133315D02*
X07893481D01*
X07905478Y04145311*
X07893481Y04157307*
X07869489*
X07857493Y04169303*
X07869489Y04181299*
X07905478*
X07977454D02*
X07941466D01*
X0792947Y04169303*
Y04145311*
X07941466Y04133315*
X07977454*
X08001447Y04181299D02*
Y04133315D01*
Y04157307*
X08013443Y04169303*
X08025439Y04181299*
X08037435*
X08073423Y04133315D02*
X08097415D01*
X08085419*
Y04181299*
X08073423*
X08133404Y04109323D02*
Y04181299D01*
X08169392*
X08181388Y04169303*
Y04145311*
X08169392Y04133315*
X08133404*
X08217377Y04193295D02*
Y04181299D01*
X0820538*
X08229373*
X08217377*
Y04145311*
X08229373Y04133315*
X08265361D02*
X08289353D01*
X08277357*
Y04181299*
X08265361*
X08337338Y04133315D02*
X0836133D01*
X08373326Y04145311*
Y04169303*
X0836133Y04181299*
X08337338*
X08325342Y04169303*
Y04145311*
X08337338Y04133315*
X08397318D02*
Y04181299D01*
X08433307*
X08445303Y04169303*
Y04133315*
X06563876Y04205291D02*
X0661186D01*
X06587868*
Y04133315*
X06671841D02*
X06647849D01*
X06635853Y04145311*
Y04169303*
X06647849Y04181299*
X06671841*
X06683837Y04169303*
Y04157307*
X06635853*
X06707829Y04133315D02*
Y04181299D01*
X06719825*
X06731822Y04169303*
Y04133315*
Y04169303*
X06743818Y04181299*
X06755814Y04169303*
Y04133315*
X06779806Y04109323D02*
Y04181299D01*
X06815794*
X06827791Y04169303*
Y04145311*
X06815794Y04133315*
X06779806*
X06851783D02*
X06875775D01*
X06863779*
Y04205291*
X06851783*
X0692376Y04181299D02*
X06947752D01*
X06959748Y04169303*
Y04133315*
X0692376*
X06911763Y04145311*
X0692376Y04157307*
X06959748*
X06995736Y04193295D02*
Y04181299D01*
X0698374*
X07007732*
X06995736*
Y04145311*
X07007732Y04133315*
X07079709D02*
X07055717D01*
X07043721Y04145311*
Y04169303*
X07055717Y04181299*
X07079709*
X07091705Y04169303*
Y04157307*
X07043721*
X05818078Y04133315D02*
Y04205291D01*
X05854066*
X05866062Y04193295*
Y04169303*
X05854066Y04157307*
X05818078*
X05902051Y04181299D02*
X05926043D01*
X05938039Y04169303*
Y04133315*
X05902051*
X05890055Y04145311*
X05902051Y04157307*
X05938039*
X06010016Y04205291D02*
Y04133315D01*
X05974027*
X05962031Y04145311*
Y04169303*
X05974027Y04181299*
X06010016*
X06153969Y04193295D02*
X06141973Y04205291D01*
X06117981*
X06105985Y04193295*
Y04181299*
X06117981Y04169303*
X06141973*
X06153969Y04157307*
Y04145311*
X06141973Y04133315*
X06117981*
X06105985Y04145311*
X06177961Y04205291D02*
Y04133315D01*
Y04169303*
X06189958Y04181299*
X0621395*
X06225946Y04169303*
Y04133315*
X06261934Y04181299D02*
X06285926D01*
X06297923Y04169303*
Y04133315*
X06261934*
X06249938Y04145311*
X06261934Y04157307*
X06297923*
X06321915Y04109323D02*
Y04181299D01*
X06357903*
X06369899Y04169303*
Y04145311*
X06357903Y04133315*
X06321915*
X0642988D02*
X06405888D01*
X06393891Y04145311*
Y04169303*
X06405888Y04181299*
X0642988*
X06441876Y04169303*
Y04157307*
X06393891*
X05228229Y04205291D02*
Y04157307D01*
X05252221Y04133315*
X05276214Y04157307*
Y04205291*
X05300206Y04133315D02*
X05324198D01*
X05312202*
Y04181299*
X05300206*
X05372183D02*
X05396175D01*
X05408171Y04169303*
Y04133315*
X05372183*
X05360187Y04145311*
X05372183Y04157307*
X05408171*
X05432163Y04133315D02*
X05480148Y04181299D01*
X0550414Y04133315D02*
Y04205291D01*
X05540128*
X05552124Y04193295*
Y04169303*
X05540128Y04157307*
X0550414*
X05588113Y04181299D02*
X05612105D01*
X05624101Y04169303*
Y04133315*
X05588113*
X05576117Y04145311*
X05588113Y04157307*
X05624101*
X05696078Y04205291D02*
Y04133315D01*
X0566009*
X05648093Y04145311*
Y04169303*
X0566009Y04181299*
X05696078*
X03728679Y04205291D02*
Y04133315D01*
X03764667*
X03776663Y04145311*
Y04193295*
X03764667Y04205291*
X03728679*
X03800655Y04181299D02*
Y04133315D01*
Y04157307*
X03812652Y04169303*
X03824648Y04181299*
X03836644*
X03872632Y04133315D02*
X03896624D01*
X03884628*
Y04181299*
X03872632*
X03932613Y04133315D02*
X03956605D01*
X03944609*
Y04205291*
X03932613*
X03992593Y04133315D02*
X04016586D01*
X0400459*
Y04205291*
X03992593*
X04124551D02*
Y04133315D01*
X04172535*
X04208524Y04181299D02*
X04232516D01*
X04244512Y04169303*
Y04133315*
X04208524*
X04196527Y04145311*
X04208524Y04157307*
X04244512*
X04268504Y04181299D02*
Y04145311D01*
X042805Y04133315*
X04316489*
Y04121319*
X04304493Y04109323*
X04292496*
X04316489Y04133315D02*
Y04181299D01*
X04376469Y04133315D02*
X04352477D01*
X04340481Y04145311*
Y04169303*
X04352477Y04181299*
X04376469*
X04388465Y04169303*
Y04157307*
X04340481*
X04412458Y04181299D02*
Y04133315D01*
Y04157307*
X04424454Y04169303*
X0443645Y04181299*
X04448446*
X04556411Y04133315D02*
Y04205291D01*
X04592399*
X04604395Y04193295*
Y04169303*
X04592399Y04157307*
X04556411*
X04640384Y04181299D02*
X04664376D01*
X04676372Y04169303*
Y04133315*
X04640384*
X04628388Y04145311*
X04640384Y04157307*
X04676372*
X04700364Y04133315D02*
X04724356D01*
X0471236*
Y04181299*
X04700364*
X04760345D02*
Y04133315D01*
Y04157307*
X04772341Y04169303*
X04784337Y04181299*
X04796333*
X02994877Y04205291D02*
Y04133315D01*
Y04169303*
X03042861*
Y04205291*
Y04133315*
X0307885D02*
X03102842D01*
X03114838Y04145311*
Y04169303*
X03102842Y04181299*
X0307885*
X03066854Y04169303*
Y04145311*
X0307885Y04133315*
X0313883D02*
X03162822D01*
X03150826*
Y04205291*
X0313883*
X03234799Y04133315D02*
X03210807D01*
X03198811Y04145311*
Y04169303*
X03210807Y04181299*
X03234799*
X03246795Y04169303*
Y04157307*
X03198811*
X03342764Y04205291D02*
X03390749D01*
X03366756*
Y04133315*
X03414741Y04181299D02*
Y04145311D01*
X03426737Y04133315*
X03462725*
Y04121319*
X03450729Y04109323*
X03438733*
X03462725Y04133315D02*
Y04181299D01*
X03486718Y04109323D02*
Y04181299D01*
X03522706*
X03534702Y04169303*
Y04145311*
X03522706Y04133315*
X03486718*
X03594683D02*
X0357069D01*
X03558694Y04145311*
Y04169303*
X0357069Y04181299*
X03594683*
X03606679Y04169303*
Y04157307*
X03558694*
X02489001Y04133315D02*
Y04205291D01*
X02524989*
X02536985Y04193295*
Y04169303*
X02524989Y04157307*
X02489001*
X02560978Y04133315D02*
X0258497D01*
X02572974*
Y04205291*
X02560978*
X02632954Y04181299D02*
X02656947D01*
X02668943Y04169303*
Y04133315*
X02632954*
X02620958Y04145311*
X02632954Y04157307*
X02668943*
X02704931Y04193295D02*
Y04181299D01*
X02692935*
X02716927*
X02704931*
Y04145311*
X02716927Y04133315*
X02788904D02*
X02764912D01*
X02752916Y04145311*
Y04169303*
X02764912Y04181299*
X02788904*
X028009Y04169303*
Y04157307*
X02752916*
X02872877Y04205291D02*
Y04133315D01*
X02836888*
X02824892Y04145311*
Y04169303*
X02836888Y04181299*
X02872877*
X01389321Y04205291D02*
Y04133315D01*
Y04169303*
X01437306*
Y04205291*
Y04133315*
X01473294D02*
X01497286D01*
X01509283Y04145311*
Y04169303*
X01497286Y04181299*
X01473294*
X01461298Y04169303*
Y04145311*
X01473294Y04133315*
X01533275D02*
X01557267D01*
X01545271*
Y04205291*
X01533275*
X01629244Y04133315D02*
X01605251D01*
X01593255Y04145311*
Y04169303*
X01605251Y04181299*
X01629244*
X0164124Y04169303*
Y04157307*
X01593255*
X01785193Y04193295D02*
X01773197Y04205291D01*
X01749205*
X01737209Y04193295*
Y04181299*
X01749205Y04169303*
X01773197*
X01785193Y04157307*
Y04145311*
X01773197Y04133315*
X01749205*
X01737209Y04145311*
X01809185Y04133315D02*
X01833178D01*
X01821181*
Y04181299*
X01809185*
X01869166D02*
X0191715D01*
X01869166Y04133315*
X0191715*
X01977131D02*
X01953139D01*
X01941143Y04145311*
Y04169303*
X01953139Y04181299*
X01977131*
X01989127Y04169303*
Y04157307*
X01941143*
X00847461Y04193295D02*
X00835465Y04205291D01*
X00811473*
X00799477Y04193295*
Y04145311*
X00811473Y04133315*
X00835465*
X00847461Y04145311*
X00883449Y04133315D02*
X00907442D01*
X00919438Y04145311*
Y04169303*
X00907442Y04181299*
X00883449*
X00871453Y04169303*
Y04145311*
X00883449Y04133315*
X0094343Y04181299D02*
Y04145311D01*
X00955426Y04133315*
X00991414*
Y04181299*
X01015407Y04133315D02*
Y04181299D01*
X01051395*
X01063391Y04169303*
Y04133315*
X0109938Y04193295D02*
Y04181299D01*
X01087383*
X01111376*
X0109938*
Y04145311*
X01111376Y04133315*
X00341585Y04193295D02*
X00329589Y04205291D01*
X00305597*
X00293601Y04193295*
Y04181299*
X00305597Y04169303*
X00329589*
X00341585Y04157307*
Y04145311*
X00329589Y04133315*
X00305597*
X00293601Y04145311*
X00365578Y04181299D02*
Y04145311D01*
X00377574Y04133315*
X00413562*
Y04121319*
X00401566Y04109323*
X0038957*
X00413562Y04133315D02*
Y04181299D01*
X00437554Y04133315D02*
Y04181299D01*
X0044955*
X00461546Y04169303*
Y04133315*
Y04169303*
X00473543Y04181299*
X00485539Y04169303*
Y04133315*
X00509531Y04205291D02*
Y04133315D01*
X00545519*
X00557515Y04145311*
Y04157307*
Y04169303*
X00545519Y04181299*
X00509531*
X00593504Y04133315D02*
X00617496D01*
X00629492Y04145311*
Y04169303*
X00617496Y04181299*
X00593504*
X00581508Y04169303*
Y04145311*
X00593504Y04133315*
X00653484D02*
X00677477D01*
X00665481*
Y04205291*
X00653484*
G54D254*
X0132629Y02898347D02*
Y02838367D01*
Y02868357*
X01366277*
Y02898347*
Y02838367*
X01396268D02*
X01416261D01*
X01426258Y02848363*
Y02868357*
X01416261Y02878354*
X01396268*
X01386271Y02868357*
Y02848363*
X01396268Y02838367*
X01446252D02*
X01466245D01*
X01456248*
Y02898347*
X01446252*
X01526226Y02838367D02*
X01506232D01*
X01496235Y02848363*
Y02868357*
X01506232Y02878354*
X01526226*
X01536222Y02868357*
Y0285836*
X01496235*
X01616197Y02898347D02*
Y02838367D01*
X01656184*
X01706167D02*
X01686174D01*
X01676177Y02848363*
Y02868357*
X01686174Y02878354*
X01706167*
X01716164Y02868357*
Y0285836*
X01676177*
X01736158Y02838367D02*
Y02878354D01*
X01766148*
X01776145Y02868357*
Y02838367*
X01816132Y02818373D02*
X01826129D01*
X01836125Y0282837*
Y02878354*
X01806135*
X01796138Y02868357*
Y02848363*
X01806135Y02838367*
X01836125*
X01866116Y0288835D02*
Y02878354D01*
X01856119*
X01876112*
X01866116*
Y02848363*
X01876112Y02838367*
X01906103Y02898347D02*
Y02838367D01*
Y02868357*
X019161Y02878354*
X01936093*
X0194609Y02868357*
Y02838367*
X0132629Y02938341D02*
Y02998321D01*
X01356281*
X01366277Y02988324*
Y02968331*
X01356281Y02958334*
X0132629*
X01346284D02*
X01366277Y02938341D01*
X01396268D02*
X01416261D01*
X01426258Y02948337*
Y02968331*
X01416261Y02978328*
X01396268*
X01386271Y02968331*
Y02948337*
X01396268Y02938341*
X01446252Y02978328D02*
Y02948337D01*
X01456248Y02938341*
X01486239*
Y02978328*
X01516229Y02988324D02*
Y02978328D01*
X01506232*
X01526226*
X01516229*
Y02948337*
X01526226Y02938341*
X01586206D02*
X01566213D01*
X01556216Y02948337*
Y02968331*
X01566213Y02978328*
X01586206*
X01596203Y02968331*
Y02958334*
X01556216*
X01656184Y02998321D02*
Y02938341D01*
X01626193*
X01616197Y02948337*
Y02968331*
X01626193Y02978328*
X01656184*
X01736158Y02938341D02*
Y02998321D01*
X01766148*
X01776145Y02988324*
Y02968331*
X01766148Y02958334*
X01736158*
X01806135Y02978328D02*
X01826129D01*
X01836125Y02968331*
Y02938341*
X01806135*
X01796138Y02948337*
X01806135Y02958334*
X01836125*
X01866116Y02988324D02*
Y02978328D01*
X01856119*
X01876112*
X01866116*
Y02948337*
X01876112Y02938341*
X01906103Y02998321D02*
Y02938341D01*
Y02968331*
X019161Y02978328*
X01936093*
X0194609Y02968331*
Y02938341*
X02026064Y02998321D02*
Y02938341D01*
X02066051*
X02116035D02*
X02096041D01*
X02086044Y02948337*
Y02968331*
X02096041Y02978328*
X02116035*
X02126032Y02968331*
Y02958334*
X02086044*
X02146025Y02938341D02*
Y02978328D01*
X02176015*
X02186012Y02968331*
Y02938341*
X02225999Y02918347D02*
X02235996D01*
X02245993Y02928344*
Y02978328*
X02216003*
X02206006Y02968331*
Y02948337*
X02216003Y02938341*
X02245993*
X02275983Y02988324D02*
Y02978328D01*
X02265986*
X0228598*
X02275983*
Y02948337*
X0228598Y02938341*
X0231597Y02998321D02*
Y02938341D01*
Y02968331*
X02325967Y02978328*
X0234596*
X02355957Y02968331*
Y02938341*
X00333588Y02988324D02*
X00323591Y02998321D01*
X00303598*
X00293601Y02988324*
Y02978328*
X00303598Y02968331*
X00323591*
X00333588Y02958334*
Y02948337*
X00323591Y02938341*
X00303598*
X00293601Y02948337*
X00353582Y02938341D02*
X00373575D01*
X00363578*
Y02998321*
X00353582*
X00413562Y02938341D02*
X00433556D01*
X00443552Y02948337*
Y02968331*
X00433556Y02978328*
X00413562*
X00403565Y02968331*
Y02948337*
X00413562Y02938341*
X00473543Y02988324D02*
Y02978328D01*
X00463546*
X00483539*
X00473543*
Y02948337*
X00483539Y02938341*
X00613497Y02998321D02*
Y02938341D01*
X00583507*
X0057351Y02948337*
Y02968331*
X00583507Y02978328*
X00613497*
X00663481Y02938341D02*
X00643488D01*
X00633491Y02948337*
Y02968331*
X00643488Y02978328*
X00663481*
X00673478Y02968331*
Y02958334*
X00633491*
X00703468Y02938341D02*
Y02988324D01*
Y02968331*
X00693471*
X00713465*
X00703468*
Y02988324*
X00713465Y02998321*
X00743455Y02938341D02*
X00763449D01*
X00753452*
Y02978328*
X00743455*
X00793439Y02938341D02*
Y02978328D01*
X00823429*
X00833426Y02968331*
Y02938341*
X0085342D02*
X00873413D01*
X00863417*
Y02978328*
X0085342*
X009134Y02988324D02*
Y02978328D01*
X00903404*
X00923397*
X009134*
Y02948337*
X00923397Y02938341*
X00953387D02*
X00973381D01*
X00963384*
Y02978328*
X00953387*
X01013368Y02938341D02*
X01033361D01*
X01043358Y02948337*
Y02968331*
X01033361Y02978328*
X01013368*
X01003371Y02968331*
Y02948337*
X01013368Y02938341*
X01063352D02*
Y02978328D01*
X01093342*
X01103339Y02968331*
Y02938341*
X01123332D02*
X01153323D01*
X01163319Y02948337*
X01153323Y02958334*
X01133329*
X01123332Y02968331*
X01133329Y02978328*
X01163319*
X01243293D02*
X0125329D01*
Y02968331*
X01243293*
Y02978328*
Y02948337D02*
X0125329D01*
Y02938341*
X01243293*
Y02948337*
M02*