%FSTAX26Y26*%
%MOIN*%
%SFA1B1*%

%IPPOS*%
%AMD98*
4,1,4,0.017500,0.028400,-0.028400,0.017500,-0.017500,-0.028400,0.028400,-0.017500,0.017500,0.028400,0.0*
%
%AMD99*
4,1,4,0.039800,-0.001100,-0.015300,0.036700,-0.039800,0.001100,0.015300,-0.036700,0.039800,-0.001100,0.0*
1,1,0.043307,-0.027500,0.018900*
1,1,0.043307,0.027500,-0.018900*
%
%AMD100*
4,1,4,0.009800,-0.022100,0.024200,-0.001200,-0.009800,0.022100,-0.024200,0.001200,0.009800,-0.022100,0.0*
1,1,0.041339,0.007200,0.010500*
1,1,0.041339,-0.007200,-0.010500*
%
%ADD16C,0.010000*%
%ADD17C,0.009999*%
%ADD97C,0.047244*%
G04~CAMADD=98~10~0.0~472.4~0.0~0.0~0.0~0.0~0~0.0~0.0~0.0~0.0~0~0.0~0.0~0.0~0.0~0~0.0~0.0~0.0~373.3~472.4~0.0*
%ADD98D98*%
G04~CAMADD=99~3~0.0~0.0~1102.4~433.1~0.0~0.0~0~0.0~0.0~0.0~0.0~0~0.0~0.0~0.0~0.0~0~0.0~0.0~0.0~325.5~982.0~808.0*
%ADD99D99*%
G04~CAMADD=100~3~0.0~0.0~669.3~413.4~0.0~0.0~0~0.0~0.0~0.0~0.0~0~0.0~0.0~0.0~0.0~0~0.0~0.0~0.0~235.5~556.0~622.0*
%ADD100D100*%
%ADD101C,0.033465*%
%ADD102C,0.016000*%
%ADD103C,0.024000*%
%LNflagmate_copper_signal_3-1*%
%LPD*%
%SRX1Y1I0J0*%
G36*
X0007622Y00773878D02*
X00126672Y00767236D01*
X00176579Y00757309*
X00225732Y00744138*
X00273918Y00727782*
X00320931Y00708308*
X00366569Y00685802*
X00410637Y00660359*
X00452947Y00632088*
X00493319Y0060111*
X00531577Y00567559*
X00567559Y00531577*
X0060111Y00493319*
X00632088Y00452947*
X00660359Y00410636*
X00685802Y00366568*
X00708308Y00320931*
X00727782Y00273918*
X00744138Y00225732*
X00757309Y00176579*
X00767236Y00126671*
X00773878Y0007622*
X00777206Y00025442*
Y0*
Y-00025443*
X00773878Y-0007622*
X00767236Y-00126672*
X00757309Y-00176579*
X00744138Y-00225732*
X00727782Y-00273918*
X00708308Y-00320931*
X00685802Y-00366569*
X00660359Y-00410637*
X00632088Y-00452947*
X0060111Y-00493319*
X00567559Y-00531577*
X00531577Y-00567559*
X00493319Y-0060111*
X00452947Y-00632088*
X00410636Y-00660359*
X00366568Y-00685802*
X00320931Y-00708308*
X00273918Y-00727782*
X00225732Y-00744138*
X00176579Y-00757309*
X00126671Y-00767236*
X0007622Y-00773878*
X00025442Y-00777206*
X-00025443*
X-00029495Y-00776941*
X-000302Y-00775069*
X-00028232Y-00773101*
X-00026101Y-00767956*
Y-00762386*
X-00028232Y-0075724*
X-0003217Y-00753302*
X-00037316Y-00751171*
X-00042886*
X-00048031Y-00753302*
X-00049453Y-00754724*
X-00052187Y-0075199*
X-00057332Y-00749859*
X-00062902*
X-00068047Y-0075199*
X-00069187Y-0075313*
X-00072162Y-00750155*
X-00077307Y-00748024*
X-00082877*
X-00088022Y-00750155*
X-00088873Y-00751006*
X-00092082Y-00747797*
X-00097227Y-00745666*
X-00102797*
X-00107942Y-00747797*
X-00108498Y-00748353*
X-00111933Y-00744919*
X-00117079Y-00742788*
X-00122648*
X-00127794Y-00744919*
X-0012805Y-00745175*
X-00131702Y-00741522*
X-00136848Y-00739391*
X-00142417*
X-00147492Y-00741492*
X-00151376Y-00737609*
X-00156522Y-00735477*
X-00162091*
X-00166864Y-00737454*
X-00167002Y-0073712*
X-0017094Y-00733182*
X-00176086Y-0073105*
X-00181655*
X-00186143Y-00732909*
X-00186444Y-00732182*
X-00190382Y-00728244*
X-00195528Y-00726113*
X-00201097*
X-00205289Y-00727849*
X-0020575Y-00726737*
X-00209688Y-00722799*
X-00214834Y-00720668*
X-00220403*
X-0022429Y-00722278*
X-00224907Y-00720789*
X-00228845Y-00716851*
X-0023399Y-0071472*
X-0023956*
X-00243132Y-00716199*
X-00243901Y-00714341*
X-00247839Y-00710403*
X-00252985Y-00708272*
X-00258555*
X-00261802Y-00709617*
X-0026272Y-00707399*
X-00266659Y-0070346*
X-00271804Y-00701329*
X-00277374*
X-00280287Y-00702536*
X-00281351Y-00699966*
X-0028529Y-00696027*
X-00290435Y-00693896*
X-00296005*
X-00298575Y-0069496*
X-00299782Y-00692047*
X-0030372Y-00688109*
X-00308865Y-00685978*
X-00314435*
X-00316653Y-00686896*
X-00317998Y-00683649*
X-00321936Y-00679711*
X-00327082Y-0067758*
X-00332651*
X-00334509Y-00678349*
X-00335988Y-00674778*
X-00339927Y-00670839*
X-00345072Y-00668708*
X-00350642*
X-0035213Y-00669324*
X-0035374Y-00665438*
X-00357679Y-006615*
X-00362824Y-00659368*
X-00368394*
X-00369505Y-00659828*
X-00371242Y-00655636*
X-0037518Y-00651698*
X-00380326Y-00649567*
X-00385895*
X-00386622Y-00649868*
X-00388481Y-0064538*
X-00392419Y-00641442*
X-00397565Y-00639311*
X-00403134*
X-00403468Y-00639449*
X-00405445Y-00634677*
X-00409384Y-00630738*
X-00414529Y-00628607*
X-00420022*
X-00422124Y-00623532*
X-00426062Y-00619594*
X-00431208Y-00617463*
X-00436373*
Y-00617101*
X-00438505Y-00611955*
X-00442443Y-00608017*
X-00447589Y-00605886*
X-00452446*
Y-00605099*
X-00454577Y-00599954*
X-00458515Y-00596015*
X-00463661Y-00593884*
X-00468199*
Y-00592681*
X-0047033Y-00587535*
X-00474268Y-00583597*
X-00479414Y-00581466*
X-00483621*
Y-00579854*
X-00485752Y-00574709*
X-0048969Y-0057077*
X-00494836Y-00568639*
X-00498702*
Y-00566628*
X-00500833Y-00561483*
X-00504772Y-00557545*
X-00509917Y-00555413*
X-00513432*
Y-00553012*
X-00515563Y-00547867*
X-00519501Y-00543928*
X-00524647Y-00541797*
X-005278*
Y-00539015*
X-00529932Y-0053387*
X-0053387Y-00529932*
X-00539015Y-005278*
X-00541797*
Y-00524647*
X-00543928Y-00519501*
X-00547867Y-00515563*
X-00553012Y-00513432*
X-00555413*
Y-00509917*
X-00557545Y-00504772*
X-00561483Y-00500833*
X-00566628Y-00498702*
X-00568639*
Y-00494836*
X-0057077Y-0048969*
X-00574709Y-00485752*
X-00579854Y-00483621*
X-00581466*
Y-00479414*
X-00583597Y-00474268*
X-00587535Y-0047033*
X-00592681Y-00468199*
X-00593884*
Y-00463661*
X-00596015Y-00458515*
X-00599954Y-00454577*
X-00605099Y-00452446*
X-00605886*
Y-00447589*
X-00608017Y-00442443*
X-00611955Y-00438505*
X-00617101Y-00436373*
X-00617463*
Y-00431208*
X-00619594Y-00426062*
X-00623532Y-00422124*
X-00628607Y-00420022*
Y-00414529*
X-00630738Y-00409384*
X-00634677Y-00405445*
X-00639449Y-00403468*
X-00639311Y-00403134*
Y-00397565*
X-00641442Y-00392419*
X-0064538Y-00388481*
X-00649868Y-00386622*
X-00649567Y-00385895*
Y-00380326*
X-00651698Y-0037518*
X-00655636Y-00371242*
X-00659828Y-00369505*
X-00659368Y-00368394*
Y-00362824*
X-006615Y-00357679*
X-00665438Y-0035374*
X-00670583Y-00351609*
X-00676153*
X-00681298Y-0035374*
X-00685237Y-00357679*
X-00686478Y-00360676*
X-00688673Y-00360748*
X-00708308Y-00320931*
X-00727782Y-00273918*
X-00744138Y-00225732*
X-00757309Y-00176579*
X-00767236Y-00126671*
X-00773878Y-0007622*
X-00777206Y-00025443*
Y0*
Y00025443*
X-00773878Y0007622*
X-00767236Y00126672*
X-00757309Y00176579*
X-00744139Y00225732*
X-00727782Y00273918*
X-00708308Y00320931*
X-00685802Y00366569*
X-00660359Y00410637*
X-00632088Y00452947*
X-0060111Y00493319*
X-00567559Y00531577*
X-00531577Y00567559*
X-00493319Y0060111*
X-00452947Y00632088*
X-00410637Y00660359*
X-00366568Y00685802*
X-00320931Y00708308*
X-00273918Y00727782*
X-00225732Y00744138*
X-00176579Y00757309*
X-00126671Y00767236*
X-0007622Y00773878*
X-00025443Y00777206*
X00025443*
X0007622Y00773878*
G37*
%LNflagmate_copper_signal_3-2*%
%LPC*%
%SRX1Y1I0J0*%
G36*
X00219468Y00564082D02*
X00213898D01*
X00208753Y00561951*
X00204815Y00558013*
X00202683Y00552867*
Y00547298*
X00204815Y00542152*
X00208753Y00538214*
X00213898Y00536082*
X00219468*
X00224614Y00538214*
X00228552Y00542152*
X00230683Y00547298*
Y00552867*
X00228552Y00558013*
X00224614Y00561951*
X00219468Y00564082*
G37*
G36*
X-0047642Y00593217D02*
X-00483692Y00592836D01*
X-00490617Y00590586*
X-00496723Y0058662*
X-00501595Y00581209*
X-00504901Y00574721*
X-00506415Y00567599*
X-00506034Y00560328*
X-00503784Y00553403*
X-00499818Y00547297*
X-00494407Y00542424*
X-00439249Y00504515*
X-00432761Y0050121*
X-00425639Y00499696*
X-00418368Y00500077*
X-00411443Y00502327*
X-00405336Y00506293*
X-00400464Y00511704*
X-00397158Y00518191*
X-00395644Y00525313*
X-00396026Y00532585*
X-00398276Y0053951*
X-00402241Y00545616*
X-00407652Y00550489*
X-0046281Y00588398*
X-00469298Y00591703*
X-0047642Y00593217*
G37*
G36*
X-00333958Y0048232D02*
X-00340971Y00481952D01*
X-00347649Y00479782*
X-00353539Y00475958*
X-00358237Y00470739*
X-00372732Y0044965*
X-0037592Y00443393*
X-0037738Y00436524*
X-00377012Y00429512*
X-00374842Y00422833*
X-00371018Y00416944*
X-003658Y00412245*
X-00359543Y00409057*
X-00352674Y00407597*
X-00345661Y00407965*
X-00338983Y00410135*
X-00333094Y00413959*
X-00328395Y00419178*
X-003139Y00440267*
X-00310712Y00446524*
X-00309252Y00453393*
X-0030962Y00460405*
X-0031179Y00467084*
X-00315615Y00472973*
X-00320833Y00477672*
X-0032709Y0048086*
X-00333958Y0048232*
G37*
G36*
X0031779Y00382871D02*
X00310629D01*
X00304013Y0038013*
X0029895Y00375067*
X00296209Y00368451*
Y00364515*
X00293657*
X00287041Y00361775*
X00281978Y00356712*
X00279237Y00350096*
Y00346158*
X00276685*
X00270069Y00343417*
X00265006Y00338354*
X00262265Y00331738*
Y00327801*
X00259713*
X00253097Y0032506*
X00248034Y00319997*
X00245293Y00313381*
Y00306221*
X00248034Y00299605*
X00253097Y00294541*
X00259713Y00291801*
X00266874*
X00267322Y00291502*
Y00285855*
X00270062Y00279239*
X00275126Y00274176*
X00281741Y00271435*
X00288902*
X00295518Y00274176*
X00300581Y00279239*
X00303322Y00285855*
Y00289791*
X00305874*
X0031249Y00292531*
X00317553Y00297594*
X00320293Y0030421*
Y00308149*
X00322845*
X00329461Y0031089*
X00334524Y00315953*
X00337265Y00322569*
Y00326506*
X00339817*
X00346433Y00329246*
X00351497Y00334309*
X00354237Y00340925*
Y00348086*
X00351497Y00354702*
X00346433Y00359765*
X00339817Y00362506*
X00332657*
X00332209Y00362804*
Y00368451*
X00329469Y00375067*
X00324406Y0038013*
X0031779Y00382871*
G37*
G36*
X-00223133Y00319053D02*
X-00232518Y00318086D01*
X-00240819Y00313601*
X-00246771Y0030628*
X-0024947Y00297239*
X-00248502Y00287854*
X-00244018Y00279553*
X-00236697Y00273601*
X-00227656Y00270902*
X-00218271Y0027187*
X-0020997Y00276354*
X-00204018Y00283675*
X-0020132Y00292716*
X-00202286Y00302101*
X-00206771Y00310402*
X-00214092Y00316354*
X-00223133Y00319053*
G37*
G36*
X-0038373Y00274707D02*
X-003893D01*
X-00394445Y00272576*
X-00398383Y00268638*
X-00400515Y00263492*
Y00257923*
X-00398383Y00252777*
X-00394445Y00248839*
X-003893Y00246708*
X-0038373*
X-00378584Y00248839*
X-00374646Y00252777*
X-00372515Y00257923*
Y00263492*
X-00374646Y00268638*
X-00378584Y00272576*
X-0038373Y00274707*
G37*
G36*
X00106806Y00259058D02*
X00101236D01*
X0009609Y00256926*
X00092152Y00252988*
X00090021Y00247843*
Y00242782*
X00088434Y00241274*
X00087064Y00241842*
X00086568Y00241941*
X00086122Y00242179*
X0006294Y00249211*
X00062437Y00249261*
X00061969Y00249454*
X0003821Y00254181*
X00037704*
X0003722Y00254327*
X00013112Y00256702*
X00012608Y00256652*
X00012112Y00256751*
X-00012113*
X-00012608Y00256652*
X-00013112Y00256702*
X-0003722Y00254327*
X-00037704Y00254181*
X-0003821*
X-00061969Y00249454*
X-00062437Y00249261*
X-0006294Y00249211*
X-00086122Y00242179*
X-00086568Y00241941*
X-00087064Y00241842*
X-00109445Y00232572*
X-00109865Y00232291*
X-00110349Y00232144*
X-00131714Y00220724*
X-00132105Y00220404*
X-00132572Y0022021*
X-00152714Y00206751*
X-00153072Y00206393*
X-00153518Y00206155*
X-00172244Y00190787*
X-00172565Y00190396*
X-00172986Y00190115*
X-00190115Y00172986*
X-00190396Y00172565*
X-00190787Y00172244*
X-00206155Y00153518*
X-00206394Y00153072*
X-00206751Y00152714*
X-0022021Y00132572*
X-00220404Y00132105*
X-00220725Y00131714*
X-00232144Y00110349*
X-00232291Y00109865*
X-00232572Y00109445*
X-00241842Y00087064*
X-00241941Y00086568*
X-00242179Y00086122*
X-00249212Y0006294*
X-00249261Y00062437*
X-00249455Y00061969*
X-00254181Y0003821*
Y00037704*
X-00254327Y0003722*
X-00256702Y00013112*
X-00256652Y00012608*
X-00256751Y00012112*
Y-00012113*
X-00256652Y-00012609*
X-00256702Y-00013112*
X-00254327Y-0003722*
X-00254181Y-00037704*
Y-0003821*
X-00249455Y-00061969*
X-00249261Y-00062437*
X-00249212Y-0006294*
X-00242179Y-00086122*
X-00241941Y-00086568*
X-00241842Y-00087064*
X-00232572Y-00109445*
X-00232291Y-00109865*
X-00232144Y-00110349*
X-00220725Y-00131714*
X-00220404Y-00132105*
X-0022021Y-00132572*
X-00206751Y-00152714*
X-00206394Y-00153072*
X-00206155Y-00153518*
X-00190787Y-00172244*
X-00190396Y-00172565*
X-00190115Y-00172986*
X-00172986Y-00190115*
X-00172565Y-00190396*
X-00172244Y-00190787*
X-00153518Y-00206155*
X-00153072Y-00206394*
X-00152714Y-00206751*
X-00132572Y-0022021*
X-00132105Y-00220404*
X-00131714Y-00220725*
X-00110349Y-00232144*
X-00109865Y-00232291*
X-00109445Y-00232572*
X-00087064Y-00241842*
X-00086568Y-00241941*
X-00086122Y-00242179*
X-0006294Y-00249212*
X-00062437Y-00249261*
X-00061969Y-00249455*
X-0003821Y-00254181*
X-00037704*
X-0003722Y-00254327*
X-00013112Y-00256702*
X-00012608Y-00256652*
X-00012113Y-00256751*
X00012112*
X00012608Y-00256652*
X00013112Y-00256702*
X0003722Y-00254327*
X00037704Y-00254181*
X0003821*
X00061969Y-00249455*
X00062437Y-00249261*
X0006294Y-00249212*
X00086122Y-00242179*
X00086568Y-00241941*
X00087064Y-00241842*
X00102255Y-0023555*
X00103388Y-00237245*
X00102754Y-00237879*
X00101331Y-00241316*
X-00003135Y-00312815*
X-00004746Y-00313719*
X-00005435Y-00314005*
X-00005502Y-0031415*
X-00013367Y-00315015*
X-00015279Y-00314836*
X-00015406Y-00314889*
X-00017304Y-00315268*
X-00058843Y-00316065*
X-00060839Y-00315695*
X-00062766Y-00315518*
X-00119089Y-00299781*
X-00120813Y-00299063*
X-00122562Y-00298071*
X-00377943Y-00090837*
X-00379161Y-00089385*
X-00379194Y-00089372*
X-00380839Y-00088421*
X-00453549Y-00026094*
X-00453556Y-00025609*
X-00453589Y-00025529*
X-00453709Y-00025479*
X-00455161Y-00024301*
X-00459527Y-0002095*
X-00459596Y-00020847*
X-0045971Y-00020771*
X-00461016Y-00019219*
X-00461197Y-00019144*
X-00461592Y-000192*
X-00526377Y00036334*
X-00536249Y0004848*
Y00048481*
X-00536053Y00048639*
X-005366Y00049457*
X-00537415Y0005118*
X-0053822Y00052967*
X-00538438Y00053675*
X-00537625Y00055638*
Y00061207*
X-00539756Y00066353*
X-00543694Y00070291*
X-0054884Y00072423*
X-00554409*
X-00559555Y00070291*
X-00563493Y00066353*
X-00565625Y00061207*
Y00055638*
X-00563493Y00050492*
X-00559787Y00046786*
X-00559095Y00044531*
X-00558725Y00043843*
X-00556413Y00038261*
X-00554224Y00035408*
X-00553656Y00034333*
X-00543147Y00021402*
X-00542367Y00020756*
X-00541742Y00019961*
X-00517891Y-00000485*
X-00519076Y-00002096*
X-00538137Y00009857*
X-00539331Y00012741*
X-0054327Y00016679*
X-00548415Y0001881*
X-00553985*
X-0055913Y00016679*
X-00563069Y00012741*
X-005652Y00007595*
Y00002025*
X-00563069Y-0000312*
X-0055913Y-00007058*
X-00553985Y-0000919*
X-00549985*
X-00491892Y-00045619*
X-00492218Y-00047592*
X-00535457Y-00057824*
X-00521815Y-00115476*
X-00464163Y-00101834*
X-00473578Y-00062049*
X-0047187Y-00061008*
X-00404245Y-00118975*
X-00404213Y-00119003*
X-00403991Y-00119128*
X-00403829Y-00119323*
X-00141127Y-0033252*
X-00140975Y-00332601*
X-00140858Y-00332736*
X-00137385Y-00334494*
X-00137257Y-00334562*
X-0013725*
X-00136954Y-00334712*
X-00054991Y-00357588*
X-00052883Y-00357748*
X-00050781Y-00357938*
X00047922Y-00347367*
X00049241Y-00349237*
X00047518Y-00353399*
Y-00358968*
X00049649Y-00364114*
X00053587Y-00368052*
X00058733Y-00370184*
X00064302*
X00069448Y-00368052*
X00073386Y-00364114*
X00075518Y-00358968*
Y-00353399*
X00073386Y-00348253*
X0007148Y-00346347*
X00072115Y-00344451*
X00075283Y-00344007*
X00076616Y-00343542*
X00078001Y-00343269*
X00143435Y-00316298*
X00145356Y-0031571*
X00145393Y-00315702*
X00148451Y-00313659*
X00149599Y-00313135*
X00177865Y-00292775*
X00179583Y-00291921*
X00179642Y-00291897*
X00181037Y-00290587*
X00186666Y-00286872*
X00186822Y-00286937*
X00187384Y-00286704*
X00187689Y-00286765*
X00190759Y-00288036*
X00198591Y-00289067*
X00206422Y-00288036*
X0021372Y-00285014*
X00219987Y-00280205*
X00224796Y-00273938*
X0022629Y-00270331*
X00226932Y-00269284*
X00231325Y-00257399*
X00235583Y-00254589*
X0026455Y-00244132*
X00264776Y-00243996*
X00265034Y-00243944*
X00266642Y-0024287*
X00268298Y-00241871*
X00268454Y-00241659*
X00268673Y-00241513*
X00279803Y-00230383*
X00282234Y-00226744*
X00283088Y-00222452*
Y-00206713*
X00282926Y-00205901*
X00282967Y-00205074*
X002777Y-00169404*
X0027936Y-00165397*
Y-00159828*
X00277228Y-00154682*
X0027329Y-00150744*
X00268144Y-00148613*
X00262575*
X00257429Y-00150744*
X00253491Y-00154682*
X00251359Y-00159828*
Y-00165397*
X00253491Y-00170543*
X00255488Y-00172541*
X00260657Y-00207536*
Y-00217807*
X00254581Y-00223883*
X00226711Y-00233944*
X00225573Y-00234631*
X00224342Y-00235132*
X00215902Y-00240702*
X00214942Y-00241651*
X00213849Y-00242445*
X002134Y-00243176*
X0021279Y-00243779*
X00212267Y-00245023*
X0021156Y-00246175*
X00210636Y-00248673*
X00208683Y-00249101*
X00206521Y-0024694*
X00201376Y-00244809*
X00195806*
X0019066Y-0024694*
X00186722Y-00250878*
X00184591Y-00256024*
Y-00261593*
X00185041Y-0026268*
X00184098Y-00264444*
X00178628Y-00265532*
X00176129Y-00267201*
X00175136Y-00267606*
X00167055Y-00272939*
X00166742Y-00273249*
X00166341Y-00273431*
X001381Y-00293774*
X00137701Y-0029398*
X00136299Y-0029467*
X00136298*
X00134634Y-00295663*
X00133051Y-00296316*
X00073634Y-00320808*
X00072221Y-00319392*
X00072538Y-00318627*
Y-00313057*
X00070406Y-00307912*
X00066468Y-00303974*
X00061323Y-00301842*
X00056153*
X00055435Y-00300509*
X00055312Y-00299994*
X00114025Y-0025981*
X00117408*
X00122553Y-00257678*
X00126492Y-0025374*
X00128623Y-00248595*
Y-00243025*
X00126492Y-00237879*
X00122553Y-00233941*
X00117408Y-0023181*
X00115218*
X00114716Y-0022981*
X00131714Y-00220725*
X00132105Y-00220404*
X00132572Y-0022021*
X00152714Y-00206751*
X00153072Y-00206394*
X00153518Y-00206155*
X00172244Y-00190787*
X00172565Y-00190396*
X00172986Y-00190115*
X00190115Y-00172986*
X00190396Y-00172565*
X00190787Y-00172244*
X00206155Y-00153518*
X00206393Y-00153072*
X00206751Y-00152714*
X0022021Y-00132572*
X00220404Y-00132105*
X00220724Y-00131714*
X00232144Y-00110349*
X00232291Y-00109865*
X00232572Y-00109445*
X00241842Y-00087064*
X00241941Y-00086568*
X00242179Y-00086122*
X00249211Y-0006294*
X00249261Y-00062437*
X00249454Y-00061969*
X0025111Y-00053648*
X0025319Y-00053443*
X00254811Y-00057356*
X00258749Y-00061295*
X00263895Y-00063426*
X00269464*
X0027461Y-00061295*
X00278548Y-00057356*
X00280679Y-00052211*
Y-00046641*
X00278548Y-00041496*
X0027461Y-00037557*
X00269464Y-00035426*
X00263895*
X00258749Y-00037557*
X00255754Y-00040553*
X00253911Y-00039568*
X00254181Y-0003821*
Y-00037704*
X00254327Y-0003722*
X00256702Y-00013112*
X00256652Y-00012609*
X00256751Y-00012113*
Y00012112*
X00256652Y00012608*
X00256702Y00013112*
X00254327Y0003722*
X00254181Y00037704*
Y0003821*
X00249454Y00061969*
X00249261Y00062437*
X00249211Y0006294*
X00242179Y00086122*
X00241941Y00086568*
X00241842Y00087064*
X00232572Y00109445*
X00232291Y00109865*
X00232144Y00110349*
X00220724Y00131714*
X00220404Y00132105*
X0022021Y00132572*
X00206751Y00152714*
X00206393Y00153072*
X00206155Y00153518*
X00190787Y00172244*
X00190396Y00172565*
X00190115Y00172986*
X00172986Y00190115*
X00172565Y00190396*
X00172244Y00190787*
X00171648Y00191276*
X0017199Y00193583*
X00175469Y00195024*
X00179407Y00198962*
X00181538Y00204108*
Y00209677*
X00179407Y00214823*
X00175469Y00218761*
X00170323Y00220893*
X00164754*
X00159608Y00218761*
X0015567Y00214823*
X00153538Y00209677*
Y00208606*
X00151538Y00207537*
X00132572Y0022021*
X00132105Y00220404*
X00131714Y00220724*
X00112229Y00231139*
X00112105Y00232051*
X0011219Y00233428*
X00115889Y00237127*
X00118021Y00242273*
Y00247843*
X00115889Y00252988*
X00111951Y00256926*
X00106806Y00259058*
G37*
G36*
X-00205832Y00258258D02*
X-00211401D01*
X-00216547Y00256127*
X-00220485Y00252189*
X-00222616Y00247043*
Y00241474*
X-00220485Y00236328*
X-00216547Y0023239*
X-00211401Y00230258*
X-00205832*
X-00200686Y0023239*
X-00196748Y00236328*
X-00194616Y00241474*
Y00247043*
X-00196748Y00252189*
X-00200686Y00256127*
X-00205832Y00258258*
G37*
G36*
X-0027189Y00248594D02*
X-00277459D01*
X-00282605Y00246463*
X-00286543Y00242525*
X-00288675Y00237379*
Y0023181*
X-00286543Y00226664*
X-00282605Y00222726*
X-00277459Y00220594*
X-0027189*
X-00266744Y00222726*
X-00262806Y00226664*
X-00260675Y0023181*
Y00237379*
X-00262806Y00242525*
X-00266744Y00246463*
X-0027189Y00248594*
G37*
G36*
X-00302602Y00216131D02*
X-00308171D01*
X-00313317Y00214*
X-00317255Y00210061*
X-00319387Y00204916*
Y00199346*
X-00317255Y00194201*
X-00313317Y00190262*
X-00308171Y00188131*
X-00302602*
X-00297456Y00190262*
X-00293518Y00194201*
X-00291387Y00199346*
Y00204916*
X-00293518Y00210061*
X-00297456Y00214*
X-00302602Y00216131*
G37*
G36*
X-00697185Y00272001D02*
X-00704456Y0027162D01*
X-00711381Y0026937*
X-00717488Y00265404*
X-0072236Y00259993*
X-00725665Y00253506*
X-00727179Y00246383*
X-00726798Y00239112*
X-00724548Y00232187*
X-00720582Y00226081*
X-00715171Y00221208*
X-00660013Y00183299*
X-00653526Y00179994*
X-00646403Y0017848*
X-00639132Y00178861*
X-00632207Y00181111*
X-00626101Y00185077*
X-00621228Y00190488*
X-00617923Y00196975*
X-00616409Y00204098*
X-0061679Y00211369*
X-0061904Y00218294*
X-00623006Y002244*
X-00628417Y00229273*
X-00683575Y00267182*
X-00690063Y00270487*
X-00697185Y00272001*
G37*
G36*
X-00236866Y00204627D02*
X-00242436D01*
X-00247581Y00202496*
X-0025152Y00198558*
X-00253651Y00193412*
Y00187842*
X-0025152Y00182697*
X-00247581Y00178758*
X-00242436Y00176627*
X-00236866*
X-00231721Y00178758*
X-00227782Y00182697*
X-00225651Y00187842*
Y00193412*
X-00227782Y00198558*
X-00231721Y00202496*
X-00236866Y00204627*
G37*
G36*
X-00380348Y00189113D02*
X-00389733Y00188145D01*
X-00398034Y00183661*
X-00403987Y0017634*
X-00406685Y00167299*
X-00405718Y00157914*
X-00401233Y00149613*
X-00393913Y00143661*
X-00384872Y00140963*
X-00375487Y00141929*
X-00367186Y00146414*
X-00361233Y00153735*
X-00358535Y00162776*
X-00359502Y00172161*
X-00363987Y00180462*
X-00371307Y00186414*
X-00380348Y00189113*
G37*
G36*
X-00529077Y00198417D02*
X-00536089Y00198049D01*
X-00542768Y00195879*
X-00548657Y00192054*
X-00553356Y00186836*
X-0056785Y00165746*
X-00571038Y00159489*
X-00572498Y00152621*
X-00572131Y00145608*
X-00569961Y0013893*
X-00566136Y00133041*
X-00560918Y00128342*
X-00554661Y00125154*
X-00547792Y00123694*
X-0054078Y00124061*
X-00534101Y00126231*
X-00528212Y00130056*
X-00523513Y00135274*
X-00509019Y00156364*
X-00505831Y00162621*
X-00504371Y00169489*
X-00504738Y00176502*
X-00506908Y00183181*
X-00510733Y0018907*
X-00515951Y00193769*
X-00522208Y00196957*
X-00529077Y00198417*
G37*
G36*
X-00318282Y00138644D02*
X-00327667Y00137677D01*
X-00335968Y00133192*
X-00341921Y00125872*
X-00344619Y00116831*
X-00343652Y00107446*
X-00339167Y00099145*
X-00331847Y00093192*
X-00322806Y00090494*
X-00313421Y00091461*
X-0030512Y00095946*
X-00299167Y00103266*
X-00296469Y00112307*
X-00297436Y00121692*
X-00301921Y00129993*
X-00309241Y00135946*
X-00318282Y00138644*
G37*
G36*
X-00605622Y-00044583D02*
X-00611192D01*
X-00616337Y-00046714*
X-00620276Y-00050653*
X-00622407Y-00055798*
Y-00061368*
X-00620276Y-00066513*
X-00616337Y-00070451*
X-00611192Y-00072583*
X-00605622*
X-00600477Y-00070451*
X-00596538Y-00066513*
X-00594407Y-00061368*
Y-00055798*
X-00596538Y-00050653*
X-00600477Y-00046714*
X-00605622Y-00044583*
G37*
G36*
X00313039Y-00086808D02*
X0030747D01*
X00302324Y-00088939*
X00298386Y-00092877*
X00296255Y-00098023*
Y-00103593*
X00295567Y-00104622*
X0029456*
X00289414Y-00106753*
X00285476Y-00110691*
X00283344Y-00115837*
Y-00121406*
X00285476Y-00126552*
X00289414Y-0013049*
X0029456Y-00132622*
X00300129*
X00305275Y-0013049*
X00309213Y-00126552*
X00311344Y-00121406*
Y-00115837*
X00312032Y-00114808*
X00313039*
X00318185Y-00112676*
X00322123Y-00108738*
X00324255Y-00103593*
Y-00098023*
X00322123Y-00092877*
X00318185Y-00088939*
X00313039Y-00086808*
G37*
G36*
X00343953Y-001561D02*
X00338383D01*
X00333237Y-00158231*
X00329299Y-0016217*
X00327168Y-00167315*
Y-00172885*
X00329299Y-0017803*
X00333237Y-00181969*
X00338383Y-001841*
X00343953*
X00349098Y-00181969*
X00353036Y-0017803*
X00355168Y-00172885*
Y-00167315*
X00353036Y-0016217*
X00349098Y-00158231*
X00343953Y-001561*
G37*
G36*
X-00484706Y-0012673D02*
X-00492296Y-00128526D01*
X-00499163Y-00132225*
X-00504838Y-00137576*
X-00508935Y-00144213*
X-00511175Y-00151684*
X-00511404Y-0015948*
X-00509608Y-0016707*
X-00505909Y-00173937*
X-00500558Y-00179612*
X-00493922Y-00183709*
X-0048645Y-00185948*
X-00478654Y-00186178*
X-00471064Y-00184382*
X-00464198Y-00180683*
X-00458522Y-00175332*
X-00454425Y-00168695*
X-00452186Y-00161224*
X-00451956Y-00153428*
X-00453752Y-00145838*
X-00457452Y-00138971*
X-00462802Y-00133296*
X-00469439Y-00129199*
X-0047691Y-0012696*
X-00484706Y-0012673*
G37*
G36*
X0067629Y-00141491D02*
X0067072D01*
X00665575Y-00143622*
X00661636Y-0014756*
X00659505Y-00152706*
Y-00158276*
X00661636Y-00163421*
X00664693Y-00166477*
X00664704Y-00166548*
X00664107Y-0016872*
X00659856Y-00170481*
X00655918Y-00174419*
X00653786Y-00179565*
Y-00185134*
X00655918Y-0019028*
X00659856Y-00194218*
X00665002Y-00196349*
X00670571*
X00675717Y-00194218*
X00679655Y-0019028*
X00681786Y-00185134*
Y-00179565*
X00679655Y-00174419*
X00676599Y-00171363*
X00676587Y-00171293*
X00677185Y-0016912*
X00681436Y-00167359*
X00685374Y-00163421*
X00687505Y-00158276*
Y-00152706*
X00685374Y-0014756*
X00681436Y-00143622*
X0067629Y-00141491*
G37*
G36*
X00208815Y-00181386D02*
X00203245D01*
X00198099Y-00183518*
X00194161Y-00187456*
X0019203Y-00192602*
Y-00198171*
X00194161Y-00203317*
X00198099Y-00207255*
X00203245Y-00209386*
X00208815*
X0021396Y-00207255*
X00217898Y-00203317*
X0022003Y-00198171*
Y-00192602*
X00217898Y-00187456*
X0021396Y-00183518*
X00208815Y-00181386*
G37*
G36*
X00725962Y-00207098D02*
X00720393D01*
X00715247Y-00209229*
X00711309Y-00213167*
X00709178Y-00218313*
Y-00223882*
X00711309Y-00229028*
X00715247Y-00232966*
X00720393Y-00235098*
X00725962*
X00731108Y-00232966*
X00735046Y-00229028*
X00737178Y-00223882*
Y-00218313*
X00735046Y-00213167*
X00731108Y-00209229*
X00725962Y-00207098*
G37*
G36*
X0071563Y-00238432D02*
X00710061D01*
X00704915Y-00240563*
X00700977Y-00244501*
X00698845Y-00249647*
Y-00255217*
X00700977Y-00260362*
X00704915Y-002643*
X00710061Y-00266432*
X0071563*
X00720776Y-002643*
X00724714Y-00260362*
X00726845Y-00255217*
Y-00249647*
X00724714Y-00244501*
X00720776Y-00240563*
X0071563Y-00238432*
G37*
G36*
X-00521184Y-00270492D02*
X-00526754D01*
X-005319Y-00272623*
X-00535838Y-00276562*
X-00537969Y-00281707*
Y-00287277*
X-00535838Y-00292423*
X-005319Y-00296361*
X-00526754Y-00298492*
X-00521184*
X-00516039Y-00296361*
X-00512101Y-00292423*
X-00509969Y-00287277*
Y-00281707*
X-00512101Y-00276562*
X-00516039Y-00272623*
X-00521184Y-00270492*
G37*
G36*
X00194044Y00292024D02*
X00188474D01*
X00183329Y00289893*
X00179391Y00285954*
X00177259Y00280809*
Y00275239*
X00179391Y00270094*
X00183329Y00266156*
X00184289Y00265758*
X00191243Y00249411*
X00191881Y00247509*
X00192361Y00246792*
X00193228Y0024499*
X00489986Y-00381669*
X00490293Y-00382083*
X00490463Y-00382568*
X00491588Y-00383827*
X00492594Y-00385183*
X00493036Y-00385447*
X00493379Y-00385831*
X004949Y-00386563*
X00496349Y-00387431*
X00496858Y-00387506*
X00497322Y-00387729*
X00588573Y-00411258*
X00591714Y-00414399*
X0059686Y-00416531*
X00602429*
X00607575Y-00414399*
X00611513Y-00410461*
X00613644Y-00405315*
Y-00399746*
X00611513Y-003946*
X00607575Y-00390662*
X00602429Y-00388531*
X0059686*
X00594331Y-00389578*
X0050801Y-00367321*
X00306852Y00057464*
X00308614Y00058409*
X00349568Y-00009467*
X00350329Y-000113*
X00350343Y-00011334*
X00350345Y-00011339*
Y-00011338*
X00350346Y-00011339*
X00351515Y-00012963*
X00357776Y-00025145*
X00358389Y-00026961*
X00358398Y-00026984*
X00359504Y-00028667*
X0043588Y-00191862*
X00436439Y-00192622*
X00436894Y-00193702*
X00516954Y-00312075*
Y-00315541*
X00519085Y-00320686*
X00523024Y-00324624*
X00528169Y-00326756*
X00533739*
X00538884Y-00324624*
X00542823Y-00320686*
X00543489Y-00319079*
X0054585Y-00318603*
X00546523Y-00319271*
Y-00322146*
X00548654Y-00327291*
X00552593Y-0033123*
X00557738Y-00333361*
X00563308*
X00568453Y-0033123*
X00572392Y-00327291*
X00574387Y-00322473*
X00575153Y-00321725*
X00576169Y-00321046*
X00578657Y-00322077*
X00584227*
X00589372Y-00319946*
X00593311Y-00316007*
X00595442Y-00310862*
Y-00305292*
X00593311Y-00300147*
X00589372Y-00296209*
X00586432Y-0029499*
X00551212Y-00239348*
X00552313Y-00237348*
X00555591*
X00560737Y-00235217*
X00564675Y-00231279*
X00566807Y-00226133*
Y-00220564*
X00564675Y-00215418*
X00560737Y-0021148*
X00555591Y-00209348*
X00550022*
X00544876Y-0021148*
X00540938Y-00215418*
X00539841Y-00218065*
X00537849Y-00218236*
X00493457Y-00148104*
X00492687Y-00146337*
X00492661Y-00146274*
X00491461Y-00144774*
X00400545Y00015595*
X00400368Y000158*
X00400284Y00016041*
X00349874Y00101065*
Y00105472*
X00347743Y00110618*
X00343805Y00114556*
X00338659Y00116687*
X00333089*
X0033222Y00116327*
X00330135Y00117628*
X00329035Y00125986*
X00328685Y00126831*
X00328683Y00126854*
X00314187Y00176012*
X00315055Y00178107*
Y00183677*
X00312924Y00188823*
X00308986Y00192761*
X0030384Y00194892*
X0029827*
X00293125Y00192761*
X00289187Y00188823*
X00287076Y00183727*
X00286695Y00183579*
X00285103Y00183225*
X00251134Y00255807*
X00251281Y00256163*
Y00261732*
X0024915Y00266878*
X00245212Y00270816*
X00240066Y00272947*
X00234497*
X00229351Y00270816*
X00225413Y00266878*
X00223281Y00261732*
Y00256163*
X00225413Y00251017*
X00229351Y00247079*
X00230718Y00246512*
X00291265Y0011714*
X00291302Y00115284*
X00291058Y00114695*
X00290879Y00113334*
X00289478Y00102687*
X00290192Y0009726*
X00288274Y00096694*
X00213487Y00254619*
X00212929Y00256462*
X00212905Y00256517*
X00211898Y00258158*
X0020495Y00274492*
X00205259Y00275239*
Y00280809*
X00203128Y00285954*
X0019919Y00289893*
X00194044Y00292024*
G37*
G36*
X00665496Y-00295027D02*
X00659927D01*
X00654781Y-00297159*
X00650843Y-00301097*
X00648711Y-00306243*
Y-00311812*
X00650843Y-00316958*
X00654781Y-00320896*
X00659927Y-00323027*
X00665496*
X00670642Y-00320896*
X0067458Y-00316958*
X00676711Y-00311812*
Y-00306243*
X0067458Y-00301097*
X00670642Y-00297159*
X00665496Y-00295027*
G37*
G36*
X-00500063Y-00306349D02*
X-00505632D01*
X-00510778Y-00308481*
X-00514716Y-00312419*
X-00516848Y-00317565*
Y-00323134*
X-00514716Y-0032828*
X-00510778Y-00332218*
X-00505632Y-00334349*
X-00500063*
X-00494917Y-00332218*
X-00490979Y-0032828*
X-00488848Y-00323134*
Y-00317565*
X-00490979Y-00312419*
X-00494917Y-00308481*
X-00500063Y-00306349*
G37*
G36*
X-00476491Y-00340646D02*
X-00482061D01*
X-00487207Y-00342777*
X-00491145Y-00346715*
X-00493276Y-00351861*
Y-00357431*
X-00491145Y-00362576*
X-00487207Y-00366514*
X-00482061Y-00368646*
X-00476491*
X-00471346Y-00366514*
X-00467408Y-00362576*
X-00465276Y-00357431*
Y-00351861*
X-00467408Y-00346715*
X-00471346Y-00342777*
X-00476491Y-00340646*
G37*
G36*
X00634855Y-00343608D02*
X00629286D01*
X0062414Y-0034574*
X00620202Y-00349678*
X00618071Y-00354824*
Y-00360393*
X00620202Y-00365539*
X0062414Y-00369477*
X00629286Y-00371608*
X00634855*
X00640001Y-00369477*
X00643939Y-00365539*
X00646071Y-00360393*
Y-00354824*
X00643939Y-00349678*
X00640001Y-0034574*
X00634855Y-00343608*
G37*
G36*
X-00450585Y-00373215D02*
X-00456155D01*
X-004613Y-00375346*
X-00465239Y-00379284*
X-0046737Y-0038443*
Y-00389999*
X-00465239Y-00395145*
X-004613Y-00399083*
X-00456155Y-00401215*
X-00450585*
X-0044544Y-00399083*
X-00441501Y-00395145*
X-0043937Y-00389999*
Y-0038443*
X-00441501Y-00379284*
X-0044544Y-00375346*
X-00450585Y-00373215*
G37*
G36*
X0009995Y-00390721D02*
X0009438D01*
X00089234Y-00392852*
X00085296Y-0039679*
X00083165Y-00401936*
Y-00407506*
X00085296Y-00412651*
X00089234Y-00416589*
X0009438Y-00418721*
X0009995*
X00105095Y-00416589*
X00109034Y-00412651*
X00111165Y-00407506*
Y-00401936*
X00109034Y-0039679*
X00105095Y-00392852*
X0009995Y-00390721*
G37*
G36*
X-0042247Y-00403897D02*
X-0042804D01*
X-00433185Y-00406028*
X-00437123Y-00409966*
X-00439255Y-00415112*
Y-00420682*
X-00437123Y-00425827*
X-00433185Y-00429765*
X-0042804Y-00431897*
X-0042247*
X-00417325Y-00429765*
X-00413386Y-00425827*
X-00411255Y-00420682*
Y-00415112*
X-00413386Y-00409966*
X-00417325Y-00406028*
X-0042247Y-00403897*
G37*
G36*
X-00392283Y-00432543D02*
X-00397853D01*
X-00402998Y-00434675*
X-00406937Y-00438613*
X-00409068Y-00443758*
Y-00449328*
X-00406937Y-00454474*
X-00402998Y-00458412*
X-00397853Y-00460543*
X-00392283*
X-00387138Y-00458412*
X-00383199Y-00454474*
X-00381068Y-00449328*
Y-00443758*
X-00383199Y-00438613*
X-00387138Y-00434675*
X-00392283Y-00432543*
G37*
G36*
X00555438Y-00441573D02*
X00549869D01*
X00544723Y-00443704*
X00540785Y-00447642*
X00538654Y-00452788*
Y-00458357*
X00540785Y-00463503*
X00544723Y-00467441*
X00549869Y-00469573*
X00553338*
X00554674Y-00471573*
X00553808Y-00473663*
Y-00479233*
X0055594Y-00484378*
X00559878Y-00488316*
X00565023Y-00490448*
X00570593*
X00575739Y-00488316*
X00579677Y-00484378*
X00581808Y-00479233*
Y-00473663*
X00579677Y-00468517*
X00575739Y-00464579*
X00570593Y-00462448*
X00567124*
X00565788Y-00460448*
X00566654Y-00458357*
Y-00452788*
X00564522Y-00447642*
X00560584Y-00443704*
X00555438Y-00441573*
G37*
G36*
X005353Y-00465726D02*
X0052973D01*
X00524584Y-00467857*
X00520646Y-00471796*
X00518515Y-00476941*
Y-00482511*
X00520646Y-00487656*
X00524584Y-00491595*
X0052973Y-00493726*
X005353*
X00540445Y-00491595*
X00544383Y-00487656*
X00546515Y-00482511*
Y-00476941*
X00544383Y-00471796*
X00540445Y-00467857*
X005353Y-00465726*
G37*
G36*
X00071775Y-00492777D02*
X00062732Y-00495468D01*
X00055406Y-00501414*
X00050914Y-00509711*
X00049939Y-00519096*
X0005263Y-00528139*
X00058576Y-00535464*
X00066873Y-00539956*
X00076257Y-00540932*
X00085301Y-00538241*
X00092626Y-00532295*
X00097118Y-00523998*
X00098093Y-00514613*
X00095403Y-0050557*
X00089456Y-00498245*
X00081159Y-00493753*
X00071775Y-00492777*
G37*
G36*
X-00433736Y-00534781D02*
X-00439305D01*
X-00444451Y-00536913*
X-00448389Y-00540851*
X-0045052Y-00545996*
Y-00551566*
X-00448389Y-00556712*
X-00444451Y-0056065*
X-00439305Y-00562781*
X-00433736*
X-00432765Y-00562379*
X-00431102Y-00563491*
Y-00566466*
X-00428971Y-00571612*
X-00425033Y-0057555*
X-00419887Y-00577681*
X-00414317*
X-00409172Y-0057555*
X-00405234Y-00571612*
X-00403102Y-00566466*
Y-00560896*
X-00405234Y-00555751*
X-00409172Y-00551813*
X-00414317Y-00549681*
X-00419887*
X-00420857Y-00550083*
X-0042252Y-00548972*
Y-00545996*
X-00424652Y-00540851*
X-0042859Y-00536913*
X-00433736Y-00534781*
G37*
G36*
X00407082Y-00552804D02*
X00401513D01*
X00396367Y-00554936*
X00392429Y-00558874*
X00390298Y-00564019*
Y-00569589*
X00392429Y-00574735*
X00396367Y-00578673*
X00401513Y-00580804*
X00407082*
X00412228Y-00578673*
X00416166Y-00574735*
X00418298Y-00569589*
Y-00564019*
X00416166Y-00558874*
X00412228Y-00554936*
X00407082Y-00552804*
G37*
G36*
X002213Y-00540735D02*
X00215731D01*
X00210585Y-00542866*
X00206647Y-00546804*
X00204516Y-0055195*
Y-00557519*
X00206647Y-00562665*
X00210585Y-00566603*
X00215731Y-00568735*
X002213*
X00226446Y-00566603*
X00228382Y-00564667*
X00230077Y-005658*
X0022873Y-00569052*
Y-00574622*
X00230862Y-00579767*
X002348Y-00583706*
X00239946Y-00585837*
X00245515*
X00250661Y-00583706*
X00254599Y-00579767*
X0025673Y-00574622*
Y-00569052*
X00254599Y-00563907*
X00250661Y-00559968*
X00245515Y-00557837*
X00239946*
X002348Y-00559968*
X00232864Y-00561904*
X00231169Y-00560771*
X00232516Y-00557519*
Y-0055195*
X00230384Y-00546804*
X00226446Y-00542866*
X002213Y-00540735*
G37*
G36*
X-00342702Y-00549784D02*
X-00348272D01*
X-00353417Y-00551915*
X-00357356Y-00555853*
X-00359487Y-00560999*
Y-00566568*
X-00357356Y-00571714*
X-00353417Y-00575652*
X-00348272Y-00577784*
X-00342702*
X-00341248Y-00577181*
X-00339601Y-00578282*
X-00337469Y-00583428*
X-00333531Y-00587366*
X-00328386Y-00589497*
X-00322816*
X-0031767Y-00587366*
X-00313732Y-00583428*
X-00311601Y-00578282*
Y-00572713*
X-00313732Y-00567567*
X-0031767Y-00563629*
X-00322816Y-00561497*
X-00328386*
X-00329839Y-005621*
X-00331487Y-00560999*
X-00333618Y-00555853*
X-00337557Y-00551915*
X-00342702Y-00549784*
G37*
G36*
X0039999Y-00587685D02*
X00394421D01*
X00389275Y-00589816*
X00385337Y-00593754*
X00383205Y-005989*
Y-0060447*
X00385337Y-00609615*
X00389275Y-00613553*
X00394421Y-00615685*
X0039999*
X00405136Y-00613553*
X00409074Y-00609615*
X00411205Y-0060447*
Y-005989*
X00409074Y-00593754*
X00405136Y-00589816*
X0039999Y-00587685*
G37*
G36*
X00314323Y-00597427D02*
X00308753D01*
X00303607Y-00599559*
X00299669Y-00603497*
X00297538Y-00608643*
Y-00614212*
X00299669Y-00619358*
X00303607Y-00623296*
X00308753Y-00625427*
X00314323*
X00319468Y-00623296*
X00323406Y-00619358*
X00325538Y-00614212*
Y-00608643*
X00323406Y-00603497*
X00319468Y-00599559*
X00314323Y-00597427*
G37*
G36*
X-00282215Y-00606D02*
X-00287785D01*
X-0029293Y-00608131*
X-00296869Y-0061207*
X-00299Y-00617215*
Y-00622785*
X-00296869Y-0062793*
X-0029293Y-00631869*
X-00287785Y-00634*
X-00282215*
X-0027707Y-00631869*
X-00273131Y-0062793*
X-00271Y-00622785*
Y-00617215*
X-00273131Y-0061207*
X-0027707Y-00608131*
X-00282215Y-00606*
G37*
G36*
X-00322215D02*
X-00327785D01*
X-0033293Y-00608131*
X-00336869Y-0061207*
X-00339Y-00617215*
Y-00622785*
X-00336869Y-0062793*
X-0033293Y-00631869*
X-00327785Y-00634*
X-00322215*
X-0031707Y-00631869*
X-00313131Y-0062793*
X-00311Y-00622785*
Y-00617215*
X-00313131Y-0061207*
X-0031707Y-00608131*
X-00322215Y-00606*
G37*
G36*
X00349308Y-00624215D02*
X00343738D01*
X00338592Y-00626347*
X00334654Y-00630285*
X00332523Y-00635431*
Y-00641*
X00334654Y-00646146*
X00338592Y-00650084*
X00343738Y-00652215*
X00349308*
X00354453Y-00650084*
X00358391Y-00646146*
X00360523Y-00641*
Y-00635431*
X00358391Y-00630285*
X00354453Y-00626347*
X00349308Y-00624215*
G37*
G36*
X00031409Y-00641596D02*
X00025839D01*
X00020694Y-00643728*
X00016755Y-00647666*
X00014624Y-00652812*
Y-00658381*
X00016755Y-00663527*
X00020694Y-00667465*
X00025839Y-00669596*
X00031409*
X00036554Y-00667465*
X00040493Y-00663527*
X00042624Y-00658381*
Y-00652812*
X00040493Y-00647666*
X00036554Y-00643728*
X00031409Y-00641596*
G37*
G36*
X-00151152Y-00680362D02*
X-00156721D01*
X-00161867Y-00682494*
X-00165805Y-00686432*
X-00167936Y-00691577*
Y-00697147*
X-00165805Y-00702293*
X-00161867Y-00706231*
X-00156721Y-00708362*
X-00151152*
X-00146006Y-00706231*
X-00144373Y-00704598*
X-00142412Y-00704988*
X-00141478Y-00707242*
X-0013754Y-0071118*
X-00132394Y-00713312*
X-00126825*
X-00121679Y-0071118*
X-00119686Y-00709186*
X-00117724Y-00709577*
X-00116994Y-00711339*
X-00113056Y-00715277*
X-0010791Y-00717409*
X-0010234*
X-00097195Y-00715277*
X-00093257Y-00711339*
X-00091125Y-00706194*
Y-00700624*
X-00093257Y-00695478*
X-00097195Y-0069154*
X-0010234Y-00689409*
X-0010791*
X-00113056Y-0069154*
X-00115049Y-00693534*
X-00117011Y-00693144*
X-00117741Y-00691381*
X-00121679Y-00687443*
X-00126825Y-00685312*
X-00132394*
X-0013754Y-00687443*
X-00139173Y-00689076*
X-00141134Y-00688685*
X-00142068Y-00686432*
X-00146006Y-00682494*
X-00151152Y-00680362*
G37*
G36*
X00167144Y-00673069D02*
X00158101Y-00675759D01*
X00150775Y-00681706*
X00146283Y-00690003*
X00145308Y-00699387*
X00147999Y-0070843*
X00153945Y-00715756*
X00162242Y-00720248*
X00171626Y-00721223*
X0018067Y-00718533*
X00187995Y-00712586*
X00192487Y-00704289*
X00193462Y-00694905*
X00190772Y-00685861*
X00184826Y-00678536*
X00176529Y-00674044*
X00167144Y-00673069*
G37*
G36*
X00090466Y-00695877D02*
X00081423Y-00698568D01*
X00074098Y-00704514*
X00069606Y-00712811*
X00068631Y-00722196*
X00071321Y-00731239*
X00077267Y-00738564*
X00085564Y-00743056*
X00094949Y-00744031*
X00103992Y-00741341*
X00111317Y-00735395*
X00115809Y-00727098*
X00116785Y-00717713*
X00114094Y-0070867*
X00108148Y-00701345*
X00099851Y-00696852*
X00090466Y-00695877*
G37*
%LNflagmate_copper_signal_3-3*%
%LPD*%
%SRX1Y1I0J0*%
G54D16*
X00190921Y-00276192D02*
D01*
D01*
G75*
G03X00216412Y-00265396I00007669J00017382D01*
G74*G01*
X00190921Y-00276192D02*
D01*
D01*
G75*
G03X00181314Y-00276967I-00004098J-00009121D01*
G74*G01*
X00173233Y-002823D02*
D01*
D01*
G75*
G03X00172897Y-00282532I00005196J-00007885D01*
G74*G01*
X0014101Y-00305166D02*
D01*
D01*
G75*
G03X00143044Y-00304035I-00003819J00009262D01*
G74*G01*
X00202346Y0025196D02*
D01*
D01*
G75*
G03X0020251Y00251596I00008228J00003488D01*
G74*G01*
X00482673Y-00152014D02*
D01*
D01*
G75*
G03X00482898Y-00152392I00009384J00005330D01*
G74*G01*
X00464531Y-00173264D02*
D01*
D01*
G75*
G03X00465124Y-00174261I00008875J00004604D01*
G74*G01*
X00524723Y-00261723D02*
D01*
D01*
G75*
G03X0052451Y-00261395I-00011842J-00007457D01*
G74*G01*
X00368753Y-00021973D02*
D01*
D01*
G75*
G03X0036868Y-00021825I-00006732J-00003228D01*
G74*G01*
X00360219Y-00005409D02*
D01*
D01*
G75*
G03X00360205Y-00005387I-00000221J-00000125D01*
G74*G01*
X00360517Y-00005944D02*
D01*
D01*
G75*
G03X00360219Y-00005409I-00009856J-00005139D01*
G74*G01*
X00060561Y-00334734D02*
D01*
D01*
G75*
G03X00061173Y-00334658I-00001862J00017502D01*
G74*G01*
X-00474038Y-00044097D02*
D01*
D01*
G75*
G03X-00473917Y-0004423I00018992J00017157D01*
G74*G01*
D01*
D01*
G75*
G03X-00471658Y-00046417I00019192J00017564D01*
G74*G01*
X-00396903Y-00110497D02*
D01*
D01*
G75*
G03X-00396761Y-00110615I00004852J00005695D01*
G74*G01*
X-00003439Y-00325206D02*
D01*
D01*
G75*
G03X00001078Y-00323522I-00001126J00009921D01*
G74*G01*
X-00548373Y00047819D02*
D01*
D01*
G75*
G03X-00544952Y00041407I00018148J00005564D01*
G74*G01*
X-00468509Y-00028043D02*
D01*
D01*
G75*
G03X-00467527Y-00028778I00006451J00007595D01*
G74*G01*
X-00462155Y-00033384D02*
D01*
D01*
G75*
G03X-00467527Y-00028779I-00020085J-00017994D01*
G74*G01*
X-00462154Y-00033384D02*
D01*
D01*
G75*
G03X-00461246Y-00034269I00007490J00006776D01*
G74*G01*
X-00015008Y-00326442D02*
D01*
D01*
G75*
G03X-00014186Y-00326389I-00000238J00010099D01*
G74*G01*
X-00386646Y-00098216D02*
D01*
D01*
G75*
G03X-00386481Y-00098352I00004140J00004854D01*
G74*G01*
X-00128008Y-00308095D02*
D01*
D01*
G75*
G03X-00127742Y-00308302I00006980J00008695D01*
G74*G01*
D01*
D01*
G75*
G03X-00124474Y-00309922I00006006J00008010D01*
G74*G01*
X-00063566Y-00326939D02*
D01*
D01*
G75*
G03X-00060839Y-00327318I00002726J00009620D01*
G74*G01*
D01*
D01*
G75*
G02X-00060721I00000059J-00009999D01*
G74*G01*
X00317666Y00108112D02*
D01*
D01*
G75*
G03X00319607Y00092871I00018209J-00005425D01*
G74*G01*
X00317866Y00108773D02*
D01*
D01*
G75*
G03X00317926Y00123681I-00024880J00007554D01*
G74*G01*
X00302194Y00112206D02*
D01*
D01*
G75*
G03X00305884Y00084643I00033688J-00009518D01*
G74*G01*
D01*
D01*
G75*
G03X00305906Y00084608I00000440J00000252D01*
G74*G01*
X00302607Y00113667D02*
D01*
D01*
G75*
G03X00302074Y00120503I-00009630J00002687D01*
G74*G01*
X00301055Y00180892D02*
X00317926Y00123681D01*
X00216412Y-00265396D02*
X0022208Y-00250063D01*
X00230519Y-00244493D01*
X00173233Y-002823D02*
X00181314Y-00276967D01*
X00143044Y-00304035D02*
X00172897Y-00282532D01*
X00230519Y-00244493D02*
X00260742Y-00233583D01*
X00271872Y-00222452*
X0026536Y-00162613D02*
X00271872Y-00206713D01*
Y-00222452D02*
Y-00206713D01*
X00073727Y-003329D02*
X0014101Y-00305166D01*
X00191259Y00278024D02*
X00202346Y0025196D01*
X0020251Y00251596D02*
Y00251595D01*
X00390789Y00010064D02*
X00482673Y-00152014D01*
X00482898Y-00152392D02*
X00482921Y-00152429D01*
X00581442Y-00308077*
X00374343Y00002158D02*
X00464531Y-00173264D01*
X00465123Y-00174261D02*
X00465144Y-00174291D01*
X0052451Y-00261395*
X00524723Y-00261723D02*
X00524741Y-00261751D01*
X00560523Y-00319361*
X00360517Y-00005944D02*
X0036868Y-00021825D01*
X00368753Y-00021973D02*
X00368788Y-00022045D01*
X00446038Y-00187108*
X00305905Y00084608D02*
X00360205Y-00005387D01*
X0020251Y00251595D02*
X00500122Y-00376869D01*
X00061173Y-00334659D02*
X00073727Y-003329D01*
X-005512Y0000481D02*
X-00476482Y-00042044D01*
X-00471658Y-00046417D02*
X-00396935Y-00110469D01*
X-00396903Y-00110497*
X-00396762Y-00110615D02*
X-0013406Y-00323812D01*
X-00051976Y-00346786D02*
X00060561Y-00334734D01*
X-00133939Y-0032391D02*
X-00051976Y-00346786D01*
X00001078Y-00323522D02*
X00114623Y-0024581D01*
X-00551625Y00058423D02*
X-00548373Y00047819D01*
X-00544952Y00041407D02*
X-00534443Y00028476D01*
X-00468544Y-00028013*
X-00468509Y-00028043*
X-0001505Y-00326443D02*
X-00015008Y-00326442D01*
X-00014186Y-00326389D02*
X-00003439Y-00325206D01*
X-00461245Y-00034269D02*
X-00386686Y-00098181D01*
X-00386646Y-00098216*
X-00386481Y-00098352D02*
X-00128008Y-00308095D01*
X-00124474Y-00309922D02*
X-00063566Y-0032694D01*
X-00060648Y-00327317D02*
X-0001505Y-00326443D01*
X-00060721Y-00327318D02*
X-00060648Y-00327317D01*
X00500122Y-00376869D02*
X00599644Y-00402531D01*
X00446184Y-00187419D02*
X00530954Y-00312756D01*
X00335874Y00102687D02*
X00390636Y00010321D01*
X00319606Y00092871D02*
X0037419Y00002411D01*
X00317666Y00108112D02*
X00317688Y00108186D01*
X00317724Y00108307*
X00317866Y00108773*
X00302045Y00120566D02*
X00302074Y00120503D01*
X00302194Y00112206D02*
X00302607Y00113667D01*
X00237281Y00258947D02*
X00302045Y00120566D01*
G54D17*
X-00474084Y-00044047D02*
D01*
D01*
G75*
G03X-00476392Y-000421I-00008191J-00007369D01*
G74*G01*
X-00476482Y-00042044D02*
X-00476392Y-000421D01*
X-00474084Y-00044047D02*
X-00474038Y-00044098D01*
G54D97*
X-0048168Y-00156454D03*
G54D98*
X-0049981Y-00079829D03*
G54D99*
X-00671794Y0022524D03*
X-0045103Y00546456D03*
G54D100*
X-00538434Y00161055D03*
X-00343316Y00444959D03*
G54D101*
X00074016Y-00516855D03*
X00169385Y-00697146D03*
X00092708Y-00719954D03*
X-0038261Y00165037D03*
X-00320544Y00114569D03*
X-00225394Y00294978D03*
G54D102*
X-00466446Y-00607884D03*
X-00442095Y-0057615D03*
X0002911Y-00555459D03*
X-00461421Y-00580086D03*
X-00482199Y-00595466D03*
X-00523969Y-00284492D03*
X-00479276Y-00354646D03*
X-00395068Y-00446543D03*
X-00425255Y-00417897D03*
X-0045337Y-00387215D03*
X-00502848Y-00320349D03*
X00301055Y00180892D03*
X00216683Y00550082D03*
X00198591Y-00258808D03*
X-005418Y-005418D03*
X-00527432Y-00555797D03*
X-00512702Y-00569413D03*
X-00497621Y-00582639D03*
X-00450373Y-00619886D03*
X-00433992Y-00631463D03*
X-00417314Y-00642607D03*
X-00400349Y-00653311D03*
X-00383111Y-00663567D03*
X-00040101Y-00765171D03*
X-00060117Y-00763859D03*
X-00080092Y-00762024D03*
X-00100012Y-00759666D03*
X-00119863Y-00756788D03*
X-00139633Y-00753391D03*
X-00159306Y-00749477D03*
X-00274589Y-00715329D03*
X-00365609Y-00673368D03*
X-00347857Y-00682708D03*
X-00417102Y-00563681D03*
X-0043652Y-00548781D03*
X-00325601Y-00575497D03*
X-00345487Y-00563784D03*
X-00673368Y-00365609D03*
X-00663567Y-00383111D03*
X-00653311Y-00400349D03*
X-00642607Y-00417314D03*
X-00631463Y-00433992D03*
X-00619886Y-00450373D03*
X-00607884Y-00466446D03*
X-00595466Y-00482199D03*
X-00582639Y-00497621D03*
X-00569413Y-00512702D03*
X-00555797Y-00527432D03*
X-00329867Y-0069158D03*
X-0029322Y-00707896D03*
X-0031165Y-00699978D03*
X-00105125Y-00703409D03*
X-0012961Y-00699312D03*
X-00153936Y-00694362D03*
X-00178871Y-0074505D03*
X-00198313Y-00740113D03*
X-00217619Y-00734668D03*
X-00236775Y-0072872D03*
X-0025577Y-00722272D03*
X-00325Y-0062D03*
X-00285D03*
X-00386515Y00260707D03*
X00104021Y00245058D03*
X00167538Y00206893D03*
X0020603Y-00195386D03*
X00170564Y-00659523D03*
X-00305387Y00202131D03*
X00135116Y00229381D03*
X00191127Y00183297D03*
X00235059Y00124983D03*
X0014407Y00443402D03*
X-00215458Y-00561288D03*
X-00234916Y-00553427D03*
X-00195738Y-00568466D03*
X00567808Y-00476448D03*
X00552807Y-00223348D03*
X00667786Y-00182349D03*
X00341168Y-001701D03*
X00673505Y-00155491D03*
X00723178Y-00221098D03*
X00662711Y-00309027D03*
X-00275161Y00305597D03*
X00259373Y00059873D03*
X-00208616Y00244258D03*
X00297344Y-00118622D03*
X00191259Y00278024D03*
X00310255Y-00100808D03*
X00266679Y-00049426D03*
X-00274675Y00234594D03*
X-00239651Y00190627D03*
X0026536Y-00162613D03*
X-005512Y0000481D03*
X-00551625Y00058423D03*
X00114623Y-0024581D03*
X-00170756Y-00576463D03*
X-00150534Y-00582071D03*
X-00493937Y00047561D03*
X-00608407Y-00058583D03*
X0024273Y-00571837D03*
X00218516Y-00554735D03*
X00712845Y-00252432D03*
X00404298Y-00566804D03*
X00599644Y-00402531D03*
X00530954Y-00312756D03*
X00581442Y-00308077D03*
X00560523Y-00319361D03*
X00632071Y-00357608D03*
X00335874Y00102687D03*
X00237281Y00258947D03*
X00058538Y-00315842D03*
X00061518Y-00356184D03*
X00210861Y-00668766D03*
X00397205Y-00601685D03*
X00346523Y-00638215D03*
X00311538Y-00611427D03*
X-00046123Y-00479006D03*
X-00071129Y-00475935D03*
X00097165Y-00404721D03*
X00532515Y-00479726D03*
X00552654Y-00455573D03*
X00028624Y-00655596D03*
X00387753Y00210532D03*
X-00088866Y-00594617D03*
X-00109564Y-00591154D03*
X-00130128Y-0058697D03*
G54D103*
X00336237Y00344506D03*
X00319265Y00326149D03*
X00302293Y00307791D03*
X00285322Y00289435D03*
X00263293Y00309801D03*
X00280265Y00328158D03*
X00297237Y00346515D03*
X00314209Y00364871D03*
M02*