%FSTAX26Y26*%
%MOIN*%
%SFA1B1*%

%IPPOS*%
%ADD146C,0.009842*%
%ADD147C,0.007874*%
%ADD148C,0.006000*%
%ADD149C,0.005000*%
%LNflagmate_legend_top-1*%
%LPD*%
%SRX1Y1I0J0*%
G36*
X-00718126Y00187755D02*
X-00716468Y00187606D01*
X-00716427Y00187601*
X-00716344Y00187592*
X-0071622Y00187577*
X-00716055Y00187558*
X-00715807Y0018753*
X-00715563Y0018746*
X-00714907Y00187343*
X-00714131Y0018717*
X-0071319Y00186978*
X-00712176Y00186694*
X-00711125Y00186363*
X-00709955Y00185978*
X-00708795Y00185509*
X-00707598Y00184995*
X-00706415Y00184356*
X-00705278Y00183681*
X-00704197Y00182887*
X-00703167Y00182015*
X-00702233Y00181028*
X-00702197Y00180982*
X-00702014Y00180752*
X-00701794Y00180475*
X-00701511Y00180024*
X-00701155Y0017948*
X-00700767Y0017885*
X-00700393Y00178095*
X-00699987Y00177252*
X-00699591Y00176327*
X-00699209Y00175279*
X-00698915Y00174198*
X-00698635Y00172993*
X-00698447Y00171715*
X-00698309Y0017036*
X-00698306Y00168935*
X-00698431Y00167484*
X-00698469Y00167154*
X-00698548Y00166828*
X-00698646Y00166337*
X-00698754Y00165763*
X-00698918Y0016507*
X-00699132Y00164299*
X-00699433Y00163496*
X-0069974Y00162652*
X-00700134Y00161776*
X-00700574Y00160863*
X-00701096Y0015996*
X-0070166Y00159062*
X-00702348Y00158178*
X-00703068Y00157381*
X-00703911Y00156599*
X-00703957Y00156562*
X-0070405Y00156489*
X-00704188Y0015638*
X-00704413Y00156238*
X-0070469Y00156019*
X-00705008Y00155804*
X-00705408Y00155599*
X-0070586Y00155316*
X-00706389Y00155083*
X-00706923Y0015481*
X-00707539Y00154546*
X-00708197Y00154286*
X-00708933Y00154078*
X-00709674Y00153828*
X-00710492Y00153629*
X-00711347Y00153476*
X-00712291Y00161289*
X-0071225Y00161285*
X-00712163Y00161316*
X-00711992Y00161339*
X-00711781Y00161356*
X-00711524Y00161411*
X-0071122Y00161501*
X-00710526Y00161714*
X-00709739Y00162001*
X-00708897Y00162406*
X-00708082Y00162941*
X-00707293Y00163604*
X-00707247Y00163641*
X-00707201Y00163677*
X-00707104Y00163792*
X-00706961Y00163943*
X-00706814Y00164135*
X-00706661Y00164369*
X-00706259Y00164951*
X-00705838Y00165698*
X-0070549Y00166537*
X-0070517Y00167505*
X-00704959Y00168612*
X-00704911Y00169025*
X-00704919Y00169319*
X-00704918Y00169696*
X-00704953Y00170119*
X-00704984Y00170583*
X-00705051Y00171093*
X-00705154Y00171649*
X-00705294Y00172251*
X-00705476Y00172859*
X-00705698Y0017347*
X-00706004Y00174092*
X-00706355Y00174677*
X-00706743Y00175307*
X-00707224Y00175865*
X-0070726Y00175911*
X-00707333Y00176003*
X-00707526Y00176151*
X-00707755Y00176345*
X-00708062Y0017659*
X-00708451Y00176844*
X-00708918Y00177149*
X-00709473Y00177422*
X-00710065Y00177741*
X-0071078Y00178075*
X-00711542Y00178371*
X-00712427Y00178683*
X-007134Y00178962*
X-00714419Y00179205*
X-00715567Y00179421*
X-00716802Y00179604*
X-00716884Y00179614*
X-00717132Y00179642*
X-00717504Y00179685*
X-00717963Y00179696*
X-00718588Y00179726*
X-00719254Y00179761*
X-00720008Y00179764*
X-00720848Y00179735*
X-00722576Y0017964*
X-00723426Y00179529*
X-00724323Y0017938*
X-00725183Y00179186*
X-00725969Y001789*
X-00726715Y00178609*
X-00727387Y00178225*
X-00727433Y00178189*
X-00727525Y00178115*
X-00727709Y00177969*
X-00727935Y00177828*
X-00728175Y00177562*
X-00728456Y00177301*
X-00728788Y00176963*
X-00729125Y00176583*
X-00729467Y00176161*
X-00729818Y00175657*
X-00730127Y00175149*
X-00730405Y00174552*
X-00730683Y00173956*
X-00730929Y00173273*
X-00731097Y00172538*
X-00731224Y00171799*
X-00731258Y0017151*
X-0073124Y00171298*
X-00731273Y00171009*
X-00731224Y0017071*
X-00731185Y00169952*
X-00731033Y00169097*
X-00730802Y00168191*
X-00730405Y00167266*
X-00730168Y00166779*
X-00729885Y00166327*
X-00729849Y00166281*
X-00729812Y00166235*
X-00729702Y00166097*
X-00729556Y00165912*
X-00729369Y00165723*
X-00729144Y00165488*
X-00728842Y00165202*
X-0072854Y00164916*
X-00728155Y00164621*
X-00727734Y00164279*
X-00727267Y00163974*
X-00726721Y00163618*
X-00726171Y00163304*
X-00725538Y0016298*
X-00724818Y00162688*
X-00724098Y00162396*
X-00727273Y00155181*
X-00727355Y00155191*
X-00727552Y00155297*
X-00727832Y00155413*
X-00728268Y00155631*
X-0072874Y00155894*
X-00729336Y00156172*
X-00729964Y00156538*
X-00730629Y00156949*
X-0073133Y00157407*
X-00732067Y0015791*
X-00732796Y00158496*
X-00733483Y00159078*
X-00734201Y00159747*
X-00734833Y00160447*
X-00735418Y00161185*
X-00735952Y00162*
X-00735989Y00162046*
X-00736057Y00162179*
X-00736194Y00162446*
X-00736326Y00162755*
X-00736526Y00163196*
X-00736722Y0016368*
X-0073695Y0016425*
X-00737122Y0016494*
X-00737335Y00165634*
X-00737534Y00166453*
X-00737687Y00167308*
X-0073783Y00168246*
X-00737886Y00169215*
X-00737933Y00170267*
X-00737892Y00171351*
X-00737805Y00172472*
X-00737767Y00172803*
X-00737678Y00173211*
X-00737575Y00173744*
X-00737421Y00174354*
X-00737212Y00175084*
X-00736988Y00175937*
X-00736635Y00176818*
X-00736278Y0017774*
X-00735787Y00178731*
X-00735255Y00179716*
X-0073464Y00180692*
X-00733943Y00181659*
X-00733122Y00182611*
X-00732222Y00183513*
X-00731204Y00184359*
X-00731158Y00184396*
X-00730932Y00184537*
X-00730614Y00184752*
X-00730168Y00184994*
X-00729588Y00185304*
X-0072892Y00185646*
X-00728124Y00186015*
X-00727204Y0018637*
X-00726201Y00186715*
X-00725074Y00187046*
X-0072387Y00187326*
X-00722546Y00187551*
X-00721149Y00187683*
X-00719674Y00187765*
X-00718126Y00187755*
G37*
G36*
X-00701569Y00145652D02*
X-0070241Y00138337D01*
X-00716461Y00139952*
X-00716425Y00139906*
X-00716315Y00139768*
X-00716132Y00139538*
X-00715871Y00139256*
X-0071562Y00138893*
X-00715296Y00138437*
X-00714981Y00137898*
X-00714624Y00137354*
X-00714324Y00136692*
X-00714023Y00136029*
X-00713732Y00135284*
X-00713528Y00134506*
X-00713329Y00133688*
X-00713217Y00132838*
X-00713193Y00131956*
X-00713257Y00131042*
X-00713304Y00130628*
X-00713374Y00130385*
X-00713402Y00130137*
X-00713556Y00129527*
X-00713761Y00128839*
X-00714012Y00128114*
X-00714309Y00127352*
X-0071473Y00126605*
X-00714735Y00126564*
X-00714781Y00126527*
X-00714933Y00126293*
X-00715183Y00125945*
X-00715524Y00125524*
X-00715907Y00125107*
X-00716382Y00124617*
X-00716889Y00124215*
X-00717474Y00123864*
X-00717561Y00123832*
X-00717741Y00123727*
X-00718049Y00123595*
X-00718491Y00123394*
X-00718969Y0012324*
X-00719576Y00123058*
X-00720178Y00122918*
X-00720859Y00122829*
X-00720941Y00122838*
X-0072107Y00122811*
X-00721199Y00122784*
X-00721405Y00122808*
X-00721617Y00122791*
X-00721911Y00122782*
X-00722246Y00122779*
X-00722582Y00122776*
X-00723Y00122782*
X-00723459Y00122793*
X-00723955Y0012285*
X-00724497Y00122871*
X-0072508Y00122896*
X-00725742Y00122972*
X-00726403Y00123048*
X-00742603Y0012491*
X-00741762Y00132225*
X-00727174Y00130548*
X-00727132Y00130543*
X-00726967Y00130524*
X-0072676Y001305*
X-00726471Y00130467*
X-0072614Y00130429*
X-00725722Y00130423*
X-00724855Y00130323*
X-00723894Y00130297*
X-00723017Y0013028*
X-00722599Y00130273*
X-00722222Y00130272*
X-00721882Y00130316*
X-00721625Y00130371*
X-00721583Y00130366*
X-00721409Y0013043*
X-00721192Y00130488*
X-00720884Y0013062*
X-00720571Y00130794*
X-00720212Y00131004*
X-00719889Y0013126*
X-00719557Y00131599*
X-00719511Y00131635*
X-00719414Y0013175*
X-00719303Y00131988*
X-00719105Y00132258*
X-00718933Y00132657*
X-00718798Y00133102*
X-00718659Y00133589*
X-00718551Y00134163*
X-00718517Y00134452*
X-00718516Y00134829*
X-00718551Y00135252*
X-00718572Y00135798*
X-00718676Y00136355*
X-00718857Y00136962*
X-00719085Y00137532*
X-00719121Y00137578*
X-00719221Y00137799*
X-00719399Y00138071*
X-00719655Y00138393*
X-00719989Y00138767*
X-00720406Y0013915*
X-00720947Y00139547*
X-00721533Y00139907*
X-00721611Y00139958*
X-00721694Y00139968*
X-00721854Y00140028*
X-00722253Y001402*
X-00722822Y00140349*
X-00723552Y00140558*
X-00724447Y00140787*
X-00725476Y00140947*
X-00726711Y00141131*
X-00740555Y00142723*
X-00739714Y00150038*
X-00701569Y00145652*
G37*
G36*
X-00735718Y00118508D02*
X-00735677Y00118503D01*
X-00735594Y00118493*
X-00735471Y00118479*
X-00735305Y0011846*
X-00734897Y00118371*
X-00734327Y00118222*
X-00733685Y00117981*
X-00733002Y00117735*
X-00732332Y00117365*
X-00731673Y00116912*
X-00731631Y00116907*
X-00731595Y00116861*
X-00731407Y00116672*
X-00731105Y00116386*
X-00730735Y00115967*
X-00730327Y00115501*
X-00729934Y00114912*
X-00729551Y00114239*
X-0072926Y00113494*
X-00729265Y00113453*
X-00729228Y00113407*
X-00729201Y00113278*
X-00729138Y00113103*
X-00729079Y00112887*
X-00728983Y00112625*
X-00728938Y00112284*
X-00728852Y0011194*
X-00728771Y00111553*
X-00728658Y0011108*
X-00728591Y0011057*
X-00728483Y00110055*
X-00728426Y00109462*
X-00728332Y00108823*
X-00728237Y00108184*
X-00728194Y00107467*
X-00728199Y00107426*
X-00728177Y00107256*
X-00728169Y00106962*
X-00728124Y00106622*
X-00728089Y00106199*
X-00728063Y00105693*
X-00728001Y00105142*
X-00727943Y00104549*
X-00727787Y00103359*
X-00727636Y00102127*
X-00727532Y00101571*
X-00727429Y00101014*
X-00727316Y00100541*
X-00727198Y00100108*
X-00726495Y00100028*
X-00726454Y00100023*
X-00726413Y00100018*
X-00726123Y00099985*
X-00725747Y00099983*
X-00725283Y00100014*
X-00724772Y00100081*
X-00724253Y0010023*
X-00723728Y00100421*
X-00723313Y00100751*
X-00723267Y00100787*
X-00723166Y00100943*
X-00722967Y00101213*
X-00722759Y00101566*
X-00722532Y00102084*
X-00722286Y00102768*
X-00722197Y00103177*
X-00722108Y00103585*
X-0072201Y00104076*
X-0072191Y00104944*
X-00721909Y00105321*
X-00721903Y00105739*
X-0072197Y00106249*
X-00722032Y001068*
X-00722181Y0010732*
X-00722377Y00107803*
X-00722414Y00107849*
X-00722523Y00107988*
X-00722665Y00108213*
X-00722926Y00108495*
X-00723264Y00108827*
X-00723727Y00109173*
X-00724272Y00109529*
X-00724905Y00109853*
X-00722951Y00116286*
X-0072291Y00116281*
X-0072279Y00116226*
X-00722593Y00116119*
X-00722313Y00116003*
X-00721997Y00115841*
X-00721644Y00115633*
X-00720824Y0011512*
X-00719894Y00114469*
X-00718978Y00113694*
X-00718159Y00112804*
X-00717757Y00112297*
X-00717442Y00111758*
X-00717405Y00111712*
X-00717373Y00111625*
X-0071731Y0011145*
X-0071721Y00111229*
X-00717077Y00110921*
X-00716955Y0011053*
X-00716837Y00110097*
X-00716683Y00109619*
X-00716584Y00109022*
X-00716485Y00108424*
X-00716396Y00107744*
X-00716316Y00106981*
X-00716282Y00106181*
X-00716299Y00105304*
X-00716321Y00104385*
X-0071653Y00102567*
X-00716615Y001022*
X-00716672Y00101704*
X-0071677Y00101213*
X-00716919Y00100643*
X-00717181Y00099459*
X-00717525Y00098284*
X-00717948Y0009716*
X-00718211Y00096688*
X-00718475Y00096216*
X-0071848Y00096175*
X-0071853Y00096097*
X-00718628Y00095983*
X-00718724Y00095868*
X-00719025Y00095442*
X-00719412Y00094984*
X-00719933Y00094458*
X-00720491Y00093977*
X-00721131Y00093507*
X-00721799Y00093165*
X-00721886Y00093133*
X-00722015Y00093106*
X-00722149Y00093037*
X-00722365Y00092978*
X-00722663Y00092929*
X-00722962Y0009288*
X-00723344Y0009284*
X-00723766Y00092805*
X-00724231Y00092774*
X-00724777Y00092753*
X-00725407Y00092742*
X-00726077Y00092735*
X-00726785Y00092775*
X-00727575Y00092824*
X-00728443Y00092924*
X-00736983Y00094031*
X-00737025Y00094036*
X-00737149Y0009405*
X-00737314Y00094069*
X-00737562Y00094098*
X-00737893Y00094136*
X-00738223Y00094174*
X-00739013Y00094223*
X-00739886Y00094281*
X-007408Y00094344*
X-00741636Y00094357*
X-00742058Y00094322*
X-00742394Y00094318*
X-00742476Y00094328*
X-00742693Y00094269*
X-00743074Y00094229*
X-00743543Y00094157*
X-00744099Y00094054*
X-00744748Y00093877*
X-00745484Y00093668*
X-00746224Y00093419*
X-00745393Y00100651*
X-00745351Y00100646*
X-00745264Y00100678*
X-00745089Y00100742*
X-00744832Y00100796*
X-00744533Y00100845*
X-00744142Y00100968*
X-00743673Y0010104*
X-00743158Y00101148*
X-00743117Y00101143*
X-00743029Y00101175*
X-00742777Y00101188*
X-00742478Y00101237*
X-00742349Y00101264*
X-00742262Y00101296*
X-00742335Y00101388*
X-00742513Y0010166*
X-00742801Y0010207*
X-00743157Y00102613*
X-00743504Y00103239*
X-00743878Y00103994*
X-00744247Y0010479*
X-00744528Y00105618*
X-00744524Y0010566*
X-0074456Y00105706*
X-00744587Y00105835*
X-0074461Y00106005*
X-00744727Y00106437*
X-00744826Y00107034*
X-00744915Y00107715*
X-0074499Y00108519*
X-00744978Y00109355*
X-00744915Y00110269*
X-00744867Y00110682*
X-00744793Y00110967*
X-00744709Y00111334*
X-0074462Y00111743*
X-00744485Y00112188*
X-00744345Y00112674*
X-00743974Y0011372*
X-00743432Y00114788*
X-00743076Y00115334*
X-00742725Y00115838*
X-00742338Y00116296*
X-00741867Y00116744*
X-00741821Y00116781*
X-00741729Y00116854*
X-00741596Y00116922*
X-00741411Y00117069*
X-00741139Y00117247*
X-00740868Y00117425*
X-00740513Y00117593*
X-00740118Y00117757*
X-00739676Y00117958*
X-00739239Y00118117*
X-00738158Y00118411*
X-00737602Y00118515*
X-00737014Y00118531*
X-00736384Y00118542*
X-00735718Y00118508*
G37*
G36*
X-00719184Y0008495D02*
X-00719963Y00078172D01*
X-00723931Y00078628*
X-00723894Y00078582*
X-00723816Y00078531*
X-00723702Y00078434*
X-0072351Y00078287*
X-00723052Y00077899*
X-0072252Y00077419*
X-00721958Y00076852*
X-00721436Y0007629*
X-00720961Y00075691*
X-00720746Y00075373*
X-00720609Y00075106*
X-00720577Y00075018*
X-00720514Y00074844*
X-00720381Y00074535*
X-00720259Y00074144*
X-00720151Y00073629*
X-00720047Y00073073*
X-00720031Y00072485*
X-00720066Y00071819*
X-00720113Y00071406*
X-00720183Y00071162*
X-00720253Y00070919*
X-00720407Y00070309*
X-00720658Y00069584*
X-00721001Y00068786*
X-00721472Y00067961*
X-00722027Y00067145*
X-0072813Y0007015*
X-00728079Y00070228*
X-00727885Y00070457*
X-00727682Y00070769*
X-00727382Y00071195*
X-00727113Y00071708*
X-0072684Y00072263*
X-0072665Y00072827*
X-00726537Y00073442*
X-00726509Y0007369*
X-00726517Y00073984*
X-00726557Y00074366*
X-00726592Y00074789*
X-00726709Y00075221*
X-00726864Y00075699*
X-00727106Y00076146*
X-00727142Y00076192*
X-00727252Y0007633*
X-00727435Y00076561*
X-00727737Y00076847*
X-00728122Y00077142*
X-00728626Y00077493*
X-00729212Y00077854*
X-00729969Y00078192*
X-0073001Y00078197*
X-00730088Y00078248*
X-00730212Y00078262*
X-00730414Y00078327*
X-00730657Y00078397*
X-00731024Y00078481*
X-00731428Y00078611*
X-00731919Y00078709*
X-00732493Y00078817*
X-00733145Y00078976*
X-00733884Y00079103*
X-00734747Y00079244*
X-00735693Y00079394*
X-00736726Y00079513*
X-00737879Y00079688*
X-0073916Y00079835*
X-00747673Y00080814*
X-00746832Y00088129*
X-00719184Y0008495*
G37*
G36*
X-00751815Y000681D02*
X-00751732Y0006809D01*
X-00751567Y00068071*
X-00751278Y00068038*
X-00750952Y00067958*
X-00752945Y00059729*
X-00752986Y00059734*
X-00753198Y00059716*
X-00753455Y00059662*
X-00753754Y00059613*
X-00754099Y00059527*
X-00754448Y00059399*
X-00754762Y00059226*
X-00755038Y00059007*
X-00755084Y0005897*
X-00755186Y00058814*
X-00755338Y00058581*
X-00755542Y00058269*
X-00755759Y00057833*
X-0075595Y00057269*
X-00756108Y00056617*
X-0075624Y00055837*
X-00756292Y00055382*
X-00756279Y00055129*
X-00756313Y0005484*
X-00756301Y00054211*
X-00756299Y00053499*
X-00756215Y00052777*
X-00756089Y00052051*
X-00755866Y00051439*
X-0075583Y00051393*
X-00755761Y00051259*
X-00755656Y0005108*
X-00755473Y00050849*
X-00755254Y00050573*
X-00754952Y00050287*
X-00754604Y00050038*
X-00754173Y00049779*
X-00754131Y00049774*
X-00753971Y00049714*
X-00753774Y00049607*
X-00753411Y00049482*
X-00752962Y00049388*
X-00752392Y00049239*
X-00751695Y00049117*
X-00750868Y00049022*
X-00746777Y00048551*
X-00746813Y00048597*
X-00746964Y0004874*
X-00747152Y00048929*
X-00747413Y00049211*
X-00747705Y00049579*
X-00748071Y0005004*
X-00748432Y00050542*
X-00748788Y00051086*
X-00749135Y00051712*
X-00749477Y00052379*
X-00749768Y00053124*
X-00750055Y00053911*
X-00750258Y00054688*
X-00750365Y0005558*
X-00750431Y00056467*
X-00750368Y00057381*
X-00750339Y00057629*
X-00750264Y00057913*
X-0075018Y00058281*
X-00750045Y00058726*
X-00749896Y00059295*
X-00749664Y00059854*
X-00749423Y00060497*
X-00749094Y00061171*
X-00748683Y00061835*
X-00748226Y00062536*
X-0074769Y00063187*
X-00747067Y00063869*
X-00746367Y000645*
X-00745542Y00065117*
X-00744644Y00065642*
X-00744598Y00065679*
X-00744465Y00065747*
X-00744244Y00065847*
X-0074394Y00065938*
X-00743544Y00066102*
X-00743066Y00066256*
X-00742542Y00066447*
X-00741939Y00066587*
X-00741291Y00066764*
X-0074056Y00066931*
X-00739751Y00067047*
X-00738905Y00067118*
X-00738018Y00067183*
X-00737095Y00067203*
X-00736135Y00067176*
X-00735097Y00067099*
X-00735014Y00067089*
X-00734808Y00067065*
X-0073444Y00066981*
X-00733944Y00066924*
X-00733371Y00066816*
X-00732719Y00066658*
X-00731989Y00066448*
X-00731218Y00066234*
X-00730369Y00065969*
X-0072953Y00065621*
X-00728691Y00065273*
X-00727861Y00064843*
X-00727036Y00064371*
X-00726261Y00063822*
X-00725533Y00063235*
X-00724856Y00062571*
X-00724819Y00062525*
X-00724709Y00062387*
X-00724563Y00062203*
X-00724348Y00061885*
X-00724092Y00061562*
X-00723851Y00061116*
X-00723572Y00060623*
X-00723262Y00060043*
X-00722993Y00059468*
X-00722739Y00058769*
X-00722525Y00058074*
X-00722322Y00057297*
X-00722164Y00056483*
X-00722094Y00055638*
X-00722069Y00054755*
X-00722133Y00053841*
X-00722161Y00053593*
X-00722231Y0005335*
X-00722315Y00052983*
X-00722404Y00052575*
X-0072259Y00052051*
X-00722775Y00051529*
X-00723053Y00050932*
X-00723336Y00050295*
X-00723747Y0004963*
X-00724159Y00048966*
X-00724694Y00048316*
X-00725271Y0004767*
X-00725972Y00047039*
X-0072675Y00046458*
X-00727611Y00045887*
X-00723727Y00045441*
X-00724515Y0003858*
X-00749353Y00041436*
X-00749395Y00041441*
X-0074956Y0004146*
X-00749808Y00041488*
X-00750139Y00041526*
X-00750547Y00041615*
X-00751002Y00041667*
X-00751493Y00041766*
X-00752072Y00041832*
X-00753214Y00042089*
X-00754399Y00042351*
X-00755532Y00042691*
X-00756014Y00042872*
X-00756491Y00043094*
X-00756532Y00043099*
X-0075661Y0004315*
X-00756729Y00043205*
X-00756885Y00043307*
X-00757279Y0004352*
X-00757829Y00043834*
X-0075837Y00044231*
X-00758984Y00044721*
X-00759551Y00045246*
X-00760032Y00045804*
X-00760063Y00045892*
X-00760251Y00046081*
X-00760461Y0004644*
X-00760698Y00046928*
X-00761008Y00047508*
X-00761304Y00048212*
X-00761544Y00049035*
X-00761775Y00049941*
X-0076177Y00049982*
X-00761802Y00050069*
X-00761829Y00050198*
X-00761847Y0005041*
X-00761865Y00050621*
X-00761914Y0005092*
X-00761954Y00051301*
X-00761952Y00051678*
X-00761987Y00052101*
X-00762018Y00052565*
Y00053654*
X-00761963Y00054862*
X-00761852Y00056189*
X-00761776Y0005685*
X-00761678Y00057341*
X-0076157Y00057915*
X-00761453Y00058572*
X-00761289Y00059265*
X-00761116Y0006004*
X-00760637Y0006166*
X-00760336Y00062463*
X-00759997Y0006322*
X-00759618Y00063972*
X-00759202Y00064678*
X-00758749Y00065338*
X-00758269Y00065868*
X-00758223Y00065905*
X-00758131Y00065978*
X-00757988Y00066129*
X-00757762Y00066271*
X-00757532Y00066454*
X-00757214Y00066668*
X-0075685Y0006692*
X-0075645Y00067125*
X-00756003Y00067367*
X-00755474Y00067599*
X-00754388Y00067935*
X-00753791Y00068034*
X-00753152Y00068128*
X-00752481Y00068134*
X-00751815Y000681*
G37*
G36*
X-00725347Y00031348D02*
X-00726188Y00024033D01*
X-00753836Y00027212*
X-00752995Y00034527*
X-00725347Y00031348*
G37*
G36*
X-0071485Y00030141D02*
X-00715691Y00022826D01*
X-00722468Y00023605*
X-00721628Y0003092*
X-0071485Y00030141*
G37*
G36*
X-00727039Y00016635D02*
X-00727818Y00009857D01*
X-00731909Y00010328*
X-00731873Y00010282*
X-00731722Y00010139*
X-00731497Y00009903*
X-00731241Y00009581*
X-00730949Y00009212*
X-00730588Y0000871*
X-00730227Y00008208*
X-00729839Y00007577*
X-00729455Y00006905*
X-00729123Y00006155*
X-00728795Y00005364*
X-00728555Y0000454*
X-00728324Y00003634*
X-00728222Y00002701*
X-00728166Y00001732*
X-00728239Y00000735*
X-00728286Y00000322*
X-0072838Y-00000128*
X-00728534Y-00000738*
X-00728692Y-0000139*
X-00728943Y-00002115*
X-00729281Y-00002872*
X-00729656Y-00003582*
X-00729661Y-00003624*
X-00729707Y-0000366*
X-0072986Y-00003894*
X-00730068Y-00004247*
X-00730404Y-00004627*
X-00730751Y-0000509*
X-00731221Y-00005538*
X-00731691Y-00005986*
X-00732235Y-00006343*
X-00732281Y-00006379*
X-00732502Y-00006479*
X-00732769Y-00006616*
X-00733169Y-00006821*
X-00733652Y-00007017*
X-00734213Y-00007162*
X-0073482Y-00007343*
X-00735459Y-00007437*
X-00735542Y-00007428*
X-00735799Y-00007482*
X-00736176Y-00007481*
X-00736723Y-00007502*
X-00737435Y-00007503*
X-00738266Y-0000745*
X-00739268Y-00007418*
X-00740425Y-00007285*
X-00757576Y-00005313*
X-00756735Y00002002*
X-00742642Y00000381*
X-00742601Y00000377*
X-00742435Y00000358*
X-00742229Y00000334*
X-00741898Y00000296*
X-00741567Y00000258*
X-00741149Y00000252*
X-0074024Y00000147*
X-00739239Y00000116*
X-00738279Y00000089*
X-00737819Y00000078*
X-00737438Y00000118*
X-00737098Y00000163*
X-00736799Y00000212*
X-00736758Y00000207*
X-00736583Y00000271*
X-00736321Y00000366*
X-00736013Y00000498*
X-00735658Y00000667*
X-00735258Y00000872*
X-00734889Y00001165*
X-00734557Y00001504*
X-00734511Y0000154*
X-00734414Y00001655*
X-00734261Y00001888*
X-00734104Y00002163*
X-00733937Y00002521*
X-00733766Y0000292*
X-00733631Y00003365*
X-00733528Y00003898*
X-0073349Y00004228*
X-00733493Y00004564*
X-00733519Y00005069*
X-00733586Y00005579*
X-00733726Y00006182*
X-00733903Y0000683*
X-00734208Y00007452*
X-0073424Y00007539*
X-00734386Y00007723*
X-00734564Y00007995*
X-00734857Y00008364*
X-00735191Y00008737*
X-00735649Y00009125*
X-00736153Y00009476*
X-00736744Y00009795*
X-00736822Y00009846*
X-00736905Y00009855*
X-00737065Y00009916*
X-00737267Y00009981*
X-0073751Y0001005*
X-00737795Y00010125*
X-00738121Y00010204*
X-00738525Y00010335*
X-00738974Y00010428*
X-00739507Y00010531*
X-00740081Y00010639*
X-00740696Y00010752*
X-00741399Y00010832*
X-00742179Y00010964*
X-00743006Y00011059*
X-00755528Y00012499*
X-00754687Y00019814*
X-00727039Y00016635*
G37*
G36*
X-00760995Y-00011746D02*
X-00760913Y-00011755D01*
X-00760747Y-00011774*
X-00760458Y-00011807*
X-00760132Y-00011887*
X-00762125Y-00020116*
X-00762167Y-00020111*
X-00762378Y-00020129*
X-00762635Y-00020183*
X-00762934Y-00020233*
X-00763279Y-00020319*
X-00763629Y-00020446*
X-00763942Y-00020619*
X-00764218Y-00020839*
X-00764264Y-00020875*
X-00764366Y-00021031*
X-00764519Y-00021265*
X-00764722Y-00021576*
X-00764939Y-00022012*
X-0076513Y-00022576*
X-00765289Y-00023228*
X-0076542Y-00024009*
X-00765472Y-00024463*
X-0076546Y-00024716*
X-00765493Y-00025005*
X-00765481Y-00025634*
X-0076548Y-00026347*
X-00765395Y-00027068*
X-00765269Y-00027794*
X-00765047Y-00028406*
X-0076501Y-00028452*
X-00764942Y-00028586*
X-00764837Y-00028765*
X-00764654Y-00028996*
X-00764434Y-00029272*
X-00764132Y-00029558*
X-00763784Y-00029808*
X-00763353Y-00030067*
X-00763312Y-00030071*
X-00763151Y-00030132*
X-00762954Y-00030238*
X-00762592Y-00030363*
X-00762142Y-00030457*
X-00761573Y-00030606*
X-00760875Y-00030728*
X-00760048Y-00030823*
X-00755957Y-00031294*
X-00755993Y-00031248*
X-00756144Y-00031105*
X-00756332Y-00030916*
X-00756593Y-00030634*
X-00756885Y-00030266*
X-00757251Y-00029805*
X-00757612Y-00029303*
X-00757968Y-00028759*
X-00758315Y-00028133*
X-00758657Y-00027466*
X-00758948Y-00026721*
X-00759235Y-00025934*
X-00759439Y-00025157*
X-00759545Y-00024265*
X-00759611Y-00023378*
X-00759548Y-00022464*
X-00759519Y-00022216*
X-00759445Y-00021932*
X-00759361Y-00021565*
X-00759226Y-00021119*
X-00759077Y-0002055*
X-00758845Y-00019991*
X-00758603Y-00019349*
X-00758275Y-00018674*
X-00757863Y-0001801*
X-00757406Y-00017309*
X-0075687Y-00016659*
X-00756247Y-00015976*
X-00755547Y-00015345*
X-00754722Y-00014728*
X-00753824Y-00014203*
X-00753778Y-00014167*
X-00753645Y-00014098*
X-00753424Y-00013998*
X-0075312Y-00013907*
X-00752725Y-00013743*
X-00752246Y-00013589*
X-00751722Y-00013398*
X-00751119Y-00013258*
X-00750471Y-00013081*
X-0074974Y-00012914*
X-00748931Y-00012798*
X-00748085Y-00012727*
X-00747198Y-00012662*
X-00746275Y-00012643*
X-00745315Y-00012669*
X-00744277Y-00012747*
X-00744194Y-00012756*
X-00743988Y-0001278*
X-0074362Y-00012864*
X-00743125Y-00012921*
X-00742551Y-00013029*
X-00741899Y-00013188*
X-00741169Y-00013397*
X-00740398Y-00013611*
X-00739549Y-00013876*
X-0073871Y-00014224*
X-00737871Y-00014572*
X-00737041Y-00015002*
X-00736216Y-00015474*
X-00735442Y-00016024*
X-00734713Y-0001661*
X-00734036Y-00017274*
X-00733999Y-0001732*
X-0073389Y-00017458*
X-00733743Y-00017643*
X-00733529Y-0001796*
X-00733273Y-00018283*
X-00733031Y-0001873*
X-00732753Y-00019222*
X-00732442Y-00019802*
X-00732173Y-00020377*
X-00731919Y-00021077*
X-00731706Y-00021771*
X-00731502Y-00022548*
X-00731344Y-00023362*
X-00731274Y-00024208*
X-0073125Y-0002509*
X-00731313Y-00026004*
X-00731341Y-00026252*
X-00731411Y-00026495*
X-00731495Y-00026862*
X-00731584Y-00027271*
X-0073177Y-00027794*
X-00731956Y-00028317*
X-00732234Y-00028913*
X-00732516Y-0002955*
X-00732928Y-00030215*
X-00733339Y-00030879*
X-00733874Y-0003153*
X-00734451Y-00032175*
X-00735152Y-00032807*
X-0073593Y-00033387*
X-00736792Y-00033958*
X-00732907Y-00034405*
X-00733696Y-00041265*
X-00758534Y-00038409*
X-00758575Y-00038405*
X-0075874Y-00038386*
X-00758988Y-00038357*
X-00759319Y-00038319*
X-00759727Y-0003823*
X-00760182Y-00038178*
X-00760673Y-0003808*
X-00761252Y-00038013*
X-00762395Y-00037756*
X-00763579Y-00037494*
X-00764712Y-00037155*
X-00765194Y-00036974*
X-00765671Y-00036751*
X-00765712Y-00036746*
X-0076579Y-00036696*
X-00765909Y-0003664*
X-00766065Y-00036538*
X-0076646Y-00036326*
X-0076701Y-00036011*
X-0076755Y-00035614*
X-00768164Y-00035125*
X-00768731Y-00034599*
X-00769212Y-00034041*
X-00769244Y-00033954*
X-00769431Y-00033765*
X-00769641Y-00033405*
X-00769878Y-00032918*
X-00770188Y-00032337*
X-00770484Y-00031634*
X-00770725Y-0003081*
X-00770955Y-00029904*
X-00770951Y-00029863*
X-00770982Y-00029776*
X-0077101Y-00029647*
X-00771027Y-00029436*
X-00771045Y-00029224*
X-00771094Y-00028925*
X-00771134Y-00028544*
X-00771133Y-00028167*
X-00771168Y-00027744*
X-00771198Y-0002728*
Y-00026192*
X-00771143Y-00024983*
X-00771033Y-00023656*
X-00770957Y-00022995*
X-00770858Y-00022504*
X-0077075Y-0002193*
X-00770633Y-00021273*
X-0077047Y-00020581*
X-00770297Y-00019805*
X-00769817Y-00018185*
X-00769516Y-00017382*
X-00769177Y-00016625*
X-00768798Y-00015873*
X-00768382Y-00015168*
X-00767929Y-00014508*
X-00767449Y-00013977*
X-00767403Y-0001394*
X-00767311Y-00013867*
X-00767168Y-00013716*
X-00766942Y-00013574*
X-00766712Y-00013391*
X-00766394Y-00013177*
X-0076603Y-00012925*
X-0076563Y-0001272*
X-00765183Y-00012479*
X-00764654Y-00012246*
X-00763569Y-0001191*
X-00762971Y-00011812*
X-00762332Y-00011718*
X-00761661Y-00011711*
X-00760995Y-00011746*
G37*
%LNflagmate_legend_top-2*%
%LPC*%
%SRX1Y1I0J0*%
G36*
X-00736022Y00111131D02*
X-00736316Y00111123D01*
X-00736698Y00111083*
X-0073713Y00110965*
X-00737604Y00110852*
X-0073805Y0011061*
X-00738548Y00110291*
X-00738594Y00110254*
X-00738737Y00110103*
X-00738972Y00109879*
X-00739175Y00109567*
X-00739434Y00109136*
X-00739698Y00108664*
X-00739888Y001081*
X-00740001Y00107485*
X-0074001Y00107402*
X-00739997Y00107149*
X-00739999Y00106773*
X-00739973Y00106267*
X-00739874Y0010567*
X-00739744Y00104984*
X-00739489Y00104285*
X-00739152Y00103576*
X-00739115Y00103531*
X-0073901Y00103351*
X-00738832Y00103079*
X-00738572Y00102798*
X-00738238Y00102424*
X-00737858Y00102088*
X-00737432Y00101787*
X-00736959Y00101524*
X-00736918Y00101519*
X-00736757Y00101459*
X-00736514Y00101389*
X-00736193Y00101268*
X-00735702Y0010117*
X-00735087Y00101057*
X-00734348Y0010093*
X-00733438Y00100826*
X-00731951Y00100655*
X-00731982Y00100742*
X-00732Y00100954*
X-00732086Y00101299*
X-00732153Y00101809*
X-00732247Y00102448*
X-00732363Y00103257*
X-00732465Y0010419*
X-0073259Y00105293*
X-00732585Y00105334*
X-00732617Y00105421*
X-00732598Y00105587*
X-00732657Y00105803*
X-00732724Y00106313*
X-00732776Y00106947*
X-00732907Y00107632*
X-00733038Y00108317*
X-00733178Y00108919*
X-00733273Y00109182*
X-00733374Y00109403*
X-0073341Y00109449*
X-00733515Y00109628*
X-00733735Y00109905*
X-00733995Y00110186*
X-00734339Y00110477*
X-00734765Y00110777*
X-00735242Y00110999*
X-00735774Y00111102*
X-00735857Y00111112*
X-00736022Y00111131*
G37*
G36*
X-00737542Y00059675D02*
X-00738047Y00059649D01*
X-00739104Y00059561*
X-00740212Y00059396*
X-00741251Y00059096*
X-00741739Y00058859*
X-00742186Y00058618*
X-00742232Y00058581*
X-00742278Y00058544*
X-00742549Y00058366*
X-00742881Y00058028*
X-00743311Y00057575*
X-00743754Y00056997*
X-00744165Y00056333*
X-00744503Y00055576*
X-00744597Y00055126*
X-00744691Y00054676*
X-00744719Y00054428*
X-00744702Y00054217*
X-00744684Y00054006*
X-00744676Y00053712*
X-00744623Y00053077*
X-00744456Y00052346*
X-00744174Y00051518*
X-00743969Y00051118*
X-00743722Y00050713*
X-00743476Y00050307*
X-00743147Y00049893*
X-0074311Y00049847*
X-00743074Y000498*
X-00742959Y00049704*
X-00742767Y00049556*
X-00742574Y00049408*
X-00742346Y00049214*
X-00742034Y00049011*
X-00741686Y00048762*
X-00741291Y00048549*
X-00740856Y00048331*
X-00740337Y00048104*
X-00739814Y00047918*
X-00739209Y00047723*
X-00738557Y00047564*
X-00737864Y00047401*
X-0073712Y00047315*
X-00737079Y00047311*
X-00736913Y00047292*
X-00736707Y00047268*
X-00736413Y00047276*
X-00736041Y00047233*
X-00735623Y00047227*
X-00735159Y00047257*
X-00734699Y00047246*
X-00733642Y00047334*
X-0073253Y00047541*
X-00731486Y00047882*
X-00731003Y00048078*
X-00730551Y00048361*
X-0073051Y00048356*
X-00730459Y00048434*
X-00730183Y00048653*
X-00729809Y00048987*
X-00729334Y00049477*
X-00728891Y00050054*
X-0072847Y00050801*
X-00728122Y00051641*
X-00728024Y00052132*
X-00727926Y00052623*
X-00727897Y00052871*
X-00727919Y00053041*
X-00727945Y00053547*
X-00727998Y00054181*
X-0072817Y00054871*
X-00728461Y00055616*
X-00728666Y00056016*
X-00728871Y00056417*
X-00729164Y00056785*
X-00729498Y00057159*
X-00729539Y00057164*
X-00729571Y00057251*
X-00729686Y00057348*
X-00729841Y0005745*
X-00730034Y00057597*
X-00730304Y00057796*
X-00730574Y00057994*
X-00730932Y00058161*
X-00731326Y00058374*
X-00731762Y00058592*
X-00732285Y00058777*
X-00732803Y00059004*
X-00733414Y00059158*
X-00734065Y00059317*
X-00734758Y0005948*
X-00735544Y00059571*
X-00735585Y00059575*
X-0073575Y00059594*
X-00735957Y00059618*
X-00736251Y0005961*
X-00736623Y00059653*
X-00737041Y00059659*
X-00737542Y00059675*
G37*
G36*
X-00746722Y-0002017D02*
X-00747227Y-00020196D01*
X-00748284Y-00020284*
X-00749392Y-0002045*
X-00750431Y-00020749*
X-00750919Y-00020986*
X-00751366Y-00021228*
X-00751412Y-00021264*
X-00751458Y-00021301*
X-0075173Y-00021479*
X-00752062Y-00021818*
X-00752491Y-00022271*
X-00752934Y-00022848*
X-00753345Y-00023512*
X-00753683Y-00024269*
X-00753777Y-00024719*
X-00753871Y-00025169*
X-00753899Y-00025417*
X-00753882Y-00025628*
X-00753864Y-0002584*
X-00753856Y-00026134*
X-00753803Y-00026768*
X-00753636Y-00027499*
X-00753355Y-00028327*
X-00753149Y-00028727*
X-00752903Y-00029133*
X-00752656Y-00029538*
X-00752327Y-00029953*
X-0075229Y-00029999*
X-00752254Y-00030045*
X-00752139Y-00030142*
X-00751947Y-00030289*
X-00751755Y-00030437*
X-00751526Y-00030631*
X-00751214Y-00030834*
X-00750866Y-00031084*
X-00750472Y-00031296*
X-00750036Y-00031514*
X-00749518Y-00031741*
X-00748995Y-00031927*
X-00748389Y-00032122*
X-00747737Y-00032281*
X-00747044Y-00032444*
X-007463Y-0003253*
X-00746259Y-00032535*
X-00746094Y-00032553*
X-00745887Y-00032577*
X-00745593Y-00032569*
X-00745221Y-00032612*
X-00744803Y-00032618*
X-00744339Y-00032588*
X-0074388Y-00032599*
X-00742823Y-00032511*
X-0074171Y-00032304*
X-00740666Y-00031963*
X-00740183Y-00031767*
X-00739732Y-00031484*
X-0073969Y-00031489*
X-00739639Y-00031411*
X-00739363Y-00031192*
X-0073899Y-00030858*
X-00738514Y-00030368*
X-00738071Y-00029791*
X-0073765Y-00029044*
X-00737303Y-00028204*
X-00737204Y-00027713*
X-00737106Y-00027222*
X-00737077Y-00026974*
X-007371Y-00026804*
X-00737125Y-00026299*
X-00737178Y-00025664*
X-0073735Y-00024975*
X-00737641Y-00024229*
X-00737846Y-00023829*
X-00738052Y-00023428*
X-00738344Y-0002306*
X-00738678Y-00022686*
X-0073872Y-00022682*
X-00738751Y-00022594*
X-00738866Y-00022497*
X-00739022Y-00022396*
X-00739214Y-00022248*
X-00739484Y-00022049*
X-00739755Y-00021851*
X-00740112Y-00021684*
X-00740506Y-00021471*
X-00740942Y-00021254*
X-00741465Y-00021068*
X-00741983Y-00020841*
X-00742594Y-00020687*
X-00743245Y-00020528*
X-00743939Y-00020365*
X-00744724Y-00020274*
X-00744765Y-0002027*
X-0074493Y-00020251*
X-00745137Y-00020227*
X-00745431Y-00020235*
X-00745803Y-00020192*
X-00746221Y-00020186*
X-00746722Y-0002017*
G37*
%LNflagmate_legend_top-3*%
%LPD*%
%SRX1Y1I0J0*%
G54D146*
X-00426914Y-00063096D02*
D01*
D01*
G75*
G03X-00436756I-00004921J0D01*
G74*G01*
D01*
G75*
G03X-00426914I00004921J0D01*
G74*G01*
X00044675Y-00449813D02*
D01*
D01*
G75*
G03X00034833I-00004921J0D01*
G74*G01*
D01*
G75*
G03X00044675I00004921J0D01*
G74*G01*
X-0043778Y-0006382D02*
D01*
D01*
G75*
G03X-00447622I-00004921J0D01*
G74*G01*
D01*
G75*
G03X-0043778I00004921J0D01*
G74*G01*
X00714087Y00045089D02*
D01*
D01*
G75*
G03X00704245I-00004921J0D01*
G74*G01*
D01*
G75*
G03X00714087I00004921J0D01*
G74*G01*
G54D147*
X00062674Y-00727245D02*
D01*
D01*
G75*
G03X00111636Y-00753754I00037734J00011224D01*
G74*G01*
X00098398Y-0048614D02*
D01*
D01*
G75*
G03X000368Y-00504459I-00024435J-00030555D01*
G74*G01*
X00158106Y-00550984D02*
D01*
D01*
G75*
G03X0014642Y-00532691I-00037727J-00011222D01*
G74*G01*
X00022044Y-00569693D02*
D01*
D01*
G75*
G03X00022259Y-00591399I00037944J-00010478D01*
G74*G01*
X00172012Y-00735791D02*
D01*
D01*
G75*
G03X00198522Y-00686829I-00011226J00037736D01*
G74*G01*
X-00350985Y00090608D02*
D01*
D01*
G75*
G03X-002956Y00096314I00024839J00030547D01*
G74*G01*
X-00298333Y00308115D02*
D01*
D01*
G75*
G03X-0031614Y00295701I00012734J-00037245D01*
G74*G01*
X-0020618Y00206278D02*
D01*
D01*
G75*
G03X-00197659Y00226243I-00030539J00024834D01*
G74*G01*
X-00186279Y0029215D02*
D01*
D01*
G75*
G03X-00236134Y003327I-00039013J00002956D01*
G74*G01*
X-00405559Y00185735D02*
D01*
D01*
G75*
G03X-00399852Y0013035I00030546J-00024839D01*
G74*G01*
X00564654Y00415402D02*
D01*
D01*
G75*
G03X0055678I-00003937J0D01*
G74*G01*
D01*
G75*
G03X00564654I00003937J0D01*
G74*G01*
X-0034482Y00365094D02*
D01*
D01*
G75*
G03X-00352694I-00003937J0D01*
G74*G01*
D01*
G75*
G03X-0034482I00003937J0D01*
G74*G01*
X00279874Y00411569D02*
D01*
D01*
G75*
G03X00272I-00003937J0D01*
G74*G01*
D01*
G75*
G03X00279874I00003937J0D01*
G74*G01*
X-00421344Y-00180609D02*
X-00412279Y-00218922D01*
X-00703438Y-00287828D02*
X-00412267Y-00218929D01*
X-00756938Y-0006178D02*
X-0070345Y-00287822D01*
X-00465767Y00007122D02*
X-004567Y-00031195D01*
X-00756938Y-0006178D02*
X-00465767Y00007122D01*
X00025079Y-00420269D02*
X00405911Y-00672336D01*
X00777487Y-0011094*
X00396656Y00141126D02*
X00777487Y-0011094D01*
X00025079Y-00420269D02*
X00396656Y00141126D01*
X00407345Y0020323D02*
X00448056Y0022017D01*
X00428672Y00151978D02*
X00469383Y00168919D01*
X00323755Y00260258D02*
X00359155Y00285206D01*
X00355508Y00215206D02*
X00390907Y00240154D01*
X00412629Y00192279D02*
X00451229Y00213594D01*
X00385794Y00240873D02*
X00424393Y00262188D01*
X00102405Y00360836D02*
X00116518Y00401779D01*
X00154514Y00342873D02*
X00168628Y00383816D01*
X00111637Y-0075376D02*
X00172011Y-00735795D01*
X00022259Y-005914D02*
X00062672Y-00727246D01*
X00098403Y-00486139D02*
X00146419Y-0053269D01*
X00158105Y-00550983D02*
X00198524Y-00686832D01*
X00022044Y-00569697D02*
X00036812Y-00504464D01*
X-00298334Y00308108D02*
X-00236131Y0033269D01*
X-002956Y00096312D02*
X-0020618Y00206278D01*
X-00197659Y00226242D02*
X-00186284Y0029215D01*
X-00405563Y00185733D02*
X-00316148Y00295697D01*
X-00399858Y00130352D02*
X-00350983Y00090606D01*
X-00419747Y-00561472D02*
X-00406216Y-00569531D01*
X-00321651Y-0061989D02*
X-00308119Y-00627947D01*
X-00253227Y-00535772D02*
X-00251716Y-00533235D01*
X-00308119Y-00627947D02*
X-00304594Y-00622028D01*
X-00363342Y-0046676D02*
X-00343046Y-00478844D01*
X-0027201Y-00521146D02*
X-00251716Y-00533235D01*
X-00364854Y-00469295D02*
X-00363342Y-0046676D01*
X-00419747Y-00561472D02*
X-0041622Y-00555553D01*
X-00588979Y-00390836D02*
X-00548527Y-00361447D01*
X-0055371Y-00439377D02*
X-00513261Y-00409987D01*
X-00528854Y-00469004D02*
X-00492887Y-0043427D01*
X-00487174Y-00512163D02*
X-00451207Y-0047743D01*
X-00133244Y-00648705D02*
X-00131093Y-00637093D01*
X-00108083Y-0065337D02*
X-00105931Y-00641758D01*
X-00230761Y-00673414D02*
X-00216563Y-0062547D01*
X-00173233Y-00690453D02*
X-00159034Y-0064251D01*
X-00369151Y-00023607D02*
X-0034214Y-00140609D01*
X-00315286Y-00134407*
X-00342298Y-00017405D02*
X-00315286Y-00134407D01*
X-00369151Y-00023607D02*
X-00342298Y-00017405D01*
X00746638Y00138648D02*
X0074903Y00125078D01*
X00641953Y00120189D02*
X00644345Y00106619D01*
G54D148*
X-00171401Y-00207591D02*
X-00102827Y-00248796D01*
X-00315612Y-00447599D02*
X-00247038Y-00488804D01*
G54D149*
X00661072Y-00316558D02*
X00687174Y-00331346D01*
X-0066745Y0012038D02*
X-00637605Y00117337D01*
X00454078Y0054034D02*
X00461022Y00533368D01*
X0047218Y00544479*
X00433126Y00505588D02*
X00444283Y00516699D01*
X00437337Y00523673D02*
X00444283Y00516699D01*
X00437337Y00523673D02*
X00454078Y0054034D01*
X-00139451Y00396026D02*
X-00129778Y00397842D01*
X-00132681Y0041332D02*
X-00129778Y00397842D01*
X-00125422Y00374625D02*
X-00122518Y00359147D01*
X-00135095Y00372809D02*
X-00125422Y00374625D01*
X-00139451Y00396026D02*
X-00135095Y00372809D01*
X-00388533Y00517835D02*
X-00351221Y00492191D01*
X-00622677Y00177152D02*
X-00585363Y0015151D01*
X00511338Y-00541045D02*
X00536407Y-00557507D01*
X00544638Y-00544973*
X00543203Y-00538051*
X00526491Y-00527077*
X00519569Y-00528511*
X00511338Y-00541045*
X005611Y-00519904D02*
X00555612Y-0052826D01*
X0054869Y-00529695*
X00540334Y-00524208*
X005389Y-00517286*
X00544387Y-0050893*
X00551309Y-00507495*
X00555487Y-00510239*
X00544512Y-00526951*
X00544262Y-00490908D02*
X0056933Y-0050737D01*
X00577561Y-00494836*
X00576127Y-00487914*
X00571949Y-00485171*
X00567771Y-00482427*
X00560849Y-00483861*
X00552618Y-00496396*
X0056908Y-00471327D02*
X00581614Y-00479558D01*
X00588536Y-00478124*
X00596767Y-00465589*
X00580054Y-00454615*
X00616097Y-00454364D02*
X00618841Y-00450186D01*
X00617407Y-00443265*
X00596516Y-00429546*
X00588285Y-00442081*
X0058972Y-00449002*
X00598076Y-0045449*
X00604998Y-00453055*
X00613229Y-00440521*
M02*