%FSTAX26Y26*%
%MOIN*%
%SFA1B1*%

%IPPOS*%
%AMD38*
4,1,8,0.016400,0.015900,-0.021800,0.007100,-0.023300,0.004700,-0.018900,-0.014400,-0.016400,-0.015900,0.021800,-0.007100,0.023300,-0.004700,0.018900,0.014400,0.016400,0.015900,0.0*
1,1,0.004016,0.016900,0.014000*
1,1,0.004016,-0.021300,0.005100*
1,1,0.004016,-0.016900,-0.014000*
1,1,0.004016,0.021300,-0.005100*
%
%AMD50*
4,1,4,-0.009800,0.010600,-0.014200,-0.002300,0.009800,-0.010600,0.014200,0.002300,-0.009800,0.010600,0.0*
%
%AMD57*
4,1,4,-0.011800,-0.018000,0.017200,-0.012900,0.011800,0.018000,-0.017200,0.012900,-0.011800,-0.018000,0.0*
%
%AMD70*
4,1,4,-0.014700,-0.003000,0.003000,-0.014700,0.014700,0.003000,-0.003000,0.014700,-0.014700,-0.003000,0.0*
%
%AMD71*
4,1,4,0.000900,0.012100,-0.010800,-0.005600,-0.000900,-0.012100,0.010800,0.005600,0.000900,0.012100,0.0*
%
%AMD72*
4,1,4,-0.005600,0.010800,-0.012100,0.000900,0.005600,-0.010800,0.012100,-0.000900,-0.005600,0.010800,0.0*
%
%AMD73*
4,1,4,-0.021800,-0.004400,0.004400,-0.021800,0.021800,0.004400,-0.004400,0.021800,-0.021800,-0.004400,0.0*
%
%AMD74*
4,1,4,-0.008200,-0.001700,0.001700,-0.008200,0.008200,0.001700,-0.001700,0.008200,-0.008200,-0.001700,0.0*
%
%AMD77*
4,1,4,0.001500,0.014600,-0.011400,0.009200,-0.001500,-0.014600,0.011400,-0.009200,0.001500,0.014600,0.0*
%
%AMD78*
4,1,4,-0.001800,0.014300,-0.012900,0.006500,0.001800,-0.014300,0.012900,-0.006500,-0.001800,0.014300,0.0*
%
%AMD79*
4,1,4,0.000100,-0.014700,0.012400,-0.007900,-0.000100,0.014700,-0.012400,0.007900,0.000100,-0.014700,0.0*
%
%AMD84*
4,1,4,0.118400,0.112600,0.043800,0.157400,-0.118400,-0.112600,-0.043800,-0.157400,0.118400,0.112600,0.0*
%
%AMD85*
4,1,4,-0.007700,-0.012900,0.011600,-0.009500,0.007700,0.012900,-0.011600,0.009500,-0.007700,-0.012900,0.0*
%
%AMD153*
4,1,8,0.004800,-0.012100,0.012700,0.002800,0.011600,0.006100,-0.001500,0.013000,-0.004800,0.012100,-0.012700,-0.002800,-0.011600,-0.006100,0.001500,-0.013000,0.004800,-0.012100,0.0*
1,1,0.004942,0.002600,-0.010900*
1,1,0.004942,0.010500,0.003900*
1,1,0.004942,-0.002600,0.010900*
1,1,0.004942,-0.010500,-0.003900*
%
%AMD154*
4,1,8,-0.012900,0.001000,-0.003100,-0.012600,0.000400,-0.013100,0.012300,-0.004400,0.012900,-0.001000,0.003100,0.012600,-0.000400,0.013100,-0.012300,0.004400,-0.012900,0.001000,0.0*
1,1,0.004942,-0.010900,0.002400*
1,1,0.004942,-0.001000,-0.011100*
1,1,0.004942,0.010900,-0.002400*
1,1,0.004942,0.001000,0.011100*
%
%AMD155*
4,1,8,0.013000,-0.000900,0.003000,0.012600,-0.000400,0.013100,-0.012400,0.004300,-0.013000,0.000900,-0.003000,-0.012600,0.000400,-0.013100,0.012400,-0.004300,0.013000,-0.000900,0.0*
1,1,0.004942,0.010900,-0.002400*
1,1,0.004942,0.001000,0.011200*
1,1,0.004942,-0.010900,0.002400*
1,1,0.004942,-0.001000,-0.011200*
%
%AMD156*
4,1,8,0.012800,-0.002000,0.004100,0.012300,0.000700,0.013100,-0.012000,0.005300,-0.012800,0.002000,-0.004100,-0.012300,-0.000700,-0.013100,0.012000,-0.005300,0.012800,-0.002000,0.0*
1,1,0.004942,0.010700,-0.003300*
1,1,0.004942,0.001900,0.011000*
1,1,0.004942,-0.010700,0.003300*
1,1,0.004942,-0.001900,-0.011000*
%
%AMD157*
4,1,8,0.008600,-0.009700,0.011000,0.006900,0.008900,0.009600,-0.005800,0.011800,-0.008600,0.009700,-0.011000,-0.006900,-0.008900,-0.009600,0.005800,-0.011800,0.008600,-0.009700,0.0*
1,1,0.004942,0.006100,-0.009400*
1,1,0.004942,0.008500,0.007200*
1,1,0.004942,-0.006100,0.009400*
1,1,0.004942,-0.008500,-0.007200*
%
%AMD158*
4,1,8,0.009700,-0.008700,0.010100,0.008100,0.007700,0.010600,-0.007100,0.011000,-0.009700,0.008700,-0.010100,-0.008100,-0.007700,-0.010600,0.007100,-0.011000,0.009700,-0.008700,0.0*
1,1,0.004942,0.007200,-0.008600*
1,1,0.004942,0.007600,0.008200*
1,1,0.004942,-0.007200,0.008600*
1,1,0.004942,-0.007600,-0.008200*
%
%AMD159*
4,1,8,-0.010500,-0.007000,0.004300,-0.011800,0.007400,-0.010200,0.012000,0.003900,0.010500,0.007000,-0.004300,0.011800,-0.007400,0.010200,-0.012000,-0.003900,-0.010500,-0.007000,0.0*
1,1,0.004942,-0.009700,-0.004600*
1,1,0.004942,0.005100,-0.009500*
1,1,0.004942,0.009700,0.004600*
1,1,0.004942,-0.005100,0.009500*
%
%AMD160*
4,1,8,-0.011000,-0.006200,0.003400,-0.012100,0.006600,-0.010700,0.012300,0.002900,0.011000,0.006200,-0.003400,0.012100,-0.006600,0.010700,-0.012300,-0.002900,-0.011000,-0.006200,0.0*
1,1,0.004942,-0.010000,-0.003900*
1,1,0.004942,0.004400,-0.009800*
1,1,0.004942,0.010000,0.003900*
1,1,0.004942,-0.004400,0.009800*
%
%AMD161*
4,1,8,-0.033600,0.009300,0.008100,-0.033900,0.014400,-0.034100,0.033500,-0.015600,0.033600,-0.009300,-0.008100,0.033900,-0.014400,0.034100,-0.033500,0.015600,-0.033600,0.009300,0.0*
1,1,0.008878,-0.030400,0.012300*
1,1,0.008878,0.011300,-0.030800*
1,1,0.008878,0.030400,-0.012300*
1,1,0.008878,-0.011300,0.030800*
%
%AMD162*
4,1,8,0.012400,0.002500,0.000500,0.012600,-0.003000,0.012300,-0.012600,0.001000,-0.012400,-0.002500,-0.000500,-0.012600,0.003000,-0.012300,0.012600,-0.001000,0.012400,0.002500,0.0*
1,1,0.004942,0.010700,0.000600*
1,1,0.004942,-0.001100,0.010700*
1,1,0.004942,-0.010700,-0.000600*
1,1,0.004942,0.001100,-0.010700*
%
%AMD163*
4,1,8,-0.012400,0.002400,-0.005300,-0.011500,-0.001900,-0.012500,0.011200,-0.005700,0.012400,-0.002400,0.005300,0.011500,0.001900,0.012500,-0.011200,0.005700,-0.012400,0.002400,0.0*
1,1,0.004942,-0.010100,0.003600*
1,1,0.004942,-0.003000,-0.010300*
1,1,0.004942,0.010100,-0.003600*
1,1,0.004942,0.003000,0.010300*
%
%AMD164*
4,1,8,-0.032000,0.013900,0.003300,-0.034700,0.009500,-0.035700,0.031000,-0.020100,0.032000,-0.013900,-0.003300,0.034700,-0.009500,0.035700,-0.031000,0.020100,-0.032000,0.013900,0.0*
1,1,0.008878,-0.028400,0.016500*
1,1,0.008878,0.006900,-0.032100*
1,1,0.008878,0.028400,-0.016500*
1,1,0.008878,-0.006900,0.032100*
%
%AMD165*
4,1,8,-0.012400,0.004000,-0.005900,-0.011600,-0.002700,-0.012800,0.011000,-0.007100,0.012400,-0.004000,0.005900,0.011600,0.002700,0.012800,-0.011000,0.007100,-0.012400,0.004000,0.0*
1,1,0.004942,-0.010100,0.004900*
1,1,0.004942,-0.003600,-0.010600*
1,1,0.004942,0.010100,-0.004900*
1,1,0.004942,0.003600,0.010600*
%
%AMD167*
4,1,4,0.015800,0.001900,0.000700,0.015900,-0.015800,-0.001900,-0.000700,-0.015900,0.015800,0.001900,0.0*
%
%AMD168*
4,1,4,0.012500,-0.001600,-0.002600,0.012400,-0.012500,0.001600,0.002600,-0.012400,0.012500,-0.001600,0.0*
%
%AMD169*
4,1,4,0.055800,0.015400,0.011000,0.056800,-0.055800,-0.015400,-0.011000,-0.056800,0.055800,0.015400,0.0*
%
%AMD170*
4,1,4,0.011700,-0.017500,0.020600,-0.004700,-0.011700,0.017500,-0.020600,0.004700,0.011700,-0.017500,0.0*
%
%AMD171*
4,1,8,0.012300,0.004000,-0.002000,0.012800,-0.005300,0.012000,-0.013100,-0.000600,-0.012300,-0.004000,0.002000,-0.012800,0.005300,-0.012000,0.013100,0.000600,0.012300,0.004000,0.0*
1,1,0.004942,0.011000,0.001900*
1,1,0.004942,-0.003300,0.010700*
1,1,0.004942,-0.011000,-0.001900*
1,1,0.004942,0.003300,-0.010700*
%
%AMD172*
4,1,8,0.012000,0.004900,-0.002900,0.012600,-0.006200,0.011500,-0.013000,-0.001600,-0.012000,-0.004900,0.002900,-0.012600,0.006200,-0.011500,0.013000,0.001600,0.012000,0.004900,0.0*
1,1,0.004942,0.010900,0.002700*
1,1,0.004942,-0.004100,0.010400*
1,1,0.004942,-0.010900,-0.002700*
1,1,0.004942,0.004100,-0.010400*
%
%AMD173*
4,1,8,-0.012300,-0.004100,0.002000,-0.012800,0.005400,-0.011900,0.013100,0.000700,0.012300,0.004100,-0.002000,0.012800,-0.005400,0.011900,-0.013100,-0.000700,-0.012300,-0.004100,0.0*
1,1,0.004942,-0.011000,-0.002000*
1,1,0.004942,0.003300,-0.010700*
1,1,0.004942,0.011000,0.002000*
1,1,0.004942,-0.003300,0.010700*
%
%AMD174*
4,1,8,-0.011900,-0.005100,0.003100,-0.012600,0.006300,-0.011500,0.013000,0.001800,0.011900,0.005100,-0.003100,0.012600,-0.006300,0.011500,-0.013000,-0.001800,-0.011900,-0.005100,0.0*
1,1,0.004942,-0.010800,-0.002900*
1,1,0.004942,0.004200,-0.010400*
1,1,0.004942,0.010800,0.002900*
1,1,0.004942,-0.004200,0.010400*
%
%AMD175*
4,1,8,-0.009400,-0.009000,0.007300,-0.010700,0.010000,-0.008500,0.011500,0.006200,0.009400,0.009000,-0.007300,0.010700,-0.010000,0.008500,-0.011500,-0.006200,-0.009400,-0.009000,0.0*
1,1,0.004942,-0.009100,-0.006500*
1,1,0.004942,0.007600,-0.008200*
1,1,0.004942,0.009100,0.006500*
1,1,0.004942,-0.007600,0.008200*
%
%AMD176*
4,1,8,-0.012700,0.002600,-0.004700,-0.012100,-0.001300,-0.013000,0.011700,-0.005900,0.012700,-0.002600,0.004700,0.012100,0.001300,0.013000,-0.011700,0.005900,-0.012700,0.002600,0.0*
1,1,0.004942,-0.010500,0.003800*
1,1,0.004942,-0.002500,-0.010900*
1,1,0.004942,0.010500,-0.003800*
1,1,0.004942,0.002500,0.010900*
%
%AMD177*
4,1,4,-0.046400,0.012300,-0.038800,-0.028200,0.046400,-0.012300,0.038800,0.028200,-0.046400,0.012300,0.0*
%
%AMD178*
4,1,8,-0.011900,0.005100,-0.007000,-0.010900,-0.003900,-0.012500,0.010200,-0.008200,0.011900,-0.005100,0.007000,0.010900,0.003900,0.012500,-0.010200,0.008200,-0.011900,0.005100,0.0*
1,1,0.004942,-0.009500,0.005900*
1,1,0.004942,-0.004600,-0.010200*
1,1,0.004942,0.009500,-0.005900*
1,1,0.004942,0.004600,0.010200*
%
%AMD179*
4,1,8,-0.012700,0.002700,-0.004700,-0.012100,-0.001300,-0.013000,0.011700,-0.006000,0.012700,-0.002700,0.004700,0.012100,0.001300,0.013000,-0.011700,0.006000,-0.012700,0.002700,0.0*
1,1,0.004942,-0.010500,0.003900*
1,1,0.004942,-0.002500,-0.010900*
1,1,0.004942,0.010500,-0.003900*
1,1,0.004942,0.002500,0.010900*
%
%AMD180*
4,1,8,-0.012600,0.003300,-0.005300,-0.011800,-0.002000,-0.012900,0.011300,-0.006600,0.012600,-0.003300,0.005300,0.011800,0.002000,0.012900,-0.011300,0.006600,-0.012600,0.003300,0.0*
1,1,0.004942,-0.010300,0.004400*
1,1,0.004942,-0.003100,-0.010800*
1,1,0.004942,0.010300,-0.004400*
1,1,0.004942,0.003100,0.010800*
%
%AMD181*
4,1,8,-0.012600,0.000400,-0.003300,-0.012200,0.000100,-0.012600,0.012000,-0.003800,0.012600,-0.000400,0.003300,0.012200,-0.000100,0.012600,-0.012000,0.003800,-0.012600,0.000400,0.0*
1,1,0.004942,-0.010600,0.001900*
1,1,0.004942,-0.001300,-0.010700*
1,1,0.004942,0.010600,-0.001900*
1,1,0.004942,0.001300,0.010700*
%
%AMD182*
4,1,4,-0.016000,0.045200,-0.045200,0.016100,0.016000,-0.045200,0.045200,-0.016100,-0.016000,0.045200,0.0*
%
%AMD183*
4,1,8,-0.012400,0.002200,-0.005000,-0.011600,-0.001700,-0.012500,0.011400,-0.005500,0.012400,-0.002200,0.005000,0.011600,0.001700,0.012500,-0.011400,0.005500,-0.012400,0.002200,0.0*
1,1,0.004942,-0.010200,0.003400*
1,1,0.004942,-0.002800,-0.010400*
1,1,0.004942,0.010200,-0.003400*
1,1,0.004942,0.002800,0.010400*
%
%AMD184*
4,1,8,0.009000,0.009400,-0.007800,0.010400,-0.010300,0.008000,-0.011200,-0.006700,-0.009000,-0.009400,0.007800,-0.010400,0.010300,-0.008000,0.011200,0.006700,0.009000,0.009400,0.0*
1,1,0.004942,0.008800,0.006900*
1,1,0.004942,-0.007900,0.007900*
1,1,0.004942,-0.008800,-0.006900*
1,1,0.004942,0.007900,-0.007900*
%
%AMD185*
4,1,8,-0.019800,-0.003500,0.007200,-0.018800,0.011500,-0.017600,0.021000,-0.000900,0.019800,0.003500,-0.007200,0.018800,-0.011500,0.017600,-0.021000,0.000900,-0.019800,-0.003500,0.0*
1,1,0.006418,-0.018200,-0.000700*
1,1,0.006418,0.008800,-0.016000*
1,1,0.006418,0.018200,0.000700*
1,1,0.006418,-0.008800,0.016000*
%
%AMD186*
4,1,8,0.004700,-0.012100,0.012700,0.002700,0.011700,0.006000,-0.001300,0.013000,-0.004700,0.012100,-0.012700,-0.002700,-0.011700,-0.006000,0.001300,-0.013000,0.004700,-0.012100,0.0*
1,1,0.004942,0.002500,-0.010900*
1,1,0.004942,0.010500,0.003900*
1,1,0.004942,-0.002500,0.010900*
1,1,0.004942,-0.010500,-0.003900*
%
%AMD187*
4,1,8,-0.011000,-0.006200,0.003400,-0.012100,0.006600,-0.010700,0.012300,0.002900,0.011000,0.006200,-0.003400,0.012100,-0.006600,0.010700,-0.012300,-0.002900,-0.011000,-0.006200,0.0*
1,1,0.004942,-0.010000,-0.003900*
1,1,0.004942,0.004400,-0.009800*
1,1,0.004942,0.010000,0.003900*
1,1,0.004942,-0.004400,0.009800*
%
%AMD188*
4,1,8,-0.033800,-0.008500,0.023700,-0.025500,0.029300,-0.022600,0.036900,0.003000,0.033800,0.008500,-0.023700,0.025500,-0.029300,0.022600,-0.036900,-0.003000,-0.033800,-0.008500,0.0*
1,1,0.008878,-0.032500,-0.004200*
1,1,0.008878,0.025000,-0.021300*
1,1,0.008878,0.032500,0.004200*
1,1,0.008878,-0.025000,0.021300*
%
%AMD189*
4,1,8,-0.017600,-0.009800,0.012900,-0.015400,0.016600,-0.012800,0.020100,0.006000,0.017600,0.009800,-0.012900,0.015400,-0.016600,0.012800,-0.020100,-0.006000,-0.017600,-0.009800,0.0*
1,1,0.006418,-0.017000,-0.006600*
1,1,0.006418,0.013500,-0.012300*
1,1,0.006418,0.017000,0.006600*
1,1,0.006418,-0.013500,0.012300*
%
%AMD190*
4,1,8,0.012400,-0.002000,0.004900,0.011600,0.001500,0.012500,-0.011400,0.005300,-0.012400,0.002000,-0.004900,-0.011600,-0.001500,-0.012500,0.011400,-0.005300,0.012400,-0.002000,0.0*
1,1,0.004942,0.010300,-0.003200*
1,1,0.004942,0.002700,0.010400*
1,1,0.004942,-0.010300,0.003200*
1,1,0.004942,-0.002700,-0.010400*
%
%AMD191*
4,1,8,0.003100,-0.012200,0.012600,0.000200,0.012100,0.003600,0.000300,0.012600,-0.003100,0.012200,-0.012600,-0.000200,-0.012100,-0.003600,-0.000300,-0.012600,0.003100,-0.012200,0.0*
1,1,0.004942,0.001100,-0.010700*
1,1,0.004942,0.010600,0.001700*
1,1,0.004942,-0.001100,0.010700*
1,1,0.004942,-0.010600,-0.001700*
%
%AMD192*
4,1,8,-0.011200,0.005700,-0.008200,-0.009600,-0.005300,-0.011400,0.009200,-0.008600,0.011200,-0.005700,0.008200,0.009600,0.005300,0.011400,-0.009200,0.008600,-0.011200,0.005700,0.0*
1,1,0.004942,-0.008800,0.006200*
1,1,0.004942,-0.005700,-0.009100*
1,1,0.004942,0.008800,-0.006200*
1,1,0.004942,0.005700,0.009100*
%
%AMD193*
4,1,8,0.007800,0.009900,-0.007800,0.009900,-0.010200,0.007400,-0.010200,-0.007400,-0.007800,-0.009900,0.007800,-0.009900,0.010200,-0.007400,0.010200,0.007400,0.007800,0.009900,0.0*
1,1,0.004942,0.007800,0.007400*
1,1,0.004942,-0.007800,0.007400*
1,1,0.004942,-0.007800,-0.007400*
1,1,0.004942,0.007800,-0.007400*
%
%AMD194*
4,1,8,-0.005400,-0.011800,0.010800,-0.007200,0.012400,-0.004200,0.008400,0.010100,0.005400,0.011800,-0.010800,0.007200,-0.012400,0.004200,-0.008400,-0.010100,-0.005400,-0.011800,0.0*
1,1,0.004942,-0.006100,-0.009400*
1,1,0.004942,0.010100,-0.004800*
1,1,0.004942,0.006100,0.009400*
1,1,0.004942,-0.010100,0.004800*
%
%AMD195*
4,1,8,-0.001000,-0.012900,0.012600,-0.003100,0.013100,0.000300,0.004400,0.012300,0.001000,0.012900,-0.012600,0.003100,-0.013100,-0.000300,-0.004400,-0.012300,-0.001000,-0.012900,0.0*
1,1,0.004942,-0.002500,-0.010900*
1,1,0.004942,0.011100,-0.001100*
1,1,0.004942,0.002500,0.010900*
1,1,0.004942,-0.011100,0.001100*
%
%AMD196*
4,1,8,-0.003600,0.012100,-0.012600,-0.000700,-0.011900,-0.004100,0.000200,-0.012600,0.003600,-0.012100,0.012600,0.000700,0.011900,0.004100,-0.000200,0.012600,-0.003600,0.012100,0.0*
1,1,0.004942,-0.001600,0.010600*
1,1,0.004942,-0.010500,-0.002100*
1,1,0.004942,0.001600,-0.010600*
1,1,0.004942,0.010500,0.002100*
%
%AMD197*
4,1,8,-0.011000,-0.006200,0.003400,-0.012100,0.006600,-0.010700,0.012300,0.002900,0.011000,0.006200,-0.003400,0.012100,-0.006600,0.010700,-0.012300,-0.002900,-0.011000,-0.006200,0.0*
1,1,0.004942,-0.010000,-0.003900*
1,1,0.004942,0.004400,-0.009800*
1,1,0.004942,0.010000,0.003900*
1,1,0.004942,-0.004400,0.009800*
%
%AMD198*
4,1,8,-0.003500,-0.012100,0.010900,-0.006300,0.012200,-0.003000,0.006700,0.010700,0.003500,0.012100,-0.010900,0.006300,-0.012200,0.003000,-0.006700,-0.010700,-0.003500,-0.012100,0.0*
1,1,0.004942,-0.004500,-0.009800*
1,1,0.004942,0.010000,-0.003900*
1,1,0.004942,0.004500,0.009800*
1,1,0.004942,-0.010000,0.003900*
%
%AMD199*
4,1,8,-0.016700,-0.011200,0.014100,-0.014300,0.017600,-0.011400,0.019600,0.007700,0.016700,0.011200,-0.014100,0.014300,-0.017600,0.011400,-0.019600,-0.007700,-0.016700,-0.011200,0.0*
1,1,0.006418,-0.016400,-0.008000*
1,1,0.006418,0.014400,-0.011100*
1,1,0.006418,0.016400,0.008000*
1,1,0.006418,-0.014400,0.011100*
%
%AMD200*
4,1,4,-0.000600,0.028400,-0.028400,0.000800,0.000600,-0.028400,0.028400,-0.000800,-0.000600,0.028400,0.0*
%
%AMD201*
4,1,8,-0.001700,-0.012900,0.012400,-0.003700,0.013100,-0.000300,0.005000,0.012100,0.001700,0.012900,-0.012400,0.003700,-0.013100,0.000300,-0.005000,-0.012100,-0.001700,-0.012900,0.0*
1,1,0.004942,-0.003000,-0.010800*
1,1,0.004942,0.011100,-0.001600*
1,1,0.004942,0.003000,0.010800*
1,1,0.004942,-0.011100,0.001600*
%
%AMD202*
4,1,4,-0.023900,0.015500,-0.016600,-0.023100,0.023900,-0.015500,0.016600,0.023100,-0.023900,0.015500,0.0*
%
%AMD203*
4,1,8,-0.011000,-0.006200,0.003500,-0.012100,0.006700,-0.010700,0.012200,0.003000,0.011000,0.006200,-0.003500,0.012100,-0.006700,0.010700,-0.012200,-0.003000,-0.011000,-0.006200,0.0*
1,1,0.004942,-0.010000,-0.003900*
1,1,0.004942,0.004400,-0.009800*
1,1,0.004942,0.010000,0.003900*
1,1,0.004942,-0.004400,0.009800*
%
%AMD204*
4,1,8,-0.007800,0.009900,-0.011400,-0.005300,-0.009500,-0.008200,0.004900,-0.011600,0.007800,-0.009900,0.011400,0.005300,0.009500,0.008200,-0.004900,0.011600,-0.007800,0.009900,0.0*
1,1,0.004942,-0.005400,0.009300*
1,1,0.004942,-0.009000,-0.005900*
1,1,0.004942,0.005400,-0.009300*
1,1,0.004942,0.009000,0.005900*
%
%AMD206*
4,1,4,0.017500,0.028400,-0.028400,0.017500,-0.017500,-0.028400,0.028400,-0.017500,0.017500,0.028400,0.0*
%
%AMD207*
4,1,4,0.039800,-0.001100,-0.015300,0.036700,-0.039800,0.001100,0.015300,-0.036700,0.039800,-0.001100,0.0*
1,1,0.043327,-0.027500,0.018900*
1,1,0.043327,0.027500,-0.018900*
%
%AMD208*
4,1,4,0.009800,-0.022100,0.024200,-0.001200,-0.009800,0.022100,-0.024200,0.001200,0.009800,-0.022100,0.0*
1,1,0.041359,0.007200,0.010500*
1,1,0.041359,-0.007200,-0.010500*
%
G04~CAMADD=38~8~0.0~0.0~433.1~236.2~20.1~0.0~15~0.0~0.0~0.0~0.0~0~0.0~0.0~0.0~0.0~0~0.0~0.0~0.0~13.0~466.0~320.0*
%ADD38D38*%
G04~CAMADD=50~9~0.0~0.0~137.8~255.9~0.0~0.0~0~0.0~0.0~0.0~0.0~0~0.0~0.0~0.0~0.0~0~0.0~0.0~0.0~71.0~284.0~211.0*
%ADD50D50*%
G04~CAMADD=57~9~0.0~0.0~295.3~315.0~0.0~0.0~0~0.0~0.0~0.0~0.0~0~0.0~0.0~0.0~0.0~0~0.0~0.0~0.0~190.0~344.0~359.0*
%ADD57D57*%
G04~CAMADD=70~10~0.0~212.6~0.0~0.0~0.0~0.0~0~0.0~0.0~0.0~0.0~0~0.0~0.0~0.0~0.0~0~0.0~0.0~0.0~146.5~212.6~0.0*
%ADD70D70*%
G04~CAMADD=71~9~0.0~0.0~212.6~118.1~0.0~0.0~0~0.0~0.0~0.0~0.0~0~0.0~0.0~0.0~0.0~0~0.0~0.0~0.0~56.5~216.0~241.0*
%ADD71D71*%
G04~CAMADD=72~9~0.0~0.0~118.1~212.6~0.0~0.0~0~0.0~0.0~0.0~0.0~0~0.0~0.0~0.0~0.0~0~0.0~0.0~0.0~56.5~242.0~215.0*
%ADD72D72*%
G04~CAMADD=73~10~0.0~315.0~0.0~0.0~0.0~0.0~0~0.0~0.0~0.0~0.0~0~0.0~0.0~0.0~0.0~0~0.0~0.0~0.0~146.5~315.0~0.0*
%ADD73D73*%
G04~CAMADD=74~10~0.0~118.1~0.0~0.0~0.0~0.0~0~0.0~0.0~0.0~0.0~0~0.0~0.0~0.0~0.0~0~0.0~0.0~0.0~146.5~118.1~0.0*
%ADD74D74*%
G04~CAMADD=77~9~0.0~0.0~141.7~259.8~0.0~0.0~0~0.0~0.0~0.0~0.0~0~0.0~0.0~0.0~0.0~0~0.0~0.0~0.0~22.6~228.0~291.0*
%ADD77D77*%
G04~CAMADD=78~9~0.0~0.0~137.8~255.9~0.0~0.0~0~0.0~0.0~0.0~0.0~0~0.0~0.0~0.0~0.0~0~0.0~0.0~0.0~35.2~258.0~285.0*
%ADD78D78*%
G04~CAMADD=79~9~0.0~0.0~141.7~259.8~0.0~0.0~0~0.0~0.0~0.0~0.0~0~0.0~0.0~0.0~0.0~0~0.0~0.0~0.0~208.9~248.0~293.0*
%ADD79D79*%
G04~CAMADD=84~9~0.0~0.0~870.0~3150.0~0.0~0.0~0~0.0~0.0~0.0~0.0~0~0.0~0.0~0.0~0.0~0~0.0~0.0~0.0~329.0~2368.0~3147.0*
%ADD84D84*%
G04~CAMADD=85~9~0.0~0.0~196.8~228.3~0.0~0.0~0~0.0~0.0~0.0~0.0~0~0.0~0.0~0.0~0.0~0~0.0~0.0~0.0~190.0~232.0~257.0*
%ADD85D85*%
%ADD101C,0.033465*%
G04~CAMADD=153~8~0.0~0.0~216.7~197.1~24.7~0.0~15~0.0~0.0~0.0~0.0~0~0.0~0.0~0.0~0.0~0~0.0~0.0~0.0~242.0~258.0~266.0*
%ADD153D153*%
G04~CAMADD=154~8~0.0~0.0~216.7~197.1~24.7~0.0~15~0.0~0.0~0.0~0.0~0~0.0~0.0~0.0~0.0~0~0.0~0.0~0.0~126.0~268.0~271.0*
%ADD154D154*%
G04~CAMADD=155~8~0.0~0.0~216.7~197.1~24.7~0.0~15~0.0~0.0~0.0~0.0~0~0.0~0.0~0.0~0.0~0~0.0~0.0~0.0~306.3~268.0~271.0*
%ADD155D155*%
G04~CAMADD=156~8~0.0~0.0~216.7~197.1~24.7~0.0~15~0.0~0.0~0.0~0.0~0~0.0~0.0~0.0~0.0~0~0.0~0.0~0.0~301.5~262.0~269.0*
%ADD156D156*%
G04~CAMADD=157~8~0.0~0.0~216.7~197.1~24.7~0.0~15~0.0~0.0~0.0~0.0~0~0.0~0.0~0.0~0.0~0~0.0~0.0~0.0~261.7~220.0~236.0*
%ADD157D157*%
G04~CAMADD=158~8~0.0~0.0~216.7~197.1~24.7~0.0~15~0.0~0.0~0.0~0.0~0~0.0~0.0~0.0~0.0~0~0.0~0.0~0.0~268.5~200.0~220.0*
%ADD158D158*%
G04~CAMADD=159~8~0.0~0.0~204.9~197.1~24.7~0.0~15~0.0~0.0~0.0~0.0~0~0.0~0.0~0.0~0.0~0~0.0~0.0~0.0~161.9~242.0~239.0*
%ADD159D159*%
G04~CAMADD=160~8~0.0~0.0~204.9~197.1~24.7~0.0~15~0.0~0.0~0.0~0.0~0~0.0~0.0~0.0~0.0~0~0.0~0.0~0.0~157.5~250.0~246.0*
%ADD160D160*%
G04~CAMADD=161~8~0.0~0.0~689.2~354.5~44.4~0.0~15~0.0~0.0~0.0~0.0~0~0.0~0.0~0.0~0.0~0~0.0~0.0~0.0~134.0~698.0~705.0*
%ADD161D161*%
G04~CAMADD=162~8~0.0~0.0~204.9~197.1~24.7~0.0~15~0.0~0.0~0.0~0.0~0~0.0~0.0~0.0~0.0~0~0.0~0.0~0.0~319.5~264.0~263.0*
%ADD162D162*%
G04~CAMADD=163~8~0.0~0.0~204.9~197.1~24.7~0.0~15~0.0~0.0~0.0~0.0~0~0.0~0.0~0.0~0.0~0~0.0~0.0~0.0~117.1~252.0~256.0*
%ADD163D163*%
G04~CAMADD=164~8~0.0~0.0~689.2~354.5~44.4~0.0~15~0.0~0.0~0.0~0.0~0~0.0~0.0~0.0~0.0~0~0.0~0.0~0.0~126.0~656.0~730.0*
%ADD164D164*%
G04~CAMADD=165~8~0.0~0.0~216.7~197.1~24.7~0.0~15~0.0~0.0~0.0~0.0~0~0.0~0.0~0.0~0.0~0~0.0~0.0~0.0~112.5~250.0~260.0*
%ADD165D165*%
%ADD166C,0.031516*%
G04~CAMADD=167~9~0.0~0.0~206.7~242.1~0.0~0.0~0~0.0~0.0~0.0~0.0~0~0.0~0.0~0.0~0.0~0~0.0~0.0~0.0~317.2~316.0~317.0*
%ADD167D167*%
G04~CAMADD=168~9~0.0~0.0~206.7~147.6~0.0~0.0~0~0.0~0.0~0.0~0.0~0~0.0~0.0~0.0~0.0~0~0.0~0.0~0.0~317.2~250.0~247.0*
%ADD168D168*%
G04~CAMADD=169~9~0.0~0.0~610.4~984.5~0.0~0.0~0~0.0~0.0~0.0~0.0~0~0.0~0.0~0.0~0.0~0~0.0~0.0~0.0~317.2~1116.0~1135.0*
%ADD169D169*%
G04~CAMADD=170~9~0.0~0.0~157.5~393.7~0.0~0.0~0~0.0~0.0~0.0~0.0~0~0.0~0.0~0.0~0.0~0~0.0~0.0~0.0~235.5~412.0~349.0*
%ADD170D170*%
G04~CAMADD=171~8~0.0~0.0~216.7~197.1~24.7~0.0~15~0.0~0.0~0.0~0.0~0~0.0~0.0~0.0~0.0~0~0.0~0.0~0.0~328.3~270.0~263.0*
%ADD171D171*%
G04~CAMADD=172~8~0.0~0.0~216.7~197.1~24.7~0.0~15~0.0~0.0~0.0~0.0~0~0.0~0.0~0.0~0.0~0~0.0~0.0~0.0~332.7~266.0~257.0*
%ADD172D172*%
G04~CAMADD=173~8~0.0~0.0~216.7~197.1~24.7~0.0~15~0.0~0.0~0.0~0.0~0~0.0~0.0~0.0~0.0~0~0.0~0.0~0.0~148.7~270.0~262.0*
%ADD173D173*%
G04~CAMADD=174~8~0.0~0.0~216.7~197.1~24.7~0.0~15~0.0~0.0~0.0~0.0~0~0.0~0.0~0.0~0.0~0~0.0~0.0~0.0~153.4~266.0~256.0*
%ADD174D174*%
G04~CAMADD=175~8~0.0~0.0~216.7~197.1~24.7~0.0~15~0.0~0.0~0.0~0.0~0~0.0~0.0~0.0~0.0~0~0.0~0.0~0.0~174.0~232.0~212.0*
%ADD175D175*%
G04~CAMADD=176~8~0.0~0.0~216.7~197.1~24.7~0.0~15~0.0~0.0~0.0~0.0~0~0.0~0.0~0.0~0.0~0~0.0~0.0~0.0~118.6~260.0~266.0*
%ADD176D176*%
G04~CAMADD=177~9~0.0~0.0~413.6~866.3~0.0~0.0~0~0.0~0.0~0.0~0.0~0~0.0~0.0~0.0~0.0~0~0.0~0.0~0.0~100.6~928.0~563.0*
%ADD177D177*%
G04~CAMADD=178~8~0.0~0.0~216.7~197.1~24.7~0.0~15~0.0~0.0~0.0~0.0~0~0.0~0.0~0.0~0.0~0~0.0~0.0~0.0~107.0~240.0~251.0*
%ADD178D178*%
G04~CAMADD=179~8~0.0~0.0~216.7~197.1~24.7~0.0~15~0.0~0.0~0.0~0.0~0~0.0~0.0~0.0~0.0~0~0.0~0.0~0.0~118.5~260.0~266.0*
%ADD179D179*%
G04~CAMADD=180~8~0.0~0.0~216.7~197.1~24.7~0.0~15~0.0~0.0~0.0~0.0~0~0.0~0.0~0.0~0.0~0~0.0~0.0~0.0~115.5~256.0~263.0*
%ADD180D180*%
G04~CAMADD=181~8~0.0~0.0~204.9~197.1~24.7~0.0~15~0.0~0.0~0.0~0.0~0~0.0~0.0~0.0~0.0~0~0.0~0.0~0.0~126.5~260.0~263.0*
%ADD181D181*%
G04~CAMADD=182~9~0.0~0.0~413.6~866.3~0.0~0.0~0~0.0~0.0~0.0~0.0~0~0.0~0.0~0.0~0.0~0~0.0~0.0~0.0~44.9~904.0~903.0*
%ADD182D182*%
G04~CAMADD=183~8~0.0~0.0~204.9~197.1~24.7~0.0~15~0.0~0.0~0.0~0.0~0~0.0~0.0~0.0~0.0~0~0.0~0.0~0.0~118.3~254.0~256.0*
%ADD183D183*%
G04~CAMADD=184~8~0.0~0.0~216.7~197.1~24.7~0.0~15~0.0~0.0~0.0~0.0~0~0.0~0.0~0.0~0.0~0~0.0~0.0~0.0~356.5~226.0~206.0*
%ADD184D184*%
G04~CAMADD=185~8~0.0~0.0~374.2~256.1~32.1~0.0~15~0.0~0.0~0.0~0.0~0~0.0~0.0~0.0~0.0~0~0.0~0.0~0.0~150.5~430.0~385.0*
%ADD185D185*%
G04~CAMADD=186~8~0.0~0.0~216.7~197.1~24.7~0.0~15~0.0~0.0~0.0~0.0~0~0.0~0.0~0.0~0.0~0~0.0~0.0~0.0~241.5~259.0~267.0*
%ADD186D186*%
G04~CAMADD=187~8~0.0~0.0~204.9~197.1~24.7~0.0~15~0.0~0.0~0.0~0.0~0~0.0~0.0~0.0~0.0~0~0.0~0.0~0.0~157.5~250.0~246.0*
%ADD187D187*%
G04~CAMADD=188~8~0.0~0.0~689.2~354.5~44.4~0.0~15~0.0~0.0~0.0~0.0~0~0.0~0.0~0.0~0.0~0~0.0~0.0~0.0~163.5~740.0~514.0*
%ADD188D188*%
G04~CAMADD=189~8~0.0~0.0~374.2~256.1~32.1~0.0~15~0.0~0.0~0.0~0.0~0~0.0~0.0~0.0~0.0~0~0.0~0.0~0.0~169.5~404.0~310.0*
%ADD189D189*%
G04~CAMADD=190~8~0.0~0.0~204.9~197.1~24.7~0.0~15~0.0~0.0~0.0~0.0~0~0.0~0.0~0.0~0.0~0~0.0~0.0~0.0~299.0~254.0~257.0*
%ADD190D190*%
G04~CAMADD=191~8~0.0~0.0~204.9~197.1~24.7~0.0~15~0.0~0.0~0.0~0.0~0~0.0~0.0~0.0~0.0~0~0.0~0.0~0.0~232.5~262.0~262.0*
%ADD191D191*%
G04~CAMADD=192~8~0.0~0.0~204.9~197.1~24.7~0.0~15~0.0~0.0~0.0~0.0~0~0.0~0.0~0.0~0.0~0~0.0~0.0~0.0~101.2~224.0~230.0*
%ADD192D192*%
G04~CAMADD=193~8~0.0~0.0~204.9~197.1~24.7~0.0~15~0.0~0.0~0.0~0.0~0~0.0~0.0~0.0~0.0~0~0.0~0.0~0.0~360.0~206.0~197.0*
%ADD193D193*%
G04~CAMADD=194~8~0.0~0.0~216.7~197.1~24.7~0.0~15~0.0~0.0~0.0~0.0~0~0.0~0.0~0.0~0.0~0~0.0~0.0~0.0~195.9~249.0~236.0*
%ADD194D194*%
G04~CAMADD=195~8~0.0~0.0~216.7~197.1~24.7~0.0~15~0.0~0.0~0.0~0.0~0~0.0~0.0~0.0~0.0~0~0.0~0.0~0.0~215.8~271.0~267.0*
%ADD195D195*%
G04~CAMADD=196~8~0.0~0.0~204.9~197.1~24.7~0.0~15~0.0~0.0~0.0~0.0~0~0.0~0.0~0.0~0.0~0~0.0~0.0~0.0~55.0~261.0~262.0*
%ADD196D196*%
G04~CAMADD=197~8~0.0~0.0~204.9~197.1~24.7~0.0~15~0.0~0.0~0.0~0.0~0~0.0~0.0~0.0~0.0~0~0.0~0.0~0.0~157.5~250.0~246.0*
%ADD197D197*%
G04~CAMADD=198~8~0.0~0.0~204.9~197.1~24.7~0.0~15~0.0~0.0~0.0~0.0~0~0.0~0.0~0.0~0.0~0~0.0~0.0~0.0~202.0~250.0~244.0*
%ADD198D198*%
G04~CAMADD=199~8~0.0~0.0~374.2~256.1~32.1~0.0~15~0.0~0.0~0.0~0.0~0~0.0~0.0~0.0~0.0~0~0.0~0.0~0.0~174.2~392.0~287.0*
%ADD199D199*%
G04~CAMADD=200~9~0.0~0.0~393.9~413.6~0.0~0.0~0~0.0~0.0~0.0~0.0~0~0.0~0.0~0.0~0.0~0~0.0~0.0~0.0~44.9~568.0~567.0*
%ADD200D200*%
G04~CAMADD=201~8~0.0~0.0~216.7~197.1~24.7~0.0~15~0.0~0.0~0.0~0.0~0~0.0~0.0~0.0~0.0~0~0.0~0.0~0.0~213.0~269.0~264.0*
%ADD201D201*%
G04~CAMADD=202~9~0.0~0.0~393.9~413.6~0.0~0.0~0~0.0~0.0~0.0~0.0~0~0.0~0.0~0.0~0.0~0~0.0~0.0~0.0~100.6~478.0~461.0*
%ADD202D202*%
G04~CAMADD=203~8~0.0~0.0~204.9~197.1~24.7~0.0~15~0.0~0.0~0.0~0.0~0~0.0~0.0~0.0~0.0~0~0.0~0.0~0.0~157.8~250.0~245.0*
%ADD203D203*%
G04~CAMADD=204~8~0.0~0.0~204.9~197.1~24.7~0.0~15~0.0~0.0~0.0~0.0~0~0.0~0.0~0.0~0.0~0~0.0~0.0~0.0~76.7~229.0~234.0*
%ADD204D204*%
%ADD205C,0.047264*%
G04~CAMADD=206~10~0.0~472.6~0.0~0.0~0.0~0.0~0~0.0~0.0~0.0~0.0~0~0.0~0.0~0.0~0.0~0~0.0~0.0~0.0~373.3~472.6~0.0*
%ADD206D206*%
G04~CAMADD=207~3~0.0~0.0~1102.6~433.3~0.0~0.0~0~0.0~0.0~0.0~0.0~0~0.0~0.0~0.0~0.0~0~0.0~0.0~0.0~325.5~982.0~808.0*
%ADD207D207*%
G04~CAMADD=208~3~0.0~0.0~669.5~413.6~0.0~0.0~0~0.0~0.0~0.0~0.0~0~0.0~0.0~0.0~0.0~0~0.0~0.0~0.0~235.5~556.0~622.0*
%ADD208D208*%
%ADD209C,0.016020*%
%LNflagmate_soldermask_top-1*%
%LPD*%
%SRX1Y1I0J0*%
G36*
X-00373752Y-00483472D02*
X-00373416Y-00483673D01*
X-00373414Y-00483672*
X-00356502Y-00493743*
X-00356165Y-00493943*
X-00355697Y-00494571*
X-00355505Y-0049533*
X-00355617Y-00496105*
X-00355818Y-00496442*
X-00355817*
X-00368911Y-0051843*
X-00369111Y-00518766*
X-00369738Y-00519235*
X-00370498Y-00519427*
X-00371272Y-00519314*
X-00371609Y-00519114*
X-00371611Y-00519113*
X-00388524Y-00509044*
X-0038886Y-00508844*
X-00389329Y-00508216*
X-00389521Y-00507457*
X-00389408Y-00506682*
X-00389208Y-00506346*
X-00389205Y-00506344*
X-00386183Y-00501269*
X-00385983Y-00500933*
X-00385355Y-00500464*
X-00384596Y-00500272*
X-00383821Y-00500385*
X-00383485Y-00500585*
X-00383486Y-00500584*
X-0037334Y-0050663*
X-00368302Y-00498171*
X-00378451Y-00492127*
X-00378787Y-00491927*
X-00379256Y-00491299*
X-00379448Y-0049054*
X-00379335Y-00489765*
X-00379135Y-00489429*
X-00376114Y-00484357*
X-00375914Y-0048402*
X-00375286Y-00483552*
X-00374527Y-0048336*
X-00373752Y-00483472*
G37*
G36*
X-00326309Y-00486523D02*
X-00325972Y-00486723D01*
X-00325971Y-00486722*
X-00320897Y-00489745*
X-00320561Y-00489945*
X-00320092Y-00490573*
X-003199Y-00491332*
X-00320013Y-00492107*
X-00320213Y-00492443*
Y-00492442*
X-00345395Y-00534725*
X-00345596Y-00535061*
X-00346223Y-0053553*
X-00346982Y-00535722*
X-00347757Y-00535609*
X-00348094Y-00535409*
X-00348092*
X-00353166Y-00532388*
X-00353503Y-00532188*
X-00353971Y-0053156*
X-00354164Y-00530801*
X-00354051Y-00530026*
X-00353851Y-0052969*
Y-00529689*
X-00328671Y-00487407*
X-0032847Y-00487071*
X-00327843Y-00486602*
X-00327084Y-0048641*
X-00326309Y-00486523*
G37*
G36*
X-00292483Y-00506667D02*
X-00292146Y-00506868D01*
Y-00506867*
X-00287072Y-00509889*
X-00286735Y-0051009*
X-00286267Y-00510718*
X-00286075Y-00511477*
X-00286187Y-00512252*
X-00286388Y-00512588*
X-00286387Y-00512585*
X-00311568Y-0055487*
X-00311768Y-00555206*
X-00312396Y-00555674*
X-00313155Y-00555867*
X-0031393Y-00555754*
X-00314267Y-00555554*
X-00314266*
X-00319342Y-00552533*
X-00319679Y-00552333*
X-00320147Y-00551705*
X-00320339Y-00550946*
X-00320227Y-00550171*
X-00320026Y-00549835*
X-00320023Y-00549833*
X-00294845Y-00507552*
X-00294645Y-00507215*
X-00294017Y-00506747*
X-00293258Y-00506555*
X-00292483Y-00506667*
G37*
G36*
X-00393225Y-00515408D02*
X-00392552Y-00515808D01*
X-00392551*
X-00375636Y-00525878*
X-00374963Y-00526279*
X-00374027Y-00527534*
X-00373642Y-00529053*
X-00373867Y-00530602*
X-00374268Y-00531275*
X-00374271Y-00531276*
X-00377292Y-00536352*
X-00377693Y-00537024*
X-00378948Y-00537961*
X-00380466Y-00538346*
X-00382016Y-00538121*
X-00382689Y-0053772*
Y-00537717*
X-00399602Y-00527646*
X-00400275Y-00527246*
X-00401212Y-0052599*
X-00401596Y-00524472*
X-00401371Y-00522922*
X-0040097Y-00522249*
X-00400971Y-0052225*
X-00397949Y-00517177*
X-00397548Y-00516504*
X-00396293Y-00515567*
X-00394775Y-00515182*
X-00393225Y-00515408*
G37*
G36*
X-00309397Y-00496594D02*
X-0030906Y-00496795D01*
X-00309059*
X-00303986Y-00499817*
X-00303649Y-00500017*
X-00303181Y-00500645*
X-00302989Y-00501404*
X-00303101Y-00502179*
X-00303302Y-00502515*
X-003033Y-00502516*
X-0033553Y-00556636*
X-00335731Y-00556972*
X-00336358Y-00557441*
X-00337118Y-00557633*
X-00337892Y-0055752*
X-00338229Y-0055732*
X-00338231Y-00557321*
X-00343303Y-005543*
X-00343639Y-005541*
X-00344107Y-00553472*
X-003443Y-00552713*
X-00344187Y-00551938*
X-00343987Y-00551601*
X-00343986Y-00551602*
X-00311759Y-00497479*
X-00311558Y-00497142*
X-00310931Y-00496674*
X-00310171Y-00496482*
X-00309397Y-00496594*
G37*
G36*
X-00403297Y-00532319D02*
X-00402624Y-00532719D01*
X-00402623Y-0053272*
X-00385712Y-00542791*
X-00385039Y-00543192*
X-00384103Y-00544447*
X-00383718Y-00545966*
X-00383943Y-00547515*
X-00384344Y-00548188*
X-00384342Y-00548189*
X-00387364Y-00553263*
X-00387765Y-00553936*
X-0038902Y-00554872*
X-00390539Y-00555257*
X-00392089Y-00555032*
X-00392761Y-00554631*
X-0039276Y-00554632*
X-00409674Y-0054456*
X-00410346Y-0054416*
X-00411283Y-00542904*
X-00411668Y-00541386*
X-00411442Y-00539836*
X-00411042Y-00539163*
Y-00539161*
X-00408021Y-00534088*
X-0040762Y-00533415*
X-00406365Y-00532478*
X-00404847Y-00532093*
X-00403297Y-00532319*
G37*
G36*
X-00279036Y-00539874D02*
X-00278699Y-00540074D01*
X-00261788Y-00550146*
X-00261786Y-00550148*
X-0026145Y-00550348*
X-00260982Y-00550976*
X-00260789Y-00551735*
X-00260902Y-0055251*
X-00261102Y-00552847*
X-00264126Y-00557919*
X-00264125Y-0055792*
X-00264326Y-00558257*
X-00264954Y-00558725*
X-00265713Y-00558917*
X-00266488Y-00558805*
X-00266824Y-00558604*
X-0027697Y-0055256*
X-00282006Y-00561018*
X-00271859Y-0056706*
X-00271861Y-00567062*
X-00271525Y-00567262*
X-00271056Y-0056789*
X-00270864Y-00568649*
X-00270976Y-00569424*
X-00271177Y-0056976*
X-00274197Y-00574834*
X-00274397Y-0057517*
X-00275025Y-00575639*
X-00275784Y-00575831*
X-00276559Y-00575718*
X-00276896Y-00575518*
X-0029381Y-00565445*
Y-00565446*
X-00294147Y-00565245*
X-00294615Y-00564618*
X-00294807Y-00563859*
X-00294695Y-00563084*
X-00294494Y-00562747*
X-002814Y-0054076*
X-00281398Y-00540759*
X-00281197Y-00540422*
X-0028057Y-00539954*
X-00279811Y-00539761*
X-00279036Y-00539874*
G37*
G36*
X-00380428Y-00557392D02*
X-00379755Y-00557793D01*
Y-00557796*
X-00374679Y-00560818*
X-00374006Y-00561218*
X-0037307Y-00562474*
X-00372685Y-00563992*
X-0037291Y-00565542*
X-00373311Y-00566215*
Y-00566214*
X-00383384Y-00583127*
X-00383784Y-00583799*
X-0038504Y-00584736*
X-00386558Y-00585121*
X-00388108Y-00584896*
X-00388781Y-00584495*
X-0038878*
X-00393854Y-00581474*
X-00394527Y-00581073*
X-00395464Y-00579818*
X-00395849Y-005783*
X-00395623Y-0057675*
X-00395222Y-00576077*
X-00395221*
X-00385152Y-00559161*
X-00384751Y-00558488*
X-00383496Y-00557552*
X-00381978Y-00557167*
X-00380428Y-00557392*
G37*
G36*
X-00298511Y-0057181D02*
X-00297839Y-00572211D01*
X-00297838*
X-00280924Y-00582282*
X-00280252Y-00582683*
X-00279315Y-00583938*
X-0027893Y-00585457*
X-00279156Y-00587006*
X-00279556Y-00587679*
X-00279557*
X-00282579Y-00592754*
X-0028298Y-00593427*
X-00284235Y-00594363*
X-00285753Y-00594748*
X-00287303Y-00594523*
X-00287976Y-00594122*
X-00287975Y-0059412*
X-00304889Y-00584051*
X-00305562Y-0058365*
X-00306498Y-00582395*
X-00306883Y-00580877*
X-00306658Y-00579327*
X-00306257Y-00578654*
X-00306256Y-00578653*
X-00303236Y-00573579*
X-00302835Y-00572906*
X-00301579Y-0057197*
X-00300061Y-00571585*
X-00298511Y-0057181*
G37*
G36*
X-00363514Y-00567467D02*
X-00362841Y-00567868D01*
X-00362839Y-00567869*
X-00357765Y-00570888*
X-00357092Y-00571289*
X-00356156Y-00572544*
X-00355771Y-00574063*
X-00355996Y-00575613*
X-00356397Y-00576285*
X-00356396Y-00576286*
X-00366468Y-005932*
X-00366869Y-00593873*
X-00368124Y-0059481*
X-00369643Y-00595195*
X-00371192Y-00594969*
X-00371865Y-00594568*
X-00371867*
X-00376941Y-00591546*
X-00377614Y-00591145*
X-00378551Y-0058989*
X-00378936Y-00588372*
X-0037871Y-00586822*
X-0037831Y-00586149*
X-00368238Y-00569236*
X-00367838Y-00568564*
X-00366582Y-00567627*
X-00365064Y-00567242*
X-00363514Y-00567467*
G37*
G36*
X-00308583Y-00588723D02*
X-0030791Y-00589124D01*
Y-00589125*
X-00290997Y-00599196*
X-00290324Y-00599596*
X-00289387Y-00600852*
X-00289002Y-0060237*
X-00289228Y-0060392*
X-00289628Y-00604593*
X-00292651Y-00609666*
X-00293052Y-00610338*
X-00294307Y-00611275*
X-00295826Y-0061166*
X-00297375Y-00611435*
X-00298048Y-00611034*
X-00298047*
X-00314961Y-00600962*
X-00315634Y-00600561*
X-0031657Y-00599306*
X-00316955Y-00597788*
X-0031673Y-00596238*
X-00316329Y-00595565*
Y-00595567*
X-00313307Y-00590492*
X-00312906Y-00589819*
X-00311651Y-00588883*
X-00310133Y-00588498*
X-00308583Y-00588723*
G37*
G36*
X-00329686Y-00587611D02*
X-00329013Y-00588012D01*
X-00329012*
X-00323938Y-00591034*
X-00323266Y-00591435*
X-00322329Y-0059269*
X-00321944Y-00594208*
X-0032217Y-00595758*
X-0032257Y-00596431*
X-00322571Y-00596429*
X-00332643Y-00613344*
X-00333044Y-00614017*
X-00334299Y-00614954*
X-00335817Y-00615338*
X-00337367Y-00615113*
X-0033804Y-00614712*
X-00343115Y-00611689*
X-00343788Y-00611288*
X-00344724Y-00610033*
X-00345109Y-00608514*
X-00344884Y-00606965*
X-00344483Y-00606292*
Y-00606293*
X-0033441Y-0058938*
X-00334009Y-00588707*
X-00332754Y-00587771*
X-00331236Y-00587386*
X-00329686Y-00587611*
G37*
G36*
X-00346601Y-00577539D02*
X-00345928Y-0057794D01*
X-00340853Y-0058096*
X-0034018Y-00581361*
X-00339243Y-00582616*
X-00338858Y-00584134*
X-00339084Y-00585684*
X-00339485Y-00586357*
X-00339484Y-00586359*
X-00349557Y-00603272*
X-00349957Y-00603945*
X-00351213Y-00604881*
X-00352731Y-00605266*
X-00354281Y-00605041*
X-00354954Y-0060464*
X-00354953Y-00604639*
X-00360027Y-0060162*
X-003607Y-00601219*
X-00361636Y-00599964*
X-00362021Y-00598446*
X-00361796Y-00596896*
X-00361395Y-00596223*
X-00361396Y-00596221*
X-00351325Y-00579308*
X-00350924Y-00578635*
X-00349669Y-00577699*
X-0034815Y-00577314*
X-00346601Y-00577539*
G37*
G54D38*
X-00392089Y-00090523D03*
X-00292348Y-00067494D03*
X-00300766Y-00031053D03*
X-00283936Y-00103938D03*
X-00383674Y-00126962D03*
X-00400502Y-00054077D03*
G54D50*
X00130062Y00356507D03*
X0014097Y00388145D03*
G54D57*
X00741728Y00092808D03*
X00662245Y00078793D03*
X00728737Y00166476D03*
X00649257Y0015246D03*
G54D70*
X0006218Y-00412723D03*
X00404207Y00104026D03*
X0039836Y-00635235D03*
X00740385Y-00118488D03*
G54D71*
X00131779Y-00458789D03*
X00148192Y-00469655D03*
X00164608Y-0048052D03*
X00181026Y-00491385D03*
X0019744Y-00502249D03*
X00230272Y-00523978D03*
X00279515Y-00556571D03*
X00328761Y-00589165D03*
X00670788Y-00072421D03*
X00605128Y-00028962D03*
X00572298Y-00007229D03*
X00555883Y00003631D03*
X00523052Y00025362D03*
X00506636Y00036228D03*
X00473805Y00057957D03*
X00457394Y00068823D03*
X00424563Y00090554D03*
X00440977Y00079689D03*
X00539467Y000145D03*
X00588711Y-00018097D03*
X00621545Y-00039826D03*
X00637959Y-0005069D03*
X00654371Y-00061557D03*
X00687205Y-00083287D03*
X00703619Y-00094151D03*
X00720032Y-00105015D03*
X00378005Y-00621763D03*
X00361591Y-00610895D03*
X00345175Y-00600029D03*
X00312347Y-00578302D03*
X00295933Y-00567436D03*
X00263097Y-00545709D03*
X00246687Y-00534842D03*
X00213857Y-00513115D03*
X00115364Y-00447922D03*
X00098949Y-00437062D03*
X00082535Y-00426192D03*
X00490222Y00047093D03*
G54D72*
X00466158Y-00532805D03*
X00509616Y-00467144D03*
X00563941Y-00385071D03*
X00618267Y-00302991D03*
X00650862Y-00253749D03*
X00683456Y-00204504D03*
X0071605Y-00155258D03*
X00379871Y00067255D03*
X00369003Y0005084D03*
X00358143Y00034424D03*
X00347276Y00018012D03*
X00336413Y00001596D03*
X00325543Y-00014821D03*
X0031468Y-00031236D03*
X00303815Y-00047649D03*
X00292951Y-00064065D03*
X00260354Y-00113308D03*
X0020603Y-00195386D03*
X0016257Y-00261047D03*
X00119113Y-0032671D03*
X00075654Y-00392368D03*
X00086519Y-00375952D03*
X0009738Y-00359539D03*
X00108246Y-00343123D03*
X00129975Y-0031029D03*
X00140839Y-00293875D03*
X00151704Y-00277459D03*
X00173436Y-0024463D03*
X00184299Y-00228216D03*
X00195167Y-00211799D03*
X00216896Y-0017897D03*
X00227762Y-00162554D03*
X00238627Y-0014614D03*
X00249491Y-00129727D03*
X0027122Y-00096893D03*
X00282087Y-0008048D03*
X00390734Y0008367D03*
X00726915Y-00138843D03*
X00661727Y-00237333D03*
X00629131Y-00286579D03*
X006074Y-00319407D03*
X00596537Y-00335824D03*
X00585671Y-00352236D03*
X00574805Y-00368655D03*
X00553076Y-00401484D03*
X00542212Y-004179D03*
X00531346Y-00434313D03*
X00520481Y-00450732D03*
X00498751Y-0048356D03*
X00487884Y-00499976D03*
X00477023Y-00516389D03*
X00455294Y-00549219D03*
X00444427Y-00565634D03*
X00433563Y-00582048D03*
X00422696Y-00598466D03*
X0041183Y-00614879D03*
X00705184Y-0017167D03*
X0067259Y-00220919D03*
X00639996Y-00270164D03*
X00694319Y-00188087D03*
G54D73*
X00165849Y-00393048D03*
X00209309Y-00327388D03*
X00252768Y-00261729D03*
X00296228Y-00196068D03*
X00339687Y-00130409D03*
X00383147Y-0006475D03*
X00426606Y0000091D03*
X00218377Y-00427817D03*
X00261836Y-00362159D03*
X00305295Y-00296497D03*
X00348757Y-00230838D03*
X00392216Y-00165177D03*
X00435675Y-00099517D03*
X00479136Y-00033856D03*
X00270906Y-00462585D03*
X00314366Y-00396922D03*
X00357827Y-00331266D03*
X00401283Y-00265604D03*
X00444745Y-00199944D03*
X00488203Y-00134282D03*
X00531663Y-00068623D03*
X00323433Y-00497352D03*
X0036689Y-00431693D03*
X00410352Y-00366033D03*
X00453811Y-00300372D03*
X00497271Y-0023471D03*
X00540732Y-00169054D03*
X00584189Y-00103392D03*
X0037596Y-00532123D03*
X00419421Y-00466459D03*
X00462883Y-00400799D03*
X00506341Y-0033514D03*
X005498Y-00269477D03*
X00593257Y-00203821D03*
X00636721Y-00138159D03*
G54D74*
X00133524Y-00359853D03*
X00144392Y-00343439D03*
X00155253Y-00327022D03*
X00166119Y-00310607D03*
X00220446Y-00228532D03*
X00231311Y-00212118D03*
X00242175Y-00195701D03*
X00253039Y-00179288D03*
X00329093Y-00064384D03*
X00339961Y-00047967D03*
X00350825Y-00031549D03*
X00361688Y-00015136D03*
X00647311Y-00204186D03*
X00636447Y-00220602D03*
X00625582Y-00237015D03*
X00614716Y-00253433D03*
X00538665Y-00368338D03*
X00527797Y-00384753D03*
X00516933Y-00401168D03*
X00506068Y-00417584D03*
X00451741Y-00499655D03*
X00440879Y-00516071D03*
X00430014Y-00532488D03*
X0041915Y-00548903D03*
G54D77*
X00422552Y00179495D03*
X00454176Y00192654D03*
G54D78*
X00343655Y00240566D03*
X00371008Y00259846D03*
G54D79*
X0040352Y00218955D03*
X00433503Y00235513D03*
G54D84*
X-00112791Y-00406143D03*
X-00305648Y-00290256D03*
G54D85*
X00703422Y00077659D03*
X00687562Y00167609D03*
G54D101*
X00074016Y-00516855D03*
X00169385Y-00697146D03*
X00092708Y-00719954D03*
X-0038261Y00165037D03*
X-00320544Y00114569D03*
X-00225394Y00294978D03*
G54D153*
X00208699Y00354769D03*
X00177414Y00371404D03*
G54D154*
X00289754Y00202511D03*
X00318419Y00223336D03*
G54D155*
X-00411447Y-00298812D03*
X-00439997Y-00319798D03*
G54D156*
X-00433571Y-00265692D03*
X-00463783Y-00284207D03*
G54D157*
X-00280383Y00041952D03*
X-00315441Y00047093D03*
G54D158*
X-00283405Y00007418D03*
X-00318828Y00008351D03*
G54D159*
X00174593Y00539032D03*
X00165407Y00510968D03*
G54D160*
X00204353Y00496358D03*
X00215647Y00523639D03*
G54D161*
X-00450382Y-00434928D03*
X-00529679Y-00511506D03*
G54D162*
X-00423087Y-00495372D03*
X-00442264Y-00517824D03*
G54D163*
X-00638386Y-00325231D03*
X-00664662Y-00338703D03*
G54D164*
X-00506528Y-00368014D03*
X-00595711Y-0043281D03*
G54D165*
X00357565Y00151931D03*
X00390292Y00165514D03*
G54D166*
X00092825Y-00667754D03*
X-00339426Y00194372D03*
X-00237543Y00240406D03*
X-0030063Y00162823D03*
X-00269089Y00201618D03*
X-0030788Y00233163D03*
X00078571Y-00619831D03*
X00064312Y-00571906D03*
X00140751Y-00653497D03*
X00126493Y-00605571D03*
X00112239Y-0055765D03*
X-00276334Y00271954D03*
G54D167*
X00297695Y00393783D03*
X00305229Y00264194D03*
X00236572Y0032767D03*
X00366355Y00330307D03*
G54D168*
X00253771Y00346274D03*
X00349153Y00311704D03*
X00322428Y00282796D03*
X00280497Y0037518D03*
X00335791Y0029725D03*
X00267134Y00360725D03*
G54D169*
X00301462Y00328989D03*
G54D170*
X-00413266Y00421373D03*
X-00505795Y00210279D03*
X-00535913Y00242921D03*
X-00383149Y00388735D03*
X-003943Y00372511D03*
X-00405448Y00356288D03*
X-00416598Y00340065D03*
X-00427753Y00323841D03*
X-00438897Y00307615D03*
X-0045005Y00291395D03*
X-00461199Y00275172D03*
X-00472347Y00258949D03*
X-00483497Y00242727D03*
X-00494649Y00226502D03*
X-0052476Y00259146D03*
X-00513613Y00275366D03*
X-00502462Y0029159D03*
X-00491314Y00307815D03*
X-00480163Y00324037D03*
X-00469014Y00340259D03*
X-00457863Y00356482D03*
X-00446716Y00372707D03*
X-00435565Y00388927D03*
X-00424416Y00405151D03*
G54D171*
X00299298Y0049008D03*
X00280701Y00459918D03*
G54D172*
X00258123Y00515745D03*
X00241877Y00484255D03*
G54D173*
X00238655Y00397342D03*
X00257039Y00427632D03*
G54D174*
X00206787Y0041482D03*
X00222652Y00446501D03*
G54D175*
X00042449Y00371084D03*
X00046125Y00406327D03*
G54D176*
X00341442Y00185346D03*
X00372546Y00202317D03*
G54D177*
X-00066586Y00338597D03*
X-00088005Y00452747D03*
G54D178*
X00644075Y00196913D03*
X0067796Y00207274D03*
G54D179*
X00591889Y00321369D03*
X00623027Y00338276D03*
G54D180*
X00607895Y0028995D03*
X00639876Y00305206D03*
G54D181*
X00535738Y00396425D03*
X00559471Y00413987D03*
G54D182*
X0044762Y00447793D03*
X00529915Y0052974D03*
G54D183*
X-00362843Y-00193011D03*
X-00336842Y-00179018D03*
G54D184*
X-00038063Y-00622341D03*
X-00040228Y-00657708D03*
G54D185*
X00662577Y-00344336D03*
X00636378Y-00390578D03*
G54D186*
X-00338111Y-00659851D03*
X-0036925Y-00642945D03*
G54D187*
X-00283562Y-00684581D03*
X-00272264Y-00657302D03*
G54D188*
X-00210553Y-0071081D03*
X-00179242Y-00605113D03*
G54D189*
X-0012443Y-00671361D03*
X-00114744Y-00619103D03*
G54D190*
X-00310078Y00589848D03*
X-00335902Y00575533D03*
G54D191*
X-00370064Y00283961D03*
X-00393492Y00301937D03*
G54D192*
X00071004Y-00287915D03*
X0004204Y-00293645D03*
G54D193*
X-00000001Y-00626458D03*
X0Y-00655986D03*
G54D194*
X00472157Y0015382D03*
X00481838Y00119734D03*
G54D195*
X00410277Y00270888D03*
X00389542Y0029962D03*
G54D196*
X-00437241Y-00598704D03*
X-00413053Y-00615641D03*
G54D197*
X-00241649Y-0058339D03*
X-00252948Y-00610669D03*
G54D198*
X00653902Y00280117D03*
X00664964Y00252738D03*
G54D199*
X-00660295Y00042678D03*
X-00654903Y00095554D03*
G54D200*
X00531134Y00446224D03*
G54D201*
X00601937Y00369777D03*
X00582638Y00399493D03*
G54D202*
X-00018286Y00406746D03*
G54D203*
X00185842Y00459853D03*
X00174696Y00432508D03*
G54D204*
X00110366Y0039646D03*
X00081629Y00403258D03*
G54D205*
X-0048168Y-00156454D03*
G54D206*
X-0049981Y-00079829D03*
G54D207*
X-00671794Y0022524D03*
X-0045103Y00546456D03*
G54D208*
X-00538434Y00161055D03*
X-00343316Y00444959D03*
G54D209*
X-00523969Y-00284492D03*
X-00395068Y-00446543D03*
X-00425255Y-00417897D03*
X-0045337Y-00387215D03*
X-00502848Y-00320349D03*
X00104021Y00245058D03*
X00167538Y00206893D03*
X0020603Y-00195386D03*
M02*